<svg id="Group_5052" data-name="Group 5052" xmlns="http://www.w3.org/2000/svg" width="145.391" height="27.58" viewBox="0 0 145.391 27.58">
  <path id="Path_19150" data-name="Path 19150" d="M270.81,189.08l6,0v-.947h-6l0,.944m12.51,1.543h1.592v-2.487h1.227V186.8h-1.227v-.3h0c0-1.073-1.487-2.342-3.5-2.342h-2.563v-1.017h6.932v-1.659H278.3l-.291-.933h-2.03l.282.933h-6.871c-.357,0-.536.155-.536.471h0v6.534h0a24.638,24.638,0,0,1-.3,3.912,14.959,14.959,0,0,1-1.267,3.768h0l1.9.6h0a13.414,13.414,0,0,0,1.609-6.117V190.6h1.611l-.964,1.216a15.524,15.524,0,0,1,1.92,1.047c.052.053.264.093-.091.335l-2.711,1.776.882,1.76,3.6-2.625a10.686,10.686,0,0,0,1.108-.934c.107-.174.252-.327-.113-.591a9.217,9.217,0,0,0-1.51-.948l-1.8-1.034h4.083v3.665h0a.681.681,0,0,1-1.046.68h0l-.188.1.961,1.919h0s2.471-.688,2.471-1.61h0v-4.736h3.923s-1.434.778-2.687,1.545a5.466,5.466,0,0,0-.591.418c-.1.075-.4.341.06.774.713.538,4.554,3.369,4.554,3.369l.88-1.783s-1.388-.842-2.073-1.3c-.2-.138-.75-.532-.78-.577-.069-.077-.115-.136.038-.221.4-.288,1.935-1.032,1.935-1.032l-.95-1.2m-6.506-7.34h-5.763c-.159,0-.237.069-.237.209h0v3.275h6v-.946h-5.09V184.3h5.09v-1.017h0m2.039,5.8h3.92c.121,0,.179-.051.179-.157h0v-.79h-4.1v.947h0m0-2.316h4.1v-.046h0c0-.41-.779-.9-1.431-.9h-2.668v.946Z" transform="translate(-200.724 -180.54)" fill-rule="evenodd"/>
  <path id="Path_19151" data-name="Path 19151" d="M304.516,182.556l-3.827,2.374-1.388-1.286h0c1.751-1.04,5.147-3.08,5.147-3.08h0l4.863,3.142-1.429,1.249h0c-.352-.249-3.366-2.4-3.366-2.4h0m3.77,2.759v1.259h-3.067v1.182h3.008v1.628h-3.008v1.285h.278c2.441,0,3,.253,3,2.673h0v3.228h-8.351v-5.9h3.195v-1.285h-3.274v-1.628h3.274v-1.182h-3.327v-1.262l8.277,0h0m-1.677,8.008c0-1.045-.309-1.186-1.577-1.186h0l-3.157.005v2.7h4.734v-1.524Z" transform="translate(-212.155 -180.548)" fill-rule="evenodd"/>
  <path id="Path_19152" data-name="Path 19152" d="M319.385,195.689c-.224,1.117-2.131,1.613-2.131,1.613h0l-.964-1.924.189-.1h0a.683.683,0,0,0,1.045-.682h0l0-.141V189.1h-2.892v-1.695h2.892l-2.4-1.96,1.184-1.182,2.043,1.516h0s.979-1.137,1.261-1.421c.421-.421.723-1.252-.4-1.252h-4.514V181.48h5.631a1.952,1.952,0,0,1,1.363,3.2c-.409.554-2.22,2.728-2.22,2.728h1.422a2.256,2.256,0,0,1,2.1,2.073h0l0,2.144-1.807.806h0s-.015-1.508-.015-2.167c0-.716-.243-1.162-1.061-1.162h-.62v6.127a2.757,2.757,0,0,1-.1.461Z" transform="translate(-217.63 -180.876)" fill-rule="evenodd"/>
  <path id="Path_19153" data-name="Path 19153" d="M344.614,181.876l3.675,3.462-1.524,1.1-3.579-3.375,1.428-1.182h0m-.722,4.249,3.387,2.946-1.465,1.13-3.292-2.843,1.371-1.232h0m-2.3,7.793-.438-1.729,7.538-1.028V181.106h1.961v9.769l1.24-.183.473,1.755-1.712.257v4.041h-1.961v-3.786l-7.1.959Z" transform="translate(-227.098 -180.742)" fill-rule="evenodd"/>
  <path id="Path_19154" data-name="Path 19154" d="M335.829,195.34c0,.921-2.274,1.611-2.274,1.611h0l-.962-1.92.188-.1h0a.682.682,0,0,0,1.045-.682h0l.008-.042v-3.892l-1.771,2.449-1.81-.717,3.485-5.089H330.9V185.19h2.932v-2.213l-2.38.37-.269-1.8,6.7-.993.382,1.764-2.476.474v2.4h2.511v1.764h-2.511v.189l3.235,3.169-1.465,1.164-1.771-2.022v5.8l.035.081Z" transform="translate(-223.207 -180.545)" fill-rule="evenodd"/>
  <path id="Path_19155" data-name="Path 19155" d="M375.489,192.033a9.543,9.543,0,0,0,2.26-3.187c.34-.881-.392-.789-.554-.807-.055-.008-6.668,0-6.668,0h0v-1.765h3.84v-2h-3.926v-1.764h3.926v-1.413h1.96v1.413h4.419v1.764h-4.419v2h1.247c2.423,0,2.886.458,2.5,1.89a11.949,11.949,0,0,1-3.016,5.056,20.481,20.481,0,0,0,5.134,2.286l-1.34,1.639a24.014,24.014,0,0,1-5.2-2.72,17.24,17.24,0,0,1-5.944,2.718l-1.388-1.456a19.472,19.472,0,0,0,5.831-2.482,26.781,26.781,0,0,1-3.6-4.016l1.456-1.1A25.15,25.15,0,0,0,375.489,192.033Z" transform="translate(-236.8 -180.737)" fill-rule="evenodd"/>
  <path id="Path_19156" data-name="Path 19156" d="M365.242,190.555v5h0c0,.923-2.238,1.613-2.238,1.613h0l-.96-1.924.188-.1h0a.683.683,0,0,0,1.045-.682h0l0-3.114L361.55,192l-.837-1.61,2.568-.942v-3.6h-2.018v-1.764h2.018v-2.99h1.961v2.99h1.675v1.764h-1.675v2.83l1.339-.572.851,1.458-2.189.993Z" transform="translate(-234.084 -180.737)" fill-rule="evenodd"/>
  <path id="Path_19157" data-name="Path 19157" d="M267.289,219.825l2.45-6.276h1.422l2.468,6.276h-1.4l-.541-1.442h-2.548l-.55,1.442h-1.305m4.054-2.426-.912-2.587h-.018l-.905,2.587Z" transform="translate(-200.724 -192.327)" fill-rule="evenodd"/>
  <path id="Path_19158" data-name="Path 19158" d="M281.441,220.538a5.119,5.119,0,0,1-1.4.192,2.43,2.43,0,0,1-2.705-2.421,2.389,2.389,0,0,1,2.7-2.454,4.9,4.9,0,0,1,1.4.245h0l-.1,1.015h0a2.512,2.512,0,0,0-1.231-.327,1.505,1.505,0,1,0,.1,3.009,3.309,3.309,0,0,0,1.176-.243h0l.059.984Z" transform="translate(-204.313 -193.15)" fill-rule="evenodd"/>
  <path id="Path_19159" data-name="Path 19159" d="M286.176,218.7h.386c.433,0,.926.048.926.562,0,.478-.48.548-.941.548h-.372V218.7h0m-1.257,2h1.989c.844,0,1.835-.235,1.835-1.36a1.008,1.008,0,0,0-.95-1.04h0v-.015h0a1.068,1.068,0,0,0,.828-1.1c0-.808-.655-1.193-1.533-1.193h-2.169v4.713h0m1.257-3.824h.366c.417,0,.824.041.824.476,0,.4-.428.5-.839.5h-.351v-.977Z" transform="translate(-207.019 -193.194)" fill-rule="evenodd"/>
  <path id="Path_19160" data-name="Path 19160" d="M291.969,215.979h3.321v.89h-2.066v.976h1.953v.89h-1.953v1.071h2.141v.887h-3.4v-4.713Z" transform="translate(-209.537 -193.194)" fill-rule="evenodd"/>
  <path id="Path_19161" data-name="Path 19161" d="M298.69,215.979h1.256v3.783h1.945v.931h-3.2v-4.713Z" transform="translate(-211.937 -193.194)" fill-rule="evenodd"/>
  <path id="Path_19162" data-name="Path 19162" d="M310.7,214.529h.44c.649,0,1.2.254,1.2.982s-.568.936-1.2.936h-.44v-1.918h0m-1.263,5.295H310.7v-2.39h.532c1.35,0,2.424-.529,2.424-1.994,0-1.5-1.254-1.894-2.622-1.894h-1.6v6.278Z" transform="translate(-215.775 -192.325)" fill-rule="evenodd"/>
  <path id="Path_19163" data-name="Path 19163" d="M317.624,218.294c0-.818.3-1.506,1.069-1.506s1.068.688,1.068,1.506c0,.774-.306,1.5-1.068,1.5s-1.069-.729-1.069-1.5h0m-1.294,0a2.363,2.363,0,1,0,2.362-2.439,2.191,2.191,0,0,0-2.362,2.439Z" transform="translate(-218.235 -193.15)" fill-rule="evenodd"/>
  <path id="Path_19164" data-name="Path 19164" d="M324.818,215.979h1.256v3.783h1.946v.931h-3.2v-4.713Z" transform="translate(-221.266 -193.194)" fill-rule="evenodd"/>
  <path id="Path_19165" data-name="Path 19165" d="M330.407,218.918l-1.743-2.94h1.444l.927,1.892.911-1.892h1.446l-1.73,2.94v1.774h-1.255v-1.774Z" transform="translate(-222.64 -193.194)" fill-rule="evenodd"/>
  <path id="Path_19166" data-name="Path 19166" d="M337.742,216.911h-1.164v-.933h3.581v.933H339v3.78h-1.255v-3.78Z" transform="translate(-225.466 -193.194)" fill-rule="evenodd"/>
  <path id="Path_19167" data-name="Path 19167" d="M343.268,215.979h3.323v.89h-2.066v.976h1.952v.89h-1.952v1.071h2.14v.887h-3.4v-4.713Z" transform="translate(-227.854 -193.194)" fill-rule="evenodd"/>
  <path id="Path_19168" data-name="Path 19168" d="M353.5,220.538a5.131,5.131,0,0,1-1.4.192,2.431,2.431,0,0,1-2.707-2.421,2.391,2.391,0,0,1,2.7-2.454,4.906,4.906,0,0,1,1.4.245h0l-.1,1.015h0a2.5,2.5,0,0,0-1.228-.327,1.505,1.505,0,1,0,.1,3.009,3.306,3.306,0,0,0,1.176-.243h0l.06.984Z" transform="translate(-230.043 -193.15)" fill-rule="evenodd"/>
  <path id="Path_19169" data-name="Path 19169" d="M357.039,215.979H358.3v1.8h1.487v-1.8h1.255v4.713h-1.255V218.67H358.3v2.022h-1.256v-4.713Z" transform="translate(-232.772 -193.194)" fill-rule="evenodd"/>
  <path id="Path_19170" data-name="Path 19170" d="M369.529,213.545h1.263v6.278h-1.263v-6.278Z" transform="translate(-237.232 -192.325)" fill-rule="evenodd"/>
  <path id="Path_19171" data-name="Path 19171" d="M373.107,215.979h1.6l1.593,3.2h.015l-.022-3.2h1.148v4.713h-1.56l-1.648-3.221h-.014l.04,3.221h-1.155v-4.713Z" transform="translate(-238.509 -193.194)" fill-rule="evenodd"/>
  <path id="Path_19172" data-name="Path 19172" d="M385.122,220.538a5.142,5.142,0,0,1-1.4.192,2.429,2.429,0,0,1-2.7-2.421,2.39,2.39,0,0,1,2.7-2.454,4.906,4.906,0,0,1,1.4.245h0l-.1,1.015h0a2.5,2.5,0,0,0-1.231-.327,1.505,1.505,0,1,0,.1,3.009,3.312,3.312,0,0,0,1.176-.243h0l.061.984Z" transform="translate(-241.334 -193.15)" fill-rule="evenodd"/>
  <path id="Path_19173" data-name="Path 19173" d="M388.129,221.616h1.135V222.7h-1.135v-1.089Z" transform="translate(-243.873 -195.207)" fill-rule="evenodd"/>
  <g id="Group_5051" data-name="Group 5051" transform="translate(0 0.015)">
    <path id="Path_19174" data-name="Path 19174" d="M214.032,204.537c0-1.3-.921-1.7-2.425-1.7h-3.768V206.3H211.7c1.3,0,2.327-.507,2.327-1.767Z" transform="translate(-179.496 -188.517)" fill="#334da0" fill-rule="evenodd"/>
    <path id="Path_19175" data-name="Path 19175" d="M207.839,216.671h4.031c1.6,0,2.521-.71,2.521-2.337,0-1.4-1.184-1.935-2.355-1.935h-4.2v4.272Z" transform="translate(-179.496 -191.931)" fill="#334da0" fill-rule="evenodd"/>
    <path id="Path_19176" data-name="Path 19176" d="M231.647,208.038c-1.442,0-2.208.935-2.381,2.5h4.742c-.176-1.918-1.378-2.5-2.361-2.5Z" transform="translate(-187.147 -190.374)" fill="#334da0" fill-rule="evenodd"/>
    <path id="Path_19177" data-name="Path 19177" d="M202.936,180.563v11.578h7.655c3.858,0,4.843,2.434,4.843,4.067a3.166,3.166,0,0,1-1.942,3.251,3.72,3.72,0,0,1,2.435,3.865,4.635,4.635,0,0,1-1.359,3.282c-.778.77-1.524,1.283-3.8,1.44h10.856c-2.839-.278-4.916-2-4.916-6.391,0-1.424.482-5.979,5.578-5.979,2.293,0,5.467,1.11,5.467,6.511h0v.555h-7.981c.089.88.262,2.855,2.731,2.855a1.96,1.96,0,0,0,1.967-1.276h3.152a4.955,4.955,0,0,1-4.4,3.724h5.556v-15.9h3.07v15.9H235V180.563Z" transform="translate(-177.745 -180.563)" fill="#334da0" fill-rule="evenodd"/>
    <path id="Path_19178" data-name="Path 19178" d="M176.259,192.573l-1.93-6.28h-.044l-1.994,6.28Z" transform="translate(-166.802 -182.609)" fill="#fd9c19" fill-rule="evenodd"/>
    <path id="Path_19179" data-name="Path 19179" d="M185.871,188.864a1.975,1.975,0,0,0-2.014-1.908c-1.906,0-2.405,1.952-2.405,3.418,0,1.286.044,3.842,2.341,3.842a2.155,2.155,0,0,0,2.057-2.075h3.1a5.008,5.008,0,0,1-5.284,4.624c-4.329,0-5.325-3.4-5.325-5.881,0-3.818,1.623-6.534,5.52-6.534a4.783,4.783,0,0,1,5.093,4.513v-8.3H173.17l5.482,16h-3.534l-1-3.3h-5.746l-1.083,3.3h-3.427l5.546-16h-5.656v27.483h25.2V188.864Z" transform="translate(-163.754 -180.563)" fill="#fd9c19" fill-rule="evenodd"/>
  </g>
</svg>
