<svg xmlns="http://www.w3.org/2000/svg" width="368.351" height="412.162" viewBox="0 0 368.351 412.162">
  <g id="bird" transform="translate(-2301.329 254.493)">
    <g id="wing_right">
      <path id="Path_4144" data-name="Path 4144" d="M2566.363-30.508c-4.189,18.554-13.636,38.846-13.636,38.846a15.053,15.053,0,0,0,1.383,6.712c-29.638,16.276-100.14,16.85-97.375-4.4,0,0,21.658-63.764,22.349-73.606.482-6.746,24.925-44.358,44.425-75.623l.021-.017s19.081-21.736,26.076-20.588c0,0,12.945-19.7,13.091-9.842,0,0,12.735-6.955,10.64,6.364,0,0,11.164-9.842,13.259,1.165a5.592,5.592,0,0,1,3.9.835c4.755,24.535-18.557,69.293-24.128,79.726C2560.77-70.5,2570.552-49.044,2566.363-30.508Z" fill="#8d8d8d"/>
      <path id="Path_4145" data-name="Path 4145" d="M2598.472-155.114c0,1.826-.042,5.564-.315,10.607-3.079-19.145-11.561-16.989-11.561-16.989-2.095-11.007-13.259-1.165-13.259-1.165,2.095-13.319-10.64-6.364-10.64-6.364-.146-9.859-13.091,9.842-13.091,9.842-6.995-1.148-26.076,20.588-26.076,20.588,9.027-14.467,16.986-27.578,21.008-35.647,12.734-25.509,19.416-28.412,18.159-19.718,0,0,5.76-9.842,9.949-9.842s3.477,9.842,3.477,9.842,7-5.217,7,5.216c0,0,4.189,2.9,4.189,11.6,0,0,6.283-1.739,7.666,12.172C2594.974-164.973,2598.472-163.235,2598.472-155.114Z" fill="#272223"/>
      <path id="Path_4146" data-name="Path 4146" d="M2577.526-71.075s6.535,68.98-22.62,85.673c-.252.157-.524.3-.8.452a15.053,15.053,0,0,1-1.383-6.712s9.447-20.292,13.636-38.846c4.189-18.536-5.593-39.993,0-50.427,5.571-10.433,28.883-55.191,24.128-79.726,2.64,1.548,5.97,5.616,7.666,16.154C2597.173-127.171,2593.214-94.428,2577.526-71.075Z" fill="#fff"/>
    </g>
    <g id="body">
      <path id="Path_4147" data-name="Path 4147" d="M2538.326,129.438s10.44,11.107,12.46,12.123a14.105,14.105,0,0,0,4.114,1.273s-1.466,2.647-7.32,1.065S2527.038,125.378,2538.326,129.438Z" fill="#523531"/>
      <path id="Path_4148" data-name="Path 4148" d="M2521.72,80.227s7.306,5.628,7.718,8.461,2.373,33.488,2.706,40.925,7.467,11.889,9.644,16.563,12.51,3.67,12.51,3.67-5.242-1.733-11.417-13.311-4.966-3.27-5.872-16.363-1.038-24.3-2.281-32.853-14.5-17.354-14.5-17.354-6.451,3.682-3.9,5.806S2521.72,80.227,2521.72,80.227Z" fill="#523531"/>
      <path id="Path_4149" data-name="Path 4149" d="M2665.706,68.769c4.817,7.205,6.22,17.594-2.807,16.505,12.546-4.294-9.446-20.359-9.446-20.359,7.854-5.236-10.473-11.771-10.473-11.771s7.855-5.509,0-10.578-38.225-4.356-51.86-7.163a240.316,240.316,0,0,1-29.009-8.462s-21.762-10.2-44.718-13.552c-22.977-3.351-91.2,0-91.2,0s10.452,11.018,10.473,26.035-10.473,25.491-45.556,18.684-50.332-15.542-50.332-15.542c-6.911-.063-11.5.5-14.494,1.634.336-2.849,2.618-8.588,10.536-20.087,15.29-22.2,55.358-23.479,62.1-22.013,6.766,1.487,23.312,0,23.312,0s38.6-3.707,70.062-2.053,88.075,20.066,98.317,20.066c10.221,0,65.266-15.793,73.308-10.85,8.043,4.922-.712,10.62-.712,10.62,9.09,5.927.377,17.049.377,17.049,7.352,10.368.733,13.7.733,13.7C2675.508,56.055,2665.706,68.769,2665.706,68.769Z" fill="#fff"/>
      <path id="Path_4150" data-name="Path 4150" d="M2522.447,135.175s8.734,12.494,10.586,13.79a14.147,14.147,0,0,0,3.889,1.852s-1.832,2.407-7.4,0S2511.861,129.534,2522.447,135.175Z" fill="#523531"/>
      <path id="Path_4151" data-name="Path 4151" d="M2662.9,85.274h-.021a25.584,25.584,0,0,1-8.189-2.87c-19.4-9.886-53.851-18.432-65.182-18.432-11.31,0-33.073,20.841-90.756,24.548-57.662,3.707-100.139-12.588-128.813-25.93s-42.644-15.562-42.644-15.562-1.341-.168-1.006-2.828c3-1.131,7.583-1.7,14.494-1.634,0,0,15.249,8.734,50.332,15.542s45.577-3.666,45.556-18.684S2426.2,13.389,2426.2,13.389s68.219-3.351,91.2,0c22.956,3.352,44.718,13.552,44.718,13.552A240.316,240.316,0,0,0,2591.12,35.4c13.635,2.807,44.006,2.094,51.86,7.163s0,10.578,0,10.578,18.327,6.535,10.473,11.771C2653.453,64.915,2675.445,80.98,2662.9,85.274Z" fill="#bcbdbf"/>
      <path id="Path_4152" data-name="Path 4152" d="M2341.788,42.084c-.021,0-.042.021-.063.021a5.01,5.01,0,0,0-.943.461c-6.639,3.2-17.279,8.085-25.595,10.578-7.9,2.366-11.31,6.555-12.776,9.488-.587-.063-.943-.524-1.047-1.634-.377-4.44,2.22-11.855,9.99-13.7,7.792-1.864,16.421-7.876,16.421-7.876,0,.189.126,3.037,6.556,2.681,4.629-.251,8.713-1.047,9.174-.858C2343.694,41.289,2343.212,41.54,2341.788,42.084Z" fill="#ffd244"/>
      <path id="Path_4153" data-name="Path 4153" d="M2337.934,49.834s-21.762,7.457-26.58,8.567c-3.6.838-7.205,4.377-8.943,4.231,1.466-2.933,4.88-7.122,12.776-9.488,8.316-2.493,18.956-7.373,25.595-10.578C2337.054,44.786,2337.934,49.834,2337.934,49.834Z" fill="#f5a923"/>
      <path id="Path_4154" data-name="Path 4154" d="M2513.094,84.087s6.42,6.621,6.42,9.484-2.469,33.48-3.21,40.888,5.679,12.839,7.161,17.778,11.852,5.432,11.852,5.432-4.939-2.469-9.383-14.815-4.445-3.951-3.457-17.038,2.469-24.2,2.469-32.84-11.852-19.259-11.852-19.259-6.914,2.716-4.691,5.185S2513.094,84.087,2513.094,84.087Z" fill="#7a4039"/>
      <circle id="Ellipse_28" data-name="Ellipse 28" cx="7.764" cy="7.764" r="7.764" transform="translate(2351.608 29.309) rotate(-41.979)" fill="#221e1f"/>
      <path id="Path_4155" data-name="Path 4155" d="M2368.063,27.143a2.745,2.745,0,1,0-2.745,2.745A2.745,2.745,0,0,0,2368.063,27.143Z" fill="#fff"/>
    </g>
    <g id="wing_left">
      <path id="Path_4156" data-name="Path 4156" d="M2562.111,26.941s-38.56,6.786-71.026,8.294c-32.444,1.508-57.285-7.058-64.888-21.846,0,0-7.708-57.117-30.873-80.534-3.372-3.393-6.284-6.325-8.776-8.943a.065.065,0,0,0-.021-.042c-.67-1.089-15.9-26.622-2.2-84.808a324.08,324.08,0,0,1,10.242-35.041c3.225-2.953,6.179-3.665,7.016,2.22,0,0,15.353-13.761,18.16,3.582,0,0,18.851-35.691,24.422-15.458,0,0,13.091-8.378,12.484,16.756,0,0,12.671,14.641,12.671,31.376.084-.4.671-3.288,2.765-3.833a64.472,64.472,0,0,1,1.655,13.657l2.555-4.545s17.8,52.446,15.709,76.136c-1.068,11.98-1.487,16.483-1.676,17.991l7.624-10.347s60.469,60.846,64.721,90.568v.062C2562.823,25.831,2562.111,26.941,2562.111,26.941Z" fill="#e7e6e6"/>
      <path id="Path_4157" data-name="Path 4157" d="M2472.088-161.336c-2.094.545-2.681,3.435-2.765,3.833,0-16.735-12.671-31.376-12.671-31.376.607-25.134-12.484-16.756-12.484-16.756-5.571-20.233-24.422,15.458-24.422,15.458-2.807-17.343-18.16-3.582-18.16-3.582-.837-5.885-3.791-5.173-7.016-2.22,12.755-35.523,27.1-51.085,31.46-39.67,0,0,5.571-10.473,10.472-8.378,4.88,2.094,6.284,18.85,6.284,18.85s4.461-2.932,9.069,13.447c0,0,4.88-2.974,7.687,8.546a64.247,64.247,0,0,1,6.284,24.443A74.966,74.966,0,0,1,2472.088-161.336Z" fill="#211d1e"/>
      <path id="Path_4158" data-name="Path 4158" d="M2562.676,22.124c-4.252-29.722-64.721-90.568-64.721-90.568L2490.331-58.1c.189-1.508.608-6.011,1.676-17.991,2.095-23.69-15.709-76.136-15.709-76.136l-2.555,4.545a64.472,64.472,0,0,0-1.655-13.657c1.78-.5,4.671.713,9.237,6.619,7.729,15.562,17.8,41.807,20.84,76.974,0,0,40.006,38.413,51.9,68.533C2560.833,7.923,2562.509,17.264,2562.676,22.124Z" fill="#fff"/>
      <path id="Path_4159" data-name="Path 4159" d="M2481.325-154.717c-4.566-5.906-7.457-7.121-9.237-6.619a74.966,74.966,0,0,0-6.262-17.4,64.247,64.247,0,0,0-6.284-24.443c-2.807-11.52-7.687-8.546-7.687-8.546-4.608-16.379-9.069-13.447-9.069-13.447s-1.4-16.756-6.284-18.85c-4.9-2.1-10.472,8.378-10.472,8.378-4.357-11.415-18.705,4.147-31.46,39.67-4.629,4.252-9.823,13.091-10.242,13.8,8.587-29.617,20.212-53.892,27.982-60.511,12.337-10.535,13.887,0,13.887,0s3.875-7.54,10.033-11.289c6.179-3.77,8.5,14.3,8.5,14.3s2.325-.754,6.954,11.29c0,0,8.482-4.524,9.257,15.059,0,0,6.954,7.562,6.954,24.506,0,0,3.854,9.4,3.854,17.678A116,116,0,0,1,2481.325-154.717Z" fill="#58595b"/>
      <path id="Path_4160" data-name="Path 4160" d="M2386.527-76.13c-14.7-15.4-15.332-20.4-12.84-50.562a290.58,290.58,0,0,1,10.62-55.442.065.065,0,0,1,.021-.042c.419-.712,5.613-9.551,10.242-13.8a324.08,324.08,0,0,0-10.242,35.041C2370.629-102.752,2385.857-77.219,2386.527-76.13Z" fill="#fff"/>
    </g>
  </g>
</svg>
