<svg id="bt_logo" xmlns="http://www.w3.org/2000/svg" width="72.282" height="30" viewBox="0 0 72.282 30">
  <g id="Group_20" data-name="Group 20" transform="translate(56.051 13.212)">
    <g id="Group_19" data-name="Group 19" transform="translate(0 0.296)">
      <path id="Path_58" data-name="Path 58" d="M570.508,157.07c.37-.15.555-.3.555-.447s-.191-.262-.572-.3l-2.235-.226.073,10.859,2.179.085Z" transform="translate(-559.176 -154.443)" fill="#e60012"/>
      <path id="Path_59" data-name="Path 59" d="M552.688,159.174v-.005l-1.61-1.742-1.167,1.31-.013-4.781,2.539-.021v-.012c.286.008.748.08-.032-.733v-.008l-1.512-1.469-1.063,1.14h-5.384l.211,1.1h2.308l.012,4.943h-2.808l.2.994h2.595l.007,7.624,2.849-.524.078-7.1h2.79C552.951,159.868,553.479,160.006,552.688,159.174Z" transform="translate(-544.168 -151.713)" fill="#e60012"/>
    </g>
    <path id="Path_60" data-name="Path 60" d="M579.256,167.111a1.781,1.781,0,0,0,.627-1.46V152.162c.443-.231.664-.445.664-.637,0-.165-.2-.273-.595-.328l-2.921-.268v13.837s.152,2.036-.526,2.858Z" transform="translate(-564.316 -150.929)" fill="#e60012"/>
  </g>
  <g id="Group_21" data-name="Group 21" transform="translate(37.246 12.98)">
    <path id="Path_61" data-name="Path 61" d="M517.65,179.206v-3.125c.368-.149.555-.291.555-.425,0-.1-.089-.217-.269-.366l-1.9-1.278-1.071.933h-1.486l-2.4-.648v6.352l2.5-.367v-1.423h1.4v.714Zm-4.061-1.186v-2.19h1.4v2.19Z" transform="translate(-504.873 -165.079)" fill="#e60012"/>
    <path id="Path_62" data-name="Path 62" d="M511.9,151.817l-2.449-1.5-1.106,1.334h-8.567l-2.76-.463v7.737c-.067,1.3-.433,5.594-2.417,8,0,0,4.852-.721,5.2-8h.008v-.19c0-.078.008-.153.01-.236l-.01-.679.15.576h8.072c.187.041.633-.07.141-.581l.026.025-.121-.133a1.442,1.442,0,0,0-.124-.126l-1.16-1.222-.9,1.131-.637-.021v-1.682h2.524l.039,0c.2,0,.824.09.018-.764v-.005l-1.167-1.173-.913,1.015h-.5v-.762c.334-.135.5-.276.5-.427,0-.175-.189-.284-.571-.324l-2.576-.184v1.7H500.3l.215.931h2.092v1.682h-2.8v-4.827H508.5v11.837s.151,2.036-.527,2.858l2.751-.513a1.781,1.781,0,0,0,.629-1.46V152.807l.119-.057c.463-.23.7-.418.7-.569C512.172,152.074,512.083,151.953,511.9,151.817Z" transform="translate(-494.605 -150.315)" fill="#e60012"/>
  </g>
  <path id="Path_63" data-name="Path 63" d="M417.139,117.4c.332-.45.658-.91.978-1.388,0,0,.911.093,1.035-.649,0,0,.06-.493-.766-.756l-5.316-1.766s-5.264,11.75-16.583,18.457a37.058,37.058,0,0,0,19.068-11.9,43.706,43.706,0,0,0,3.643,3.893,27.833,27.833,0,0,0,11.511,7.564c.521-1.106,5.336-5.922,5.336-5.922A33.843,33.843,0,0,1,417.139,117.4Z" transform="translate(-396.487 -112.838)" fill="#e60012"/>
  <path id="Path_64" data-name="Path 64" d="M440.021,148.48l-3.042-2.716a.59.59,0,0,0-.942.109l-1.557,2.317-9.4-.037.289,1.3h14.183S440.854,149.6,440.021,148.48Z" transform="translate(-414.301 -133.749)" fill="#e60012"/>
  <path id="Path_65" data-name="Path 65" d="M437.727,163.515l-3.791-1.763-1.845,1.225H414.429l.3,1.335,16.741-.045-5.349,7.752c-1.141,1.4-.93,1.134-1.568,1.627l5.1.779c1.231.107,2.248-1.337,2.248-1.337l5.3-7.629a2.139,2.139,0,0,0,.949-.593C438.838,164.168,437.727,163.515,437.727,163.515Z" transform="translate(-407.666 -144.461)" fill="#e60012"/>
</svg>
