<svg xmlns="http://www.w3.org/2000/svg" xmlns:xlink="http://www.w3.org/1999/xlink" width="65.903" height="30" viewBox="0 0 65.903 30">
  <defs>
    <linearGradient id="linear-gradient" x1="559.735" y1="-235.807" x2="560.694" y2="-235.343" gradientUnits="objectBoundingBox">
      <stop offset="0" stop-color="#b8b8b8"/>
      <stop offset="0.079" stop-color="#ababab"/>
      <stop offset="0.309" stop-color="#d9d9d9"/>
      <stop offset="0.521" stop-color="#b3b3b3"/>
      <stop offset="0.709" stop-color="#c2c2c2"/>
      <stop offset="0.879" stop-color="#adadad"/>
      <stop offset="1" stop-color="#878787"/>
    </linearGradient>
  </defs>
  <g id="Group_5103" data-name="Group 5103" transform="translate(-807.238 -438.435)">
    <path id="Path_19411" data-name="Path 19411" d="M817.9,447.07l3.09-1.789s-2.491-4.952-9.093-2.949c-6.566,2.807-5.656,11.236-.6,13.275,6.462,2.6,9.586-2.422,9.586-2.422l-2.948-2.109a4.022,4.022,0,0,1-3.655,1.546,3.37,3.37,0,0,1-3.232-3.793,3.46,3.46,0,0,1,3.408-3.268A4,4,0,0,1,817.9,447.07Z" transform="translate(0 2.162)" fill="url(#linear-gradient)"/>
    <path id="Path_19412" data-name="Path 19412" d="M810.49,447.15a2.089,2.089,0,1,1,2.088,2.091A2.09,2.09,0,0,1,810.49,447.15Z" transform="translate(2.056 4.189)" fill="#1a1311"/>
    <path id="Path_19413" data-name="Path 19413" d="M827.475,447.07l3.09-1.789s-2.492-4.952-9.095-2.949c-6.566,2.807-5.656,11.236-.6,13.275,6.462,2.6,9.589-2.422,9.589-2.422l-2.949-2.109a4.019,4.019,0,0,1-3.654,1.546,3.369,3.369,0,0,1-3.232-3.793,3.458,3.458,0,0,1,3.408-3.268A4,4,0,0,1,827.475,447.07Z" transform="translate(6.053 2.162)" fill="#1a1311"/>
    <path id="Path_19414" data-name="Path 19414" d="M820.064,447.15a2.088,2.088,0,1,1,2.089,2.091A2.09,2.09,0,0,1,820.064,447.15Z" transform="translate(8.109 4.189)" fill="#1a1311"/>
    <path id="Path_19415" data-name="Path 19415" d="M826.518,440.524a2.09,2.09,0,1,1,2.089,2.088A2.09,2.09,0,0,1,826.518,440.524Z" transform="translate(12.189 0)" fill="#1a1311"/>
    <rect id="Rectangle_709" data-name="Rectangle 709" width="3.828" height="14.577" transform="translate(838.83 444.105)" fill="#1a1311"/>
    <path id="Path_19416" data-name="Path 19416" d="M830.832,438.618h3.862v12.818s-.1,3.065.635,3.664a7.07,7.07,0,0,0,2.63,1.043l-1.719,3.406s-3.193-.707-4.529-2.634c-.767-1.1-.878-1.791-.878-3.9Z" transform="translate(14.917 0.116)" fill="#1a1311"/>
    <path id="Path_19417" data-name="Path 19417" d="M836.2,441.975v8.954s-.1,5.481,6.636,5.481c6.113,0,6.323-5.375,6.323-5.375v-9.028H845.37v8.114a2.439,2.439,0,0,1-2.67,2.213c-2.811-.034-2.7-2.391-2.7-2.391v-7.968Z" transform="translate(18.311 2.238)" fill="#1a1311"/>
    <path id="Path_19418" data-name="Path 19418" d="M838.893,447.145a2.089,2.089,0,1,1,2.088,2.089A2.09,2.09,0,0,1,838.893,447.145Z" transform="translate(20.013 4.186)" fill="#1a1311"/>
    <path id="Path_19419" data-name="Path 19419" d="M847.162,441.931a2.047,2.047,0,0,1,.991.256,1.872,1.872,0,0,1,.746.741,2.017,2.017,0,0,1,.006,2.014,1.9,1.9,0,0,1-.744.743,2.007,2.007,0,0,1-1,.264,2.03,2.03,0,0,1-1-.264,1.9,1.9,0,0,1-.741-.743,2.025,2.025,0,0,1-.266-1,2.052,2.052,0,0,1,.269-1.012,1.886,1.886,0,0,1,.748-.741A2.059,2.059,0,0,1,847.162,441.931Zm0,.393a1.639,1.639,0,0,0-.795.206,1.511,1.511,0,0,0-.6.6,1.638,1.638,0,0,0,0,1.621,1.523,1.523,0,0,0,.6.6,1.607,1.607,0,0,0,1.608,0,1.534,1.534,0,0,0,.6-.6,1.616,1.616,0,0,0,0-1.621,1.5,1.5,0,0,0-.6-.6A1.664,1.664,0,0,0,847.165,442.324Zm-.914,2.692v-2.135h.434c.406,0,.633,0,.681.007a.8.8,0,0,1,.336.087.555.555,0,0,1,.2.2.6.6,0,0,1,.078.307.567.567,0,0,1-.15.4.694.694,0,0,1-.424.2.575.575,0,0,1,.15.082,1.06,1.06,0,0,1,.145.165c.016.02.068.106.157.258l.253.431h-.537l-.176-.346a1.409,1.409,0,0,0-.3-.439.475.475,0,0,0-.3-.093h-.114v.878Zm.434-1.211h.176a2.231,2.231,0,0,0,.467-.029.291.291,0,0,0,.142-.1.259.259,0,0,0,.052-.165.234.234,0,0,0-.052-.157.269.269,0,0,0-.145-.1,2.256,2.256,0,0,0-.464-.028h-.176Z" transform="translate(23.969 2.21)" fill="#1a1311"/>
    <path id="Path_19420" data-name="Path 19420" d="M811.659,452.873h.607v4.91h-.607Z" transform="translate(2.795 9.128)" fill="#1a1311"/>
    <path id="Path_19421" data-name="Path 19421" d="M813.472,453.4a.377.377,0,0,1-.754,0,.37.37,0,0,1,.379-.382A.362.362,0,0,1,813.472,453.4Zm-.679,4.288v-3.348h.609v3.348Z" transform="translate(3.465 9.221)" fill="#1a1311"/>
    <path id="Path_19422" data-name="Path 19422" d="M813.845,457.783c.013-.23.028-.568.028-.865v-4.045h.6v2.1h.013a1.25,1.25,0,0,1,1.141-.615,1.5,1.5,0,0,1,1.412,1.707,1.589,1.589,0,0,1-1.5,1.789,1.2,1.2,0,0,1-1.12-.628h-.02l-.028.555Zm.628-1.343a1.08,1.08,0,0,0,.028.22.939.939,0,0,0,.912.713c.635,0,1.017-.517,1.017-1.286,0-.671-.348-1.245-1-1.245a.971.971,0,0,0-.927.749,1.21,1.21,0,0,0-.034.245Z" transform="translate(4.177 9.128)" fill="#1a1311"/>
    <path id="Path_19423" data-name="Path 19423" d="M816.81,455.645a1.071,1.071,0,0,0,1.149,1.159,2.2,2.2,0,0,0,.924-.171l.1.433a2.678,2.678,0,0,1-1.113.209,1.554,1.554,0,0,1-1.645-1.686,1.623,1.623,0,0,1,1.572-1.8,1.415,1.415,0,0,1,1.379,1.577,2.518,2.518,0,0,1-.02.284Zm1.784-.437a.867.867,0,0,0-.844-.989,1.011,1.011,0,0,0-.934.989Z" transform="translate(5.684 9.704)" fill="#1a1311"/>
    <path id="Path_19424" data-name="Path 19424" d="M818.614,454.9c0-.4,0-.733-.024-1.045h.53l.02.656h.028a1,1,0,0,1,.927-.731.673.673,0,0,1,.171.018v.575a.934.934,0,0,0-.206-.02.852.852,0,0,0-.815.78,1.49,1.49,0,0,0-.031.284v1.786h-.6Z" transform="translate(7.177 9.704)" fill="#1a1311"/>
    <path id="Path_19425" data-name="Path 19425" d="M822.033,457.207l-.051-.423h-.021a1.245,1.245,0,0,1-1.023.5.954.954,0,0,1-1.023-.96c0-.81.72-1.252,2.014-1.244v-.07a.691.691,0,0,0-.761-.775,1.677,1.677,0,0,0-.873.25l-.137-.4a2.047,2.047,0,0,1,1.1-.3c1.023,0,1.273.7,1.273,1.368v1.25a4.669,4.669,0,0,0,.055.8Zm-.091-1.711c-.666-.011-1.417.1-1.417.754a.537.537,0,0,0,.571.581.837.837,0,0,0,.811-.561.6.6,0,0,0,.034-.193Z" transform="translate(8.014 9.704)" fill="#1a1311"/>
    <path id="Path_19426" data-name="Path 19426" d="M823.086,453.24v.963h.87v.464h-.87v1.8c0,.416.116.653.457.653a1.4,1.4,0,0,0,.353-.042l.026.457a1.509,1.509,0,0,1-.537.082.847.847,0,0,1-.659-.256,1.253,1.253,0,0,1-.233-.87v-1.825h-.517V454.2h.517v-.8Z" transform="translate(9.316 9.36)" fill="#1a1311"/>
    <path id="Path_19427" data-name="Path 19427" d="M824.12,455.645a1.071,1.071,0,0,0,1.149,1.159,2.2,2.2,0,0,0,.924-.171l.1.433a2.676,2.676,0,0,1-1.111.209,1.553,1.553,0,0,1-1.645-1.686,1.622,1.622,0,0,1,1.567-1.8,1.419,1.419,0,0,1,1.386,1.577,2.346,2.346,0,0,1-.023.284Zm1.782-.437a.865.865,0,0,0-.842-.989,1.011,1.011,0,0,0-.934.989Z" transform="translate(10.307 9.704)" fill="#1a1311"/>
    <path id="Path_19428" data-name="Path 19428" d="M827.313,453.83l.734,1.978c.075.22.158.483.214.682h.013c.06-.2.132-.454.214-.7l.664-1.962h.643l-.912,2.385a5.075,5.075,0,0,1-1.147,2.1,1.612,1.612,0,0,1-.746.392l-.153-.511a1.581,1.581,0,0,0,.532-.3,1.84,1.84,0,0,0,.511-.679.393.393,0,0,0,.049-.142.488.488,0,0,0-.042-.162l-1.237-3.082Z" transform="translate(12.272 9.733)" fill="#1a1311"/>
    <path id="Path_19429" data-name="Path 19429" d="M832.1,455.5a1.634,1.634,0,0,1-1.667,1.777,1.591,1.591,0,0,1-1.6-1.72,1.634,1.634,0,0,1,1.658-1.776A1.582,1.582,0,0,1,832.1,455.5Zm-2.654.034c0,.733.421,1.288,1.015,1.288s1.017-.545,1.017-1.3c0-.568-.282-1.285-1-1.285S829.446,454.9,829.446,455.537Z" transform="translate(13.652 9.704)" fill="#1a1311"/>
    <path id="Path_19430" data-name="Path 19430" d="M834.217,456.264c0,.346.008.648.028.914h-.539l-.033-.548h-.016a1.254,1.254,0,0,1-1.107.622c-.524,0-1.152-.291-1.152-1.466V453.83h.609v1.853c0,.637.193,1.066.746,1.066a.881.881,0,0,0,.8-.553.9.9,0,0,0,.055-.31V453.83h.607Z" transform="translate(15.274 9.733)" fill="#1a1311"/>
    <path id="Path_19431" data-name="Path 19431" d="M833.861,454.9c0-.4-.006-.733-.028-1.045h.534l.021.656h.028a1,1,0,0,1,.925-.731.7.7,0,0,1,.173.018v.575a.977.977,0,0,0-.209-.02.856.856,0,0,0-.816.78,1.83,1.83,0,0,0-.026.284v1.786h-.6Z" transform="translate(16.814 9.704)" fill="#1a1311"/>
    <path id="Path_19432" data-name="Path 19432" d="M835.35,456.583a1.61,1.61,0,0,0,.8.242c.442,0,.65-.22.65-.5s-.173-.449-.622-.615c-.6-.215-.886-.547-.886-.947a1.032,1.032,0,0,1,1.156-.981,1.7,1.7,0,0,1,.823.2l-.152.446a1.3,1.3,0,0,0-.684-.193c-.361,0-.56.206-.56.454,0,.277.2.4.635.565.581.225.878.514.878,1.01,0,.589-.455,1-1.25,1a1.913,1.913,0,0,1-.94-.227Z" transform="translate(17.677 9.704)" fill="#1a1311"/>
    <path id="Path_19433" data-name="Path 19433" d="M837.557,455.645a1.073,1.073,0,0,0,1.149,1.159,2.2,2.2,0,0,0,.925-.171l.1.433a2.686,2.686,0,0,1-1.113.209,1.555,1.555,0,0,1-1.645-1.686,1.625,1.625,0,0,1,1.57-1.8,1.418,1.418,0,0,1,1.382,1.577,2.518,2.518,0,0,1-.02.284Zm1.782-.437a.865.865,0,0,0-.842-.989,1.012,1.012,0,0,0-.934.989Z" transform="translate(18.801 9.704)" fill="#1a1311"/>
    <path id="Path_19434" data-name="Path 19434" d="M839.353,452.873h.609v4.91h-.609Z" transform="translate(20.304 9.128)" fill="#1a1311"/>
    <path id="Path_19435" data-name="Path 19435" d="M840.677,457.812v-2.884h-.468v-.464h.468v-.158a1.582,1.582,0,0,1,.389-1.17,1.168,1.168,0,0,1,.813-.309,1.4,1.4,0,0,1,.522.1l-.083.47a.875.875,0,0,0-.387-.078c-.519,0-.651.457-.651.968v.181h.811v.464h-.811v2.884Z" transform="translate(20.845 9.099)" fill="#1a1311"/>
  </g>
</svg>
