<svg xmlns="http://www.w3.org/2000/svg" xmlns:xlink="http://www.w3.org/1999/xlink" width="45.1" height="30" viewBox="0 0 45.1 30">
  <defs>
    <linearGradient id="linear-gradient" x1="0.056" y1="-4.774" x2="0.584" y2="-5.304" gradientUnits="objectBoundingBox">
      <stop offset="0" stop-color="#decbe2"/>
      <stop offset="1" stop-color="#bd7fb3"/>
    </linearGradient>
    <linearGradient id="linear-gradient-2" x1="0.001" y1="-0.302" x2="1.022" y2="0.891" gradientUnits="objectBoundingBox">
      <stop offset="0" stop-color="#d384b4"/>
      <stop offset="1" stop-color="#431274"/>
    </linearGradient>
    <linearGradient id="linear-gradient-3" x1="0" y1="0.5" x2="1" y2="0.5" xlink:href="#linear-gradient-2"/>
    <linearGradient id="linear-gradient-4" x1="-0.013" y1="0.739" x2="1.032" y2="0.202" xlink:href="#linear-gradient-2"/>
  </defs>
  <g id="Group_5131" data-name="Group 5131" transform="translate(-979.89 -401.802)">
    <path id="Path_19495" data-name="Path 19495" d="M1015.405,422.593c0-.228-.047-.492-.293-.469s-.686.416-.888.383-.729-.351-.725-.608c0-.191-.018-.27-.152-.367a1.7,1.7,0,0,0-.178-.11,1.041,1.041,0,0,0-.129-.061l-.044-.018-.087-.031-.084-.027-.048-.016a.615.615,0,0,1-.086-.036h0a.123.123,0,0,1-.049-.052l0-.016a.113.113,0,0,1,.015-.081c.1-.192.419-.529.307-.681s-.383-.432-.283-.451.2-.2.23-.38c.011-.066.026-.125.04-.183.007-.028.013-.057.02-.083a1.733,1.733,0,0,1,.078-.222c.07-.165.162-.131.154-.477a3.053,3.053,0,0,1,.036-1.043c.105-.194.175-.378.037-.438a.726.726,0,0,1-.167-.107l0,0a.557.557,0,0,1-.044-.045l-.01-.016a.237.237,0,0,1-.018-.036l0-.018a.081.081,0,0,1,0-.034l0-.015a.121.121,0,0,1,.047-.042h0a.45.45,0,0,0,.1-.068.215.215,0,0,0,.029-.281,4.655,4.655,0,0,1-.2-.438l0,0c-.008-.024-.013-.047-.018-.066l0-.011a.14.14,0,0,1,0-.045l0-.013a.038.038,0,0,1,.019-.019l.013-.01a.848.848,0,0,0,.608-.223.6.6,0,0,0,.176-.26,2.642,2.642,0,0,0,.031-.319c.031-.31.225-.689.086-.75a4.142,4.142,0,0,1-.4-.181.8.8,0,0,1-.2-.149.211.211,0,0,1-.069-.178c.04-.257.144-.615.729-.535s.98.136,1.079.034a.782.782,0,0,0,.15-.268s-.8-.642-1.012-.8-.068.23-.226.1c-.058-.05-.118-.1-.168-.141a.184.184,0,0,0-.084-.042c-.032,0-.05.024-.041.107.023.218-.225.223-.346.107s-.1-.154-.322-.094a.657.657,0,0,1-.142.024c-.123,0-.175-.061-.116-.22a.715.715,0,0,0,.034-.144c0-.016,0-.032,0-.049a.794.794,0,0,0,0-.089l-.01-.058a.672.672,0,0,0-.02-.078l-.019-.063-.008-.024q-.015-.044-.034-.087v0a.463.463,0,0,1-.039-.154,2.856,2.856,0,0,1,.052-.54.474.474,0,0,0-.238-.516c-.157-.089-.205-.628-.283-.891s-.073-.472-.21-.453a.767.767,0,0,1-.247-.01.456.456,0,0,1-.2-.081c-.074-.073-.419.053-.613-.079a1.777,1.777,0,0,0-.972-.2c-.113-.006-.21-.015-.3-.023l-.042,0c-.082-.008-.152-.018-.215-.029l-.036-.006a1.584,1.584,0,0,1-.165-.042l-.02-.008a.86.86,0,0,1-.136-.063h0a.852.852,0,0,1-.079-.053c-.2-.15-.218-.416-.456-.411s-.482-.338-.586-.547a.289.289,0,0,1-.034-.23.932.932,0,0,0,.032-.3.713.713,0,0,0-.023-.136c0-.021-.015-.045-.021-.068s-.018-.066-.031-.1-.026-.066-.037-.1-.024-.065-.037-.1-.031-.071-.047-.108-.024-.058-.037-.089l-.005-.01c-.023-.05-.045-.1-.068-.146l-.031-.068-.07-.138-.031-.06c-.023-.044-.042-.079-.063-.116l-.027-.052c-.029-.05-.055-.092-.076-.123-.17-.254-.21-.5-.569-.639s-.731-.451-.864-.184a4.608,4.608,0,0,1-.466.663c-.108.136-.207.255-.264.33-.037.049-.071.091-.1.126a.412.412,0,0,0-.055.1c-.018.057,0,.1.086.142s.047.144-.036.231a.493.493,0,0,1-.3.168c-.118,0-.391-.036-.626-.026h0c-.041,0-.078.006-.115.011l-.021,0a.458.458,0,0,0-.087.023l-.029.008a.213.213,0,0,0-.06.034l-.024.013-.011.01a5.747,5.747,0,0,1-1.109,1.245c-.078.052-.147.1-.21.154l-.055.045c-.044.037-.086.074-.123.112l-.024.021-.019.019c-.047.048-.092.1-.131.142l-.006.006c-.045.052-.084.1-.123.152l-.045.058-.076.1c-.032.042-.066.084-.1.121a3.853,3.853,0,0,0-.613.825c0,.1.021.175.349.168s.375.01.49-.192c.057-.1.1-.131.155-.15a1.026,1.026,0,0,0,.251-.1,1.588,1.588,0,0,1,1.142,0s.234.736-.231.771-2.057-.123-2.276-.037-.53.943-.555,1.108.087.217.471.21c.113,0,.205-.008.285-.01a1.068,1.068,0,0,1,.125,0,.415.415,0,0,1,.052.01.25.25,0,0,1,.07.026.123.123,0,0,1,.032.032.183.183,0,0,1,.044.094c.031.218.063.437-.238.5-.044.008-.086.018-.128.028l-.031.01a.86.86,0,0,0-.1.031l-.029.011a.57.57,0,0,0-.212.15l-.006.006-.01.015a.634.634,0,0,0-.071.112l-.021.039a1.233,1.233,0,0,0-.068.188,3.083,3.083,0,0,0-.894,1.936s0,.055-.2.05-.678-.087-.737.105-.2.789-.257.891-.445.584-.65.9-.288.628-.107.623.639-.1.561.163a15.293,15.293,0,0,1-.781,1.669l-.031.052-.089.152-.065.105-.047.074c-.023.036-.045.065-.068.1s-.024.036-.036.049a.594.594,0,0,1-.1.1c-.134.1-.12.377-.183.479a1.265,1.265,0,0,1-.639.451c-.273.052-.579-.162-.639.049s-.141.314.044.383.2.115.006.31a.733.733,0,0,1-.516.293c-.21.015-.346.034-.252.16a7.456,7.456,0,0,0,2.06.737,5.628,5.628,0,0,0,2.169.141c.125-.01.233-.016.33-.023.676-.041.733-.011,1.009-.168.044-.024.087-.047.133-.068l.039-.015c.034-.015.07-.028.105-.04l.048-.013a1.077,1.077,0,0,1,.113-.027l.052-.01c.042-.008.087-.013.133-.018l.049,0c.089-.006.184-.008.291-.006l.055,0c.112,0,.231.013.369.028.723.078.979.118,1.323-.053a1.076,1.076,0,0,1,.556-.116.773.773,0,0,1,.514.233l0,0c.037.037.076.071.116.105l.034.024a.884.884,0,0,0,.1.07l.045.028c.034.019.07.04.108.06l.053.024c.039.019.081.037.125.057l.016.006.06.023.11.042.092.031.125.042.125.037.125.039.286.084a8.877,8.877,0,0,0,2.266.469,1.28,1.28,0,0,0,.246-.026,3.6,3.6,0,0,1,1.708,0c.159.034.3.073.443.11s.262.071.4.105l.052.015.026,0c.049.011.1.023.149.032l.117.024c.055.01.113.018.171.026l.12.016c.068.008.142.013.217.019.039,0,.073.006.112.008.118.006.243.01.378.008.395,0,.636,0,.792,0a.584.584,0,0,1,.388.1.524.524,0,0,0,.558.024c.3-.105.765-.133.873-.244a1.841,1.841,0,0,1,.387-.323.7.7,0,0,1,.162-.071c.055-.015.107-.028.154-.037.137-.034.226-.061.191-.144C1015.664,422.8,1015.4,422.823,1015.405,422.593Z" transform="translate(9.27 1.656)" fill="url(#linear-gradient)"/>
    <path id="Path_19496" data-name="Path 19496" d="M1007.9,420.954c-.05-.163-.471-.278-.812-.626-.311-.319-.508-.907.2-2.766l-.33-.057c-.351,1.164-1.619,3.56-3.113,3.56-.55,0-1.21.076-1.21-.681V406.238h-2.6V421.1a2.3,2.3,0,0,0,.275,1.25c.545.831,1.976.776,3.315.776a4.584,4.584,0,0,0,4.1-1.667C1007.838,421.3,1007.951,421.112,1007.9,420.954Z" transform="translate(12.438 2.739)" fill="#971e7b"/>
    <g id="Group_5128" data-name="Group 5128" transform="translate(1001.275 426.746)">
      <path id="Path_19497" data-name="Path 19497" d="M994.709,420.294v1.845a.569.569,0,0,1-.4.108h-.084v-1.582a.213.213,0,0,1-.2.1,3.1,3.1,0,0,1-.836,1.122l-.079-.049a5.08,5.08,0,0,0,.476-1.365l.64.178v-.356h-1.037l-.045-.157h.374v-2.762l.519.21h.843l.223-.249.5.372a.456.456,0,0,1-.223.1v2.2l.123-.15a5.2,5.2,0,0,1,.417.344c-.011.06-.066.087-.139.087Zm-.742-2.552v.458h.97v-.458Zm.97.615h-.97v.475h.97Zm-.97.631v.454h.97v-.454Zm0,1.15h.97v-.54h-.97Zm.909.367c1.1.485.642,1.279.268.928a1.771,1.771,0,0,0-.33-.9Zm2.649-1.122c1.189.589.736,1.452.335,1.079a1.39,1.39,0,0,0-.084-.4c-.15.032-.317.076-.517.125v1.478c0,.323-.084.524-.658.573a.47.47,0,0,0-.1-.3.8.8,0,0,0-.425-.146v-.076s.475.028.587.028c.089,0,.112-.028.112-.092v-1.36c-.184.044-.374.082-.569.125a.415.415,0,0,1-.073.087l.574.259c-.032.053-.078.086-.212.065a4.36,4.36,0,0,1-1.021,1.2l-.066-.065a4.948,4.948,0,0,0,.7-1.447l-.023.011-.267-.54a.865.865,0,0,0,.171-.049,4.48,4.48,0,0,0,.943-.734c-.234.071-.524.152-.831.222a.278.278,0,0,1-.123.141l-.267-.54a.585.585,0,0,0,.15-.042,3.428,3.428,0,0,0,1-1.064l.608.3c-.021.044-.094.087-.212.071a6.267,6.267,0,0,1-1.087.749c.267,0,.608-.021.964-.032a4.3,4.3,0,0,0,.485-.582l.6.33a.2.2,0,0,1-.223.065,9.15,9.15,0,0,1-1.69,1.176c.369-.011.881-.037,1.422-.065a3.7,3.7,0,0,0-.267-.513Zm-2.014-1.129a5.446,5.446,0,0,0,1.556-1.008l.574.34c-.044.053-.133.07-.29.044a6.826,6.826,0,0,1-1.807.7Zm1.952,2.251c1.294.739.809,1.711.369,1.3a3.025,3.025,0,0,0-.435-1.268Z" transform="translate(-993.113 -417.213)" fill="#431274"/>
      <path id="Path_19498" data-name="Path 19498" d="M1002.181,418.626a4.611,4.611,0,0,1-.8,2.18,3.616,3.616,0,0,0,1.36.977l-.016.053a.545.545,0,0,0-.479.411,3.3,3.3,0,0,1-1.144-1.113,4.462,4.462,0,0,1-1.936,1.118l-.045-.07a4.181,4.181,0,0,0,1.774-1.436,6.128,6.128,0,0,1-.479-1.614,3.775,3.775,0,0,1-.592.692l-.078-.044c.061-.113.123-.233.184-.362h-.76v1.554c.346-.081.715-.173,1.082-.264l.023.076c-.54.259-1.317.608-2.431,1.035a.21.21,0,0,1-.129.141l-.3-.6c.089-.016.207-.037.346-.065v-2.584l.62.06c-.011.06-.05.1-.162.118v2.3l.446-.1v-3.157h-1.093l-.045-.157h1.857l.314-.372s.344.252.552.442c-.016.06-.073.087-.15.087h-.927v1.326h.179l.285-.382s.205.171.385.34a8.182,8.182,0,0,0,.513-1.975l.786.178c-.023.065-.084.118-.212.123a6.246,6.246,0,0,1-.328.924h1.071l.306-.388s.353.264.564.458c-.018.06-.073.087-.15.087Zm-1.472,0c-.061.125-.128.243-.2.356a4.638,4.638,0,0,0,.585,1.425,4.935,4.935,0,0,0,.492-1.781Z" transform="translate(-990.456 -417.213)" fill="#431274"/>
      <path id="Path_19499" data-name="Path 19499" d="M1002.853,419.426a3.484,3.484,0,0,1-1,2.855l-.066-.053a5.39,5.39,0,0,0,.534-2.8v-1.587l.615.233h1.706a.432.432,0,0,1-.123-.055,2.007,2.007,0,0,0-.5-.76l.045-.037c1.1.118,1.076.755.757.852h1.305l.319-.4s.351.27.569.464c-.016.058-.073.086-.15.086h-4.011Zm1.551-.9c-.023.06-.073.092-.207.086a5.814,5.814,0,0,1-.44.767l.278.1a.194.194,0,0,1-.173.1v2.536a.651.651,0,0,1-.406.134h-.1v-2.335a4.041,4.041,0,0,1-.458.453l-.062-.06a6.382,6.382,0,0,0,.877-2.035Zm2.114.427s.306.275.48.464c-.018.058-.073.086-.152.086h-.674v2.111c0,.367-.078.587-.736.647a.583.583,0,0,0-.134-.367.936.936,0,0,0-.508-.178v-.076s.613.044.736.044c.1,0,.129-.032.129-.108v-2.072h-1.433l-.045-.157h1.478v-1.025l.713.071c-.011.074-.066.123-.2.146v.809h.078Zm-2.1.809c1.321.561.8,1.494.351,1.085a2.435,2.435,0,0,0-.412-1.053Z" transform="translate(-987.757 -417.225)" fill="#431274"/>
    </g>
    <path id="Path_19500" data-name="Path 19500" d="M981.263,417.382a24.317,24.317,0,0,0,16.21.737c-1.113,1.384-1.983,2.62-1.983,2.62C993.666,421.55,984.685,420.8,981.263,417.382Z" transform="translate(0.848 9.618)" fill="url(#linear-gradient-2)"/>
    <path id="Path_19501" data-name="Path 19501" d="M993.99,405.513l-.244.919a48.1,48.1,0,0,1,7.11-2.259A36.594,36.594,0,0,0,993.99,405.513Z" transform="translate(8.553 1.463)" fill="url(#linear-gradient-3)"/>
    <path id="Path_19502" data-name="Path 19502" d="M1017.013,407.036c.983.393,1.5,2.562-1.992,5.363-3.43,2.754-8.606,5.14-16.534,7.63-8.505,2.67-16.068,2.272-16.854-.759-.586-2.256.949-4.905,4.488-7.375v-1.3c-5.227,3.3-6.584,6.414-6.159,8.627.687,3.587,7.273,6.781,22.015,2.652,12.6-3.527,16.7-8.41,18.109-10.949C1021.364,408.616,1020.012,406.642,1017.013,407.036Z" transform="translate(0 3.2)" fill="url(#linear-gradient-4)"/>
    <g id="Group_5129" data-name="Group 5129" transform="translate(986.699 403.784)">
      <path id="Path_19503" data-name="Path 19503" d="M984.164,408.506h2.554c-.286-.251-.286-.464-.339-.83a3.109,3.109,0,0,0-.535-1.446H984.5v-1.079h3.836c-.357-.289.1-1.37-1.158-1.734l.053-.193c.789-.383,2.546-.247,3.036.731a1.146,1.146,0,0,1-.162,1.2h3.7v1.079h-2.018l1.179.443a12.549,12.549,0,0,1-1.892,1.832h2.892v1.116h-9.8Zm.822,1.637h2.253v.558h3.932l.511-.77,2.572.539-.786.733v4.509h-2.224v-.482h-4v.482h-2.253Zm1.266-3.912c.713.27,1.845.608,1.988,1.394a.9.9,0,0,1-.281.881h1.826a19.5,19.5,0,0,0,.911-2.276Zm4.991,6.3v-.818h-4v.818Zm0,.912h-4v.838h4Zm8.6-.477a9.521,9.521,0,0,1-7.766,7.862l-.107-.154c3.243-1.378,4.553-5.627,5.07-7.9Zm-5.874,1.4-.142-.115a19.922,19.922,0,0,0,3.016-6.282l2.7.251C998.867,410.787,995.472,413.707,993.966,414.364Zm5.732-10.676c-.641,1.76-3.443,4.808-5.321,5.51l-.16-.1a14.716,14.716,0,0,0,2.481-5.78Z" transform="translate(-984.06 -403.027)" fill="#431274"/>
      <path id="Path_19504" data-name="Path 19504" d="M994.109,412.845v-1.134h-3.658v-.655h-2.332v.655H984.1v1.134h4.019v4.013a6.2,6.2,0,0,0,2.332-1.283v-2.73Z" transform="translate(-984.1 -398.071)" fill="#431274"/>
    </g>
    <path id="Path_19505" data-name="Path 19505" d="M999.821,410.576a16.987,16.987,0,0,0,2.078-4.338h-3.374c-.508,3.029-2.521,6.32-4.373,8.785l.21.087a13.168,13.168,0,0,0,3.55-2.408v10.519a7.516,7.516,0,0,0,2.555-1.287V410.576Z" transform="translate(8.804 2.739)" fill="#971e7b"/>
    <g id="Group_5130" data-name="Group 5130" transform="translate(1007.487 401.801)">
      <path id="Path_19506" data-name="Path 19506" d="M996.954,402.8l2.665,1.1,7.447-2.1Z" transform="translate(-996.954 -401.802)" fill="#d384b4"/>
      <path id="Path_19507" data-name="Path 19507" d="M999.226,406.3l-.625-2.4,7.447-2.1Z" transform="translate(-995.937 -401.802)" fill="#431274"/>
      <path id="Path_19508" data-name="Path 19508" d="M998.988,406.3l.709-1.86,6.112-2.638Z" transform="translate(-995.698 -401.802)" fill="#971e7b"/>
      <path id="Path_19509" data-name="Path 19509" d="M1002.327,405.766l-2.9-1.327,6.112-2.638Z" transform="translate(-995.427 -401.802)" fill="#d384b4"/>
    </g>
  </g>
</svg>
