<svg xmlns="http://www.w3.org/2000/svg" width="200" height="30" viewBox="0 0 275.441 30">
  <g id="Group_5204" data-name="Group 5204" transform="translate(-7158.557 -1123.273)">
    <g id="Group_5203" data-name="Group 5203" transform="translate(7111.663 1086.552)">
      <g id="Group_5199" data-name="Group 5199" transform="translate(201.029 47.899)">
        <path id="Path_19662" data-name="Path 19662" d="M474.232,79.292h-3.675V78.081h3.675V75.074l-3.508.376-.356-1.169,1.128-.1a38.55,38.55,0,0,0,2.047-4.677h-2.987V68.287h9V69.5h-4.74a41.219,41.219,0,0,1-1.9,4.552l4.636-.439-.982-2.193,1.107-.459a24.812,24.812,0,0,1,1.775,4.322l-1.127.376-.334-.961-2.549.293v3.091h3.551v1.211h-3.551v4.031a34.31,34.31,0,0,0,3.321-1.232l.522,1.085a39.167,39.167,0,0,1-8.457,2.4l-.459-1.128,3.863-.814Zm6.16-2.234-1.189-.334a20.2,20.2,0,0,0,2.443-9.293h1.211l-.23,2.255h6.87v1.191h-1.774a38.4,38.4,0,0,1-.334,4.594,13.172,13.172,0,0,1-1.963,5.116,28.461,28.461,0,0,0,4.072,4.594l-1.023.585a25.673,25.673,0,0,1-3.738-4.218,26,26,0,0,1-5.158,4.468l-.918-.814a34.244,34.244,0,0,0,4.3-3.509l1.065-1.232a17.475,17.475,0,0,1-2.234-6.787A17.171,17.171,0,0,1,480.392,77.058Zm4.344,2.3.334-.564a12.663,12.663,0,0,0,1.086-3.4,28.9,28.9,0,0,0,.356-4.511h-3.947a29.1,29.1,0,0,0,.918,5.555A20.636,20.636,0,0,0,484.736,79.355Z" transform="translate(-470.369 -67.431)" fill="#474645"/>
      </g>
      <g id="Group_5200" data-name="Group 5200" transform="translate(234.817 47.293)">
        <path id="Path_19663" data-name="Path 19663" d="M572.469,74.057h-5.805c-.1,0-.146.041-.146.146v3.885a10.652,10.652,0,0,1-2.234,6.828l-1.086-.564a10.966,10.966,0,0,0,1.713-3.194,13.232,13.232,0,0,0,.4-3.447V73.18c0-.209.1-.314.334-.314h6.5a15.284,15.284,0,0,1-.438-2.172l1.169-.355a17.537,17.537,0,0,0,.521,2.526h8.541v1.191h-8.144a22.029,22.029,0,0,0,2.235,4.886,40.417,40.417,0,0,0,2.736-3.675l1.023.648a38.64,38.64,0,0,1-3.027,4.093c2.025,2.486,3.341,3.717,3.967,3.717.125-.02.23-.187.292-.48a15.716,15.716,0,0,0,.23-2.694l1.211.209a10.261,10.261,0,0,1-.626,4.03.671.671,0,0,1-.523.356,1.516,1.516,0,0,1-1.065-.252,15.51,15.51,0,0,1-4.364-4.071,23.455,23.455,0,0,1-8.04,3.988l-.668-1.128a24.1,24.1,0,0,0,7.977-3.905A23.322,23.322,0,0,1,572.469,74.057Zm-2.695-4.97v1.921h-1.19V69.087h-5.137V67.876h5.137V65.767h1.19v2.109h6.557V65.85h1.191v2.026h5.116v1.211h-5.116v1.754h-1.191V69.087Zm9.878.815,1.671,1.712-.939.751a12.1,12.1,0,0,0-1.609-1.65Z" transform="translate(-563.197 -65.767)" fill="#474645"/>
      </g>
      <g id="Group_5201" data-name="Group 5201" transform="translate(269.878 48.191)">
        <path id="Path_19664" data-name="Path 19664" d="M660.82,71.93a.1.1,0,0,0-.1.084v3.049h-1.191v-4.03a.209.209,0,0,1,.23-.23H668V69.424h-7.33v-1.19h15.6v1.19h-7.058V70.8h8.667c.146,0,.229.124.209.376a18.226,18.226,0,0,1-.648,3.738l-1.148-.355.459-2.485c.021-.084-.042-.147-.166-.147h-7.372v4.407H668V71.93Zm0,11.82c-.1,0-.146-.063-.146-.188V77.735c0-.1.042-.167.146-.167h15.14c.125,0,.188.063.188.167v5.827a.167.167,0,0,1-.188.188h-6.912v.835a.677.677,0,0,0,.209.5.833.833,0,0,0,.459.188h6.62a.565.565,0,0,0,.354-.147,8.063,8.063,0,0,0,.523-1.816l1.148.355a6.911,6.911,0,0,1-.647,2.318,1.048,1.048,0,0,1-.856.5h-7.81a1.316,1.316,0,0,1-.856-.438,1.114,1.114,0,0,1-.356-.794v-1.5Zm5.973-8.5v1.044h-5.159V75.251Zm0-2.13v1.044h-5.075V73.12Zm1.044,5.576h-5.931l-.041.042v1.4h5.972Zm0,2.485h-5.972v1.378l.041.063h5.931Zm1.211-1.044h5.889v-1.4c-.02-.042-.042-.063-.1-.042h-5.784Zm0,2.485h5.784a.1.1,0,0,0,.1-.1V81.181h-5.889Zm6.411-9.5v1.044h-5.1V73.12Zm.146,2.13v1.044h-5.158V75.251Z" transform="translate(-659.525 -68.234)" fill="#474645"/>
      </g>
      <g id="Group_5202" data-name="Group 5202" transform="translate(303.624 48.191)">
        <path id="Path_19665" data-name="Path 19665" d="M764.247,81.954a3.887,3.887,0,0,1-1.232,3.718,4.71,4.71,0,0,1-2.966.939,9.374,9.374,0,0,1-3.842-1l.188-1.232a7.383,7.383,0,0,0,4.428.918,2.577,2.577,0,0,0,1.942-1.419,3.817,3.817,0,0,0,.167-2.089,15.035,15.035,0,0,0-1-3.78l-.042-.083H752.24V76.713h9.146a25.536,25.536,0,0,0-1.461-2.82l1.107-.543.125.23,5.513-4.156H754.015v-1.19h13.97l.751,1.169h-.063l-6.932,5.221.981,2.089h8.228v1.211H763.2A18.094,18.094,0,0,1,764.247,81.954Z" transform="translate(-752.24 -68.234)" fill="#474645"/>
      </g>
      <path id="Path_19666" data-name="Path 19666" d="M354.2,80.787a10.8,10.8,0,0,0-1.3,3.367H358a4.226,4.226,0,0,1,.248-.78,4.6,4.6,0,0,1,3.418-2.716,4.425,4.425,0,0,1,1.185-.167,3.685,3.685,0,0,1,3.064,1.55,3.572,3.572,0,0,1,.711,1.333,4.08,4.08,0,0,1,.134.78h6.336l.731-3.977H354.634Z" transform="translate(-194.631 -27.639)" fill="#009de8"/>
      <path id="Path_19667" data-name="Path 19667" d="M373.623,69.259l-.474,2.543h-.064c-.452-1.122-3.242-2.577-6.244-2.577a9.343,9.343,0,0,0-6.78,2.891h18.513l.528-2.858Z" transform="translate(-199.181 -20.674)" fill="#009de8"/>
      <path id="Path_19668" data-name="Path 19668" d="M364.084,97.171a4.592,4.592,0,0,1-1.732.616,4.359,4.359,0,0,1-.906.1,3.8,3.8,0,0,1-2.121-.626c-.062-.029-.124-.061-.182-.093a3.373,3.373,0,0,1-1.744-3.046H352.25l-.018.115c-.021.2-.049.388-.064.588a8.486,8.486,0,0,0,.309,2.872l.146.4h19.053l.734-3.978h-6.192a4.41,4.41,0,0,1-2.135,3.046" transform="translate(-194.151 -36.51)" fill="#009de8"/>
      <path id="Path_19669" data-name="Path 19669" d="M361.829,112.05c2.141-.064,4.146-.38,5.4-2.161h.068l-.368,1.98h5.478l.7-3.807H354.711a7.716,7.716,0,0,0,7.118,3.989" transform="translate(-195.778 -45.374)" fill="#009de8"/>
      <path id="Path_19670" data-name="Path 19670" d="M215.689,80.439a4.255,4.255,0,0,1,4.224,3.715h5.18a9.341,9.341,0,0,0-1.248-3.977H207.535a9.362,9.362,0,0,0-1.248,3.976h5.18a4.253,4.253,0,0,1,4.222-3.715" transform="translate(-101.377 -27.639)" fill="#009de8"/>
      <path id="Path_19671" data-name="Path 19671" d="M219.177,67.291a9.4,9.4,0,0,0-7.405,3.6h14.812a9.4,9.4,0,0,0-7.407-3.6" transform="translate(-104.866 -19.443)" fill="#009de8"/>
      <path id="Path_19672" data-name="Path 19672" d="M215.645,97.833a4.261,4.261,0,0,1-4.222-3.708h-5.2a9.386,9.386,0,0,0,1.03,3.978H224.04a9.31,9.31,0,0,0,1.033-3.978h-5.2a4.261,4.261,0,0,1-4.224,3.708" transform="translate(-101.334 -36.51)" fill="#009de8"/>
      <path id="Path_19673" data-name="Path 19673" d="M218.606,112.095a9.422,9.422,0,0,0,7.733-4.034H210.874a9.421,9.421,0,0,0,7.732,4.034" transform="translate(-104.295 -45.374)" fill="#009de8"/>
      <path id="Path_19674" data-name="Path 19674" d="M57.838,108.084a12.121,12.121,0,0,0,6.38,3.545,15.269,15.269,0,0,0,8.363-.335l.6-3.235H57.818Z" transform="translate(-6.948 -45.372)" fill="#009de8"/>
      <path id="Path_19675" data-name="Path 19675" d="M76,40.025a14.853,14.853,0,0,0-6.955-3.064c-5.239-.916-9.394.846-12.187,4.33H75.768Z" transform="translate(-6.341 0)" fill="#009de8"/>
      <path id="Path_19676" data-name="Path 19676" d="M54.208,80.994c-.048-.344-.074-.6-.084-.817H46.976l.016.424a18.663,18.663,0,0,0,.6,3.552h7.959a10.71,10.71,0,0,1-1.347-3.159" transform="translate(-0.052 -27.639)" fill="#009de8"/>
      <path id="Path_19677" data-name="Path 19677" d="M51.23,52.394a18.068,18.068,0,0,0-1.883,3.878h8.1c1.49-1.87,4.483-3.352,6.989-2.834a12.415,12.415,0,0,1,4.923,2.218c.143.11.577.4.708.539l.721-3.9H51.3Z" transform="translate(-1.56 -9.906)" fill="#009de8"/>
      <path id="Path_19678" data-name="Path 19678" d="M61.977,96.869A7.41,7.41,0,0,1,58.2,94.358c-.066-.076-.128-.155-.192-.233h-8.38l.075.233a14.625,14.625,0,0,0,1.948,3.69l.045.055H68.16l.323-1.877c-2.832.927-4.233,1.14-6.506.643" transform="translate(-1.741 -36.51)" fill="#009de8"/>
      <path id="Path_19679" data-name="Path 19679" d="M55.159,66.233h-7.7l-.115.393c-.063.257-.125.513-.176.769a15.362,15.362,0,0,0-.27,2.819h7.174a7.4,7.4,0,0,1,1.09-3.981" transform="translate(0 -18.77)" fill="#009de8"/>
      <path id="Path_19680" data-name="Path 19680" d="M131.981,69.257c-.917-1.413-2.921-2.054-4.7-2.054a6.361,6.361,0,0,0-5.25,2.359h-.068l.53-2.846.089-.483H116.96l-.722,3.981H132.5a5.75,5.75,0,0,0-.519-.957" transform="translate(-44.104 -18.77)" fill="#009de8"/>
      <path id="Path_19681" data-name="Path 19681" d="M125.134,52.3H119.5l-.724,3.975H124.4Z" transform="translate(-45.717 -9.907)" fill="#009de8"/>
      <path id="Path_19682" data-name="Path 19682" d="M140.919,111.821h5.59l.679-3.762h-5.613Z" transform="translate(-59.802 -45.372)" fill="#009de8"/>
      <path id="Path_19683" data-name="Path 19683" d="M131.193,80.177H114.426l-.722,3.976h5.64l.023-.13a3.523,3.523,0,0,1,3.576-2.7c2.121,0,2.458,1.5,2.416,2.7l-.02.13h5.654l.024-.13a12.33,12.33,0,0,0,.242-3.552Z" transform="translate(-42.493 -27.639)" fill="#009de8"/>
      <path id="Path_19684" data-name="Path 19684" d="M143.241,98.1h5.624l.717-3.977h-5.649Z" transform="translate(-61.279 -36.51)" fill="#009de8"/>
      <path id="Path_19685" data-name="Path 19685" d="M111.164,98.1h5.613l.743-3.977h-5.635Z" transform="translate(-40.877 -36.51)" fill="#009de8"/>
      <path id="Path_19686" data-name="Path 19686" d="M127.695,38.239h-5.657l-.734,4.019h5.643Z" transform="translate(-47.326 -0.965)" fill="#009de8"/>
      <path id="Path_19687" data-name="Path 19687" d="M108.738,111.821h5.585l.7-3.762h-5.608Z" transform="translate(-39.334 -45.372)" fill="#009de8"/>
      <path id="Path_19688" data-name="Path 19688" d="M180.541,71.183l.3-1.985h-5.25l-.54,2.9h10l.531-2.866c-3.23,0-4.4,1.041-5.036,1.949" transform="translate(-81.51 -20.656)" fill="#009de8"/>
      <path id="Path_19689" data-name="Path 19689" d="M167.378,111.821h5.589l.71-3.762h-5.6Z" transform="translate(-76.631 -45.372)" fill="#009de8"/>
      <path id="Path_19690" data-name="Path 19690" d="M172.461,84.153h5.614l.027-.13c.485-2.4,2.18-3.271,4.786-2.186l.309-1.66h-10Z" transform="translate(-79.863 -27.639)" fill="#009de8"/>
      <path id="Path_19691" data-name="Path 19691" d="M169.862,98.1h5.6l.751-3.977H170.6Z" transform="translate(-78.211 -36.51)" fill="#009de8"/>
      <path id="Path_19692" data-name="Path 19692" d="M292.435,111.864h5.651l.725-3.8h-5.637Z" transform="translate(-156.17 -45.373)" fill="#009de8"/>
      <path id="Path_19693" data-name="Path 19693" d="M294.756,80.177H267.029l-.714,3.977h5.714a3.417,3.417,0,0,1,3.278-2.053,2.186,2.186,0,0,1,2.427,2.053h5.677a3.339,3.339,0,0,1,3.262-2.053,1.969,1.969,0,0,1,2.279,2.053h5.67a13.367,13.367,0,0,0,.27-3.373Z" transform="translate(-139.557 -27.639)" fill="#009de8"/>
      <path id="Path_19694" data-name="Path 19694" d="M263.79,98.1h5.7l.7-3.977h-5.685Z" transform="translate(-137.951 -36.51)" fill="#009de8"/>
      <path id="Path_19695" data-name="Path 19695" d="M295.058,98.1h5.632l.76-3.977H295.83Z" transform="translate(-157.838 -36.51)" fill="#009de8"/>
      <path id="Path_19696" data-name="Path 19696" d="M323.331,111.864h5.837l.654-3.8H324.06Z" transform="translate(-175.82 -45.373)" fill="#009de8"/>
      <path id="Path_19697" data-name="Path 19697" d="M261.356,111.864h5.717l.674-3.8h-5.7Z" transform="translate(-136.403 -45.373)" fill="#009de8"/>
      <path id="Path_19698" data-name="Path 19698" d="M325.914,98.1h5.737l.688-3.977h-5.663Z" transform="translate(-177.463 -36.51)" fill="#009de8"/>
      <path id="Path_19699" data-name="Path 19699" d="M295.355,71.174c-1.207-1.552-3.22-1.774-4.519-1.85-1.181-.066-3.377-.383-6.479,2.409a5.771,5.771,0,0,0-5.158-2.518,5.558,5.558,0,0,0-5.142,2.683h-.066l.524-2.658h-5.168l-.516,2.87H295.97a6.583,6.583,0,0,0-.614-.936" transform="translate(-141.157 -20.667)" fill="#009de8"/>
    </g>
  </g>
</svg>
