<svg xmlns="http://www.w3.org/2000/svg" width="76.239" height="30" viewBox="0 0 76.239 30">
  <g id="Group_5094" data-name="Group 5094" transform="translate(-36.194 -32.333)">
    <g id="Group_5088" data-name="Group 5088" transform="translate(36.194 40.079)">
      <path id="Path_19249" data-name="Path 19249" d="M37.995,104.046h6.934a3.07,3.07,0,0,0,2.707-1.417s.982-1.979,1.187-2.327H41.89a2.911,2.911,0,0,0-2.517,1.71A6.846,6.846,0,0,1,37.995,104.046Z" transform="translate(-37.55 -91.26)" fill="#4f8700"/>
      <path id="Path_19250" data-name="Path 19250" d="M103.785,67.109,100.8,69.745q-1.573-2.191-3.2-2.19a1.947,1.947,0,0,0-1.3.425,1.236,1.236,0,0,0-.5.957,1.642,1.642,0,0,0,.361,1.008,27.351,27.351,0,0,0,2.958,2.722q2.307,1.93,2.8,2.434a8.458,8.458,0,0,1,1.739,2.37,5.929,5.929,0,0,1,.512,2.47,5.663,5.663,0,0,1-1.8,4.307,6.57,6.57,0,0,1-4.7,1.7,6.986,6.986,0,0,1-3.944-1.11,8.754,8.754,0,0,1-2.876-3.485l3.39-2.045q1.529,2.808,3.52,2.808a2.588,2.588,0,0,0,1.745-.605,1.8,1.8,0,0,0,.707-1.4,2.418,2.418,0,0,0-.533-1.44,15.441,15.441,0,0,0-2.352-2.2,23.653,23.653,0,0,1-4.473-4.357,5.534,5.534,0,0,1-1.011-3.06,5,5,0,0,1,1.681-3.781,5.823,5.823,0,0,1,4.145-1.577,6.54,6.54,0,0,1,3.021.735A10.994,10.994,0,0,1,103.785,67.109Z" transform="translate(-77.34 -63.695)" fill="#ffa300"/>
      <path id="Path_19251" data-name="Path 19251" d="M169.454,75.243l.886-1.857-5.826.05-2.39,5.022H168.2a6.185,6.185,0,0,1-2.314,2.752,6.637,6.637,0,0,1-3.526.878,7.452,7.452,0,0,1-5.406-2.132,6.978,6.978,0,0,1-2.192-5.2,6.8,6.8,0,0,1,2.112-5.041,7.186,7.186,0,0,1,5.241-2.075,8.4,8.4,0,0,1,6.286,2.852l.015-.015,1.805-3.8a10.684,10.684,0,0,0-2.956-1.958,13.071,13.071,0,0,0-5.172-1.023,10.962,10.962,0,0,0-8.584,3.7,10.629,10.629,0,0,0-2.779,7.318,11.392,11.392,0,0,0,1.5,5.718,10.476,10.476,0,0,0,4.091,4.083,11.921,11.921,0,0,0,5.884,1.434,10.627,10.627,0,0,0,5.372-1.311,10.063,10.063,0,0,0,3.731-3.8,10.377,10.377,0,0,0,1.44-5.272l-.009-.283Z" transform="translate(-122.441 -63.695)" fill="#0094a8"/>
      <g id="Group_5087" data-name="Group 5087" transform="translate(0 0.533)">
        <path id="Path_19252" data-name="Path 19252" d="M40.2,73.46V69.8h7.562V65.854H36.194V73.46Z" transform="translate(-36.194 -65.854)" fill="#9aaf00"/>
        <path id="Path_19253" data-name="Path 19253" d="M40.2,121.518h-4v7.438H47.759V125H40.2Z" transform="translate(-36.194 -107.769)" fill="#9aaf00"/>
      </g>
    </g>
    <g id="Group_5091" data-name="Group 5091" transform="translate(86.235 42.997)">
      <g id="Group_5089" data-name="Group 5089">
        <path id="Path_19254" data-name="Path 19254" d="M331.924,98.844l-.787-.08.026,3.825.768.03V99.108c.13-.053.2-.1.2-.158S332.059,98.858,331.924,98.844Z" transform="translate(-308.329 -93.02)" fill="#9aaf00"/>
        <path id="Path_19255" data-name="Path 19255" d="M321.189,99.035l-.567-.614-.411.461,0-1.684.894-.008v0c.1,0,.264.028-.011-.258v0l-.533-.517-.374.4h-1.9l.074.389h.813l0,1.741h-.989l.071.35h.914l0,2.686,1-.185.027-2.5h.983c.093-.009.279.04,0-.253Z" transform="translate(-298.578 -91.247)" fill="#9aaf00"/>
        <path id="Path_19256" data-name="Path 19256" d="M336.786,96.081l-1.029-.094v4.874a1.841,1.841,0,0,1-.186,1.007l.969-.181a.628.628,0,0,0,.221-.514V96.421c.156-.082.234-.157.234-.225S336.926,96.1,336.786,96.081Z" transform="translate(-311.668 -90.929)" fill="#9aaf00"/>
        <path id="Path_19257" data-name="Path 19257" d="M302.815,108.847l-.668-.45-.377.329h-.523l-.844-.228v2.238l.882-.129v-.5h.491v.251l.939-.129v-1.1c.13-.052.2-.1.2-.15S302.878,108.9,302.815,108.847Zm-1.04.961h-.491v-.771h.491Z" transform="translate(-285.185 -100.274)" fill="#9aaf00"/>
        <path id="Path_19258" data-name="Path 19258" d="M297.636,96.187l-.863-.529-.389.47h-3.018l-.972-.163V98.69a5.4,5.4,0,0,1-.851,2.817s1.709-.254,1.831-2.817h0v-.067c0-.027,0-.054,0-.083l0-.239.053.2h2.844c.065.015.223-.025.049-.2l.009.009-.042-.047a.466.466,0,0,0-.043-.044l-.409-.43-.318.4-.224-.007v-.592h.9c.07,0,.29.032.006-.269v0l-.411-.413-.322.357h-.177v-.268c.118-.048.177-.1.177-.15s-.067-.1-.2-.114l-.908-.065v.6h-.812l.076.328h.737v.592h-.986v-1.7h3.062v4.17a1.845,1.845,0,0,1-.185,1.007l.969-.181a.627.627,0,0,0,.221-.514V96.536l.042-.02c.163-.081.246-.147.246-.2C297.731,96.278,297.7,96.235,297.636,96.187Z" transform="translate(-278.514 -90.681)" fill="#9aaf00"/>
        <path id="Path_19259" data-name="Path 19259" d="M246.069,77.115c.117-.159.232-.321.345-.489,0,0,.321.033.365-.228,0,0,.021-.174-.27-.267l-1.872-.622a16.063,16.063,0,0,1-5.842,6.5,13.053,13.053,0,0,0,6.717-4.193,15.439,15.439,0,0,0,1.283,1.371,9.8,9.8,0,0,0,4.055,2.664,20.9,20.9,0,0,1,1.88-2.086A11.922,11.922,0,0,1,246.069,77.115Z" transform="translate(-238.794 -75.509)" fill="#9aaf00"/>
        <path id="Path_19260" data-name="Path 19260" d="M259.429,94.131l-1.072-.957a.208.208,0,0,0-.332.038l-.549.817-3.312-.013.1.46h5S259.722,94.527,259.429,94.131Z" transform="translate(-250.368 -88.759)" fill="#9aaf00"/>
        <path id="Path_19261" data-name="Path 19261" d="M256.646,102.427l-1.335-.621-.65.432h-6.222l.106.47,5.9-.016-1.884,2.731c-.4.492-.328.4-.553.573l1.8.274c.433.038.792-.471.792-.471l1.868-2.688a.754.754,0,0,0,.334-.209C257.037,102.657,256.646,102.427,256.646,102.427Z" transform="translate(-246.057 -95.311)" fill="#9aaf00"/>
      </g>
      <g id="Group_5090" data-name="Group 5090" transform="translate(1.205 11.92)">
        <path id="Path_19262" data-name="Path 19262" d="M253.156,123.767h-9.1l-.384.538h9.482Z" transform="translate(-243.674 -123.767)" fill="#9aaf00"/>
        <path id="Path_19263" data-name="Path 19263" d="M292.383,123.767l-.767.538h12.767l.384-.538Z" transform="translate(-279.774 -123.767)" fill="#9aaf00"/>
        <path id="Path_19264" data-name="Path 19264" d="M279.666,126.887v-3.119h.592v2.182l3.121-2.178h.866Z" transform="translate(-270.776 -123.767)" fill="#9aaf00"/>
      </g>
    </g>
    <g id="Group_5093" data-name="Group 5093" transform="translate(37.088 32.333)">
      <path id="Path_19266" data-name="Path 19266" d="M81.215,37.275h-.452a5.649,5.649,0,0,0,.193-1.543h.414A8.422,8.422,0,0,1,81.215,37.275Zm1-1.731c-.033-.077-.071-.2-.1-.292l-.149.287h-.876a.3.3,0,0,1-.265-.149.3.3,0,0,1,.039-.32l.7-1.014h-.551a.246.246,0,0,1-.2-.121.235.235,0,0,1,.006-.253l.76-1.213H82.1l-.778,1.224h.491l.226-.342H82.6l-1.262,1.825H82.1c-.033-.144-.1-.463-.127-.634h.43a7.654,7.654,0,0,0,.259,1Zm-.573,1.731a10.69,10.69,0,0,1-.127-1.543h.413a9.407,9.407,0,0,0,.149,1.543Zm.606-.237c-.072-.425-.116-.866-.149-1.307h.4a6.346,6.346,0,0,0,.176,1.307Zm2.028-3.958v.2H85.4V33.6H82.731v-.325H83.8v-.2H82.538v-.336H83.8v-.276h.474v.276h1.285v.336Zm-.942,4.195h-.783a2.743,2.743,0,0,0,.733-.5h.695A2.755,2.755,0,0,1,83.332,37.275Zm2.056-2.629a.4.4,0,0,1-.281.094H82.93a.316.316,0,0,1-.21-.088.39.39,0,0,1-.116-.265v-.259a.36.36,0,0,1,.122-.254.349.349,0,0,1,.22-.082H85.1a.426.426,0,0,1,.27.082.371.371,0,0,1,.121.287v.21A.356.356,0,0,1,85.388,34.646Zm-.171,1.885a.417.417,0,0,1-.292.121H83.139a.341.341,0,0,1-.253-.132.391.391,0,0,1-.094-.242v-1A.343.343,0,0,1,82.93,35a.434.434,0,0,1,.27-.094h1.736a.362.362,0,0,1,.276.127.464.464,0,0,1,.11.3v.937A.364.364,0,0,1,85.217,36.531Zm-1.775-2.415h-.264a.105.105,0,0,0-.088.088v.1a.094.094,0,0,0,.083.088h.27Zm1.4,1.191a.1.1,0,0,0-.089-.088H83.376a.106.106,0,0,0-.1.093V35.4h1.56Zm0,.375h-1.56v.171h1.56Zm0,.463h-1.56v.077a.106.106,0,0,0,.088.1h1.379a.093.093,0,0,0,.094-.094Zm-.618-2.029h-.347V34.4h.347Zm.634,3.159a3.172,3.172,0,0,1-.557-.5h.667a3.737,3.737,0,0,0,.706.5Zm.16-3.065a.114.114,0,0,0-.11-.094h-.248V34.4H84.9a.109.109,0,0,0,.11-.094Z" transform="translate(-70.648 -32.435)" fill="#9aaf00"/>
      <path id="Path_19267" data-name="Path 19267" d="M125.968,34.431a3.294,3.294,0,0,1-.22-.287l-.193.292H122.1a.221.221,0,0,1-.21-.127.249.249,0,0,1,.044-.27l1.362-1.615h.662L122.6,34.04h3.082a10.954,10.954,0,0,1-.6-1.119h.568a6.229,6.229,0,0,0,.987,1.51Zm.243,2.63a.454.454,0,0,1-.337.149h-3.291a.489.489,0,0,1-.342-.133.5.5,0,0,1-.154-.369V35.468a.48.48,0,0,1,.138-.347.509.509,0,0,1,.369-.144h3.264a.486.486,0,0,1,.364.16.525.525,0,0,1,.121.353V36.7A.518.518,0,0,1,126.211,37.061Zm-.375-1.522a.16.16,0,0,0-.16-.16h-2.911a.166.166,0,0,0-.159.154v1.136a.131.131,0,0,0,.127.138H125.7a.152.152,0,0,0,.132-.138Z" transform="translate(-101.604 -32.402)" fill="#9aaf00"/>
      <path id="Path_19268" data-name="Path 19268" d="M160.731,37.168H160.2a9.578,9.578,0,0,0,.5-1.979h.474A16.877,16.877,0,0,1,160.731,37.168Zm-.044-3.666a10.028,10.028,0,0,1-.48-1.158h.507a5.7,5.7,0,0,0,.507,1.158Zm-.016,1.406a7.243,7.243,0,0,1-.458-1.213h.5a5.764,5.764,0,0,0,.507,1.213Zm.871-.143h-.308a4.1,4.1,0,0,0,.132-.8h.276A4.408,4.408,0,0,1,161.541,34.764Zm2.7-1.218h.392c-.022-.077-.055-.215-.066-.276h.3a2.682,2.682,0,0,0,.165.562h-.314c-.022-.055-.055-.165-.077-.226l-.133.226h-.529a.187.187,0,0,1-.193-.115.228.228,0,0,1,.072-.226c.11-.116.281-.3.342-.381h-.182a.237.237,0,0,1-.132-.033.214.214,0,0,1-.083-.121H162.5V32.83c-.166.171-.541.557-.728.738h.386a2.2,2.2,0,0,1-.049-.27h.3a2.435,2.435,0,0,0,.143.546h-.314c-.016-.044-.05-.138-.066-.193l-.127.193h-.612a.158.158,0,0,1-.144-.1.145.145,0,0,1,.027-.171c.133-.127.32-.325.43-.447h-.264a.181.181,0,0,1-.138-.3c.11-.11.342-.353.452-.474h.469c-.127.138-.375.4-.5.524H162c.039-.039.116-.116.144-.149h.353v-.088h.43a2.776,2.776,0,0,1-.077-.292h.446a1.51,1.51,0,0,0,.072.292h.48v.149c.11-.116.3-.337.391-.453h.419c-.1.133-.32.4-.441.529h.226a2.33,2.33,0,0,0,.2-.226h.419C164.854,32.874,164.507,33.265,164.242,33.546Zm.563,3.484a.412.412,0,0,1-.3.138H163l-.209-.348h1.516a.118.118,0,0,0,.093-.11V36.59c0-.05-.044-.116-.093-.116h-2.448a.375.375,0,0,1-.275-.1.339.339,0,0,1-.094-.254v-.187a.358.358,0,0,1,.138-.309.491.491,0,0,1,.287-.077h2.315a.117.117,0,0,0,.1-.1v-.061a.1.1,0,0,0-.094-.094h-2.806v-.32h3.027a.433.433,0,0,1,.292.094.323.323,0,0,1,.083.226v.248a.325.325,0,0,1-.1.248.419.419,0,0,1-.27.088H162.07a.1.1,0,0,0-.088.094v.094a.1.1,0,0,0,.094.094h2.459a.339.339,0,0,1,.353.353v.3A.351.351,0,0,1,164.8,37.03Zm-2.993-2.266a7.521,7.521,0,0,1-.067-.8H162a4.9,4.9,0,0,0,.072.8Zm.4,0a6.049,6.049,0,0,1-.088-.8h.248a5.154,5.154,0,0,0,.1.8Zm1.439-.072a.271.271,0,0,1-.2.077h-.639a.264.264,0,0,1-.2-.072.275.275,0,0,1-.077-.2v-.237a.3.3,0,0,1,.1-.243.313.313,0,0,1,.2-.055h.618a.271.271,0,0,1,.215.094.3.3,0,0,1,.061.193V34.5A.287.287,0,0,1,163.647,34.693Zm-1.059-1.306v-.276H163.7v.276Zm0,.424V33.53h1.119v.281Zm.75.507a.083.083,0,0,0-.072-.083h-.281a.089.089,0,0,0-.083.083v.088a.085.085,0,0,0,.083.083h.287a.074.074,0,0,0,.066-.077Zm.7.441h-.3a3.58,3.58,0,0,0,.138-.8h.275A3.653,3.653,0,0,1,164.038,34.759Zm.276,0a5.267,5.267,0,0,1-.055-.8h.248a7.056,7.056,0,0,0,.082.8Zm.43,0c-.038-.193-.082-.6-.1-.8h.265c.016.2.066.606.1.8Z" transform="translate(-130.462 -32.333)" fill="#9aaf00"/>
      <g id="Group_5092" data-name="Group 5092" transform="translate(0 0.061)">
        <path id="Path_19269" data-name="Path 19269" d="M40.519,40h-.706a5.848,5.848,0,0,0,1.5-2.073.073.073,0,0,0-.061-.088h-1.2v-.375h1.328a.449.449,0,0,1,.386.187.482.482,0,0,1,.022.447A5.65,5.65,0,0,1,40.519,40Zm3.407,0A8.336,8.336,0,0,1,42.5,38.158v1.681a.555.555,0,0,1-.154.414.525.525,0,0,1-.364.127h-.7L41.086,40h.755A.158.158,0,0,0,42,39.851V37.11a.13.13,0,0,0-.132-.132H40.728V36.6h1.29a.512.512,0,0,1,.353.143.481.481,0,0,1,.126.347v.182c.122.226.259.458.381.64a3.286,3.286,0,0,0,.937-1.136h.573a4.2,4.2,0,0,1-1.246,1.538A7.772,7.772,0,0,0,44.719,40Z" transform="translate(-39.813 -35.606)" fill="#9aaf00"/>
        <path id="Path_19270" data-name="Path 19270" d="M47.327,33.447h-.89l-.962-.866h.89Z" transform="translate(-44.077 -32.581)" fill="#9aaf00"/>
      </g>
    </g>
  </g>
</svg>
