<svg xmlns="http://www.w3.org/2000/svg" width="30" height="30" viewBox="0 0 30 30">
  <g id="icon_fb" transform="translate(-1508 -22)">
    <g id="Path_4132" data-name="Path 4132" transform="translate(1508 22)" fill="none">
      <path d="M10,0H20A10,10,0,0,1,30,10V20A10,10,0,0,1,20,30H10A10,10,0,0,1,0,20V10A10,10,0,0,1,10,0Z" stroke="none"/>
      <path d="M 10 1 C 5.037380218505859 1 1 5.037380218505859 1 10 L 1 20 C 1 24.96261978149414 5.037380218505859 29 10 29 L 20 29 C 24.96261978149414 29 29 24.96261978149414 29 20 L 29 10 C 29 5.037380218505859 24.96261978149414 1 20 1 L 10 1 M 10 0 L 20 0 C 25.52285003662109 0 30 4.477149963378906 30 10 L 30 20 C 30 25.52285003662109 25.52285003662109 30 20 30 L 10 30 C 4.477149963378906 30 0 25.52285003662109 0 20 L 0 10 C 0 4.477149963378906 4.477149963378906 0 10 0 Z" stroke="none" fill="#fff"/>
    </g>
    <path id="Icon_zocial-facebook" data-name="Icon zocial-facebook" d="M13.257,8.21V5.291h2.355V3.822a3.842,3.842,0,0,1,1.032-2.706A3.282,3.282,0,0,1,19.143,0h2.339V2.92H19.143a.515.515,0,0,0-.412.252,1.024,1.024,0,0,0-.183.619v1.5h2.935V8.21H18.547v7.079H15.612V8.21Z" transform="translate(1505.63 29.355)" fill="#fff"/>
  </g>
</svg>
