<svg xmlns="http://www.w3.org/2000/svg" width="30" height="30" viewBox="0 0 30 30">
  <g id="icon_line" transform="translate(-1550 -22)">
    <path id="Icon_simple-line" data-name="Icon simple-line" d="M14.122,7.633a.46.46,0,0,1,0,.92h-1.28v.82h1.28a.459.459,0,1,1,0,.918h-1.74a.46.46,0,0,1-.457-.459V6.354a.461.461,0,0,1,.459-.459h1.74a.459.459,0,0,1,0,.919h-1.28v.82h1.28Zm-2.811,2.2a.459.459,0,0,1-.315.435.471.471,0,0,1-.145.023.451.451,0,0,1-.372-.182L8.7,7.689V9.833a.458.458,0,1,1-.917,0V6.354a.457.457,0,0,1,.314-.434A.424.424,0,0,1,8.235,5.9a.472.472,0,0,1,.361.185l1.8,2.428V6.354a.459.459,0,1,1,.919,0V9.833Zm-4.187,0a.459.459,0,1,1-.917,0V6.354a.459.459,0,1,1,.917,0Zm-1.8.459H3.586a.462.462,0,0,1-.459-.459V6.354a.459.459,0,0,1,.919,0v3.02H5.326a.459.459,0,0,1,0,.918M17.5,7.962c0-3.917-3.927-7.1-8.751-7.1S0,4.046,0,7.962c0,3.508,3.114,6.448,7.318,7.007.285.06.673.188.772.43a1.781,1.781,0,0,1,.028.788L8,16.931c-.033.22-.175.865.765.47a28.21,28.21,0,0,0,6.881-5.087A6.288,6.288,0,0,0,17.5,7.962" transform="translate(1556.249 27.808)" fill="#fff"/>
    <g id="Path_4133" data-name="Path 4133" transform="translate(1550 22)" fill="none">
      <path d="M10,0H20A10,10,0,0,1,30,10V20A10,10,0,0,1,20,30H10A10,10,0,0,1,0,20V10A10,10,0,0,1,10,0Z" stroke="none"/>
      <path d="M 10 1 C 5.037380218505859 1 1 5.037380218505859 1 10 L 1 20 C 1 24.96261978149414 5.037380218505859 29 10 29 L 20 29 C 24.96261978149414 29 29 24.96261978149414 29 20 L 29 10 C 29 5.037380218505859 24.96261978149414 1 20 1 L 10 1 M 10 0 L 20 0 C 25.52285003662109 0 30 4.477149963378906 30 10 L 30 20 C 30 25.52285003662109 25.52285003662109 30 20 30 L 10 30 C 4.477149963378906 30 0 25.52285003662109 0 20 L 0 10 C 0 4.477149963378906 4.477149963378906 0 10 0 Z" stroke="none" fill="#fff"/>
    </g>
  </g>
</svg>
