<svg xmlns="http://www.w3.org/2000/svg" width="52" height="30" viewBox="0 0 52.597 30">
  <g id="Group_5226" data-name="Group 5226" transform="translate(-73.011 -46.722)">
    <g id="Group_5224" data-name="Group 5224" transform="translate(79.754 57.039)">
      <path id="Path_19781" data-name="Path 19781" d="M102.137,92.189h-.7v2.769h.352v.569h-1.519v-.569h.352V92.189h-.7l-.034.536h-.67l.033-1.105h3.561l.034,1.105h-.67Z" transform="translate(-90.751 -75.939)" fill="#1b1819"/>
      <path id="Path_19782" data-name="Path 19782" d="M107.758,94.326c0-.441-.184-.558-.553-.558a1.758,1.758,0,0,0-.485.084v.39h-.67V93.5a2.563,2.563,0,0,1,1.166-.3c.782,0,1.278.274,1.278,1.122,0,.48-.016.882-.028,1.3h.33v.569h-.982v-.179a1.485,1.485,0,0,1,.039-.4h-.012a.935.935,0,0,1-.955.648.852.852,0,0,1-.39-1.653,3.932,3.932,0,0,1,1.261-.134Zm-.229.62c-.636,0-.837.134-.837.385,0,.173.123.352.429.352s.625-.2.625-.737Z" transform="translate(-93.577 -76.596)" fill="#1b1819"/>
      <path id="Path_19783" data-name="Path 19783" d="M111.745,92.842h-.38v-.569h1.161v2.35h.335v.569h-1.435v-.569h.319Zm.362-2.026a.487.487,0,1,1-.524.485.474.474,0,0,1,.524-.485" transform="translate(-95.873 -75.604)" fill="#1b1819"/>
      <path id="Path_19784" data-name="Path 19784" d="M117.958,93.313h1.4v.569h-.267l-1.011,2.35h-.814l-.392-1.011a.922.922,0,0,1-.067-.251h-.012a.911.911,0,0,1-.072.251l-.441,1.011h-.815l-.982-2.35h-.274v-.569h1.4v.569h-.274a1.844,1.844,0,0,1,.139.324l.358.988a2.151,2.151,0,0,1,.089.335h.011a2.149,2.149,0,0,1,.128-.34l.436-.971-.134-.335h-.312v-.569h1.418v.569h-.3a1.887,1.887,0,0,1,.14.324l.362.988a1.656,1.656,0,0,1,.089.335h.012a1.653,1.653,0,0,1,.089-.335l.352-.988a1.8,1.8,0,0,1,.139-.324h-.385Z" transform="translate(-97.089 -76.644)" fill="#1b1819"/>
      <path id="Path_19785" data-name="Path 19785" d="M125.212,94.326c0-.441-.184-.558-.553-.558a1.755,1.755,0,0,0-.485.084v.39h-.67V93.5a2.568,2.568,0,0,1,1.167-.3c.782,0,1.278.274,1.278,1.122,0,.48-.017.882-.028,1.3h.33v.569h-.983v-.179a1.513,1.513,0,0,1,.039-.4H125.3a.935.935,0,0,1-.955.648.857.857,0,0,1-.977-.848.849.849,0,0,1,.586-.8,3.938,3.938,0,0,1,1.261-.134Zm-.229.62c-.636,0-.838.134-.838.385,0,.173.123.352.43.352s.625-.2.625-.737Z" transform="translate(-100.943 -76.596)" fill="#1b1819"/>
      <path id="Path_19786" data-name="Path 19786" d="M129.2,93.835h-.38v-.569h1.144a2.776,2.776,0,0,1-.045.6h.011a1.036,1.036,0,0,1,1.011-.67c.692,0,1.011.441,1.011,1.139v1.278h.335v.569h-1.435v-.569h.318v-1.2c0-.4-.212-.547-.508-.547-.475,0-.681.335-.681.776v.971h.334v.569h-1.4v-.569h.285Z" transform="translate(-103.249 -76.596)" fill="#1b1819"/>
      <path id="Path_19787" data-name="Path 19787" d="M136.061,94.342a.48.48,0,0,1,.525.5.525.525,0,0,1-1.049,0,.48.48,0,0,1,.525-.5m-.441-3.382h.882L136.435,94h-.748Z" transform="translate(-106.067 -75.664)" fill="#1b1819"/>
      <path id="Path_19788" data-name="Path 19788" d="M132.016,81.805h-.446v-.57H132.8v3.724h.334v.569h-1.1a2.253,2.253,0,0,1,.067-.564h-.011a1,1,0,0,1-.994.631,1.2,1.2,0,0,1-1.19-1.334,1.554,1.554,0,0,1,1.63-1.72,1.9,1.9,0,0,1,.48.067v-.8m-.023,1.479a1.251,1.251,0,0,0-.5-.107c-.564,0-.776.447-.776.9s.218.848.6.848a.731.731,0,0,0,.676-.815Z" transform="translate(-103.707 -71.613)" fill="#1b1819"/>
      <path id="Path_19789" data-name="Path 19789" d="M137.546,83.474a1.394,1.394,0,0,1,1.536,1.558,1.44,1.44,0,0,1-1.536,1.5,1.38,1.38,0,0,1-1.535-1.5,1.5,1.5,0,0,1,1.535-1.558m0,2.418c.481,0,.687-.319.687-.843,0-.626-.206-.938-.687-.938s-.687.407-.687.938.207.843.687.843" transform="translate(-106.282 -72.546)" fill="#1b1819"/>
      <path id="Path_19790" data-name="Path 19790" d="M144.138,83.118h-.379v-.569h1.161V84.9h.335v.57H143.82V84.9h.319V83.118m.363-2.026a.487.487,0,1,1-.525.486.475.475,0,0,1,.525-.486" transform="translate(-109.571 -71.554)" fill="#1b1819"/>
      <path id="Path_19791" data-name="Path 19791" d="M147.208,82.524l.781-.045v.648h.781V83.7h-.781V85c0,.413.106.513.43.513a1.114,1.114,0,0,0,.379-.089l-.028.553a2.035,2.035,0,0,1-.68.139c-.575,0-.882-.268-.882-.782V83.7h-.4v-.569h.4v-.6" transform="translate(-110.843 -72.131)" fill="#1b1819"/>
      <path id="Path_19792" data-name="Path 19792" d="M150.227,88.844c.369-.291.447-.5.447-.692,0-.286-.307-.38-.307-.659a.443.443,0,0,1,.474-.457c.408,0,.615.39.615.77a1.622,1.622,0,0,1-.865,1.384l-.363-.345" transform="translate(-112.265 -74.029)" fill="#1b1819"/>
      <path id="Path_19793" data-name="Path 19793" d="M118,75.137l-.841.365-.353-.709-.71.525-.471-.754-.232.45-.938.013-.369.9-.675-.291a2.434,2.434,0,1,0,4.59-.5m-3.018,1.33a.315.315,0,1,1,.276-.348.314.314,0,0,1-.276.348m1.74-.2a.315.315,0,1,1,.275-.349.316.316,0,0,1-.275.349" transform="translate(-96.727 -68.834)" fill="#0e63a3"/>
      <path id="Path_19794" data-name="Path 19794" d="M113.588,74.748l.432.185.328-.805.957-.015.391-.76.578.929.736-.544.386.774.557-.242a2.431,2.431,0,0,0-4.365.478" transform="translate(-96.824 -68.231)" fill="#0e63a3"/>
      <path id="Path_19795" data-name="Path 19795" d="M112.582,81.512a2.432,2.432,0,0,0-2.731,1.97c.105.008.116-.007.147-.036a1.169,1.169,0,0,0,.121-.271,1.47,1.47,0,0,1,.869-.891,1.2,1.2,0,0,1,.656-.093,1.615,1.615,0,0,1,.876.464,1.955,1.955,0,0,0,.978.56.873.873,0,0,0,.687-.2l.183.235a1.172,1.172,0,0,1-.912.258,2.23,2.23,0,0,1-1.141-.639,1.331,1.331,0,0,0-.714-.386.893.893,0,0,0-.5.072c-.738.328-.635.747-.879,1.078a.446.446,0,0,1-.414.145,2.434,2.434,0,1,0,2.769-2.269m-1.34,2.764a.314.314,0,1,1,.356-.267.313.313,0,0,1-.356.267m1.735.245a.315.315,0,1,1,.355-.268.315.315,0,0,1-.355.268" transform="translate(-95.23 -71.718)" fill="#db3133"/>
      <path id="Path_19796" data-name="Path 19796" d="M112.627,68.29a1.7,1.7,0,0,1-1.528-.716,2.611,2.611,0,0,1-1.648,1.078,7.2,7.2,0,0,1-1.578.232,2.392,2.392,0,0,0,.083.773,2.435,2.435,0,1,0,4.7-1.291c-.007-.026-.017-.049-.025-.075m-3.077,1.246a.315.315,0,1,1,.22-.386.314.314,0,0,1-.22.386m1.689-.464a.315.315,0,1,1,.221-.387.314.314,0,0,1-.221.387" transform="translate(-94.411 -65.923)" fill="#e0452a"/>
      <path id="Path_19797" data-name="Path 19797" d="M109.4,67.653a2.094,2.094,0,0,0,1.563-1.156l.117-.357.16.341a1.108,1.108,0,0,0,.084.141,1.694,1.694,0,0,0,.272.314,1.328,1.328,0,0,0,.95.356,2.432,2.432,0,0,0-4.609.578c.083,0,.185-.009.3-.019a6.666,6.666,0,0,0,1.162-.2" transform="translate(-94.438 -65.21)" fill="#e0452a"/>
      <g id="Group_5223" data-name="Group 5223" transform="translate(11.411 5.539)">
        <path id="Path_19798" data-name="Path 19798" d="M106.9,74.241a2.435,2.435,0,1,0,2.289,2.571,2.434,2.434,0,0,0-2.289-2.571m.753.994a.315.315,0,1,1-.333.3.315.315,0,0,1,.333-.3m-1.749-.1a.315.315,0,1,1-.334.3.316.316,0,0,1,.334-.3m1.556,3.351a1.761,1.761,0,0,1-.813.13,1.789,1.789,0,0,1-.792-.221.539.539,0,0,1,.06-1.031,1.919,1.919,0,0,1,1.605.092.539.539,0,0,1-.06,1.03" transform="translate(-104.324 -74.237)" fill="#3d9445"/>
        <path id="Path_19799" data-name="Path 19799" d="M108.42,80.061a1.47,1.47,0,0,0-.656-.18,1.494,1.494,0,0,0-.672.1c-.17.078-.237.173-.239.239s.05.169.209.264a1.635,1.635,0,0,0,1.328.077c.17-.078.237-.173.237-.238s-.05-.169-.208-.264" transform="translate(-105.377 -76.587)" fill="#3d9445"/>
      </g>
      <path id="Path_19800" data-name="Path 19800" d="M120.793,80.415a2.435,2.435,0,1,0,2.864,1.911,2.435,2.435,0,0,0-2.864-1.911m1.141,1.348a.314.314,0,1,1-.247.369.315.315,0,0,1,.247-.369m-1.718.342a.315.315,0,1,1-.247.37.312.312,0,0,1,.247-.37m1.491,2.49H121.7a2,2,0,0,1-1.952-.767l.266-.193a1.587,1.587,0,0,0,2.855-.615h0l.312.1a2.015,2.015,0,0,1-1.474,1.473" transform="translate(-99.042 -71.252)" fill="#adbf3e"/>
      <path id="Path_19801" data-name="Path 19801" d="M124.5,72.015a2.435,2.435,0,1,0,2.728,2.1,2.437,2.437,0,0,0-2.728-2.1m1.481,2.918a.9.9,0,0,1-1.008-.776.86.86,0,0,1,0-.229c-.027-.035-.065-.062-.167-.06H124.8a.17.17,0,0,0-.128.11.9.9,0,1,1-.168-.275.467.467,0,0,1,.259-.131l.025,0a.467.467,0,0,1,.277.055.9.9,0,1,1,.913,1.308" transform="translate(-100.539 -67.764)" fill="#f0913b"/>
      <path id="Path_19802" data-name="Path 19802" d="M124.38,74.93a.6.6,0,1,0,.673.519.6.6,0,0,0-.673-.519" transform="translate(-101.141 -68.985)" fill="#f0913b"/>
      <path id="Path_19803" data-name="Path 19803" d="M127.85,74.481a.6.6,0,1,0,.673.519.6.6,0,0,0-.673-.519" transform="translate(-102.605 -68.798)" fill="#f0913b"/>
      <path id="Path_19804" data-name="Path 19804" d="M119.03,64.763a2.435,2.435,0,1,0,2.716,2.117,2.437,2.437,0,0,0-2.716-2.117m-.445,2.381a.315.315,0,1,1,.273-.351.315.315,0,0,1-.273.351m1.738-.216a.314.314,0,1,1,.274-.349.31.31,0,0,1-.274.349m-.96-.683,1.013,1.711-1.1.2-.053-.3.681-.124-1-1.686,1.6-.4.072.29Z" transform="translate(-98.222 -64.744)" fill="#724a32"/>
      <path id="Path_19805" data-name="Path 19805" d="M86.741,84.811h.675l-.056,1.268H84.569v-.57h.352v-2.77h-.352v-.569h1.519v.569h-.352v2.77H86.7Z" transform="translate(-84.569 -72.002)" fill="#1b1819"/>
      <path id="Path_19806" data-name="Path 19806" d="M90.673,85.452c.022.464.38.748.927.748a2.152,2.152,0,0,0,.945-.2l-.04.62a2.914,2.914,0,0,1-1.078.184,1.437,1.437,0,0,1-1.6-1.513,1.412,1.412,0,0,1,1.469-1.541c1.005,0,1.413.759,1.413,1.7H90.673m1.183-.536a.563.563,0,0,0-.592-.631c-.358,0-.564.234-.6.631Z" transform="translate(-86.758 -72.66)" fill="#1b1819"/>
      <path id="Path_19807" data-name="Path 19807" d="M95.561,82.8l.781-.045V83.4h.782v.569h-.782v1.3c0,.413.107.513.431.513a1.1,1.1,0,0,0,.379-.089l-.027.554a2.056,2.056,0,0,1-.681.139c-.575,0-.883-.268-.883-.782V83.97h-.4V83.4h.4v-.6" transform="translate(-89.04 -72.245)" fill="#1b1819"/>
      <path id="Path_19808" data-name="Path 19808" d="M98.947,82.991c.331-.261.4-.446.4-.623,0-.256-.276-.341-.276-.592a.4.4,0,0,1,.426-.413c.367,0,.553.352.553.693a1.461,1.461,0,0,1-.778,1.245l-.327-.311" transform="translate(-90.634 -71.667)" fill="#1b1819"/>
      <path id="Path_19809" data-name="Path 19809" d="M102.488,84.369a1.338,1.338,0,0,0-.453-.084c-.356,0-.525.146-.525.307,0,.14.04.2.263.229l.614.09c.67.095.949.352.949.882s-.363,1.011-1.379,1.011a3.912,3.912,0,0,1-1.151-.184V85.8h.7v.34a1.849,1.849,0,0,0,.52.095c.162,0,.569-.05.569-.357,0-.162-.1-.246-.441-.3l-.659-.1a.734.734,0,0,1-.726-.775c0-.721.681-.955,1.285-.955a3.57,3.57,0,0,1,1.134.195v.721h-.7v-.3" transform="translate(-91.407 -72.66)" fill="#1b1819"/>
    </g>
    <g id="Group_5225" data-name="Group 5225" transform="translate(73.011 46.722)">
      <path id="Path_19810" data-name="Path 19810" d="M76.857,48.3q-.242,0-.956.079c-.014.449-.026.862-.04,1.238a.169.169,0,0,1,.052.072.1.1,0,0,1,.033.032s0-.006.007-.006a4.094,4.094,0,0,0,.569-1.226c.013-.074.046-.111.1-.111a.692.692,0,0,1,.282.092c.131.061.2.109.2.144a.114.114,0,0,1-.072.1,1.739,1.739,0,0,0-.243.347,1.648,1.648,0,0,1,.55.295.272.272,0,0,1,.124.236c-.03.293-.09.439-.177.439a.561.561,0,0,1-.151-.165,2.57,2.57,0,0,0-.478-.543,1.392,1.392,0,0,1-.413.524c-.044.026-.083.048-.118.065q.289.308.819.787a6.877,6.877,0,0,0,1.572.865c.205.074.308.131.308.17,0,.056-.079.085-.236.085a14.223,14.223,0,0,1-1.487-.124q-.249-.026-.249-.157a.742.742,0,0,0-.268-.583q-.472-.433-.734-.642-.033,1.252-.033,1.848c0,.088,0,.168.007.243a1.953,1.953,0,0,1,.019.256c-.008.052-.07.078-.183.078-.192,0-.3-.034-.314-.1a.3.3,0,0,1,.019-.111,1.319,1.319,0,0,0,.007-.151l.019-2.064a8.415,8.415,0,0,0-.937.892.343.343,0,0,0-.15.209c-.014.053-.1.111-.263.177a2.027,2.027,0,0,1-.826.151c-.135,0-.2-.026-.2-.079A4.418,4.418,0,0,0,74.25,50.8a6.339,6.339,0,0,0,.74-.76c-.013-.013-.028-.031-.046-.053a2.281,2.281,0,0,0-.425-.459,1.379,1.379,0,0,1-.426.544.984.984,0,0,1-.328.164.064.064,0,0,1-.072-.072.894.894,0,0,1,.118-.223,3.63,3.63,0,0,0,.609-1.232c-.057.022-.107.044-.151.065q-.072,0-.19-.17a1.126,1.126,0,0,1-.124-.281c0-.048.041-.081.124-.1a5.711,5.711,0,0,0,.983-.164c.109-.018.225-.037.347-.059l.006-.878a.481.481,0,0,0-.046-.19.108.108,0,0,1,.046-.079.45.45,0,0,1,.243-.046,1.1,1.1,0,0,1,.275.046c.074.043.111.079.111.105a1,1,0,0,1-.033.2,3.65,3.65,0,0,0-.1.754,1.072,1.072,0,0,0,.171-.026,2.5,2.5,0,0,0,.721-.124.907.907,0,0,1,.3-.072q.111,0,.262.557c-.009.048-.053.072-.131.072Zm-1.6,1.369a.235.235,0,0,1,.138-.052l.013-1.173a5.46,5.46,0,0,0-.74.17c.039.013.08.029.124.046.123.061.184.109.184.144s-.026.065-.079.092a1.788,1.788,0,0,0-.262.393,1.488,1.488,0,0,1,.518.249A.253.253,0,0,1,75.258,49.669Z" transform="translate(-73.011 -46.759)" fill="#1a1818"/>
      <path id="Path_19811" data-name="Path 19811" d="M86.306,47.968a1.121,1.121,0,0,1,.321.059c.088.048.131.088.131.118a.3.3,0,0,1-.033.1,1.379,1.379,0,0,0-.072.393c-.018.232-.03.446-.039.642.358-.088.544-.131.557-.131.11.013.164.118.164.314,0,.11-.081.18-.243.21a.662.662,0,0,0-.19.092.564.564,0,0,1-.163.072.444.444,0,0,0-.151.079c-.013.292-.02.517-.02.674,0,.079,0,.151.007.216l.131-.046a3.679,3.679,0,0,0,.406-.216.124.124,0,0,1,.092-.06c.07,0,.113.146.131.439,0,.026-.059.064-.164.111a11.8,11.8,0,0,0-2.018.917c-.069.065-.12.1-.151.1a.859.859,0,0,1-.3-.23.5.5,0,0,1-.157-.268c0-.044.035-.076.105-.1q.295-.091.576-.19A3.434,3.434,0,0,0,85,49.8a.6.6,0,0,1-.1-.183q0-.111.4-.111c.21,0,.314.064.314.19a9.584,9.584,0,0,0,.124,1.409c.131-.044.261-.09.387-.138a.027.027,0,0,1,.006-.019,1.32,1.32,0,0,0,.007-.151l-.112-2.49a.427.427,0,0,0-.052-.19c0-.031.022-.062.066-.092A.476.476,0,0,1,86.306,47.968Zm1.389-.9a.971.971,0,0,1,.42.1.148.148,0,0,1,.105.138.581.581,0,0,1-.072.249,5.872,5.872,0,0,0-.158.95c-.026.271-.046.57-.059.9a5.669,5.669,0,0,1,.714-.544q.322-.209.367-.341c.048-.092.1-.137.158-.137s.133.069.229.209c.175.205.263.336.263.393,0,.022-.053.061-.158.118a7.271,7.271,0,0,1-1.277.518,2.693,2.693,0,0,1-.308.085q-.007.354-.006.753a1.211,1.211,0,0,0,.183.708.7.7,0,0,0,.622.288.779.779,0,0,0,.7-.275,3.162,3.162,0,0,0,.222-1.166c.009-.069.026-.105.053-.105.052,0,.1.107.151.321a2.055,2.055,0,0,1,.144.491,1.716,1.716,0,0,0,.105.694,2.144,2.144,0,0,1,.079.459q0,.06-.236.118a7.832,7.832,0,0,1-1.213.06,1.293,1.293,0,0,1-.72-.17,1.044,1.044,0,0,1-.354-.485,2.871,2.871,0,0,1-.151-.938q0-.747.033-1.612t.046-1.612C87.579,47.125,87.621,47.071,87.695,47.071Z" transform="translate(-77.817 -46.867)" fill="#1a1818"/>
      <path id="Path_19812" data-name="Path 19812" d="M97.2,48.994a.237.237,0,0,1,.19.118,1.449,1.449,0,0,0,.263.164.2.2,0,0,1,.1.183q0,.053-.079.105a1.362,1.362,0,0,0-.432.406.986.986,0,0,0-.165.491,1.32,1.32,0,0,0,.079.478.351.351,0,0,0,.307.2q.086,0,.236-.321a6.233,6.233,0,0,0,.4-1.245q.053,0,.053.105a3.813,3.813,0,0,1-.118.956,2.411,2.411,0,0,1-.216.708,2.3,2.3,0,0,0-.184.413c-.04.166-.085.249-.138.249-.118,0-.26-.112-.426-.334a2.158,2.158,0,0,1-.282-1.206,4.037,4.037,0,0,1,.288-1.238C97.093,49.07,97.135,48.994,97.2,48.994Zm.5-1.547c.04,0,.085.068.138.2a.937.937,0,0,0,.131.354,1.055,1.055,0,0,1,.183.491.154.154,0,0,1-.06.131.473.473,0,0,1-.2.046.625.625,0,0,1-.374-.144c-.1-.07-.157-.136-.157-.2a1.439,1.439,0,0,1,.157-.708C97.606,47.507,97.667,47.448,97.7,47.448Zm1.606.675c.048,0,.072.02.072.059a.957.957,0,0,1-.144.256.937.937,0,0,0-.177.42c0,.026-.009.048-.013.065q.406-.046,1.141-.2c.074-.009.142-.019.2-.033a3.767,3.767,0,0,1,.222-.471,3.62,3.62,0,0,0,.158-.433c.044-.118.1-.177.164-.177a1.052,1.052,0,0,1,.347.111q.151.1.151.2s-.011.011-.033.02a1.4,1.4,0,0,0-.347.334,1.75,1.75,0,0,1-.4.374c.236-.036.371-.053.406-.053a.929.929,0,0,1,.314.092c.145.065.216.131.216.2a.5.5,0,0,1-.086.209c-.026.079-.056.177-.091.295.074-.017.142-.034.2-.052a1.177,1.177,0,0,1,.367-.085q.111,0,.255.5c-.008.056-.05.085-.124.085l-.341-.033q-.164,0-.485.026-.059.216-.131.485l.092-.013q.072,0,.072.314c0,.043-.05.081-.151.111q-.622.105-1.068.151a9.4,9.4,0,0,0,.079,1.356,1.625,1.625,0,0,1,.039.321c0,.092-.05.138-.151.138a2,2,0,0,1-.557-.111,2.141,2.141,0,0,1-.6-.3,2.723,2.723,0,0,0-.432-.255q-.2-.125-.2-.2A.024.024,0,0,1,98.3,51.8a.336.336,0,0,1,.183.065A2.92,2.92,0,0,0,99.4,52c.145,0,.216-.06.216-.177v-.91c-.24.03-.513.072-.82.124-.048,0-.093-.05-.137-.15a.689.689,0,0,1-.039-.216c0-.057.034-.085.1-.085q.2-.007.892-.085v-.525a7.185,7.185,0,0,0-1.206.3c-.034,0-.083-.044-.144-.131a1.091,1.091,0,0,1-.092-.229c0-.04.033-.066.1-.079a6.713,6.713,0,0,0,1.205-.177c.044-.009.088-.015.131-.02a1,1,0,0,0-.059-.307.3.3,0,0,1-.058-.118.386.386,0,0,0-.06.006,3.517,3.517,0,0,1-.734.216c-.052,0-.078-.061-.078-.183q.026-.282.15-.314h.047l-.047-.026q-.288-.216-.288-.288c0-.026.036-.055.105-.086q.184-.1.524-.341A.4.4,0,0,1,99.3,48.123Zm1.651-1.232c.083,0,.152.131.209.393,0,.048-.029.076-.085.085a4.547,4.547,0,0,0-1.009.151.7.7,0,0,0-.407.354.763.763,0,0,1-.446.15,4.078,4.078,0,0,1-.708.1c-.065,0-.1-.018-.1-.052a9.932,9.932,0,0,1,1.114-.7,2.872,2.872,0,0,1,.878-.295A1.179,1.179,0,0,0,100.955,46.891Zm-.655.943c.052,0,.078.011.078.033a.189.189,0,0,1-.052.125q-.263.438-.354.616c-.022.066-.046.1-.072.1-.048,0-.113-.041-.2-.124a.63.63,0,0,1-.138-.275c0-.044.041-.076.124-.1C99.913,48.068,100.116,47.944,100.3,47.834Zm-.341,1.271a.623.623,0,0,1,.1.033c.088.03.131.068.131.111a.581.581,0,0,1-.072.249.316.316,0,0,1-.007.065q.3-.053.623-.1a.846.846,0,0,1,.1-.006,1.642,1.642,0,0,0,.046-.314c0-.123-.044-.183-.131-.183Q100.345,49.026,99.959,49.106Zm.131.813v.524l.525-.06c.053-.2.1-.373.131-.517-.192.013-.406.03-.642.053Z" transform="translate(-83.016 -46.792)" fill="#1a1818"/>
      <path id="Path_19813" data-name="Path 19813" d="M109.325,48.295a1.706,1.706,0,0,1,.229.092q1.042-.172,1.959-.269.669-.06,1.166-.059.774.065.787.209a.612.612,0,0,1-.124.2,3.329,3.329,0,0,0-.086.97l.026,1.92c0,.384,0,.716.013,1q.026.256.058.53a.145.145,0,0,1-.151.151.412.412,0,0,1-.229-.046,3.277,3.277,0,0,0-.407-.2,2.074,2.074,0,0,1-.511-.4q-1.029.073-2.078.216a1.833,1.833,0,0,0-.5.144.272.272,0,0,1-.183.085c-.079,0-.133-.158-.164-.472q.026-.786.026-3.329Q109.181,48.308,109.325,48.295Zm2.928,3.99a.827.827,0,0,0,.315.079c.1,0,.153-.074.171-.223q.065-.727.065-1.356,0-1.088-.072-2.176-.046-.229-.393-.229a11.135,11.135,0,0,0-2.588.4l-.1.026q-.091,1.087-.092,3.132.007.236.177.236l2.2-.177a.772.772,0,0,1,.236.092.3.3,0,0,1,.078.165Zm-.963-1.474c.035,0,.053.019.053.058s-.105.131-.314.275a5.358,5.358,0,0,1-.747.367,1.477,1.477,0,0,0-.2.092.175.175,0,0,1-.138.072c-.034,0-.085-.041-.15-.125a.306.306,0,0,1-.112-.19c0-.013.038-.029.112-.046q.2-.046.668-.2a5.072,5.072,0,0,0,.754-.288A.353.353,0,0,1,111.291,50.811Zm.636-1.822a.91.91,0,0,1-.014-.17.557.557,0,0,1,.053-.249.161.161,0,0,1,.086-.065.4.4,0,0,1,.1.176,1.32,1.32,0,0,0,.177.282.684.684,0,0,1,.118.334.075.075,0,0,1-.079.072,1.546,1.546,0,0,0-.3-.144.177.177,0,0,1-.039-.02v.039q0,.039-.131.079c-.118.036-.225.065-.321.092.013.166.035.361.066.583.03.205.061.383.091.53a6.749,6.749,0,0,0,.4-.9c.008-.065.033-.1.072-.1a.375.375,0,0,1,.177.079c.074.044.111.086.111.125a1.959,1.959,0,0,0-.262.478q-.229.432-.387.688a.289.289,0,0,0,.02.053,1.389,1.389,0,0,0,.183.334c.062.079.114.12.158.125s.088-.07.118-.183a5.851,5.851,0,0,0,.053-.61c0-.048.006-.072.019-.072s.046.03.059.092a1.54,1.54,0,0,1,.158.6,4,4,0,0,0,.072.622c0,.044-.037.068-.111.072a.746.746,0,0,1-.321-.111,1.175,1.175,0,0,1-.361-.314,2.116,2.116,0,0,1-.144-.236,2.144,2.144,0,0,1-.885.589,1.708,1.708,0,0,1-.308.047.065.065,0,0,1-.072-.047,6.161,6.161,0,0,0,1.048-1.022.016.016,0,0,0,.007-.013c-.035-.1-.07-.2-.105-.307s-.052-.223-.078-.38l-.026.026a1.8,1.8,0,0,0-.2.452c-.022.07-.044.109-.065.118a.229.229,0,0,1-.131-.053,1.38,1.38,0,0,0-.5.19q-.046.046-.072.046-.137-.006-.328-.373a1.155,1.155,0,0,1-.144-.387q0-.105.072-.105h.138a4.5,4.5,0,0,1,.74-.177q.19-.033.2-.033a.444.444,0,0,1,.229.092c.026.022.048.041.067.059q-.046-.216-.086-.492c-.123.026-.233.047-.334.06a5.252,5.252,0,0,0-.852.2c-.048,0-.093-.05-.137-.151a.668.668,0,0,1-.04-.223c0-.048.033-.072.1-.072q.23-.019,1.2-.2l-.026-.144c-.031-.158-.061-.291-.092-.4a.164.164,0,0,1,.131-.052c.263.034.393.081.393.137a2.736,2.736,0,0,0-.026.387Q111.73,49.022,111.927,48.99Zm-1.474,1.56a1.391,1.391,0,0,0,.334-.125.074.074,0,0,0,.053-.046.582.582,0,0,0,.026-.17c0-.083-.026-.125-.079-.125a.883.883,0,0,0-.262.059c-.14.053-.21.1-.21.144C110.324,50.461,110.369,50.549,110.452,50.549Z" transform="translate(-88.209 -47.279)" fill="#1a1818"/>
      <path id="Path_19814" data-name="Path 19814" d="M121.418,47.895q.426.144.426.262a.132.132,0,0,1-.079.111,3.254,3.254,0,0,0-.347.4,1.435,1.435,0,0,0-.124.537,1.631,1.631,0,0,0,.151.5,1.133,1.133,0,0,1,.111.341.584.584,0,0,1-.072.255,5.3,5.3,0,0,0,.589-.576,2.319,2.319,0,0,0-.256-.38.261.261,0,0,1-.1-.065,1.421,1.421,0,0,1-.217.118.069.069,0,0,1-.078-.078q.282-.406.61-.976a3.316,3.316,0,0,0,.307-.623c.018-.034.064-.053.138-.053a.651.651,0,0,1,.21.092.557.557,0,0,1,.124.17.1.1,0,0,1-.006.033c.074,0,.149-.006.223-.006a1.677,1.677,0,0,1,.426.052c.083.026.124.06.124.1a.135.135,0,0,1-.086.131c-.043.048-.085.1-.124.151a1.563,1.563,0,0,0,.17.092,2.073,2.073,0,0,1,.459.334,1.324,1.324,0,0,0,.367-.6c0-.074-.046-.111-.138-.111a.62.62,0,0,0-.3.151c-.044.044-.072.066-.086.066-.034,0-.085-.05-.151-.151a.613.613,0,0,1-.085-.165c0-.039.037-.065.1-.078.118-.013.3-.044.538-.092a1.879,1.879,0,0,1,.274-.019,1.639,1.639,0,0,1,.355.053c.117.053.177.107.177.163,0,.031-.046.1-.138.2a8.551,8.551,0,0,0-.563.708.992.992,0,0,1-.085.1,4.658,4.658,0,0,1,.465.5,1.757,1.757,0,0,0,.714.425,1.218,1.218,0,0,1,.465.275c0,.044-.065.076-.2.1a3.974,3.974,0,0,1-.642.079.626.626,0,0,1-.38-.079c-.052-.026-.078-.094-.078-.2a.728.728,0,0,0-.184-.413q-.689-.774-.95-.819c-.157-.022-.236-.085-.236-.19a1.114,1.114,0,0,1,.007-.131,1.964,1.964,0,0,0-.158.275q-.249.432-.512.806a8.351,8.351,0,0,0,1.173-.092l.17-.019c.039.009.083.116.131.321q-.007.039-.086.053a8.043,8.043,0,0,1-.97.19,2.647,2.647,0,0,0-.42.072c-.039,0-.072-.083-.1-.249,0-.043-.008-.082-.013-.118a2.481,2.481,0,0,1-.236.288,2.221,2.221,0,0,1-.681.623,1.554,1.554,0,0,1-.623.137c-.053,0-.079-.017-.079-.053s.064-.074.191-.157c.087-.061.174-.124.262-.19a.21.21,0,0,1-.1-.039,2.39,2.39,0,0,0-.314-.138,1.526,1.526,0,0,1-.328-.295q-.046,1.494-.046,2.1c0,.078,0,.146.007.2a1.79,1.79,0,0,1,.019.223c-.009.036-.063.053-.164.053-.153,0-.237-.026-.256-.079a.171.171,0,0,1,.019-.085.965.965,0,0,0,.007-.125l.026-3.912a.476.476,0,0,0-.026-.151.093.093,0,0,1,.04-.072.33.33,0,0,1,.19-.04.676.676,0,0,1,.157.02A3.862,3.862,0,0,1,121.418,47.895Zm-.767.583a2.753,2.753,0,0,0-.058.524c-.009.258-.018.5-.026.721a1.98,1.98,0,0,0,.465.17c.07,0,.111-.053.124-.158a.918.918,0,0,0-.131-.373.906.906,0,0,1-.072-.282,1.019,1.019,0,0,1,.1-.4,1.1,1.1,0,0,0,.151-.288c0-.048-.034-.072-.1-.072a1.331,1.331,0,0,0-.282.065C120.761,48.421,120.7,48.452,120.651,48.478Zm1.893,2.72a.113.113,0,0,1,.026.085c0,.013-.019.041-.058.085a1.482,1.482,0,0,0-.328.806c0,.053-.046.079-.138.079a.946.946,0,0,1-.426-.138c-.118-.078-.177-.138-.177-.177a4.491,4.491,0,0,1,.95-.662A.292.292,0,0,1,122.545,51.2Zm1.842-.314q-.21,0-.794.039a.561.561,0,0,1-.072.216,2.278,2.278,0,0,0-.026.347,3.141,3.141,0,0,0,.086,1,.284.284,0,0,1,.046.131c0,.074-.053.111-.158.111a1.18,1.18,0,0,1-.373-.085,1.518,1.518,0,0,1-.4-.216,1.91,1.91,0,0,0-.282-.2c-.088-.057-.131-.109-.131-.157v-.026a.162.162,0,0,1,.092.039.955.955,0,0,0,.432.1c.145,0,.216-.046.216-.137v-.7a1.047,1.047,0,0,0-.066-.367,6.807,6.807,0,0,0-.99.183c-.035,0-.079-.046-.131-.137a1.01,1.01,0,0,1-.1-.23c0-.039.037-.065.111-.079a6.708,6.708,0,0,0,.9-.111l.943-.105a2.949,2.949,0,0,0,.662-.085,1.12,1.12,0,0,1,.275-.046q.1,0,.229.5c-.008.031-.05.046-.124.046Zm-2.5-1.743a1.253,1.253,0,0,1,.321.144.212.212,0,0,1,.092.137c.083-.113.162-.225.236-.334l.013-.026a1.643,1.643,0,0,0-.354-.341q-.086.118-.177.236A.71.71,0,0,1,121.889,49.14Zm.439-.6a1.788,1.788,0,0,1,.406.138l.02.019a.972.972,0,0,0,.131-.36c0-.083-.082-.144-.249-.184C122.541,48.271,122.439,48.4,122.329,48.543Zm1.605,2.582a3.35,3.35,0,0,1,.767.288.3.3,0,0,1,.183.263q-.059.577-.183.576a.327.327,0,0,1-.236-.131,5.253,5.253,0,0,0-.5-.734.386.386,0,0,1-.124-.216C123.836,51.145,123.869,51.13,123.934,51.125Z" transform="translate(-92.834 -47.115)" fill="#1a1818"/>
      <path id="Path_19815" data-name="Path 19815" d="M132.818,50.49a.084.084,0,0,1,.046.079.311.311,0,0,1-.046.124,3.241,3.241,0,0,0-.269,1.166.087.087,0,0,1-.1.1,1.056,1.056,0,0,1-.465-.144q-.2-.132-.2-.2a5.012,5.012,0,0,1,.879-1.016C132.732,50.527,132.783,50.49,132.818,50.49Zm2.988-1.887q-.282,0-1.1.085-.019.459-.026.715.465-.066,1.068-.164.112,0,.112.367c0,.048-.064.089-.19.124a8.974,8.974,0,0,1-1.225.236,7.348,7.348,0,0,0-1.048.19q-.1,0-.19-.2a.816.816,0,0,1-.053-.281c0-.048.037-.072.111-.072q.2-.02.931-.124-.013-.283-.026-.728a5.4,5.4,0,0,0-1.376.373q-.086,0-.223-.177a1.32,1.32,0,0,1-.144-.314c0-.069.05-.113.151-.131a6.187,6.187,0,0,0,1.134-.19c.144-.022.293-.047.446-.072q-.013-.59-.026-1.4c0-.083.068-.125.2-.125.319,0,.479.06.479.177a2.131,2.131,0,0,0-.053.471q-.019.433-.033.78l.165-.026a3.032,3.032,0,0,0,.831-.144,1.144,1.144,0,0,1,.348-.078q.144,0,.341.649c-.009.057-.063.085-.164.085Zm-2.628,1.913a.726.726,0,0,1,.314.1.161.161,0,0,1,.111.144.508.508,0,0,1-.039.17,2.877,2.877,0,0,0-.013.3.48.48,0,0,0,.118.268,1.741,1.741,0,0,0,1.2.282,1.98,1.98,0,0,0,.78-.118.223.223,0,0,0,.158-.216.648.648,0,0,0-.118-.314,4.05,4.05,0,0,0-.433-.557.046.046,0,0,1,.053-.053,1.1,1.1,0,0,1,.525.3,1.819,1.819,0,0,1,.452.537,1.527,1.527,0,0,1,.2.5.691.691,0,0,0,.053.269.745.745,0,0,1,.026.176c0,.088-.033.131-.1.131a3.181,3.181,0,0,1-.413-.039q-.309-.02-1.095-.02a2.505,2.505,0,0,1-1.4-.288,1.042,1.042,0,0,1-.367-.826,4.006,4.006,0,0,0-.105-.636C133.08,50.554,133.113,50.516,133.178,50.516Zm.95-.125a.762.762,0,0,1,.164.026.689.689,0,0,0,.249.053,1.161,1.161,0,0,0,.478-.2.891.891,0,0,1,.288-.118c.048,0,.072.015.072.046s-.03.076-.091.137a3.8,3.8,0,0,0-.334.439.522.522,0,0,1-.361.268.757.757,0,0,1-.367-.157.823.823,0,0,1-.184-.42Q134.043,50.391,134.129,50.391Zm2.2-.524c.053,0,.088.046.105.125a.757.757,0,0,0,.452.511c.222.1.334.214.334.354,0,.074-.061.111-.184.111a2.737,2.737,0,0,1-.812-.15c-.162-.057-.243-.12-.243-.191a1.382,1.382,0,0,1,.151-.491C136.2,49.957,136.269,49.867,136.33,49.867Z" transform="translate(-97.745 -46.722)" fill="#1a1818"/>
      <path id="Path_19816" data-name="Path 19816" d="M147.589,48.744q.105.026.236.55c-.008.048-.061.081-.157.1q-.543.111-.983.183a2.449,2.449,0,0,0-.026.288q-.032,1.2-.039,1.6,1.009-.093,1.841-.165a1.778,1.778,0,0,1,.38-.039,2.329,2.329,0,0,0,.145.3,1.153,1.153,0,0,1,.144.432c-.013.075-.046.118-.1.131a1.535,1.535,0,0,1-.3-.1,1.339,1.339,0,0,0-.511-.118q-.9,0-2.444.124a13.441,13.441,0,0,0-2.018.275q-.1,0-.236-.55l.164-.059h.236l1.973-.17q.025-.557.038-1.855l-.15.013a4.743,4.743,0,0,0-.794.1c-.053,0-.1-.109-.137-.327-.022-.118-.035-.2-.04-.249a.106.106,0,0,1,.1-.111,10.691,10.691,0,0,0,2.347-.288A1.864,1.864,0,0,1,147.589,48.744Z" transform="translate(-102.728 -47.564)" fill="#1a1818"/>
      <path id="Path_19817" data-name="Path 19817" d="M156.512,48.069a.654.654,0,0,1,.165.046c.122-.018.294-.052.517-.1a12.232,12.232,0,0,1,2.044-.256,4.714,4.714,0,0,1,1.127.144c.209.07.314.127.314.17a.485.485,0,0,1-.086.184,1.771,1.771,0,0,0-.124.767l.019,2.234-.019,1.166.046.446c0,.131-.033.2-.1.209a.95.95,0,0,1-.334-.111,3.577,3.577,0,0,1-.9-.675q-.34.019-.76.072-.4.046-.734.065-.465.025-.97.1H156.7a.293.293,0,0,1-.119.026c-.1,0-.15-.1-.15-.288q0-2.581-.06-3.984C156.4,48.14,156.442,48.069,156.512,48.069Zm.38,3.965q.957-.085,1.54-.131a.018.018,0,0,0-.013-.007,1.139,1.139,0,0,1-.229-.209c-.07-.066-.1-.111-.1-.138s.018-.026.053-.026a.621.621,0,0,0,.288.111c.034,0,.053-.061.053-.184V51a.974.974,0,0,0-.112.006c-.179.03-.347.061-.5.092a1.164,1.164,0,0,0,.1.2.629.629,0,0,1,.065.249c0,.074-.037.111-.1.111a1.355,1.355,0,0,0-.2-.092c-.061-.013-.092-.087-.092-.222a.967.967,0,0,1,.019-.2,4.347,4.347,0,0,0-.445.144c-.03,0-.07-.037-.118-.111a.853.853,0,0,1-.085-.2c0-.039.033-.063.1-.072a5.186,5.186,0,0,0,.838-.124c.162-.022.337-.048.525-.079a.488.488,0,0,0-.039-.17,2.978,2.978,0,0,0-.78.158.932.932,0,0,1-.229.085q-.072,0-.1-.32c0-.013.009-.023.026-.026.218-.031.393-.057.524-.079a1.569,1.569,0,0,1,.236-.06.138.138,0,0,1,.019-.072,1.052,1.052,0,0,0,.007-.125,1.33,1.33,0,0,0-.289.079.431.431,0,0,1-.164.053q-.118-.006-.3-.42a1.446,1.446,0,0,1-.138-.445c0-.074.017-.111.053-.111l.124.026q.387-.1.681-.164l-.006-.184a4.18,4.18,0,0,0-.564.112c-.065,0-.1-.06-.111-.177a.142.142,0,0,1,.111-.137l.557-.1-.006-.19a.276.276,0,0,0-.033-.125c0-.018.015-.033.046-.046a.288.288,0,0,1,.163-.033.718.718,0,0,1,.191.033c.048.03.072.054.072.072a.291.291,0,0,1-.013.059.974.974,0,0,0-.02.158c.4-.075.609-.114.635-.118.057.008.085.081.085.216,0,.052-.046.085-.138.1a2.533,2.533,0,0,0-.5.1.492.492,0,0,0-.092.019q-.007.079-.007.158c.118-.017.221-.029.308-.033q.334-.059.347-.059a.47.47,0,0,1,.269.111c.087.074.131.139.131.2,0,.017-.022.041-.065.072a2.209,2.209,0,0,0-.288.551c-.031.083-.063.131-.1.144a.3.3,0,0,1-.151-.053c-.179.026-.336.05-.471.072v.2l.1-.013a.521.521,0,0,0,.295-.124.34.34,0,0,1,.184-.059.438.438,0,0,1,.348.19.387.387,0,0,1,.124.223c0,.074-.028.111-.085.111a1.279,1.279,0,0,1-.393-.065c-.065-.057-.1-.1-.1-.124l.052-.007q.151-.019.177-.072c-.013-.118-.054-.18-.124-.183a.29.29,0,0,0-.262.216v.026h.006a.189.189,0,0,1,.065.157v.138a2.812,2.812,0,0,0,.59-.085.9.9,0,0,1,.249-.053c.057,0,.12.123.19.367-.008.048-.044.072-.1.072l-.263-.026c-.123,0-.342.015-.662.046v.616a1.779,1.779,0,0,1-.02.282c.319-.03.494-.048.525-.053.087.013.131.109.131.289a.139.139,0,0,1-.046.111,2.468,2.468,0,0,0,.413.105q.039,0,.06-.426.018-1.016.019-3.2,0-.623-.445-.623a7.366,7.366,0,0,0-1.383.144,9.855,9.855,0,0,0-1.141.289c0,.078-.011.177-.019.295q-.059,1.389-.059,2.942a2.769,2.769,0,0,0,.02.282Zm.871-2.1a2.138,2.138,0,0,0,.367-.053l-.006-.151a1.637,1.637,0,0,0-.275.065c-.044,0-.072-.05-.085-.151a.115.115,0,0,1,.085-.111c.1-.018.186-.035.269-.053l-.006-.151q-.472.124-.472.229Q157.652,49.931,157.763,49.931Zm.7-.674c0,.056-.006.107-.006.15.158-.03.242-.048.256-.052q.079.013.079.151,0,.079-.105.105c-.074.013-.153.03-.236.053v.151c.092-.018.2-.04.314-.066a.133.133,0,0,0,.092-.085.649.649,0,0,0,.065-.282c0-.109-.029-.163-.085-.163A2.221,2.221,0,0,0,158.465,49.256Z" transform="translate(-108.082 -47.152)" fill="#1a1818"/>
    </g>
  </g>
</svg>
