<svg xmlns="http://www.w3.org/2000/svg" xmlns:xlink="http://www.w3.org/1999/xlink" width="417" height="108" viewBox="0 0 417 108">
  <defs>
    <clipPath id="clip-path">
      <rect id="Rectangle_682" data-name="Rectangle 682" width="417" height="108" transform="translate(123 367)" fill="none" stroke="#707070" stroke-width="1"/>
    </clipPath>
  </defs>
  <g id="Mask_Group_69" data-name="Mask Group 69" transform="translate(-123 -367)" clip-path="url(#clip-path)">
    <g id="mountains_left" transform="translate(-1 -9)">
      <path id="Path_160" data-name="Path 160" d="M685.632,260.515c-.258-2.746-3.256-1.7-3.5-5.342-3.723-2.065-7.879.143-11.211-1.048-2.419-5.7-.962-7.331-5.789-8.089-3.037-.478-7.359-.36-10.125-2.885-1.737-1.585-1.085-3.013-3.266-4.539-1.451-1.014-3.454-1.091-4.972-2.151-3.077-2.146-5.661-6.24-8.552-8.684-2.585,2.586-5.419,4.954-7.847,8-1.3,1.629-2.378,4.08-3.982,4.209-1.763.142-1.794-4.087-4.875-2.921-.744-2.165-2.155-3.973-4.132-4.059-.072-.45-.147-.9-.225-1.343-1.643-.2-1.566.123-3.149-.794a21.738,21.738,0,0,1-2.531,6.064c-.5-.18-1.011-.35-1.5-.576-.624,3.128-4.222,10.717-6.089,12.41-2.89,2.623-8.684-2.378-10.624,3.792-1.8.328-1.413.658-2.521,2.305.422.282,1.047.977,1.562,1.349-7.32,1.874-13.055,8.487-17.268,15.9-2.119.793-3.982-.394-5.883.155-1.727.5-2.8,2.22-4.717,2.505a23,23,0,0,1-8.1-.525c-5.637-.613-8.89,1.566-13.1,7.859-2.093-.1-5.292,1.924-6.36,4.874-3.037,2.027-7.149-.448-10.627.8-.073-.453-.147-.908-.227-1.359-2.333,2.043-5,1.6-7.279,3.468-1.5-.279-2.27-.5-2.987-2.448a4.383,4.383,0,0,1-1.7-1.8c-2.89,1.009-2.069-2.407-.515-4.69-3.569,2.352-3.955-2.614-6.3-3.841-2.635-1.377-4.855,1.6-6.6-.851-2.569,8-4.713,10.768-10.842,13.286-2.41.989-7.2.433-8.917,1.42-3.235,1.855-2.546,5.074-7.011,2.5-.881,2.928-2.737,3.571-4.258,5.846H728.925C721.9,297.552,713.877,296.5,716.3,284.1a22.392,22.392,0,0,0-10.576,1.331c-1.629-4.85-6.384-6.094-8.59-10.991.635-1.482.4-2.651,1.511-3.91-1.241-5.121-16.451-.823-13.016-9.235Z" transform="translate(-238.812 185.224)" fill="#90aeb3"/>
      <path id="Path_159" data-name="Path 159" d="M613.587,244.6c-.172-1.412-2.17-.872-2.333-2.746-2.481-1.062-5.251.074-7.472-.539-1.612-2.929-.641-3.768-3.858-4.157-2.024-.246-4.905-.185-6.748-1.483-1.158-.814-.723-1.549-2.177-2.333-.967-.521-2.3-.561-3.314-1.105-2.051-1.1-3.773-3.207-5.7-4.464a58.792,58.792,0,0,0-5.23,4.112c-.866.837-1.585,2.1-2.654,2.163-1.175.073-1.2-2.1-3.249-1.5a3.2,3.2,0,0,0-2.754-2.086c-.048-.231-.1-.461-.15-.69a4.183,4.183,0,0,1-2.1-.408,9.984,9.984,0,0,1-1.687,3.117c-.334-.093-.674-.18-1-.3-.416,1.608-2.814,5.508-4.058,6.378-1.926,1.348-5.788-1.222-7.081,1.949-1.2.168-.942.338-1.68,1.185.281.145.7.5,1.041.693-4.879.963-8.7,4.362-11.509,8.175-1.412.408-2.654-.2-3.921.079-1.151.257-1.863,1.141-3.144,1.288a19.765,19.765,0,0,1-5.4-.27c-3.757-.315-5.925.8-8.73,4.039a5.078,5.078,0,0,0-4.239,2.505c-2.024,1.042-4.765-.23-7.083.41-.049-.233-.1-.467-.151-.7-1.555,1.05-3.335.822-4.851,1.783-1-.144-1.513-.256-1.991-1.258a2.654,2.654,0,0,1-1.13-.926c-1.926.518-1.379-1.237-.343-2.41-2.379,1.209-2.636-1.344-4.2-1.974-1.756-.708-3.236.822-4.4-.437-1.712,4.114-3.141,5.535-7.226,6.829-1.606.508-4.8.222-5.943.73-2.156.954-1.7,2.608-4.673,1.285-.587,1.5-1.824,1.835-2.838,3H642.441c-4.684-.906-10.029-1.447-8.412-7.818a19.056,19.056,0,0,0-7.049.684c-1.086-2.493-4.255-3.132-5.725-5.649.423-.762.269-1.363,1.007-2.009-.827-2.632-10.964-.423-8.675-4.747Z" transform="translate(-99.028 220.224)" fill="#90aeb3"/>
      <path id="Path_161" data-name="Path 161" d="M532.145,325.13c.144-.54,2.588-.2,2.62-1,2.8-.841,7.211-1.887,9.948-2.656a34.6,34.6,0,0,1,7.678-1.27c2.479-.1,4.756.536,5.2-3.138.424-3.483-.13-6.324,1.788-8.949.6-.82,1.436-1.412,2-2.165.713-.964,1.1-2.274,2-3.167,1.636-1.624,4.989-.767,6.993-.767,2.157,0,4.487,1.195,5.215-1.864.191-.808-.2-1.7.086-2.537.307-.913,1.008-.888,1.218-1.38.533-1.258.918-2.158.162-3.479,1.388-1.472,2.078,1.817,3.16,2.3.227-3.383,2.231-.886,3.383-.531,1.7.527,4-.869,5.239-.3.854-1.437.237-3.178,1.767-4.029a2.717,2.717,0,0,1,.659,3.511c1.186,1.857,6.4,3.012,6.661-.391.827.408,1.462,1.7,2.143,2.333,2.061-3.9,4.653-.788,7.6-1.253-.117-3.1,2.348-1.046,3.37-.533.859.433,1.92,1.444,2.874,1.281,1.128-.189,1.023-1.515,1.871-1.813,1-.352,3.562,1.584,4.746,1.924,1.385.4,4.473,1.417,5.628-.126-.3-.484-.216-1.338-.353-1.769.629-.184.735-.471,1.217-.89,1.091-.95.624-.631,1.655-.624a6.843,6.843,0,0,1,3.575,1.312c.754-3.244,1.745-4.1,3.893-4.9,1.85-.69,2.669-2.125,4.058-3.782-.834-1.487.3-2.742.268-4.311.9-.412,2.1.216,2.9.075a22.593,22.593,0,0,0,3.193-1.442c2.171-.955,2.668-2.458,3.893-4.84a35.055,35.055,0,0,0,2.695-7.09c.4-1.387,1.112-2.118,1-3.763-.1-1.458-1.345-2.512-.9-4.262,2.316.068,3.179-2.332,5.109-3.246,1.577-.748,3.512-1.154,4.873-2.339s2.072-3.062,3.656-3.931c1.657-.908,3.843-.338,5.149-2.649-.787-1.226.175-2.023.137-3.513,1.758-.273,3.189.417,4.677.06,2.24-.54,2.24-2.19,2.919-4.557a24.514,24.514,0,0,1,1.906-4.846c1.246-1.845,2.945-1.4,4.613-2.053,1.779-.7,1.862-.948,2.957-2.966.9-1.657,1.563-4.031,3.182-4.572.754-.254,1.665.4,2.4-.1,1.513-1.027.317-1.507.913-3.038a15.9,15.9,0,0,1,2.509-4.266c1.165.485,2.141,2.712,3.312,2.915,1.9.335,2.212-2.348,4.5-.971,1.545.935,2.86,2.619,4.352,3.761,1.736,1.33,3.521,2.074,5.253,3.449,3.132,2.486,2.8,6.7,4.8,10.157a7.778,7.778,0,0,0,4.627,3.187c2.209.746,2.9,1.706,4.612,3.868,2.347,2.955,4.986,5.035,6.861,8.5,2.034,3.768,4.005,6.987,7.456,8.46s6.46,3.931,9.97,5.489c1.862.825,2.44.61,3.632,2.686,1,1.743,1.649,3.512,2.626,5.329,1.808,3.358,5.782,4.173,8.743,5.955a52.9,52.9,0,0,0,9.017,4.063c1.707.631,4.108,2.349,5.781,1.048,1.478,2.158,3.121,4.014,4.6,6.161,1.5,2.176,3.164,5.687,4.941,7.246a6.953,6.953,0,0,0,5.573,1.361c1.114-.245,2.138-1.279,3.35-1.284,1.081,0,2.394,1.1,3.773.69,2-.592,3.254-3.744,5.323-4.858,2.609-1.4,4.415.242,6.966,2.179,2.976,2.258,2,4.555,2.949,8.166.607,2.3,3.68,4.69,5.487,3.793.436-3.239,3.1-3.644,4.374-1.172a18.077,18.077,0,0,1,.073,2.4c.054.419.674,1.158.759,1.564.281,1.324-.226,1.3.912,2.493,3.513,3.688,8.646,4.075,12.4,4.271,2.5.128,4.619,1.745,7.12,1.845a26.367,26.367,0,0,1,6.73,1.118c2.219.671,4.345,2.332,6.518,3.427.512.261,1.049.483,1.593.706H756.838a73.208,73.208,0,0,0-8.546,0Z" transform="translate(-410.229 160.172)" fill="#b4cdd1"/>
    </g>
  </g>
</svg>
