<svg xmlns="http://www.w3.org/2000/svg" xmlns:xlink="http://www.w3.org/1999/xlink" width="501" height="94" viewBox="0 0 501 94">
  <defs>
    <clipPath id="clip-path">
      <rect id="Rectangle_683" data-name="Rectangle 683" width="501" height="94" transform="translate(467.616 214.325)" fill="none" stroke="#707070" stroke-width="1"/>
    </clipPath>
    <linearGradient id="linear-gradient" x1="0.597" y1="2.754" x2="0.409" y2="-0.65" gradientUnits="objectBoundingBox">
      <stop offset="0" stop-color="#dfe9e6"/>
      <stop offset="0.5" stop-color="#bbd4df"/>
      <stop offset="0.854" stop-color="#a4bfb3"/>
    </linearGradient>
    <linearGradient id="linear-gradient-2" x1="0.502" y1="3.848" x2="0.499" y2="-0.231" gradientUnits="objectBoundingBox">
      <stop offset="0" stop-color="#dfe9e6"/>
      <stop offset="0.5" stop-color="#bbd4df"/>
      <stop offset="0.859" stop-color="#81a1a3"/>
    </linearGradient>
  </defs>
  <g id="mountains_right" transform="translate(-467.616 -222.325)">
    <g id="Mask_Group_70" data-name="Mask Group 70" transform="translate(0 8)" clip-path="url(#clip-path)">
      <path id="Path_160" data-name="Path 160" d="M685.632,262.4c-.258-2.9-3.256-1.794-3.5-5.651-3.723-2.185-7.879.152-11.211-1.109-2.419-6.027-.962-7.754-5.789-8.555-3.037-.506-7.359-.381-10.125-3.052-1.737-1.676-1.085-3.187-3.266-4.8-1.451-1.073-3.454-1.154-4.972-2.275-3.077-2.27-5.661-6.6-8.552-9.185-2.585,2.735-5.419,5.239-7.847,8.462-1.3,1.722-2.378,4.315-3.982,4.452-1.763.15-1.794-4.323-4.875-3.089-.744-2.29-2.155-4.2-4.132-4.293-.072-.476-.147-.948-.225-1.421-1.643-.21-1.566.131-3.149-.84a23.732,23.732,0,0,1-2.531,6.414c-.5-.191-1.011-.371-1.5-.609-.624,3.308-4.222,11.336-6.089,13.126-2.89,2.774-8.684-2.515-10.624,4.011-1.8.347-1.413.7-2.521,2.438.422.3,1.047,1.034,1.562,1.427-7.32,1.982-13.055,8.977-17.268,16.823-2.119.839-3.982-.417-5.883.164-1.727.53-2.8,2.348-4.717,2.65a21.786,21.786,0,0,1-8.1-.555c-5.637-.648-8.89,1.656-13.1,8.312-2.093-.1-5.292,2.035-6.36,5.155-3.037,2.144-7.149-.474-10.627.845-.073-.479-.147-.96-.227-1.437-2.333,2.161-5,1.691-7.279,3.669-1.5-.3-2.27-.527-2.987-2.59a4.531,4.531,0,0,1-1.7-1.906c-2.89,1.067-2.069-2.546-.515-4.96-3.569,2.488-3.955-2.765-6.3-4.063-2.635-1.457-4.855,1.693-6.6-.9-2.569,8.465-4.713,11.39-10.842,14.053-2.41,1.046-7.2.458-8.917,1.5-3.235,1.963-2.546,5.367-7.011,2.645-.881,3.1-2.737,3.777-4.258,6.183H728.925c-7.028-1.863-15.048-2.978-12.621-16.089a21.266,21.266,0,0,0-10.576,1.407c-1.629-5.13-6.384-6.446-8.59-11.625.635-1.568.4-2.8,1.511-4.135-1.241-5.416-16.451-.87-13.016-9.768Z" transform="translate(0 5.479)" fill="url(#linear-gradient)"/>
      <path id="Path_161" data-name="Path 161" d="M938.731,309.325a5.757,5.757,0,0,1-.329-1.716c-3.4-.72-6.812-.5-10.14-1.155a58.439,58.439,0,0,0-9.335-1.088c-3.014-.083-5.783.459-6.327-2.687-.516-2.983.158-5.416-2.174-7.664-.729-.7-1.747-1.209-2.428-1.854-.867-.825-1.341-1.948-2.432-2.713-1.99-1.391-6.066-.657-8.5-.657-2.623,0-5.455,1.023-6.341-1.6-.233-.692.239-1.46-.1-2.173-.374-.782-1.226-.761-1.481-1.182-.648-1.077-1.116-1.849-.2-2.98-1.688-1.26-2.527,1.556-3.843,1.97-.276-2.9-2.713-.759-4.114-.455-2.071.452-4.869-.744-6.371-.255-1.038-1.23-.288-2.722-2.149-3.451-1.163.752-1.769,1.963-.8,3.007-1.442,1.59-7.777,2.579-8.1-.335-1.005.35-1.778,1.455-2.606,2-2.506-3.338-5.658-.675-9.247-1.073.143-2.656-2.855-.9-4.1-.456-1.044.371-2.335,1.236-3.494,1.1-1.371-.162-1.244-1.3-2.275-1.553-1.217-.3-4.332,1.356-5.771,1.647-1.683.342-5.439,1.214-6.844-.108.363-.414.263-1.146.429-1.515a3.579,3.579,0,0,1-1.479-.762c-1.326-.813-.759-.54-2.012-.534a10.671,10.671,0,0,0-4.347,1.124c-.917-2.779-2.122-3.515-4.734-4.2-2.249-.591-3.245-1.82-4.935-3.239,1.014-1.274-.366-2.348-.326-3.693-1.1-.353-2.551.185-3.525.065a34.121,34.121,0,0,1-3.883-1.235c-2.639-.818-3.244-2.105-4.734-4.146a25.372,25.372,0,0,1-3.277-6.072c-.488-1.188-1.352-1.814-1.211-3.223.125-1.248,1.635-2.152,1.091-3.65-2.816.059-3.865-2-6.212-2.78-1.917-.641-4.27-.989-5.925-2s-2.519-2.623-4.446-3.367c-2.015-.777-4.672-.29-6.261-2.269.957-1.05-.213-1.733-.167-3.008-2.138-.234-3.877.357-5.687.051-2.723-.462-2.723-1.876-3.55-3.9a17.946,17.946,0,0,0-2.318-4.15c-1.515-1.58-3.581-1.2-5.609-1.758-2.164-.6-2.264-.812-3.595-2.54-1.091-1.419-1.9-3.452-3.87-3.916-.917-.218-2.024.345-2.918-.086-1.839-.879-.386-1.29-1.11-2.6a13.608,13.608,0,0,0-3.05-3.654c-1.416.416-2.6,2.323-4.027,2.5-2.314.287-2.69-2.011-5.466-.831-1.878.8-3.478,2.243-5.292,3.221-2.111,1.139-4.281,1.776-6.387,2.954-3.808,2.129-3.4,5.741-5.838,8.7-1.323,1.605-3.639,2.255-5.627,2.729-2.686.639-3.524,1.461-5.609,3.313-2.854,2.531-6.063,4.312-8.342,7.281-2.473,3.227-4.87,5.984-9.065,7.246-4.177,1.26-7.855,3.367-12.123,4.7-2.264.707-2.966.522-4.416,2.3-1.221,1.493-2,3.008-3.193,4.564-2.2,2.876-7.031,3.574-10.63,5.1a79.861,79.861,0,0,1-10.964,3.479c-2.075.54-4.995,2.012-7.029.9-1.8,1.848-3.794,3.437-5.6,5.277-1.829,1.864-3.847,4.87-6.008,6.206a11.279,11.279,0,0,1-6.776,1.166c-1.355-.21-2.6-1.1-4.074-1.1-1.314,0-2.911.939-4.588.591-2.435-.507-3.957-3.206-6.473-4.161-3.172-1.2-5.369.207-8.47,1.866-3.619,1.934-2.426,3.9-3.586,6.993-.738,1.972-4.474,4.017-6.672,3.248-.53-2.774-3.774-3.121-5.319-1-.194.263-.018,1.659-.089,2.053-.066.359-.819.992-.923,1.34-.342,1.134.275,1.115-1.109,2.135-4.272,3.158-10.513,3.49-15.073,3.658-3.041.11-5.616,1.494-8.657,1.58a44.5,44.5,0,0,0-8.183.957c-2.7.575-5.283,2-7.925,2.935-.623.224-1.275.414-1.937.6H670.331c3.479-.156,6.93-.129,10.392,0Z" transform="translate(33.271)" fill="url(#linear-gradient-2)"/>
    </g>
  </g>
</svg>
