<svg xmlns="http://www.w3.org/2000/svg" xmlns:xlink="http://www.w3.org/1999/xlink" width="140" height="30" viewBox="0 0 156.027 30">
  <defs>
    <linearGradient id="linear-gradient" x1="0.167" y1="0.474" x2="0.852" y2="0.709" gradientUnits="objectBoundingBox">
      <stop offset="0" stop-color="#0092e5"/>
      <stop offset="0.335" stop-color="#0064ae"/>
      <stop offset="0.627" stop-color="#004387"/>
      <stop offset="0.858" stop-color="#002f6e"/>
      <stop offset="1" stop-color="#002866"/>
    </linearGradient>
  </defs>
  <g id="Group_5122" data-name="Group 5122" transform="translate(-766.955 -405.381)">
    <g id="Group_5119" data-name="Group 5119" transform="translate(820.758 412.137)">
      <g id="Group_5118" data-name="Group 5118">
        <g id="Group_5117" data-name="Group 5117">
          <path id="Path_19466" data-name="Path 19466" d="M799.829,410.81v-2.482l2.077.179c.379.049.581.151.581.329,0,.125-.153.327-.4.581v1.393h9.9v2.077h-9.9v2.277H811.1v13.447a2.12,2.12,0,0,1-1.722,2.178,9.611,9.611,0,0,1-2.632.4l-.887-2.28,2.077-.049a.828.828,0,0,0,.884-.939V417.14H793.094V431.3h-2.28V415.164h9.015v-2.277h-10V410.81Zm.278,9.6-1.136.788h3.011l2-3.649,1.621.835c.228.129.355.256.355.355,0,.2-.153.355-.407.482l-1.315,1.976h2.71v1.9h-4.964v2.15h5.444v2h-5.444v3.442h-2.152v-3.442h-5.444v-2h5.444v-2.15h-5.065v-1.9h3.166a17.257,17.257,0,0,0-1.771-2.282l1.491-1.164A18.221,18.221,0,0,1,800.106,420.406Z" transform="translate(-789.826 -408.152)" fill="#005eb0"/>
          <path id="Path_19467" data-name="Path 19467" d="M813.407,408.636c.431.026.659.127.659.329,0,.153-.177.379-.506.685v16.432h6.432V413.421l2.228.153c.4.049.633.153.633.329,0,.125-.176.327-.48.581v16.434h-2.381v-2.583h-16.03v2.583h-2.381v-17.5l2.254.153c.4.049.635.153.635.329,0,.125-.179.327-.508.581v11.6h7.116V408.457Z" transform="translate(-773.928 -407.977)" fill="#005eb0"/>
          <path id="Path_19468" data-name="Path 19468" d="M825.173,408.662c.431,0,.659.1.659.3,0,.278-.2.532-.609.783v1.393a33.233,33.233,0,0,1-.379,5.241,23.489,23.489,0,0,0,3.214,6.029,30,30,0,0,0,7.347,6.632l-2.863,1.774a39.421,39.421,0,0,1-6.636-7.42,27.949,27.949,0,0,1-1.87-3.6c-.1.28-.179.532-.254.736a16.449,16.449,0,0,1-4.23,6.128,28.072,28.072,0,0,1-5.215,4.051l-2.077-1.875a29.368,29.368,0,0,0,4.912-3.392,15.041,15.041,0,0,0,3.924-4.99,22.467,22.467,0,0,0,1.75-9.318v-.809a15.26,15.26,0,0,0-.179-1.875Z" transform="translate(-759.487 -407.977)" fill="#005eb0"/>
          <path id="Path_19469" data-name="Path 19469" d="M846.368,421.9v1.774H843.1v1.393h2.277v1.774H843.1v2.176a2.331,2.331,0,0,1-.685,1.849c-.381.4-1.317.633-2.785.633l-.887-2.178h1.393a.711.711,0,0,0,.786-.708V426.84H834.29v-1.774h6.634v-1.393H823.6V421.9Zm0-7.518v3.646h-2.28v-1.976h-19.5v-1.67Zm-12.459-4.863v-1.266l2.077.151c.379.052.581.153.581.329,0,.153-.151.355-.4.609v.176h8.61v1.7h-8.61V412h7.14V413.6H826.769V412h7.14v-.786H825.3v-1.7Zm8.786,7.243v1.569h-6.709v.988h8.2v1.7H825.5v-1.7h8.205v-.988h-6.937v-1.569Zm-9.8,7.8v6.229h-2.153V430h-2.886v.685H825.68v-6.131Zm-2.153,3.675v-1.875h-2.886v1.875Zm7.417.783-1.494,1.291a14.22,14.22,0,0,0-1.873-2.178l1.367-1.188A15.5,15.5,0,0,1,838.162,429.016Z" transform="translate(-744.143 -408.253)" fill="#005eb0"/>
        </g>
      </g>
    </g>
    <g id="Group_5121" data-name="Group 5121" transform="translate(766.955 405.381)">
      <g id="Group_5120" data-name="Group 5120" transform="translate(4.265)">
        <path id="Path_19470" data-name="Path 19470" d="M772.061,413.674l-3.293-2.908.569-.647,3.39.593-2.2-1.941.548-.619,3.294,2.908-.588.666-3.322-.567,2.15,1.9Z" transform="translate(-768.768 -401.633)" fill="#dc000c"/>
        <path id="Path_19471" data-name="Path 19471" d="M775.669,409.6l-.8.541-.873-.614-1.456.981.256,1.03-.781.525-1.037-4.6.779-.527Zm-2.324-.529-1.414-1.012.419,1.682Z" transform="translate(-765.779 -403.28)" fill="#dc000c"/>
        <path id="Path_19472" data-name="Path 19472" d="M774.142,410.954l-1.423-4.154.819-.28,2.649,2.195-.948-2.776.779-.268,1.423,4.157-.844.289-2.6-2.138.927,2.71Z" transform="translate(-763.424 -404.991)" fill="#dc000c"/>
        <path id="Path_19473" data-name="Path 19473" d="M776.174,408.316l.868-.033a1.035,1.035,0,0,0,.28.656.929.929,0,0,0,.626.24.984.984,0,0,0,.656-.143.543.543,0,0,0,.242-.409.4.4,0,0,0-.075-.271.745.745,0,0,0-.308-.207c-.1-.045-.334-.12-.7-.235a2.358,2.358,0,0,1-.971-.492,1.136,1.136,0,0,1-.353-.906,1.156,1.156,0,0,1,.226-.616,1.193,1.193,0,0,1,.574-.412,2.188,2.188,0,0,1,.873-.1,1.848,1.848,0,0,1,1.223.435,1.28,1.28,0,0,1,.379.993l-.887-.014a.744.744,0,0,0-.216-.5.884.884,0,0,0-.551-.181,1.01,1.01,0,0,0-.614.122.327.327,0,0,0-.158.266.346.346,0,0,0,.118.273,2.364,2.364,0,0,0,.8.341,4.441,4.441,0,0,1,.939.372,1.244,1.244,0,0,1,.456.475,1.372,1.372,0,0,1-.115,1.4,1.244,1.244,0,0,1-.623.454,2.458,2.458,0,0,1-.962.1,1.889,1.889,0,0,1-1.254-.461A1.666,1.666,0,0,1,776.174,408.316Z" transform="translate(-758.752 -405.381)" fill="#dc000c"/>
        <path id="Path_19474" data-name="Path 19474" d="M778.142,409.813l1.383-4.169.84.278-.543,1.642,1.651.548.543-1.642.842.28-1.383,4.169-.842-.28.607-1.823-1.651-.543-.6,1.821Z" transform="translate(-756.09 -405.026)" fill="#dc000c"/>
        <path id="Path_19475" data-name="Path 19475" d="M783.564,412.032l-.8-.539.237-1.042-1.458-.979-.856.626-.781-.525,3.87-2.691.779.522Zm-.391-2.352.409-1.691-1.4,1.023Z" transform="translate(-753.707 -403.352)" fill="#dc000c"/>
        <path id="Path_19476" data-name="Path 19476" d="M781.723,411l3.312-2.884.569.649-1.035,3.284,2.214-1.927.541.621-3.312,2.884-.586-.67,1-3.216-2.162,1.882Z" transform="translate(-751.247 -401.688)" fill="#dc000c"/>
      </g>
      <path id="Path_19477" data-name="Path 19477" d="M785.14,416.319l-2.713-2.926-15.472,16.7h1.9l13.576-14.658,2.713,2.922,6.6-7.123,17.477,18.86H811.1l-19.363-20.9Z" transform="translate(-766.955 -400.226)" fill="#005eb0" fill-rule="evenodd"/>
      <path id="Path_19478" data-name="Path 19478" d="M792.03,419.142l-6.007-6.485-6.36,6.861-2.72-2.939-8.174,8.823h35.343l-8.934-9.652Z" transform="translate(-764.502 -395.54)" fill="url(#linear-gradient)"/>
    </g>
  </g>
</svg>
