<svg xmlns="http://www.w3.org/2000/svg" width="448.09" height="197.234" viewBox="0 0 448.09 197.234">
  <g id="ocean_logo" transform="translate(-730 -195.01)">
    <path id="Path_19700" data-name="Path 19700" d="M9.105-14.4a.711.711,0,0,1,.39.205A5.778,5.778,0,0,1,10.746-12.9q0,.287-.164.287h-7.1a9.384,9.384,0,0,0-1.989.164,7.536,7.536,0,0,0-.308-.861,15.773,15.773,0,0,0,2.3.144H5.865a3.012,3.012,0,0,1-.7-.9,5.689,5.689,0,0,0-1.312-1.641A.269.269,0,0,0,4-15.935q2.81.267,2.912,1.641a2.478,2.478,0,0,1-.082.677.677.677,0,0,1-.431.451H7.978q.472-.615.9-1.087Q9.023-14.4,9.105-14.4Zm.554,4.635a.836.836,0,0,1,.369.205,4.937,4.937,0,0,1,1.251,1.313q0,.246-.144.246H3.261a9.64,9.64,0,0,0-2.03.164q-.1-.349-.287-.841a15.962,15.962,0,0,0,2.317.144H6.521a14.952,14.952,0,0,0,.841-3.876q2.522.923,2.522,1.21t-1.128.328A7.441,7.441,0,0,1,7.075-8.531H8.531a10.876,10.876,0,0,1,.9-1.087Q9.577-9.762,9.659-9.762ZM5.045-7.547q2.563.287,2.83.718,0,.287-.39.41-.554.267-.554.369V-4.8H7.957q.492-.677.943-1.21.164-.164.246-.164a.855.855,0,0,1,.431.226A6.8,6.8,0,0,1,10.91-4.553q0,.267-.164.267H6.932v1.251q2.912.39,3.015,1.846a2.484,2.484,0,0,1-.062.595.66.66,0,0,1-.656.451q-.39,0-1.148-1.025A5.733,5.733,0,0,0,6.932-2.5V2.728q0,.533-1.169.595-.677,0-.677-.349.041-2.276.041-4.9a9.778,9.778,0,0,1-4.1,3.65q-.082,0-.164-.246A11.237,11.237,0,0,0,4.245-3.589a3.7,3.7,0,0,0,.226-.7H3.65A8.373,8.373,0,0,0,1.661-4.1a6.827,6.827,0,0,0-.287-.841A15.281,15.281,0,0,0,3.65-4.8h1.5V-6.337Q5.065-7.034,5.045-7.547Zm10.315-.82H13.576v.431a24.046,24.046,0,0,1-.431,5.291A8.382,8.382,0,0,1,12.018.349,7.188,7.188,0,0,1,9.639,3.117a.387.387,0,0,1-.287-.185,13.807,13.807,0,0,0,1.723-4.122,28.821,28.821,0,0,0,.595-6.665q0-3.937-.041-4.86,0-.8-.062-1.825l1.907.841a9.3,9.3,0,0,0,4.061-2.112q2.338,1.6,2.338,1.866t-.431.267q-.882-.123-1.415-.185a16.318,16.318,0,0,1-4.491.7l.041,4.2h3.3a6.979,6.979,0,0,1,1.148-1.354.167.167,0,0,1,.123-.041,2.651,2.651,0,0,1,.841.615,3.573,3.573,0,0,1,.882,1q0,.328-.144.369H17.35v7.9q.082,1.313.082,3.22,0,.451-1.189.492-.964,0-.984-.308.1-1,.1-3.527ZM2.974-12.284q2.481.636,2.481,2.44a.892.892,0,0,1-.964.943q-.513,0-.677-.656a5.9,5.9,0,0,1-.123-.8,4.262,4.262,0,0,0-.185-.841,2,2,0,0,0-.656-.984Q2.974-12.243,2.974-12.284Zm38.378-3.568a2.2,2.2,0,0,1,.882.472q.82.595.82.82,0,.164-.349.349a2.547,2.547,0,0,0-.533.431v9.639q.041,4.963.1,6.686,0,.615-1.312.615-.513,0-.513-.431V2.133H26.832v.595q-.123.636-1.148.636-.636,0-.759-.205,0-4.471.082-8.736V-11.3a42.867,42.867,0,0,0-.164-4.348l1.846.718H40.265Q41.126-15.853,41.352-15.853ZM26.832,1.559H40.45V-14.376H26.832Zm11.648-13.7a2.171,2.171,0,0,1,.39.287q.984.861.984,1.087,0,.287-.205.287H36v.964a24.418,24.418,0,0,0,.472,3.773,15.145,15.145,0,0,0,.841-3.363q2.522.882,2.543,1.189-.021.164-.513.246l-.554.1a14.955,14.955,0,0,1-1.682,3.9,5.67,5.67,0,0,0,1.251,1.928q.492-.021,1.538-2.01.185.082.308.144a12.432,12.432,0,0,0-.882,2.543,3.545,3.545,0,0,0,.185.82,1.588,1.588,0,0,1,.287.841q-.041.41-.574.41Q37.7,1,36.348-1.887,36.2-2.112,36.1-2.3A9.974,9.974,0,0,1,31.057.82Q31.037.738,31,.595a12.364,12.364,0,0,0,4.471-4.286,22.071,22.071,0,0,1-1.087-6.788H30.893a9.754,9.754,0,0,0-2.994.267,9.8,9.8,0,0,0-.492-1.107,17.486,17.486,0,0,0,3.384.226h3.568v-.636a18.3,18.3,0,0,0-.185-2.5q2.625.513,2.625.8,0,.164-.246.226-.492.144-.533.267,0,1.107-.021,1.846h1.271q.287-.328.472-.533a.337.337,0,0,1-.1.021q-.349,0-.451-.779a4.445,4.445,0,0,0-.308-1,3.344,3.344,0,0,0-.431-.595.994.994,0,0,1,.123-.144,2.336,2.336,0,0,1,1,.431,1.5,1.5,0,0,1,.779,1.271.8.8,0,0,1-.041.287ZM28.165-9.023l1.374.533H31.3q.656-.9.9-.923a2.505,2.505,0,0,1,.882.513q.595.451.595.656a.437.437,0,0,1-.205.308,1.228,1.228,0,0,0-.431.39V-5.6q.082,1.128.082,1.456,0,.554-.82.554-.656,0-.7-.287V-4.2H29.745v.451q-.123.513-.9.513-.513,0-.615-.185,0-1.333.062-2.6v-1.7A4.549,4.549,0,0,0,28.165-9.023Zm1.579,4.286h1.866v-3.24H29.745Zm4.081,1.579a2.287,2.287,0,0,1,.164.308A17.915,17.915,0,0,1,28.9-.41q-.164.841-.39.841-.164,0-.431-.779-.287-.759-.595-1.907a9.682,9.682,0,0,0,1.8.123A12.971,12.971,0,0,0,33.826-3.158ZM62.442-15.483a3.5,3.5,0,0,1,1.189.656q.841.615.841.9,0,.226-.39.431a2.9,2.9,0,0,0-.656.492v2.317q.123,1.354.123,1.743,0,.738-1.189.759-.882,0-.923-.431v-.841H57.6a18.712,18.712,0,0,0,.677,3.63H62.2a7.046,7.046,0,0,1,1.333-1.6.253.253,0,0,1,.144-.041,3.541,3.541,0,0,1,.943.677,3.931,3.931,0,0,1,1.046,1.21q0,.287-.144.328H58.464a9.926,9.926,0,0,0,1.23,2.44A8.669,8.669,0,0,0,64.042.656Q64.616.513,65.19-2.83q.144.041.328.1a33.544,33.544,0,0,0-.185,3.4,2.633,2.633,0,0,0,.636,1.292.984.984,0,0,1,.205.574q0,.595-.923.636a3.85,3.85,0,0,1-1.436-.246,11.889,11.889,0,0,1-5.7-4.778A13.963,13.963,0,0,1,56.6-5.25H51.8V-.369q2.625-.369,5.353-.923a3.9,3.9,0,0,1,.164.369,37.169,37.169,0,0,1-7.588,2.994A2.748,2.748,0,0,0,49.481,3.1q-.041.349-.308.349-.349,0-1.169-1.8A7.282,7.282,0,0,0,47.348.1q1.23-.082,2.44-.226V-13.371q-.021-.7-.144-1.969,1.313.595,2.317,1.066h9.249Q62.094-15.463,62.442-15.483ZM56.433-5.824a16.087,16.087,0,0,1-.574-3.63H51.8v3.63ZM51.8-13.74v3.753h9.639V-13.74Zm27.222-2.215q2.851.574,2.851.984,0,.287-1.025.451a11.824,11.824,0,0,1-.718,1.559h5.845a6.924,6.924,0,0,1,1.23-1.456.253.253,0,0,1,.144-.041,3.309,3.309,0,0,1,.9.636,3.775,3.775,0,0,1,.964,1.128q0,.287-.144.328H79.821a12.271,12.271,0,0,1-1.784,2.522q2.81.451,2.81.738,0,.308-1.066.677V-6.87Q80.825-7.1,82.1-7.4v-2.728a8.746,8.746,0,0,1-.144-1.23q2.563.328,2.871.759,0,.246-.41.41-.554.267-.554.349v1.969q1.066-.267,2.235-.574.677-1.374,1.025-1.374,1.969.759,1.969,1.107,0,.287-.513.615a1.842,1.842,0,0,0-.369.349q-.062,4.553-.615,5.271a2.52,2.52,0,0,1-2.3,1.128q-.226-.062-.308-.615a1.394,1.394,0,0,0-.574-.861,3.071,3.071,0,0,0-.554-.287V-.923q0,.533-1.169.595-.677,0-.677-.349.062-2.789.082-6.091-1.333.349-2.317.615V.1q0,.841.943.9h5.25a1.529,1.529,0,0,0,1.477-.8,9.413,9.413,0,0,0,.718-2.379h.349V.185a.515.515,0,0,0,.349.451q.451.246.451.554-.062.923-1.743,1.21-1.682.164-3.425.164-3.507,0-4.471-.123Q78.1,2.358,78.1-.246V-5.681a8.936,8.936,0,0,0-1.436.451,5.154,5.154,0,0,0-.636-.984A12.052,12.052,0,0,0,78.1-6.5V-7.875A11.749,11.749,0,0,0,78-9.8a8.5,8.5,0,0,1-1.5,1.271q-.082-.185-.1-.226A9.75,9.75,0,0,0,77.36-10.4a.182.182,0,0,1-.082.021H74.653V-6.85a13.446,13.446,0,0,0,2.42-.738q.062.021.123.185a12.337,12.337,0,0,1-2.543,1.8V.574q0,2.646-1.969,2.646-.308,0-.349-.369A1.831,1.831,0,0,0,71.74,1.8a2.438,2.438,0,0,0-1.087-.492.8.8,0,0,0,.062-.349Q71.166,1,72.581,1q.308,0,.308-.554V-4.758q-.595.246-1.169.451,0,.636-.185.636-.123,0-.451-.615-.287-.574-.841-1.866Q71.7-6.3,72.889-6.48v-3.876a7.708,7.708,0,0,0-2.194.185,9.982,9.982,0,0,1-.431-1.107,19.025,19.025,0,0,0,2.625.267v-2.174a17.771,17.771,0,0,0-.144-2.687q2.646.451,2.871.779a.194.194,0,0,1-.164.205q-.205.082-.513.226-.287.164-.287.267v3.425h.185q.923-1.271,1.189-1.292.205,0,.82.7a3.326,3.326,0,0,1,.656.841A18.53,18.53,0,0,0,79.021-15.955ZM83.861-7.2v3.65a5.378,5.378,0,0,0,1.087.164q.964,0,1.107-.349a12.877,12.877,0,0,0,.369-4.122Q85.029-7.485,83.861-7.2ZM102.2-14.417q.123,0,.574.554a3.415,3.415,0,0,1,.472.718q0,.328-.246.349h-1.969l.041,2.871q-.041.492-1,.492-.759,0-.759-.349v-.369H98.88v2.112h1.21q.759-1.107,1.046-1.128a3.231,3.231,0,0,1,1.046.574,3.047,3.047,0,0,1,.595.554h2.748v-3.773h-.7a9.384,9.384,0,0,0-1.989.164,7.925,7.925,0,0,0-.287-.861,15.281,15.281,0,0,0,2.276.144h.7v-1.128a18.766,18.766,0,0,0-.123-2.42q3.158.472,3.158.82,0,.287-.39.369-.656.287-.677.492v1.866h1.046a15.317,15.317,0,0,1,1.046-1.271q.164-.185.267-.185a.851.851,0,0,1,.41.246,6.175,6.175,0,0,1,1.456,1.477q0,.287-.144.287h-4.081v3.773h1.538a6.05,6.05,0,0,1,1.128-1.312.177.177,0,0,1,.123-.062,2.819,2.819,0,0,1,.841.615,3.573,3.573,0,0,1,.882,1q0,.328-.144.369h-9.29a3.334,3.334,0,0,0-.554.431v1.887q.123,1.107.123,1.415,0,.656-1.025.677-.759,0-.8-.369V-3.9H98.88v2.461h1.271A6.78,6.78,0,0,1,101.4-2.769a.674.674,0,0,1,.164.021,3.233,3.233,0,0,1,.492.308q1.21,1.046,1.21,1.333t-.226.287H98.88V2.133q.021.369.021.779,0,.492-1,.492-.7,0-.738-.267V-.82H96.071a6.233,6.233,0,0,0-2.379.267A9.8,9.8,0,0,0,93.2-1.661a8.917,8.917,0,0,0,2.4.226h1.559V-3.9H95.907v.328q-.123.595-1.066.595-.595,0-.718-.205,0-1.333.082-2.584v-1.7a4.572,4.572,0,0,0-.144-1.292l1.887.718h1.21v-2.112H96.83v.226q-.021.492-.984.492-.759,0-.759-.349.021-1.6.021-2.974a6.072,6.072,0,0,0-1.579.144q-.185-.431-.39-1.087a12.861,12.861,0,0,0,1.969.205v-.984q-.021-.923-.082-1.415,2.646.431,2.646.718,0,.144-.349.308-.533.226-.533.349v1.107h2.563V-14.5q-.041-.923-.1-1.415,2.646.431,2.646.718,0,.144-.369.308-.513.226-.513.349l.021,1.128h.287Q102-14.417,102.2-14.417ZM96.83-10.705h2.5q.021-1.128.021-2.092H96.789Zm-.923,6.234h1.251V-7.485H95.907ZM98.88-7.485v3.015h1.436V-7.485Zm6.563.615q3.179.451,3.179.82,0,.308-.41.39-.656.246-.677.451v1.764H108.7a10.354,10.354,0,0,1,1.025-1.271q.164-.164.246-.164a.949.949,0,0,1,.451.226,5.878,5.878,0,0,1,1.436,1.5q0,.267-.164.267h-4.163V1.5h1.846A6.3,6.3,0,0,1,110.652.164a.674.674,0,0,1,.164.021,5.093,5.093,0,0,1,.472.328q1.21,1.025,1.21,1.313,0,.308-.205.308h-8.367a10.336,10.336,0,0,0-2.83.226,6.367,6.367,0,0,0-.513-1.066A15.15,15.15,0,0,0,103.6,1.5h1.969V-2.892h-.779a10.689,10.689,0,0,0-1.989.144q-.1-.349-.287-.841a15.281,15.281,0,0,0,2.276.144h.779V-4.471A18.56,18.56,0,0,0,105.443-6.87Zm16.968-9.023q4.368.431,4.512,2.42a2.272,2.272,0,0,1-.1.718.785.785,0,0,1-.8.574q-.554,0-1.538-1.292a7.82,7.82,0,0,0-2.194-2.153A.539.539,0,0,0,122.411-15.894Zm9.311,3.22a3.942,3.942,0,0,1,1.313,1.025q.9.882.9,1.292,0,.328-1.5.431a23.85,23.85,0,0,1-10.767,8.531,1.244,1.244,0,0,0,.185.267q1.066,1.559,6.173,1.6A45.968,45.968,0,0,0,135.454-.1l.1.472a1.538,1.538,0,0,0-1.025,1.087q0,.82-.349.82-1.887.041-5.5.041-4.655-.164-6.214-1.374A5.6,5.6,0,0,1,120.34-3.1a10.8,10.8,0,0,1-1.477,4.7,2.976,2.976,0,0,1,.328,1q-.082.287-.246.287a9.334,9.334,0,0,1-2.6-1.6,15.99,15.99,0,0,0,3.568-5.127.734.734,0,0,1,.451-.205q.513,0,.7,1.128a9.047,9.047,0,0,0,.349.964,25.794,25.794,0,0,0,5.332-4.122,26.446,26.446,0,0,0,3.671-4.819h-9.741q-1.62.062-2.379.144a3.393,3.393,0,0,0-.513-.984,22.11,22.11,0,0,0,3.343.267H130.2Q131.414-12.674,131.722-12.674Zm16.353-3.384q2.707.861,2.707,1.066,0,.39-1.066.513-.308.636-.595,1.21h6.152a7.724,7.724,0,0,1,1.23-1.477.454.454,0,0,1,.144-.021,2.72,2.72,0,0,1,.9.656,4.239,4.239,0,0,1,.964,1.087q0,.328-.144.369h-9.577a13.364,13.364,0,0,1-1.128,1.62q.923.41,1.313.615h5.6q.882-1.025,1.107-1.046a2.051,2.051,0,0,1,.943.574q.82.656.82.943a.359.359,0,0,1-.267.349q-.308.287-.513.513-.144,1.989-.267,3.548h.041q.779-1.661,1-1.661.164,0,.636.861a4.343,4.343,0,0,1,.554,1.066q0,.328-.226.349H156.36q-.246,3.056-.431,4.327h.185q.8-1.518,1.046-1.6.164,0,.9.964a2.929,2.929,0,0,1,.615.923q0,.267-.164.267h-2.687a.8.8,0,0,1-.062.246q-.513,2.625-2.338,3.138a.435.435,0,0,1-.492-.39q0-.595-1-1.189a6.866,6.866,0,0,0-1.456-.595,2.814,2.814,0,0,0,.021-.349,23.037,23.037,0,0,0,2.707.226q.533,0,.841-1.087h-6.316a3.32,3.32,0,0,1-.164.82q-.1.369-.943.369-1.128,0-1.128-.349.574-3.3.943-5.681a6.378,6.378,0,0,0-1.62.144q-.164-.431-.39-1.087a14.873,14.873,0,0,0,2.112.226q.492-3.22.636-4.86a10.6,10.6,0,0,1-1.538,1.354,3.274,3.274,0,0,0-.349-.205A16.247,16.247,0,0,0,148.075-16.058ZM147.829-.595h6.337a.336.336,0,0,0,.021-.082,28.382,28.382,0,0,0,.492-4.245h-6.3Q148.034-2.03,147.829-.595Zm.636-4.942h6.255q.123-1.866.205-4.368h-5.906Q148.71-7.424,148.464-5.537Zm2.81-3.322q2.133.123,2.133,1.62,0,.615-.41.738a.879.879,0,0,1-.308.062q-.246,0-.841-.636A4.765,4.765,0,0,0,149.9-8.613a2.432,2.432,0,0,1,.062-.267Q150.166-8.859,151.274-8.859Zm-.615,4.7q2.44.185,2.44,1.989-.021.615-.431.759a1.272,1.272,0,0,1-.308.041q-.287,0-.923-.738a5.191,5.191,0,0,0-2.194-1.8q.041-.123.082-.267Q149.551-4.163,150.659-4.163Zm-5.6-6.07q0,.082.328.123Q144.834-8.1,143.85-4.8a26.049,26.049,0,0,0-.9,3.712,8.271,8.271,0,0,0,.226,1.723,6.6,6.6,0,0,1,.308,1.456q0,.964-1.066.964a1.138,1.138,0,0,1-1.292-1.23q0-.492.185-2.153,0-1.025-.472-1.312a4.134,4.134,0,0,0-1.066-.41,2.059,2.059,0,0,1,.062-.369q.308,0,.574.021a1.763,1.763,0,0,0,1.7-1.128Zm-4.286-4.614q3.281.287,3.384,1.518a2.667,2.667,0,0,1-.1.82.918.918,0,0,1-.923.677q-.349,0-1.025-1.025a5.426,5.426,0,0,0-1.5-1.682A.516.516,0,0,0,140.774-14.848Zm-1.025,4.9q2.892.267,2.994,1.518a2.922,2.922,0,0,1-.1.82.974.974,0,0,1-.943.656q-.308,0-.841-1.025a5.514,5.514,0,0,0-1.271-1.661A.516.516,0,0,0,139.748-9.946Zm40.08-5.147a2.654,2.654,0,0,1,.779.554,3.332,3.332,0,0,1,.8.943q0,.287-.164.328H166.027l.021,3.486q0,1.866-.062,3.281a17.317,17.317,0,0,0,3.466-2.215,15.132,15.132,0,0,0,2.522-2.687H168.18a6.3,6.3,0,0,0-.923.144,4.26,4.26,0,0,0-.513-.984,18.566,18.566,0,0,0,3.363.308h1.7q.984-1.128,1.21-1.128a3.157,3.157,0,0,1,1.046.82q.738.718.738,1.046,0,.164-.349.246.328.308.656.574a4.31,4.31,0,0,0,1.5-2.051q1.948.718,1.948.923-.021.226-.9.246a7.493,7.493,0,0,1-2.256,1.107,9.382,9.382,0,0,0,1.579.984,5.7,5.7,0,0,0,1.866-2.153q.41.287,1.374.82.513.328.513.451-.021.164-.287.164a3.852,3.852,0,0,0-.636.062,11.721,11.721,0,0,1-1.374.656,7.231,7.231,0,0,1-.82.287,11.506,11.506,0,0,0,4.2.841,1.433,1.433,0,0,1-.041.349,1.22,1.22,0,0,0-.472.308,4.87,4.87,0,0,0-.349.738q-.123.349-.369.349a4.094,4.094,0,0,1-1.538-.41q-.226.123-.554.349V-5.5q0,.554.349.574h.369a.745.745,0,0,0,.636-.246.954.954,0,0,0,.205-.308h.164a2.91,2.91,0,0,1,.677.574q.39.41.39.615,0,.7-2.01.718h-.205a4.309,4.309,0,0,1,.41.328,3.158,3.158,0,0,1,.554.574q0,.144-.082.185-.369.144-.41.226A7.051,7.051,0,0,1,177.429.8l.246.123a9,9,0,0,0,3.445.492,2.775,2.775,0,0,1-.062.287q-.226,0-.595.595-.062.431-.1.8a.333.333,0,0,1-.328.287,6.457,6.457,0,0,1-3.794-1.723,13.564,13.564,0,0,1-5,1.7,1.687,1.687,0,0,1-.144-.246,17.22,17.22,0,0,0,3.384-1.661A7.349,7.349,0,0,0,175.4.82a7.075,7.075,0,0,1-1.436-3.24,9.134,9.134,0,0,0-.943.123,4.089,4.089,0,0,0-.287-.636q-.287.062-.533.123a.725.725,0,0,1-.144-.267,3.523,3.523,0,0,0,1.107-.943q.636-.513.636-2.625a8.336,8.336,0,0,0-.082-1.312l1.559.759h1.374q.267-.328.472-.554-.123-.062-.226-.123a8.553,8.553,0,0,1-3.056-2.994,1.381,1.381,0,0,1-.226.021A15.059,15.059,0,0,1,168.8-7.178h1.559q.718-.759.964-.759a2.346,2.346,0,0,1,.964.533q.677.492.677.738,0,.164-.287.308a2.221,2.221,0,0,0-.513.41v1.066a6.416,6.416,0,0,1,.1.8q0,.574-.923.595-.718,0-.738-.308v-.492h-1.8q-.226,1.251-.39,1.989h1.846q.738-.861.923-.861.246,0,.882.554.677.574.677.779,0,.164-.308.308l-.41.246a7.054,7.054,0,0,1-.841,3.076q-.349.943-2.133,1.189-.287,0-.369-.349A1.522,1.522,0,0,0,168,1.7a3.115,3.115,0,0,0-1.169-.513,1.716,1.716,0,0,0,.082-.349,15.17,15.17,0,0,0,1.969.39q.718,0,.861-.328a7.147,7.147,0,0,0,.7-2.666H168.3a4.228,4.228,0,0,1-.185.636q-.1.308-.8.308-.984,0-.984-.287a31.549,31.549,0,0,0,.943-4.348q.964.41,1.374.636H170.6v-1.8h-2.974q-.82.349-1.682.636a19.037,19.037,0,0,1-.205,2.174,14.635,14.635,0,0,1-.882,3.343,7.7,7.7,0,0,1-1.866,3.117.4.4,0,0,1-.287-.164,22.366,22.366,0,0,0,1.169-4.655,51.58,51.58,0,0,0,.41-7.526q0-2.933-.021-3.63a13.31,13.31,0,0,0-.082-1.374l1.928.841H172.3a6.07,6.07,0,0,1-.492-.513,5.7,5.7,0,0,0-1.6-1.374.439.439,0,0,0,.144-.246q3.343.185,3.466,1.128a2.231,2.231,0,0,1-.1.738.684.684,0,0,1-.144.267h5.065a5.516,5.516,0,0,1,1.066-1.21A.387.387,0,0,1,179.829-15.094Zm-4.45,8.49q0,.861-.041,1.23a2.9,2.9,0,0,1-2.276,2.338,17.558,17.558,0,0,0,1.846.082h2.687a8.458,8.458,0,0,1,.677-.656q-1.415-.041-1.436-1.354V-6.6ZM174.251-2.42a5.124,5.124,0,0,0,1.969,2.5,5.8,5.8,0,0,0,1.436-2.522h-2.6Q174.6-2.44,174.251-2.42ZM167.3-10.849a5.756,5.756,0,0,1,1.251.246q1,.308,1,.779a1.129,1.129,0,0,1-.369.943,1.015,1.015,0,0,1-.656.185q-.369,0-.472-.472a2.1,2.1,0,0,0-.308-.656,4.9,4.9,0,0,0-.636-.8Q167.2-10.726,167.3-10.849Zm35.487-5.127a3.833,3.833,0,0,1,.492.328q1.354,1.128,1.354,1.436,0,.287-.246.287h-8.2v2.81h3.568q.943-.984,1.148-.984a3.925,3.925,0,0,1,.923.513q.861.615.882.861,0,.226-.308.41a4.087,4.087,0,0,0-.492.39V-3.4h.267q.923-1.374,1.189-1.374.185,0,.8.738a2.664,2.664,0,0,1,.7.943q0,.287-.226.308H201.9V.677a2.383,2.383,0,0,1-2.071,2.42q-.41-.082-.41-.431a1.933,1.933,0,0,0-.595-1A4.752,4.752,0,0,0,197.433,1a1.532,1.532,0,0,0,.041-.328,13.861,13.861,0,0,0,1.887.164q.7,0,.7-.39v-3.24H190.6V2.646q-.164.636-1.169.636-.615,0-.759-.205,0-3.035.041-5.845a12.072,12.072,0,0,0-2.522.164,7.149,7.149,0,0,1-.431-1.087,19.34,19.34,0,0,0,2.994.267v-5a33.778,33.778,0,0,0-.164-3.466l2.03.779H194.3v-2.81h-3.22a22.251,22.251,0,0,0-4.553.267,6.542,6.542,0,0,0-.492-1.107,41.062,41.062,0,0,0,5.209.226h9.987A6.938,6.938,0,0,1,202.58-16,1.289,1.289,0,0,1,202.785-15.976ZM190.6-3.4H194.3V-6.85H190.6Zm5.578,0h3.876V-6.85h-3.876ZM194.3-10.582H190.6v3.2H194.3Zm5.763,3.2v-3.2h-3.876v3.2Zm17.44-8.572q3.179.472,3.179.82,0,.287-.41.369-.656.287-.677.492v3.958h3.486a7.087,7.087,0,0,1,1.333-1.579.253.253,0,0,1,.144-.041,3.541,3.541,0,0,1,.943.677,3.931,3.931,0,0,1,1.046,1.21q0,.287-.144.328h-6.809v4.655H222.5A7.013,7.013,0,0,1,223.855-6.5a.762.762,0,0,1,.185.021,2.32,2.32,0,0,1,.513.328q1.354,1.107,1.354,1.456,0,.267-.246.267h-6.07V1.62h4.43A9.11,9.11,0,0,1,225.6-.1a1.043,1.043,0,0,1,.205.021,2.322,2.322,0,0,1,.595.41q1.559,1.271,1.559,1.641,0,.308-.205.308H214.278a26.831,26.831,0,0,0-4.594.226,5.366,5.366,0,0,0-.492-1.066,47.7,47.7,0,0,0,5.086.185H217.6V-4.43h-2.235a14.222,14.222,0,0,0-3.507.246q-.226-.533-.513-1.087a24.3,24.3,0,0,0,3.814.205h2.44V-9.721h-4.245a16.776,16.776,0,0,1-3.609,4.614,2.5,2.5,0,0,0-.369-.41,29.623,29.623,0,0,0,3.507-9.146q3.24,1.107,3.24,1.6,0,.328-1.456.431a24.087,24.087,0,0,1-.984,2.317H217.6v-3.22A22.482,22.482,0,0,0,217.5-15.955Zm16.927.1A4.841,4.841,0,0,1,236-15.3a2.036,2.036,0,0,1,1.271,1.7,1.278,1.278,0,0,1-.39,1.025,1.144,1.144,0,0,1-.7.185q-.595,0-.8-1a5.125,5.125,0,0,0-.533-1.354,4.611,4.611,0,0,0-.636-.861Q234.3-15.709,234.425-15.853Zm4.614,2.522a.918.918,0,0,1,.451.246,6.387,6.387,0,0,1,1.436,1.5q0,.246-.164.246H234.24a9.64,9.64,0,0,0-2.03.164q-.1-.349-.287-.841a13.574,13.574,0,0,0,2.317.164h3.527a11.847,11.847,0,0,1,1.025-1.292Q238.957-13.33,239.039-13.33Zm-.7,3.179a.747.747,0,0,1,.369.185,5.552,5.552,0,0,1,1.148,1.189q0,.287-.164.287H235.04a9.64,9.64,0,0,0-2.03.164,6.827,6.827,0,0,0-.287-.841,16.275,16.275,0,0,0,2.317.144H237.3q.451-.574.841-1A.426.426,0,0,1,238.342-10.151ZM238.3-7.444a.906.906,0,0,1,.41.205,5.812,5.812,0,0,1,1.23,1.292q0,.287-.164.287h-4.491A9.209,9.209,0,0,0,233.3-5.5q-.123-.369-.308-.861a15.773,15.773,0,0,0,2.3.144h1.907a13.128,13.128,0,0,1,.882-1.087Q238.239-7.444,238.3-7.444ZM233.03-3.855l1.518.574h2.563q.759-.943,1.046-.964a3.032,3.032,0,0,1,1.025.595q.718.533.718.779a.493.493,0,0,1-.226.349,3.534,3.534,0,0,0-.431.451V.492q.123,1.477.123,1.928,0,.636-1.025.656-.738,0-.8-.369V1.518h-2.687V2.646q-.1.595-1.046.595-.574,0-.718-.205,0-1.641.062-3.2V-2.256A6.842,6.842,0,0,0,233.03-3.855Zm1.825,4.8h2.687V-2.748h-2.687ZM249.129-10.11a1.044,1.044,0,0,1,.451.246,6.728,6.728,0,0,1,1.538,1.6q0,.246-.144.246H246.3v5.886q.082,3.548.123,5.024,0,.533-1.415.533-.718,0-.718-.41.062-1.251.082-5.229v-5.8h-1.5a9.64,9.64,0,0,0-2.03.164q-.1-.349-.287-.841a16.275,16.275,0,0,0,2.317.144h1.5v-5.373q-.062-1.025-.185-2.01,1.046.144,2.256.328.861.164.861.451,0,.205-.39.287-.615.205-.615.328v5.988h1.436q.574-.759,1.087-1.374A.585.585,0,0,1,249.129-10.11Zm20.824-5.065a2.448,2.448,0,0,1,.964.595q.759.636.759.882,0,.185-.287.349a4.6,4.6,0,0,0-.595.39v.677h.656a7.414,7.414,0,0,1,1.025-1.128q.1,0,.1.021.185.021.964.882.431.369.431.595,0,.267-.349.267h-2.83v.595a7.175,7.175,0,0,1,.1,1.128q0,.533-1.292.615-.615,0-.615-.369H265.3v1.5h4.491a5.871,5.871,0,0,1,1.046-1.046.454.454,0,0,1,.144.021,1.632,1.632,0,0,1,.41.246q.984.861.984,1.107,0,.308-.205.308H265.3v1.559h5.558A5.988,5.988,0,0,1,272-7.157a.533.533,0,0,1,.164.021,3.087,3.087,0,0,1,.431.267q1.107.964,1.107,1.251,0,.267-.226.267H260.17a23.9,23.9,0,0,0-4.532.246,8.6,8.6,0,0,0-.513-1.087,48.493,48.493,0,0,0,5.394.205h2.912V-7.547h-2.112a15.947,15.947,0,0,0-3.691.246,5.2,5.2,0,0,0-.492-1.087,31.115,31.115,0,0,0,4.327.205h1.969V-9.659q-3.425.041-5.517.164a7.064,7.064,0,0,1-.349-.9q1.087.082,5.865.123v-1.374h-4.573q-1.477,0-2.912.1a6.542,6.542,0,0,1-.431-.964,27.193,27.193,0,0,0,3.609.226h4.307v-1.333h-.738q-3.179,0-4.676.164a7.421,7.421,0,0,0-.267-.841q1.21.123,5.271.123h.41q-.021-1.107-.1-1.8,2.953.41,2.953.779,0,.246-.349.328-.615.267-.636.451v.246h3.466Q269.645-15.176,269.953-15.176ZM265.3-13.617v1.333h3.691v-1.333Zm0,1.969v1.415h3.691v-1.415Zm-7.731,6.829,1.846.718H269.44q.8-.841,1.107-.861a3.187,3.187,0,0,1,1.128.615q.779.574.779.841,0,.185-.349.39a2.15,2.15,0,0,0-.615.472V-.9q.1,1,.1,1.313,0,.677-1.087.7-.82,0-.861-.369V.718h-10.09V.8q-.123.636-1.148.636-.636,0-.759-.205,0-1.456.082-2.83V-3.445A4.349,4.349,0,0,0,257.566-4.819ZM259.555.164h3.917V-1.395h-3.917ZM265.5-1.395V.164h4.143V-1.395Zm-5.947-.554h3.917V-3.589h-3.917ZM265.5-3.589v1.641h4.143V-3.589Zm6.85,4.225a2.936,2.936,0,0,1,.451.308q1.251,1.025,1.251,1.354,0,.267-.226.267H260.252a24.6,24.6,0,0,0-4.614.246,8.6,8.6,0,0,0-.513-1.087,48.76,48.76,0,0,0,5.414.205h10.377A5.773,5.773,0,0,1,272.188.636Z" transform="translate(817 388.799)" fill="#1a202c"/>
    <g id="Group_5082" data-name="Group 5082" transform="translate(730 195.01)">
      <path id="Path_19203" data-name="Path 19203" d="M3356.654,1307.258c-.1,3.676-.331,7.4-2.148,10.652a11.377,11.377,0,0,1-6.577,5.381c-3.236,1.124-6.446,2.3-9.779,2.271-4.564-.039-9.22-.321-13.467-2.366-2.793-1.345-3.785-3.954-4.125-6.8-.877-7.335,3.735-12.18,8.961-15,1.2-.645,1.558-.182,1.9.928a21.69,21.69,0,0,1,.41,4.291,1.785,1.785,0,0,1-.634,1.539,8.629,8.629,0,0,0-1.058,1.14c-1.281,1.754-1.194,1.931.8,2.8,2.7,1.172,5.351.447,7.977-.171.776-.182,1.072-1.166,1.308-1.953,1.147-3.831,1.93-7.665.827-11.685-.362-1.317-.531-2.705-.807-4.054-.229-1.116-.693-.984-1.479-1.09-5.135-.692-10.339-1.217-15.07-3.527a11.726,11.726,0,0,1-6.931-10.885,7.721,7.721,0,0,1,3.343-6.394c2.249-1.776,3.987-1.628,6.383-.823,2.188.735,4.622.516,6.929.735,2.839.269,5.649-.665,8.42.087.943.256,1.38-.6,2.2-.653a172.871,172.871,0,0,1,19.061-.612c3.374.134,4.769,1.531,5.029,4.905.209,2.712.9,5.362.811,8.126a3.438,3.438,0,0,1-1.561,3.015,36.4,36.4,0,0,1-10.942,5.377c-1.212.37-1.754.6-1.374,2.395A53.5,53.5,0,0,1,3356.654,1307.258Z" transform="translate(-3021.052 -1215.636)" fill="#1a1311" fill-rule="evenodd"/>
      <path id="Path_19204" data-name="Path 19204" d="M1326.452,1142.766c-11.817.1-22.356-2.366-31.612-9.191a17.485,17.485,0,0,1-4.558-4.768,6.389,6.389,0,0,1,.02-7.493,19.24,19.24,0,0,1,2.04-2.385c1.181-1.253,1.958-1.474,3.509-.107,5.112,4.5,11.449,6.409,18.013,7.625a79.671,79.671,0,0,0,21.936.656,141.687,141.687,0,0,0,24.627-4.582c3.5-.965,7.075-1.728,10.367-3.359a1.388,1.388,0,0,1,1.695.572c2.775,3.209,2.888,8.076-1.416,10.585-9.642,5.621-20.2,8.911-31.072,11.1A69.271,69.271,0,0,1,1326.452,1142.766Z" transform="translate(-1239.682 -1081.183)" fill="#1a1311" fill-rule="evenodd"/>
      <path id="Path_19205" data-name="Path 19205" d="M979.8,1031.56c.177,1.6-.309,3.078-.4,4.586-.14,2.367-2.161,3.362-3.62,4.446a24.121,24.121,0,0,1-11.048,4.958c-1.853.257-3.628-.186-5.434-.242a14.117,14.117,0,0,1-4.638-.918,11.4,11.4,0,0,1-6.3-6.16,35.079,35.079,0,0,1-2.494-8.752c-.421-2.027-.722-4.194.44-6.272a19.961,19.961,0,0,0,1.394-4.135c1.443-4.892,5.022-6.287,9.053-6.934a22.728,22.728,0,0,1,8.324.132c3.08.65,5.916,1.712,7.824,4.366a1.894,1.894,0,0,0,.826.711c3.831,1.724,5.532,4.879,5.7,8.892C979.5,1028.046,980.116,1029.8,979.8,1031.56Z" transform="translate(-937.828 -987.996)" fill="#1a1311" fill-rule="evenodd"/>
      <path id="Path_19206" data-name="Path 19206" d="M3047.62,1309.357c0,.175,0,.35,0,.524.1,3.111-1.151,4.752-4.333,5.309-1.555.272-2.837,1.373-4.6,1.141-.885-.116-1.588.692-1.671,1.977-.245,3.752,1.14,7.171,1.969,10.688a68.755,68.755,0,0,1,2.181,11.008,3.067,3.067,0,0,1-3.524,3.353c-1.355-.165-2.726-.352-4.064-.454-3.53-.269-5.3-2.531-7.138-5.117a20.105,20.105,0,0,1-3.56-12.911,17.76,17.76,0,0,1,1.5-6.7c1.21-2.611,1.176-2.722-1.614-3.059a10.4,10.4,0,0,1-6.546-3.531c-2.289-2.48-1.609-6.7,1.05-8.78,2.947-2.307,6.138-2.5,9.667-2.214a24.469,24.469,0,0,0,6.486-.732c3.656-.7,7.142-2.173,10.921-2.324a1.564,1.564,0,0,1,1.838,1.37A42.888,42.888,0,0,1,3047.62,1309.357Z" transform="translate(-2755.812 -1239.006)" fill="#1a1311" fill-rule="evenodd"/>
      <path id="Path_19207" data-name="Path 19207" d="M3698.135,1800.809a11.013,11.013,0,0,1,8.309-1.024c4.93,1.291,9.051,7.752,7.9,12.735a35.844,35.844,0,0,1-2.277,7.575,7.519,7.519,0,0,1-3.635,3.79c-2.409,1.138-5.029,2.349-7.525,2.358-3.529.012-7.4-.432-10.133-3.131-1.518-1.5-3.09-3.218-2.977-5.8.155-3.519,3.591-5.419,5.974-5.39a3.321,3.321,0,0,1,3.127,2.618,4.348,4.348,0,0,0,5.162,3.177c2.758-.374,4.325-1.979,4.339-4.445q0-.875,0-1.75c-.015-2.248-.97-3.464-3.31-4.221a4.248,4.248,0,0,0-4.407,1.71c-.915,1.464-2.041,2.343-3.778,2.177a6.938,6.938,0,0,1-5.278-2.909c-1-1.453-.261-3.086.182-4.525a22.972,22.972,0,0,0,.506-13.082c-.657-2.419,2.619-5.6,5.069-5.165a41.962,41.962,0,0,0,12.756,0,4.755,4.755,0,0,1,4.849,2.634c.924,1.816-.357,2.811-1.419,3.98a6.56,6.56,0,0,1-8.252,1.755,5.138,5.138,0,0,0-.682-.115c-2.9-.813-3.689-.337-3.907,2.563-.057.763-.275,1.468-.387,2.205S3697.734,1799.949,3698.135,1800.809Z" transform="translate(-3347.02 -1667.674)" fill="#704168" fill-rule="evenodd"/>
      <path id="Path_19208" data-name="Path 19208" d="M3338.43,1043.285c-.421-2.743.976-5.237,2.626-7.265,1.491-1.832,3.836-2.981,5.85-4.366a1.269,1.269,0,0,1,1.336.13c3.636,2.576,7.949,3.811,11.79,5.944,2.89,1.606,5.947,2.878,8.771,4.61a3.859,3.859,0,0,1,1.773,3.023,58.534,58.534,0,0,1,.834,8.5c-.032,1.232-.538,1.685-1.673,2-3.57.979-7.17.487-10.738.262a110.92,110.92,0,0,1-12.287-1.943C3342.226,1053.381,3337.851,1048.044,3338.43,1043.285Z" transform="translate(-3040.028 -1005.303)" fill="#1a1311" fill-rule="evenodd"/>
      <path id="Path_19209" data-name="Path 19209" d="M3023.138,1095.743a57.539,57.539,0,0,1-13.932-1.825,14.085,14.085,0,0,1-3.664-1.187c-2.4-1.312-3.039-3.644-2.208-6.191,1.309-4.011,4.8-5.639,7.808-7.825.7-.512,1.6-.191,2.448-.175a46.986,46.986,0,0,0,8.832-.734c3.735-.641,7.479-1.21,11.193-1.98,1.629-.338,2.855,1.113,3.179,3.56.282,2.129.53,4.264.713,6.4.261,3.044-.85,4.72-3.725,6.147-1.006.5-1.768,1.555-2.8,1.93C3028.443,1094.791,3025.949,1096.062,3023.138,1095.743Z" transform="translate(-2745.4 -1044.187)" fill="#1a1311" fill-rule="evenodd"/>
      <path id="Path_19210" data-name="Path 19210" d="M3071.966,1766.784c-.142-2.416.751-4.821.085-7.254-.219-.8-.288-1.592-1.229-1.886a2.082,2.082,0,0,1-1.437-2.29,15.307,15.307,0,0,1,.534-4.981,3.688,3.688,0,0,1,2.584-2.57,6.279,6.279,0,0,0,1.411-.6c2.433-1.413,5.865.269,6.564,3.014.629,2.469-.1,4.846-.076,7.265.022,2.262-.3,4.527-.3,6.79,0,6.173-.593,12.332-.384,18.51.08,2.364-2.33,5.672-4.5,6.381-2.258.739-5.054-1.881-4.809-4.736.421-4.9,1.041-9.781,1.536-14.674A29.5,29.5,0,0,0,3071.966,1766.784Z" transform="translate(-2803.729 -1633.604)" fill="#e9450a" fill-rule="evenodd"/>
      <path id="Path_19211" data-name="Path 19211" d="M1521.869,1995.926c2.559-.346,4.871,1,7.375,1.071,1.044.028,2.083.2,3.125.307.271.162.26.364.082.589C1528.885,1997.448,1525.26,1997.32,1521.869,1995.926Z" transform="translate(-1444.195 -1852.514)" fill="#1a1311" fill-rule="evenodd"/>
      <path id="Path_19212" data-name="Path 19212" d="M1669.45,1996.7l.656-.035c1.077-.234,2.189-.284,3.252-.6,1.9.279,3.552-1.11,5.455-.838-1.4,1.175-3.219,1.05-4.842,1.476a34.031,34.031,0,0,1-4.93.591C1668.916,1996.921,1669.215,1996.835,1669.45,1996.7Z" transform="translate(-1573.464 -1851.923)" fill="#1a1311" fill-rule="evenodd"/>
      <path id="Path_19213" data-name="Path 19213" d="M1149.92,1709.29a16.971,16.971,0,0,0,4.029-1.291c.6-.287,1.358-.685,1.89.034s-.161,1.294-.479,1.863a4.094,4.094,0,0,1-.86.831.422.422,0,0,1-.654.046l.637-1.133c.239-.295.692-.544.423-.995-.165-.275-.505-.187-.772-.027A6.661,6.661,0,0,1,1149.92,1709.29Z" transform="translate(-1117.428 -1599.285)" fill="#1a1311" fill-rule="evenodd"/>
      <path id="Path_19214" data-name="Path 19214" d="M1156.371,1733.186l.654-.046c-.722,2-2.322,2.938-4.231,3.5Z" transform="translate(-1119.952 -1621.699)" fill="#1a1311" fill-rule="evenodd"/>
      <path id="Path_19215" data-name="Path 19215" d="M1616.128,2007.608l-.409.595-.7.009a30.741,30.741,0,0,0-5.925-.006h-.692q-.041-.295-.082-.59Z" transform="translate(-1520.141 -1862.827)" fill="#1a1311" fill-rule="evenodd"/>
      <path id="Path_19216" data-name="Path 19216" d="M1372.832,1943.448c1.909-.181,3.311.968,4.819,1.838A10.622,10.622,0,0,1,1372.832,1943.448Z" transform="translate(-1313.262 -1806.443)" fill="#1a1311" fill-rule="evenodd"/>
      <path id="Path_19217" data-name="Path 19217" d="M1334.7,1923.749c1.725.426,3.443.865,4.6,2.383A11.7,11.7,0,0,1,1334.7,1923.749Z" transform="translate(-1279.765 -1789.154)" fill="#1a1311" fill-rule="evenodd"/>
      <path id="Path_19218" data-name="Path 19218" d="M1894.224,1910.918c1-.924,2-1.841,3.516-1.726A8.576,8.576,0,0,1,1894.224,1910.918Z" transform="translate(-1771.319 -1776.357)" fill="#1a1311" fill-rule="evenodd"/>
      <path id="Path_19219" data-name="Path 19219" d="M1614.687,2009.966a12.465,12.465,0,0,1,5.925.006Z" transform="translate(-1525.738 -1864.587)" fill="#1a1311" fill-rule="evenodd"/>
      <path id="Path_19220" data-name="Path 19220" d="M1247.989,1880.7c1.077.346,2.485.12,2.873,1.66C1249.849,1881.9,1248.717,1881.648,1247.989,1880.7Z" transform="translate(-1203.584 -1751.331)" fill="#1a1311" fill-rule="evenodd"/>
      <path id="Path_19221" data-name="Path 19221" d="M2002.916,1615.751c-.377,1.294-1.724,1.056-2.562,1.622C2000.781,1616.159,2001.966,1616.141,2002.916,1615.751Z" transform="translate(-1864.557 -1518.57)" fill="#1a1311" fill-rule="evenodd"/>
      <path id="Path_19222" data-name="Path 19222" d="M1496.73,1988.089c1.268-.685,2.076.375,3.051.8C1498.776,1988.577,1497.595,1988.934,1496.73,1988.089Z" transform="translate(-1422.11 -1845.481)" fill="#1a1311" fill-rule="evenodd"/>
      <path id="Path_19223" data-name="Path 19223" d="M1302.955,1909.4a2.064,2.064,0,0,1,2.084,1.078C1304.23,1910.342,1303.4,1910.236,1302.955,1909.4Z" transform="translate(-1251.873 -1776.549)" fill="#1a1311" fill-rule="evenodd"/>
      <path id="Path_19224" data-name="Path 19224" d="M1871.749,1927.929a2.176,2.176,0,0,1,2.1-1.091C1873.426,1927.736,1872.535,1927.732,1871.749,1927.929Z" transform="translate(-1751.574 -1791.856)" fill="#1a1311" fill-rule="evenodd"/>
      <path id="Path_19225" data-name="Path 19225" d="M1184.613,1712.851c.366-.338.943-.624,1.184-.172.344.645-.276.98-.835,1.194C1184.966,1713.491,1185.471,1712.938,1184.613,1712.851Z" transform="translate(-1147.906 -1603.518)" fill="#1a1311" fill-rule="evenodd"/>
      <path id="Path_19226" data-name="Path 19226" d="M1236.817,1874.47c.531-.055,1.02-.044,1.068.67C1237.328,1875.239,1237.051,1874.89,1236.817,1874.47Z" transform="translate(-1193.769 -1745.844)" fill="#1a1311" fill-rule="evenodd"/>
      <path id="Path_19227" data-name="Path 19227" d="M1032.112,1513.044c.181-.4.6-.771.88-.45.324.372-.08.7-.546.78Z" transform="translate(-1013.93 -1427.836)" fill="#1a1311" fill-rule="evenodd"/>
      <path id="Path_19228" data-name="Path 19228" d="M1793.074,1710.291a1.072,1.072,0,0,1,1.151.506l-.8.14Z" transform="translate(-1682.456 -1601.599)" fill="#1a1311" fill-rule="evenodd"/>
      <path id="Path_19229" data-name="Path 19229" d="M1681.275,2002.027a5.363,5.363,0,0,1-3.252.6A5.782,5.782,0,0,1,1681.275,2002.027Z" transform="translate(-1581.381 -1857.88)" fill="#1a1311" fill-rule="evenodd"/>
      <g id="Group_5079" data-name="Group 5079" transform="translate(146.723 21.293)">
        <path id="Path_19230" data-name="Path 19230" d="M2449.424,1385.984c2.687.629,5.069-.22,7.488-1.121,1.712-.637,3.145-3.119,2.377-4.474a5.579,5.579,0,0,0-4-2.991,26.348,26.348,0,0,0-5.207-.665c-.876.016-1.5-.318-1.068-1.557.971-2.817.927-5.818,1.132-8.745a8.98,8.98,0,0,0-1.777-5.418c-2.041-3.111-5.333-4.155-8.688-4.851-3.936-.817-7.891-.022-11.843.222-2.116.131-4.322.752-6.413-.281a5.039,5.039,0,0,0-2.843-.086c-1.61.142-2.527,1.462-3.8,2.168-3.6,1.994-5.169,5.57-6.766,8.974a43.965,43.965,0,0,1-2.571,5.168c-.549.859-1.576,1.7-1.583,2.56-.017,1.934-1.315,1.5-2.267,1.5a38.721,38.721,0,0,0-10.153,1.53,1.367,1.367,0,0,0-1.112,1.449c.084.584-.363,1.233.679,1.685,1.726.749,3.135,1.995,5.226,2.189a15.978,15.978,0,0,1,3.687.346,24.68,24.68,0,0,1-1.238,2.881,32.85,32.85,0,0,0-2.76,5.915c-.588,1.851-.753,3.77-1.4,5.557a5.428,5.428,0,0,0,.369,4.775c2.594,4.594,7.2,5.68,11.826,6.625a54.7,54.7,0,0,0,8.068.854c4.064.217,8.105.692,12.3.047-.861,2.943-2.356,4.463-5.566,4.874-5.165.662-6.863,5.4-5.371,9.913a3.215,3.215,0,0,0,2.982,2.263c3.814.436,7.66.814,11.323-.478,3.265-1.151,5.289-3.946,7.069-6.75a56.95,56.95,0,0,0,4.522-7.993c.243-.568.534-.7,1.183-.639a58.455,58.455,0,0,0,6.621.349,11.769,11.769,0,0,0,6.669-1.868c3.088-2.227,2.422-7.618-1.008-9.369a20.819,20.819,0,0,0-9.377-2.729c-.431,0-.839.037-.674-.617a18.948,18.948,0,0,0,1.065-5.554c-.037-.889.554-2.017.573-3.122C2447.132,1387.041,2448.243,1385.708,2449.424,1385.984Zm-28.533,1.843c-2.13,3.143-2.232,3.337-.842,5.993.207.4.706,1.07.125,1.4a2.884,2.884,0,0,1-2.083.419c-1.691-.639-3.368-.319-5.054-.281-.825.019-1.1-.116-.838-1.091a35.791,35.791,0,0,1,2.784-7.147,3.01,3.01,0,0,1,2.814-1.618c.633.063,1.277.011,1.953.011.874.288,2.2-.516,2.659.446C2422.812,1386.816,2421.372,1387.117,2420.891,1387.827Zm10.758,6.04c-.259,1.259-.829,1.944-2.151,1.385a12.7,12.7,0,0,0-2.008-7.872c-.077-.13-.337-.144-.431-.272-.292-.4-1.282.031-1.1-.785s1.023-.478,1.482-.388a40.1,40.1,0,0,0,6.125.345A47.179,47.179,0,0,0,2431.648,1393.867Zm6.6-27.064a67.638,67.638,0,0,1-1.9,7.991c-.206.564-.3,1.069-1.113.987-.72-.072-.9-.481-1.144-1.071-1.07-2.532-1.968-5.149-3.662-7.385a3.259,3.259,0,0,0-5.475.259c-1.532,2.312-.789,4.448.353,6.568.98,1.82.981,1.918-.959,1.913-.991,0-1.9.644-2.855.241-.467.033-.873.063-1.279.09-.934.063-1.055-.661-.716-1.126,2.094-2.877,3.123-6.323,5.069-9.28a5.421,5.421,0,0,1,4.967-2.416,21.977,21.977,0,0,1,7.811,1.519A1.293,1.293,0,0,1,2438.252,1366.8Z" transform="translate(-2353.866 -1311.49)" fill="#1db3b8" fill-rule="evenodd"/>
        <path id="Path_19231" data-name="Path 19231" d="M2491,1016.284c-.674-1.123-1.857-2.172-2.782-2.1a33.29,33.29,0,0,1-7.351-.447c-3.532-.516-7.07-.316-10.592-.7a151.747,151.747,0,0,0-15.243-1.214c-.8-.007-1.035-.1-.811-1.118.441-2,2.065-3.669,1.646-5.9a.679.679,0,0,1,.113-.5c2.207-2.625,1.464-5.115-.318-7.569a3.74,3.74,0,0,1-.74-1.141,4.507,4.507,0,0,0-4.55-3.716,5.529,5.529,0,0,1-1.173-.21c-1.58-.457-3.174-1.382-4.608.351a1.137,1.137,0,0,1-.957.332c-2.275-.657-2.444,2.192-4.146,2.446-.7,2.444-2.637,4.271-3.422,6.649-1.421,4.307-2.769,8.643-3.979,13.013-.244.882-1.149,1.286-1.12,2.264.1,3.529-2.285,6.236-3.18,9.442-.506,1.812-1.572,3.376-1.874,5.338-.355,2.3.472,4.294.929,6.361.515,2.324,2.714,3.8,4.489,3.236,1.925-.61,3.948-1.064,5.586-2.377.012-.784.477-.951,1.146-.841h0c2.583-2.281,4.218-5.258,5.811-8.219,1.2-2.226,1.221-2.391,3.853-1.828a7.933,7.933,0,0,0,.864.092c2.926.3,5.855.575,8.777.906,2.2.249,4.431.618,6.6.7,3.6.139,7.2.49,10.827.455a141.249,141.249,0,0,0,16.171-.63,1.859,1.859,0,0,0,1.734-1.373C2494.316,1023.753,2493.2,1019.962,2491,1016.284Z" transform="translate(-2385.068 -991.011)" fill="#1db3b8" fill-rule="evenodd"/>
        <path id="Path_19232" data-name="Path 19232" d="M2131.225,1056.583c.389-.165.348-.544.467-.865.712-1.928.055-3.848-.272-5.677-.174-.974.3-2.166-.419-2.652-.333-1.661-.485-2.983-.869-4.233a18.527,18.527,0,0,0-6.043-9.5c-.785-.616-1.206-1.587-2.087-1.972-1.888-.823-3.822-1.547-5.755-2.262a18.357,18.357,0,0,0-8.851-1.034,39.1,39.1,0,0,0-7.274,1.773c-1.225.4-2.037,1.491-3.144,1.649a4.859,4.859,0,0,0-3.5,3.085c-1.112,2.493-2.661,5.006-2.474,7.96a.762.762,0,0,1-.147.491c-.939,1.135-.455,2.252-.219,3.5.144.763.887,1.536.437,2.324a3.7,3.7,0,0,0,.137,3.63c1.126,2.472,1.805,5.156,3.336,7.431,1.081,1.606,2.081,3.2,3.982,4.222,1.3.7,2.887.759,3.893,1.715a1.913,1.913,0,0,0,2.078.6c1.569-.415,3.165.045,4.789-.135,2.03-.225,4.216-.175,6.255-.484a17.376,17.376,0,0,0,8-3.035c.68-.513,1.534-.416,2.189-1.192C2127.381,1059.987,2128.706,1057.65,2131.225,1056.583Z" transform="translate(-2090.304 -1023.717)" fill="#1db3b8" fill-rule="evenodd"/>
        <path id="Path_19233" data-name="Path 19233" d="M2148.224,1391.619c-.778-.506-1.7-.836-2.156-1.74-1.173-.46-1.549-1.954-2.665-2.309a13.083,13.083,0,0,1-4-2.6c-.781-.611-1.922-.3-2.386-1.132a3.571,3.571,0,0,0-2.976-1.636,18.774,18.774,0,0,0-7.844.157,7.416,7.416,0,0,0-4.51,3.963,21.083,21.083,0,0,0-1.355,3.826c-.4,1.224-.746,2.3-.1,3.489a17.067,17.067,0,0,0,3.232,4.37,11.606,11.606,0,0,0,5.179,3.068c.73.186,1.292.714,2.194.74a8.338,8.338,0,0,1,3.183.748,5.348,5.348,0,0,0,3.094.507,2.875,2.875,0,0,1,1.729.321,3.374,3.374,0,0,0,3.023-.105c.421-.217.583-.715,1.287-.587,1.834.332,3.049-.933,4.338-1.942a4.146,4.146,0,0,1,2.453-2.122c-.157-.437-.894-.992-.31-1.291,1.011-.518.636-1.271.585-1.941A6.883,6.883,0,0,0,2148.224,1391.619Z" transform="translate(-2116.278 -1334.384)" fill="#1db3b8" fill-rule="evenodd"/>
        <path id="Path_19234" data-name="Path 19234" d="M2156.475,1604.8c-3.041-1.128-5.571-.044-7.772,1.813-1.642,1.385-2.779,3.374-4.439,4.728a3.493,3.493,0,0,0-1.36,2.537c-.037,1.564-.687,2.968-.762,4.49-.034.689-.349,1.483.125,2.015,1.031,1.156.889,2.69,1.436,4a4.2,4.2,0,0,0,.663,1.352,4.355,4.355,0,0,0,3.828,1.707c2.512.145,4.482-.171,5.971-1.709a20.73,20.73,0,0,0,4.354-7.174,28.634,28.634,0,0,0,1.846-5.307c.379-2.286,1.407-4.742-.714-6.883A7.674,7.674,0,0,0,2156.475,1604.8Z" transform="translate(-2135.727 -1529.842)" fill="#1db3b8" fill-rule="evenodd"/>
        <path id="Path_19235" data-name="Path 19235" d="M2349.694,1519.9c-.824.7-1.633,1.418-2.453,2.122C2348.882,1522.263,2348.985,1520.728,2349.694,1519.9Z" transform="translate(-2316.031 -1455.651)" fill="#249a9d" fill-rule="evenodd"/>
        <path id="Path_19236" data-name="Path 19236" d="M2518.27,1376.894c-.454.182-.715.627-1.146.84C2517.971,1378.09,2518.216,1377.624,2518.27,1376.894Z" transform="translate(-2465.277 -1330.02)" fill="#249a9d" fill-rule="evenodd"/>
      </g>
      <g id="Group_5080" data-name="Group 5080" transform="translate(0)">
        <path id="Path_19237" data-name="Path 19237" d="M1032.235,1370.61a8.03,8.03,0,0,0-3.74-5.888c-2.595-1.677-5.125-.755-7.705-.2-.669.833-1.921.746-2.562,1.622-1.126.963-2.781.8-3.875,1.883-1.854,1.834-4.563,2.187-6.619,3.7-.275.2-.98.43-1.023-.372-.206-3.849-3-5.085-6.071-6.01-1.128-.34-2.3-.532-3.5-.8.3-.721.921-.576,1.364-.748a12.206,12.206,0,0,0,4.383-2.443,2.842,2.842,0,0,0,.552-3.816,10.564,10.564,0,0,0-2.463-2.438c-1.91-1.454-4.051-1.768-6.867-1.467a7,7,0,0,1,2.461-1.165,13.9,13.9,0,0,0,4.75-2.451,13.5,13.5,0,0,0,4.589-9.665c.2-3.255-.728-5.326-3.754-6.542a42.048,42.048,0,0,0-11.3-2.929,234.4,234.4,0,0,0-34.622-.814c-7.519.335-12.958,3.6-16.056,10.542a15.559,15.559,0,0,0-1.042,7.184,4.339,4.339,0,0,0,2.171,3.418,11.588,11.588,0,0,0,6.834,1.726c.818-.012,1.636,0,2.454,0a25.912,25.912,0,0,1-4.294,2.772c-.817.442-1.666.825-2.513,1.208a4.348,4.348,0,0,1-4.979-.579c-3.3-2.628-4.711-2.7-8.57-.81a3.225,3.225,0,0,0-1.842,3.779c2.251,7.259,8.632,11.7,16.488,9.657a38.993,38.993,0,0,0,7.53-3.267c-.767,1.557-.282,2.773-.626,3.867-.671,2.137.331,3.617,1.755,4.933a8.8,8.8,0,0,0,6.166,2.5c7.951-.072,15.155-2.706,21.9-6.688a1.4,1.4,0,0,1,2.007.2,29.065,29.065,0,0,0,9.429,5.52,10.559,10.559,0,0,1,.993.529.6.6,0,0,0-.641.117c-2.281.336-4.561.684-6.844,1.006-4.48.631-8.906,1.717-13.478,1.576a39.6,39.6,0,0,0-4.351-.036c-4.917.393-9.8,1.062-14.761,1.044-4.774-.016-9.565-.351-14.325.329a33.791,33.791,0,0,1-7.331.247c-2.072-.155-2.265-.583-2.034-2.583a23.732,23.732,0,0,0-.484-7.977c-.819-3.653-6.268-5.921-9.921-6.176-2.291-.16-2.518-.217-1.7-2.406a44.759,44.759,0,0,0,2.581-9.221c.686-4.7,1.693-9.408-1-13.939-3.687-6.206-9.872-8.333-16.064-5.323a121.884,121.884,0,0,0-15.891,9.423,11.69,11.69,0,0,0-5.25,7.676c-.875,4.419,3.128,8.664,7.472,7.344,3.759-1.142,7.169-3.179,10.589-5.116.087-.1.193-.146.29-.081.167.113.16.26.043.411-2.581,4.769-5.4,9.442-5.322,15.161.04,3,.205,6.07,1.981,8.511,2.548,3.5,6.436,4.44,10.607,3.176,2.277-.69,4.365-1.9,6.711-2.381a13.762,13.762,0,0,0,3.028-.554c.67-.315,1.656-1.021,2.222-.311.705.886-.513,1.46-.89,2.175-.819,1.782-2.451,2.667-4.011,3.631a14.16,14.16,0,0,0-3.712,3.857,5.012,5.012,0,0,0,.057,5.786c1.73,2.15,4.172,2.441,6.6,2.094a5.332,5.332,0,0,1,4.1.683,8.9,8.9,0,0,0,3.154,1.261c.325.272.767.359,1.068.67a.644.644,0,0,0,.289.068c.919.62,2.187.636,2.873,1.66l3.8,1.827a11.654,11.654,0,0,1,2.084,1.078,2.6,2.6,0,0,0,1.772.664c1.456.945,3.228,1.281,4.6,2.383l.029.026c1.641.521,3.207,1.241,4.819,1.838a4.311,4.311,0,0,0,1.6.936c2.89.907,5.685,2.1,8.636,2.83a13,13,0,0,1,3.051.8h0c3.546.645,7.05,1.558,10.679,1.682q3.627,0,7.257,0a6.016,6.016,0,0,0,.891-.05,10.889,10.889,0,0,1,3.24-.505,34.432,34.432,0,0,0,5.608-1.228,22.58,22.58,0,0,0,6.235-2.385,63.062,63.062,0,0,0,8.591-4.852,19.712,19.712,0,0,1,2.1-1.091l.632-.42a33.252,33.252,0,0,1,3.516-1.726c2.613-2.257,5.62-4.019,8.251-6.2,2.229-1.845,4.6-3.522,6.762-5.452C1029.225,1383.747,1033.479,1378.491,1032.235,1370.61Zm-55.322-5.055a13.866,13.866,0,0,1-7.873,2.258c-1.954-.136-2.871-1.3-2.811-3.274.087-2.848.2-5.7.31-8.543.1-2.645.249-2.783,3.137-2.605,1.585-.421,2.106.559,2.53,2.245.818,3.25,2.756,5.987,4.774,8.619C977.414,1364.822,977.67,1365.123,976.912,1365.555Zm13.415-9.814c-.111.2-.21.411-.336.6-1.738,2.637-2.388,2.665-4.187.167-.559-.776-1.092-1.57-1.8-2.591a29.464,29.464,0,0,1,5.6.224C990.663,1354.359,990.8,1354.885,990.328,1355.741Zm.515-10.555a6.555,6.555,0,0,1-6.056,2.2c-7.959-.693-15.971-.621-23.92-1.521a18.828,18.828,0,0,1-4.8-.684c-1.175-.454-1.368-1.073-.692-2.281,1.38-2.465,3.587-3.19,6.123-3.264,2.973-.086,5.95-.02,8.926-.02,6.316-.322,12.587.349,18.868.833,1.234.1,2.764.16,3.2,1.375C992.968,1343.176,991.752,1344.159,990.843,1345.187Z" transform="translate(-882.431 -1267.343)" fill="#1a1311" fill-rule="evenodd"/>
        <path id="Path_19238" data-name="Path 19238" d="M1412.5,832.783c-.716-3.834-.645-7.826-2.174-11.495-1.243-2.982-3.257-5.056-6.695-5.383a51.145,51.145,0,0,0-11.686.366c-6.524.874-13.051,1.732-19.569,2.652a52.813,52.813,0,0,0-8.156,1.443c-3.181.979-6.5.725-9.7,1.574-1.479.393-2.981.862-4.5,1.2-2.192.488-4.066,1.808-6.224,2.5a5.908,5.908,0,0,0-4.465,6.044,7.67,7.67,0,0,1-.3,2.013,7.843,7.843,0,0,0-.17,3.382c.393,2.273.541,4.571.977,6.875.784,4.151,2.246,7.572,6.214,9.367a56.285,56.285,0,0,0,31.276,4.4c10.115-1.356,19.688-4.807,29.423-7.622a7.674,7.674,0,0,0,5.87-6.021A18.043,18.043,0,0,0,1413,839,22.613,22.613,0,0,0,1412.5,832.783ZM1360,846.618a22.856,22.856,0,0,0-2.443.09c-3.891.11-3.911.113-4.433-3.693a43.39,43.39,0,0,0-1.195-6c-.276-.97-.057-1.4,1.016-1.434,1.162-.037,2.319-.229,3.478-.354,2.524-.271,2.546-.276,3.076,2.131.577,2.617,1.058,5.255,1.682,7.86C1361.458,846.386,1361.1,846.688,1360,846.618Zm17.607-1.451c-1.385.192-2.771.372-4.157.561a.868.868,0,0,1-1.083-.843,63.3,63.3,0,0,0-2.49-10.541c-.218-.635-.08-1.027.655-1.062.116-.006.235,0,.349-.017,4.865-.726,4.837-.718,6.181,4.088a67.057,67.057,0,0,1,1.54,7.234C1378.636,844.9,1378.171,845.089,1377.6,845.167Zm20.423-4.775c-2.319.588-4.639,1.17-6.942,1.817-.746.21-1.106.038-1.232-.711a78.446,78.446,0,0,0-2.152-9.909c-.224-.734.159-.928.768-1.021,2.192-.334,4.377-.719,6.574-1.01a1.95,1.95,0,0,1,2.34,1.408c.625,2.786,1.072,5.613,1.611,8.543C1399.046,840.086,1398.581,840.252,1398.028,840.392Z" transform="translate(-1283.322 -815.718)" fill="#1a1311" fill-rule="evenodd"/>
      </g>
      <path id="Path_19239" data-name="Path 19239" d="M3580.465,1683.056a3.337,3.337,0,0,1,1.738-1.186A1.955,1.955,0,0,1,3580.465,1683.056Z" transform="translate(-3252.729 -1576.657)" fill="#181918" fill-rule="evenodd"/>
      <path id="Path_19240" data-name="Path 19240" d="M3600.976,1671.992a2.1,2.1,0,0,1-.48.351c-.166.066-.376-.024-.224-.259a1.255,1.255,0,0,1,.486-.45C3601,1671.524,3601.025,1671.718,3600.976,1671.992Z" transform="translate(-3270.084 -1567.637)" fill="#262727" fill-rule="evenodd"/>
      <path id="Path_19241" data-name="Path 19241" d="M3238.456,1778.011a17.793,17.793,0,0,0-8.963-11.777c-1.058-.6-1.869-1.544-3.329-1.521-4.151.065-9.995,3.9-11.623,8.108a41.22,41.22,0,0,0-2.514,14.5,39.414,39.414,0,0,0,.361,6.335c1.041,5.193,3.273,9.359,8.813,10.861,5.282,1.432,11.148.138,13.818-5.8.823-1.833,1.678-3.655,2.416-5.522A25.5,25.5,0,0,0,3238.456,1778.011Zm-10.652,18.169a7.664,7.664,0,0,1-3.852,1.155c-3.069,0-4.614-1.108-5.583-3.5a12.657,12.657,0,0,1-.313-7.519,40.909,40.909,0,0,1,1.635-6.506c1.3-3.355,3.492-5,6.911-4.76,1.241.088,2.045,1.2,2.892,2.061C3234.508,1782.19,3232.711,1792.91,3227.8,1796.179Z" transform="translate(-2929.046 -1649.436)" fill="#ee7300" fill-rule="evenodd"/>
      <path id="Path_19242" data-name="Path 19242" d="M3482.026,1785.832a15.583,15.583,0,0,0-4.861-9.705,1.667,1.667,0,0,0-.927-.413c-3.23-.712-6.342-1.621-9.822-1.067-5.614.893-10.23,6.336-11.231,10.725-.57,2.5.138,5.05.7,7.487.633,2.724,2.234,4.906,5.28,5.192,2.9.272,5.853.56,8.954-.585a26.13,26.13,0,0,1-3.7,8.084,6.521,6.521,0,0,0-1.378,4.753c.173,2.82.881,3.945,3.513,4.907a4.669,4.669,0,0,0,5.99-4.056c.051-1.965-.292-3.948.229-5.9a78.138,78.138,0,0,1,5.832-15.05C3481.313,1788.822,3482.165,1787.368,3482.026,1785.832Zm-8.227.5c-.607,3.032-1.8,4.237-4.861,4.853-.564.114-1.148.129-1.724.187-2.06,0-3.168-.913-3.741-3.084a4.716,4.716,0,0,1,1.933-5.137,11.857,11.857,0,0,1,4.384-1.37C3471.623,1781.526,3474.164,1784.51,3473.8,1786.328Z" transform="translate(-3142.483 -1658.013)" fill="#317830" fill-rule="evenodd"/>
      <g id="Group_5081" data-name="Group 5081" transform="translate(341.106 4.494)">
        <path id="Path_19243" data-name="Path 19243" d="M4085.813,914.22a90.283,90.283,0,0,0-3.437-22.647,15.836,15.836,0,0,0-1.659-3.562,17.2,17.2,0,0,0-4.61-5.533c-2.528-1.906-5.6-1.895-8.358-2.9a5.675,5.675,0,0,0-4.1-.342c-1.5.643-2.831-.4-4.271-.176-.461.071-.575-.494-.545-.927.356-5.139-.758-10.2-.772-15.328a35.861,35.861,0,0,0-1.447-8.885c-.4-1.528-.862-1.509-2.1-.457a26.827,26.827,0,0,1-4.272,3.387c-1.394.766-2.815,4.314-2.409,5.554,1.814,5.546,1.884,11.312,2.177,17.053a1.875,1.875,0,0,1-1.3,2.028c-1.068.418-2.206.672-3.243,1.149a51.884,51.884,0,0,0-8.7,5.639c-3.308,2.415-6.347,4.868-7.714,8.987-.73,2.2-.309,3.242,2.05,3.246a12.539,12.539,0,0,1,1.7.167,25.988,25.988,0,0,0,5.508.368,36.564,36.564,0,0,0,8.226-1.227c.735-.231,1.384-.066,1.116,1.071-.4,1.688-.567,3.43-1,5.107-1.36,5.3-2.521,10.654-4.28,15.852a113.433,113.433,0,0,1-4.312,12.07c-1.944,4.142-5.217,7.392-7.454,11.341a3.983,3.983,0,0,1-3.656,1.936,8.26,8.26,0,0,0-5.562,1.634,7.168,7.168,0,0,0-2.635,6.107,3.827,3.827,0,0,0,3,3.906,45.143,45.143,0,0,0,8.9.812,8.525,8.525,0,0,0,3.77-.718,35.355,35.355,0,0,0,6.242-4.57c1-.858,1.507-1.977,2.415-2.851a25.9,25.9,0,0,0,5.824-9.363c.509-1.285,1.092-2.631,1.592-3.919.7-1.8,2.643-.288,4.023-.5a8.025,8.025,0,0,1,1.916-.086c4.807.44,9.049-1.1,13.159-3.439a53.6,53.6,0,0,0,8.969-6.769C4082.65,923.814,4086.363,919.906,4085.813,914.22Zm-20.776-2.409c-.321,3.41-.855,7.32-3.8,10.56-1.528,1.682-3.512,2.286-5.336,3.293-.348.192-1.377.449-1.024-.659.854-2.677,1.182-5.468,1.858-8.177,1.23-4.932,1.417-9.978,1.93-14.991.067-.663-.167-1.706.464-1.89.707-.206,1.446.495,2.039,1.042C4064.153,903.745,4065.116,907.281,4065.038,911.811Zm16.416-.286c-.051.125-.216.2-.33.3l-.214-.18c.133-.224.255-.632.4-.64C4081.79,910.982,4081.531,911.335,4081.454,911.525Z" transform="translate(-3978.884 -852.718)" fill="#1a1311" fill-rule="evenodd"/>
        <path id="Path_19244" data-name="Path 19244" d="M3763.041,1287.495c.76-1.109,1.776-2.074,1.2-3.256a4.2,4.2,0,0,0-3.361-2.409,68.538,68.538,0,0,0-9.135-.314c-.211,0-.537-.027-.615-.157-.5-.838.026-1.807-.3-2.735-.113-.318.943-.456,1.451-.548,2.994-.537,6.079-.717,8.989-1.534,3.636-1.021,4.344-1.683,3.524-5.324-.276-1.222-.4-2.359-1.783-2.612a24.823,24.823,0,0,0-3.978-.358c-2.766-.052-5.534-.016-8.584-.016a3.113,3.113,0,0,1,2.337-.7c1.986-.2,4.014.277,5.969-.371,3.342-1.107,6.781-2.049,8.906-5.23,1.613-2.414,2.255-5.245,3.411-7.85a6.5,6.5,0,0,0,.258-5.255c-1.635-4.42-4.545-6.327-9.275-6.61-2.553-.153-5.063.254-7.59.066a3.4,3.4,0,0,0-2.021.369c-2.213,1.328-4.844.972-7.129,1.812-1.994.732-4.341.433-6.034,1.741-4.18,3.231-6.491,7.508-6.057,12.905.152,1.9.293,3.932,2.18,5.24a17.256,17.256,0,0,0,8.122,3.045c.538.057,1.216-.332,1.218.676,0,.78.081,1.411-1.055,1.595-3.557.574-7.144.749-10.727.987a4.032,4.032,0,0,0-3.538,2.8c-.5,1.895.485,3.419,1.052,5.112.637,1.906,1.661,2.943,3.825,3.039a38.351,38.351,0,0,0-10.27,8.815,4.47,4.47,0,0,0-1.291,3.964,9.379,9.379,0,0,0,5.2,6.865c2.908,1.465,5.926.291,8.6-.353,4.058-.979,8.3-1.919,11.964-4.043C3753.479,1293.972,3759.473,1292.7,3763.041,1287.495Zm-18.834-37.428c-.54,1.359.629,2.769-.883,3.39a19.124,19.124,0,0,1-3.442.723C3740.459,1252.065,3742.033,1251.112,3744.207,1250.067Zm-.673,9.608c-1.695.12-3.239-.8-4.958-.719,1.537-.931,3.373-.822,5-1.464.5-.2.109,1.17.766,1.67C3744.618,1259.376,3743.961,1259.644,3743.534,1259.675Zm-1.764,24.23a22.706,22.706,0,0,0-4.352,1.479c-.367.157-.932.73-1.11.12-.105-.362-.649-1.021.215-1.6a59.156,59.156,0,0,1,8.361-4.8c.094.1.156.134.159.173C3745.346,1283.078,3745.364,1283.161,3741.77,1283.9Zm6.745-34.4c-.458-1.156.455-1.594,1.418-1.934,1.99-.7,3.978-1.418,6-2a3.765,3.765,0,0,1,2.389-.043c.85.391,2.342.317,2.183,1.948-.14,1.443-.584,2.779-2.128,3.112-2.347.505-4.74.789-7.115,1.164-.115.018-.234,0-.348.014C3748.424,1252.154,3748.425,1252.155,3748.515,1249.5Zm7.095,5.45c-.75,3.261-3.831,3.006-5.842,4.422C3749.469,1256.318,3749.469,1256.318,3755.61,1254.954Z" transform="translate(-3718.759 -1194.874)" fill="#1a1311" fill-rule="evenodd"/>
        <path id="Path_19245" data-name="Path 19245" d="M3794.573,974.653a52.81,52.81,0,0,0,12.939,1.224,39.545,39.545,0,0,0,10.241-.832c1.479-.381,2.426-1.073,2.192-2.9-.243-1.9-.727-3.758-.995-5.642a6.664,6.664,0,0,0-4.607-5.733c-2.185-.856-4.447-1.457-6.622-2.37-3.519-1.477-7.193-2.6-10.778-3.929-3.642-1.354-8.636.9-10.319,4.429a9.943,9.943,0,0,0-.3,8.58A11.055,11.055,0,0,0,3794.573,974.653Z" transform="translate(-3773.961 -941.766)" fill="#1a1311" fill-rule="evenodd"/>
        <path id="Path_19246" data-name="Path 19246" d="M3702.132,1147.175c4.451-.519,8.791-1.918,13.34-1.714a2.11,2.11,0,0,0,.517-.076,107.534,107.534,0,0,1,17.58-2.087c2.287-.1,4.77.121,6.811-1.514.821-.657,1.227-2.325.38-2.7-1.906-.851-3.616-2.059-5.791-2.447a55.169,55.169,0,0,1-6.464-1.127c-4.286-1.308-8.714-1.439-13.1-2-2.095-.266-4.183-.171-6.264-.365-2.692-.252-5.3-1.179-8.5-.958-2.769-.848-5.144.98-7.539,2.594-1.727,1.164-3.133,2.84-2.347,4.992C3692.594,1144.8,3696.722,1147.807,3702.132,1147.175Zm8.683-11.4c-2.419.414-4.886-.009-7.328.277C3705.893,1135.341,3708.363,1135.857,3710.815,1135.776Z" transform="translate(-3690.537 -1098.052)" fill="#1a1311" fill-rule="evenodd"/>
      </g>
      <path id="Path_19247" data-name="Path 19247" d="M1603.861,1605.669c.087.05.4.079.241.394a.521.521,0,0,1-.4.227c-.287-.006-.36-.24-.31-.483C1603.431,1605.62,1603.579,1605.555,1603.861,1605.669Z" transform="translate(-1515.802 -1509.662)" fill="#1a1311" fill-rule="evenodd"/>
    </g>
  </g>
</svg>
