<svg xmlns="http://www.w3.org/2000/svg" width="448.09" height="209.383" viewBox="0 0 448.09 209.383">
  <g id="ocean_logo" transform="translate(-1166 -198.01)">
    <path id="Path_19701" data-name="Path 19701" d="M12.141-19.2a.948.948,0,0,1,.52.273A7.7,7.7,0,0,1,14.328-17.2q0,.383-.219.383H4.648A12.512,12.512,0,0,0,2-16.6a10.048,10.048,0,0,0-.41-1.148,21.03,21.03,0,0,0,3.063.191H7.82a4.016,4.016,0,0,1-.93-1.2,7.586,7.586,0,0,0-1.75-2.187.359.359,0,0,0,.191-.3q3.746.355,3.883,2.188a3.3,3.3,0,0,1-.109.9.9.9,0,0,1-.574.6h2.105q.629-.82,1.2-1.449Q12.031-19.2,12.141-19.2Zm.738,6.18a1.114,1.114,0,0,1,.492.273,6.583,6.583,0,0,1,1.668,1.75q0,.328-.191.328H4.348a12.854,12.854,0,0,0-2.707.219q-.137-.465-.383-1.121a21.283,21.283,0,0,0,3.09.191H8.7a19.936,19.936,0,0,0,1.121-5.168q3.363,1.23,3.363,1.613t-1.5.438a9.921,9.921,0,0,1-2.242,3.117h1.941a14.5,14.5,0,0,1,1.2-1.449Q12.77-13.016,12.879-13.016ZM6.727-10.062q3.418.383,3.773.957,0,.383-.52.547-.738.355-.738.492V-6.4h1.367q.656-.9,1.258-1.613.219-.219.328-.219a1.14,1.14,0,0,1,.574.3A9.07,9.07,0,0,1,14.547-6.07q0,.355-.219.355H9.242v1.668q3.883.52,4.02,2.461a3.313,3.313,0,0,1-.082.793.88.88,0,0,1-.875.6q-.52,0-1.531-1.367A7.644,7.644,0,0,0,9.242-3.336V3.637q0,.711-1.559.793-.9,0-.9-.465Q6.836.93,6.836-2.57A13.037,13.037,0,0,1,1.367,2.3q-.109,0-.219-.328A14.982,14.982,0,0,0,5.66-4.785a4.936,4.936,0,0,0,.3-.93H4.867a11.164,11.164,0,0,0-2.652.246A9.1,9.1,0,0,0,1.832-6.59,20.374,20.374,0,0,0,4.867-6.4h2V-8.449Q6.754-9.379,6.727-10.062ZM20.48-11.156H18.1v.574a32.062,32.062,0,0,1-.574,7.055,11.176,11.176,0,0,1-1.5,3.992,9.584,9.584,0,0,1-3.172,3.691.516.516,0,0,1-.383-.246,18.41,18.41,0,0,0,2.3-5.5,38.427,38.427,0,0,0,.793-8.887q0-5.25-.055-6.48,0-1.066-.082-2.434l2.543,1.121a12.4,12.4,0,0,0,5.414-2.816Q26.5-18.949,26.5-18.594t-.574.355q-1.176-.164-1.887-.246a21.758,21.758,0,0,1-5.988.93l.055,5.605h4.4a9.306,9.306,0,0,1,1.531-1.8.223.223,0,0,1,.164-.055,3.534,3.534,0,0,1,1.121.82,4.763,4.763,0,0,1,1.176,1.34q0,.438-.191.492H23.133V-.629q.109,1.75.109,4.293,0,.6-1.586.656-1.285,0-1.312-.41.137-1.34.137-4.7ZM3.965-16.379q3.309.848,3.309,3.254a1.189,1.189,0,0,1-1.285,1.258q-.684,0-.9-.875a7.871,7.871,0,0,1-.164-1.066,5.683,5.683,0,0,0-.246-1.121A2.662,2.662,0,0,0,3.8-16.242Q3.965-16.324,3.965-16.379Zm51.171-4.758a2.936,2.936,0,0,1,1.176.629q1.094.793,1.094,1.094,0,.219-.465.465a3.4,3.4,0,0,0-.711.574V-5.523q.055,6.617.137,8.914,0,.82-1.75.82-.684,0-.684-.574V2.844H35.777v.793q-.164.848-1.531.848-.848,0-1.012-.273,0-5.961.109-11.648v-7.629a57.155,57.155,0,0,0-.219-5.8l2.461.957h18.1Q54.835-21.137,55.136-21.137ZM35.777,2.078H53.933V-19.168H35.777ZM51.308-16.187a2.9,2.9,0,0,1,.52.383q1.313,1.148,1.313,1.449,0,.383-.273.383H48v1.285a32.558,32.558,0,0,0,.629,5.031,20.193,20.193,0,0,0,1.121-4.484q3.363,1.176,3.391,1.586-.027.219-.684.328l-.738.137a19.94,19.94,0,0,1-2.242,5.2,7.56,7.56,0,0,0,1.668,2.57Q51.8-2.352,53.195-5q.246.109.41.191a16.576,16.576,0,0,0-1.176,3.391,4.727,4.727,0,0,0,.246,1.094A2.117,2.117,0,0,1,53.058.793q-.055.547-.766.547-2.023,0-3.828-3.855-.191-.3-.328-.547a13.3,13.3,0,0,1-6.727,4.156q-.027-.109-.082-.3a16.485,16.485,0,0,0,5.961-5.715,29.428,29.428,0,0,1-1.449-9.051H41.191a13.006,13.006,0,0,0-3.992.355,13.072,13.072,0,0,0-.656-1.477,23.315,23.315,0,0,0,4.512.3h4.758v-.848a24.393,24.393,0,0,0-.246-3.336q3.5.684,3.5,1.066,0,.219-.328.3-.656.191-.711.355,0,1.477-.027,2.461h1.7q.383-.438.629-.711a.45.45,0,0,1-.137.027q-.465,0-.6-1.039a5.927,5.927,0,0,0-.41-1.34,4.459,4.459,0,0,0-.574-.793,1.325,1.325,0,0,1,.164-.191,3.114,3.114,0,0,1,1.34.574,2,2,0,0,1,1.039,1.7,1.065,1.065,0,0,1-.055.383ZM37.554-12.031l1.832.711h2.352q.875-1.2,1.2-1.23a3.34,3.34,0,0,1,1.176.684q.793.6.793.875a.582.582,0,0,1-.273.41,1.637,1.637,0,0,0-.574.52v2.6q.109,1.5.109,1.941,0,.738-1.094.738-.875,0-.93-.383v-.437H39.659V-5q-.164.684-1.2.684-.684,0-.82-.246,0-1.777.082-3.473v-2.27A6.066,6.066,0,0,0,37.554-12.031Zm2.105,5.715h2.488v-4.32H39.659ZM45.1-4.211a3.049,3.049,0,0,1,.219.41A23.886,23.886,0,0,1,38.538-.547Q38.32.574,38.019.574q-.219,0-.574-1.039-.383-1.012-.793-2.543a12.909,12.909,0,0,0,2.406.164A17.294,17.294,0,0,0,45.1-4.211ZM83.256-20.645a4.661,4.661,0,0,1,1.586.875q1.121.82,1.121,1.2,0,.3-.52.574a3.862,3.862,0,0,0-.875.656v3.09q.164,1.8.164,2.324,0,.984-1.586,1.012-1.176,0-1.23-.574v-1.121H76.8a24.948,24.948,0,0,0,.9,4.84h5.223A9.4,9.4,0,0,1,84.705-9.9a.337.337,0,0,1,.191-.055,4.722,4.722,0,0,1,1.258.9,5.241,5.241,0,0,1,1.395,1.613q0,.383-.191.438H77.952a13.234,13.234,0,0,0,1.641,3.254,11.558,11.558,0,0,0,5.8,4.621q.766-.191,1.531-4.648.191.055.438.137A44.725,44.725,0,0,0,87.112.9a3.51,3.51,0,0,0,.848,1.723,1.312,1.312,0,0,1,.273.766q0,.793-1.23.848a5.133,5.133,0,0,1-1.914-.328,15.852,15.852,0,0,1-7.6-6.371A18.617,18.617,0,0,1,75.463-7h-6.4V-.492q3.5-.492,7.137-1.23a5.2,5.2,0,0,1,.219.492A49.559,49.559,0,0,1,66.3,2.762a3.664,3.664,0,0,0-.328,1.367q-.055.465-.41.465-.465,0-1.559-2.406A9.709,9.709,0,0,0,63.131.137q1.641-.109,3.254-.3V-17.828q-.027-.93-.191-2.625,1.75.793,3.09,1.422H81.616Q82.791-20.617,83.256-20.645ZM75.245-7.766a21.449,21.449,0,0,1-.766-4.84H69.065v4.84ZM69.065-18.32v5H81.916v-5Zm36.3-2.953q3.8.766,3.8,1.313,0,.383-1.367.6a15.766,15.766,0,0,1-.957,2.078h7.793a9.232,9.232,0,0,1,1.641-1.941.337.337,0,0,1,.191-.055,4.412,4.412,0,0,1,1.2.848,5.033,5.033,0,0,1,1.285,1.5q0,.383-.191.438H106.427a16.362,16.362,0,0,1-2.379,3.363q3.746.6,3.746.984,0,.41-1.422.9V-9.16q1.395-.3,3.09-.711v-3.637a11.661,11.661,0,0,1-.191-1.641q3.418.438,3.828,1.012,0,.328-.547.547-.738.355-.738.465V-10.5q1.422-.355,2.98-.766.9-1.832,1.367-1.832,2.625,1.012,2.625,1.477,0,.383-.684.82a2.456,2.456,0,0,0-.492.465q-.082,6.07-.82,7.027a3.36,3.36,0,0,1-3.062,1.5q-.3-.082-.41-.82a1.858,1.858,0,0,0-.766-1.148,4.094,4.094,0,0,0-.738-.383V-1.23q0,.711-1.559.793-.9,0-.9-.465.082-3.719.109-8.121-1.777.465-3.09.82V.137q0,1.121,1.258,1.2h7A2.039,2.039,0,0,0,116.6.273a12.551,12.551,0,0,0,.957-3.172h.465V.246a.686.686,0,0,0,.465.6q.6.328.6.738-.082,1.23-2.324,1.613-2.242.219-4.566.219-4.676,0-5.961-.164-2.105-.109-2.105-3.582V-7.574a11.915,11.915,0,0,0-1.914.6,6.872,6.872,0,0,0-.848-1.312,16.069,16.069,0,0,0,2.762-.383V-10.5a15.666,15.666,0,0,0-.137-2.57,11.339,11.339,0,0,1-2,1.7q-.109-.246-.137-.3a13,13,0,0,0,1.285-2.187.243.243,0,0,1-.109.027h-3.5v4.7a17.928,17.928,0,0,0,3.227-.984q.082.027.164.246a16.45,16.45,0,0,1-3.391,2.406V.766q0,3.527-2.625,3.527-.41,0-.465-.492a2.442,2.442,0,0,0-.793-1.395A3.251,3.251,0,0,0,94.2,1.75a1.062,1.062,0,0,0,.082-.465q.6.055,2.488.055.41,0,.41-.738V-6.344q-.793.328-1.559.6,0,.848-.246.848-.164,0-.6-.82Q94.4-6.48,93.658-8.2q1.941-.191,3.527-.437v-5.168a10.277,10.277,0,0,0-2.926.246,13.31,13.31,0,0,1-.574-1.477,25.367,25.367,0,0,0,3.5.355v-2.9a23.694,23.694,0,0,0-.191-3.582q3.527.6,3.828,1.039a.258.258,0,0,1-.219.273q-.273.109-.684.3-.383.219-.383.355v4.566h.246q1.23-1.7,1.586-1.723.273,0,1.094.93a4.435,4.435,0,0,1,.875,1.121A24.707,24.707,0,0,0,105.361-21.273ZM111.814-9.6V-4.73a7.171,7.171,0,0,0,1.449.219q1.285,0,1.477-.465.492-.984.492-5.5Q113.373-9.98,111.814-9.6Zm24.456-9.625q.164,0,.766.738a4.554,4.554,0,0,1,.629.957q0,.437-.328.465h-2.625l.055,3.828q-.055.656-1.34.656-1.012,0-1.012-.465v-.492h-.574v2.816h1.613q1.012-1.477,1.395-1.5a4.308,4.308,0,0,1,1.395.766,4.063,4.063,0,0,1,.793.738H140.7V-15.75h-.93a12.512,12.512,0,0,0-2.652.219,10.565,10.565,0,0,0-.383-1.148,20.374,20.374,0,0,0,3.035.191h.93v-1.5a25.021,25.021,0,0,0-.164-3.227q4.211.629,4.211,1.094,0,.383-.52.492-.875.383-.9.656v2.488h1.395a20.421,20.421,0,0,1,1.395-1.7q.219-.246.355-.246a1.135,1.135,0,0,1,.547.328,8.234,8.234,0,0,1,1.941,1.969q0,.383-.191.383h-5.441v5.031h2.051a8.067,8.067,0,0,1,1.5-1.75.236.236,0,0,1,.164-.082,3.759,3.759,0,0,1,1.121.82,4.764,4.764,0,0,1,1.176,1.34q0,.438-.191.492H136.762a4.444,4.444,0,0,0-.738.574v2.516q.164,1.477.164,1.887,0,.875-1.367.9-1.012,0-1.066-.492V-5.2h-1.914v3.281h1.7A9.039,9.039,0,0,1,135.2-3.691a.9.9,0,0,1,.219.027,4.31,4.31,0,0,1,.656.41q1.613,1.395,1.613,1.777t-.3.383h-5.551V2.844q.027.492.027,1.039,0,.656-1.34.656-.93,0-.984-.355V-1.094h-1.449a8.311,8.311,0,0,0-3.172.355,13.07,13.07,0,0,0-.656-1.477,11.89,11.89,0,0,0,3.2.3h2.078V-5.2h-1.668v.438q-.164.793-1.422.793-.793,0-.957-.273,0-1.777.109-3.445v-2.27a6.1,6.1,0,0,0-.191-1.723l2.516.957h1.613v-2.816h-.437v.3q-.027.656-1.312.656-1.012,0-1.012-.465.027-2.133.027-3.965a8.1,8.1,0,0,0-2.105.191q-.246-.574-.52-1.449a17.148,17.148,0,0,0,2.625.273V-19.3q-.027-1.23-.109-1.887,3.527.574,3.527.957,0,.191-.465.41-.711.3-.711.465v1.477h3.418v-1.449q-.055-1.23-.137-1.887,3.527.574,3.527.957,0,.191-.492.41-.684.3-.684.465l.027,1.5h.383Q136-19.223,136.27-19.223Zm-7.164,4.949h3.336q.027-1.5.027-2.789h-3.418Zm-1.23,8.313h1.668V-9.98h-1.668Zm3.965-4.02v4.02h1.914V-9.98Zm8.75.82q4.238.6,4.238,1.094,0,.41-.547.52-.875.328-.9.6v2.352h1.559a13.805,13.805,0,0,1,1.367-1.7q.219-.219.328-.219a1.266,1.266,0,0,1,.6.3,7.838,7.838,0,0,1,1.914,2q0,.355-.219.355H143.38V2h2.461a8.4,8.4,0,0,1,1.7-1.777.9.9,0,0,1,.219.027,6.79,6.79,0,0,1,.629.438Q150,2.051,150,2.434q0,.41-.273.41H138.567a13.781,13.781,0,0,0-3.773.3,8.49,8.49,0,0,0-.684-1.422A20.2,20.2,0,0,0,138.13,2h2.625V-3.855h-1.039a14.252,14.252,0,0,0-2.652.191q-.137-.465-.383-1.121a20.374,20.374,0,0,0,3.035.191h1.039V-5.961A24.746,24.746,0,0,0,140.591-9.16Zm22.624-12.031q5.824.574,6.016,3.227a3.03,3.03,0,0,1-.137.957,1.047,1.047,0,0,1-1.066.766q-.738,0-2.051-1.723a10.426,10.426,0,0,0-2.926-2.871A.718.718,0,0,0,163.215-21.191ZM175.629-16.9a5.256,5.256,0,0,1,1.75,1.367q1.2,1.176,1.2,1.723,0,.438-2,.574A31.8,31.8,0,0,1,162.23-1.859a1.659,1.659,0,0,0,.246.355Q163.9.574,170.707.629q8.2-.273,9.9-.766l.137.629a2.051,2.051,0,0,0-1.367,1.449q0,1.094-.465,1.094-2.516.055-7.328.055-6.207-.219-8.285-1.832a7.47,7.47,0,0,1-2.844-5.387,14.406,14.406,0,0,1-1.969,6.262,3.968,3.968,0,0,1,.438,1.34q-.109.383-.328.383-.547,0-3.473-2.133a21.32,21.32,0,0,0,4.758-6.836.979.979,0,0,1,.6-.273q.684,0,.93,1.5a12.064,12.064,0,0,0,.465,1.285,34.392,34.392,0,0,0,7.109-5.5,35.261,35.261,0,0,0,4.895-6.426H160.891q-2.16.082-3.172.191a4.525,4.525,0,0,0-.684-1.312,29.48,29.48,0,0,0,4.457.355h12.113Q175.219-16.9,175.629-16.9Zm21.8-4.512q3.609,1.148,3.609,1.422,0,.52-1.422.684-.41.848-.793,1.613h8.2a10.3,10.3,0,0,1,1.641-1.969.606.606,0,0,1,.191-.027,3.626,3.626,0,0,1,1.2.875,5.652,5.652,0,0,1,1.285,1.449q0,.437-.191.492H198.39a17.818,17.818,0,0,1-1.5,2.16q1.23.547,1.75.82H206.1q1.176-1.367,1.477-1.395a2.734,2.734,0,0,1,1.258.766q1.094.875,1.094,1.258a.478.478,0,0,1-.355.465q-.41.383-.684.684-.191,2.652-.355,4.73h.055q1.039-2.215,1.34-2.215.219,0,.848,1.148a5.791,5.791,0,0,1,.738,1.422q0,.437-.3.465H208.48q-.328,4.074-.574,5.77h.246q1.066-2.023,1.395-2.133.219,0,1.2,1.285a3.906,3.906,0,0,1,.82,1.23q0,.355-.219.355h-3.582a1.062,1.062,0,0,1-.082.328q-.684,3.5-3.117,4.184a.58.58,0,0,1-.656-.52q0-.793-1.34-1.586a9.154,9.154,0,0,0-1.941-.793,3.751,3.751,0,0,0,.027-.465,30.717,30.717,0,0,0,3.609.3q.711,0,1.121-1.449h-8.422a4.427,4.427,0,0,1-.219,1.094q-.137.492-1.258.492-1.5,0-1.5-.465.766-4.4,1.258-7.574a8.5,8.5,0,0,0-2.16.191q-.219-.574-.52-1.449a19.831,19.831,0,0,0,2.816.3q.656-4.293.848-6.48a14.128,14.128,0,0,1-2.051,1.8,4.365,4.365,0,0,0-.465-.273A21.663,21.663,0,0,0,197.433-21.41ZM197.1-.793h8.449a.447.447,0,0,0,.027-.109,37.844,37.844,0,0,0,.656-5.66h-8.395Q197.378-2.707,197.1-.793Zm.848-6.59h8.34q.164-2.488.273-5.824h-7.875Q198.28-9.9,197.952-7.383Zm3.746-4.43q2.844.164,2.844,2.16,0,.82-.547.984a1.172,1.172,0,0,1-.41.082q-.328,0-1.121-.848a6.354,6.354,0,0,0-2.6-2.051,3.245,3.245,0,0,1,.082-.355Q200.222-11.812,201.7-11.812Zm-.82,6.262q3.254.246,3.254,2.652-.027.82-.574,1.012a1.7,1.7,0,0,1-.41.055q-.383,0-1.23-.984a6.921,6.921,0,0,0-2.926-2.406q.055-.164.109-.355Q199.4-5.551,200.878-5.551Zm-7.465-8.094q0,.109.438.164Q193.113-10.8,191.8-6.4a34.732,34.732,0,0,0-1.2,4.949,11.029,11.029,0,0,0,.3,2.3,8.8,8.8,0,0,1,.41,1.941q0,1.285-1.422,1.285a1.517,1.517,0,0,1-1.723-1.641q0-.656.246-2.871,0-1.367-.629-1.75a5.512,5.512,0,0,0-1.422-.547,2.746,2.746,0,0,1,.082-.492q.41,0,.766.027a2.351,2.351,0,0,0,2.27-1.5ZM187.7-19.8q4.375.383,4.512,2.023a3.557,3.557,0,0,1-.137,1.094,1.224,1.224,0,0,1-1.23.9q-.465,0-1.367-1.367a7.235,7.235,0,0,0-2-2.242A.688.688,0,0,0,187.7-19.8Zm-1.367,6.535q3.855.355,3.992,2.023a3.9,3.9,0,0,1-.137,1.094,1.3,1.3,0,0,1-1.258.875q-.41,0-1.121-1.367a7.352,7.352,0,0,0-1.7-2.215A.688.688,0,0,0,186.331-13.262Zm53.441-6.863a3.538,3.538,0,0,1,1.039.738,4.442,4.442,0,0,1,1.066,1.258q0,.383-.219.438H221.37l.027,4.648q0,2.488-.082,4.375a23.09,23.09,0,0,0,4.621-2.953A20.175,20.175,0,0,0,229.3-15.2h-5.059a8.4,8.4,0,0,0-1.23.191,5.681,5.681,0,0,0-.684-1.312,24.755,24.755,0,0,0,4.484.41h2.27q1.313-1.5,1.613-1.5a4.209,4.209,0,0,1,1.395,1.094q.984.957.984,1.395,0,.219-.465.328.438.41.875.766a5.747,5.747,0,0,0,2-2.734q2.6.957,2.6,1.23-.027.3-1.2.328a9.991,9.991,0,0,1-3.008,1.477,12.509,12.509,0,0,0,2.105,1.313,7.6,7.6,0,0,0,2.488-2.871q.547.383,1.832,1.094.684.438.684.6-.027.219-.383.219a5.136,5.136,0,0,0-.848.082,15.628,15.628,0,0,1-1.832.875,9.642,9.642,0,0,1-1.094.383,15.342,15.342,0,0,0,5.605,1.121,1.911,1.911,0,0,1-.055.465,1.627,1.627,0,0,0-.629.41,6.492,6.492,0,0,0-.465.984q-.164.465-.492.465a5.459,5.459,0,0,1-2.051-.547q-.3.164-.738.465v1.148q0,.738.465.766h.492a.994.994,0,0,0,.848-.328,1.272,1.272,0,0,0,.273-.41h.219a3.88,3.88,0,0,1,.9.766q.52.547.52.82,0,.93-2.68.957h-.273a5.745,5.745,0,0,1,.547.438,4.211,4.211,0,0,1,.738.766q0,.191-.109.246-.492.191-.547.3a9.4,9.4,0,0,1-2.816,4.074l.328.164a12,12,0,0,0,4.594.656,3.7,3.7,0,0,1-.082.383q-.3,0-.793.793-.082.574-.137,1.066a.443.443,0,0,1-.437.383,8.609,8.609,0,0,1-5.059-2.3,18.086,18.086,0,0,1-6.672,2.27,2.249,2.249,0,0,1-.191-.328,22.959,22.959,0,0,0,4.512-2.215,9.8,9.8,0,0,0,1.23-.848,9.433,9.433,0,0,1-1.914-4.32,12.179,12.179,0,0,0-1.258.164,5.452,5.452,0,0,0-.383-.848q-.383.082-.711.164a.967.967,0,0,1-.191-.355,4.7,4.7,0,0,0,1.477-1.258q.848-.684.848-3.5a11.113,11.113,0,0,0-.109-1.75L233.7-9.6h1.832q.355-.438.629-.738-.164-.082-.3-.164a11.4,11.4,0,0,1-4.074-3.992,1.841,1.841,0,0,1-.3.027,20.079,20.079,0,0,1-6.426,4.895h2.078q.957-1.012,1.285-1.012a3.128,3.128,0,0,1,1.285.711q.9.656.9.984,0,.219-.383.41a2.961,2.961,0,0,0-.684.547v1.422a8.556,8.556,0,0,1,.137,1.066q0,.766-1.23.793-.957,0-.984-.41v-.656h-2.406q-.3,1.668-.52,2.652H227q.984-1.148,1.23-1.148.328,0,1.176.738.9.766.9,1.039,0,.219-.41.41l-.547.328a9.4,9.4,0,0,1-1.121,4.1q-.465,1.258-2.844,1.586-.383,0-.492-.465a2.03,2.03,0,0,0-.9-1.258,4.154,4.154,0,0,0-1.559-.684,2.287,2.287,0,0,0,.109-.465,20.227,20.227,0,0,0,2.625.52q.957,0,1.148-.437a9.53,9.53,0,0,0,.93-3.555H224.4a5.636,5.636,0,0,1-.246.848q-.137.41-1.066.41-1.312,0-1.312-.383a42.065,42.065,0,0,0,1.258-5.8q1.285.547,1.832.848h2.6V-8.832H223.5q-1.094.465-2.242.848a25.381,25.381,0,0,1-.273,2.9,19.514,19.514,0,0,1-1.176,4.457,10.267,10.267,0,0,1-2.488,4.156.528.528,0,0,1-.383-.219A29.821,29.821,0,0,0,218.5-2.9a68.773,68.773,0,0,0,.547-10.035q0-3.91-.027-4.84a17.745,17.745,0,0,0-.109-1.832l2.57,1.121h8.258a8.1,8.1,0,0,1-.656-.684A7.6,7.6,0,0,0,226.948-21a.586.586,0,0,0,.191-.328q4.457.246,4.621,1.5a2.975,2.975,0,0,1-.137.984.912.912,0,0,1-.191.355h6.754a7.355,7.355,0,0,1,1.422-1.613A.516.516,0,0,1,239.772-20.125ZM233.838-8.8q0,1.148-.055,1.641-.273,2.188-3.035,3.117a23.411,23.411,0,0,0,2.461.109h3.582a11.276,11.276,0,0,1,.9-.875q-1.887-.055-1.914-1.8V-8.8Zm-1.5,5.578A6.831,6.831,0,0,0,234.959.109a7.731,7.731,0,0,0,1.914-3.363H233.4Q232.8-3.254,232.334-3.227Zm-9.27-11.238a7.674,7.674,0,0,1,1.668.328q1.34.41,1.34,1.039a1.505,1.505,0,0,1-.492,1.258,1.353,1.353,0,0,1-.875.246q-.492,0-.629-.629a2.806,2.806,0,0,0-.41-.875,6.529,6.529,0,0,0-.848-1.066Q222.928-14.3,223.065-14.465ZM270.38-21.3a5.11,5.11,0,0,1,.656.438q1.8,1.5,1.8,1.914,0,.383-.328.383H261.576v3.746h4.758q1.258-1.312,1.531-1.312a5.234,5.234,0,0,1,1.23.684q1.148.82,1.176,1.148,0,.3-.41.547a5.449,5.449,0,0,0-.656.52v8.7h.355q1.23-1.832,1.586-1.832.246,0,1.066.984a3.552,3.552,0,0,1,.93,1.258q0,.383-.3.41H269.2V.9a3.178,3.178,0,0,1-2.762,3.227q-.547-.109-.547-.574a2.578,2.578,0,0,0-.793-1.34,6.336,6.336,0,0,0-1.859-.875A2.043,2.043,0,0,0,263.3.9a18.482,18.482,0,0,0,2.516.219q.93,0,.93-.52v-4.32H254.138V3.527q-.219.848-1.559.848-.82,0-1.012-.273,0-4.047.055-7.793a16.1,16.1,0,0,0-3.363.219,9.531,9.531,0,0,1-.574-1.449,25.786,25.786,0,0,0,3.992.355v-6.672a45.039,45.039,0,0,0-.219-4.621l2.707,1.039h4.895v-3.746h-4.293a29.667,29.667,0,0,0-6.07.355,8.723,8.723,0,0,0-.656-1.477,54.749,54.749,0,0,0,6.945.3H268.3a9.249,9.249,0,0,1,1.8-1.941A1.719,1.719,0,0,1,270.38-21.3ZM254.138-4.539h4.922V-9.133h-4.922Zm7.437,0h5.168V-9.133h-5.168Zm-2.516-9.57h-4.922v4.266h4.922Zm7.684,4.266v-4.266h-5.168v4.266ZM290-21.273q4.238.629,4.238,1.094,0,.383-.547.492-.875.383-.9.656v5.277h4.648a9.45,9.45,0,0,1,1.777-2.105.337.337,0,0,1,.191-.055,4.722,4.722,0,0,1,1.258.9,5.241,5.241,0,0,1,1.395,1.613q0,.383-.191.438h-9.078v6.207h3.883a9.35,9.35,0,0,1,1.8-1.914,1.016,1.016,0,0,1,.246.027,3.094,3.094,0,0,1,.684.438q1.8,1.477,1.8,1.941,0,.355-.328.355h-8.094V2.16h5.906a12.146,12.146,0,0,1,2.105-2.3,1.391,1.391,0,0,1,.273.027,3.1,3.1,0,0,1,.793.547q2.078,1.7,2.078,2.188,0,.41-.273.41H285.7a35.775,35.775,0,0,0-6.125.3,7.155,7.155,0,0,0-.656-1.422,63.6,63.6,0,0,0,6.781.246h4.43V-5.906h-2.98a18.963,18.963,0,0,0-4.676.328q-.3-.711-.684-1.449a32.4,32.4,0,0,0,5.086.273h3.254v-6.207h-5.66a22.367,22.367,0,0,1-4.812,6.152,3.33,3.33,0,0,0-.492-.547,39.5,39.5,0,0,0,4.676-12.2q4.32,1.477,4.32,2.133,0,.437-1.941.574a32.111,32.111,0,0,1-1.312,3.09h5.223v-4.293A29.974,29.974,0,0,0,290-21.273Zm22.57.137a6.455,6.455,0,0,1,2.105.738,2.714,2.714,0,0,1,1.7,2.27,1.7,1.7,0,0,1-.52,1.367,1.525,1.525,0,0,1-.93.246q-.793,0-1.066-1.34a6.833,6.833,0,0,0-.711-1.8,6.148,6.148,0,0,0-.848-1.148Q312.4-20.945,312.566-21.137Zm6.152,3.363a1.224,1.224,0,0,1,.6.328,8.515,8.515,0,0,1,1.914,2q0,.328-.219.328h-8.7a12.854,12.854,0,0,0-2.707.219q-.137-.465-.383-1.121a18.1,18.1,0,0,0,3.09.219h4.7a15.8,15.8,0,0,1,1.367-1.723Q318.609-17.773,318.719-17.773Zm-.93,4.238a1,1,0,0,1,.492.246,7.4,7.4,0,0,1,1.531,1.586q0,.383-.219.383h-6.207a12.854,12.854,0,0,0-2.707.219,9.1,9.1,0,0,0-.383-1.121,21.7,21.7,0,0,0,3.09.191h3.008q.6-.766,1.121-1.34A.568.568,0,0,1,317.789-13.535Zm-.055,3.609a1.209,1.209,0,0,1,.547.273,7.749,7.749,0,0,1,1.641,1.723q0,.383-.219.383h-5.988a12.279,12.279,0,0,0-2.652.219q-.164-.492-.41-1.148a21.031,21.031,0,0,0,3.063.191h2.543a17.5,17.5,0,0,1,1.176-1.449Q317.652-9.926,317.734-9.926Zm-7.027,4.785,2.023.766h3.418q1.012-1.258,1.395-1.285a4.042,4.042,0,0,1,1.367.793q.957.711.957,1.039a.658.658,0,0,1-.3.465,4.71,4.71,0,0,0-.574.6V.656q.164,1.969.164,2.57,0,.848-1.367.875-.984,0-1.066-.492V2.023h-3.582v1.5q-.137.793-1.395.793-.766,0-.957-.273,0-2.188.082-4.266V-3.008A9.121,9.121,0,0,0,310.707-5.141Zm2.434,6.4h3.582V-3.664h-3.582ZM332.172-13.48a1.392,1.392,0,0,1,.6.328,8.971,8.971,0,0,1,2.051,2.133q0,.328-.191.328H328.4v7.848q.109,4.73.164,6.7,0,.711-1.887.711-.957,0-.957-.547.082-1.668.109-6.973v-7.738h-2a12.854,12.854,0,0,0-2.707.219q-.137-.465-.383-1.121a21.7,21.7,0,0,0,3.09.191h2v-7.164q-.082-1.367-.246-2.68,1.395.191,3.008.438,1.148.219,1.148.6,0,.273-.52.383-.82.273-.82.438V-11.4h1.914q.766-1.012,1.449-1.832A.78.78,0,0,1,332.172-13.48Zm27.765-6.754a3.264,3.264,0,0,1,1.285.793q1.012.848,1.012,1.176,0,.246-.383.465a6.136,6.136,0,0,0-.793.52v.9h.875a9.885,9.885,0,0,1,1.367-1.5q.137,0,.137.027.246.027,1.285,1.176.574.492.574.793,0,.355-.465.355h-3.773v.793a9.566,9.566,0,0,1,.137,1.5q0,.711-1.723.82-.82,0-.82-.492H353.73v2h5.988a7.828,7.828,0,0,1,1.395-1.395.606.606,0,0,1,.191.027,2.176,2.176,0,0,1,.547.328q1.313,1.148,1.313,1.477,0,.41-.273.41h-9.16v2.078h7.41a7.984,7.984,0,0,1,1.531-1.559.711.711,0,0,1,.219.027,4.118,4.118,0,0,1,.574.355q1.477,1.285,1.477,1.668,0,.355-.3.355H346.894a31.861,31.861,0,0,0-6.043.328,11.468,11.468,0,0,0-.684-1.449,64.657,64.657,0,0,0,7.191.273h3.883v-2.078h-2.816a21.262,21.262,0,0,0-4.922.328,6.927,6.927,0,0,0-.656-1.449,41.486,41.486,0,0,0,5.77.273h2.625v-1.969q-4.566.055-7.355.219a9.417,9.417,0,0,1-.465-1.2q1.449.109,7.82.164v-1.832h-6.1q-1.969,0-3.883.137a8.724,8.724,0,0,1-.574-1.285,36.257,36.257,0,0,0,4.813.3h5.742v-1.777h-.984q-4.238,0-6.234.219a9.894,9.894,0,0,0-.355-1.121q1.613.164,7.027.164h.547q-.027-1.477-.137-2.406,3.938.547,3.938,1.039,0,.328-.465.438-.82.355-.848.6v.328h4.621Q359.527-20.234,359.937-20.234Zm-6.207,2.078v1.777h4.922v-1.777Zm0,2.625v1.887h4.922v-1.887ZM343.421-6.426l2.461.957h13.371q1.066-1.121,1.477-1.148a4.249,4.249,0,0,1,1.5.82q1.039.766,1.039,1.121,0,.246-.465.52a2.867,2.867,0,0,0-.82.629V-1.2q.137,1.34.137,1.75,0,.9-1.449.93-1.094,0-1.148-.492V.957H346.073v.109q-.164.848-1.531.848-.848,0-1.012-.273,0-1.941.109-3.773V-4.594A5.8,5.8,0,0,0,343.421-6.426ZM346.073.219H351.3V-1.859h-5.223ZM354-1.859V.219h5.523V-1.859Zm-7.93-.738H351.3V-4.785h-5.223ZM354-4.785V-2.6h5.523V-4.785ZM363.136.848a3.915,3.915,0,0,1,.6.41q1.668,1.367,1.668,1.8,0,.355-.3.355H347a32.8,32.8,0,0,0-6.152.328,11.468,11.468,0,0,0-.684-1.449,65.014,65.014,0,0,0,7.219.273h13.836a7.7,7.7,0,0,1,1.7-1.723Z" transform="translate(1207 402.799)" fill="#1a202c"/>
    <g id="Group_5082" data-name="Group 5082" transform="translate(1166 198.01)">
      <path id="Path_19203" data-name="Path 19203" d="M3356.654,1307.258c-.1,3.676-.331,7.4-2.148,10.652a11.377,11.377,0,0,1-6.577,5.381c-3.236,1.124-6.446,2.3-9.779,2.271-4.564-.039-9.22-.321-13.467-2.366-2.793-1.345-3.785-3.954-4.125-6.8-.877-7.335,3.735-12.18,8.961-15,1.2-.645,1.558-.182,1.9.928a21.69,21.69,0,0,1,.41,4.291,1.785,1.785,0,0,1-.634,1.539,8.629,8.629,0,0,0-1.058,1.14c-1.281,1.754-1.194,1.931.8,2.8,2.7,1.172,5.351.447,7.977-.171.776-.182,1.072-1.166,1.308-1.953,1.147-3.831,1.93-7.665.827-11.685-.362-1.317-.531-2.705-.807-4.054-.229-1.116-.693-.984-1.479-1.09-5.135-.692-10.339-1.217-15.07-3.527a11.726,11.726,0,0,1-6.931-10.885,7.721,7.721,0,0,1,3.343-6.394c2.249-1.776,3.987-1.628,6.383-.823,2.188.735,4.622.516,6.929.735,2.839.269,5.649-.665,8.42.087.943.256,1.38-.6,2.2-.653a172.871,172.871,0,0,1,19.061-.612c3.374.134,4.769,1.531,5.029,4.905.209,2.712.9,5.362.811,8.126a3.438,3.438,0,0,1-1.561,3.015,36.4,36.4,0,0,1-10.942,5.377c-1.212.37-1.754.6-1.374,2.395A53.5,53.5,0,0,1,3356.654,1307.258Z" transform="translate(-3021.052 -1215.636)" fill="#1a1311" fill-rule="evenodd"/>
      <path id="Path_19204" data-name="Path 19204" d="M1326.452,1142.766c-11.817.1-22.356-2.366-31.612-9.191a17.485,17.485,0,0,1-4.558-4.768,6.389,6.389,0,0,1,.02-7.493,19.24,19.24,0,0,1,2.04-2.385c1.181-1.253,1.958-1.474,3.509-.107,5.112,4.5,11.449,6.409,18.013,7.625a79.671,79.671,0,0,0,21.936.656,141.687,141.687,0,0,0,24.627-4.582c3.5-.965,7.075-1.728,10.367-3.359a1.388,1.388,0,0,1,1.695.572c2.775,3.209,2.888,8.076-1.416,10.585-9.642,5.621-20.2,8.911-31.072,11.1A69.271,69.271,0,0,1,1326.452,1142.766Z" transform="translate(-1239.682 -1081.183)" fill="#1a1311" fill-rule="evenodd"/>
      <path id="Path_19205" data-name="Path 19205" d="M979.8,1031.56c.177,1.6-.309,3.078-.4,4.586-.14,2.367-2.161,3.362-3.62,4.446a24.121,24.121,0,0,1-11.048,4.958c-1.853.257-3.628-.186-5.434-.242a14.117,14.117,0,0,1-4.638-.918,11.4,11.4,0,0,1-6.3-6.16,35.079,35.079,0,0,1-2.494-8.752c-.421-2.027-.722-4.194.44-6.272a19.961,19.961,0,0,0,1.394-4.135c1.443-4.892,5.022-6.287,9.053-6.934a22.728,22.728,0,0,1,8.324.132c3.08.65,5.916,1.712,7.824,4.366a1.894,1.894,0,0,0,.826.711c3.831,1.724,5.532,4.879,5.7,8.892C979.5,1028.046,980.116,1029.8,979.8,1031.56Z" transform="translate(-937.828 -987.996)" fill="#1a1311" fill-rule="evenodd"/>
      <path id="Path_19206" data-name="Path 19206" d="M3047.62,1309.357c0,.175,0,.35,0,.524.1,3.111-1.151,4.752-4.333,5.309-1.555.272-2.837,1.373-4.6,1.141-.885-.116-1.588.692-1.671,1.977-.245,3.752,1.14,7.171,1.969,10.688a68.755,68.755,0,0,1,2.181,11.008,3.067,3.067,0,0,1-3.524,3.353c-1.355-.165-2.726-.352-4.064-.454-3.53-.269-5.3-2.531-7.138-5.117a20.105,20.105,0,0,1-3.56-12.911,17.76,17.76,0,0,1,1.5-6.7c1.21-2.611,1.176-2.722-1.614-3.059a10.4,10.4,0,0,1-6.546-3.531c-2.289-2.48-1.609-6.7,1.05-8.78,2.947-2.307,6.138-2.5,9.667-2.214a24.469,24.469,0,0,0,6.486-.732c3.656-.7,7.142-2.173,10.921-2.324a1.564,1.564,0,0,1,1.838,1.37A42.888,42.888,0,0,1,3047.62,1309.357Z" transform="translate(-2755.812 -1239.006)" fill="#1a1311" fill-rule="evenodd"/>
      <path id="Path_19207" data-name="Path 19207" d="M3698.135,1800.809a11.013,11.013,0,0,1,8.309-1.024c4.93,1.291,9.051,7.752,7.9,12.735a35.844,35.844,0,0,1-2.277,7.575,7.519,7.519,0,0,1-3.635,3.79c-2.409,1.138-5.029,2.349-7.525,2.358-3.529.012-7.4-.432-10.133-3.131-1.518-1.5-3.09-3.218-2.977-5.8.155-3.519,3.591-5.419,5.974-5.39a3.321,3.321,0,0,1,3.127,2.618,4.348,4.348,0,0,0,5.162,3.177c2.758-.374,4.325-1.979,4.339-4.445q0-.875,0-1.75c-.015-2.248-.97-3.464-3.31-4.221a4.248,4.248,0,0,0-4.407,1.71c-.915,1.464-2.041,2.343-3.778,2.177a6.938,6.938,0,0,1-5.278-2.909c-1-1.453-.261-3.086.182-4.525a22.972,22.972,0,0,0,.506-13.082c-.657-2.419,2.619-5.6,5.069-5.165a41.962,41.962,0,0,0,12.756,0,4.755,4.755,0,0,1,4.849,2.634c.924,1.816-.357,2.811-1.419,3.98a6.56,6.56,0,0,1-8.252,1.755,5.138,5.138,0,0,0-.682-.115c-2.9-.813-3.689-.337-3.907,2.563-.057.763-.275,1.468-.387,2.205S3697.734,1799.949,3698.135,1800.809Z" transform="translate(-3347.02 -1667.674)" fill="#704168" fill-rule="evenodd"/>
      <path id="Path_19208" data-name="Path 19208" d="M3338.43,1043.285c-.421-2.743.976-5.237,2.626-7.265,1.491-1.832,3.836-2.981,5.85-4.366a1.269,1.269,0,0,1,1.336.13c3.636,2.576,7.949,3.811,11.79,5.944,2.89,1.606,5.947,2.878,8.771,4.61a3.859,3.859,0,0,1,1.773,3.023,58.534,58.534,0,0,1,.834,8.5c-.032,1.232-.538,1.685-1.673,2-3.57.979-7.17.487-10.738.262a110.92,110.92,0,0,1-12.287-1.943C3342.226,1053.381,3337.851,1048.044,3338.43,1043.285Z" transform="translate(-3040.028 -1005.303)" fill="#1a1311" fill-rule="evenodd"/>
      <path id="Path_19209" data-name="Path 19209" d="M3023.138,1095.743a57.539,57.539,0,0,1-13.932-1.825,14.085,14.085,0,0,1-3.664-1.187c-2.4-1.312-3.039-3.644-2.208-6.191,1.309-4.011,4.8-5.639,7.808-7.825.7-.512,1.6-.191,2.448-.175a46.986,46.986,0,0,0,8.832-.734c3.735-.641,7.479-1.21,11.193-1.98,1.629-.338,2.855,1.113,3.179,3.56.282,2.129.53,4.264.713,6.4.261,3.044-.85,4.72-3.725,6.147-1.006.5-1.768,1.555-2.8,1.93C3028.443,1094.791,3025.949,1096.062,3023.138,1095.743Z" transform="translate(-2745.4 -1044.187)" fill="#1a1311" fill-rule="evenodd"/>
      <path id="Path_19210" data-name="Path 19210" d="M3071.966,1766.784c-.142-2.416.751-4.821.085-7.254-.219-.8-.288-1.592-1.229-1.886a2.082,2.082,0,0,1-1.437-2.29,15.307,15.307,0,0,1,.534-4.981,3.688,3.688,0,0,1,2.584-2.57,6.279,6.279,0,0,0,1.411-.6c2.433-1.413,5.865.269,6.564,3.014.629,2.469-.1,4.846-.076,7.265.022,2.262-.3,4.527-.3,6.79,0,6.173-.593,12.332-.384,18.51.08,2.364-2.33,5.672-4.5,6.381-2.258.739-5.054-1.881-4.809-4.736.421-4.9,1.041-9.781,1.536-14.674A29.5,29.5,0,0,0,3071.966,1766.784Z" transform="translate(-2803.729 -1633.604)" fill="#e9450a" fill-rule="evenodd"/>
      <path id="Path_19211" data-name="Path 19211" d="M1521.869,1995.926c2.559-.346,4.871,1,7.375,1.071,1.044.028,2.083.2,3.125.307.271.162.26.364.082.589C1528.885,1997.448,1525.26,1997.32,1521.869,1995.926Z" transform="translate(-1444.195 -1852.514)" fill="#1a1311" fill-rule="evenodd"/>
      <path id="Path_19212" data-name="Path 19212" d="M1669.45,1996.7l.656-.035c1.077-.234,2.189-.284,3.252-.6,1.9.279,3.552-1.11,5.455-.838-1.4,1.175-3.219,1.05-4.842,1.476a34.031,34.031,0,0,1-4.93.591C1668.916,1996.921,1669.215,1996.835,1669.45,1996.7Z" transform="translate(-1573.464 -1851.923)" fill="#1a1311" fill-rule="evenodd"/>
      <path id="Path_19213" data-name="Path 19213" d="M1149.92,1709.29a16.971,16.971,0,0,0,4.029-1.291c.6-.287,1.358-.685,1.89.034s-.161,1.294-.479,1.863a4.094,4.094,0,0,1-.86.831.422.422,0,0,1-.654.046l.637-1.133c.239-.295.692-.544.423-.995-.165-.275-.505-.187-.772-.027A6.661,6.661,0,0,1,1149.92,1709.29Z" transform="translate(-1117.428 -1599.285)" fill="#1a1311" fill-rule="evenodd"/>
      <path id="Path_19214" data-name="Path 19214" d="M1156.371,1733.186l.654-.046c-.722,2-2.322,2.938-4.231,3.5Z" transform="translate(-1119.952 -1621.699)" fill="#1a1311" fill-rule="evenodd"/>
      <path id="Path_19215" data-name="Path 19215" d="M1616.128,2007.608l-.409.595-.7.009a30.741,30.741,0,0,0-5.925-.006h-.692q-.041-.295-.082-.59Z" transform="translate(-1520.141 -1862.827)" fill="#1a1311" fill-rule="evenodd"/>
      <path id="Path_19216" data-name="Path 19216" d="M1372.832,1943.448c1.909-.181,3.311.968,4.819,1.838A10.622,10.622,0,0,1,1372.832,1943.448Z" transform="translate(-1313.262 -1806.443)" fill="#1a1311" fill-rule="evenodd"/>
      <path id="Path_19217" data-name="Path 19217" d="M1334.7,1923.749c1.725.426,3.443.865,4.6,2.383A11.7,11.7,0,0,1,1334.7,1923.749Z" transform="translate(-1279.765 -1789.154)" fill="#1a1311" fill-rule="evenodd"/>
      <path id="Path_19218" data-name="Path 19218" d="M1894.224,1910.918c1-.924,2-1.841,3.516-1.726A8.576,8.576,0,0,1,1894.224,1910.918Z" transform="translate(-1771.319 -1776.357)" fill="#1a1311" fill-rule="evenodd"/>
      <path id="Path_19219" data-name="Path 19219" d="M1614.687,2009.966a12.465,12.465,0,0,1,5.925.006Z" transform="translate(-1525.738 -1864.587)" fill="#1a1311" fill-rule="evenodd"/>
      <path id="Path_19220" data-name="Path 19220" d="M1247.989,1880.7c1.077.346,2.485.12,2.873,1.66C1249.849,1881.9,1248.717,1881.648,1247.989,1880.7Z" transform="translate(-1203.584 -1751.331)" fill="#1a1311" fill-rule="evenodd"/>
      <path id="Path_19221" data-name="Path 19221" d="M2002.916,1615.751c-.377,1.294-1.724,1.056-2.562,1.622C2000.781,1616.159,2001.966,1616.141,2002.916,1615.751Z" transform="translate(-1864.557 -1518.57)" fill="#1a1311" fill-rule="evenodd"/>
      <path id="Path_19222" data-name="Path 19222" d="M1496.73,1988.089c1.268-.685,2.076.375,3.051.8C1498.776,1988.577,1497.595,1988.934,1496.73,1988.089Z" transform="translate(-1422.11 -1845.481)" fill="#1a1311" fill-rule="evenodd"/>
      <path id="Path_19223" data-name="Path 19223" d="M1302.955,1909.4a2.064,2.064,0,0,1,2.084,1.078C1304.23,1910.342,1303.4,1910.236,1302.955,1909.4Z" transform="translate(-1251.873 -1776.549)" fill="#1a1311" fill-rule="evenodd"/>
      <path id="Path_19224" data-name="Path 19224" d="M1871.749,1927.929a2.176,2.176,0,0,1,2.1-1.091C1873.426,1927.736,1872.535,1927.732,1871.749,1927.929Z" transform="translate(-1751.574 -1791.856)" fill="#1a1311" fill-rule="evenodd"/>
      <path id="Path_19225" data-name="Path 19225" d="M1184.613,1712.851c.366-.338.943-.624,1.184-.172.344.645-.276.98-.835,1.194C1184.966,1713.491,1185.471,1712.938,1184.613,1712.851Z" transform="translate(-1147.906 -1603.518)" fill="#1a1311" fill-rule="evenodd"/>
      <path id="Path_19226" data-name="Path 19226" d="M1236.817,1874.47c.531-.055,1.02-.044,1.068.67C1237.328,1875.239,1237.051,1874.89,1236.817,1874.47Z" transform="translate(-1193.769 -1745.844)" fill="#1a1311" fill-rule="evenodd"/>
      <path id="Path_19227" data-name="Path 19227" d="M1032.112,1513.044c.181-.4.6-.771.88-.45.324.372-.08.7-.546.78Z" transform="translate(-1013.93 -1427.836)" fill="#1a1311" fill-rule="evenodd"/>
      <path id="Path_19228" data-name="Path 19228" d="M1793.074,1710.291a1.072,1.072,0,0,1,1.151.506l-.8.14Z" transform="translate(-1682.456 -1601.599)" fill="#1a1311" fill-rule="evenodd"/>
      <path id="Path_19229" data-name="Path 19229" d="M1681.275,2002.027a5.363,5.363,0,0,1-3.252.6A5.782,5.782,0,0,1,1681.275,2002.027Z" transform="translate(-1581.381 -1857.88)" fill="#1a1311" fill-rule="evenodd"/>
      <g id="Group_5079" data-name="Group 5079" transform="translate(146.723 21.293)">
        <path id="Path_19230" data-name="Path 19230" d="M2449.424,1385.984c2.687.629,5.069-.22,7.488-1.121,1.712-.637,3.145-3.119,2.377-4.474a5.579,5.579,0,0,0-4-2.991,26.348,26.348,0,0,0-5.207-.665c-.876.016-1.5-.318-1.068-1.557.971-2.817.927-5.818,1.132-8.745a8.98,8.98,0,0,0-1.777-5.418c-2.041-3.111-5.333-4.155-8.688-4.851-3.936-.817-7.891-.022-11.843.222-2.116.131-4.322.752-6.413-.281a5.039,5.039,0,0,0-2.843-.086c-1.61.142-2.527,1.462-3.8,2.168-3.6,1.994-5.169,5.57-6.766,8.974a43.965,43.965,0,0,1-2.571,5.168c-.549.859-1.576,1.7-1.583,2.56-.017,1.934-1.315,1.5-2.267,1.5a38.721,38.721,0,0,0-10.153,1.53,1.367,1.367,0,0,0-1.112,1.449c.084.584-.363,1.233.679,1.685,1.726.749,3.135,1.995,5.226,2.189a15.978,15.978,0,0,1,3.687.346,24.68,24.68,0,0,1-1.238,2.881,32.85,32.85,0,0,0-2.76,5.915c-.588,1.851-.753,3.77-1.4,5.557a5.428,5.428,0,0,0,.369,4.775c2.594,4.594,7.2,5.68,11.826,6.625a54.7,54.7,0,0,0,8.068.854c4.064.217,8.105.692,12.3.047-.861,2.943-2.356,4.463-5.566,4.874-5.165.662-6.863,5.4-5.371,9.913a3.215,3.215,0,0,0,2.982,2.263c3.814.436,7.66.814,11.323-.478,3.265-1.151,5.289-3.946,7.069-6.75a56.95,56.95,0,0,0,4.522-7.993c.243-.568.534-.7,1.183-.639a58.455,58.455,0,0,0,6.621.349,11.769,11.769,0,0,0,6.669-1.868c3.088-2.227,2.422-7.618-1.008-9.369a20.819,20.819,0,0,0-9.377-2.729c-.431,0-.839.037-.674-.617a18.948,18.948,0,0,0,1.065-5.554c-.037-.889.554-2.017.573-3.122C2447.132,1387.041,2448.243,1385.708,2449.424,1385.984Zm-28.533,1.843c-2.13,3.143-2.232,3.337-.842,5.993.207.4.706,1.07.125,1.4a2.884,2.884,0,0,1-2.083.419c-1.691-.639-3.368-.319-5.054-.281-.825.019-1.1-.116-.838-1.091a35.791,35.791,0,0,1,2.784-7.147,3.01,3.01,0,0,1,2.814-1.618c.633.063,1.277.011,1.953.011.874.288,2.2-.516,2.659.446C2422.812,1386.816,2421.372,1387.117,2420.891,1387.827Zm10.758,6.04c-.259,1.259-.829,1.944-2.151,1.385a12.7,12.7,0,0,0-2.008-7.872c-.077-.13-.337-.144-.431-.272-.292-.4-1.282.031-1.1-.785s1.023-.478,1.482-.388a40.1,40.1,0,0,0,6.125.345A47.179,47.179,0,0,0,2431.648,1393.867Zm6.6-27.064a67.638,67.638,0,0,1-1.9,7.991c-.206.564-.3,1.069-1.113.987-.72-.072-.9-.481-1.144-1.071-1.07-2.532-1.968-5.149-3.662-7.385a3.259,3.259,0,0,0-5.475.259c-1.532,2.312-.789,4.448.353,6.568.98,1.82.981,1.918-.959,1.913-.991,0-1.9.644-2.855.241-.467.033-.873.063-1.279.09-.934.063-1.055-.661-.716-1.126,2.094-2.877,3.123-6.323,5.069-9.28a5.421,5.421,0,0,1,4.967-2.416,21.977,21.977,0,0,1,7.811,1.519A1.293,1.293,0,0,1,2438.252,1366.8Z" transform="translate(-2353.866 -1311.49)" fill="#1db3b8" fill-rule="evenodd"/>
        <path id="Path_19231" data-name="Path 19231" d="M2491,1016.284c-.674-1.123-1.857-2.172-2.782-2.1a33.29,33.29,0,0,1-7.351-.447c-3.532-.516-7.07-.316-10.592-.7a151.747,151.747,0,0,0-15.243-1.214c-.8-.007-1.035-.1-.811-1.118.441-2,2.065-3.669,1.646-5.9a.679.679,0,0,1,.113-.5c2.207-2.625,1.464-5.115-.318-7.569a3.74,3.74,0,0,1-.74-1.141,4.507,4.507,0,0,0-4.55-3.716,5.529,5.529,0,0,1-1.173-.21c-1.58-.457-3.174-1.382-4.608.351a1.137,1.137,0,0,1-.957.332c-2.275-.657-2.444,2.192-4.146,2.446-.7,2.444-2.637,4.271-3.422,6.649-1.421,4.307-2.769,8.643-3.979,13.013-.244.882-1.149,1.286-1.12,2.264.1,3.529-2.285,6.236-3.18,9.442-.506,1.812-1.572,3.376-1.874,5.338-.355,2.3.472,4.294.929,6.361.515,2.324,2.714,3.8,4.489,3.236,1.925-.61,3.948-1.064,5.586-2.377.012-.784.477-.951,1.146-.841h0c2.583-2.281,4.218-5.258,5.811-8.219,1.2-2.226,1.221-2.391,3.853-1.828a7.933,7.933,0,0,0,.864.092c2.926.3,5.855.575,8.777.906,2.2.249,4.431.618,6.6.7,3.6.139,7.2.49,10.827.455a141.249,141.249,0,0,0,16.171-.63,1.859,1.859,0,0,0,1.734-1.373C2494.316,1023.753,2493.2,1019.962,2491,1016.284Z" transform="translate(-2385.068 -991.011)" fill="#1db3b8" fill-rule="evenodd"/>
        <path id="Path_19232" data-name="Path 19232" d="M2131.225,1056.583c.389-.165.348-.544.467-.865.712-1.928.055-3.848-.272-5.677-.174-.974.3-2.166-.419-2.652-.333-1.661-.485-2.983-.869-4.233a18.527,18.527,0,0,0-6.043-9.5c-.785-.616-1.206-1.587-2.087-1.972-1.888-.823-3.822-1.547-5.755-2.262a18.357,18.357,0,0,0-8.851-1.034,39.1,39.1,0,0,0-7.274,1.773c-1.225.4-2.037,1.491-3.144,1.649a4.859,4.859,0,0,0-3.5,3.085c-1.112,2.493-2.661,5.006-2.474,7.96a.762.762,0,0,1-.147.491c-.939,1.135-.455,2.252-.219,3.5.144.763.887,1.536.437,2.324a3.7,3.7,0,0,0,.137,3.63c1.126,2.472,1.805,5.156,3.336,7.431,1.081,1.606,2.081,3.2,3.982,4.222,1.3.7,2.887.759,3.893,1.715a1.913,1.913,0,0,0,2.078.6c1.569-.415,3.165.045,4.789-.135,2.03-.225,4.216-.175,6.255-.484a17.376,17.376,0,0,0,8-3.035c.68-.513,1.534-.416,2.189-1.192C2127.381,1059.987,2128.706,1057.65,2131.225,1056.583Z" transform="translate(-2090.304 -1023.717)" fill="#1db3b8" fill-rule="evenodd"/>
        <path id="Path_19233" data-name="Path 19233" d="M2148.224,1391.619c-.778-.506-1.7-.836-2.156-1.74-1.173-.46-1.549-1.954-2.665-2.309a13.083,13.083,0,0,1-4-2.6c-.781-.611-1.922-.3-2.386-1.132a3.571,3.571,0,0,0-2.976-1.636,18.774,18.774,0,0,0-7.844.157,7.416,7.416,0,0,0-4.51,3.963,21.083,21.083,0,0,0-1.355,3.826c-.4,1.224-.746,2.3-.1,3.489a17.067,17.067,0,0,0,3.232,4.37,11.606,11.606,0,0,0,5.179,3.068c.73.186,1.292.714,2.194.74a8.338,8.338,0,0,1,3.183.748,5.348,5.348,0,0,0,3.094.507,2.875,2.875,0,0,1,1.729.321,3.374,3.374,0,0,0,3.023-.105c.421-.217.583-.715,1.287-.587,1.834.332,3.049-.933,4.338-1.942a4.146,4.146,0,0,1,2.453-2.122c-.157-.437-.894-.992-.31-1.291,1.011-.518.636-1.271.585-1.941A6.883,6.883,0,0,0,2148.224,1391.619Z" transform="translate(-2116.278 -1334.384)" fill="#1db3b8" fill-rule="evenodd"/>
        <path id="Path_19234" data-name="Path 19234" d="M2156.475,1604.8c-3.041-1.128-5.571-.044-7.772,1.813-1.642,1.385-2.779,3.374-4.439,4.728a3.493,3.493,0,0,0-1.36,2.537c-.037,1.564-.687,2.968-.762,4.49-.034.689-.349,1.483.125,2.015,1.031,1.156.889,2.69,1.436,4a4.2,4.2,0,0,0,.663,1.352,4.355,4.355,0,0,0,3.828,1.707c2.512.145,4.482-.171,5.971-1.709a20.73,20.73,0,0,0,4.354-7.174,28.634,28.634,0,0,0,1.846-5.307c.379-2.286,1.407-4.742-.714-6.883A7.674,7.674,0,0,0,2156.475,1604.8Z" transform="translate(-2135.727 -1529.842)" fill="#1db3b8" fill-rule="evenodd"/>
        <path id="Path_19235" data-name="Path 19235" d="M2349.694,1519.9c-.824.7-1.633,1.418-2.453,2.122C2348.882,1522.263,2348.985,1520.728,2349.694,1519.9Z" transform="translate(-2316.031 -1455.651)" fill="#249a9d" fill-rule="evenodd"/>
        <path id="Path_19236" data-name="Path 19236" d="M2518.27,1376.894c-.454.182-.715.627-1.146.84C2517.971,1378.09,2518.216,1377.624,2518.27,1376.894Z" transform="translate(-2465.277 -1330.02)" fill="#249a9d" fill-rule="evenodd"/>
      </g>
      <g id="Group_5080" data-name="Group 5080" transform="translate(0)">
        <path id="Path_19237" data-name="Path 19237" d="M1032.235,1370.61a8.03,8.03,0,0,0-3.74-5.888c-2.595-1.677-5.125-.755-7.705-.2-.669.833-1.921.746-2.562,1.622-1.126.963-2.781.8-3.875,1.883-1.854,1.834-4.563,2.187-6.619,3.7-.275.2-.98.43-1.023-.372-.206-3.849-3-5.085-6.071-6.01-1.128-.34-2.3-.532-3.5-.8.3-.721.921-.576,1.364-.748a12.206,12.206,0,0,0,4.383-2.443,2.842,2.842,0,0,0,.552-3.816,10.564,10.564,0,0,0-2.463-2.438c-1.91-1.454-4.051-1.768-6.867-1.467a7,7,0,0,1,2.461-1.165,13.9,13.9,0,0,0,4.75-2.451,13.5,13.5,0,0,0,4.589-9.665c.2-3.255-.728-5.326-3.754-6.542a42.048,42.048,0,0,0-11.3-2.929,234.4,234.4,0,0,0-34.622-.814c-7.519.335-12.958,3.6-16.056,10.542a15.559,15.559,0,0,0-1.042,7.184,4.339,4.339,0,0,0,2.171,3.418,11.588,11.588,0,0,0,6.834,1.726c.818-.012,1.636,0,2.454,0a25.912,25.912,0,0,1-4.294,2.772c-.817.442-1.666.825-2.513,1.208a4.348,4.348,0,0,1-4.979-.579c-3.3-2.628-4.711-2.7-8.57-.81a3.225,3.225,0,0,0-1.842,3.779c2.251,7.259,8.632,11.7,16.488,9.657a38.993,38.993,0,0,0,7.53-3.267c-.767,1.557-.282,2.773-.626,3.867-.671,2.137.331,3.617,1.755,4.933a8.8,8.8,0,0,0,6.166,2.5c7.951-.072,15.155-2.706,21.9-6.688a1.4,1.4,0,0,1,2.007.2,29.065,29.065,0,0,0,9.429,5.52,10.559,10.559,0,0,1,.993.529.6.6,0,0,0-.641.117c-2.281.336-4.561.684-6.844,1.006-4.48.631-8.906,1.717-13.478,1.576a39.6,39.6,0,0,0-4.351-.036c-4.917.393-9.8,1.062-14.761,1.044-4.774-.016-9.565-.351-14.325.329a33.791,33.791,0,0,1-7.331.247c-2.072-.155-2.265-.583-2.034-2.583a23.732,23.732,0,0,0-.484-7.977c-.819-3.653-6.268-5.921-9.921-6.176-2.291-.16-2.518-.217-1.7-2.406a44.759,44.759,0,0,0,2.581-9.221c.686-4.7,1.693-9.408-1-13.939-3.687-6.206-9.872-8.333-16.064-5.323a121.884,121.884,0,0,0-15.891,9.423,11.69,11.69,0,0,0-5.25,7.676c-.875,4.419,3.128,8.664,7.472,7.344,3.759-1.142,7.169-3.179,10.589-5.116.087-.1.193-.146.29-.081.167.113.16.26.043.411-2.581,4.769-5.4,9.442-5.322,15.161.04,3,.205,6.07,1.981,8.511,2.548,3.5,6.436,4.44,10.607,3.176,2.277-.69,4.365-1.9,6.711-2.381a13.762,13.762,0,0,0,3.028-.554c.67-.315,1.656-1.021,2.222-.311.705.886-.513,1.46-.89,2.175-.819,1.782-2.451,2.667-4.011,3.631a14.16,14.16,0,0,0-3.712,3.857,5.012,5.012,0,0,0,.057,5.786c1.73,2.15,4.172,2.441,6.6,2.094a5.332,5.332,0,0,1,4.1.683,8.9,8.9,0,0,0,3.154,1.261c.325.272.767.359,1.068.67a.644.644,0,0,0,.289.068c.919.62,2.187.636,2.873,1.66l3.8,1.827a11.654,11.654,0,0,1,2.084,1.078,2.6,2.6,0,0,0,1.772.664c1.456.945,3.228,1.281,4.6,2.383l.029.026c1.641.521,3.207,1.241,4.819,1.838a4.311,4.311,0,0,0,1.6.936c2.89.907,5.685,2.1,8.636,2.83a13,13,0,0,1,3.051.8h0c3.546.645,7.05,1.558,10.679,1.682q3.627,0,7.257,0a6.016,6.016,0,0,0,.891-.05,10.889,10.889,0,0,1,3.24-.505,34.432,34.432,0,0,0,5.608-1.228,22.58,22.58,0,0,0,6.235-2.385,63.062,63.062,0,0,0,8.591-4.852,19.712,19.712,0,0,1,2.1-1.091l.632-.42a33.252,33.252,0,0,1,3.516-1.726c2.613-2.257,5.62-4.019,8.251-6.2,2.229-1.845,4.6-3.522,6.762-5.452C1029.225,1383.747,1033.479,1378.491,1032.235,1370.61Zm-55.322-5.055a13.866,13.866,0,0,1-7.873,2.258c-1.954-.136-2.871-1.3-2.811-3.274.087-2.848.2-5.7.31-8.543.1-2.645.249-2.783,3.137-2.605,1.585-.421,2.106.559,2.53,2.245.818,3.25,2.756,5.987,4.774,8.619C977.414,1364.822,977.67,1365.123,976.912,1365.555Zm13.415-9.814c-.111.2-.21.411-.336.6-1.738,2.637-2.388,2.665-4.187.167-.559-.776-1.092-1.57-1.8-2.591a29.464,29.464,0,0,1,5.6.224C990.663,1354.359,990.8,1354.885,990.328,1355.741Zm.515-10.555a6.555,6.555,0,0,1-6.056,2.2c-7.959-.693-15.971-.621-23.92-1.521a18.828,18.828,0,0,1-4.8-.684c-1.175-.454-1.368-1.073-.692-2.281,1.38-2.465,3.587-3.19,6.123-3.264,2.973-.086,5.95-.02,8.926-.02,6.316-.322,12.587.349,18.868.833,1.234.1,2.764.16,3.2,1.375C992.968,1343.176,991.752,1344.159,990.843,1345.187Z" transform="translate(-882.431 -1267.343)" fill="#1a1311" fill-rule="evenodd"/>
        <path id="Path_19238" data-name="Path 19238" d="M1412.5,832.783c-.716-3.834-.645-7.826-2.174-11.495-1.243-2.982-3.257-5.056-6.695-5.383a51.145,51.145,0,0,0-11.686.366c-6.524.874-13.051,1.732-19.569,2.652a52.813,52.813,0,0,0-8.156,1.443c-3.181.979-6.5.725-9.7,1.574-1.479.393-2.981.862-4.5,1.2-2.192.488-4.066,1.808-6.224,2.5a5.908,5.908,0,0,0-4.465,6.044,7.67,7.67,0,0,1-.3,2.013,7.843,7.843,0,0,0-.17,3.382c.393,2.273.541,4.571.977,6.875.784,4.151,2.246,7.572,6.214,9.367a56.285,56.285,0,0,0,31.276,4.4c10.115-1.356,19.688-4.807,29.423-7.622a7.674,7.674,0,0,0,5.87-6.021A18.043,18.043,0,0,0,1413,839,22.613,22.613,0,0,0,1412.5,832.783ZM1360,846.618a22.856,22.856,0,0,0-2.443.09c-3.891.11-3.911.113-4.433-3.693a43.39,43.39,0,0,0-1.195-6c-.276-.97-.057-1.4,1.016-1.434,1.162-.037,2.319-.229,3.478-.354,2.524-.271,2.546-.276,3.076,2.131.577,2.617,1.058,5.255,1.682,7.86C1361.458,846.386,1361.1,846.688,1360,846.618Zm17.607-1.451c-1.385.192-2.771.372-4.157.561a.868.868,0,0,1-1.083-.843,63.3,63.3,0,0,0-2.49-10.541c-.218-.635-.08-1.027.655-1.062.116-.006.235,0,.349-.017,4.865-.726,4.837-.718,6.181,4.088a67.057,67.057,0,0,1,1.54,7.234C1378.636,844.9,1378.171,845.089,1377.6,845.167Zm20.423-4.775c-2.319.588-4.639,1.17-6.942,1.817-.746.21-1.106.038-1.232-.711a78.446,78.446,0,0,0-2.152-9.909c-.224-.734.159-.928.768-1.021,2.192-.334,4.377-.719,6.574-1.01a1.95,1.95,0,0,1,2.34,1.408c.625,2.786,1.072,5.613,1.611,8.543C1399.046,840.086,1398.581,840.252,1398.028,840.392Z" transform="translate(-1283.322 -815.718)" fill="#1a1311" fill-rule="evenodd"/>
      </g>
      <path id="Path_19239" data-name="Path 19239" d="M3580.465,1683.056a3.337,3.337,0,0,1,1.738-1.186A1.955,1.955,0,0,1,3580.465,1683.056Z" transform="translate(-3252.729 -1576.657)" fill="#181918" fill-rule="evenodd"/>
      <path id="Path_19240" data-name="Path 19240" d="M3600.976,1671.992a2.1,2.1,0,0,1-.48.351c-.166.066-.376-.024-.224-.259a1.255,1.255,0,0,1,.486-.45C3601,1671.524,3601.025,1671.718,3600.976,1671.992Z" transform="translate(-3270.084 -1567.637)" fill="#262727" fill-rule="evenodd"/>
      <path id="Path_19241" data-name="Path 19241" d="M3238.456,1778.011a17.793,17.793,0,0,0-8.963-11.777c-1.058-.6-1.869-1.544-3.329-1.521-4.151.065-9.995,3.9-11.623,8.108a41.22,41.22,0,0,0-2.514,14.5,39.414,39.414,0,0,0,.361,6.335c1.041,5.193,3.273,9.359,8.813,10.861,5.282,1.432,11.148.138,13.818-5.8.823-1.833,1.678-3.655,2.416-5.522A25.5,25.5,0,0,0,3238.456,1778.011Zm-10.652,18.169a7.664,7.664,0,0,1-3.852,1.155c-3.069,0-4.614-1.108-5.583-3.5a12.657,12.657,0,0,1-.313-7.519,40.909,40.909,0,0,1,1.635-6.506c1.3-3.355,3.492-5,6.911-4.76,1.241.088,2.045,1.2,2.892,2.061C3234.508,1782.19,3232.711,1792.91,3227.8,1796.179Z" transform="translate(-2929.046 -1649.436)" fill="#ee7300" fill-rule="evenodd"/>
      <path id="Path_19242" data-name="Path 19242" d="M3482.026,1785.832a15.583,15.583,0,0,0-4.861-9.705,1.667,1.667,0,0,0-.927-.413c-3.23-.712-6.342-1.621-9.822-1.067-5.614.893-10.23,6.336-11.231,10.725-.57,2.5.138,5.05.7,7.487.633,2.724,2.234,4.906,5.28,5.192,2.9.272,5.853.56,8.954-.585a26.13,26.13,0,0,1-3.7,8.084,6.521,6.521,0,0,0-1.378,4.753c.173,2.82.881,3.945,3.513,4.907a4.669,4.669,0,0,0,5.99-4.056c.051-1.965-.292-3.948.229-5.9a78.138,78.138,0,0,1,5.832-15.05C3481.313,1788.822,3482.165,1787.368,3482.026,1785.832Zm-8.227.5c-.607,3.032-1.8,4.237-4.861,4.853-.564.114-1.148.129-1.724.187-2.06,0-3.168-.913-3.741-3.084a4.716,4.716,0,0,1,1.933-5.137,11.857,11.857,0,0,1,4.384-1.37C3471.623,1781.526,3474.164,1784.51,3473.8,1786.328Z" transform="translate(-3142.483 -1658.013)" fill="#317830" fill-rule="evenodd"/>
      <g id="Group_5081" data-name="Group 5081" transform="translate(341.106 4.494)">
        <path id="Path_19243" data-name="Path 19243" d="M4085.813,914.22a90.283,90.283,0,0,0-3.437-22.647,15.836,15.836,0,0,0-1.659-3.562,17.2,17.2,0,0,0-4.61-5.533c-2.528-1.906-5.6-1.895-8.358-2.9a5.675,5.675,0,0,0-4.1-.342c-1.5.643-2.831-.4-4.271-.176-.461.071-.575-.494-.545-.927.356-5.139-.758-10.2-.772-15.328a35.861,35.861,0,0,0-1.447-8.885c-.4-1.528-.862-1.509-2.1-.457a26.827,26.827,0,0,1-4.272,3.387c-1.394.766-2.815,4.314-2.409,5.554,1.814,5.546,1.884,11.312,2.177,17.053a1.875,1.875,0,0,1-1.3,2.028c-1.068.418-2.206.672-3.243,1.149a51.884,51.884,0,0,0-8.7,5.639c-3.308,2.415-6.347,4.868-7.714,8.987-.73,2.2-.309,3.242,2.05,3.246a12.539,12.539,0,0,1,1.7.167,25.988,25.988,0,0,0,5.508.368,36.564,36.564,0,0,0,8.226-1.227c.735-.231,1.384-.066,1.116,1.071-.4,1.688-.567,3.43-1,5.107-1.36,5.3-2.521,10.654-4.28,15.852a113.433,113.433,0,0,1-4.312,12.07c-1.944,4.142-5.217,7.392-7.454,11.341a3.983,3.983,0,0,1-3.656,1.936,8.26,8.26,0,0,0-5.562,1.634,7.168,7.168,0,0,0-2.635,6.107,3.827,3.827,0,0,0,3,3.906,45.143,45.143,0,0,0,8.9.812,8.525,8.525,0,0,0,3.77-.718,35.355,35.355,0,0,0,6.242-4.57c1-.858,1.507-1.977,2.415-2.851a25.9,25.9,0,0,0,5.824-9.363c.509-1.285,1.092-2.631,1.592-3.919.7-1.8,2.643-.288,4.023-.5a8.025,8.025,0,0,1,1.916-.086c4.807.44,9.049-1.1,13.159-3.439a53.6,53.6,0,0,0,8.969-6.769C4082.65,923.814,4086.363,919.906,4085.813,914.22Zm-20.776-2.409c-.321,3.41-.855,7.32-3.8,10.56-1.528,1.682-3.512,2.286-5.336,3.293-.348.192-1.377.449-1.024-.659.854-2.677,1.182-5.468,1.858-8.177,1.23-4.932,1.417-9.978,1.93-14.991.067-.663-.167-1.706.464-1.89.707-.206,1.446.495,2.039,1.042C4064.153,903.745,4065.116,907.281,4065.038,911.811Zm16.416-.286c-.051.125-.216.2-.33.3l-.214-.18c.133-.224.255-.632.4-.64C4081.79,910.982,4081.531,911.335,4081.454,911.525Z" transform="translate(-3978.884 -852.718)" fill="#1a1311" fill-rule="evenodd"/>
        <path id="Path_19244" data-name="Path 19244" d="M3763.041,1287.495c.76-1.109,1.776-2.074,1.2-3.256a4.2,4.2,0,0,0-3.361-2.409,68.538,68.538,0,0,0-9.135-.314c-.211,0-.537-.027-.615-.157-.5-.838.026-1.807-.3-2.735-.113-.318.943-.456,1.451-.548,2.994-.537,6.079-.717,8.989-1.534,3.636-1.021,4.344-1.683,3.524-5.324-.276-1.222-.4-2.359-1.783-2.612a24.823,24.823,0,0,0-3.978-.358c-2.766-.052-5.534-.016-8.584-.016a3.113,3.113,0,0,1,2.337-.7c1.986-.2,4.014.277,5.969-.371,3.342-1.107,6.781-2.049,8.906-5.23,1.613-2.414,2.255-5.245,3.411-7.85a6.5,6.5,0,0,0,.258-5.255c-1.635-4.42-4.545-6.327-9.275-6.61-2.553-.153-5.063.254-7.59.066a3.4,3.4,0,0,0-2.021.369c-2.213,1.328-4.844.972-7.129,1.812-1.994.732-4.341.433-6.034,1.741-4.18,3.231-6.491,7.508-6.057,12.905.152,1.9.293,3.932,2.18,5.24a17.256,17.256,0,0,0,8.122,3.045c.538.057,1.216-.332,1.218.676,0,.78.081,1.411-1.055,1.595-3.557.574-7.144.749-10.727.987a4.032,4.032,0,0,0-3.538,2.8c-.5,1.895.485,3.419,1.052,5.112.637,1.906,1.661,2.943,3.825,3.039a38.351,38.351,0,0,0-10.27,8.815,4.47,4.47,0,0,0-1.291,3.964,9.379,9.379,0,0,0,5.2,6.865c2.908,1.465,5.926.291,8.6-.353,4.058-.979,8.3-1.919,11.964-4.043C3753.479,1293.972,3759.473,1292.7,3763.041,1287.495Zm-18.834-37.428c-.54,1.359.629,2.769-.883,3.39a19.124,19.124,0,0,1-3.442.723C3740.459,1252.065,3742.033,1251.112,3744.207,1250.067Zm-.673,9.608c-1.695.12-3.239-.8-4.958-.719,1.537-.931,3.373-.822,5-1.464.5-.2.109,1.17.766,1.67C3744.618,1259.376,3743.961,1259.644,3743.534,1259.675Zm-1.764,24.23a22.706,22.706,0,0,0-4.352,1.479c-.367.157-.932.73-1.11.12-.105-.362-.649-1.021.215-1.6a59.156,59.156,0,0,1,8.361-4.8c.094.1.156.134.159.173C3745.346,1283.078,3745.364,1283.161,3741.77,1283.9Zm6.745-34.4c-.458-1.156.455-1.594,1.418-1.934,1.99-.7,3.978-1.418,6-2a3.765,3.765,0,0,1,2.389-.043c.85.391,2.342.317,2.183,1.948-.14,1.443-.584,2.779-2.128,3.112-2.347.505-4.74.789-7.115,1.164-.115.018-.234,0-.348.014C3748.424,1252.154,3748.425,1252.155,3748.515,1249.5Zm7.095,5.45c-.75,3.261-3.831,3.006-5.842,4.422C3749.469,1256.318,3749.469,1256.318,3755.61,1254.954Z" transform="translate(-3718.759 -1194.874)" fill="#1a1311" fill-rule="evenodd"/>
        <path id="Path_19245" data-name="Path 19245" d="M3794.573,974.653a52.81,52.81,0,0,0,12.939,1.224,39.545,39.545,0,0,0,10.241-.832c1.479-.381,2.426-1.073,2.192-2.9-.243-1.9-.727-3.758-.995-5.642a6.664,6.664,0,0,0-4.607-5.733c-2.185-.856-4.447-1.457-6.622-2.37-3.519-1.477-7.193-2.6-10.778-3.929-3.642-1.354-8.636.9-10.319,4.429a9.943,9.943,0,0,0-.3,8.58A11.055,11.055,0,0,0,3794.573,974.653Z" transform="translate(-3773.961 -941.766)" fill="#1a1311" fill-rule="evenodd"/>
        <path id="Path_19246" data-name="Path 19246" d="M3702.132,1147.175c4.451-.519,8.791-1.918,13.34-1.714a2.11,2.11,0,0,0,.517-.076,107.534,107.534,0,0,1,17.58-2.087c2.287-.1,4.77.121,6.811-1.514.821-.657,1.227-2.325.38-2.7-1.906-.851-3.616-2.059-5.791-2.447a55.169,55.169,0,0,1-6.464-1.127c-4.286-1.308-8.714-1.439-13.1-2-2.095-.266-4.183-.171-6.264-.365-2.692-.252-5.3-1.179-8.5-.958-2.769-.848-5.144.98-7.539,2.594-1.727,1.164-3.133,2.84-2.347,4.992C3692.594,1144.8,3696.722,1147.807,3702.132,1147.175Zm8.683-11.4c-2.419.414-4.886-.009-7.328.277C3705.893,1135.341,3708.363,1135.857,3710.815,1135.776Z" transform="translate(-3690.537 -1098.052)" fill="#1a1311" fill-rule="evenodd"/>
      </g>
      <path id="Path_19247" data-name="Path 19247" d="M1603.861,1605.669c.087.05.4.079.241.394a.521.521,0,0,1-.4.227c-.287-.006-.36-.24-.31-.483C1603.431,1605.62,1603.579,1605.555,1603.861,1605.669Z" transform="translate(-1515.802 -1509.662)" fill="#1a1311" fill-rule="evenodd"/>
    </g>
  </g>
</svg>
