<svg xmlns="http://www.w3.org/2000/svg" width="244.15" height="30" viewBox="0 0 244.15 30">
  <g id="Group_5095" data-name="Group 5095" transform="translate(-853.472 -374.183)">
    <path id="Path_19271" data-name="Path 19271" d="M873.048,377.926c-3.479-1.047-14.687-.9-18.608-.822h0l-.443.01s-.877.018-.364.266l5.662,2.388s7.645-1.987,11.578-1.055c3.2.758-.838,3.22-6.147,8.953-6.535,7.054-4.205,13.775-4.205,13.775l6.922-.012c-2.484-8.408,1.363-14.994,4.516-18.524.94-1.055,4.448-3.968,1.089-4.978" transform="translate(0 2.743)" fill="#ec660d"/>
    <path id="Path_19272" data-name="Path 19272" d="M872.254,388.817l5.611-.008c.061-.231.121-.454.188-.677l2.161,0c-.027-.419-.035-.828-.029-1.224l-1.7,0h0l-4.879.006c-.425.6-.879,1.229-1.349,1.9m19.679,14.644-.568-.349h0c-.789-.482-1.527-.973-2.21-1.458l-5.137.008,0,0-14.806.025a16.368,16.368,0,0,0,.679,2.484l18.739-.031-.037-.014,3.632-.006c.856-.006-.288-.656-.288-.656m-14.384-11.613h0l-7.165.008a15.326,15.326,0,0,0-.754,1.9l8.176-.01c-.055-.231-.1-.45-.133-.681l3.833-.006c-.188-.411-.356-.816-.5-1.222Zm.407,2.467-8.5.014a15.739,15.739,0,0,0-.4,1.9l9.673-.014c-.119-.229-.223-.452-.325-.673l4.5-.008c-.278-.411-.536-.816-.763-1.224l-4.193.006v0m-2.637-9.877c-.378.578-.822,1.22-1.312,1.9l4.714-.008c.108-.233.215-.46.329-.677h1.21q.073-.652.188-1.229h-.711v0Zm4.6,13.569L884.91,398c-.386-.407-.74-.814-1.069-1.22l-4.777.006v0l-10.075.016a16.462,16.462,0,0,0-.09,1.9l11.586-.02c-.2-.225-.388-.448-.564-.675m2.465,2.461,5.2-.008c-.5-.407-.977-.811-1.415-1.22l-8.326.016h0l-8.923.016a16.662,16.662,0,0,0,.19,1.842l14.09-.023q-.423-.3-.811-.623m-6.709-16.6,4.432,0c.092-.137.184-.268.272-.392,4.728-6.517-11.462-6.049-11.462-6.049l-7.606.106,1.915-3.078c.18-.311.027-.3-.16-.225l-9.292,4.706-.076.035s-.46.233,0,.2c.049,0,.1-.008.155-.01l0,0c2.639-.2,13-.871,20.513.527,2.79.517,2.705,1.883,1.308,4.182m-4.186,6.059a15.4,15.4,0,0,0-.816,1.359l6.868-.008c.008-.229.02-.456.041-.681l3.036-.008c-.108-.415-.192-.82-.258-1.224l-4.644.012,0,0-3.855,0c-.123.178-.247.362-.37.544" transform="translate(0.023 0)" fill="#00609a"/>
    <path id="Path_19273" data-name="Path 19273" d="M1043.518,384.989l-7.234,7.656-159.469.187-.861,1.012,159.932-.183h.382l3.16-.008,8.088-8.676Z" transform="translate(21.53 10.338)" fill="#00609a"/>
    <path id="Path_19274" data-name="Path 19274" d="M880.938,377.17a21.458,21.458,0,0,1-2.406,3.579c.266,0,.6,0,.995,0q3.309-.006,5.28-.149-1.128-1.1-2.187-2l1.071-.769a30.182,30.182,0,0,1,4.051,3.951l-1.055.985a5.755,5.755,0,0,0-.456-.585c-.125-.153-.235-.3-.337-.437q-4.261.264-10.137.27c-.2,0-.37,0-.493,0l-.133-1.337c.4.031.748.057,1.042.065l.754,0a15.436,15.436,0,0,0,2.661-3.935Zm-4.644,6.122,10.233-.016.01,5.54h-1.368v-.769l-7.5.016,0,.764-1.366,0Zm8.865,1.12-7.49.012,0,2.5,7.492-.012Z" transform="translate(20.742 2.51)" fill="#070304"/>
    <path id="Path_19275" data-name="Path 19275" d="M885.072,384.365a19.651,19.651,0,0,1-1.482,4.383l-1.1-.946a14.573,14.573,0,0,0,1.455-4.021Zm-.648-1.8a20.057,20.057,0,0,0-1.893-1.4l.791-.836c.364.2.7.393.991.564s.623.374.953.572Zm.131-3.258a14.129,14.129,0,0,0-1.922-1.46l.818-.832a22.02,22.02,0,0,1,1.958,1.3Zm1.623,2.449c-.065.223-.123.46-.186.715a3.4,3.4,0,0,1-.268.779l-.7-.305a3.855,3.855,0,0,0,.507-1.351Zm-.752-.343-.2-.791.374-.014c.813-.66,1.22-1.057,1.22-1.2-.294.035-.55.057-.764.063s-.419.021-.617.029l-.137-.752h.294a11.719,11.719,0,0,0,.993-1.94l.846.172a11.753,11.753,0,0,1-.991,1.8c.143,0,.288,0,.445-.012.106,0,.225,0,.36-.014a4.762,4.762,0,0,0,.534-.83l.75.47a14.1,14.1,0,0,1-1.954,2.212c.276-.02.49-.037.63-.053.225-.025.417-.043.575-.051a2.049,2.049,0,0,1-.159-.335,2.132,2.132,0,0,0-.1-.217l.646-.241a11.765,11.765,0,0,1,.629,1.492l-.734.333-.149-.4a20.184,20.184,0,0,1-2.494.274m9.366,4.937a4.363,4.363,0,0,1-.319,1.748c-.206.409-.691.613-1.463.615l-2.948,0-.241-.953,3.054.055c.374,0,.587-.225.629-.673l-8.05.01.716-2.206,7.054-.012v-.564l-7.641.016v-.82l8.8-.014,0,2.181-7.234.014-.2.6Zm-8.22-3.115c0-.053,0-.123,0-.219a5.236,5.236,0,0,0-.1-1.171l.58-.067a6.691,6.691,0,0,1,.217,1.367Zm1.282-.092a11.23,11.23,0,0,0-.349-1.427l.578-.155a3.4,3.4,0,0,1,.215.6c.059.219.143.47.243.75Zm1.966-5.568a4.055,4.055,0,0,0-.376-.662l.895-.129a7.2,7.2,0,0,1,.393.791l1,0v.74l-3.187.008,0-.742Zm-1.018,1.165,2.682,0v.648l-2.682.006Zm0,4.3,0-2.093,2.711-.008,0,2.1Zm.012-3.2,2.668,0,0,.65-2.67,0Zm1.878,1.809H889.61l0,.707H890.7Zm1.9.155a6.575,6.575,0,0,1-.372,1.592l-.7-.317a4.827,4.827,0,0,0,.427-1.394Zm-.777-.446-.2-.781h.346a7.136,7.136,0,0,0,1.206-1.151l-.7.027c-.219.01-.435.02-.658.039l-.178-.74.257.014a7.394,7.394,0,0,0,1.057-1.968l.816.255a8.592,8.592,0,0,1-.973,1.723h.413c.106,0,.231,0,.378-.014a3.325,3.325,0,0,0,.239-.356c.1-.18.184-.337.266-.474l.82.356a10.3,10.3,0,0,1-2.022,2.3l.642-.039h.016a3.428,3.428,0,0,0,.505-.063,4.77,4.77,0,0,0-.2-.484l.627-.233a6.5,6.5,0,0,1,.619,1.543l-.72.245-.106-.411a19.483,19.483,0,0,1-2.455.213m1.21,1.934c.017-.213.023-.454.023-.724,0-.292-.008-.544-.027-.754l.589-.055a5.846,5.846,0,0,1,.137,1.445Zm1.488-.065a7.971,7.971,0,0,0-.421-1.415l.552-.157a14.371,14.371,0,0,1,.525,1.353Z" transform="translate(27.792 2.496)" fill="#070304"/>
    <path id="Path_19276" data-name="Path 19276" d="M896.772,381.909l0,2.3-2.706.006a2.611,2.611,0,0,1-.323.57l3.62,0,0,.92-1.006,0a4.987,4.987,0,0,1-1.3,1.545c.256.1.511.207.761.319.249.094.484.186.7.28l-.658.92c-.206-.11-.511-.26-.912-.446-.286-.121-.568-.251-.844-.4a7.024,7.024,0,0,1-3.538.859h-.121l-.5-.93c.127.01.294.014.511.014a5.961,5.961,0,0,0,2.476-.425c-.409-.2-1.084-.482-2.026-.84a11.319,11.319,0,0,0,.83-.893l-1.764,0,0-.92,2.529,0a2.1,2.1,0,0,0,.358-.572h-2.167l-.006-2.294,2.426,0,0-.6-2.477,0,0-1.554h-.8l0-.856.8,0,0-1.494,2.48,0v-.623h1.1v.623l2.48,0,0,1.5.713,0v.856H896.7l0,1.554-2.479,0v.6Zm-3.651-3.007,0-.638-1.378.006v.634Zm0,1.558v-.7l-1.38,0v.7Zm0,2.257-1.337,0v.691l1.337-.006Zm-.115,2.989a7.218,7.218,0,0,1-.532.574c.219.09.466.184.734.266.3.1.57.194.793.28a5.081,5.081,0,0,0,1.139-1.124ZM895.6,378.9l0-.642-1.38,0,0,.638Zm0,1.554v-.7l-1.38,0v.7Zm.088,2.257-1.464,0,0,.689,1.463,0Zm1.043-.881a9.764,9.764,0,0,0,1.643-5.055l1.181.149a9.821,9.821,0,0,1-.321,1.913l3.109,0V379.9h-.791a18.951,18.951,0,0,1-1.171,5.928,3.241,3.241,0,0,0,.634.738,8.3,8.3,0,0,0,1.474,1.145l-.785,1.071a9.235,9.235,0,0,1-1.952-1.973,6.674,6.674,0,0,1-2.218,1.981l-.687-1.069a4.738,4.738,0,0,0,2.222-1.858,16.2,16.2,0,0,1-1.077-3.837,2.577,2.577,0,0,1-.307.55c-.082.112-.17.241-.27.4Zm2.222-1.932a2.529,2.529,0,0,1-.241.677q0,.117.284,1.492a15.842,15.842,0,0,0,.685,2.477,17.828,17.828,0,0,0,.756-4.659Z" transform="translate(34.831 2.485)" fill="#070304"/>
    <path id="Path_19277" data-name="Path 19277" d="M897.2,382.178a19.508,19.508,0,0,0,2.86-5.405l1.149.576a24.448,24.448,0,0,1-1.01,2.308l.012,9.139-1.288,0-.01-6.915c-.188.305-.362.6-.523.889a4.533,4.533,0,0,1-.533.769Zm12.645,4.969,0,1.2-9.1.014,0-1.2Zm-.3-7.849,0,1.2-8.516.014,0-1.2Zm-6.169,7.424a28.755,28.755,0,0,0-1.562-5.356l1.229-.358a27.08,27.08,0,0,1,1.7,5.358Zm-.323-9.186.8-.769a12.851,12.851,0,0,1,2.21,1.67l-.91.867a16.01,16.01,0,0,0-2.1-1.768m5.542,3.69A28.981,28.981,0,0,1,907,386.769l-1.312-.433a21.242,21.242,0,0,0,1.6-5.39Z" transform="translate(41.883 2.475)" fill="#070304"/>
    <path id="Path_19278" data-name="Path 19278" d="M909.821,382.6a6.431,6.431,0,0,1-1.384,4.021,7.266,7.266,0,0,1-3.026,2.167l-.834-1.075q3.806-1.559,3.894-5.112l-3.62.008,0-1.188,5.378-.01-.01-4.656,1.394,0,.008,4.657,5.321-.008,0,1.188-3.872.006.006,4.211c0,.3.161.446.484.446l1.662,0a.569.569,0,0,0,.625-.55,14.87,14.87,0,0,0,.12-1.658l1.233.38a7.1,7.1,0,0,1-.327,2.314c-.188.472-.693.713-1.515.713l-2.118,0a1.324,1.324,0,0,1-1.505-1.488l0-4.366Zm-2.373-1.7a16.084,16.084,0,0,0-1.505-2.911l1.247-.474a12.189,12.189,0,0,1,1.625,2.839Zm8.389-3.015a10.087,10.087,0,0,1-1.631,2.964l-1.263-.65a11.144,11.144,0,0,0,1.633-2.717Z" transform="translate(48.944 2.464)" fill="#070304"/>
    <path id="Path_19279" data-name="Path 19279" d="M916.759,379.345l-4.826.012,0-1.089h1.942a7.4,7.4,0,0,0-.589-1.365l1.261-.155a7,7,0,0,1,.6,1.515h1.613l0-.777,6.087-.012q-.109,2.461-.1,4.99.006,4.722.411,4.724.264,0,.354-2.175l1.077.638q-.291,3.089-1.539,3.091c-.511,0-.91-.36-1.208-1.086s-.446-2.694-.45-5.916c0-1.116.012-2.13.049-3.04l-4.667.01Zm-4.5.865,4.209-.006,0,1.018-4.211.008Zm0,1.928,4.211-.008v1.008l-4.209.008Zm.045,2.038,4.168-.006.008,4.468h-1.165l0-.587-1.838.006,0,.715-1.167,0Zm3.005.977-1.836,0,0,1.9,1.836,0Zm4.225-5.812,0,2.811,1.384,0v1.173l-1.38,0,.01,5.437-1.261,0-.01-5.439-1.329,0v-1.171l1.329,0-.006-2.811Z" transform="translate(55.988 2.457)" fill="#070304"/>
    <path id="Path_19280" data-name="Path 19280" d="M921.862,378.594a19.806,19.806,0,0,1-2.075.221l-.288-1.073a17.847,17.847,0,0,0,5.163-.926l.458,1.047a15.791,15.791,0,0,1-2.026.525l0,1.8h2.04l0,1.1-2.04,0v.114q1.506,1.324,2.273,2.114l-.75,1.1a10.561,10.561,0,0,0-.809-.971c-.229-.264-.472-.548-.713-.854l.012,5.922-1.233.051-.008-5.245a12.319,12.319,0,0,1-1.819,2.86l-.752-1.145a12.783,12.783,0,0,0,2.529-3.947l-2.457,0,0-1.1,2.494,0Zm3.126,7.306,0-1.184,4.491-.644-.008-7.338,1.245,0,.008,7.195,1.206-.192,0,1.165-1.206.192.006,3.663-1.245,0-.008-3.51Zm2.9-2.594a18.972,18.972,0,0,0-2.439-1.693l.789-.857a18.171,18.171,0,0,1,2.486,1.568Zm.239-3.1a24.939,24.939,0,0,0-2.416-1.67l.8-.842a25.176,25.176,0,0,1,2.457,1.554Z" transform="translate(63.045 2.439)" fill="#070304"/>
    <path id="Path_19281" data-name="Path 19281" d="M931.67,380.5l-1.58,0,0,2.257a12.8,12.8,0,0,0,1.568-.568l0,1.255a11.741,11.741,0,0,1-1.568.589l0,3.125a1.881,1.881,0,0,1-.268,1.2,1.806,1.806,0,0,1-1.272.307H927.5l-.313-1.286,1.169.037c.292,0,.443-.141.443-.423l0-2.6c-.763.188-1.359.335-1.8.439l-.325-1.38a15.973,15.973,0,0,0,2.12-.386l-.008-2.565-1.981,0,0-1.161,1.983,0,0-2.616,1.32,0,0,2.614h1.586l0-.82,2.88,0,0-1.8h1.329l0,1.8,3.164-.006,0,1.163-3.162.006v1.709l2.709-.006,0,1.059a6.62,6.62,0,0,1-.883,1.8,7.219,7.219,0,0,1-1.46,1.752,8.385,8.385,0,0,0,3.033,1.49l-.679,1.2a9.164,9.164,0,0,1-3.326-1.9,10.447,10.447,0,0,1-4.045,1.934l-.74-1.159a11.684,11.684,0,0,0,3.857-1.652,12.282,12.282,0,0,1-2.026-2.715l1.11-.423a11.461,11.461,0,0,0,1.85,2.435,5.617,5.617,0,0,0,1.942-2.643l-5.323,0,0-1.173,2.655,0,0-1.709-2.878.006Z" transform="translate(70.106 2.43)" fill="#070304"/>
    <path id="Path_19282" data-name="Path 19282" d="M936.03,384.3a9.013,9.013,0,0,1-.948,4.24l-1.055-.7a6.825,6.825,0,0,0,.581-1.8,30.457,30.457,0,0,0,.235-4.977l0-4.16,3.978-.006.014,10.39c0,.713-.317,1.071-.959,1.071l-1.339,0-.217-1.159,1.059.049c.188,0,.28-.088.28-.258l-.008-3.074q-.49.537-1.067,1.138Zm1.611-6.28-1.619,0,0,1.519.906-.284a12.564,12.564,0,0,1,.713,1.6Zm-.047,3.14-.832.356q-.335-.931-.736-1.846l.006,4.325a8.664,8.664,0,0,0,1.564-1.535Zm7.263-1.455c0,.46.213.691.634.691l1.016,0,.006,1.161-1.494,0a1.751,1.751,0,0,1-1.085-.278,1.661,1.661,0,0,1-.349-1.265l0-2.016-1.93,0v.439a4.9,4.9,0,0,1-1.335,3.62l-1.13-.736a3.9,3.9,0,0,0,.871-1.251,6.6,6.6,0,0,0,.321-2.451l0-.752,4.491-.006Zm.971,3.4a7.374,7.374,0,0,1-1.913,3.324,12.425,12.425,0,0,0,2.737,1.051l-.564,1.1a10.124,10.124,0,0,1-3.111-1.3,9.026,9.026,0,0,1-3.054,1.3l-.646-1.049a7.989,7.989,0,0,0,2.7-1.1,9.1,9.1,0,0,1-1.682-2.592l1.083-.343a6.875,6.875,0,0,0,1.5,2.193,6.273,6.273,0,0,0,1.509-2.414l-4.865.006v-1.136l6.31-.008Z" transform="translate(77.15 2.568)" fill="#070304"/>
    <path id="Path_19283" data-name="Path 19283" d="M941.384,382.01a14.9,14.9,0,0,0,3.115-5.3l1.275.5a22.978,22.978,0,0,1-1.2,2.633l.014,8.882-1.327,0-.01-6.9a19.19,19.19,0,0,1-1.325,1.758Zm6.036-5.215,1.249.393a6.987,6.987,0,0,1-2.686,4.231l-1.09-.906a6.012,6.012,0,0,0,2.527-3.718m5.785,4.763q-.114,3.43-.3,4.761a2.6,2.6,0,0,1-.7,1.711,4.22,4.22,0,0,1-2.277.4h-.321l-.352-1.38c.476.045.9.065,1.29.063a.869.869,0,0,0,.934-.6V386.5a16.244,16.244,0,0,0,.386-3.792l-2.21,0a6.7,6.7,0,0,1-3.745,5.967l-.967-1.032a5.708,5.708,0,0,0,3.4-4.932l-2.437,0,0-1.175ZM951.67,377a6.377,6.377,0,0,0,2.337,3.213l-.895,1.151a6.917,6.917,0,0,1-2.392-3.2l-1.406,0,0-1.161Z" transform="translate(84.196 2.418)" fill="#070304"/>
    <path id="Path_19284" data-name="Path 19284" d="M951.489,382.647a19.635,19.635,0,0,1-1.985,1.572l-.761-1.147a12.127,12.127,0,0,0,4.107-3.731l-3.886.008,0-1.165,4.573-.006a8.541,8.541,0,0,0,.707-1.482l1.408.213a9.47,9.47,0,0,1-.572,1.263l6.3-.008,0,1.161-6.932.016a6.318,6.318,0,0,1-.8,1.122l6.566-.012.012,6.47a1.77,1.77,0,0,1-.36,1.29,2.1,2.1,0,0,1-1.447.36l-1.65,0-.27-1.224,1.678.059a1.044,1.044,0,0,0,.534-.08c.08-.055.124-.239.121-.546l0-.83-5.936.01,0,2.758-1.4,0Zm1.39-1.047,0,1.057,5.924-.008,0-1.059Zm0,2.128,0,1.135,5.924-.008,0-1.135Z" transform="translate(91.243 2.407)" fill="#070304"/>
    <path id="Path_19285" data-name="Path 19285" d="M960.595,377.782a22.041,22.041,0,0,1-1.014,3.177,7.073,7.073,0,0,1,1.079,2.948q0,1.771-1.926,1.776a2.441,2.441,0,0,1-.431-.027l-.35-1.2a6.726,6.726,0,0,0,.777.047c.483,0,.724-.208.724-.626a6.781,6.781,0,0,0-1.132-2.864,22.648,22.648,0,0,0,1-2.952l-1.864,0,.018,10.427-1.235,0-.016-11.551,4.37-.006Zm4.366,4.779a5.031,5.031,0,0,0,.611,1.887,8.137,8.137,0,0,0,1.821-1.586l.951.842a11.848,11.848,0,0,1-2.128,1.725,7.907,7.907,0,0,0,2.416,2.075l-.764.971a8.114,8.114,0,0,1-4.1-5.914l-1.353,0,.008,4.146c.4-.119.789-.229,1.167-.333a9.714,9.714,0,0,0,1.108-.386l0,1.212a28.563,28.563,0,0,1-4.419,1.222l-.245-1.235a8.848,8.848,0,0,0,1.163-.221l-.014-10.055,6.678-.012.006,5.656Zm1.688-4.573-4.237.006,0,1.175,4.237-.006Zm-4.231,3.475,4.237,0,0-1.228-4.237.008Z" transform="translate(98.41 2.603)" fill="#070304"/>
    <path id="Path_19286" data-name="Path 19286" d="M967.416,376.694l1.249.47a12.751,12.751,0,0,1-4.133,5.736l-1.061-.967a10.807,10.807,0,0,0,3.945-5.239m5.305,6.474a16.764,16.764,0,0,1,2.621,5.1l-1.394.384a4.86,4.86,0,0,0-.484-1.288q-2.2.223-9.086.628l-.26-1.431c.358.006.675.012.955.012.327,0,.632-.01.908-.025a16.573,16.573,0,0,0,2.833-5.891l1.411.343a20.548,20.548,0,0,1-2.619,5.48,49.151,49.151,0,0,0,5.44-.352,21.348,21.348,0,0,0-1.517-2.473Zm-.423-6.212a9.669,9.669,0,0,0,3.8,4.5l-1.018,1a10.924,10.924,0,0,1-3.587-4.381l-2.089,0,0-1.122Z" transform="translate(105.349 2.405)" fill="#070304"/>
    <path id="Path_19287" data-name="Path 19287" d="M982.85,376.949l.014,9.842a1.636,1.636,0,0,1-.307,1.186,1.873,1.873,0,0,1-1.259.307l-2.2.008-.311-1.267,2.2.061q.482,0,.482-.458l-.014-8.5-10.507.021,0-1.188Zm-2.516,2.392,0,1.173-8.916.016,0-1.173Zm-8.387,2.4,7.467-.01.006,4.248-7.463.014Zm6.155,1.114-4.841.008,0,2.016,4.842-.008Z" transform="translate(112.507 2.649)" fill="#070304"/>
    <path id="Path_19288" data-name="Path 19288" d="M878.361,385.486H876.3l.146-.682h5.009l-.15.682H879.23l-1.193,5.708h-.869Z" transform="translate(21.862 10.172)" fill="#070304"/>
    <path id="Path_19289" data-name="Path 19289" d="M881.8,390.366a10.392,10.392,0,0,1,.118-1.186h-.026a2.22,2.22,0,0,1-1.968,1.29,1.411,1.411,0,0,1-1.457-1.519,3.357,3.357,0,0,1,3.5-3.281,5.59,5.59,0,0,1,1.361.172l-.515,2.4a9.448,9.448,0,0,0-.205,2.126Zm.556-4a2.038,2.038,0,0,0-.6-.065,2.531,2.531,0,0,0-2.388,2.51c0,.515.2,1.016.857,1.016.734,0,1.592-.854,1.834-2.077Z" transform="translate(23.938 11)" fill="#070304"/>
    <path id="Path_19290" data-name="Path 19290" d="M881.371,391.251l.965-4.589h.867l-.965,4.589Zm1.621-5.435a.49.49,0,0,1-.509-.511.584.584,0,0,1,.6-.56.508.508,0,0,1,.544.511.584.584,0,0,1-.623.56Z" transform="translate(26.72 10.115)" fill="#070304"/>
    <path id="Path_19291" data-name="Path 19291" d="M883.765,385.724l.18,2.578a9.972,9.972,0,0,1,.018,1.233H884a10.038,10.038,0,0,1,.556-1.149l1.5-2.663h.766l.315,2.616c.049.5.08.889.08,1.2h.024c.137-.372.272-.722.481-1.169l1.373-2.643h.881l-2.506,4.589h-.807l-.337-2.5a10.461,10.461,0,0,1-.07-1.222h-.026c-.206.446-.352.787-.581,1.194l-1.458,2.524h-.8l-.474-4.589Z" transform="translate(28.19 11.053)" fill="#070304"/>
    <path id="Path_19292" data-name="Path 19292" d="M889.946,390.366a10.74,10.74,0,0,1,.113-1.186h-.02a2.219,2.219,0,0,1-1.971,1.29,1.41,1.41,0,0,1-1.453-1.519,3.356,3.356,0,0,1,3.5-3.281,5.633,5.633,0,0,1,1.363.172l-.515,2.4a9.5,9.5,0,0,0-.211,2.126Zm.556-4a2.066,2.066,0,0,0-.6-.065,2.531,2.531,0,0,0-2.388,2.51c0,.515.2,1.016.859,1.016.73,0,1.592-.854,1.834-2.077Z" transform="translate(31.743 11)" fill="#070304"/>
    <path id="Path_19293" data-name="Path 19293" d="M889.526,390.366l.669-3.256c.116-.513.192-.957.243-1.333h.785l-.137.9h.02a2.3,2.3,0,0,1,1.887-1.008,1.183,1.183,0,0,1,1.276,1.273,3.773,3.773,0,0,1-.094.738l-.566,2.686h-.858l.554-2.655a3.419,3.419,0,0,0,.065-.589.707.707,0,0,0-.8-.8,2.108,2.108,0,0,0-1.727,1.813l-.46,2.228Z" transform="translate(34.53 11)" fill="#070304"/>
    <path id="Path_19294" data-name="Path 19294" d="M896.738,390.468a1.836,1.836,0,0,1-1.979-1.887,2.857,2.857,0,0,1,2.809-2.911,1.838,1.838,0,0,1,1.991,1.907,2.868,2.868,0,0,1-2.811,2.892Zm.1-.628c1.028,0,1.8-1.192,1.8-2.263a1.17,1.17,0,0,0-1.182-1.28c-1.089,0-1.811,1.2-1.811,2.253a1.178,1.178,0,0,0,1.182,1.29Z" transform="translate(39.542 11.001)" fill="#070304"/>
    <path id="Path_19295" data-name="Path 19295" d="M897.422,392.24l1.02-4.834c.114-.552.217-1.179.282-1.641h.795l-.133.871h.018a2.3,2.3,0,0,1,1.827-.967,1.51,1.51,0,0,1,1.549,1.662,3.1,3.1,0,0,1-2.966,3.136,2.438,2.438,0,0,1-1.089-.206H898.7l-.411,1.977Zm1.427-2.647a1.653,1.653,0,0,0,.973.258,2.4,2.4,0,0,0,2.052-2.465.951.951,0,0,0-.971-1.065c-.681,0-1.529.707-1.789,1.993Z" transform="translate(42.092 11.001)" fill="#070304"/>
    <path id="Path_19296" data-name="Path 19296" d="M902.7,385.162l-.231,1.1h1.216l-.135.617h-1.216l-.46,2.238a2.951,2.951,0,0,0-.106.728c0,.276.145.444.482.444a1.923,1.923,0,0,0,.407-.035l-.039.617a2.251,2.251,0,0,1-.67.084c-.767,0-1.073-.419-1.073-.891A3.815,3.815,0,0,1,901,389.2l.491-2.32h-.726l.129-.617h.72l.176-.846Z" transform="translate(45.29 10.515)" fill="#070304"/>
    <path id="Path_19297" data-name="Path 19297" d="M902.415,391.251l.963-4.589h.871l-.963,4.589Zm1.623-5.435a.492.492,0,0,1-.513-.511.59.59,0,0,1,.6-.56.506.506,0,0,1,.544.511.578.578,0,0,1-.617.56Z" transform="translate(46.874 10.115)" fill="#070304"/>
    <path id="Path_19298" data-name="Path 19298" d="M907.22,390.185a3.611,3.611,0,0,1-1.464.284,1.739,1.739,0,0,1-1.95-1.776,3.056,3.056,0,0,1,3.1-3.023,2.622,2.622,0,0,1,1.055.208l-.251.615a2.169,2.169,0,0,0-3.005,2.1,1.133,1.133,0,0,0,1.255,1.231,2.786,2.786,0,0,0,1.173-.256Z" transform="translate(48.206 11.001)" fill="#070304"/>
    <path id="Path_19299" data-name="Path 19299" d="M909.445,390.366a11.631,11.631,0,0,1,.112-1.186h-.018a2.221,2.221,0,0,1-1.969,1.29,1.411,1.411,0,0,1-1.457-1.519,3.357,3.357,0,0,1,3.5-3.281,5.562,5.562,0,0,1,1.36.172l-.513,2.4a9.467,9.467,0,0,0-.208,2.126Zm.556-4a2.058,2.058,0,0,0-.6-.065,2.531,2.531,0,0,0-2.39,2.51c0,.515.2,1.016.859,1.016.734,0,1.589-.854,1.83-2.077Z" transform="translate(50.416 11)" fill="#070304"/>
    <path id="Path_19300" data-name="Path 19300" d="M909.023,391.361l1.417-6.731h.867l-1.416,6.731Z" transform="translate(53.203 10.005)" fill="#070304"/>
    <path id="Path_19301" data-name="Path 19301" d="M912.361,392.24l1.022-4.834c.114-.552.215-1.179.28-1.641h.793l-.133.871h.022a2.289,2.289,0,0,1,1.821-.967,1.511,1.511,0,0,1,1.552,1.662,3.094,3.094,0,0,1-2.964,3.136,2.441,2.441,0,0,1-1.09-.206h-.02l-.411,1.977Zm1.427-2.647a1.655,1.655,0,0,0,.975.258,2.406,2.406,0,0,0,2.054-2.465.954.954,0,0,0-.973-1.065c-.683,0-1.531.707-1.791,1.993Z" transform="translate(56.4 11.001)" fill="#070304"/>
    <path id="Path_19302" data-name="Path 19302" d="M915.552,391.361l1.416-6.731h.867l-1.415,6.731Z" transform="translate(59.455 10.005)" fill="#070304"/>
    <path id="Path_19303" data-name="Path 19303" d="M920.26,390.366a10.716,10.716,0,0,1,.114-1.186h-.02a2.221,2.221,0,0,1-1.971,1.29,1.41,1.41,0,0,1-1.456-1.519,3.354,3.354,0,0,1,3.5-3.281,5.581,5.581,0,0,1,1.363.172l-.515,2.4a9.442,9.442,0,0,0-.206,2.126Zm.552-4a2.016,2.016,0,0,0-.6-.065,2.529,2.529,0,0,0-2.388,2.51c0,.515.2,1.016.857,1.016.732,0,1.6-.854,1.834-2.077Z" transform="translate(60.772 11)" fill="#070304"/>
    <path id="Path_19304" data-name="Path 19304" d="M921.925,385.162l-.233,1.1h1.218l-.135.617h-1.218l-.46,2.238a3.034,3.034,0,0,0-.1.728c0,.276.147.444.484.444a1.9,1.9,0,0,0,.405-.035l-.043.617a2.187,2.187,0,0,1-.666.084c-.769,0-1.069-.419-1.069-.891a4,4,0,0,1,.112-.865l.491-2.32h-.72l.127-.617h.72l.178-.846Z" transform="translate(63.703 10.515)" fill="#070304"/>
    <path id="Path_19305" data-name="Path 19305" d="M921.705,391.412l.826-3.972h-.67l.125-.617h.681l.043-.245a2.68,2.68,0,0,1,.826-1.6,1.92,1.92,0,0,1,1.2-.407,1.535,1.535,0,0,1,.7.123l-.188.625a1.368,1.368,0,0,0-.515-.084c-.687,0-1.028.6-1.169,1.363l-.049.221h1.138l-.137.617H923.4l-.826,3.972Z" transform="translate(65.349 9.954)" fill="#070304"/>
    <path id="Path_19306" data-name="Path 19306" d="M925.3,390.468a1.837,1.837,0,0,1-1.981-1.887,2.858,2.858,0,0,1,2.807-2.911,1.837,1.837,0,0,1,1.991,1.907,2.865,2.865,0,0,1-2.807,2.892Zm.1-.628c1.028,0,1.8-1.192,1.8-2.263a1.169,1.169,0,0,0-1.184-1.28c-1.089,0-1.809,1.2-1.809,2.253a1.176,1.176,0,0,0,1.181,1.29Z" transform="translate(66.891 11.001)" fill="#070304"/>
    <path id="Path_19307" data-name="Path 19307" d="M926.21,390.366l.619-2.958c.123-.6.2-1.208.251-1.631h.765c-.033.321-.07.634-.137,1h.033a1.821,1.821,0,0,1,1.549-1.1,2.025,2.025,0,0,1,.252.021l-.166.777a1.4,1.4,0,0,0-.243-.022c-.742,0-1.413.828-1.633,1.891l-.421,2.028Z" transform="translate(69.663 11)" fill="#070304"/>
    <path id="Path_19308" data-name="Path 19308" d="M928.045,390.366l.683-3.256c.1-.513.174-.957.229-1.333h.765l-.137.861h.031a2.2,2.2,0,0,1,1.781-.969,1.053,1.053,0,0,1,1.181,1.024,2.231,2.231,0,0,1,1.856-1.024,1.158,1.158,0,0,1,1.237,1.206,4.632,4.632,0,0,1-.082.777l-.568,2.713h-.848l.544-2.647a2.823,2.823,0,0,0,.07-.6c0-.484-.194-.8-.761-.8a1.944,1.944,0,0,0-1.6,1.688l-.48,2.353h-.838l.568-2.694a2.972,2.972,0,0,0,.059-.562c0-.386-.114-.785-.752-.785s-1.423.76-1.625,1.735l-.472,2.306Z" transform="translate(71.421 11)" fill="#070304"/>
    <path id="Path_19309" data-name="Path 19309" d="M940.052,390.689a4.506,4.506,0,0,1-1.621.268,2.258,2.258,0,0,1-2.523-2.341,3.39,3.39,0,0,1,1.321-2.717,3.785,3.785,0,0,1,2.357-.754,2.789,2.789,0,0,1,1.349.268l-.25.558a2.991,2.991,0,0,0-3.009.4,2.819,2.819,0,0,0-.952,2.152,1.687,1.687,0,0,0,1.893,1.84,3.376,3.376,0,0,0,1.329-.243Z" transform="translate(78.95 10.498)" fill="#070304"/>
    <path id="Path_19310" data-name="Path 19310" d="M941.467,390.095a9.184,9.184,0,0,1,.1-1.045h-.016a1.965,1.965,0,0,1-1.738,1.136,1.242,1.242,0,0,1-1.286-1.337,2.958,2.958,0,0,1,3.087-2.9,5.206,5.206,0,0,1,1.2.149l-.454,2.118a8.073,8.073,0,0,0-.184,1.876Zm.49-3.532a1.742,1.742,0,0,0-.525-.057,2.231,2.231,0,0,0-2.11,2.214c0,.452.178.9.758.9.648,0,1.408-.752,1.621-1.836Z" transform="translate(81.461 11.271)" fill="#070304"/>
    <path id="Path_19311" data-name="Path 19311" d="M942.988,385.033l-.591,2.627h.018a1.926,1.926,0,0,1,1.57-.828,1.314,1.314,0,0,1,1.351,1.457,2.792,2.792,0,0,1-2.784,2.776c-.785,0-1.374-.292-1.374-1.038a2.872,2.872,0,0,1,.082-.634l.961-4.36Zm-.969,4.374a1.674,1.674,0,0,0-.057.523c0,.384.252.589.719.589a2.107,2.107,0,0,0,1.858-2.148c0-.5-.237-.963-.85-.963a1.833,1.833,0,0,0-1.57,1.574Z" transform="translate(83.998 10.391)" fill="#070304"/>
    <path id="Path_19312" data-name="Path 19312" d="M943.7,390.974l1.249-5.941h.765l-1.249,5.941Z" transform="translate(86.412 10.391)" fill="#070304"/>
    <path id="Path_19313" data-name="Path 19313" d="M948.094,389.867a3.482,3.482,0,0,1-1.476.317,1.534,1.534,0,0,1-1.7-1.629,2.6,2.6,0,0,1,2.443-2.6c.846,0,1.312.462,1.312,1.045,0,1.063-1.323,1.337-2.978,1.314a1.515,1.515,0,0,0,.09.769,1.03,1.03,0,0,0,1,.544,2.675,2.675,0,0,0,1.2-.276Zm-.164-2.858c0-.331-.278-.513-.685-.513a1.666,1.666,0,0,0-1.462,1.278c1.2.018,2.148-.131,2.148-.762Z" transform="translate(87.578 11.271)" fill="#070304"/>
    <path id="Path_19314" data-name="Path 19314" d="M953.449,390.827l.438-3.046c.082-.534.221-1.366.331-1.909h-.024c-.29.568-.638,1.241-.973,1.817l-1.856,3.1h-.583l-.462-3.038c-.092-.65-.16-1.3-.194-1.881H950.1c-.129.519-.325,1.374-.472,1.909l-.85,3.046h-.722l1.615-5.64h.985l.489,3.238c.063.476.129.987.145,1.415h.027c.2-.429.464-.932.732-1.4l1.921-3.256h1.008l-.793,5.64Z" transform="translate(90.585 10.539)" fill="#070304"/>
    <path id="Path_19315" data-name="Path 19315" d="M952.128,390a2.52,2.52,0,0,0,1.32.36c.7,0,1.351-.376,1.351-1.057,0-.423-.26-.734-.914-1.053-.795-.393-1.237-.844-1.237-1.447,0-1.01.961-1.654,2.1-1.654a2.509,2.509,0,0,1,1.276.292l-.278.566a2.234,2.234,0,0,0-1.073-.266c-.775,0-1.239.462-1.239.922s.319.718.973,1.043c.766.378,1.184.822,1.184,1.508,0,.981-.844,1.746-2.245,1.746a2.748,2.748,0,0,1-1.5-.39Z" transform="translate(94.221 10.498)" fill="#070304"/>
    <path id="Path_19316" data-name="Path 19316" d="M956.7,390.961a2.191,2.191,0,0,1-2.365-2.291,3.89,3.89,0,0,1,1.128-2.711,3.259,3.259,0,0,1,2.156-.82,2.16,2.16,0,0,1,2.355,2.31,3.824,3.824,0,0,1-1.083,2.67,3.082,3.082,0,0,1-2.179.842Zm.1-.581c1.331,0,2.347-1.533,2.347-2.9a1.535,1.535,0,0,0-1.645-1.754c-1.406,0-2.369,1.59-2.369,2.884a1.574,1.574,0,0,0,1.656,1.77Z" transform="translate(96.603 10.493)" fill="#070304"/>
    <line id="Line_69" data-name="Line 69" y1="6.419" transform="translate(1011.11 395.106)" fill="none" stroke="#070304" stroke-width="0.182"/>
    <path id="Path_19317" data-name="Path 19317" d="M964.608,393.661h-4.033l8.153-8.684h4.037Z" transform="translate(102.575 10.338)" fill="#ec660d"/>
    <path id="Path_19318" data-name="Path 19318" d="M966.634,393.661H962.6l8.157-8.684h4.035Z" transform="translate(104.514 10.338)" fill="#ec660d"/>
    <path id="Path_19319" data-name="Path 19319" d="M969.967,393.661h-4.036l8.156-8.684h4.037Z" transform="translate(107.706 10.338)" fill="#00609a"/>
    <path id="Path_19320" data-name="Path 19320" d="M971.994,393.661h-4.037l8.16-8.684h4.033Z" transform="translate(109.645 10.338)" fill="#00609a"/>
    <path id="Path_19321" data-name="Path 19321" d="M973.985,393.661H969.95l8.156-8.684h4.039Z" transform="translate(111.554 10.338)" fill="#00609a"/>
    <path id="Path_19322" data-name="Path 19322" d="M975.991,393.661h-4.037l8.157-8.684h4.037Z" transform="translate(113.473 10.338)" fill="#00609a"/>
  </g>
</svg>
