<svg xmlns="http://www.w3.org/2000/svg" width="111.89" height="29.997" viewBox="0 0 111.89 29.997">
  <g id="Group_5197" data-name="Group 5197" transform="translate(-264.365 -447.019)">
    <g id="Group_5181" data-name="Group 5181" transform="translate(264.365 447.019)">
      <g id="Group_5179" data-name="Group 5179" transform="translate(0 5.602)">
        <path id="Path_19647" data-name="Path 19647" d="M283.926,474.368c-3.476-1.046-14.676-.9-18.6-.821h0l-.439.009s-.879.015-.364.264l5.659,2.387s7.639-1.985,11.57-1.054c3.191.759-.838,3.217-6.145,8.949-6.529,7.048-4.2,13.763-4.2,13.763l6.92-.011c-2.484-8.4,1.361-14.983,4.512-18.511C283.779,478.289,287.284,475.376,283.926,474.368Z" transform="translate(-264.365 -473.49)" fill="#f38200"/>
      </g>
      <g id="Group_5180" data-name="Group 5180" transform="translate(0.048)">
        <path id="Path_19648" data-name="Path 19648" d="M283.334,461.643l5.609-.009c.055-.23.119-.454.185-.676l2.16,0c-.031-.421-.039-.83-.033-1.224l-1.7,0,0,0-4.874.008C284.255,460.337,283.8,460.968,283.334,461.643ZM303,476.278l-.571-.351h0q-1.179-.723-2.208-1.455l-5.133.008,0,0-14.8.022a16.725,16.725,0,0,0,.682,2.484l18.725-.029-.036-.015,3.628-.006C304.145,476.928,303,476.278,303,476.278Zm-14.376-11.606h0l-7.158.01a14.887,14.887,0,0,0-.756,1.9l8.17-.012c-.054-.229-.1-.452-.131-.68l3.83-.006c-.189-.411-.356-.82-.5-1.222Zm.407,2.464-8.488.013a15.52,15.52,0,0,0-.4,1.9l9.669-.015c-.12-.226-.225-.451-.326-.675l4.5-.007q-.419-.616-.763-1.222l-4.19.006S289.031,467.139,289.031,467.137Zm-2.634-9.868c-.378.58-.822,1.216-1.311,1.9l4.712-.008c.106-.235.216-.458.328-.677h1.21c.047-.432.111-.841.189-1.223h-.709Zm4.6,13.561,4.985-.008q-.574-.614-1.066-1.221l-4.776.007v0l-10.065.016a16.249,16.249,0,0,0-.089,1.9l11.579-.017C291.361,471.279,291.173,471.054,291,470.829Zm2.465,2.46,5.191-.008q-.755-.608-1.416-1.219l-8.318.013h0L280,472.09a16.565,16.565,0,0,0,.189,1.844l14.082-.021Q293.846,473.6,293.461,473.289ZM286.754,456.7l4.43-.007c.092-.137.185-.267.273-.39,4.721-6.513-11.456-6.046-11.456-6.046l-7.6.106,1.915-3.076c.18-.309.027-.3-.159-.225l-9.289,4.7-.071.037s-.459.231,0,.2c.048,0,.1-.007.152-.01h0c2.638-.2,12.989-.868,20.5.526C288.238,453.035,288.149,454.4,286.754,456.7Zm-4.185,6.054a15.3,15.3,0,0,0-.815,1.359l6.865-.01c.006-.229.018-.455.037-.681l3.037,0c-.107-.417-.192-.824-.258-1.222l-4.642.008h0l-3.852.006Z" transform="translate(-264.59 -447.019)" fill="#0076c9"/>
      </g>
    </g>
    <g id="Group_5188" data-name="Group 5188" transform="translate(306.733 453.077)">
      <g id="Group_5182" data-name="Group 5182" transform="translate(0 0.217)">
        <path id="Path_19649" data-name="Path 19649" d="M470.355,477.029a21.27,21.27,0,0,1-2.406,3.575h.991q3.309-.005,5.277-.149-1.125-1.095-2.187-2l1.071-.766a30.147,30.147,0,0,1,4.051,3.947l-1.057.984a5.981,5.981,0,0,0-.456-.586c-.125-.154-.237-.3-.336-.434q-4.26.263-10.128.272h-.5l-.135-1.339c.4.034.751.054,1.045.063h.75A15.334,15.334,0,0,0,469,476.662Zm-4.642,6.116,10.226-.015.008,5.534-1.368,0V487.9l-7.492.012,0,.765h-1.366Zm8.859,1.121-7.488.012,0,2.5,7.489-.011Z" transform="translate(-464.546 -476.662)" fill="#1a1311"/>
      </g>
      <g id="Group_5183" data-name="Group 5183" transform="translate(14.633 0.166)">
        <path id="Path_19650" data-name="Path 19650" d="M540.612,481.552l0,2.3-2.705,0a2.508,2.508,0,0,1-.32.574l3.616-.005v.917l-1,0a4.955,4.955,0,0,1-1.3,1.546q.39.152.764.318c.25.094.483.187.7.279l-.655.92q-.308-.165-.912-.445c-.285-.119-.567-.25-.844-.394a7.035,7.035,0,0,1-3.534.859h-.12l-.5-.93c.125.009.294.012.508.012a5.9,5.9,0,0,0,2.478-.424q-.617-.305-2.024-.838a11.426,11.426,0,0,0,.83-.9l-1.768,0,0-.918,2.531,0a2.142,2.142,0,0,0,.361-.574l-2.17,0,0-2.3,2.424,0v-.6l-2.477,0,0-1.556h-.8v-.854l.8,0,0-1.491,2.478,0v-.625h1.1v.624l2.478,0,0,1.492h.71v.855h-.71l0,1.556-2.478,0v.6Zm-3.651-3.005v-.637l-1.38,0v.637Zm0,1.557v-.7l-1.381,0v.7Zm0,2.257-1.34,0v.69l1.341,0Zm-.116,2.984a6.367,6.367,0,0,1-.535.575c.223.092.469.182.737.266q.455.154.791.279a4.846,4.846,0,0,0,1.137-1.123Zm2.588-6.8v-.638l-1.38,0v.637Zm0,1.557v-.7l-1.38,0v.7Zm.084,2.256-1.461,0v.689l1.461,0Zm1.043-.881a9.721,9.721,0,0,0,1.639-5.053l1.18.15a9.608,9.608,0,0,1-.319,1.915l3.108,0,0,1.058h-.791a19.066,19.066,0,0,1-1.169,5.919,2.928,2.928,0,0,0,.631.739,8.123,8.123,0,0,0,1.475,1.145l-.789,1.073a9.328,9.328,0,0,1-1.945-1.974,6.665,6.665,0,0,1-2.221,1.98l-.685-1.069a4.744,4.744,0,0,0,2.221-1.853,16.3,16.3,0,0,1-1.078-3.837,2.605,2.605,0,0,1-.307.548c-.08.112-.169.242-.267.4Zm2.221-1.929a2.467,2.467,0,0,1-.24.676q0,.117.284,1.492a15.712,15.712,0,0,0,.686,2.473,18.034,18.034,0,0,0,.756-4.655Z" transform="translate(-533.684 -476.422)" fill="#1a1311"/>
      </g>
      <g id="Group_5184" data-name="Group 5184" transform="translate(29.358 0.073)">
        <path id="Path_19651" data-name="Path 19651" d="M605.819,477.845a20.169,20.169,0,0,1-2.076.22l-.283-1.071a17.711,17.711,0,0,0,5.157-.927l.456,1.045a16.109,16.109,0,0,1-2.022.526l0,1.8,2.036,0,0,1.1-2.037,0v.115q1.5,1.324,2.267,2.113l-.748,1.1a11.786,11.786,0,0,0-.806-.968q-.348-.394-.711-.854l.009,5.918-1.233.054-.008-5.242a12.39,12.39,0,0,1-1.819,2.861l-.752-1.147a12.729,12.729,0,0,0,2.526-3.945l-2.451,0v-1.1l2.492,0Zm3.123,7.3v-1.186l4.486-.645-.011-7.332,1.246,0,.011,7.192,1.205-.192,0,1.161-1.205.194.005,3.66-1.246,0-.005-3.508Zm2.9-2.593a19.466,19.466,0,0,0-2.44-1.693l.789-.855a18.157,18.157,0,0,1,2.481,1.565Zm.237-3.1a24.625,24.625,0,0,0-2.414-1.668l.8-.843a25.794,25.794,0,0,1,2.454,1.554Z" transform="translate(-603.256 -475.982)" fill="#1a1311"/>
      </g>
      <g id="Group_5187" data-name="Group 5187" transform="translate(43.861)">
        <g id="Group_5185" data-name="Group 5185">
          <path id="Path_19652" data-name="Path 19652" d="M681.755,485.992a9.736,9.736,0,0,1-1.7-.814h4.082v-1.084h-4.99v-.7h4.2v-1.125h-4.2V481.6h3.618v-1.017h-3.618v-.718h3.618v-1.017h-3.618v-.771h4.035v-1.071h-3.844l.219-.621a.264.264,0,0,0,.168-.229c0-.077-.081-.141-.217-.171l-.963-.251-.379,1.272h-2.417c.071-.109.143-.225.218-.348.053-.086.108-.175.166-.268.152-.043.175-.131.175-.181,0-.087-.049-.2-.284-.238l-.929-.333-.015.029a10.479,10.479,0,0,1-1.246,1.93,11.615,11.615,0,0,1-2.01,1.783l-.04.029.963.791.024-.019c.314-.251.717-.579,1.1-.925v4.135h3.994v.7h-5.474v1.084H677.1a9.2,9.2,0,0,1-1.517.653,20.979,20.979,0,0,1-3.316.846l-.071.013,1.061,1.061.02,0a16.458,16.458,0,0,0,2.71-.809,11.916,11.916,0,0,0,1.871-1.027v2.2h1.286V485.9a12.687,12.687,0,0,0,1.546.9,17.426,17.426,0,0,0,2.6,1l.024.007,1-1.172-.065-.011A13.242,13.242,0,0,1,681.755,485.992Zm-6.658-7.144v-.771h2.762v.771Zm0,1.735v-.718h2.762v.718Zm0,1.681V481.6h2.762v.664Z" transform="translate(-671.782 -475.638)" fill="#1a1311"/>
        </g>
        <g id="Group_5186" data-name="Group 5186" transform="translate(14.051 0.534)">
          <path id="Path_19653" data-name="Path 19653" d="M738.172,478.16v11.79H739.4v-.376h8.814v.376h1.219V478.16Zm5.044,4.742v.449h-1.336V482.9Zm0-1.156v.448h-1.336v-.448Zm2.475,1.156v.449h-1.336V482.9Zm-1.336-.708v-.448h1.336v.448Zm0,1.972h1.412c.088.089.178.189.273.294-.568.05-1.12.087-1.686.112Zm1.264,4.255a1.141,1.141,0,0,0,.363-.931v-.54h1.883v-.91h-1.883v-.733c.236-.013.464-.039.685-.063.133.179.257.377.389.586l.088.14.845-.568-.023-.032a13.292,13.292,0,0,0-1.1-1.365v-3.063h-2.515v-.3h3.362v-.909h-3.3a.373.373,0,0,0,.139-.231c0-.134-.174-.162-.3-.172l-1.036-.07v.473h-3.309v.909h3.309v.3H740.7v3.223h2.515v.478c-.9.047-2.008.1-3.11.132h-.046l.211.943c.006.045.023.181.159.181.065,0,.137-.053.221-.163,1.359-.1,2.917-.215,4.206-.331v.633h-5.044v.91h1.916l-.366.329.039.027a8.246,8.246,0,0,1,1.2,1.058l.026.027.729-.685-.029-.028a9.827,9.827,0,0,0-.855-.728h2.378v.374c-.024.2-.153.29-.393.29h-.782l.377.942H739.4v-9.379h8.814v9.379h-2.785A.548.548,0,0,0,745.618,488.422Z" transform="translate(-738.172 -478.16)" fill="#1a1311"/>
        </g>
      </g>
    </g>
    <g id="Group_5196" data-name="Group 5196" transform="translate(282.858 470.851)">
      <g id="Group_5189" data-name="Group 5189" transform="translate(0 0)">
        <path id="Path_19654" data-name="Path 19654" d="M420.112,559.625l-5.032,5.327-62.743.127-.6.7,65.431-.127h.267l2.2-.005,5.628-6.032Z" transform="translate(-351.741 -559.618)" fill="#0076c9"/>
      </g>
      <g id="Group_5190" data-name="Group 5190" transform="translate(69.42 0)">
        <path id="Path_19655" data-name="Path 19655" d="M682.542,565.658h-2.807l5.673-6.04h2.807Z" transform="translate(-679.735 -559.618)" fill="#f38200"/>
      </g>
      <g id="Group_5191" data-name="Group 5191" transform="translate(72.177 0)">
        <path id="Path_19656" data-name="Path 19656" d="M695.572,565.658h-2.807l5.673-6.04h2.807Z" transform="translate(-692.765 -559.618)" fill="#f38200"/>
      </g>
      <g id="Group_5192" data-name="Group 5192" transform="translate(76.715 0)">
        <path id="Path_19657" data-name="Path 19657" d="M717.014,565.658h-2.807l5.673-6.04h2.807Z" transform="translate(-714.206 -559.618)" fill="#0076c9"/>
      </g>
      <g id="Group_5193" data-name="Group 5193" transform="translate(79.473 0)">
        <path id="Path_19658" data-name="Path 19658" d="M730.044,565.658h-2.807l5.673-6.04h2.807Z" transform="translate(-727.237 -559.618)" fill="#0076c9"/>
      </g>
      <g id="Group_5194" data-name="Group 5194" transform="translate(82.187 0)">
        <path id="Path_19659" data-name="Path 19659" d="M742.867,565.658h-2.807l5.673-6.04h2.807Z" transform="translate(-740.059 -559.618)" fill="#0076c9"/>
      </g>
      <g id="Group_5195" data-name="Group 5195" transform="translate(84.917 0)">
        <path id="Path_19660" data-name="Path 19660" d="M755.763,565.658h-2.807l5.672-6.04h2.807Z" transform="translate(-752.956 -559.618)" fill="#0076c9"/>
      </g>
    </g>
    <path id="Path_19661" data-name="Path 19661" d="M1.053-8.153l.14-.676h.445l.111-.54L2.793-10,2.549-8.83H3.1l-.14.676H2.406L2.11-6.74a4.41,4.41,0,0,0-.079.438.207.207,0,0,0,.067.164.372.372,0,0,0,.241.059q.06,0,.3-.022L2.5-5.425a2.424,2.424,0,0,1-.483.048,1.077,1.077,0,0,1-.7-.186.64.64,0,0,1-.219-.516A4.828,4.828,0,0,1,1.212-6.8l.283-1.356Zm2.721,1.3A2.082,2.082,0,0,1,4.3-8.352a1.827,1.827,0,0,1,1.39-.557A1.593,1.593,0,0,1,6.858-8.5a1.48,1.48,0,0,1,.419,1.107,2.077,2.077,0,0,1-.524,1.416,1.774,1.774,0,0,1-1.4.6A1.813,1.813,0,0,1,4.5-5.568a1.243,1.243,0,0,1-.549-.54A1.606,1.606,0,0,1,3.774-6.858Zm2.6-.651a.715.715,0,0,0-.189-.519.648.648,0,0,0-.488-.2.816.816,0,0,0-.524.183,1.174,1.174,0,0,0-.356.53,1.878,1.878,0,0,0-.127.64.813.813,0,0,0,.2.575.646.646,0,0,0,.5.213A.774.774,0,0,0,6.01-6.4,1.717,1.717,0,0,0,6.372-7.509ZM8.941-8.83H9.8l-.073.346a2.049,2.049,0,0,1,.518-.327,1.357,1.357,0,0,1,.518-.1,1.082,1.082,0,0,1,.853.365,1.6,1.6,0,0,1,.322,1.089,2.243,2.243,0,0,1-.556,1.54,1.462,1.462,0,0,1-1.127.537,1.122,1.122,0,0,1-1.013-.543L8.88-4.171H7.969ZM9.49-6.9a.893.893,0,0,0,.192.611.586.586,0,0,0,.453.218.7.7,0,0,0,.435-.164,1.185,1.185,0,0,0,.348-.543,2.067,2.067,0,0,0,.138-.7.84.84,0,0,0-.181-.58.592.592,0,0,0-.461-.2.708.708,0,0,0-.475.186,1.192,1.192,0,0,0-.332.546A2.076,2.076,0,0,0,9.49-6.9Zm8.539,1.439h-.908l-.168-3.891-.74,3.891h-.864l.972-4.656h1.366l.143,3.262,1.588-3.262H20.8l-.975,4.656H18.95l.918-3.862Zm3.537-1.509.912-.048a1.017,1.017,0,0,0,.149.588.981.981,0,0,0,.775.248,1.089,1.089,0,0,0,.68-.168.506.506,0,0,0,.21-.407A.439.439,0,0,0,24.12-7.1a3.334,3.334,0,0,0-.662-.34,6.306,6.306,0,0,1-.791-.392,1.149,1.149,0,0,1-.392-.408,1.167,1.167,0,0,1-.143-.588,1.263,1.263,0,0,1,.426-.975,1.77,1.77,0,0,1,1.232-.387,1.9,1.9,0,0,1,1.269.384,1.416,1.416,0,0,1,.494,1.023l-.918.041a.747.747,0,0,0-.241-.511.911.911,0,0,0-.61-.178.9.9,0,0,0-.567.14.437.437,0,0,0-.17.353.412.412,0,0,0,.156.33,3.193,3.193,0,0,0,.689.365,3.845,3.845,0,0,1,1.023.562,1.088,1.088,0,0,1,.327.816,1.364,1.364,0,0,1-.488,1.053,1.964,1.964,0,0,1-1.358.437,2.477,2.477,0,0,1-1.04-.2,1.239,1.239,0,0,1-.621-.561A1.7,1.7,0,0,1,21.567-6.966Zm5.144-.318a3.33,3.33,0,0,1,.124-.87,3.119,3.119,0,0,1,.494-1.064,2.392,2.392,0,0,1,.837-.713,2.46,2.46,0,0,1,1.15-.262,1.878,1.878,0,0,1,1.4.537,1.933,1.933,0,0,1,.532,1.423A3.14,3.14,0,0,1,30.9-6.807a2.584,2.584,0,0,1-.94,1.061,2.48,2.48,0,0,1-1.343.372,1.922,1.922,0,0,1-1.093-.3A1.648,1.648,0,0,1,26.9-6.4,2.25,2.25,0,0,1,26.711-7.283Zm.946-.019a1.155,1.155,0,0,0,.292.8.986.986,0,0,0,.769.324,1.262,1.262,0,0,0,.745-.256,1.862,1.862,0,0,0,.591-.775,2.458,2.458,0,0,0,.233-1.012,1.206,1.206,0,0,0-.3-.862.99.99,0,0,0-.753-.313,1.326,1.326,0,0,0-1.142.654A2.519,2.519,0,0,0,27.657-7.3Z" transform="translate(307.336 479.831)" fill="#1a1311"/>
  </g>
</svg>
