<svg xmlns="http://www.w3.org/2000/svg" width="206.647" height="30" viewBox="0 0 206.647 30">
  <g id="Group_5141" data-name="Group 5141" transform="translate(-1019.238 -404.563)">
    <g id="Group_5137" data-name="Group 5137" transform="translate(1133.918 410.952)">
      <path id="Path_19548" data-name="Path 19548" d="M1089.5,417.987h-4.2v2.441h3.141v1.31h-8.517v2.077h9.353v1.357h-9.353v3.208h-1.515v-3.208h-9.127v-1.357h9.127v-2.077h-8.155v-1.31h2.959v-2.441h-4.18v-1.331h4.18v-2.418h-2.6v-1.31h17.418v1.31H1085.3v2.418h4.2Zm-15.023-5.737V410.8h-5.265v-1.4h5.265v-2.057l1.941.113c-.023.159-.159.272-.451.318V409.4h6.393v-2.057l1.944.113c-.023.159-.136.272-.454.318V409.4h5.467v1.4h-5.467v1.446h-1.49V410.8h-6.393v1.446Zm.156,1.988v2.418h3.772v-2.418Zm0,6.191h3.772v-2.441h-3.772Zm9.24-3.772v-2.418h-3.952v2.418Zm0,3.772v-2.441h-3.952v2.441Z" transform="translate(-1069.032 -407.324)" fill="#070203"/>
      <path id="Path_19549" data-name="Path 19549" d="M1079.312,424.721V423.68h20.536v1.041h-6.237a22.188,22.188,0,0,1,5.083,2.89l-1.062.79a14.605,14.605,0,0,0-1.264-.949c-5.445.159-11.3.295-14.979.341a.387.387,0,0,1-.292.315l-.564-1.4c.969,0,2.123,0,3.411-.023a22.238,22.238,0,0,0,1.423-1.965Zm18.072-5.988c0,.564,0,.882.408.882.813,0,.9,0,.995-.092.293-.226.293-1.218.293-2.28a3.315,3.315,0,0,0,.972.5c-.046,1.99-.113,2.982-1.605,2.982h-.9c-1.423,0-1.423-.949-1.423-2.123v-4.337h-2.146a13.561,13.561,0,0,1-.521,2.462,11.673,11.673,0,0,1,1.967,1.559c-.113.113-.226.226-.859.926a10.551,10.551,0,0,0-1.536-1.333,6.862,6.862,0,0,1-3.139,3.277,3.164,3.164,0,0,0-.633-.769c-3.275.2-6.688.408-8.856.521a.337.337,0,0,1-.295.292l-.5-1.287,4.429-.18v-1.154h-3.411v-.926h3.411v-1.241l1.536.09a1.61,1.61,0,0,1-.159-.836v-.723h-1.918c-.295,1.152-1.108,1.988-3.413,2.462a2.742,2.742,0,0,0-.631-.813c1.762-.316,2.575-.746,2.89-1.649h-2.621v-.949h4.316V412.95h-3.185V412h3.185v-.972l.9.067v-1.039h-5.488v-1.175h5.488v-1.536l1.944.113c-.023.159-.159.272-.451.318v1.105h6.191v-1.536l1.941.113c-.023.159-.136.272-.451.318v1.105h5.626v1.175h-5.626v1.154h-.316v.021l.836.046c-.023.159-.159.249-.431.316-.023.52-.067,1.018-.113,1.492h3.3ZM1082.2,421.49h14.82v1.016H1082.2Zm7.275-1.536a5.772,5.772,0,0,0,2.462-2.8,15.473,15.473,0,0,0-1.965-1.105l.79-.836c.521.226,1.039.518,1.582.813a17.485,17.485,0,0,0,.339-1.762h-2.6v-1.175h2.734c.044-.587.09-1.221.113-1.875h-.316v-1.154h-6.191v1.154h-.677c-.023.113-.136.2-.408.249V412h3.118v.949h-3.118v1.039h4.134v.949h-3.005v.723c0,.339.069.385.431.385h1.311c.315,0,.405-.046.451-.5a2.493,2.493,0,0,0,.88.293c-.067.792-.405,1.041-1.128,1.041h-1.6a1.767,1.767,0,0,1-1.108-.226.5.5,0,0,1-.362.157v.836h3.434v.926h-3.434v1.085c1.354-.044,2.757-.136,4.157-.2Zm3.862,4.767h-6.031a.455.455,0,0,1-.428.18c-.362.5-.9,1.175-1.423,1.785,2.869-.023,6.191-.069,9.443-.136a25.021,25.021,0,0,0-2.485-1.2Z" transform="translate(-1055.636 -407.324)" fill="#070203"/>
      <path id="Path_19550" data-name="Path 19550" d="M1110.539,413.053h-1.38a29.731,29.731,0,0,1-2.575,9.422,11.17,11.17,0,0,0,4.044,4.675,6.787,6.787,0,0,0-1.039,1.221,11.83,11.83,0,0,1-3.841-4.406,13.591,13.591,0,0,1-4.473,4.383,7.066,7.066,0,0,0-.813-1.2,11.964,11.964,0,0,0,4.542-4.7,31.938,31.938,0,0,1-1.921-6.552,16.894,16.894,0,0,1-1.379,2.78,5.377,5.377,0,0,0-.88-.882v2.1h-5.039c-.067.136-.2.182-.474.159-.226.428-.474.882-.723,1.377,2.329-.021,4.949-.067,7.5-.113l-.067,1.085-2.4.069-.113.021a7.019,7.019,0,0,1-1.9,3.052,20.915,20.915,0,0,1,2.552,1.423l-.993.97a20.577,20.577,0,0,0-2.644-1.557,15.466,15.466,0,0,1-5.76,2.011,3.889,3.889,0,0,0-.633-1.221,14.559,14.559,0,0,0,5.037-1.423c-.79-.362-1.626-.723-2.462-1.016l-.428.7a9.731,9.731,0,0,0-1.267-.385c.431-.656.928-1.513,1.426-2.4l-2.216.046c-.023.18-.156.249-.315.293l-.428-1.536c1.016,0,2.236,0,3.614-.023.293-.518.564-1.039.813-1.536h-3.365v-3.726h4.36v-1.131h-3.773v-2.462h-1.6v-1.2h1.6v-2.462h3.773v-1.582l1.785.113c-.023.159-.136.272-.431.318v1.152h4v2.462h1.649v1.2h-1.649v2.462h-4v1.131h4.564v1.241c1.354-2.326,2.326-6.211,2.87-10.053l1.875.385c-.046.18-.205.272-.475.272-.205,1.2-.451,2.416-.723,3.591h6.168Zm-18.685,4.18v1.6h3.052v-1.6Zm3.052-7.229h-2.462v1.423h2.462Zm-2.462,3.931h2.462v-1.423h-2.462Zm.857,9.8c1.018.362,2.08.767,3.049,1.2a5.6,5.6,0,0,0,1.7-2.418c-1.447.046-2.847.069-4.134.113ZM1098.9,410h-2.644v1.423h2.644Zm-2.644,3.931h2.644v-1.423h-2.644Zm3.185,4.9v-1.6h-3.185v1.6Zm4.565-5.783-.067.2a34.377,34.377,0,0,0,1.9,7.5,30.742,30.742,0,0,0,1.877-7.7Z" transform="translate(-1042.381 -407.337)" fill="#070203"/>
      <path id="Path_19551" data-name="Path 19551" d="M1103.143,415.3a26.761,26.761,0,0,1-2.757,3.772,10.987,10.987,0,0,0-.79-1.423,30.025,30.025,0,0,0,5.647-10.166l1.808.61c-.09.157-.249.226-.52.2a40.538,40.538,0,0,1-2.078,4.675l.61.159c-.046.136-.159.249-.451.272v14.977h-1.469Zm2.87,10.461h15.159v1.467h-15.159Zm.564-13.871h6.078v-4.519l1.965.113c-.021.18-.134.272-.452.316v4.09h6.417v1.467h-14.007Zm3.141,3a56.763,56.763,0,0,1,1.921,9.309l-1.515.316a57.744,57.744,0,0,0-1.785-9.376Zm9.487.385c-.044.159-.246.272-.518.272a76.216,76.216,0,0,1-2.531,9.1s-1.31-.408-1.31-.428a68.122,68.122,0,0,0,2.418-9.468Z" transform="translate(-1029.205 -407.298)" fill="#070203"/>
    </g>
    <g id="Group_5140" data-name="Group 5140" transform="translate(1019.238 404.563)">
      <g id="Group_5138" data-name="Group 5138">
        <path id="Path_19552" data-name="Path 19552" d="M1038.455,410.782c-3.6-4.291-12.009-2.5-19.215,3.307,0,.145,0,.288,0,.435,0,5.246.751,9.749,1.822,11.66a3.028,3.028,0,0,0,.659.882,3.112,3.112,0,0,0,.882.661c1.476.824,4.493,1.46,8.2,1.707.251-.191.5-.387.741-.585C1038.584,423.1,1042.14,415.176,1038.455,410.782Z" transform="translate(-1019.238 -399.547)" fill="#e85400"/>
        <path id="Path_19553" data-name="Path 19553" d="M1046.88,407.186c-.046-.051-.1-.094-.145-.14s-.092-.1-.141-.145c-1.234-1.336-6.3-2.338-12.352-2.338-5.246,0-9.744.749-11.66,1.819a3,3,0,0,0-.886.668c-.046.041-.092.085-.136.129-1.188,1.094-2.112,5.214-2.305,10.375,8.485-6.591,18.038-8.39,21.778-3.934,3.756,4.482.877,13.719-7.126,20.94.113,0,.224,0,.336,0,6.064,0,11.129-1,12.359-2.344.044-.041.09-.088.129-.131a2.984,2.984,0,0,0,.668-.889c1.071-1.918,1.819-6.414,1.819-11.658C1049.217,413.483,1048.215,408.423,1046.88,407.186Z" transform="translate(-1019.217 -404.563)" fill="#e85400"/>
      </g>
      <g id="Group_5139" data-name="Group 5139" transform="translate(40.18 3.059)">
        <path id="Path_19554" data-name="Path 19554" d="M1056.795,426.667c1.8,1.658,5.882,1.748,5.891,1.748l.088,0-.019-1.964h-.085c-.007,0-2.7-.219-3.775-1.232-1.022-.96-1.211-2.094-1.211-4.357,0-.417-.08-1.465-.08-3.393,0-.767,0-1.665.011-2.715h4.507v-2.593h-4.47c.039-3.015.076-4.737.076-4.737v-.106l-3.1.325v.081s-.032,7.752-.032,10.438v.47C1054.6,421.573,1054.6,424.645,1056.795,426.667Z" transform="translate(-1013.338 -404.03)" fill="#070203"/>
        <path id="Path_19555" data-name="Path 19555" d="M1054.977,409.406c-.914,0-3.563.138-5.166,1.792-2.388,2.451-2.255,4.579-2.292,6.7,0,.456-.009,2.6-.009,4.588,0,1.17,0,2.28.009,2.948v.088h3.148v-.088c-.021-1.737-.034-3.95-.034-5.783,0-1.792.014-3.238.046-3.505a5.823,5.823,0,0,1,1.336-3.473c.9-1.126,3.271-1.269,3.271-1.269l.067-.014.03-1.974-.081-.009Z" transform="translate(-1022.577 -401.311)" fill="#070203"/>
        <path id="Path_19556" data-name="Path 19556" d="M1044.829,425.494h3V409.406h-3Z" transform="translate(-1026.071 -401.31)" fill="#070203"/>
        <path id="Path_19557" data-name="Path 19557" d="M1052.018,425.494h2.995V409.406h-2.995Z" transform="translate(-1016.703 -401.31)" fill="#070203"/>
        <path id="Path_19558" data-name="Path 19558" d="M1059.146,425.494h3.006V409.406h-3.006Z" transform="translate(-1007.413 -401.31)" fill="#070203"/>
        <path id="Path_19559" data-name="Path 19559" d="M1046.461,409.4a1.755,1.755,0,1,0-1.743-1.76A1.756,1.756,0,0,0,1046.461,409.4Z" transform="translate(-1026.215 -405.891)" fill="#070203"/>
        <path id="Path_19560" data-name="Path 19560" d="M1053.661,409.4a1.755,1.755,0,1,0-1.755-1.76A1.754,1.754,0,0,0,1053.661,409.4Z" transform="translate(-1016.848 -405.891)" fill="#070203"/>
        <path id="Path_19561" data-name="Path 19561" d="M1060.786,409.4a1.755,1.755,0,1,0-1.75-1.76A1.758,1.758,0,0,0,1060.786,409.4Z" transform="translate(-1007.557 -405.891)" fill="#070203"/>
        <path id="Path_19562" data-name="Path 19562" d="M1036.684,417.822a8.092,8.092,0,0,0,4.664,7.255,7.871,7.871,0,0,0,3.321.795,7.147,7.147,0,0,0,2.328-.419l.081-.018-.468-1.5-.081.025a4.032,4.032,0,0,1-1.168.159c-.175,0-.366-.016-.566-.032-3.335-.364-5.007-3.667-5.007-6.347,0-2.748,1.529-6.188,5.037-6.191a4.558,4.558,0,0,1,4.355,3.5,59.715,59.715,0,0,1,.177,6.216,39.957,39.957,0,0,1-.081,4.367l-.012.087,3.045-.021v-.083s.071-6.55.071-9.132a7.58,7.58,0,0,0-7.586-7.248h-.039C1039.908,409.234,1036.7,413.511,1036.684,417.822Z" transform="translate(-1036.684 -401.535)" fill="#070203"/>
      </g>
    </g>
  </g>
</svg>
