<svg xmlns="http://www.w3.org/2000/svg" xmlns:xlink="http://www.w3.org/1999/xlink" width="50.086" height="30" viewBox="0 0 50.086 30">
  <defs>
    <clipPath id="clip-path">
      <path id="Path_19436" data-name="Path 19436" d="M858.579,441.286a8.561,8.561,0,0,0-1.224,9.182c1.581,3.84,6.006,8.1,13.714,8.635.079,0,.162.013.245.018,3.439.2,6.6-1.1,9.551-3.026-1.4-1.017-2.753-2.119-4.08-3.256a9.765,9.765,0,0,1-5.184,1.386c-5.575-.3-8.681-3.118-9.709-5.622a3.791,3.791,0,0,1,.334-4.039,3.5,3.5,0,0,1,2.766-1.286c3.579,0,6.77,4,12.251,8.822,4.914,4.325,8.287,7,14.914,7a15.3,15.3,0,0,0,13.712-8.635,8.435,8.435,0,0,0-7.776-12.091c-6.214,0-14.243,8.413-16,10.406a45.2,45.2,0,0,0,4.054,3.045c2.071-2.173,8.512-8.478,12.086-8.551A3.426,3.426,0,0,1,901,444.563a3.8,3.8,0,0,1,.334,4.039c-1.028,2.5-4.134,5.3-9.709,5.622-4.393.251-8.82-3.483-14.381-8.989s-9.409-6.83-12.115-6.859c-.036,0-.071,0-.109,0a8.436,8.436,0,0,0-6.441,2.911" transform="translate(-856.57 -438.375)" fill="none"/>
    </clipPath>
    <linearGradient id="linear-gradient" x1="-14.807" y1="19.911" x2="-14.799" y2="19.911" gradientUnits="objectBoundingBox">
      <stop offset="0" stop-color="#419c82"/>
      <stop offset="0.08" stop-color="#419c82"/>
      <stop offset="0.305" stop-color="#419c84"/>
      <stop offset="0.779" stop-color="#337f92"/>
      <stop offset="0.818" stop-color="#337f92"/>
      <stop offset="0.82" stop-color="#337f92"/>
      <stop offset="1" stop-color="#317993"/>
    </linearGradient>
    <clipPath id="clip-path-2">
      <rect id="Rectangle_713" data-name="Rectangle 713" width="1.216" height="2.431" fill="none"/>
    </clipPath>
    <clipPath id="clip-path-3">
      <path id="Path_19437" data-name="Path 19437" d="M868.634,455.593c-.164.587.089.97.367.97.3,0,.618-.3.4-.965-.172-.538-.4-1.059-.4-1.059a10.152,10.152,0,0,0-.365,1.054" transform="translate(-868.582 -454.539)" fill="none"/>
    </clipPath>
    <clipPath id="clip-path-4">
      <rect id="Rectangle_712" data-name="Rectangle 712" width="170.203" height="241.527" fill="none"/>
    </clipPath>
  </defs>
  <g id="Group_5112" data-name="Group 5112" transform="translate(-856.57 -438.375)">
    <g id="Group_5105" data-name="Group 5105" transform="translate(856.57 438.375)">
      <g id="Group_5104" data-name="Group 5104" clip-path="url(#clip-path)">
        <rect id="Rectangle_710" data-name="Rectangle 710" width="51.276" height="20.946" transform="translate(-0.595 0)" fill="url(#linear-gradient)"/>
      </g>
    </g>
    <g id="Group_5111" data-name="Group 5111" transform="translate(875.847 464.249)">
      <g id="Group_5110" data-name="Group 5110" clip-path="url(#clip-path-2)">
        <g id="Group_5109" data-name="Group 5109" transform="translate(0.202 0.338)">
          <g id="Group_5108" data-name="Group 5108" clip-path="url(#clip-path-3)">
            <g id="Group_5107" data-name="Group 5107" transform="translate(-110.429 -77.334)">
              <g id="Group_5106" data-name="Group 5106" clip-path="url(#clip-path-4)">
                <rect id="Rectangle_711" data-name="Rectangle 711" width="1.148" height="2.025" transform="translate(110.317 77.334)" fill="#46ac8b"/>
              </g>
            </g>
          </g>
        </g>
      </g>
    </g>
    <path id="Path_19438" data-name="Path 19438" d="M868.57,458.763l-.777-2.288-.008-.016a1.131,1.131,0,0,0,.5-.555.967.967,0,0,0,.071-.363v-.947a1.033,1.033,0,0,0-.574-.947,1.352,1.352,0,0,0-.624-.143H865.64a.2.2,0,0,0-.112.029.212.212,0,0,0-.107.19v5.032a.155.155,0,0,0,.062.126.227.227,0,0,0,.157.05h.621a.213.213,0,0,0,.148-.05.16.16,0,0,0,.062-.126v-1.9a.266.266,0,0,1,.211-.094.405.405,0,0,1,.195.053l.629,1.946a.268.268,0,0,0,.057.081.364.364,0,0,0,.092.065.252.252,0,0,0,.1.023h.676a.16.16,0,0,0,.105-.032.1.1,0,0,0,.042-.083c0-.031,0-.049-.008-.053m-1.839-3.307a10.124,10.124,0,0,1-1.054-.368s.521-.23,1.059-.4c.67-.214.966.1.966.4,0,.277-.384.53-.971.368" transform="translate(5.502 9.405)" fill="#46ac8b"/>
    <path id="Path_19439" data-name="Path 19439" d="M872.879,453.751l1,4.944a.153.153,0,0,1-.036.141.2.2,0,0,1-.154.057h-.647a.178.178,0,0,1-.2-.167l-.229-1.242h-.984l-.229,1.242a.212.212,0,0,1-.06.13.215.215,0,0,1-.138.037h-.65a.2.2,0,0,1-.156-.057.153.153,0,0,1-.044-.141l1.009-4.944a.23.23,0,0,1,.1-.141.308.308,0,0,1,.18-.057h.962a.33.33,0,0,1,.183.057.209.209,0,0,1,.1.141m-.754,2.838h.358l-.329-1.913c-.01-.028-.021-.039-.037-.039s-.028.011-.039.039l-.319,1.913Z" transform="translate(8.566 9.435)" fill="#327c89"/>
    <path id="Path_19440" data-name="Path 19440" d="M873.74,457.964h1.145a.177.177,0,0,1,.135.049.178.178,0,0,1,.05.133v.572a.178.178,0,0,1-.05.13.174.174,0,0,1-.135.054h-1.907a.177.177,0,0,1-.13-.054.174.174,0,0,1-.052-.13v-4.991a.185.185,0,0,1,.057-.139.18.18,0,0,1,.133-.058h.564a.177.177,0,0,1,.133.058.185.185,0,0,1,.057.139Z" transform="translate(10.087 9.42)" fill="#327c89"/>
    <path id="Path_19441" data-name="Path 19441" d="M875.375,457.964h1.145a.171.171,0,0,1,.131.049.178.178,0,0,1,.05.133v.572a.178.178,0,0,1-.05.13.169.169,0,0,1-.131.054h-1.909a.183.183,0,0,1-.183-.183v-4.991a.191.191,0,0,1,.057-.139.183.183,0,0,1,.135-.058h.564a.186.186,0,0,1,.135.058.191.191,0,0,1,.057.139Z" transform="translate(11.101 9.42)" fill="#327c89"/>
    <path id="Path_19442" data-name="Path 19442" d="M877.047,458.839a.172.172,0,0,1-.133.062h-.566a.186.186,0,0,1-.141-.062.209.209,0,0,1-.057-.144v-4.936a.212.212,0,0,1,.057-.144.192.192,0,0,1,.141-.062h.566a.177.177,0,0,1,.133.062.2.2,0,0,1,.058.144V458.7a.2.2,0,0,1-.058.144" transform="translate(12.172 9.435)" fill="#327c89"/>
    <path id="Path_19443" data-name="Path 19443" d="M879.624,453.751l1,4.944a.155.155,0,0,1-.039.141.193.193,0,0,1-.152.057h-.649a.178.178,0,0,1-.2-.167l-.227-1.242h-.984l-.229,1.242a.221.221,0,0,1-.062.13.212.212,0,0,1-.138.037H877.3a.212.212,0,0,1-.157-.057.156.156,0,0,1-.04-.141l1.007-4.944a.218.218,0,0,1,.1-.141.3.3,0,0,1,.178-.057h.962a.322.322,0,0,1,.183.057.226.226,0,0,1,.1.141m-.757,2.838h.36l-.329-1.913c-.01-.028-.023-.039-.037-.039s-.027.011-.037.039l-.321,1.913Z" transform="translate(12.758 9.435)" fill="#327c89"/>
    <path id="Path_19444" data-name="Path 19444" d="M882.189,453.539h.579a.216.216,0,0,1,.135.052c.044.037.065.068.065.1v4.938a.288.288,0,0,1-.057.19.182.182,0,0,1-.143.07h-.785a.274.274,0,0,1-.162-.057.326.326,0,0,1-.114-.135l-1.234-3.381.068,3.366a.211.211,0,0,1-.057.144.2.2,0,0,1-.149.062h-.566a.209.209,0,0,1-.147-.062.2.2,0,0,1-.065-.144v-4.938a.2.2,0,0,1,.065-.146.214.214,0,0,1,.147-.06h.908a.317.317,0,0,1,.177.057.257.257,0,0,1,.107.133l1.106,3.313-.076-3.3a.215.215,0,0,1,.057-.146.194.194,0,0,1,.141-.06" transform="translate(14.289 9.426)" fill="#327c89"/>
    <path id="Path_19445" data-name="Path 19445" d="M884.389,457.208h.519a.213.213,0,0,1,.156.067.222.222,0,0,1,.065.164v.037a1.521,1.521,0,0,1-.188.749,1.44,1.44,0,0,1-.506.542,1.325,1.325,0,0,1-.717.206h-.246a1.307,1.307,0,0,1-.712-.2,1.415,1.415,0,0,1-.508-.545,1.485,1.485,0,0,1-.191-.749v-2.525a1.469,1.469,0,0,1,.187-.728,1.419,1.419,0,0,1,.516-.53,1.308,1.308,0,0,1,.7-.191h.245a1.371,1.371,0,0,1,.712.191,1.407,1.407,0,0,1,.516.525,1.469,1.469,0,0,1,.185.733v.008a.231.231,0,0,1-.214.237h-.519a.208.208,0,0,1-.161-.073.23.23,0,0,1-.07-.164v-.023a.573.573,0,0,0-.164-.423.563.563,0,0,0-.417-.165h-.031a.569.569,0,0,0-.414.177.535.535,0,0,0-.173.418v2.5a.61.61,0,0,0,.182.44.551.551,0,0,0,.405.186h.031a.543.543,0,0,0,.413-.183.629.629,0,0,0,.167-.443.215.215,0,0,1,.07-.164l.068-.067Z" transform="translate(15.845 9.403)" fill="#327c89"/>
    <path id="Path_19446" data-name="Path 19446" d="M886.814,454.474h-1.542v1.168h1.167a.183.183,0,0,1,.138.055.18.18,0,0,1,.052.138v.532a.185.185,0,0,1-.052.138.189.189,0,0,1-.138.054h-1.167v1.39h1.542a.208.208,0,0,1,.144.057.185.185,0,0,1,.06.141v.527a.208.208,0,0,1-.2.206h-2.251a.194.194,0,0,1-.149-.062.2.2,0,0,1-.057-.144v-4.93a.194.194,0,0,1,.057-.143.21.21,0,0,1,.149-.057h2.251a.215.215,0,0,1,.144.057.191.191,0,0,1,.06.143v.525a.2.2,0,0,1-.2.206" transform="translate(17.273 9.429)" fill="#327c89"/>
    <path id="Path_19447" data-name="Path 19447" d="M861.625,458.742,860.6,453.7a.221.221,0,0,0-.1-.144.328.328,0,0,0-.188-.058h-.983a.313.313,0,0,0-.18.058.226.226,0,0,0-.1.144l-1.028,5.042a.113.113,0,0,0,0,.036.147.147,0,0,0,.058.12.229.229,0,0,0,.148.045h.662a.208.208,0,0,0,.14-.039.237.237,0,0,0,.062-.131l.235-1.268h1l.234,1.268a.18.18,0,0,0,.2.17h.66a.217.217,0,0,0,.144-.045.149.149,0,0,0,.053-.118l0-.037m-1.824-2.1c-.279,0-.532-.383-.368-.971a10.407,10.407,0,0,1,.367-1.052s.232.521.4,1.057c.216.67-.1.966-.4.966" transform="translate(0.906 9.401)" fill="#46ac8b"/>
    <path id="Path_19448" data-name="Path 19448" d="M860.57,458.664l0-.052V458.6l1.719-4.09.007-.024c0-.036-.021-.055-.062-.055H860.93a.211.211,0,0,1-.114-.032.221.221,0,0,1-.081-.088.231.231,0,0,1-.032-.112v-.491a.19.19,0,0,1,.028-.109.2.2,0,0,1,.083-.079.24.24,0,0,1,.117-.029h2.629a.223.223,0,0,1,.126.092.311.311,0,0,1,.044.172l0,.042a.178.178,0,0,0-.005.044l-1.7,4.044-.008.024a.057.057,0,0,0,.019.042.06.06,0,0,0,.042.019h1.479c.133,0,.2.079.209.232l.008.461a.242.242,0,0,1-.031.117.268.268,0,0,1-.081.094.17.17,0,0,1-.105.039H860.7a.267.267,0,0,1-.105-.1.326.326,0,0,1-.027-.151" transform="translate(2.487 9.398)" fill="#46ac8b"/>
    <path id="Path_19449" data-name="Path 19449" d="M863.148,458.193a1.453,1.453,0,0,1-.211-.762l0-3.587a.456.456,0,0,1,.039-.214.212.212,0,0,1,.114-.105.51.51,0,0,1,.195-.031h.281c.079,0,.133,0,.161,0a.185.185,0,0,1,.063.013.32.32,0,0,1,.057.039.18.18,0,0,1,.06.1.805.805,0,0,1,.02.188l.006,3.548a.642.642,0,0,0,.083.318.619.619,0,0,0,.225.232.57.57,0,0,0,.307.088h.125a.571.571,0,0,0,.308-.088.639.639,0,0,0,.224-.232.653.653,0,0,0,.083-.318l.006-3.548a.471.471,0,0,1,.039-.211.212.212,0,0,1,.114-.1.518.518,0,0,1,.19-.029h.3a.585.585,0,0,1,.209.029.186.186,0,0,1,.11.1.5.5,0,0,1,.037.219l-.008,3.587a1.482,1.482,0,0,1-.093.521,1.529,1.529,0,0,1-.269.454,1.639,1.639,0,0,1-.407.339,1.464,1.464,0,0,1-.764.211h-.281a1.484,1.484,0,0,1-.527-.094,1.507,1.507,0,0,1-.456-.264,1.533,1.533,0,0,1-.339-.4" transform="translate(3.955 9.398)" fill="#46ac8b"/>
    <path id="Path_19450" data-name="Path 19450" d="M868.665,456.562v1.416h1.573a.206.206,0,0,1,.149.058.19.19,0,0,1,.06.144v.537a.2.2,0,0,1-.027.105.215.215,0,0,1-.076.076.2.2,0,0,1-.105.029h-2.3a.2.2,0,0,1-.208-.211v-5.025a.2.2,0,0,1,.055-.146.216.216,0,0,1,.152-.057h2.3a.212.212,0,0,1,.149.057.193.193,0,0,1,.06.146v.537a.207.207,0,0,1-.027.107.212.212,0,0,1-.076.075.2.2,0,0,1-.105.028h-1.573Z" transform="translate(6.94 9.395)" fill="#46ac8b"/>
    <path id="Path_19451" data-name="Path 19451" d="M868.634,455.593c-.165.587.089.97.367.97.3,0,.618-.3.4-.965-.172-.538-.4-1.059-.4-1.059a10.152,10.152,0,0,0-.365,1.054" transform="translate(7.467 10.048)" fill="#46ac8b"/>
  </g>
</svg>
