<svg id="圖層_1" data-name="圖層 1" xmlns="http://www.w3.org/2000/svg" viewBox="0 0 122.11 56.05"><defs><style>.cls-1{fill:#595757;}.cls-2{fill:#0098d8;}</style></defs><path class="cls-1" d="M23.93,32.68l-1.33-.35.49-1-1.16.34-.25-.73-1.46.2v2H22.6v1.3H20.22v2.64a13.35,13.35,0,0,0,2.4-.83l.57,1.28a30.23,30.23,0,0,1-6.62,1.63l-.45-1.32,2.72-.47V34.45H16.39V33.17h2.45V31.23l-2.49.36L16,30.28l.94-.11a28.36,28.36,0,0,0,1.41-3.31h-2V25.6h6.83v1.26H19.73c-.3.86-.73,1.9-1.27,3.1l2.82-.36-.63-1.4,1.17-.28a33.62,33.62,0,0,1,1.33,3.31,16.11,16.11,0,0,0,1.14-6.1h1.18l-.12,1.66h5V28.1h-1a14.54,14.54,0,0,1-1.69,7.28,23.37,23.37,0,0,0,3,3.47l-1.24.65a19.39,19.39,0,0,1-2.45-3.11,19.78,19.78,0,0,1-3.45,3.14l-1.08-1a19.65,19.65,0,0,0,3.86-3.31,15.06,15.06,0,0,1-1.46-4.72A11.77,11.77,0,0,1,23.93,32.68Zm2.93,1.46a12.41,12.41,0,0,0,1.25-6H25.55a19.12,19.12,0,0,0,.7,4.45,8.71,8.71,0,0,0,.63,1.52Z" transform="translate(-2.93 -0.32)"/><path class="cls-1" d="M50.05,31.23H45.81a.15.15,0,0,0-.15.15v2.75a9.32,9.32,0,0,1-1.47,5.24L43,38.85a9.21,9.21,0,0,0,1.09-2.44,12.41,12.41,0,0,0,.26-2.65V30.29a.31.31,0,0,1,.26-.36h5.08L49.4,28.4l1.33-.22c.09.59.19,1.17.33,1.75H56.8v1.3H51.46a24.52,24.52,0,0,0,1.23,3.11c.56-.73,1.16-1.52,1.83-2.48l1.1.74a16.38,16.38,0,0,1-2.19,2.92C54.59,37.18,55.37,38,55.7,38s.18-.15.2-.4a10.05,10.05,0,0,0,0-1.9l1.31.24c.1,1.94-.1,3.1-.57,3.47a1.3,1.3,0,0,1-.46.18,1.47,1.47,0,0,1-1.08-.35,10.06,10.06,0,0,1-2.67-2.77,18.34,18.34,0,0,1-6.14,3l-.74-1.29a17.06,17.06,0,0,0,6.12-2.81A18.1,18.1,0,0,1,50.05,31.23Zm-2-3.65v1.2H46.7V27.59H43.18V26.26h3.51V24.94H48v1.32h4.47V24.94H53.8v1.32h3.46v1.33H53.8V28.8H52.48V27.59Zm7.16.16c.65.58,1.11,1,1.39,1.33l-.91.77a6.82,6.82,0,0,0-1.33-1.24Z" transform="translate(-2.93 -0.32)"/><path class="cls-1" d="M71.25,28.5a.12.12,0,0,0-.13.09v2.08H69.86V27.54a.2.2,0,0,1,.16-.23h6.13v-.66H70.94V25.52H82.55v1.13H77.38v.66H83l1.1.54a11.89,11.89,0,0,1-.54,2.89l-1.22-.37a6.62,6.62,0,0,0,.33-1.65c0-.12,0-.19-.15-.19H77.39v3.32H76.14V28.53Zm-.34,8.72c-.1,0-.15,0-.15-.18V32.51c0-.11,0-.16.15-.16H82.5a.14.14,0,0,1,.17.1V37a.17.17,0,0,1-.15.18H77.31v.1a.65.65,0,0,0,.19.49A.81.81,0,0,0,78,38h4.39a.61.61,0,0,0,.37-.15,5.19,5.19,0,0,0,.13-1l1.19.29a6.66,6.66,0,0,1-.3,1.66,1.27,1.27,0,0,1-.88.49H77.32a1.43,1.43,0,0,1-.88-.42,1.22,1.22,0,0,1-.36-.83v-.77Zm4.59-6.53v1H71.59v-1Zm0-1.66v1H71.69V29Zm.58,4.34H72v.78H76.1Zm0,1.86H71.92V36H76Zm1.3-1h4v-.78H77.31Zm0,1.87h4V35.3H77.31ZM82,29v1H78.11V29Zm.1,1.66v1h-4v-1Z" transform="translate(-2.93 -0.32)"/><path class="cls-1" d="M105.28,33.12a13.46,13.46,0,0,1,.56,2.74,2.92,2.92,0,0,1-1,2.82,3.52,3.52,0,0,1-2.35.66,7.77,7.77,0,0,1-3.08-.93L99.74,37a5.24,5.24,0,0,0,3.2,1,1.67,1.67,0,0,0,1.31-.93,6.65,6.65,0,0,0-.52-4h-7V31.65h6.52a18.49,18.49,0,0,0-1.06-2.08h1l3.79-2.66m0-.12a.13.13,0,0,0-.12-.08H98.18V25.32h10.25l1.18,1.36-5.26,3.69.5,1.28H111V33h-5.67Z" transform="translate(-2.93 -0.32)"/><path class="cls-1" d="M119.66,31.05v2.14h-2.12V31.05Z" transform="translate(-2.93 -0.32)"/><path class="cls-1" d="M10.88,49.51l-1.32-.35.46-1-1.14.35-.25-.74-1.46.2V50H9.52v1.3H7.13v2.64a13.83,13.83,0,0,0,2.42-.83l.57,1.27A30.58,30.58,0,0,1,3.4,56l-.47-1.34,2.87-.44v-3H3.27V50H5.8V48.07l-2.47.35-.4-1.31.94-.1A28.42,28.42,0,0,0,5.29,43.7H3.22V42.44h6.85V43.7H6.64c-.3.86-.73,1.9-1.27,3.1l2.81-.37L7.57,45l1.16-.44a32.66,32.66,0,0,1,1.33,3.31,16,16,0,0,0,1.15-6.12h1.23l-.1,1.65h5v1.31H16.27A14.57,14.57,0,0,1,14.48,52a22.25,22.25,0,0,0,3,3.46l-1.26.66A18.79,18.79,0,0,1,13.75,53a20.53,20.53,0,0,1-3.39,3.33l-1.1-.95a20.14,20.14,0,0,0,3.91-3.28,15.69,15.69,0,0,1-1.46-4.72A11.06,11.06,0,0,1,10.88,49.51ZM13.81,51a12.41,12.41,0,0,0,1.25-6H12.5a18.52,18.52,0,0,0,.7,4.44A8.11,8.11,0,0,0,13.83,51Z" transform="translate(-2.93 -0.32)"/><path class="cls-1" d="M28,48.07H23.71c-.1,0-.14,0-.14.17V51a9.53,9.53,0,0,1-1.47,5.24l-1.22-.53A9.37,9.37,0,0,0,22,53.21a12.41,12.41,0,0,0,.26-2.65V47.13c0-.25.1-.37.35-.37h5l-.24-1.52L28.64,45a12.65,12.65,0,0,0,.3,1.74h5.73v1.31h-5.4a26.6,26.6,0,0,0,1.27,3.08c.56-.69,1.17-1.51,1.82-2.46l1.11.73a16.08,16.08,0,0,1-2.2,2.92c1.15,1.67,1.92,2.43,2.28,2.43.09,0,.16-.14.19-.41a9.84,9.84,0,0,0,0-1.88l1.31.23c.11,1.94-.11,3.1-.57,3.46a1,1,0,0,1-.46.18A1.43,1.43,0,0,1,33,56a10.27,10.27,0,0,1-2.69-2.77,18.27,18.27,0,0,1-6.11,3L23.42,55a16.92,16.92,0,0,0,6.12-2.82A17,17,0,0,1,28,48.07Zm-2-3.66v1.21H24.67V44.44H21.16V43.1h3.51V41.78H26V43.1h4.46V41.78h1.33V43.1h3.48v1.33H31.77v1.2H30.44v-1.2Zm7.18.17c.63.58,1.11,1,1.39,1.33l-.89.8a6.63,6.63,0,0,0-1.37-1.27Z" transform="translate(-2.93 -0.32)"/><path class="cls-1" d="M39,45V43.63h6.41V42h1.36v1.66H53.1V45H50.74A14.71,14.71,0,0,1,47,51.91a18.17,18.17,0,0,0,6.3,3.17l-.81,1.28a19,19,0,0,1-6.41-3.5L44.54,54a24.7,24.7,0,0,1-4.75,2.35L39,55.15A19.53,19.53,0,0,0,45,51.93a13.71,13.71,0,0,1-3.42-6.86Zm7,6.05.35-.35a12.12,12.12,0,0,0,3-5.7H43a14.38,14.38,0,0,0,1.07,3.31A9.82,9.82,0,0,0,46,51.06Z" transform="translate(-2.93 -0.32)"/><path class="cls-1" d="M59.68,51h.65l1.14-1.09v-.14h-1.6a25.08,25.08,0,0,1-2.31,1.67l-.8-1a18.93,18.93,0,0,0,4.07-3H56.88V46.08h2.87V44.43H57.38V43.24h2.37V41.78H61v1.46h2.35V44l.93-1.66,1,.57a26.94,26.94,0,0,1-2,3.2h1.21v1.21H62.49l-.46.5-.82.79h1.87l.85.78-2.49,2.06.3.49c1.21-.31,2.14-.6,2.8-.82l.36,1.2c-.56.2-1.46.46-2.66.79q.57,1.56.09,2.19a2.11,2.11,0,0,1-.89.81,4.22,4.22,0,0,1-3.08-.25V54.44c1.13.61,1.89.82,2.25.63a1.44,1.44,0,0,0,.52-.49,1.69,1.69,0,0,0,0-1.25l-3.77.73L57,52.84l3.59-.66ZM63,44.49H60.94v1.68h.92l.74-.93Zm2.34,5.23L64.1,49.4A16,16,0,0,0,65.93,42h1.25l-.09,1.47h4.14v1.34h-1v.88A14.06,14.06,0,0,1,69,51.38l-.53.93a19.33,19.33,0,0,0,2.88,3.31l-1.18.68a23.31,23.31,0,0,1-2.4-3,13.39,13.39,0,0,1-3.55,3l-.92-1a10.38,10.38,0,0,0,3.84-3.15A12.8,12.8,0,0,1,66,48.36,9.59,9.59,0,0,1,65.33,49.72Zm2.47,1.2a12,12,0,0,0,1.28-5.34v-.82H67a15.34,15.34,0,0,0,.17,3.77,10.54,10.54,0,0,0,.62,2.41Z" transform="translate(-2.93 -0.32)"/><path class="cls-1" d="M79.6,50.34a12.79,12.79,0,0,1-4.14,3.23l-.82-1.11a11.65,11.65,0,0,0,3.2-2.12H74.77V49.13h2.66v-5.2H75.15V42.74h2.28v-.88h1.32v.88H85v-.88h1.37v.88h2.37v1.19H86.35v5.2h2.73v1.23H85.67a11.62,11.62,0,0,0,3.54,2.2l-.88,1.06A14.35,14.35,0,0,1,84,50.3Zm1.66,3H77.94V52.12h3.32V51h1.31v1.13h3.31v1.19H82.57V54.7h6v1.19H75.33V54.7h6ZM85,44.94v-1H78.79v1Zm0,2.12V46H78.79v1.05Zm0,2.07V48.07H78.79v1Z" transform="translate(-2.93 -0.32)"/><path class="cls-1" d="M93.34,47.08l-.73-1.26c3.55-1.2,5.86-2.54,7-4l1.28.27-.19.26a19.1,19.1,0,0,0,6.44,3.48l-.79,1.26a25.72,25.72,0,0,1-6.39-3.82A21.37,21.37,0,0,1,93.34,47.08Zm5.86,3.65H93.13V49.38H99.2V47.54H95.54V46.21H104v1.33h-3.52v1.84h6v1.33h-6v3.84h6.15v1.33H93.06V54.55h6.2Zm-3.85.16A14.84,14.84,0,0,1,97,53.82l-1.19.62a17.56,17.56,0,0,0-1.66-2.84Zm9.94.73a28.54,28.54,0,0,1-1.85,2.78l-1-.81a23.23,23.23,0,0,0,1.78-2.73Z" transform="translate(-2.93 -0.32)"/><path class="cls-1" d="M120.46,45.24h-5.29v-.81A34.76,34.76,0,0,1,111,45.5l-.45-1.26a13.27,13.27,0,0,0,7.08-2.42l1.11.46-.12.11A18.93,18.93,0,0,0,125,44.3l-.49,1.25a36.34,36.34,0,0,1-4.09-1.11Zm3.11,4.64H112a.17.17,0,0,1-.18-.15V46c0-.1,0-.15.18-.15h11.6c.12,0,.18,0,.18.15v3.66a.15.15,0,0,1-.17.15h0Zm-9.51,6.3H112.8V50.86c0-.15,0-.21.2-.21h9.69c.17,0,.27,0,.27.25v5.28H121.7v-.56h-7.65Zm2-7.44h1.08V47.08H113v1.66h1.66l-.59-1.06,1.07-.59a9,9,0,0,1,.94,1.65Zm5.62,3.85v-.73c0-.12,0-.16-.2-.16h-7.27c-.12,0-.18,0-.17.16v.73Zm-7.64,1.09v.84h7.64v-.84Zm3.71-10.58a14.89,14.89,0,0,1-1.81,1h3.73ZM121,48.69h1.47V47h-4.08v1.67h1.06A10.83,10.83,0,0,0,120.53,47l1,.69Z" transform="translate(-2.93 -0.32)"/><path class="cls-2" d="M94.09,11.94a7.47,7.47,0,0,0-.93,2.37h3.6a2,2,0,0,1,.2-.53,3.32,3.32,0,0,1,2.4-1.9,4.05,4.05,0,0,1,.85-.12,2.94,2.94,0,0,1,2.65,2,5,5,0,0,1,0,.55h4.47l.52-2.8H94.39Z" transform="translate(-2.93 -0.32)"/><path class="cls-2" d="M104.55,8.71l-.33,1.76h0a5.36,5.36,0,0,0-4.39-1.83,6.61,6.61,0,0,0-4.79,2h13.08l.36-2Z" transform="translate(-2.93 -0.32)"/><path class="cls-2" d="M101.4,17.23a2.78,2.78,0,0,1-1.86.44A2.61,2.61,0,0,1,98,17.23H97.9a2.38,2.38,0,0,1-1.22-2.14H93v.5a6,6,0,0,0,.23,2l.1.28h13.47l.51-2.8h-4.39a3.11,3.11,0,0,1-1.5,2.14" transform="translate(-2.93 -0.32)"/><path class="cls-2" d="M98.62,21.49A4.4,4.4,0,0,0,102.43,20h0l-.25,1.39H106l.49-2.68H93.64a5.5,5.5,0,0,0,5,2.82" transform="translate(-2.93 -0.32)"/><path class="cls-2" d="M62.15,11.7a3,3,0,0,1,3,2.61h3.66a6.06,6.06,0,0,0-.88-2.8H56.38a6.57,6.57,0,0,0-.85,2.8h3.65a3,3,0,0,1,3-2.61" transform="translate(-2.93 -0.32)"/><path class="cls-2" d="M62.15,8.22a6.59,6.59,0,0,0-5.22,2.53H67.37a6.56,6.56,0,0,0-5.22-2.53" transform="translate(-2.93 -0.32)"/><path class="cls-2" d="M62.15,17.73a3,3,0,0,1-3-2.64H55.53a6.51,6.51,0,0,0,.73,2.8H68.08a6.21,6.21,0,0,0,.73-2.8H65.16a3,3,0,0,1-3,2.64" transform="translate(-2.93 -0.32)"/><path class="cls-2" d="M62.15,21.52a6.63,6.63,0,0,0,5.44-2.76H56.68a6.65,6.65,0,0,0,5.47,2.76" transform="translate(-2.93 -0.32)"/><path class="cls-2" d="M17.4,18.76a8.61,8.61,0,0,0,4.47,2.43,11.05,11.05,0,0,0,5.9-.23l.41-2.2Z" transform="translate(-2.93 -0.32)"/><path class="cls-2" d="M30.65,2.67a10.48,10.48,0,0,0-5-2.15A8.57,8.57,0,0,0,17.1,3.57H30.36Z" transform="translate(-2.93 -0.32)"/><path class="cls-2" d="M19.67,12.12v-.56h-5v.32a15.18,15.18,0,0,0,.42,2.5h5.5a7.73,7.73,0,0,1-.94-2.26" transform="translate(-2.93 -0.32)"/><path class="cls-2" d="M16.5,4.41a12.81,12.81,0,0,0-1.32,2.74H20.9a5.45,5.45,0,0,1,5-2A8.75,8.75,0,0,1,29.35,6.7c.1,0,.41.3.5.39l.51-2.76H16.55Z" transform="translate(-2.93 -0.32)"/><path class="cls-2" d="M24.06,17.1a5.28,5.28,0,0,1-2.67-1.78l-.13-.16h-6v.16a10.63,10.63,0,0,0,1.38,2.6H28.22l.23-1.32a7.51,7.51,0,0,1-4.39.5" transform="translate(-2.93 -0.32)"/><path class="cls-2" d="M20.4,7.91H14.94l-.08.31a3.53,3.53,0,0,1-.13.54,10.86,10.86,0,0,0-.18,2H19.6a5.39,5.39,0,0,1,.8-2.82" transform="translate(-2.93 -0.32)"/><path class="cls-2" d="M43.47,10.05a4,4,0,0,0-3.31-1.46,4.5,4.5,0,0,0-3.72,1.66h0l.38-2V7.89h-4l-.5,2.82H43.92a3.44,3.44,0,0,0-.37-.68" transform="translate(-2.93 -0.32)"/><polygon class="cls-2" points="34.57 4.02 30.6 4.02 30.08 6.84 34.05 6.84 34.57 4.02"/><polygon class="cls-2" points="35.77 21.01 39.71 21.01 40.19 18.35 36.23 18.35 35.77 21.01"/><path class="cls-2" d="M44.05,11.51H32.22l-.52,2.8h3.93v-.1a2.48,2.48,0,0,1,2.52-1.91,1.55,1.55,0,0,1,1.66,1.91v.1h4.11v-.1a8.39,8.39,0,0,0,.16-2.5Z" transform="translate(-2.93 -0.32)"/><polygon class="cls-2" points="36.37 17.58 40.34 17.58 40.84 14.78 36.86 14.78 36.37 17.58"/><polygon class="cls-2" points="28.13 17.58 32.09 17.58 32.62 14.78 28.64 14.78 28.13 17.58"/><polygon class="cls-2" points="35.24 0.4 31.26 0.4 30.73 3.26 34.73 3.26 35.24 0.4"/><polygon class="cls-2" points="27.51 21.01 31.44 21.01 31.94 18.35 27.98 18.35 27.51 21.01"/><path class="cls-2" d="M51.35,10.09l.21-1.42H47.85l-.37,2.06h7.05l.39-2c-2.29,0-3.1.73-3.56,1.38" transform="translate(-2.93 -0.32)"/><polygon class="cls-2" points="42.56 21.01 46.52 21.01 47.02 18.35 43.06 18.35 42.56 21.01"/><path class="cls-2" d="M46.8,14.31h4v-.1c.38-1.66,1.55-2.33,3.3-1.54l.22-1.16h-7Z" transform="translate(-2.93 -0.32)"/><polygon class="cls-2" points="43.21 17.58 47.17 17.58 47.7 14.78 43.74 14.78 43.21 17.58"/><polygon class="cls-2" points="74.7 21.04 78.7 21.04 79.21 18.35 75.24 18.35 74.7 21.04"/><path class="cls-2" d="M91,11.51H71.43l-.54,2.8h4a2.45,2.45,0,0,1,2.32-1.47,1.53,1.53,0,0,1,1.7,1.34v.13h4a2.39,2.39,0,0,1,2.42-1.47A1.4,1.4,0,0,1,87,14a1.09,1.09,0,0,1,0,.36h4a9.15,9.15,0,0,0,.18-2.39Z" transform="translate(-2.93 -0.32)"/><polygon class="cls-2" points="67.34 17.58 71.37 17.58 71.87 14.78 67.84 14.78 67.34 17.58"/><polygon class="cls-2" points="75.38 17.58 79.36 17.58 79.89 14.78 75.93 14.78 75.38 17.58"/><polygon class="cls-2" points="82.64 21.04 86.77 21.04 87.22 18.35 83.15 18.35 82.64 21.04"/><polygon class="cls-2" points="66.71 21.04 70.76 21.04 71.22 18.35 67.19 18.35 66.71 21.04"/><polygon class="cls-2" points="83.31 17.58 87.35 17.58 87.84 14.78 83.83 14.78 83.31 17.58"/><path class="cls-2" d="M90.33,10.07A4.23,4.23,0,0,0,87.09,8.8a5.44,5.44,0,0,0-4.57,1.67A4,4,0,0,0,78.86,8.7a3.86,3.86,0,0,0-3.66,1.88h0l.37-1.87H71.91l-.37,2H90.72a5.67,5.67,0,0,0-.42-.66" transform="translate(-2.93 -0.32)"/></svg>