<?xml version="1.0" encoding="utf-8"?>
<!-- Generator: Adobe Illustrator 24.1.0, SVG Export Plug-In . SVG Version: 6.00 Build 0)  -->
<svg version="1.1" id="圖層_1" xmlns="http://www.w3.org/2000/svg" xmlns:xlink="http://www.w3.org/1999/xlink" x="0px" y="0px"
	 viewBox="0 0 122.11 56.05" style="enable-background:new 0 0 122.11 56.05;" xml:space="preserve">
<style type="text/css">
	.st0{fill:#009FE8;}
	.st1{fill:#585757;}
</style>
<g>
	<g>
		<path class="st0" d="M103.38,19.4c-0.55,0.9-0.96,1.95-1.2,3.1h4.69c0.06-0.24,0.13-0.48,0.23-0.71c0.56-1.29,1.73-2.25,3.15-2.51
			c0.35-0.1,0.72-0.15,1.09-0.15c1.2,0,2.21,0.55,2.82,1.43c0.29,0.35,0.53,0.76,0.66,1.23c0.06,0.22,0.1,0.46,0.12,0.71h5.83
			l0.67-3.66h-17.66L103.38,19.4z"/>
		<path class="st0" d="M117.06,15.21l-0.43,2.34h-0.06c-0.41-1.04-2.98-2.38-5.75-2.38c-2.37,0-4.6,0.95-6.24,2.66h17.04l0.49-2.63
			H117.06z"/>
		<path class="st0" d="M112.91,26.32c-0.52,0.32-1.08,0.5-1.6,0.57c-0.27,0.05-0.55,0.09-0.83,0.09c-0.74,0-1.41-0.21-1.95-0.57
			c-0.05-0.03-0.11-0.06-0.17-0.09c-0.97-0.55-1.59-1.48-1.61-2.81h-4.74L102,23.62c-0.02,0.18-0.04,0.35-0.05,0.53
			c-0.06,0.95,0.05,1.83,0.28,2.65l0.14,0.37l17.54,0l0.67-3.67h-5.7C114.65,24.82,113.84,25.76,112.91,26.32z"/>
		<path class="st0" d="M109.34,31.86c1.97-0.06,3.82-0.35,4.97-1.99h0.06l-0.34,1.82h5.04l0.65-3.5h-16.93
			C104.08,30.63,106.7,31.94,109.34,31.86z"/>
		<path class="st0" d="M61.7,19.07c2,0,3.65,1.5,3.89,3.43h4.77c-0.11-1.32-0.51-2.57-1.15-3.66H54.2
			c-0.64,1.09-1.04,2.34-1.15,3.66h4.78C58.06,20.57,59.71,19.07,61.7,19.07z"/>
		<path class="st0" d="M61.7,14.52c-2.77,0-5.22,1.29-6.81,3.31h13.64C66.93,15.81,64.47,14.52,61.7,14.52z"/>
		<path class="st0" d="M61.7,26.93c-1.99,0-3.63-1.49-3.88-3.42h-4.79c0.04,1.32,0.38,2.56,0.95,3.67h15.45
			c0.57-1.11,0.91-2.35,0.95-3.67h-4.79C65.35,25.44,63.7,26.93,61.7,26.93z"/>
		<path class="st0" d="M61.7,31.9c2.95,0,5.55-1.47,7.13-3.71H54.59C56.16,30.43,58.76,31.9,61.7,31.9z"/>
		<path class="st0" d="M3.31,28.21c1.44,1.52,3.35,2.71,5.87,3.26c2.85,0.62,5.29,0.49,7.7-0.31l0.55-2.97H3.29L3.31,28.21z"/>
		<path class="st0" d="M20.6,7.32c-1.81-1.38-3.64-2.33-6.4-2.82C9.37,3.65,5.54,5.28,2.98,8.49h17.41L20.6,7.32z"/>
		<path class="st0" d="M6.32,19.59c-0.04-0.32-0.07-0.55-0.07-0.75h-6.58l0.01,0.39c0.08,1.06,0.26,2.17,0.56,3.27h7.33
			C6.94,21.49,6.5,20.43,6.32,19.59z"/>
		<path class="st0" d="M2.19,9.58c-0.71,1.06-1.31,2.36-1.74,3.57h7.46c1.37-1.72,4.13-3.08,6.44-2.61
			c1.58,0.33,3.15,1.01,4.53,2.04c0.13,0.1,0.52,0.37,0.65,0.5l0.66-3.59H2.25L2.19,9.58z"/>
		<path class="st0" d="M11.92,26.04c-1.3-0.29-2.58-1.27-3.47-2.31c-0.06-0.07-0.12-0.14-0.18-0.22H0.55l0.07,0.22
			c0.43,1.2,1.02,2.35,1.79,3.39l0.04,0.05h15.16l0.3-1.73C15.3,26.3,14.01,26.5,11.92,26.04z"/>
		<path class="st0" d="M7.25,14.17H0.15l-0.11,0.36c-0.06,0.24-0.11,0.47-0.16,0.71c-0.15,0.77-0.24,1.65-0.25,2.6h6.6
			C6.27,16.7,6.39,15.65,7.25,14.17z"/>
		<path class="st0" d="M37.37,16.95c-0.85-1.3-2.69-1.89-4.33-1.89c-1.82,0-3.68,0.63-4.83,2.17h-0.06l0.49-2.62l0.08-0.44h-5.18
			l-0.66,3.67h14.98C37.72,17.54,37.57,17.25,37.37,16.95z"/>
		<polygon class="st0" points="29.58,9.49 24.39,9.49 23.72,13.15 28.9,13.15 		"/>
		<polygon class="st0" points="31.14,31.65 36.29,31.65 36.92,28.19 31.75,28.19 		"/>
		<path class="st0" d="M38.13,18.84H22.69l-0.67,3.66h5.19l0.02-0.12c0.34-1.07,1.16-2.48,3.29-2.48c1.96,0,2.26,1.38,2.22,2.48
			l-0.02,0.12h5.21l0.02-0.12c0.23-1.34,0.33-2.37,0.23-3.27L38.13,18.84z"/>
		<polygon class="st0" points="31.92,27.18 37.1,27.18 37.76,23.51 32.56,23.51 		"/>
		<polygon class="st0" points="21.17,27.18 26.34,27.18 27.03,23.51 21.84,23.51 		"/>
		<polygon class="st0" points="30.45,4.78 25.24,4.78 24.57,8.49 29.77,8.49 		"/>
		<polygon class="st0" points="20.36,31.65 25.5,31.65 26.15,28.19 20.99,28.19 		"/>
		<path class="st0" d="M47.64,16.99l0.27-1.83h-4.83l-0.5,2.68h9.21l0.49-2.64C49.3,15.19,48.22,16.15,47.64,16.99z"/>
		<polygon class="st0" points="40.01,31.65 45.16,31.65 45.81,28.19 40.65,28.19 		"/>
		<path class="st0" d="M41.71,22.5h5.17l0.03-0.12c0.44-2.2,2.01-3.01,4.4-2.01l0.29-1.53h-9.21L41.71,22.5z"/>
		<polygon class="st0" points="40.85,27.18 46,27.18 46.69,23.51 41.53,23.51 		"/>
		<polygon class="st0" points="81.92,31.68 87.12,31.68 87.79,28.19 82.6,28.19 		"/>
		<path class="st0" d="M99.35,18.84H73.82l-0.66,3.66h5.26c0.47-0.97,1.34-1.89,3.02-1.89c1.53,0,2.16,0.94,2.24,1.89h5.22
			c0.45-0.95,1.3-1.89,3.01-1.89c1.6,0,2.05,0.88,2.1,1.89h5.22c0.23-1.35,0.32-2.31,0.25-3.11L99.35,18.84z"/>
		<polygon class="st0" points="72.31,27.18 77.56,27.18 78.21,23.51 72.98,23.51 		"/>
		<polygon class="st0" points="82.79,27.18 87.98,27.18 88.69,23.51 83.51,23.51 		"/>
		<polygon class="st0" points="92.27,31.68 97.64,31.68 98.24,28.19 92.94,28.19 		"/>
		<polygon class="st0" points="71.5,31.68 76.77,31.68 77.39,28.19 72.14,28.19 		"/>
		<polygon class="st0" points="93.14,27.18 98.42,27.18 99.05,23.51 93.84,23.51 		"/>
		<path class="st0" d="M98.43,16.97c-1.11-1.43-2.97-1.63-4.16-1.7c-1.09-0.06-3.11-0.35-5.97,2.22c-1.68-2.13-3.24-2.32-4.75-2.32
			c-3.19,0-4.2,1.77-4.73,2.47h-0.06l0.48-2.45h-4.76l-0.48,2.65h24.98C98.84,17.55,98.66,17.27,98.43,16.97z"/>
	</g>
	<path class="st1" d="M12.6,46.7l-0.98-0.26l0.34-0.77l-0.85,0.26l-0.18-0.54l-1.09,0.15v1.53h1.75v0.97H9.81v1.96
		c0.62-0.15,1.22-0.35,1.8-0.61l0.42,0.95c-1.61,0.6-3.29,1.01-4.99,1.23l-0.35-1l2.13-0.32v-2.2H6.94v-0.95h1.88v-1.44l-1.84,0.26
		l-0.29-0.97l0.7-0.08c0.4-0.8,0.75-1.62,1.05-2.46H6.9v-0.94h5.09v0.94H9.44c-0.22,0.64-0.54,1.41-0.95,2.31l2.09-0.27l-0.46-1.04
		l0.86-0.33c0.38,0.8,0.71,1.62,0.99,2.46c0.58-1.45,0.87-2.99,0.86-4.55h0.91l-0.08,1.23h3.7v0.97H16.6
		c0.03,1.88-0.43,3.73-1.33,5.38c0.64,0.93,1.38,1.8,2.2,2.57l-0.94,0.49c-0.68-0.71-1.29-1.48-1.81-2.32
		c-0.74,0.92-1.59,1.75-2.52,2.48l-0.82-0.71c1.07-0.69,2.05-1.51,2.91-2.44c-0.55-1.1-0.92-2.29-1.09-3.51
		C13.06,45.66,12.85,46.19,12.6,46.7z M14.77,47.78c0.68-1.38,0.99-2.91,0.92-4.45h-1.9c0.04,1.12,0.21,2.23,0.52,3.3
		c0.12,0.39,0.28,0.77,0.47,1.13L14.77,47.78z"/>
	<path class="st1" d="M28.43,45.61h-3.15c-0.08,0-0.11,0-0.11,0.13v2.03c0.03,1.38-0.35,2.73-1.09,3.89l-0.91-0.39
		c0.36-0.57,0.62-1.19,0.8-1.84c0.14-0.65,0.2-1.31,0.2-1.97v-2.55c0-0.18,0.08-0.27,0.26-0.27h3.7l-0.17-1.13l0.98-0.16
		c0.05,0.44,0.12,0.87,0.22,1.29h4.26v0.97h-4.01c0.27,0.78,0.58,1.55,0.94,2.29c0.42-0.52,0.87-1.12,1.35-1.83l0.82,0.54
		c-0.46,0.79-1.01,1.52-1.63,2.18c0.85,1.23,1.43,1.8,1.69,1.8c0.07,0,0.12-0.1,0.15-0.3c0.04-0.47,0.04-0.94,0-1.4l0.97,0.17
		c0.08,1.44-0.09,2.31-0.43,2.57c-0.1,0.07-0.22,0.12-0.34,0.14c-0.29,0.03-0.58-0.07-0.8-0.26c-0.79-0.56-1.47-1.25-2-2.06
		c-1.36,1.01-2.9,1.76-4.54,2.21l-0.54-0.94c1.64-0.39,3.19-1.1,4.55-2.09C29.09,47.68,28.7,46.67,28.43,45.61z M26.96,42.89v0.9
		h-0.97v-0.88h-2.61v-1h2.61v-0.98h0.97v0.98h3.32v-0.98h0.98v0.98h2.59v0.99h-2.59v0.9h-0.98v-0.9L26.96,42.89z M32.3,43.02
		c0.47,0.43,0.83,0.76,1.03,0.98l-0.66,0.6c-0.29-0.36-0.64-0.68-1.02-0.95L32.3,43.02z"/>
	<path class="st1" d="M40.05,43.26v-1.02h4.76v-1.23h1.01v1.23h4.69v1.02h-1.75c-0.44,1.93-1.4,3.71-2.77,5.13
		c1.39,1.08,2.98,1.88,4.68,2.36l-0.6,0.95c-1.74-0.55-3.35-1.44-4.76-2.6l-1.16,0.85c-1.11,0.71-2.3,1.29-3.54,1.75l-0.61-0.9
		c1.64-0.52,3.17-1.33,4.52-2.39c-1.32-1.42-2.2-3.19-2.54-5.1L40.05,43.26z M45.27,47.76l0.26-0.26c1.11-1.19,1.87-2.65,2.21-4.24
		h-4.73c0.16,0.85,0.43,1.68,0.8,2.46C44.18,46.48,44.67,47.17,45.27,47.76z"/>
	<path class="st1" d="M58.47,47.78h0.48l0.85-0.81v-0.1h-1.19c-0.55,0.44-1.12,0.86-1.71,1.23l-0.59-0.73
		c1.1-0.6,2.12-1.34,3.02-2.21h-2.93v-1h2.13v-1.23h-1.76v-0.88h1.76v-1.09h0.94v1.09h1.75v0.54l0.69-1.23l0.77,0.42
		c-0.44,0.83-0.92,1.62-1.46,2.38h0.9v0.9h-1.55l-0.34,0.37l-0.61,0.59H61l0.63,0.58l-1.85,1.53L60,48.49
		c0.9-0.23,1.59-0.45,2.08-0.61l0.27,0.9c-0.42,0.15-1.09,0.34-1.98,0.58c0.28,0.77,0.3,1.32,0.07,1.63
		c-0.16,0.26-0.39,0.47-0.66,0.6c-0.76,0.23-1.58,0.16-2.29-0.18v-1.03c0.84,0.45,1.4,0.6,1.68,0.47c0.16-0.09,0.29-0.22,0.38-0.37
		c0.12-0.3,0.12-0.63,0-0.92l-2.8,0.54l-0.27-0.91l2.67-0.49L58.47,47.78z M60.93,42.98H59.4v1.25h0.69l0.54-0.69L60.93,42.98z
		 M62.67,46.87l-0.91-0.24c0.9-1.71,1.36-3.61,1.35-5.53h0.94l-0.07,1.09h3.08v1h-0.73v0.65c-0.02,1.47-0.34,2.93-0.96,4.26
		l-0.39,0.69c0.62,0.9,1.34,1.73,2.14,2.46l-0.88,0.5c-0.66-0.7-1.26-1.45-1.79-2.25c-0.74,0.89-1.63,1.64-2.63,2.22l-0.69-0.75
		c1.13-0.54,2.11-1.34,2.86-2.34c-0.41-0.88-0.68-1.81-0.81-2.77C63.03,46.2,62.86,46.54,62.67,46.87z M64.51,47.76
		c0.62-1.23,0.95-2.59,0.95-3.97v-0.61h-1.54c-0.07,0.94-0.03,1.88,0.13,2.81c0.08,0.61,0.23,1.21,0.46,1.79V47.76z"/>
	<path class="st1" d="M76.49,47.44c-0.85,1.01-1.9,1.82-3.08,2.4l-0.61-0.83c0.87-0.39,1.68-0.92,2.38-1.58H72.9v-0.9h1.97v-3.87
		h-1.69v-0.89h1.69v-0.65h0.98v0.65h4.63v-0.65h1.02v0.65h1.76v0.89H81.5v3.87h2.03v0.91H81c0.77,0.7,1.66,1.25,2.63,1.63
		l-0.65,0.79c-1.21-0.61-2.3-1.45-3.2-2.46L76.49,47.44z M77.72,49.65h-2.47v-0.89h2.47v-0.84h0.97v0.84h2.46v0.89h-2.46v1.03h4.48
		v0.89h-9.86v-0.89h4.42L77.72,49.65z M80.52,43.43v-0.75h-4.63v0.75H80.52z M80.52,45.01v-0.78h-4.63v0.78H80.52z M80.52,46.55
		v-0.79h-4.63v0.76L80.52,46.55z"/>
	<path class="st1" d="M90.14,45.05l-0.54-0.94c2.64-0.89,4.35-1.89,5.16-2.99l0.95,0.2l-0.14,0.2c1.41,1.16,3.04,2.04,4.78,2.59
		l-0.58,0.94c-1.71-0.71-3.31-1.67-4.75-2.84C93.57,43.43,91.92,44.4,90.14,45.05z M94.49,47.77h-4.51v-1.01h4.51v-1.37h-2.72v-0.98
		h6.31v0.98h-2.62v1.37h4.48v0.98h-4.48v2.86h4.57v0.98H89.92v-0.98h4.61L94.49,47.77z M91.63,47.88c0.49,0.68,0.9,1.41,1.23,2.18
		l-0.89,0.47c-0.34-0.74-0.76-1.45-1.23-2.12L91.63,47.88z M99.02,48.43c-0.42,0.71-0.88,1.4-1.38,2.07l-0.74-0.6
		c0.49-0.64,0.93-1.32,1.33-2.03L99.02,48.43z"/>
	<path class="st1" d="M113.23,43.56h-3.93v-0.6c-1.02,0.33-2.05,0.59-3.09,0.8l-0.33-0.94c1.89-0.09,3.71-0.71,5.26-1.8l0.83,0.34
		l-0.09,0.08c1.49,0.75,3.1,1.24,4.76,1.42l-0.36,0.94c-1.03-0.22-2.05-0.49-3.05-0.83V43.56z M115.55,47.01h-8.63
		c-0.07,0.01-0.13-0.04-0.14-0.11v-2.75c0-0.07,0-0.11,0.14-0.11h8.62c0.09,0,0.14,0,0.14,0.11v2.72c0,0.07-0.06,0.12-0.12,0.11
		c0,0,0,0-0.01,0L115.55,47.01z M108.48,51.69h-0.94v-3.95c0-0.11,0-0.15,0.15-0.15h7.21c0.13,0,0.2,0,0.2,0.18v3.92h-0.94v-0.42
		h-5.69L108.48,51.69z M109.98,46.16h0.8v-1.23h-3.1v1.23h1.23l-0.44-0.79l0.8-0.44c0.28,0.38,0.51,0.79,0.7,1.22H109.98z
		 M114.16,49.03v-0.54c0-0.09,0-0.12-0.15-0.12h-5.41c-0.09,0-0.14,0-0.13,0.12v0.54H114.16z M108.48,49.83v0.63h5.68v-0.63H108.48z
		 M111.23,41.97c-0.43,0.27-0.88,0.51-1.34,0.72h2.77L111.23,41.97z M113.64,46.12h1.09v-1.23h-3.03v1.23h0.79
		c0.3-0.39,0.57-0.8,0.8-1.23l0.76,0.51L113.64,46.12z"/>
</g>
</svg>
