<svg xmlns="http://www.w3.org/2000/svg" width="67.766" height="30" viewBox="0 0 67.766 30">
  <g id="Group_5136" data-name="Group 5136" transform="translate(-843.807 -402.661)">
    <g id="Group_5132" data-name="Group 5132" transform="translate(844.33 423.345)">
      <path id="Path_19510" data-name="Path 19510" d="M849.267,420.087l-.857-.223.3-.676-.747.223-.161-.465-.958.132v1.331h1.543v.818h-1.543v1.7a9.229,9.229,0,0,0,1.563-.536l.363.828a20.669,20.669,0,0,1-4.346,1.049l-.292-.857,1.855-.282v-1.906h-1.634v-.818h1.634V419.2l-1.6.223-.262-.848.615-.061a17.465,17.465,0,0,0,.907-2.127h-1.331v-.818h4.427v.818h-2.219c-.191.554-.473,1.23-.826,2.007l1.825-.232-.4-.907.757-.293a20.574,20.574,0,0,1,.857,2.19,10.333,10.333,0,0,0,.747-3.944h.806l-.061,1.09h3.248v.857H852.8a9.388,9.388,0,0,1-1.161,4.68,14.51,14.51,0,0,0,1.918,2.249l-.808.424a12.376,12.376,0,0,1-1.583-2.018,13.223,13.223,0,0,1-2.229,2.028l-.706-.605a13.4,13.4,0,0,0,2.5-2.168,9.918,9.918,0,0,1-.928-3.057A7.926,7.926,0,0,1,849.267,420.087Zm1.906.937a8.03,8.03,0,0,0,.806-3.872h-1.654a12.083,12.083,0,0,0,.455,2.874A5.483,5.483,0,0,0,851.173,421.024Z" transform="translate(-844.124 -415.205)" fill="#474645"/>
    </g>
    <g id="Group_5133" data-name="Group 5133" transform="translate(863.26 423.234)">
      <path id="Path_19511" data-name="Path 19511" d="M860.182,419.2H857.44a.1.1,0,0,0-.1.111v1.776a6.178,6.178,0,0,1-.938,3.388l-.8-.363a6.034,6.034,0,0,0,.706-1.585,8.064,8.064,0,0,0,.172-1.713v-2.229c0-.162.069-.242.231-.242h3.239l-.152-.988.857-.132a9.217,9.217,0,0,0,.191,1.12h3.712v.857h-3.469a15.92,15.92,0,0,0,.816,2c.364-.444.757-.968,1.181-1.593l.716.463a10.7,10.7,0,0,1-1.421,1.9c.747,1.039,1.25,1.563,1.472,1.563.071-.01.11-.1.13-.252a6.818,6.818,0,0,0,.021-1.23l.848.152c.059,1.26-.071,2.007-.374,2.238a.619.619,0,0,1-.292.122.955.955,0,0,1-.7-.223,6.542,6.542,0,0,1-1.735-1.8,11.862,11.862,0,0,1-3.974,1.937l-.465-.838a11.172,11.172,0,0,0,3.964-1.825A11.77,11.77,0,0,1,860.182,419.2Zm-1.311-2.36v.786h-.857v-.786h-2.269v-.857h2.269v-.848h.857v.848h2.885v-.848h.858v.848h2.249v.857h-2.249v.786h-.858v-.786Zm4.64.111c.414.373.716.666.9.857l-.584.5a4.97,4.97,0,0,0-.867-.818Z" transform="translate(-855.605 -415.138)" fill="#474645"/>
    </g>
    <g id="Group_5134" data-name="Group 5134" transform="translate(882.402 423.587)">
      <path id="Path_19512" data-name="Path 19512" d="M868.111,417.288a.075.075,0,0,0-.081.081v1.322h-.816v-2.028a.135.135,0,0,1,.152-.152h3.913v-.424H867.93v-.735h7.534v.735h-3.369v.424h3.631l.707.353a6.979,6.979,0,0,1-.343,1.867l-.786-.232a4.338,4.338,0,0,0,.211-1.088c0-.081-.03-.122-.1-.122h-3.319v2.129h-.816v-2.129Zm-.221,5.639c-.071,0-.1-.041-.1-.112V419.88c0-.071.03-.1.1-.1h7.463c.071,0,.11.03.11.1v2.935a.1.1,0,0,1-.11.112h-3.3V423a.473.473,0,0,0,.12.323.543.543,0,0,0,.323.132h2.824a.4.4,0,0,0,.231-.091,2.813,2.813,0,0,0,.092-.676l.765.191a3.647,3.647,0,0,1-.191,1.039.832.832,0,0,1-.564.313h-3.621a.884.884,0,0,1-.566-.274.766.766,0,0,1-.231-.534v-.493Zm2.965-4.226v.655h-2.5V418.7Zm0-1.029v.664h-2.46v-.664Zm.384,2.813H868.6c-.03,0-.041.01-.03.031v.5h2.673Zm0,1.2h-2.673v.5l.03.041h2.643Zm.816-.664h2.622v-.5l-.03-.031h-2.592Zm0,1.21h2.592l.03-.041v-.5h-2.622Zm2.975-4.559v.664h-2.46v-.664Zm.071,1.029v.655H872.57V418.7Z" transform="translate(-867.214 -415.352)" fill="#474645"/>
    </g>
    <g id="Group_5135" data-name="Group 5135" transform="translate(901.201 423.467)">
      <path id="Path_19513" data-name="Path 19513" d="M884.183,420.331a8.433,8.433,0,0,1,.363,1.764,1.919,1.919,0,0,1-.615,1.827,2.265,2.265,0,0,1-1.524.434,5.254,5.254,0,0,1-2-.605l.191-.909a3.355,3.355,0,0,0,2.068.605,1.11,1.11,0,0,0,.848-.6,4.388,4.388,0,0,0-.333-2.582h-4.569v-.9h4.216a10.625,10.625,0,0,0-.686-1.362h.625l2.421-1.7c.031-.02.031-.049.011-.081a.082.082,0,0,0-.081-.049h-5.568v-.9h6.637l.757.877-3.4,2.389.323.828h3.944v.9h-3.651Z" transform="translate(-878.615 -415.279)" fill="#474645"/>
    </g>
    <path id="Path_19514" data-name="Path 19514" d="M878.879,407.859a5.478,5.478,0,0,0-.661,1.715h2.592a2.194,2.194,0,0,1,.127-.4,2.344,2.344,0,0,1,1.741-1.383,2.25,2.25,0,0,1,.6-.086,1.88,1.88,0,0,1,1.562.79,1.824,1.824,0,0,1,.361.679,2.068,2.068,0,0,1,.069.4H888.5l.373-2.026H879.1Z" transform="translate(22.329 3.171)" fill="#008dd8"/>
    <path id="Path_19515" data-name="Path 19515" d="M885.932,406.332l-.243,1.3h-.033c-.229-.571-1.651-1.312-3.181-1.312a4.76,4.76,0,0,0-3.453,1.472h9.43l.269-1.456Z" transform="translate(22.851 2.372)" fill="#008dd8"/>
    <path id="Path_19516" data-name="Path 19516" d="M884.212,410.668a2.351,2.351,0,0,1-.882.313,2.181,2.181,0,0,1-.463.053,1.937,1.937,0,0,1-1.08-.318c-.031-.015-.063-.031-.092-.048a1.72,1.72,0,0,1-.889-1.552h-2.622l-.01.058c-.01.1-.025.2-.033.3a4.323,4.323,0,0,0,.158,1.464l.074.2h9.705l.374-2.026H885.3a2.246,2.246,0,0,1-1.087,1.552" transform="translate(22.273 4.189)" fill="#008dd8"/>
    <path id="Path_19517" data-name="Path 19517" d="M882.047,412.714a3.167,3.167,0,0,0,2.75-1.1h.035l-.188,1.009h2.79l.358-1.941h-9.371a3.928,3.928,0,0,0,3.626,2.031" transform="translate(22.46 5.205)" fill="#008dd8"/>
    <path id="Path_19518" data-name="Path 19518" d="M866.519,407.681a2.168,2.168,0,0,1,2.152,1.893h2.638a4.755,4.755,0,0,0-.635-2.026h-8.309a4.753,4.753,0,0,0-.635,2.026h2.638a2.168,2.168,0,0,1,2.15-1.893" transform="translate(11.63 3.171)" fill="#008dd8"/>
    <path id="Path_19519" data-name="Path 19519" d="M866.12,406.1a4.792,4.792,0,0,0-3.773,1.832h7.545a4.787,4.787,0,0,0-3.773-1.832" transform="translate(12.03 2.23)" fill="#008dd8"/>
    <path id="Path_19520" data-name="Path 19520" d="M866.525,411a2.17,2.17,0,0,1-2.15-1.888h-2.651a4.792,4.792,0,0,0,.524,2.026H870.8a4.748,4.748,0,0,0,.526-2.026h-2.651A2.169,2.169,0,0,1,866.525,411" transform="translate(11.625 4.189)" fill="#008dd8"/>
    <path id="Path_19521" data-name="Path 19521" d="M866.185,412.737a4.8,4.8,0,0,0,3.941-2.054h-7.88a4.8,4.8,0,0,0,3.939,2.054" transform="translate(11.965 5.205)" fill="#008dd8"/>
    <path id="Path_19522" data-name="Path 19522" d="M845.045,410.695A6.181,6.181,0,0,0,848.3,412.5a7.766,7.766,0,0,0,4.259-.172l.3-1.647h-7.824Z" transform="translate(0.797 5.205)" fill="#008dd8"/>
    <path id="Path_19523" data-name="Path 19523" d="M854.678,404.345a7.55,7.55,0,0,0-3.542-1.562,6.18,6.18,0,0,0-6.208,2.206h9.631Z" transform="translate(0.727)" fill="#008dd8"/>
    <path id="Path_19524" data-name="Path 19524" d="M847.5,407.964c-.023-.175-.038-.308-.043-.417h-3.641l.008.216a9.5,9.5,0,0,0,.307,1.81h4.055a5.491,5.491,0,0,1-.686-1.609" transform="translate(0.006 3.171)" fill="#008dd8"/>
    <path id="Path_19525" data-name="Path 19525" d="M845.041,404.461a9.226,9.226,0,0,0-.958,1.975h4.125a3.971,3.971,0,0,1,3.56-1.443,6.324,6.324,0,0,1,2.508,1.131c.073.054.293.2.361.274l.366-1.987h-9.928Z" transform="translate(0.179 1.136)" fill="#008dd8"/>
    <path id="Path_19526" data-name="Path 19526" d="M850.4,410.514a3.785,3.785,0,0,1-1.923-1.28c-.035-.04-.066-.079-.1-.119h-4.269l.04.119a7.444,7.444,0,0,0,.991,1.88l.023.028h8.386l.165-.956a5.439,5.439,0,0,1-3.314.328" transform="translate(0.199 4.189)" fill="#008dd8"/>
    <path id="Path_19527" data-name="Path 19527" d="M848.017,405.979h-3.924l-.059.2c-.031.13-.063.26-.089.391a7.9,7.9,0,0,0-.137,1.436h3.654a3.78,3.78,0,0,1,.556-2.028" transform="translate(0 2.153)" fill="#008dd8"/>
    <path id="Path_19528" data-name="Path 19528" d="M859.624,407.521a2.876,2.876,0,0,0-2.4-1.047,3.238,3.238,0,0,0-2.674,1.2h-.035l.27-1.451.045-.246h-2.862l-.366,2.028h8.282a2.766,2.766,0,0,0-.264-.486" transform="translate(5.06 2.153)" fill="#008dd8"/>
    <path id="Path_19529" data-name="Path 19529" d="M855.13,404.412h-2.872l-.368,2.025h2.864Z" transform="translate(5.245 1.136)" fill="#008dd8"/>
    <path id="Path_19530" data-name="Path 19530" d="M854.38,412.6h2.847l.346-1.917h-2.859Z" transform="translate(6.861 5.205)" fill="#008dd8"/>
    <path id="Path_19531" data-name="Path 19531" d="M860.23,407.547h-8.543l-.368,2.026h2.874l.011-.066a1.8,1.8,0,0,1,1.822-1.377c1.08,0,1.253.765,1.232,1.377l-.012.066h2.881l.012-.066a6.283,6.283,0,0,0,.125-1.81Z" transform="translate(4.874 3.171)" fill="#008dd8"/>
    <path id="Path_19532" data-name="Path 19532" d="M854.641,411.142h2.865l.365-2.026h-2.877Z" transform="translate(7.03 4.189)" fill="#008dd8"/>
    <path id="Path_19533" data-name="Path 19533" d="M851.034,411.142h2.859l.379-2.026H851.4Z" transform="translate(4.689 4.189)" fill="#008dd8"/>
    <path id="Path_19534" data-name="Path 19534" d="M855.43,402.831h-2.882l-.374,2.047h2.875Z" transform="translate(5.429 0.111)" fill="#008dd8"/>
    <path id="Path_19535" data-name="Path 19535" d="M850.761,412.6h2.845l.358-1.917h-2.857Z" transform="translate(4.512 5.205)" fill="#008dd8"/>
    <path id="Path_19536" data-name="Path 19536" d="M861.015,407.324l.153-1.011h-2.674l-.275,1.477h5.092l.27-1.459c-1.646,0-2.239.531-2.566.993" transform="translate(9.351 2.37)" fill="#008dd8"/>
    <path id="Path_19537" data-name="Path 19537" d="M857.355,412.6H860.2l.361-1.917h-2.851Z" transform="translate(8.791 5.205)" fill="#008dd8"/>
    <path id="Path_19538" data-name="Path 19538" d="M857.927,409.573h2.859l.013-.066c.247-1.222,1.111-1.667,2.439-1.115l.157-.846H858.3Z" transform="translate(9.162 3.171)" fill="#008dd8"/>
    <path id="Path_19539" data-name="Path 19539" d="M857.635,411.142h2.854l.383-2.026h-2.86Z" transform="translate(8.972 4.189)" fill="#008dd8"/>
    <path id="Path_19540" data-name="Path 19540" d="M871.418,412.621H874.3l.37-1.938h-2.872Z" transform="translate(17.916 5.205)" fill="#008dd8"/>
    <path id="Path_19541" data-name="Path 19541" d="M882.97,407.547H868.844l-.363,2.026h2.91a1.741,1.741,0,0,1,1.67-1.045,1.115,1.115,0,0,1,1.237,1.045h2.891a1.7,1.7,0,0,1,1.662-1.045c.884,0,1.133.491,1.161,1.045H882.9a6.749,6.749,0,0,0,.137-1.718Z" transform="translate(16.011 3.171)" fill="#008dd8"/>
    <path id="Path_19542" data-name="Path 19542" d="M868.2,411.142h2.9l.358-2.026h-2.9Z" transform="translate(15.826 4.189)" fill="#008dd8"/>
    <path id="Path_19543" data-name="Path 19543" d="M871.713,411.142h2.869l.387-2.026h-2.863Z" transform="translate(18.108 4.189)" fill="#008dd8"/>
    <path id="Path_19544" data-name="Path 19544" d="M874.892,412.621h2.973l.333-1.938h-2.935Z" transform="translate(20.171 5.205)" fill="#008dd8"/>
    <path id="Path_19545" data-name="Path 19545" d="M867.923,412.621h2.913l.343-1.938h-2.906Z" transform="translate(15.648 5.205)" fill="#008dd8"/>
    <path id="Path_19546" data-name="Path 19546" d="M875.183,411.142h2.922l.351-2.026h-2.885Z" transform="translate(20.359 4.189)" fill="#008dd8"/>
    <path id="Path_19547" data-name="Path 19547" d="M882.275,407.313a3.012,3.012,0,0,0-2.3-.943,3.9,3.9,0,0,0-3.3,1.228,2.941,2.941,0,0,0-2.628-1.283,2.835,2.835,0,0,0-2.62,1.367h-.033l.267-1.354h-2.633l-.262,1.461h13.824a3.238,3.238,0,0,0-.313-.477" transform="translate(16.194 2.371)" fill="#008dd8"/>
  </g>
</svg>
