<svg xmlns="http://www.w3.org/2000/svg" width="214.116" height="50" viewBox="0 0 214.116 50">
  <g id="Group_5222" data-name="Group 5222" transform="translate(-7173.119 -959.663)">
    <g id="Group_5221" data-name="Group 5221" transform="translate(7173.119 959.663)">
      <g id="Group_5214" data-name="Group 5214" transform="translate(31.224 36.976)">
        <g id="Group_5213" data-name="Group 5213">
          <path id="Path_19757" data-name="Path 19757" d="M107.467,137.765q-3.076,1.632-4.5,2.218l-.279-.722q1.074-.423,1.967-.859v-4.019h-1.717v-.772h1.717V130.3H102.74v-.744h4.391v.744h-1.717v3.312h1.631v.772h-1.631V138q1.281-.616,1.91-.994Zm7.938-8.066h-1.117v10.535a1,1,0,0,1-.274.7,1.12,1.12,0,0,1-.676.361,9.939,9.939,0,0,1-1.323.061H111.1l-.251-.786q.809.063,1.451.064a2.292,2.292,0,0,0,1.052-.14.556.556,0,0,0,.193-.482V129.7H107.7v-.745h7.7Zm-3.254,8.175h-3.791v-6.215h3.791Zm-.758-.78v-4.684H109.14v4.684Z" transform="translate(-102.689 -128.454)" fill="#1a1311"/>
          <path id="Path_19758" data-name="Path 19758" d="M150.446,130.361h-1.981v1.388h-.758v-1.388h-3.254v-.751h3.24l.015-1.387h.758v1.387h1.981Zm5.886,9.341a1.209,1.209,0,0,1-.246.818,1.171,1.171,0,0,1-.572.372,5.388,5.388,0,0,1-1.213.089c-.237,0-.576-.007-1.014-.021l-.251-.8q1.08.03,1.981.028a.531.531,0,0,0,.386-.153.489.489,0,0,0,.158-.362v-5.257H151.3q.6,2.3,3.748,3.912l-.516.629a7.493,7.493,0,0,1-3.747-3.856,5.308,5.308,0,0,1-1.363,2.271,7.046,7.046,0,0,1-2.314,1.6l-.515-.615a7.255,7.255,0,0,0,2.435-1.631,4.047,4.047,0,0,0,1.227-2.309h-4.277v6.53h-.787v-7.3h5.243v-1.358H149.2v-.751h1.988v2.11h5.142Zm.795-9.341h-3.284v1.681h-.764v-1.681h-1.945v-.751h1.945v-1.387h.764v1.387h3.284Z" transform="translate(-126.933 -128.03)" fill="#1a1311"/>
          <path id="Path_19759" data-name="Path 19759" d="M199.376,131.579l-.393.657-.965-.365v8.54a1.156,1.156,0,0,1-.247.726q-.247.317-1.106.318c-.223,0-.5-.007-.843-.022l-.222-.787q.773.058,1.316.057a.338.338,0,0,0,.387-.379V132.4h-3.955v8.876h-.737V132.4h-4.041v9.019h-.716v-9.548c-.347.134-.613.232-.793.294l-.451-.615a13.535,13.535,0,0,0,3.426-1.667l.629.408a10.836,10.836,0,0,1-2.374,1.388h4.32V129.7h-5.55v-.715H198.9v.715h-5.549v1.975h4.263a10.541,10.541,0,0,1-2.152-1.259l.55-.508A11.564,11.564,0,0,0,199.376,131.579Zm-7.2,7.645-.515.5a7.973,7.973,0,0,0-.98-1.088,6.226,6.226,0,0,1-1.13,1.245l-.529-.493a8.488,8.488,0,0,0,1.173-1.23,9.956,9.956,0,0,0-1.2-.951l.4-.53,1.173.908a7.878,7.878,0,0,0,.522-1.086l.659.25a6.842,6.842,0,0,1-.673,1.3A13.175,13.175,0,0,1,192.173,139.223Zm0-3.633-.443.544q-.587-.651-.936-.965a6.93,6.93,0,0,1-1.052,1.115l-.543-.472a6.233,6.233,0,0,0,1.058-1.116,10.253,10.253,0,0,0-1.143-.922l.364-.494a12.247,12.247,0,0,1,1.173.844,6.4,6.4,0,0,0,.572-1.166l.629.215a7.2,7.2,0,0,1-.672,1.408A9.949,9.949,0,0,1,192.173,135.59Zm4.727.029-.508.528a7.328,7.328,0,0,0-.973-1.115,7.629,7.629,0,0,1-1.136,1.28l-.573-.458a7.346,7.346,0,0,0,1.2-1.243,8.75,8.75,0,0,0-.937-.745l.392-.529a6.433,6.433,0,0,1,.925.686,8.072,8.072,0,0,0,.528-1.094l.644.2a12.642,12.642,0,0,1-.644,1.352A9.021,9.021,0,0,1,196.9,135.619Zm.057,3.632-.522.5a8.654,8.654,0,0,0-1.073-1.159,9.451,9.451,0,0,1-1.079,1.23l-.516-.493a7.1,7.1,0,0,0,1.1-1.252q-.316-.306-.951-.829l.449-.473.881.737a6.465,6.465,0,0,0,.515-.973l.645.208a7.547,7.547,0,0,1-.645,1.258A12.887,12.887,0,0,1,196.958,139.252Z" transform="translate(-151.405 -128.474)" fill="#1a1311"/>
          <path id="Path_19760" data-name="Path 19760" d="M241.087,138.321H238v1.431q0,1.229-1.367,1.23-.537,0-1.358-.029l-.351-.73q.464.021,1.15.022a3.267,3.267,0,0,0,1-.08.3.3,0,0,0,.143-.292v-1.553h-8.861v-.686h8.861V136.9H238v.737h3.089Zm-.193-8.554H235.13v1.008h4.627v3.985h-.764a10.994,10.994,0,0,1,1.788,1.966l-.615.422a5.917,5.917,0,0,0-.7-.88q-5.908.451-10.621.473l-.194-.68q2.669.021,5.716-.115V134.76h-4.656v-3.985h4.656v-1.008H228.55V129.1h5.815v-.908h.765v.908h5.765Zm-6.53,2.646v-.98h-3.9v.98Zm0,1.688v-1.037h-3.9V134.1Zm-.951,5.886-.487.586a10.911,10.911,0,0,0-2.152-1.452l.486-.565A10.377,10.377,0,0,1,233.413,139.988Zm5.593-7.574v-.98H235.13v.98Zm0,1.688v-1.037H235.13V134.1Zm-.171,1.537c-.272-.272-.453-.443-.545-.515l.48-.364h-3.64V135.9Q237.433,135.783,238.835,135.64Z" transform="translate(-175.64 -128.009)" fill="#1a1311"/>
          <path id="Path_19761" data-name="Path 19761" d="M282.966,137.333h-5.943v3.725h-.779v-3.725h-6.023v-.73h6.023v-1.2h-5.379v-.688h5.379v-1.144h-5.686v-.716h3.827a6.108,6.108,0,0,0-.822-1.144l.557-.351h-3.9v-.737h4.836v-2.367h.75v2.367h1.652v-2.367h.729v2.367h4.749v.737h-3.812l.529.365a5.114,5.114,0,0,1-.728,1.13h3.7v.716h-5.608v1.144h5.257v.688h-5.257v1.2h5.943Zm-8.024,1.115a15.668,15.668,0,0,1-4.191,2.238l-.486-.644a14.08,14.08,0,0,0,4.119-2.095Zm-1.38-8.525-.645.378a9.555,9.555,0,0,0-1.436-1.474l.664-.458A11.2,11.2,0,0,1,273.562,129.924Zm5.378,1.437H274.3a12.164,12.164,0,0,1,.965,1.495h2.754A6.388,6.388,0,0,0,278.94,131.36Zm4.041,8.861-.437.6a27.721,27.721,0,0,0-4.277-2.316l.437-.587A25.766,25.766,0,0,1,282.981,140.222Zm-1.187-11.486a6.985,6.985,0,0,1-1.482,1.523l-.672-.379a10.074,10.074,0,0,0,1.467-1.481Z" transform="translate(-199.943 -128.049)" fill="#1a1311"/>
          <path id="Path_19762" data-name="Path 19762" d="M324.986,135.481h-4.741v.787h3.568v4.977h-.729v-.522h-8.846v.522h-.752v-4.977h3.756q.042-.573.043-.787h-5.006v-.665h12.708Zm-5.815-6.159h-3.733l.393.251a3.471,3.471,0,0,1-.236.394h3v.6H316.99a5.828,5.828,0,0,1-.1.637h1.989v.629h-1.846a12.362,12.362,0,0,1,1.567,1.08l-.422.486a8.7,8.7,0,0,0-1.745-1.2,4.081,4.081,0,0,1-1.931,1.144l-.393-.558a3.46,3.46,0,0,0,1.767-.95h-1.767V131.2h2.06a1.559,1.559,0,0,0,.136-.637h-1.272a5.027,5.027,0,0,1-.5.371l-.543-.414a4,4,0,0,0,1.2-1.2h-1.567v3.913a.33.33,0,0,0,.111.243.341.341,0,0,0,.239.108h4.613v.629h-4.6a.954.954,0,0,1-1.065-1.095v-3.8h-.444v-.657h6.694Zm3.912,10.757v-1.717h-2.488q-.68,0-.883-.3a1.348,1.348,0,0,1-.2-.772v-.365H317.8q-.493,1.416-2.875,1.924l-.364-.68a3.292,3.292,0,0,0,2.488-1.245h-2.81v3.154Zm-1.437-.586h-6.022v-.63h6.022Zm-2.139-3.225v-.787h-1.494a6.216,6.216,0,0,1-.057.787Zm5.365-5.636h-1.338q-.787,0-.787-.851v-.429h-2.052a2.517,2.517,0,0,1-.994,1.559l-.587-.43a1.712,1.712,0,0,0,.894-1.773h3.44v1.1c0,.129.069.193.207.193h1.216Zm-.093,3.355-.394.537a18.309,18.309,0,0,0-1.989-1.094,9.9,9.9,0,0,1-2.96,1.037l-.322-.6a10.792,10.792,0,0,0,2.489-.8,15.618,15.618,0,0,0-1.931-.808l.293-.393h-.629V131.2H324.3v.657a5.741,5.741,0,0,1-1.258,1.152Q323.62,133.315,324.779,133.986Zm-1.7,3.734v-.795h-2.839v.529a.232.232,0,0,0,.258.266Zm.222-5.858h-2.9q1.695.709,1.917.815A5.325,5.325,0,0,0,323.305,131.862Z" transform="translate(-224.357 -128.286)" fill="#1a1311"/>
          <path id="Path_19763" data-name="Path 19763" d="M366.7,138.289h-5.979v1.466a.807.807,0,0,1-.269.651.949.949,0,0,1-.639.229l-1.738.015-.25-.73q.42.022.844.022a4.029,4.029,0,0,0,1.158-.086.357.357,0,0,0,.165-.35v-1.217h-6.008V137.6H360v-.587a25.252,25.252,0,0,0,2.375-.951h-5.893v-.686h7.459v.686a32.743,32.743,0,0,1-3.211,1.409v.13H366.7Zm-.308-1.973h-.765V134.47H355.048v1.846h-.737v-2.532h.765l-.057-5.278a10.56,10.56,0,0,0,2.739-.7l.336.586a9.875,9.875,0,0,1-2.346.686v1.044h2.36v.672h-2.346l.014,1.13h2.318v.686h-2.288l.014,1.173H364.8l.014-1.173H362.5v-.686h2.331l.016-1.13H362.5v-.672h2.375l.028-1.059h-2.531v-.672h3.275l-.129,5.392h.88Zm-4.147-3.355-.479.472q-.2-.2-1.288-1.072a10.776,10.776,0,0,1-1.773,1.037l-.365-.6a15,15,0,0,0,1.595-.872,4.888,4.888,0,0,0-.623-.472c-.247-.162-.427-.284-.536-.365l.436-.458q1.067.737,1.266.894a5.7,5.7,0,0,0,.952-.843l.55.379a8.2,8.2,0,0,1-.965.908Q361.333,132.19,362.249,132.961Zm-.043-2.8-.48.422a10.014,10.014,0,0,0-1.244-1.008,11.829,11.829,0,0,1-1.674.936l-.321-.586a10.188,10.188,0,0,0,1.452-.793,8.5,8.5,0,0,0-1.059-.8l.486-.429q.872.637,1.116.836a6.292,6.292,0,0,0,1.022-.98l.558.293A7.292,7.292,0,0,1,361,129.17,10.665,10.665,0,0,1,362.207,130.164Z" transform="translate(-248.57 -127.762)" fill="#1a1311"/>
          <path id="Path_19764" data-name="Path 19764" d="M399.09,128.3q-.15.581-.522,1.61l-.372,1.015v10.005h-.758v-8.267q-.715,1.352-1.288,2.217l-.5-.708a20.5,20.5,0,0,0,2.71-6.109Zm3.168,8.819a14.138,14.138,0,0,1-2.861,3.311l-.529-.53a14.5,14.5,0,0,0,2.79-3.269Zm6.223-1.58h-4.32v5.421H403.4v-5.421h-4.478v-.751H403.4v-1.738h-3.34V128.54h7.431v4.513h-3.326v1.738h4.32Zm-1.76-3.24v-3.076h-5.886V132.3Zm1.86,7.517-.537.544a19.561,19.561,0,0,0-2.818-3.269l.586-.558A21.673,21.673,0,0,1,408.581,139.819Z" transform="translate(-272.755 -127.939)" fill="#1a1311"/>
          <path id="Path_19765" data-name="Path 19765" d="M450.562,135.6l-.423.615a19.532,19.532,0,0,1-1.951-1.052v2.947h-7.6v1.86q1.058-.13,3-.572l.107.629q-1.3.3-3.87.744l-.264-.587a.558.558,0,0,0,.307-.479v-4.428c-.346.21-.879.5-1.594.866l-.487-.572a11.731,11.731,0,0,0,3.648-2.5h-3.454v-.629h5.857v-.98H438.96v-.643h4.878v-.951h-5.394v-.615H449.9v.615h-5.364v.951H449.4v.643h-4.863v.98H450.4v.629h-3.562A10.3,10.3,0,0,0,450.562,135.6Zm-2.84-.744a8.615,8.615,0,0,1-1.832-1.789h-3.5a10.756,10.756,0,0,1-1.86,1.789ZM447.5,136.2v-.73h-6.916v.73Zm0,1.308v-.722h-6.916v.722Zm-4.763-8.805-.773.323q-.308-.249-1.145-.808l.752-.351A7.359,7.359,0,0,1,442.737,128.7Zm3.182,5.536h-3.455v-.615h3.455Zm4.248,5.979-.379.6a26.758,26.758,0,0,0-6.259-1.787l.394-.63q1.429.266,3.267.772a12.488,12.488,0,0,0,1.717-1.258l.586.435a10.95,10.95,0,0,1-1.422,1.073Q449.466,139.915,450.168,140.215Zm-2.568-12.03a7.976,7.976,0,0,1-1.181.923l-.678-.421a6.984,6.984,0,0,0,1.1-.823Z" transform="translate(-297.216 -127.821)" fill="#1a1311"/>
        </g>
      </g>
      <g id="Group_5220" data-name="Group 5220" transform="translate(0 0)">
        <g id="Group_5218" data-name="Group 5218">
          <g id="Group_5217" data-name="Group 5217" transform="translate(125.021 0.671)">
            <path id="Path_19766" data-name="Path 19766" d="M438.66,41.217h5.3l10.566,27.472h-5.434l-2.15-5.659H435.736L433.5,68.689h-5.435Zm2.685,7.284-3.687,9.431h7.351Z" transform="translate(-385.371 -41.217)" fill="#0091b3"/>
            <path id="Path_19767" data-name="Path 19767" d="M497.285,41.217h5.229V63.7h7.62v4.987H497.285Z" transform="translate(-425.553 -41.217)" fill="#0091b3"/>
            <g id="Group_5215" data-name="Group 5215">
              <rect id="Rectangle_722" data-name="Rectangle 722" width="5.285" height="11.315" transform="translate(14.472 16.157)" fill="#0091b3"/>
              <rect id="Rectangle_723" data-name="Rectangle 723" width="5.285" height="11.096" transform="translate(14.472)" fill="#0091b3"/>
              <path id="Path_19768" data-name="Path 19768" d="M331.591,52.313v-11.1h-5.3V68.689h5.3V57.374h4.575V52.313Z" transform="translate(-326.287 -41.217)" fill="#0091b3"/>
              <path id="Path_19769" data-name="Path 19769" d="M385.975,91.048h15V85.913h-9.8v-6.18h-5.191Z" transform="translate(-360.936 -63.576)" fill="#0091b3"/>
              <path id="Path_19770" data-name="Path 19770" d="M400.971,46.334V41.217h-15v11.1h5.191V46.334Z" transform="translate(-360.936 -41.217)" fill="#0091b3"/>
            </g>
            <g id="Group_5216" data-name="Group 5216" transform="translate(34.796 11.096)">
              <path id="Path_19771" data-name="Path 19771" d="M410.688,67.669h-1.453v.777h1.453V69.1h-1.453V71.3h1.453v.65h-1.453v.778h2.23V70.524h-1.453v-.651h1.453v-2.2Z" transform="translate(-409.234 -67.669)" fill="#0091b3"/>
              <path id="Path_19772" data-name="Path 19772" d="M417.183,67.669h1.453v.777h-1.453V69.1h1.453V71.3h-1.453v.65h1.453v.778h-2.23V70.524h1.453v-.651h-1.453v-2.2Z" transform="translate(-413.398 -67.669)" fill="#0091b3"/>
            </g>
          </g>
          <path id="Path_19773" data-name="Path 19773" d="M45.039,41.589a12.488,12.488,0,0,0-4.458.868,10.545,10.545,0,0,0-3.608,2.485,11.729,11.729,0,0,0-2.426,3.925,14.416,14.416,0,0,0-.887,5.205,14.565,14.565,0,0,0,.867,5.187,11.349,11.349,0,0,0,2.388,3.876,10.174,10.174,0,0,0,3.6,2.425,13.738,13.738,0,0,0,5.346.753,16.753,16.753,0,0,0,10.007-4.152V64.4a17.741,17.741,0,0,1-11.84,3.968,22.313,22.313,0,0,1-4.9-.523,15.7,15.7,0,0,1-3.7-1.459,13.716,13.716,0,0,1-3.017-2.258,13.867,13.867,0,0,1-2.249-2.91,14.287,14.287,0,0,1-1.9-7.149,14.048,14.048,0,0,1,.5-3.757,14.339,14.339,0,0,1,1.44-3.431,14.1,14.1,0,0,1,2.3-2.949,14.317,14.317,0,0,1,3.067-2.3A15.749,15.749,0,0,1,39.3,40.15a21.834,21.834,0,0,1,4.907-.533c3.677,0,8.491,1.047,11.66,4.007v2.511A14.829,14.829,0,0,0,45.039,41.589Z" transform="translate(-28.256 -39.617)" fill="#0091b3"/>
          <path id="Path_19774" data-name="Path 19774" d="M100.678,41.122h9.5a15.909,15.909,0,0,1,4.349.533,9.159,9.159,0,0,1,3.106,1.488,6.3,6.3,0,0,1,1.874,2.269,6.534,6.534,0,0,1,.631,2.868,5.958,5.958,0,0,1-.483,2.4,6.537,6.537,0,0,1-1.371,2.011,8.683,8.683,0,0,1-2.13,1.558,11.4,11.4,0,0,1-2.741,1.016l10,13.331h-5.345l-9.545-12.918h-3.235V68.594h-4.614ZM105.292,54.3h2.663a9.487,9.487,0,0,0,2.869-.414,7.116,7.116,0,0,0,2.278-1.173,5.271,5.271,0,0,0,2.052-4.27,5.764,5.764,0,0,0-.435-2.258,5.234,5.234,0,0,0-1.2-1.775,5.481,5.481,0,0,0-1.834-1.154,6.382,6.382,0,0,0-2.327-.414h-4.063Z" transform="translate(-70.298 -40.491)" fill="#0091b3"/>
          <path id="Path_19775" data-name="Path 19775" d="M178.776,41.122V42.9H164.3V66.819h14.475v1.775H159.685V41.122Z" transform="translate(-104.552 -40.491)" fill="#0091b3"/>
          <path id="Path_19776" data-name="Path 19776" d="M231.378,41.124V42.9H216.9V66.82h14.475v1.775H212.289V41.124Z" transform="translate(-135.089 -40.492)" fill="#0091b3"/>
          <path id="Path_19777" data-name="Path 19777" d="M264.887,41.122H269.5V53.29l3.727-.612,17.415,15.915h-5.877L269.5,54.651V68.594h-4.615Z" transform="translate(-165.622 -40.491)" fill="#0091b3"/>
          <path id="Path_19778" data-name="Path 19778" d="M141.026,58.45l-1.231-1.707c17.275-7.659,26.367-5.008,41.184-2.867l.74.107c14.468,2.086,23.9-6.006,30.845-12.766h2.877c-8.306,9.048-18.625,16.973-34.01,14.755l-.741-.108C166.171,53.767,157.25,51.6,141.026,58.45Z" transform="translate(-93.005 -40.546)" fill="#0091b3"/>
        </g>
        <g id="Group_5219" data-name="Group 5219" transform="translate(209.046 0.16)">
          <path id="Path_19779" data-name="Path 19779" d="M529.126,40a2.509,2.509,0,0,1,1.792.761,2.607,2.607,0,0,1,.74,1.829,2.565,2.565,0,0,1-2.532,2.586,2.484,2.484,0,0,1-1.79-.76,2.593,2.593,0,0,1-.749-1.826A2.564,2.564,0,0,1,529.126,40Zm0,.374a2.22,2.22,0,0,0-1.533,3.774,2.153,2.153,0,0,0,1.533.648,2.193,2.193,0,0,0,2.164-2.206,2.24,2.24,0,0,0-.637-1.57A2.147,2.147,0,0,0,529.126,40.372Z" transform="translate(-526.588 -39.998)" fill="#0091b3" fill-rule="evenodd"/>
          <path id="Path_19780" data-name="Path 19780" d="M530.258,45.652V42.963h1.169a1.422,1.422,0,0,1,.537.073.587.587,0,0,1,.3.25.747.747,0,0,1,.106.416.657.657,0,0,1-.175.475.888.888,0,0,1-.564.25,1.191,1.191,0,0,1,.212.137,2.389,2.389,0,0,1,.29.356l.459.734h-.446l-.35-.561c-.1-.155-.182-.286-.247-.369a.693.693,0,0,0-.18-.183c-.055-.028-.108-.055-.158-.075-.041,0-.109-.012-.194-.012h-.4v1.2Zm.35-1.506h.751a1.154,1.154,0,0,0,.372-.046.359.359,0,0,0,.2-.164.416.416,0,0,0,.076-.236.4.4,0,0,0-.139-.317.593.593,0,0,0-.425-.125h-.84Z" transform="translate(-528.719 -41.719)" fill="#0091b3" fill-rule="evenodd"/>
        </g>
      </g>
    </g>
  </g>
</svg>
