<svg xmlns="http://www.w3.org/2000/svg" width="78.222" height="30" viewBox="0 0 78.222 30">
  <g id="Group_5212" data-name="Group 5212" transform="translate(-4.821 -855.159)">
    <g id="Group_5209" data-name="Group 5209" transform="translate(53.628 864.991)">
      <line id="Line_70" data-name="Line 70" x2="29.414" fill="none" stroke="#231815" stroke-miterlimit="3.864" stroke-width="0.727"/>
      <path id="Path_19712" data-name="Path 19712" d="M49.332,867.574v-1.507h-.273v-.25h.777a2.91,2.91,0,0,1,.5.032.866.866,0,0,1,.338.151.8.8,0,0,1,.259.322,1.048,1.048,0,0,1,.1.465,1.3,1.3,0,0,1-.094.517.744.744,0,0,1-.247.328.937.937,0,0,1-.363.153,2.886,2.886,0,0,1-.535.042h-.73v-.252Zm.3,0h.158a2.171,2.171,0,0,0,.421-.033.685.685,0,0,0,.263-.113.564.564,0,0,0,.173-.243.988.988,0,0,0,.066-.382.832.832,0,0,0-.11-.443.5.5,0,0,0-.279-.237,1.748,1.748,0,0,0-.521-.057h-.172v1.507Z" transform="translate(-48.183 -863.679)" fill="#231815" fill-rule="evenodd"/>
      <path id="Path_19713" data-name="Path 19713" d="M52.463,867.518v.245h-.48v-.171a.623.623,0,0,1-.445.193.487.487,0,0,1-.332-.124.427.427,0,0,1,.009-.641.533.533,0,0,1,.362-.129.687.687,0,0,1,.38.119v-.139a.518.518,0,0,0-.02-.164.2.2,0,0,0-.1-.1.364.364,0,0,0-.193-.046.319.319,0,0,0-.3.164l-.263-.069a.627.627,0,0,1,.6-.327.761.761,0,0,1,.272.044.392.392,0,0,1,.172.109.374.374,0,0,1,.075.145,1.085,1.085,0,0,1,.02.248v.647Zm-.507-.275a.585.585,0,0,0-.359-.139.282.282,0,0,0-.191.066.235.235,0,0,0-.01.337.246.246,0,0,0,.183.066.544.544,0,0,0,.377-.167v-.163Z" transform="translate(-47.936 -863.617)" fill="#231815" fill-rule="evenodd"/>
      <path id="Path_19714" data-name="Path 19714" d="M53.762,866.364v.529h-.246a.331.331,0,0,0-.124-.234.408.408,0,0,0-.544.051.5.5,0,0,0-.116.343.583.583,0,0,0,.11.35.37.37,0,0,0,.318.149.435.435,0,0,0,.419-.274l.227.107a.665.665,0,0,1-.657.418.647.647,0,0,1-.523-.227.792.792,0,0,1-.191-.523.7.7,0,0,1,.209-.521.657.657,0,0,1,.48-.207.583.583,0,0,1,.392.137v-.1Z" transform="translate(-47.767 -863.617)" fill="#231815" fill-rule="evenodd"/>
      <path id="Path_19715" data-name="Path 19715" d="M53.981,865.955a.163.163,0,0,1,.165-.165.164.164,0,0,1,.118.047.158.158,0,0,1,.048.118.16.16,0,0,1-.048.118.165.165,0,0,1-.118.048.165.165,0,0,1-.165-.166Zm.038,1.628v-.91H53.8v-.244h.493v1.153h.215v.245H53.8v-.245Z" transform="translate(-47.599 -863.682)" fill="#231815" fill-rule="evenodd"/>
      <path id="Path_19716" data-name="Path 19716" d="M56,867.518v.245h-.48v-.171a.623.623,0,0,1-.445.193.487.487,0,0,1-.332-.124.427.427,0,0,1,.009-.641.532.532,0,0,1,.361-.129.687.687,0,0,1,.381.119v-.139a.518.518,0,0,0-.02-.164.209.209,0,0,0-.1-.1.368.368,0,0,0-.194-.046.318.318,0,0,0-.3.164l-.263-.069a.627.627,0,0,1,.6-.327.761.761,0,0,1,.272.044.392.392,0,0,1,.172.109.374.374,0,0,1,.075.145,1.172,1.172,0,0,1,.019.248v.647Zm-.507-.275a.588.588,0,0,0-.361-.139.281.281,0,0,0-.19.066.232.232,0,0,0-.01.337.246.246,0,0,0,.183.066.544.544,0,0,0,.377-.167v-.163Z" transform="translate(-47.5 -863.617)" fill="#231815" fill-rule="evenodd"/>
      <path id="Path_19717" data-name="Path 19717" d="M56.474,866.363v.168a.851.851,0,0,1,.483-.191.368.368,0,0,1,.223.065.294.294,0,0,1,.118.158,1.021,1.021,0,0,1,.027.271v.682h.236v.245h-.51v-.914A.307.307,0,0,0,57,866.64a.157.157,0,0,0-.117-.049.71.71,0,0,0-.412.177v.748h.241v.245h-.761v-.245H56.2v-.91h-.246v-.244Z" transform="translate(-47.334 -863.615)" fill="#231815"/>
      <line id="Line_71" data-name="Line 71" x2="29.414" transform="translate(0 10.565)" fill="none" stroke="#231815" stroke-miterlimit="3.864" stroke-width="0.146"/>
      <path id="Path_19718" data-name="Path 19718" d="M49.719,871.5v-1.507H49.3v.513h-.248v-.764h1.628v.764h-.248v-.513h-.413V871.5h.262v.251h-.822V871.5Z" transform="translate(-48.183 -863.196)" fill="#231815"/>
      <path id="Path_19719" data-name="Path 19719" d="M52.11,871.06H50.934a.5.5,0,0,0,.153.313.455.455,0,0,0,.325.12.535.535,0,0,0,.456-.231l.243.107a.738.738,0,0,1-.309.273.929.929,0,0,1-.4.089.811.811,0,0,1-.549-.2.687.687,0,0,1-.227-.54.7.7,0,0,1,.221-.53.723.723,0,0,1,.51-.208.746.746,0,0,1,.51.2.787.787,0,0,1,.239.6Zm-.284-.2a.492.492,0,0,0-.153-.265.419.419,0,0,0-.3-.12.4.4,0,0,0-.282.108.452.452,0,0,0-.143.277Z" transform="translate(-47.989 -863.133)" fill="#231815" fill-rule="evenodd"/>
      <path id="Path_19720" data-name="Path 19720" d="M53.464,870.291v.528h-.246a.328.328,0,0,0-.125-.233.407.407,0,0,0-.542.051.5.5,0,0,0-.116.343.573.573,0,0,0,.11.349.367.367,0,0,0,.318.15.436.436,0,0,0,.419-.274l.227.107a.666.666,0,0,1-.658.418.648.648,0,0,1-.522-.227.792.792,0,0,1-.191-.523.7.7,0,0,1,.208-.521.661.661,0,0,1,.48-.207.586.586,0,0,1,.393.137v-.1Z" transform="translate(-47.804 -863.133)" fill="#231815" fill-rule="evenodd"/>
      <path id="Path_19721" data-name="Path 19721" d="M53.725,871.507v-1.521h-.253v-.245H54v.772a.765.765,0,0,1,.469-.2.421.421,0,0,1,.229.057.284.284,0,0,1,.12.154.852.852,0,0,1,.034.275v.706h.238v.245h-.512V870.9a1.413,1.413,0,0,0-.01-.212.138.138,0,0,0-.056-.088.17.17,0,0,0-.108-.035.747.747,0,0,0-.4.181v.765h.243v.245h-.769v-.245Z" transform="translate(-47.639 -863.196)" fill="#231815"/>
      <path id="Path_19722" data-name="Path 19722" d="M55.519,870.289v.168a.852.852,0,0,1,.482-.191.375.375,0,0,1,.225.065.294.294,0,0,1,.117.157,1.036,1.036,0,0,1,.027.272v.682h.236v.245H56.1v-.915a.3.3,0,0,0-.048-.207.156.156,0,0,0-.117-.048.7.7,0,0,0-.411.177v.748h.241v.245H55v-.245h.245v-.91H55v-.244Z" transform="translate(-47.451 -863.131)" fill="#231815"/>
      <path id="Path_19723" data-name="Path 19723" d="M56.538,870.99a.706.706,0,0,1,.215-.53.715.715,0,0,1,.521-.208.732.732,0,0,1,.519.2.766.766,0,0,1,0,1.068.76.76,0,0,1-1.043,0,.714.714,0,0,1-.211-.531Zm.291,0a.468.468,0,0,0,.128.339.428.428,0,0,0,.317.131.422.422,0,0,0,.317-.132.471.471,0,0,0,.128-.338.46.46,0,0,0-.13-.338.422.422,0,0,0-.314-.132.413.413,0,0,0-.319.136.471.471,0,0,0-.126.335Z" transform="translate(-47.262 -863.133)" fill="#231815" fill-rule="evenodd"/>
      <path id="Path_19724" data-name="Path 19724" d="M58.249,871.508v-1.521H58v-.244h.523v1.765h.214v.244H58v-.244Z" transform="translate(-47.082 -863.196)" fill="#231815"/>
      <path id="Path_19725" data-name="Path 19725" d="M58.818,870.99a.7.7,0,0,1,.213-.53.717.717,0,0,1,.521-.208.73.73,0,0,1,.519.2.766.766,0,0,1,0,1.068.76.76,0,0,1-1.043,0,.713.713,0,0,1-.21-.531Zm.29,0a.465.465,0,0,0,.129.339.428.428,0,0,0,.316.131.42.42,0,0,0,.317-.132A.471.471,0,0,0,60,870.99a.464.464,0,0,0-.129-.338.426.426,0,0,0-.316-.132.414.414,0,0,0-.319.136.471.471,0,0,0-.126.335Z" transform="translate(-46.981 -863.133)" fill="#231815" fill-rule="evenodd"/>
      <path id="Path_19726" data-name="Path 19726" d="M62.032,870.289v.244H61.78v1.041a1.624,1.624,0,0,1-.021.312.5.5,0,0,1-.106.208.609.609,0,0,1-.248.18.923.923,0,0,1-.372.072.88.88,0,0,1-.551-.186l.179-.2a.635.635,0,0,0,.4.141.528.528,0,0,0,.219-.046.383.383,0,0,0,.15-.11.352.352,0,0,0,.065-.125.877.877,0,0,0,.015-.2V871.5a.645.645,0,0,1-.2.156.672.672,0,0,1-.794-.135.732.732,0,0,1-.189-.511.718.718,0,0,1,.208-.536.668.668,0,0,1,.978.016v-.2Zm-1.42.713a.5.5,0,0,0,.122.347.415.415,0,0,0,.317.134.448.448,0,0,0,.323-.134A.471.471,0,0,0,61.51,871a.455.455,0,0,0-.136-.346.443.443,0,0,0-.629,0,.462.462,0,0,0-.134.348Z" transform="translate(-46.796 -863.131)" fill="#231815" fill-rule="evenodd"/>
      <path id="Path_19727" data-name="Path 19727" d="M62.588,871.66l-.46-1.13H61.9v-.244h.692v.244H62.42l.3.774.3-.774h-.185v-.244h.677v.244H63.3l-.692,1.781h-.464v-.24h.273l.168-.412Z" transform="translate(-46.602 -863.129)" fill="#231815" fill-rule="evenodd"/>
      <path id="Path_19728" data-name="Path 19728" d="M64.321,871.5v-1.507H64.08v-.252h.688l.529,1.377.534-1.377h.7v.252h-.243V871.5h.243v.251h-.757V871.5h.24v-1.507l-.693,1.778h-.059l-.686-1.778V871.5h.221v.251H64.08V871.5Z" transform="translate(-46.334 -863.196)" fill="#231815"/>
      <path id="Path_19729" data-name="Path 19729" d="M67.838,871.445v.245h-.48v-.171a.623.623,0,0,1-.445.193.492.492,0,0,1-.332-.124.406.406,0,0,1-.139-.318.413.413,0,0,1,.148-.324.537.537,0,0,1,.362-.128.694.694,0,0,1,.38.118V870.8a.529.529,0,0,0-.02-.165.206.206,0,0,0-.1-.1.354.354,0,0,0-.193-.046.317.317,0,0,0-.3.164l-.263-.07a.629.629,0,0,1,.6-.326.789.789,0,0,1,.272.043.4.4,0,0,1,.172.11.353.353,0,0,1,.075.145,1.086,1.086,0,0,1,.02.248v.647Zm-.507-.275a.579.579,0,0,0-.359-.139.282.282,0,0,0-.191.066.217.217,0,0,0-.076.172.22.22,0,0,0,.066.165.252.252,0,0,0,.183.066.547.547,0,0,0,.377-.167v-.163Z" transform="translate(-46.043 -863.133)" fill="#231815" fill-rule="evenodd"/>
      <path id="Path_19730" data-name="Path 19730" d="M67.8,870.582v-.244h.182v-.216l.274-.252v.467h.258v.244h-.258v.678a.707.707,0,0,0,.017.2c.013.025.044.037.092.037a.406.406,0,0,0,.149-.029v.25a.626.626,0,0,1-.21.037.346.346,0,0,1-.2-.055.24.24,0,0,1-.1-.139,1.418,1.418,0,0,1-.02-.29v-.693Z" transform="translate(-45.876 -863.18)" fill="#231815" fill-rule="evenodd"/>
      <path id="Path_19731" data-name="Path 19731" d="M70.088,871.06H68.912a.508.508,0,0,0,.153.313.457.457,0,0,0,.326.12.533.533,0,0,0,.455-.231l.243.107a.735.735,0,0,1-.308.273.932.932,0,0,1-.4.089.807.807,0,0,1-.549-.2.683.683,0,0,1-.227-.54.7.7,0,0,1,.221-.53.721.721,0,0,1,.51-.208.748.748,0,0,1,.51.2.787.787,0,0,1,.238.6Zm-.283-.2a.5.5,0,0,0-.153-.265.421.421,0,0,0-.305-.12.4.4,0,0,0-.282.108.463.463,0,0,0-.143.277Z" transform="translate(-45.776 -863.133)" fill="#231815" fill-rule="evenodd"/>
      <path id="Path_19732" data-name="Path 19732" d="M70.364,871.443v-.91h-.282v-.244h.5v.314a.545.545,0,0,1,.129-.2.413.413,0,0,1,.173-.108.99.99,0,0,1,.252-.026h.072v.277h-.055a.909.909,0,0,0-.313.042.284.284,0,0,0-.153.154,1.061,1.061,0,0,0-.049.4v.308h.3v.245h-.86v-.245Z" transform="translate(-45.595 -863.131)" fill="#231815"/>
      <path id="Path_19733" data-name="Path 19733" d="M71.387,869.881a.163.163,0,0,1,.046-.116.16.16,0,0,1,.12-.048.164.164,0,0,1,.117.047.157.157,0,0,1,.049.117.165.165,0,0,1-.166.166.159.159,0,0,1-.119-.049.161.161,0,0,1-.047-.117Zm.039,1.63v-.91h-.219v-.244H71.7v1.153h.216v.245h-.709v-.245Z" transform="translate(-45.456 -863.199)" fill="#231815" fill-rule="evenodd"/>
      <path id="Path_19734" data-name="Path 19734" d="M73.409,871.445v.245h-.48v-.171a.623.623,0,0,1-.445.193.492.492,0,0,1-.332-.124.407.407,0,0,1-.14-.318.414.414,0,0,1,.149-.324.537.537,0,0,1,.362-.128.694.694,0,0,1,.38.118V870.8a.529.529,0,0,0-.02-.165.207.207,0,0,0-.1-.1.354.354,0,0,0-.193-.046.317.317,0,0,0-.3.164l-.263-.07a.629.629,0,0,1,.6-.326.789.789,0,0,1,.272.043.4.4,0,0,1,.172.11.353.353,0,0,1,.075.145,1.087,1.087,0,0,1,.02.248v.647Zm-.507-.275a.579.579,0,0,0-.359-.139.282.282,0,0,0-.191.066.217.217,0,0,0-.076.172.22.22,0,0,0,.066.165.251.251,0,0,0,.183.066.549.549,0,0,0,.377-.167v-.163Z" transform="translate(-45.357 -863.133)" fill="#231815" fill-rule="evenodd"/>
      <path id="Path_19735" data-name="Path 19735" d="M73.591,871.508v-1.521h-.249v-.244h.523v1.765h.214v.244h-.737v-.244Z" transform="translate(-45.193 -863.196)" fill="#231815"/>
      <path id="Path_19736" data-name="Path 19736" d="M50.856,875.92l.262.146a.883.883,0,0,1-.357.52,1.062,1.062,0,0,1-.615.184.953.953,0,0,1-.732-.3,1.146,1.146,0,0,1,0-1.494.968.968,0,0,1,.723-.283,1.027,1.027,0,0,1,.664.216v-.184h.259v.646H50.8a.652.652,0,0,0-.267-.3.729.729,0,0,0-.38-.108.634.634,0,0,0-.494.216.8.8,0,0,0-.192.548.768.768,0,0,0,.207.555.655.655,0,0,0,.49.216.677.677,0,0,0,.423-.149.806.806,0,0,0,.268-.428Z" transform="translate(-48.173 -862.586)" fill="#231815" fill-rule="evenodd"/>
      <path id="Path_19737" data-name="Path 19737" d="M51.127,875.973a.7.7,0,0,1,.213-.53.759.759,0,0,1,1.04,0,.766.766,0,0,1,0,1.068.734.734,0,0,1-1.253-.535Zm.29,0a.47.47,0,0,0,.129.339.428.428,0,0,0,.317.131.418.418,0,0,0,.316-.132.505.505,0,0,0,0-.676.443.443,0,0,0-.635,0,.479.479,0,0,0-.126.336Z" transform="translate(-47.928 -862.52)" fill="#231815" fill-rule="evenodd"/>
      <path id="Path_19738" data-name="Path 19738" d="M52.763,876.553V876.2h.355v.355Z" transform="translate(-47.727 -862.401)" fill="#231815"/>
      <path id="Path_19739" data-name="Path 19739" d="M53.532,876.553V876.2h.356v.309a.976.976,0,0,1-.025.245.257.257,0,0,1-.106.142.416.416,0,0,1-.226.06v-.15a.191.191,0,0,0,.174-.216l0-.035Z" transform="translate(-47.632 -862.401)" fill="#231815"/>
      <path id="Path_19740" data-name="Path 19740" d="M55.031,876.483v-1.507h-.26v-.251h.822v.251h-.247v1.507h.615V875.8h.283v.935H54.771v-.251Z" transform="translate(-47.479 -862.583)" fill="#231815"/>
      <path id="Path_19741" data-name="Path 19741" d="M56.186,875.565v-.245h.182v-.215l.275-.252v.466H56.9v.245h-.258v.678a.692.692,0,0,0,.017.2c.012.026.043.038.091.038a.414.414,0,0,0,.151-.029v.249a.61.61,0,0,1-.211.038.34.34,0,0,1-.2-.055.236.236,0,0,1-.1-.14,1.4,1.4,0,0,1-.02-.289v-.693Z" transform="translate(-47.305 -862.567)" fill="#231815" fill-rule="evenodd"/>
      <path id="Path_19742" data-name="Path 19742" d="M58.729,876.49v.244H58.2v-.2a.649.649,0,0,1-.5.228.693.693,0,0,1-.48-.186.677.677,0,0,1-.207-.53.711.711,0,0,1,.212-.545.685.685,0,0,1,.48-.2.655.655,0,0,1,.494.225v-.553h-.268v-.245h.544v1.766Zm-1.418-.456a.469.469,0,0,0,.13.355.448.448,0,0,0,.626-.006.481.481,0,0,0,.137-.363.437.437,0,0,0-.14-.352.469.469,0,0,0-.312-.118.409.409,0,0,0-.313.14.49.49,0,0,0-.127.343Z" transform="translate(-47.203 -862.583)" fill="#231815" fill-rule="evenodd"/>
      <path id="Path_19743" data-name="Path 19743" d="M58.774,876.553V876.2h.355v.355Z" transform="translate(-46.987 -862.401)" fill="#231815"/>
    </g>
    <g id="Group_5210" data-name="Group 5210" transform="translate(53.909 880.632)">
      <path id="Path_19744" data-name="Path 19744" d="M51.412,879.557a3.535,3.535,0,0,0,.518,1.231,3.673,3.673,0,0,0,1.126,1.112l-.37.442a4.435,4.435,0,0,1-1.781-2.785h-.074a4.189,4.189,0,0,1-1.938,2.8l-.364-.457a3.9,3.9,0,0,0,1.171-1.024,2.943,2.943,0,0,0,.6-1.308H48.641v-.512h1.743a8.8,8.8,0,0,0,.064-1.205h.5q0,.826-.04,1.205h2.038v.512l-1.536-.006Z" transform="translate(-48.529 -877.839)" fill="#231815"/>
      <path id="Path_19745" data-name="Path 19745" d="M54.289,881.8a2.886,2.886,0,0,0,.9-.906h-.665v-.335H55.2v-.389h-.792v-.345H55.2v-.364h-.645v-.335H55.2v-.359h-.718v-.359h.669a3.989,3.989,0,0,0-.256-.486l.432-.074a3.467,3.467,0,0,1,.266.56h.5a2.481,2.481,0,0,0,.246-.57l.448.069a2.806,2.806,0,0,1-.227.5h.847v.359H56.375v.359h.788v.7h.28v.345h-.28v.723h-.788a4.708,4.708,0,0,0,1.068.882l-.207.4a4.144,4.144,0,0,1-.861-.905v1.092H56V880.9h-.409v1.471H55.2v-1a3.094,3.094,0,0,1-.678.8l-.236-.368Zm-1.231-1.94h1.221v.38H53.058v-.38Zm0-.723H54.3v.384h-1.24v-.384Zm1.215,3.18h-.4v-.231h-.409v.28h-.394v-1.732h1.2v1.684Zm-1.362-3.51v-.4h.565a2.769,2.769,0,0,0-.2-.511l.418-.06a2.357,2.357,0,0,1,.217.57H54.4v.4ZM56,878.77h-.4v.359H56v-.359Zm0,1.791v-.389h-.409v.389Zm-2.12.438h-.409v.723h.409V881ZM56,879.828v-.364h-.409v.364Zm.787,0v-.364h-.409v.364Zm0,.733v-.389h-.409v.389Z" transform="translate(-47.99 -877.84)" fill="#231815" fill-rule="evenodd"/>
      <path id="Path_19746" data-name="Path 19746" d="M59.329,881.29v-.448l1.609-.236V877.84h.448v2.712l.434-.074v.438l-.434.074v1.377h-.448v-1.323l-1.609.246Zm1.132-2.141a9.152,9.152,0,0,0-.866-.63l.285-.32a8.634,8.634,0,0,1,.882.586l-.3.364Zm-.088,1.166a7.163,7.163,0,0,0-.877-.639l.286-.32a6.617,6.617,0,0,1,.891.591l-.3.368Zm-2.156-1.777c-.171.03-.42.056-.748.08l-.1-.4a6.165,6.165,0,0,0,1.85-.345l.163.394a5.8,5.8,0,0,1-.729.2v.679h.733v.413h-.733v.039c.362.335.631.6.812.8l-.266.413c-.1-.134-.194-.257-.29-.368s-.167-.206-.256-.32v2.229l-.438.019v-1.973a4.973,4.973,0,0,1-.655,1.074l-.271-.434a4.823,4.823,0,0,0,.911-1.481h-.881v-.413h.9v-.6Z" transform="translate(-47.45 -877.84)" fill="#231815" fill-rule="evenodd"/>
      <path id="Path_19747" data-name="Path 19747" d="M63.474,879.263h-.566v.851a4.316,4.316,0,0,0,.56-.212v.473a4.514,4.514,0,0,1-.56.221v1.176a.722.722,0,0,1-.1.453.621.621,0,0,1-.453.113h-.378l-.113-.487.419.015a.139.139,0,0,0,.157-.157v-.979l-.645.163-.113-.517a5.462,5.462,0,0,0,.758-.148v-.964h-.709v-.438h.709v-.985h.472v.985h.566v-.305h1.034v-.679h.476v.679h1.132v.438H64.989v.639h.97v.4a2.694,2.694,0,0,1-.316.674,2.738,2.738,0,0,1-.527.659,2.956,2.956,0,0,0,1.088.562l-.246.453a3.287,3.287,0,0,1-1.192-.713,3.655,3.655,0,0,1-1.451.723l-.266-.438a4.07,4.07,0,0,0,1.388-.62,4.5,4.5,0,0,1-.729-1.024l.4-.157a4.355,4.355,0,0,0,.665.915,2.112,2.112,0,0,0,.7-.994H63.563V879.6h.95v-.639H63.479l0,.305Z" transform="translate(-46.91 -877.84)" fill="#231815" fill-rule="evenodd"/>
      <path id="Path_19748" data-name="Path 19748" d="M67.414,879.385a4.905,4.905,0,0,1,.808.871l-.271.418a6.186,6.186,0,0,0-.537-.792v2.484h-.457v-2.352a4.609,4.609,0,0,1-.7,1.186l-.2-.522a4.353,4.353,0,0,0,.866-1.54h-.763v-.4h.8v-.9h.457v.9h.764v.4h-.764v.246Zm2.225.364a5.917,5.917,0,0,1-1.531,1.915l-.25-.434a6.438,6.438,0,0,0,1.633-2.047h-1.1v-.423h1.25v-.92H70.1v.92h.486v.423H70.1v2.56a.649.649,0,0,1-.113.448.64.64,0,0,1-.444.112h-.605l-.108-.457.655.019a.137.137,0,0,0,.157-.152v-1.964Z" transform="translate(-46.372 -877.84)" fill="#231815" fill-rule="evenodd"/>
      <path id="Path_19749" data-name="Path 19749" d="M70.773,879.272a6.116,6.116,0,0,0-.227-1l.38-.1a7.33,7.33,0,0,1,.265.99l-.418.112Zm1.835-1.033a7.143,7.143,0,0,1-.236,1.048l-.4-.112a6.736,6.736,0,0,0,.261-1.024l.374.089Zm-.792,1.772a8.571,8.571,0,0,1,.763.732l-.241.355a4.95,4.95,0,0,0-.521-.635v1.9h-.434v-1.8a5.14,5.14,0,0,1-.733,1.087l-.216-.472a4.6,4.6,0,0,0,.91-1.275h-.851V879.5h.891V877.84h.434V879.5h.763v.409h-.763v.1Zm.738,1.412v-.438l1.531-.231V877.84h.438v2.855l.443-.07v.438l-.443.069v1.234h-.438v-1.176l-1.531.231Zm1.053-2.141a3.789,3.789,0,0,0-.773-.566l.281-.325a4.312,4.312,0,0,1,.792.527l-.3.364Zm-.089,1.167a4.434,4.434,0,0,0-.768-.576l.275-.32a5.36,5.36,0,0,1,.793.531l-.3.365Z" transform="translate(-45.833 -877.84)" fill="#231815" fill-rule="evenodd"/>
    </g>
    <g id="Group_5211" data-name="Group 5211" transform="translate(4.821 855.159)">
      <path id="Path_19750" data-name="Path 19750" d="M27.791,855.159a.852.852,0,0,0-.965.965v18.418a.193.193,0,0,1-.386,0V856.124a.965.965,0,0,0-1.931,0v19a.386.386,0,0,0,.773,0v-19a.193.193,0,0,1,.385,0v18.418a.965.965,0,0,0,1.931,0V856.124a.193.193,0,0,1,.386,0v28.071a.193.193,0,1,1-.386,0v-1.932a.965.965,0,0,0-1.931,0v1.932a.193.193,0,1,1-.385,0v-2.51a.386.386,0,1,0-.773,0v2.51a.965.965,0,0,0,1.931,0v-1.932a.193.193,0,0,1,.386,0v1.932a.965.965,0,0,0,1.929,0V856.124A.852.852,0,0,0,27.791,855.159Z" transform="translate(-2.398 -855.159)" fill="#231815"/>
      <path id="Path_19751" data-name="Path 19751" d="M39.769,863.754a6.2,6.2,0,0,0-6.179,6.178v7.992a6.171,6.171,0,0,0,10.541,4.362,5.947,5.947,0,0,0,1.815-4.362.965.965,0,1,0-1.931,0,4.247,4.247,0,1,1-8.494,0v-7.992a4.247,4.247,0,1,1,8.494,0,.193.193,0,0,1-.385,0,3.959,3.959,0,0,0-3.861-3.861,3.752,3.752,0,0,0-2.743,1.158,3.681,3.681,0,0,0-1.12,2.7v7.992a3.824,3.824,0,0,0,3.862,3.861,3.684,3.684,0,0,0,2.7-1.12,3.747,3.747,0,0,0,1.159-2.742.966.966,0,0,0-1.932,0,1.9,1.9,0,0,1-.578,1.389,1.833,1.833,0,0,1-1.351.541,1.854,1.854,0,0,1-1.932-1.931v-7.992a1.835,1.835,0,0,1,.541-1.352,1.9,1.9,0,0,1,1.39-.579,1.979,1.979,0,0,1,1.929,1.932v.578a.386.386,0,0,0,.773,0v-.578a2.773,2.773,0,0,0-2.7-2.7,2.632,2.632,0,0,0-1.932.812,2.57,2.57,0,0,0-.772,1.891v7.992a2.637,2.637,0,0,0,2.7,2.7,2.575,2.575,0,0,0,1.891-.772,2.64,2.64,0,0,0,.811-1.931.193.193,0,1,1,.385,0,3,3,0,0,1-.927,2.2,2.942,2.942,0,0,1-2.161.889,3.035,3.035,0,0,1-3.09-3.09v-7.992a2.947,2.947,0,0,1,.887-2.163,3.011,3.011,0,0,1,2.2-.927,3.167,3.167,0,0,1,3.087,3.09.965.965,0,0,0,1.931,0,5.019,5.019,0,1,0-10.038,0v7.992a5.019,5.019,0,1,0,10.038,0,.193.193,0,1,1,.386,0,5.405,5.405,0,1,1-10.811,0v-7.992a5.405,5.405,0,1,1,10.811,0v.578a.386.386,0,0,0,.773,0v-.578a6.2,6.2,0,0,0-6.177-6.178Z" transform="translate(-1.28 -854.101)" fill="#231815"/>
      <path id="Path_19752" data-name="Path 19752" d="M18.4,875.505v-7.649a2.5,2.5,0,0,1,2.51-2.51h.965a.965.965,0,1,0,0-1.931h-.965a4.314,4.314,0,0,0-3.166,1.313,4.253,4.253,0,0,0-1.275,3.128v11.5a4.252,4.252,0,0,0,1.275,3.127,4.309,4.309,0,0,0,3.166,1.313h1.543a.386.386,0,1,0,0-.772H20.906a3.693,3.693,0,0,1-3.669-3.668v-11.5a3.693,3.693,0,0,1,3.669-3.669h.965c.129,0,.193.065,0,.388h-.965a3.3,3.3,0,0,0-3.283,3.282v7.649h0v2.611h0v1.239a3.3,3.3,0,0,0,3.283,3.282h.965a.965.965,0,1,0,0-1.93h-.965a1.335,1.335,0,0,1-.966-.426,1.269,1.269,0,0,1-.385-.927v-11.5a1.27,1.27,0,0,1,.385-.928,1.338,1.338,0,0,1,.966-.425h.965c.129,0,.193.065,0,.386h-.965a.854.854,0,0,0-.966.966v7.649h0v2.611h0v1.239a.853.853,0,0,0,.966.965h1.543a.386.386,0,1,0,0-.772c-1.321-.007-1.593.12-1.736-.193v-11.5l.193-.194h.965a.965.965,0,1,0,0-1.929h-.965a2.109,2.109,0,0,0-2.124,2.124v7.649h0v2.611h0v1.239a2.109,2.109,0,0,0,2.124,2.124h.965c.129,0,.193.064,0,.386h-.965a2.506,2.506,0,0,1-2.51-2.51v-3.85Z" transform="translate(-3.388 -854.143)" fill="#231815"/>
      <path id="Path_19753" data-name="Path 19753" d="M9.414,876.943a2.509,2.509,0,0,0-1.891-.811,2.638,2.638,0,0,0-1.931.811,2.671,2.671,0,0,0-.27,3.437.365.365,0,0,0,.309.155.341.341,0,0,0,.385-.386,1.7,1.7,0,0,0-.231-.464,2.047,2.047,0,0,1-.193-.85,1.835,1.835,0,0,1,.54-1.35,1.9,1.9,0,0,1,1.39-.58,1.775,1.775,0,0,1,1.352.58,1.768,1.768,0,0,1,.578,1.35,1.892,1.892,0,0,1-.578,1.39,1.838,1.838,0,0,1-1.352.541.193.193,0,0,1,0-.386,1.465,1.465,0,0,0,1.08-.424,1.524,1.524,0,0,0,.464-1.121,1.4,1.4,0,0,0-.464-1.08,1.4,1.4,0,0,0-1.08-.463,1.526,1.526,0,0,0-1.119.463,1.462,1.462,0,0,0-.426,1.08q0,.967.578.966c.258,0,.386-.116.386-.347a.47.47,0,0,0-.116-.269.979.979,0,0,1-.077-.349.682.682,0,0,1,.773-.772.772.772,0,1,1,0,1.544.965.965,0,1,0,0,1.931,2.569,2.569,0,0,0,1.891-.772,2.637,2.637,0,0,0,.811-1.932A2.51,2.51,0,0,0,9.414,876.943Z" transform="translate(-4.821 -852.577)" fill="#231815"/>
      <path id="Path_19754" data-name="Path 19754" d="M9.414,866.63a2.5,2.5,0,0,0-1.891-.811,2.634,2.634,0,0,0-1.931.811,2.669,2.669,0,0,0-.27,3.435.365.365,0,0,0,.309.155.341.341,0,0,0,.385-.386,1.7,1.7,0,0,0-.231-.463,2.055,2.055,0,0,1-.193-.85,1.842,1.842,0,0,1,.54-1.352,1.9,1.9,0,0,1,1.39-.578,1.782,1.782,0,0,1,1.352.578,1.775,1.775,0,0,1,.578,1.352,1.9,1.9,0,0,1-.578,1.39,1.837,1.837,0,0,1-1.352.54.193.193,0,0,1,0-.386,1.461,1.461,0,0,0,1.08-.424,1.521,1.521,0,0,0,.464-1.12,1.4,1.4,0,0,0-.464-1.08,1.4,1.4,0,0,0-1.08-.464,1.519,1.519,0,0,0-1.119.464,1.459,1.459,0,0,0-.426,1.08q0,.965.578.966c.258,0,.386-.116.386-.348a.476.476,0,0,0-.116-.271.961.961,0,0,1-.077-.347.682.682,0,0,1,.773-.772.772.772,0,1,1,0,1.544.965.965,0,1,0,0,1.931,2.566,2.566,0,0,0,1.891-.773,2.632,2.632,0,0,0,.811-1.931A2.508,2.508,0,0,0,9.414,866.63Z" transform="translate(-4.821 -853.847)" fill="#231815"/>
      <path id="Path_19755" data-name="Path 19755" d="M45.739,861.134v-.008a.45.45,0,0,0,.323-.437.425.425,0,0,0-.135-.326.7.7,0,0,0-.5-.14,2.348,2.348,0,0,0-.425.035v1.692h.221v-.743h.208c.2.008.293.1.345.335a2.292,2.292,0,0,0,.113.409h.229a2.71,2.71,0,0,1-.131-.471A.429.429,0,0,0,45.739,861.134Zm-.284-.094h-.227v-.625a.916.916,0,0,1,.219-.02c.234,0,.394.1.394.32C45.841,860.91,45.691,861.039,45.455,861.039Z" transform="translate(0.126 -854.536)" fill="#231815"/>
      <path id="Path_19756" data-name="Path 19756" d="M45.614,859.7a1.411,1.411,0,1,0,1.411,1.411A1.413,1.413,0,0,0,45.614,859.7Zm0,2.609a1.2,1.2,0,1,1,1.2-1.2A1.2,1.2,0,0,1,45.614,862.311Z" transform="translate(0.027 -854.6)" fill="#231815"/>
    </g>
  </g>
</svg>
