<svg xmlns="http://www.w3.org/2000/svg" width="44.377" height="30" viewBox="0 0 44.377 30">
  <g id="Group_5115" data-name="Group 5115" transform="translate(-897.47 -436.991)">
    <g id="Group_5113" data-name="Group 5113" transform="translate(897.47 460.826)">
      <path id="Path_19452" data-name="Path 19452" d="M898.614,458.01h1.946v.907h-3.09v-4.971h3.061v.907h-1.917v1.128h1.711v.9h-1.711Z" transform="translate(-897.47 -453.866)" fill="#e12a01"/>
      <path id="Path_19453" data-name="Path 19453" d="M905.331,459.559l-1.291.5-1.468-1.062a2.281,2.281,0,0,1-1.739-.708,2.933,2.933,0,0,1,.01-3.691,2.559,2.559,0,0,1,3.522,0,2.6,2.6,0,0,1,.656,1.851,2.852,2.852,0,0,1-.317,1.371,2.152,2.152,0,0,1-.891.9Zm-3.607-4.229a2.062,2.062,0,0,0,0,2.22,1.145,1.145,0,0,0,1.755,0,2.062,2.062,0,0,0,0-2.22,1.145,1.145,0,0,0-1.755,0Z" transform="translate(-896.356 -453.889)" fill="#e12a01"/>
      <path id="Path_19454" data-name="Path 19454" d="M907.068,457v-3.054H908.2v3.047a1.938,1.938,0,0,1-.546,1.485,2.377,2.377,0,0,1-2.942,0,1.861,1.861,0,0,1-.553-1.439v-3.1H905.3v3.09q0,.922.884.921T907.068,457Z" transform="translate(-894.723 -453.866)" fill="#e12a01"/>
      <path id="Path_19455" data-name="Path 19455" d="M907.733,458.917v-4.971h1.135v4.971Z" transform="translate(-893.257 -453.866)" fill="#e12a01"/>
      <path id="Path_19456" data-name="Path 19456" d="M910.405,457.921h1.837v1H909.27v-4.971h1.135Z" transform="translate(-892.626 -453.866)" fill="#e12a01"/>
      <path id="Path_19457" data-name="Path 19457" d="M911.873,458.917v-4.971h1.135v4.971Z" transform="translate(-891.558 -453.866)" fill="#e12a01"/>
      <path id="Path_19458" data-name="Path 19458" d="M913.41,453.946h1.932a1.8,1.8,0,0,1,1.245.388,1.272,1.272,0,0,1,.429.984,1.159,1.159,0,0,1-.207.685,1,1,0,0,1-.537.4,1.109,1.109,0,0,1,.862,1.165,1.247,1.247,0,0,1-.423.97,1.674,1.674,0,0,1-1.155.379H913.41Zm1.135.907v1.114h.42a1.133,1.133,0,0,0,.667-.162.5.5,0,0,0,.226-.427c0-.35-.237-.525-.708-.525Zm0,3.157h.6q.84,0,.841-.576t-.834-.576h-.605Z" transform="translate(-890.927 -453.866)" fill="#e12a01"/>
      <path id="Path_19459" data-name="Path 19459" d="M919.132,458.917l-1.076-1.725h-.347v1.725h-1.135v-4.971h1.718a1.96,1.96,0,0,1,1.339.443,1.608,1.608,0,0,1-.4,2.618l1.261,1.91Zm-1.423-4.048v1.4h.539a.645.645,0,0,0,.738-.722.653.653,0,0,0-.192-.5.738.738,0,0,0-.525-.181Z" transform="translate(-889.628 -453.866)" fill="#e12a01"/>
      <path id="Path_19460" data-name="Path 19460" d="M919.835,458.917v-4.971h1.135v4.971Z" transform="translate(-888.289 -453.866)" fill="#e12a01"/>
      <path id="Path_19461" data-name="Path 19461" d="M924.252,457v-3.054h1.135v3.047a1.938,1.938,0,0,1-.546,1.485,2.377,2.377,0,0,1-2.942,0,1.861,1.861,0,0,1-.553-1.439v-3.1h1.135v3.09q0,.922.884.921T924.252,457Z" transform="translate(-887.669 -453.866)" fill="#e12a01"/>
      <path id="Path_19462" data-name="Path 19462" d="M924.786,458.917l.427-4.971h1.247l.693,1.8c.118.3.219.576.3.827s.137.427.162.53l.037.148a12.755,12.755,0,0,1,.516-1.505l.7-1.8h1.247l.516,4.971H929.5l-.185-1.924-.1-1.453q-.193.552-.53,1.453l-.7,1.873h-.671l-.693-1.873q-.169-.457-.288-.82c-.079-.24-.13-.408-.155-.5l-.037-.133q0,.523-.066,1.453l-.155,1.924Z" transform="translate(-886.257 -453.866)" fill="#e12a01"/>
    </g>
    <g id="Group_5114" data-name="Group 5114" transform="translate(897.702 436.991)">
      <path id="Path_19463" data-name="Path 19463" d="M923.23,458.524c.513-.044.441-.291.441-.291.031-.42-.715-.777-.715-.777a.931.931,0,0,1-.715-1.116l1.1-2.193a.4.4,0,0,1,.622.083l.688,1.4a1.316,1.316,0,0,1,.1,1.021c-.1.367.165.395.165.395a11.053,11.053,0,0,0,5.91.117.608.608,0,0,0-.429-.8,2.091,2.091,0,0,1-.976-.409,1.144,1.144,0,0,1-.279-.3,21.787,21.787,0,0,1-2.143-6.062c-.2-1,.979-1.112.979-1.112a7.775,7.775,0,0,0,3.8-1.477,5.836,5.836,0,0,1,1.817-.882,20.536,20.536,0,0,1,3.829-.757,16.005,16.005,0,0,0,2.275-.36,1.865,1.865,0,0,0,1.671-1.718c-.21-.484-2.168-1.135-2.168-1.135a2.338,2.338,0,0,1-.8-.57,3.134,3.134,0,0,0-.632-.5,10.547,10.547,0,0,0-4.109-1.254,39.276,39.276,0,0,1-7.017-1.391,32.332,32.332,0,0,0-8.787-1.013c-1.76.011-6.845-.4-6.845-.4a12.235,12.235,0,0,0-8.287,2.471c-4.8,4.232-2.846,10.823-2.846,10.823a3.29,3.29,0,0,1-.1,2.176,3.685,3.685,0,0,1-1.875,1.619.565.565,0,0,0-.268.639,7.153,7.153,0,0,0,2.131,3.188,4.047,4.047,0,0,0,3.629-.034c.079-.32-.379-.482-.379-.482a1.44,1.44,0,0,1-.475-.241c-.619-.367-.159-.8-.159-.8.25-.289,3.626-2.686,3.626-2.686a.409.409,0,0,1,.612.2l.963,2.409a1.724,1.724,0,0,1,.082.9c.009.343.518.36.518.36a24.091,24.091,0,0,0,5.251-.172c.63-.1.468-.282.468-.282a1.161,1.161,0,0,0-1-.773c-1.33-.114-1.951-3.629-1.951-3.629-.1-.59.337-.6.337-.6a21.24,21.24,0,0,0,6.607-1.048c.59.148.361.557.361.557a13,13,0,0,0-.626,1.429s-.121.4-.247.869a4.384,4.384,0,0,0,.423,3.288,2.525,2.525,0,0,0,1.2,1.013S920.738,458.449,923.23,458.524Z" transform="translate(-897.635 -436.991)" fill="#e12a01"/>
      <path id="Path_19464" data-name="Path 19464" d="M928.356,441.062a2.033,2.033,0,0,0-.632,2.192,1.769,1.769,0,0,0,1.41-1.533.345.345,0,0,0-.072-.271A1.268,1.268,0,0,0,928.356,441.062Z" transform="translate(-885.337 -435.32)" fill="#004e9e"/>
      <path id="Path_19465" data-name="Path 19465" d="M926.2,440.7a.645.645,0,0,0-.494-.309.274.274,0,0,0-.134.025c-.119.051-.351.179-.364.378,0,0,.008.258.448.31C925.654,441.107,926.144,441.1,926.2,440.7Z" transform="translate(-886.317 -435.595)" fill="#004e9e"/>
    </g>
  </g>
</svg>
