<svg xmlns="http://www.w3.org/2000/svg" width="235.448" height="30" viewBox="0 0 235.448 30">
  <g id="Group_5208" data-name="Group 5208" transform="translate(-58.023 -111.03)">
    <g id="Group_5206" data-name="Group 5206" transform="translate(282.24 111.133)">
      <path id="Path_19702" data-name="Path 19702" d="M251.7,111.819h-1.744v-.7h4.288v.7H252.5V116.7h-.8Z" transform="translate(-249.959 -111.118)" fill="#008cd6"/>
      <path id="Path_19703" data-name="Path 19703" d="M254.321,111.118h1.326l1.762,4.635,1.724-4.635h1.324V116.7h-.8v-4.83h-.016l-1.849,4.83h-.793l-1.853-4.83h-.018v4.83h-.8Z" transform="translate(-249.225 -111.118)" fill="#008cd6"/>
    </g>
    <g id="Group_5207" data-name="Group 5207" transform="translate(58.023 111.03)">
      <rect id="Rectangle_721" data-name="Rectangle 721" width="7.986" height="29.826" transform="translate(34.828)" fill="#008cd6"/>
      <path id="Path_19704" data-name="Path 19704" d="M136.677,111.053h9.791l11.551,29.973h-8.761l-2.234-6.4H135.775l-2.363,6.4h-8.117Zm4.895,6.182h-.086l-3.866,11.725h7.516l-3.564-11.725" transform="translate(-46.709 -111.026)" fill="#008cd6"/>
      <path id="Path_19705" data-name="Path 19705" d="M156.636,111.051h13.785c5.58,0,9.745,2.447,9.745,7.6,0,3.779-1.931,5.883-5.28,7v.085c3.993.817,6.054,2.965,6.054,6.614,0,7.172-6.311,8.675-11.68,8.675H156.636Zm7.987,24.306h2.362c2.919,0,5.967-.429,5.967-3.479,0-3.263-3.134-3.564-5.882-3.564h-2.447Zm0-12.454h2.232c2.62,0,5.323-.644,5.323-3.177,0-2.748-2.576-3.006-5.236-3.006h-2.32V122.9" transform="translate(-41.437 -111.027)" fill="#008cd6"/>
      <path id="Path_19706" data-name="Path 19706" d="M188.295,129.731l-11.081-18.681h9.191l5.883,12.024,5.8-12.024h9.189l-10.993,18.681v11.3h-7.987v-11.3" transform="translate(-37.976 -111.027)" fill="#008cd6"/>
      <path id="Path_19707" data-name="Path 19707" d="M213.152,116.978h-7.386v-5.927h22.759v5.927h-7.387v24.049h-7.986V116.978" transform="translate(-33.174 -111.027)" fill="#008cd6"/>
      <path id="Path_19708" data-name="Path 19708" d="M228.5,111.051h21.127v5.669H236.486V122.9H248.9v5.669h-12.41v6.785H250.1v5.669H228.5V111.051" transform="translate(-29.351 -111.027)" fill="#008cd6"/>
      <path id="Path_19709" data-name="Path 19709" d="M74.713,117.6c-5.313.44-8.212,3.932-8.212,8.445a8.418,8.418,0,0,0,7.993,8.076l.86,0h1.456a.944.944,0,0,0,.967-.943v-9.419h8.2c0,5.318-.02,17.261-.02,17.261s-8.1-.006-12.8-.006a15.132,15.132,0,0,1-15.137-14.964,14.9,14.9,0,0,1,15.4-14.9l12.266.037,0,6.417H74.713" transform="translate(-58.023 -111.013)" fill="#008cd6"/>
      <path id="Path_19710" data-name="Path 19710" d="M115.341,117.6c-5.313.44-8.211,3.932-8.211,8.445a8.418,8.418,0,0,0,7.992,8.076l.86,0h1.456a.941.941,0,0,0,.964-.943v-9.419h8.191c0,5.318-.019,17.261-.019,17.261s-8.089-.006-12.785-.006a15.131,15.131,0,0,1-15.136-14.964,14.9,14.9,0,0,1,15.4-14.9l12.254.037L126.3,117.6H115.341" transform="translate(-51.19 -111.013)" fill="#008cd6"/>
    </g>
  </g>
</svg>
