<svg xmlns="http://www.w3.org/2000/svg" xmlns:xlink="http://www.w3.org/1999/xlink" width="30.538" height="30.567" viewBox="0 0 30.538 30.567">
  <defs>
    <linearGradient id="linear-gradient" x1="6.902" y1="-1.615" x2="-6.001" y2="2.709" gradientUnits="objectBoundingBox">
      <stop offset="0" stop-color="#007ccf"/>
      <stop offset="1" stop-color="#fff"/>
    </linearGradient>
    <linearGradient id="linear-gradient-2" x1="7.331" y1="-1.125" x2="-6.583" y2="2.153" xlink:href="#linear-gradient"/>
    <linearGradient id="linear-gradient-3" x1="7.426" y1="-1.22" x2="-6.696" y2="2.2" xlink:href="#linear-gradient"/>
    <linearGradient id="linear-gradient-4" x1="-5.383" y1="10.629" x2="6.516" y2="-9.302" xlink:href="#linear-gradient"/>
    <linearGradient id="linear-gradient-5" x1="-0.645" y1="3.139" x2="3.57" y2="-5.578" xlink:href="#linear-gradient"/>
    <linearGradient id="linear-gradient-6" x1="-5.274" y1="19.219" x2="6.768" y2="-18.987" xlink:href="#linear-gradient"/>
  </defs>
  <g id="Group_5102" data-name="Group 5102" transform="translate(-764.397 -430.56)">
    <g id="Group_5096" data-name="Group 5096" transform="translate(764.68 430.844)">
      <ellipse id="Ellipse_55" data-name="Ellipse 55" cx="14.986" cy="15" rx="14.986" ry="15" fill="none" stroke="#ebebeb" stroke-miterlimit="22.926" stroke-width="0.567"/>
      <ellipse id="Ellipse_56" data-name="Ellipse 56" cx="13.928" cy="13.942" rx="13.928" ry="13.942" transform="translate(1.057 1.058)" fill="#ffc400" stroke="#fff" stroke-miterlimit="22.926" stroke-width="0.567"/>
    </g>
    <g id="Group_5097" data-name="Group 5097" transform="translate(767.996 441.991)">
      <path id="Path_19323" data-name="Path 19323" d="M773.014,443.418l-.147.046-.146.047-.1.047-.1.048-.049.049-.1.049-.1.049-.051.05-.1.049c-.049.016-.1.031-.146.048l-.048,0a.678.678,0,0,1-.047-.054c-.032-.017-.063-.036-.093-.054a.666.666,0,0,1-.048-.054l-.046-.055-.1,0c0,.071,0,.14-.006.21l.04.209c.031.02.063.037.1.055.013.088.027.175.041.261.012.106.023.21.038.314l.015.991c0,.052,0,.1-.007.156,0,.036,0,.071,0,.1.011.173.021.348.032.521,0,.034,0,.07,0,.1l-.051.053c0,.036,0,.071,0,.1,0,.072-.005.139-.007.209,0,.018,0,.036,0,.053,0,.035,0,.069,0,.1-.017.019-.034.037-.049.055l-.049.054-.051.054-.051.054c-.017.019-.034.036-.051.053l-.049.055-.147.057-.1.055-.1.055-.049.055-.051.055-.048.054c-.017.02-.034.038-.047.055l-.049.055-.335.229c-.044-.56-.072-1.119-.1-1.679s-.062-1.122-.092-1.683c0-.036,0-.072,0-.107l-.046-.055c-.017-.018-.033-.036-.048-.055-.129-.02-.257-.041-.384-.063a.275.275,0,0,1-.047,0l-.049.052c-.019.036-.036.071-.053.106s-.034.071-.051.105-.036.072-.053.107c-.017.018-.034.034-.05.052l-.049.052-.051.053-.1.051-.049.052-.05.053-.051.054c-.017.018-.034.034-.049.052l-.051.053-.049.052-.1.052-.049.052c-.017.019-.034.035-.051.052l-.145,0-.144,0-.051.106-.052.052-.051.106c-.019.036-.036.071-.053.105v.055c.014.037.029.073.045.11.047.021.095.039.143.059.046.038.093.075.141.113l.04.271c.014.072.028.144.041.217l.041.216c.013.055.029.109.044.164s.028.109.043.164.029.109.044.163c.013.072.026.145.039.216.013.09.029.181.046.27.016.072.033.144.052.216.017.054.032.107.051.162.017.072.036.145.053.217s.037.143.059.215c.017.054.036.107.055.162.019.089.039.18.06.269q.031.109.059.217c.022.144.045.287.072.43.015.037.034.072.053.108.017.089.039.179.062.269.017.053.038.107.056.161s.037.106.055.16.033.107.053.16c.015.037.034.072.051.107s.034.071.052.105c.017.054.036.105.053.16s.034.105.053.159c.015.036.032.071.049.106l.051.105c.015.036.032.071.049.1.015.055.03.106.047.16l.049.105c.014.054.029.106.048.16s.03.105.047.159.029.1.045.157c.013.035.027.068.042.1.015.018.03.034.046.05.013.035.028.07.043.1.013.016.028.033.045.05l.042.049.181-.015c.017-.036.03-.074.047-.11l.089-.063c.03-.019.062-.039.092-.061l.092-.062c.013-.019.03-.039.046-.059l.043-.057c.013-.019.029-.037.044-.056l.046-.059c.031-.02.06-.041.09-.063.014-.018.031-.038.045-.058l.046-.056c.015-.019.03-.038.045-.059a.693.693,0,0,0,.044-.058.581.581,0,0,0,.047-.058l.046-.056.046-.059.046-.056c.013-.02.029-.038.044-.057l.092-.01c.029,0,.06-.007.09-.011a.649.649,0,0,1,.046-.058,1.03,1.03,0,0,1,0-.1,1.014,1.014,0,0,1,0-.1v-.156c-.047-.029-.093-.06-.138-.09-.013-.068-.03-.136-.046-.2-.017-.033-.032-.067-.048-.1s-.032-.067-.047-.1c-.017-.068-.034-.137-.051-.2-.017-.139-.036-.278-.053-.417,0-.122-.005-.245-.007-.368,0-.017,0-.034,0-.052,0-.053,0-.1,0-.157a2.119,2.119,0,0,1,.855-.992c.013.121.029.239.046.358,0,.035,0,.07,0,.1.016.067.031.136.046.2s.029.136.044.2.03.135.048.2.03.136.044.2l.046.356.047.251c.013.12.027.239.042.356l.047.1c.015.015.03.03.044.046s.031.031.045.046c.046,0,.092-.009.139-.015.032-.019.061-.039.092-.061l.139-.066c.03-.021.061-.04.089-.061l.094-.059.187-.071.139-.064.093-.059.092-.057.141-.062.141-.063.185-.063a.931.931,0,0,1,.005-.1l-.044-.046-.09-.043c0-.065,0-.132.006-.2-.013-.081-.025-.164-.038-.247l-.041-.2c-.012-.08-.024-.163-.036-.245s-.026-.165-.038-.248c-.015-.064-.027-.13-.041-.2-.015-.031-.03-.064-.044-.1q-.025-.025-.046-.048a2.521,2.521,0,0,1-.29-1.061c-.058-.459-.094-.946-.126-1.21a10.565,10.565,0,0,1-.066-1.3c0-.456.015-.916.03-1.335a.482.482,0,0,1,0-.051.647.647,0,0,1-.047-.052l-.047-.051-.532-.021c0,.019,0,.036,0,.052A.482.482,0,0,0,773.014,443.418Z" transform="translate(-768.39 -443.315)" fill="#120708" fill-rule="evenodd"/>
      <path id="Path_19324" data-name="Path 19324" d="M779.943,444.79c-.019.033-.036.064-.053.1-.019.08-.038.161-.055.241-.021.113-.041.227-.06.34-.019.1-.038.193-.057.29-.019.08-.038.161-.055.241,0,.032,0,.064,0,.1a.44.44,0,0,0,0,.048c-.024.18-.044.357-.066.534-.022.209-.046.42-.071.628-.032.259-.07.517-.111.775-.01.114-.022.227-.032.341a.224.224,0,0,0-.005.048c-.023.063-.046.127-.07.189-.023.08-.049.159-.073.237-.04.063-.078.125-.117.187,0,.033-.008.064-.01.1-.014.114-.026.226-.039.34l-.056.092c-.027.1-.053.191-.078.288-.014.114-.026.226-.036.339.008.05.019.1.03.15.013.017.025.035.039.053a.547.547,0,0,0,.042.053.571.571,0,0,0,.041.053l.5.114.268.095c.075.014.15.027.226.039-.035-.084-.074-.168-.11-.251-.245-.063-.492-.122-.737-.175l-.032-.047c.046-.127.093-.255.141-.383.047-.158.1-.316.151-.476q.181-.917.341-1.839.013-.22.03-.44c0-.1.005-.195.008-.292.017-.031.034-.063.053-.094,0-.1.005-.195.009-.294l.005-.147c.017-.1.036-.193.055-.29q.1-.6.192-1.214.567.259,1.137.527c.11.046.221.091.332.139.049.5.1,1.009.147,1.515s.065,1.015.068,1.525c-.006.034-.012.068-.015.1-.019.119-.036.239-.051.357l.318.478.066-.027c.111-.248.223-.5.333-.745.087-.251.173-.5.252-.754.019-.033.036-.065.051-.1s.007-.069.012-.1c.113-.513.215-1.028.316-1.546l.315.145c.237.115.475.232.711.349-.055.279-.111.557-.167.834-.018.034-.037.068-.054.1-.077.262-.162.525-.252.785-.015.05-.03.1-.047.148s-.048.1-.07.153c-.135.306-.266.611-.4.914-.226.446-.447.89-.661,1.328q-.2.386-.39.763l-.071.113c-.038-.054-.071-.107-.109-.159-.483-.128-.779-.246-.823-.782.005-.05.014-.1.021-.151q-.058-.583-.115-1.159c-.038-.382-.079-.764-.126-1.145-.043-.041-.087-.08-.13-.121-.059-.072-.114-.144-.168-.217-.1.406-.2.808-.3,1.21s-.2.8-.3,1.2l.182.033.046.009c.049-.26.1-.52.149-.781l.082-.24c.019-.03.039-.06.059-.092a.438.438,0,0,1,.007-.048c0-.033.009-.066.015-.1.032-.13.066-.258.1-.389l.049.007c.008.035.021.071.032.107,0,.085.007.169.012.255l.026.156c0,.07.012.139.017.208.008.052.015.1.023.156,0,.121,0,.24,0,.359,0,.069.01.139.017.208,0,.086.006.173.012.259.005.07.01.14.017.21-.036.025-.068.052-.1.08-.005.032-.011.066-.013.1l.047.009a.459.459,0,0,0,.038.06c0,.017-.005.034-.007.05-.008.068-.015.134-.022.2.009.036.021.073.032.108s.026.042.041.062l.085.072c.014.021.026.04.039.061s.026.041.039.062a.643.643,0,0,0,.039.061l.217.11.265.122c.013.02.028.042.039.062.042.03.085.061.13.089.029.025.055.05.085.075s.057.05.089.076a.814.814,0,0,0,.085.077c.027.026.058.051.087.076.013.022.027.044.042.065l.133.038.089-.027.047-.039c.021-.084.039-.166.063-.249a.257.257,0,0,1,0-.052c.038-.2.121-.487.184-.7.07-.244.232-.268.311-.534a8.243,8.243,0,0,1,.51-1.414c.139-.27.39-.792.6-1.3s.379-1,.494-1.179c0-.072,0-.145.007-.217l-.045-.112-.046-.059-.095-.063a.716.716,0,0,1-.048-.059c-.032-.02-.063-.041-.093-.063s-.065-.041-.1-.063l-.192-.072-.094-.062-.095-.063-.19-.073c-.081-.024-.16-.05-.24-.076-.032-.021-.064-.04-.095-.062-.015-.037-.031-.074-.045-.111s0-.069,0-.105,0-.07,0-.105l-.1-.008c-.017.017-.034.032-.049.048-.034.031-.068.064-.1.1,0,.071,0,.139-.005.21a.508.508,0,0,0,0,.052c-.019.068-.038.137-.055.2-.021.121-.038.24-.059.36-.019.068-.038.135-.055.2-.017.086-.036.171-.055.255-.019.051-.038.1-.055.15-.021.1-.039.2-.062.3-.019.067-.041.133-.065.2-.019.049-.039.1-.059.147-.031.119-.06.236-.089.354-.026.067-.053.133-.077.2-.024.049-.044.1-.068.147-.015-.019-.027-.038-.041-.059,0-.105,0-.211-.006-.316,0-.174.006-.347.006-.52-.01-.072-.021-.142-.034-.213s-.022-.141-.038-.213c-.013-.1-.027-.208-.038-.313-.011-.224-.019-.448-.028-.672-.017-.053-.03-.105-.044-.158q-.016-.335-.029-.669l-.046-.056c-.017-.017-.032-.037-.047-.055s-.031-.037-.047-.055l-.095-.06c-.032-.02-.065-.038-.1-.058l-.289-.074-.143-.06-.143-.061-.143-.061-.145-.06q-.1-.029-.19-.062l-.192-.063-.143-.057c-.032-.034-.064-.07-.095-.1l-.192-.011a.456.456,0,0,0,0,.048C779.947,444.693,779.945,444.742,779.943,444.79Z" transform="translate(-769.505 -443.451)" fill="#0f0e0f" fill-rule="evenodd"/>
      <path id="Path_19325" data-name="Path 19325" d="M769.27,447.349c.044.127.089.254.132.38l.563-.5c.182.272-.17.563-.33.716.032.07.063.14.095.208.1-.018.192-.036.288-.055.012.016.022.032.034.047-.132.135-.266.272-.4.407l-.068-.017c.034.107.068.215.105.323.031-.017.062-.036.092-.055l.187-.011c.06-.041.12-.083.177-.125l.041.05c-.1.15-.2.3-.294.451.156.019.313.038.471.053-.06.131-.119.261-.177.39.053.073.109.145.163.216l.245-.112c-.077.114-.152.226-.224.339.019.026.04.052.063.078l.659-.458c.044-.072.089-.147.138-.22a.781.781,0,0,1-.041-.083c.083-.086.168-.172.254-.258-.014-.02-.026-.039-.039-.059l-.274.141a1.137,1.137,0,0,1,.787-.7c-.089.145-.175.288-.261.433l.424-.151.485-.39c.071-.249.3-.164.483-.128,0,.069,0,.137-.006.2l.384-.022q-.294.245-.582.5l.046.253c0-.067,0-.132,0-.2.2.019.41.036.616.053.062-.037.121-.073.184-.11-.009-.049-.016-.1-.021-.146l.068-.018c.017.137.034.274.053.41-.232.172-.465.345-.693.519a.332.332,0,0,0,.026.057c.232-.066.464-.131.7-.2.005.014.012.03.019.045-.228.16-.458.32-.682.484.015.168.029.338.042.506.233-.21.469-.417.7-.623l-.138.012a.942.942,0,0,1,0-.1c.037,0,.075,0,.113-.006q-.039-.544-.08-1.091c-.027-.186-.056-.373-.08-.56-.071-.282-.143-.565-.209-.848,0,.068-.007.134-.009.2q-.585.3-1.158.607c-.015-.026-.03-.054-.046-.081q.492-.424.995-.84c-.012-.019-.024-.037-.034-.056l.211-.083c-.024-.27-.047-.539-.07-.809-.005.118-.009.238-.012.355l-.386.009c-.021.383-.484.458-.689.376-.661.487-1.322.981-1.963,1.474-.039-.195-.077-.39-.107-.584l-.054.018c-.047-.234-.092-.47-.138-.705-.247-.158-.154-.085-.139-.547h-.1a2.71,2.71,0,0,0,.062-.375c.006-.211-.007-.106-.045-.161l0,.159c-.179.162-.358.322-.535.481l.061.017c.06.058.12.116.181.173.087-.07.173-.141.26-.213-.085.437-.389.14-.435.611C769.333,447.387,769.3,447.368,769.27,447.349Z" transform="translate(-768.483 -443.619)" fill="#fcca60" fill-rule="evenodd"/>
      <path id="Path_19326" data-name="Path 19326" d="M775.953,447.683h-.047c-.034.017-.066.035-.1.05l-.341.008c0,.067-.008.132-.01.2l.046.1c.013.032.027.064.043.1q-.019.349-.034.693a.972.972,0,0,0,.046.1c0,.033-.005.065-.007.1s0,.067,0,.1,0,.068.005.1c-.021.031-.04.064-.061.1-.009.181-.021.362-.026.543.012.032.026.064.041.1-.007.132-.013.264-.017.4a.516.516,0,0,0,.044.046l.043.046c.015.015.029.03.042.046l.092.044.138-.009.141-.007c.03,0,.06,0,.09-.006a.68.68,0,0,0,.049-.052c.017-.016.034-.032.051-.05l.1-.052.187-.006.094-.051.094,0c.063,0,.124,0,.185,0h.094l.01-.147c-.013-.031-.027-.064-.039-.1,0-.065.007-.13.014-.2-.013-.047-.022-.1-.034-.145-.014-.031-.028-.064-.043-.1,0-.032.005-.064.009-.1-.007-.113-.014-.225-.021-.34-.214-.089-.333-1.1-.344-1.41l-.046-.049-.148.011a1.02,1.02,0,0,1-.093-.059l-.141-.046H776Z" transform="translate(-769.14 -443.773)" fill="#0f0e0f" fill-rule="evenodd"/>
      <path id="Path_19327" data-name="Path 19327" d="M777.823,447.909l-.147.043c-.034.016-.066.032-.1.047l-.1,0c-.009.147-.013.294-.022.44-.022.031-.042.062-.064.094-.029.421-.06.844-.089,1.265-.022.03-.043.063-.064.092a.243.243,0,0,0,0,.05c0,.048-.009.1-.013.145s-.006.1-.012.145l.045.049c.012.032.025.065.038.1l.089.049c.06,0,.122,0,.184,0l.187,0q.393.015.786.043c.016-.015.033-.03.052-.045,0-.048.01-.1.013-.145a.266.266,0,0,1,0-.047c0-.033.007-.064.011-.1l-.036-.1c0-.031.007-.063.012-.1-.013-.033-.027-.067-.038-.1.01-.1.021-.193.032-.29-.014-.032-.026-.066-.039-.1,0-.033.007-.065.012-.1-.012-.034-.025-.068-.038-.1s.005-.064.009-.1c-.012-.033-.028-.066-.038-.1l.01-.1c-.013-.034-.025-.067-.037-.1s0-.064.008-.1c-.013-.05-.025-.1-.036-.148-.012-.031-.025-.065-.038-.1,0-.048.009-.1.013-.146-.013-.049-.026-.1-.036-.147l-.041-.1c0-.032,0-.065.008-.1-.015-.017-.03-.034-.044-.051l-.143-.055-.1.005c-.03-.021-.062-.041-.089-.062l-.049,0C777.889,447.877,777.855,447.892,777.823,447.909Z" transform="translate(-769.327 -443.798)" fill="#0f0e0f" fill-rule="evenodd"/>
      <path id="Path_19328" data-name="Path 19328" d="M779.857,447.924q-.16.921-.341,1.839c.126,0,.253-.005.381,0,.028.021.058.043.085.065q.084-.487.165-.974c.022.011.046.021.07.03.08-.193.156-.385.235-.577-.014-.015-.028-.03-.039-.044l.43.056c-.012.107-.025.215-.036.323.043.04.087.08.13.121.079.138.156.274.233.413l.709-.21c0-.034.009-.068.015-.1-.1-.482-.219-.961-.357-1.438-.017.049-.034.1-.049.146l-.849.082c0,.022.007.044.012.065-.114-.012-.226-.025-.338-.038-.005.066-.009.132-.013.2C780.152,447.89,780.006,447.906,779.857,447.924Z" transform="translate(-769.571 -443.751)" fill="#fddc80" fill-rule="evenodd"/>
      <path id="Path_19329" data-name="Path 19329" d="M781.346,451.221l.126.026c.03-.086.064-.172.1-.257.274.069.544.141.816.214l.15-.078.195.043c0,.089-.006.179-.01.269.215-.438.435-.882.661-1.328q-.255-.048-.509-.1c-.006.036-.015.072-.021.107l-.438-.073-.026.043c.024.031.046.063.068.095l-.6-.107c-.008.026-.017.052-.023.079l.544.221a1.407,1.407,0,0,1-.678.089.869.869,0,0,1-.223-.1l.094-.106c0-.086,0-.172,0-.258.03-.033.061-.066.094-.1l-.073.023c-.079-.119-.156-.237-.235-.353l.06-.046.42.076.166-.127c.015-.118.032-.238.051-.357l-.709.21c-.077-.139-.155-.275-.233-.413.047.381.088.763.126,1.145S781.308,450.833,781.346,451.221Z" transform="translate(-769.74 -443.91)" fill="#fcca60" fill-rule="evenodd"/>
      <path id="Path_19330" data-name="Path 19330" d="M770.491,451.7q.182.581.344,1.158l.831-.886-.168-.34c0-.122-.007-.244-.012-.366l-.124-.1c-.029-.263-.056-.526-.083-.789-.017-.034-.033-.069-.048-.1-.136.186-.272.37-.4.553-.068.078-.136.158-.2.237a.467.467,0,0,0,.03.043l.226-.079.041.041C770.775,451.275,770.632,451.486,770.491,451.7Z" transform="translate(-768.613 -444.053)" fill="#fdd962" fill-rule="evenodd"/>
      <path id="Path_19331" data-name="Path 19331" d="M782.743,449.214c-.11.249-.223.5-.333.745l-.066.027-.318-.478-.166.127-.42-.076-.06.046c.079.116.156.234.235.353l.073-.023c-.033.032-.063.065-.094.1,0,.086,0,.172,0,.258l-.094.106a.869.869,0,0,0,.223.1,1.407,1.407,0,0,0,.678-.089l-.544-.221c.006-.027.015-.053.023-.079l.6.107c-.022-.032-.044-.063-.068-.095l.026-.043.438.073c.005-.036.014-.072.021-.107q.253.051.509.1c.135-.3.265-.609.4-.914C783.455,449.226,783.1,449.22,782.743,449.214Z" transform="translate(-769.769 -443.941)" fill="#fff9cc" fill-rule="evenodd"/>
      <path id="Path_19332" data-name="Path 19332" d="M772.664,446.8c0-.085.005-.173.008-.259.1,0,.191,0,.288-.008.038-.081.077-.164.115-.247-.117,0-.234,0-.352,0-.01-.116-.02-.232-.027-.349l.3-.1c-.08-.126-.16-.253-.238-.381l0-.155c0-.106.009-.212.013-.319.09.011.182.021.274.03l.7-.269c-.012-.334-.022-.67-.032-1.006q-.6.284-1.2.575c.024.417.05.832.073,1.247S772.638,446.384,772.664,446.8Z" transform="translate(-768.828 -443.359)" fill="#fbc043" fill-rule="evenodd"/>
      <path id="Path_19333" data-name="Path 19333" d="M782.829,452.493c.013,0,.03.009.045.012l.091-.028c0-.038,0-.076,0-.113.024-.028.045-.057.067-.086s.037-.063.057-.094c.021-.048.043-.1.065-.146s.046-.1.07-.147c0-.054.008-.108.013-.164.024-.029.046-.058.07-.089.024-.049.046-.1.068-.147s.051-.1.075-.148c0-.038,0-.075.01-.113.024-.03.047-.06.07-.089l.058-.045c.005-.055.013-.109.021-.164l.073-.09c.017-.015.034-.029.053-.043.025-.049.051-.1.078-.15,0-.038.007-.076.011-.114l.073-.091c.007-.056.014-.111.021-.165l.077-.092c.022-.032.046-.066.068-.1,0-.038.006-.074.01-.112q.036-.047.075-.094l.068-.1c0-.038.007-.076.011-.114.025-.03.049-.062.074-.093s.043-.066.067-.1c.025-.051.049-.1.076-.155s.047-.1.075-.154l.01-.114c.024-.031.048-.063.072-.1l.073-.154c.005-.057.01-.113.013-.17.024-.03.048-.063.073-.095.022-.052.045-.1.064-.157s.043-.1.065-.157.04-.1.063-.156.037-.105.058-.158c0-.055,0-.112,0-.168.021-.033.041-.065.063-.1,0-.036,0-.071,0-.109a.723.723,0,0,1-.046-.058c-.015-.038-.03-.076-.044-.114-.017,0-.034,0-.05,0-.115.181-.283.675-.494,1.179s-.465,1.032-.6,1.3a8.238,8.238,0,0,0-.51,1.414c-.079.265-.241.29-.311.534C782.95,452.006,782.867,452.29,782.829,452.493Z" transform="translate(-769.923 -443.745)" fill="#f07914" fill-rule="evenodd"/>
      <path id="Path_19334" data-name="Path 19334" d="M774.713,448.421c0-.035,0-.07,0-.1.019-.032.039-.065.059-.1l.005-.15-.046-.1c0-.048,0-.1.006-.149-.015-.048-.029-.1-.04-.147-.015-.033-.031-.067-.045-.1l.021-.45-.046-.1,0-.148c-.015-.034-.03-.069-.044-.1.005-.184.012-.368.019-.55l-.045-.1c.009-.25.017-.5.026-.752-.015-.033-.03-.066-.047-.1l.011-.3-.045-.1c.005-.184.013-.366.019-.551l-.046-.1c0-.132.008-.266.013-.4-.015-.034-.03-.069-.044-.1s-.031-.068-.045-.1l-.046-.1-.1,0c-.015.418-.03.879-.03,1.335a10.565,10.565,0,0,0,.066,1.3c.032.265.068.751.126,1.21A2.521,2.521,0,0,0,774.713,448.421Z" transform="translate(-769.01 -443.336)" fill="#f07914" fill-rule="evenodd"/>
      <path id="Path_19335" data-name="Path 19335" d="M772.78,445.459l0,.155c.078.128.158.255.238.381l-.3.1c.007.117.017.233.027.349.118,0,.235,0,.352,0-.038.082-.078.165-.115.247-.1,0-.192.006-.288.008,0,.087-.006.174-.008.259.206.081.669.007.689-.376l.386-.009c0-.117.006-.237.012-.355l-.015-.963c-.082,0-.162,0-.241,0a.45.45,0,0,0,.023.052c-.215.118-.426.238-.639.358a.486.486,0,0,1-.043-.043C772.829,445.567,772.8,445.513,772.78,445.459Z" transform="translate(-768.846 -443.521)" fill="#fdeead" fill-rule="evenodd"/>
      <path id="Path_19336" data-name="Path 19336" d="M779.947,449.923c-.063.215-.119.428-.18.641-.145-.078-.293-.152-.437-.226-.048.128-.1.256-.141.383l.032.047c.245.054.492.112.737.175.036.083.075.167.11.251l.046.007c0-.033,0-.069,0-.1.021-.027.044-.055.064-.084a.47.47,0,0,1,.007-.048l-.182-.033c.1-.4.2-.8.3-1.2s.2-.8.3-1.21c.055.073.109.145.168.217.011-.107.024-.215.036-.323l-.43-.056c.012.014.025.029.039.044-.079.192-.156.384-.235.577-.024-.009-.047-.02-.07-.03Q780.031,449.436,779.947,449.923Z" transform="translate(-769.536 -443.85)" fill="#e65411" fill-rule="evenodd"/>
      <path id="Path_19337" data-name="Path 19337" d="M780.077,446.1c.42-.047.842-.093,1.262-.138l.011-.3.109.007c-.019-.085-.036-.169-.053-.255q-.57-.268-1.137-.527Q780.173,445.493,780.077,446.1Z" transform="translate(-769.631 -443.482)" fill="#fdeead" fill-rule="evenodd"/>
      <path id="Path_19338" data-name="Path 19338" d="M777.618,446.155c.016.017.031.034.048.049a.457.457,0,0,0,0,.048c-.019.049-.036.1-.053.145l.005.1-.062.091c-.019.048-.036.1-.053.143l.005.151-.063.091c0,.081-.006.162-.006.241.013.049.027.1.042.147.013.033.028.065.043.1.029.017.061.035.094.051l.1.051.386.011.1,0,.142.007c.007-.113.013-.225.021-.339q-.025-.074-.046-.147c-.015-.034-.03-.066-.045-.1,0-.064,0-.128.007-.193-.015-.034-.032-.066-.046-.1,0-.08,0-.161.008-.241-.015-.049-.03-.1-.044-.147-.034-.017-.067-.035-.1-.053l-.094-.051a.633.633,0,0,1-.047-.05l-.046-.05c-.032-.017-.065-.033-.1-.051s-.066-.033-.1-.051l-.1,0Z" transform="translate(-769.35 -443.601)" fill="#231e11" fill-rule="evenodd"/>
      <path id="Path_19339" data-name="Path 19339" d="M769.745,449.155c.111.4.22.806.333,1.206s.226.8.334,1.2c.141-.211.284-.423.429-.633l-.041-.041-.226.079a.455.455,0,0,1-.03-.043c.068-.079.136-.159.2-.237.133-.183.269-.367.4-.553,0-.053,0-.1,0-.158l-.659.458c-.022-.026-.044-.052-.062-.078.072-.113.147-.225.224-.339l-.245.112c-.055-.072-.111-.143-.163-.216.058-.129.117-.259.177-.39-.158-.015-.315-.034-.471-.053.1-.15.194-.3.294-.451l-.041-.05c-.057.042-.117.084-.177.125l-.187.011C769.807,449.12,769.776,449.138,769.745,449.155Z" transform="translate(-768.534 -443.915)" fill="#fffef1" fill-rule="evenodd"/>
      <path id="Path_19340" data-name="Path 19340" d="M775.687,445.813v.049c.013.049.03.1.045.148l-.005.147.005.153c-.022.031-.043.063-.063.094v.3c-.02.033-.04.064-.061.1l-.011.3.046.048.723.107q-.005-.618-.005-1.237c0-.016,0-.032,0-.05-.034-.016-.066-.032-.1-.05l-.1.011-.09-.061c-.017-.016-.032-.032-.047-.048l-.1.009c-.031-.019-.062-.039-.09-.059h-.049Z" transform="translate(-769.155 -443.575)" fill="#0f0e0f" fill-rule="evenodd"/>
      <path id="Path_19341" data-name="Path 19341" d="M771.123,448.064c-.017-.053-.032-.105-.047-.157-.015-.036-.031-.07-.045-.105,0-.053,0-.105,0-.16-.015-.034-.03-.068-.043-.1.005-.177.011-.354.018-.531-.016-.035-.031-.071-.045-.1q.015-.4.027-.8l-.046-.106.011-.318c0-.017,0-.036,0-.053,0-.088.005-.177.009-.265-.015-.036-.03-.072-.045-.107-.015-.054-.029-.106-.042-.16l-.046-.106-.1.008-.09-.065h-.049c.03.561.063,1.122.092,1.683s.058,1.119.1,1.679Z" transform="translate(-768.624 -443.487)" fill="#e65411" fill-rule="evenodd"/>
      <path id="Path_19342" data-name="Path 19342" d="M777.5,450.014c0,.076.008.151.015.226.265.028.531.058.795.095a2.253,2.253,0,0,0,.068-1.128,2.874,2.874,0,0,0-.294-1.079l-.147.053c.005.067.008.135.013.2-.015.063-.029.126-.043.188l.05-.009q.056.556.112,1.115H778l.23.058c-.01.086-.019.17-.027.256C777.965,449.992,777.731,450,777.5,450.014Z" transform="translate(-769.357 -443.826)" fill="#e2350f" fill-rule="evenodd"/>
      <path id="Path_19343" data-name="Path 19343" d="M781.489,446.023l.05.055c.013.036.029.07.044.1-.005.134-.01.268-.012.4.023,0,.047.008.073.011.032.206.068.41.1.618.138.477.255.956.357,1.438,0-.509-.021-1.018-.068-1.525s-.1-1.012-.147-1.515c-.111-.047-.222-.092-.332-.139.017.086.034.17.053.255l-.109-.007Z" transform="translate(-769.781 -443.544)" fill="#ea5e0e" fill-rule="evenodd"/>
      <path id="Path_19344" data-name="Path 19344" d="M783.257,447.959l.578.028c0-.028.005-.055.009-.084.179-.019.356-.039.535-.06.017-.034.036-.068.054-.1-.053-.071-.1-.142-.155-.213-.01-.044-.019-.087-.027-.131l-.386-.045c0-.036,0-.071,0-.106-.1-.011-.192-.022-.288-.035.092-.068.187-.134.282-.2-.021-.039-.041-.08-.06-.119l.1-.1-.162-.038.005-.211.144.016-.315-.145C783.472,446.931,783.37,447.446,783.257,447.959Z" transform="translate(-769.968 -443.644)" fill="#fbc043" fill-rule="evenodd"/>
      <path id="Path_19345" data-name="Path 19345" d="M780.006,446.523l-.005.147q.628.04,1.257.09l.194,0c-.03.21-.529.294-.784.266,0,.034,0,.066,0,.1l-.386-.039a.9.9,0,0,0-.29.021l0-.147c-.019.031-.036.063-.053.094,0,.1-.006.195-.008.292q.825-.04,1.65-.063c-.034-.207-.07-.412-.1-.618-.026,0-.05-.007-.073-.011,0-.135.006-.269.012-.4-.015-.035-.03-.069-.044-.1-.015.1-.029.2-.043.3q-.615.058-1.232.121Z" transform="translate(-769.615 -443.616)" fill="#fddc80" fill-rule="evenodd"/>
      <path id="Path_19346" data-name="Path 19346" d="M777.5,450.02c.234-.012.468-.022.7-.026.008-.086.017-.17.027-.256l-.23-.058h.068q-.056-.558-.112-1.115l-.05.009c.014-.062.028-.124.043-.188-.005-.065-.008-.133-.013-.2l-.182.045Z" transform="translate(-769.357 -443.832)" fill="#fddc80" fill-rule="evenodd"/>
      <path id="Path_19347" data-name="Path 19347" d="M769.876,445.36c.036.013.073.028.11.039l-.122.171c.013.164.024.326.038.489.038.055.051-.05.045.161a2.71,2.71,0,0,1-.062.375h.1c-.014.462-.107.389.139.547.046.235.09.471.138.705l.055-.018c.03.194.068.389.107.584-.049-.555-.082-1.111-.115-1.666s-.066-1.114-.1-1.672Z" transform="translate(-768.546 -443.502)" fill="#e2350f" fill-rule="evenodd"/>
      <path id="Path_19348" data-name="Path 19348" d="M775.763,449.24l.271-.037c.087-.044.175-.086.262-.128l-.021.179c-.155.089-.308.18-.463.272.011.022.021.045.03.068q.237-.044.476-.084l.088.051c.013-.195.026-.391.038-.586l-.055.01-.01-.5c-.015-.031-.03-.064-.045-.1-.18.068-.36.138-.537.208.005-.105.013-.214.022-.32.128-.045.255-.088.386-.131,0-.034,0-.068,0-.1l.062-.095-.1-.047-.281.014-.116.091C775.767,448.421,775.767,448.83,775.763,449.24Z" transform="translate(-769.173 -443.802)" fill="#fcca60" fill-rule="evenodd"/>
      <path id="Path_19349" data-name="Path 19349" d="M781.373,451.468c-.006.05-.015.1-.021.151.028.031.056.062.087.092.3-.028.61-.056.914-.088l.118.319c-.06-.013-.119-.03-.179-.045l-.015.084-.6-.024a.968.968,0,0,0-.013.1l.135.034c.03.014.063.029.1.043l.184-.078.267.069c0,.108,0,.215.006.321q.189-.378.39-.763c0-.09.005-.18.01-.269l-.195-.043-.15.078c-.272-.072-.543-.145-.816-.214-.031.086-.065.172-.1.257Z" transform="translate(-769.766 -444.156)" fill="#fffadc" fill-rule="evenodd"/>
      <path id="Path_19350" data-name="Path 19350" d="M783.208,448.259c-.015.034-.032.066-.051.1-.08.252-.165.5-.252.754.354.006.711.012,1.067.013.021-.05.044-.1.07-.153-.114-.261-.033-.168-.4-.223l.392-.211a.568.568,0,0,0-.021-.058l-.189-.028c.034-.048.071-.1.109-.146l-.308.1c-.144-.006-.285-.012-.426-.02C783.2,448.347,783.2,448.3,783.208,448.259Z" transform="translate(-769.931 -443.84)" fill="#fdd962" fill-rule="evenodd"/>
      <path id="Path_19351" data-name="Path 19351" d="M770.876,452.868c.1.146.605-.373.629-.482a.507.507,0,0,0,.03.051l.441-.442-.128-.18c-.095-.459-.194-.919-.292-1.38l-.236-.051c.027.263.054.526.083.789l.124.1c0,.122.008.244.012.366l.168.34Z" transform="translate(-768.654 -444.066)" fill="#e0240f" fill-rule="evenodd"/>
      <path id="Path_19352" data-name="Path 19352" d="M773.323,449.5q.135.45.271.9c.224-.164.454-.324.682-.484-.007-.015-.013-.03-.019-.045-.235.065-.468.13-.7.2a.323.323,0,0,1-.026-.057c.228-.174.461-.348.693-.519-.019-.136-.036-.273-.053-.41l-.068.018c0,.049.012.1.021.146-.063.037-.122.073-.184.11-.206-.017-.412-.034-.616-.053C773.323,449.367,773.323,449.432,773.323,449.5Z" transform="translate(-768.914 -443.927)" fill="#fffef1" fill-rule="evenodd"/>
      <path id="Path_19353" data-name="Path 19353" d="M773.673,450.84c0,.058,0,.117,0,.176.333-.163.67-.325,1.009-.482q-.245-1.027-.492-2.065c.023.188.053.375.08.56q.042.547.081,1.091c-.038,0-.075,0-.113.006a.958.958,0,0,0,0,.1l.138-.012C774.141,450.423,773.906,450.629,773.673,450.84Z" transform="translate(-768.951 -443.862)" fill="#e12d10" fill-rule="evenodd"/>
      <path id="Path_19354" data-name="Path 19354" d="M784.471,447.757c.056-.277.113-.555.167-.834-.237-.117-.475-.234-.711-.349l-.144-.016-.005.211.162.038-.1.1c.019.039.039.08.06.119-.1.068-.19.134-.282.2.1.013.19.024.288.035,0,.036,0,.071,0,.106l.386.045c.008.045.017.088.027.131C784.367,447.614,784.418,447.686,784.471,447.757Z" transform="translate(-770.007 -443.659)" fill="#fbe09a" fill-rule="evenodd"/>
      <path id="Path_19355" data-name="Path 19355" d="M781.352,451.664c.045.536.341.654.823.782.038.052.071.105.109.159l.071-.113c0-.106,0-.213-.006-.321l-.267-.069-.184.078c-.034-.013-.066-.029-.1-.043l-.135-.034a.968.968,0,0,1,.013-.1l.6.024.015-.084c.06.015.119.031.179.045l-.118-.319c-.3.031-.609.06-.914.088C781.408,451.726,781.38,451.7,781.352,451.664Z" transform="translate(-769.766 -444.201)" fill="#fdda71" fill-rule="evenodd"/>
      <path id="Path_19356" data-name="Path 19356" d="M780.007,446.731c0,.1-.005.2-.009.294l0,.147a.9.9,0,0,1,.29-.021l.386.039c0-.033,0-.065,0-.1.255.028.754-.056.784-.266l-.194,0Q780.634,446.77,780.007,446.731Z" transform="translate(-769.622 -443.678)" fill="#fffef8" fill-rule="evenodd"/>
      <path id="Path_19357" data-name="Path 19357" d="M780.07,446.226c-.02.1-.038.194-.055.29l.093.049q.615-.063,1.232-.121c.013-.1.028-.2.043-.3l-.05-.055C780.912,446.133,780.491,446.178,780.07,446.226Z" transform="translate(-769.624 -443.609)" fill="#fffef8" fill-rule="evenodd"/>
      <path id="Path_19358" data-name="Path 19358" d="M776.4,449.631c.007.072.017.145.026.215q-.355.122-.708.252c.045.064.087.128.13.19.216-.013.43-.024.646-.032l.187-.2c-.1-.5-.2-1-.307-1.5l.01.5.055-.01C776.427,449.24,776.414,449.436,776.4,449.631Z" transform="translate(-769.168 -443.871)" fill="#e43f0e" fill-rule="evenodd"/>
      <path id="Path_19359" data-name="Path 19359" d="M779.928,447.484q-.016.22-.03.44c.148-.018.295-.034.442-.05,0-.066.007-.132.013-.2.112.013.224.027.338.038,0-.021-.008-.043-.012-.065l.849-.082c.015-.048.032-.1.049-.146Q780.753,447.445,779.928,447.484Z" transform="translate(-769.612 -443.751)" fill="#fffef8" fill-rule="evenodd"/>
      <path id="Path_19360" data-name="Path 19360" d="M776.366,446.038q0,.619.005,1.237l-.723-.107c0,.033,0,.066,0,.1.015.016.03.032.047.047l.344-.014c.029.021.059.039.089.058l.34,0c.015-.017.034-.032.051-.049.017-.032.034-.064.053-.1l.051-.1c0-.032,0-.064,0-.1-.036-.05-.049.046-.042-.147,0-.034-.005-.067-.007-.1.021-.03.041-.062.062-.092,0-.033,0-.065,0-.1s0-.064,0-.1c0-.065,0-.13.007-.195-.015-.032-.03-.064-.045-.1s0-.064,0-.1a.5.5,0,0,1-.047-.049l-.046-.048-.1,0Z" transform="translate(-769.16 -443.599)" fill="#e65411" fill-rule="evenodd"/>
      <path id="Path_19361" data-name="Path 19361" d="M783.254,448.129c0,.035-.008.069-.012.1s-.008.088-.012.13c.141.008.282.013.426.02l.308-.1c-.038.049-.075.1-.109.146l.189.028a.568.568,0,0,1,.021.058l-.392.211c.37.055.289-.038.4.223.017-.049.032-.1.047-.148.09-.26.175-.523.252-.785-.179.021-.356.041-.535.06,0,.03-.005.056-.009.084Z" transform="translate(-769.965 -443.814)" fill="#fff9cc" fill-rule="evenodd"/>
      <path id="Path_19362" data-name="Path 19362" d="M776.967,449.541h.049c.015-.016.032-.032.049-.048,0-.033.005-.064.008-.1a1.023,1.023,0,0,1-.04-.1c-.013-.03-.028-.063-.041-.1.012-.178.026-.357.038-.535-.013-.049-.024-.1-.038-.146-.013-.032-.027-.064-.039-.1,0-.048.007-.1.009-.147-.013-.031-.028-.064-.043-.1l-.089-.147-.042-.1c-.014-.018-.03-.033-.045-.049s-.032-.032-.047-.048-.03-.033-.045-.048H776.6c.011.307.13,1.32.344,1.41C776.952,449.316,776.96,449.429,776.967,449.541Z" transform="translate(-769.262 -443.79)" fill="#ed7c1e" fill-rule="evenodd"/>
      <path id="Path_19363" data-name="Path 19363" d="M775.758,449.379c-.013.264-.027.526-.039.788q.353-.13.708-.252c-.009-.071-.019-.143-.026-.215l-.088-.051q-.239.04-.476.084c-.009-.023-.019-.046-.03-.068.155-.092.308-.182.463-.272l.021-.179c-.087.042-.175.084-.262.128Z" transform="translate(-769.168 -443.941)" fill="#fffce8" fill-rule="evenodd"/>
      <path id="Path_19364" data-name="Path 19364" d="M771.456,449.732c.046.031.093.064.139.094.232-.258.469-.515.709-.772l-.424.151c.086-.145.172-.288.261-.433a1.137,1.137,0,0,0-.787.7l.274-.141c.013.02.025.039.039.059-.086.087-.171.173-.254.258A.781.781,0,0,0,771.456,449.732Z" transform="translate(-768.705 -443.894)" fill="#fffce8" fill-rule="evenodd"/>
      <path id="Path_19365" data-name="Path 19365" d="M769.418,447.854q.085.4.187.808l.068.017c.13-.135.263-.272.4-.407-.012-.015-.022-.031-.034-.047-.1.02-.192.038-.288.055-.032-.068-.062-.139-.095-.208.16-.153.512-.444.33-.716Z" transform="translate(-768.499 -443.744)" fill="#fffce8" fill-rule="evenodd"/>
      <path id="Path_19366" data-name="Path 19366" d="M773.878,447.49c-.014-.084-.028-.167-.041-.252l-.211.083c.01.02.022.038.034.056q-.5.416-.995.84c.015.028.03.055.046.081q.574-.306,1.158-.607C773.871,447.624,773.874,447.558,773.878,447.49Z" transform="translate(-768.844 -443.731)" fill="#fffce8" fill-rule="evenodd"/>
      <path id="Path_19367" data-name="Path 19367" d="M772.792,445.417c.024.055.048.108.073.162a.486.486,0,0,0,.043.043c.213-.12.425-.24.639-.358a.45.45,0,0,1-.023-.052c.08,0,.159,0,.241,0,0-.118.006-.236.012-.355l-.7.269c-.092-.009-.184-.02-.274-.03C772.8,445.2,772.8,445.31,772.792,445.417Z" transform="translate(-768.857 -443.479)" fill="#fffef8" fill-rule="evenodd"/>
      <path id="Path_19368" data-name="Path 19368" d="M769.135,446.4l.1-.051.126-.04.46-.216c-.013-.163-.025-.325-.038-.489l.123-.171c-.037-.012-.074-.026-.11-.039C769.679,445.577,768.963,446.131,769.135,446.4Z" transform="translate(-768.466 -443.536)" fill="#fbc377" fill-rule="evenodd"/>
      <path id="Path_19369" data-name="Path 19369" d="M769.138,446.483c.039.29.079.577.118.865.03.019.063.038.095.056.047-.471.35-.174.435-.611-.087.072-.173.143-.26.213-.061-.057-.121-.115-.181-.173l-.061-.017.535-.481,0-.159-.46.216-.126.04Z" transform="translate(-768.469 -443.619)" fill="#fcf1e1" fill-rule="evenodd"/>
      <path id="Path_19370" data-name="Path 19370" d="M779.5,450.04c-.053.159-.1.317-.151.476.144.074.292.148.437.226.061-.213.117-.426.18-.641-.027-.022-.057-.044-.085-.065C779.751,450.035,779.624,450.038,779.5,450.04Z" transform="translate(-769.553 -444.028)" fill="#fdf6c0" fill-rule="evenodd"/>
      <path id="Path_19371" data-name="Path 19371" d="M772,450.09l.047,0,.047-.055c.013-.019.03-.037.046-.056s.03-.037.047-.055.03-.037.046-.056.03-.038.047-.055.032-.037.047-.055l.047-.055c.015-.018.03-.037.047-.055l.094-.059.094-.057.095-.112c.033-.018.063-.038.1-.057l.1-.058c-.017-.12-.032-.238-.046-.358a2.119,2.119,0,0,0-.855.992C772,449.985,772,450.037,772,450.09Z" transform="translate(-768.773 -443.912)" fill="#ce4418" fill-rule="evenodd"/>
      <path id="Path_19372" data-name="Path 19372" d="M777.7,447.322l.3.009.005-.1.189.063c-.012-.239-.059-.748-.3-.782C777.826,446.78,777.761,447.051,777.7,447.322Z" transform="translate(-769.378 -443.654)" fill="#e65411" fill-rule="evenodd"/>
      <path id="Path_19373" data-name="Path 19373" d="M772.96,448.631c.078.048.155.095.236.141,0,.1-.008.21-.013.315q.026.047.056.094.288-.249.582-.5l-.384.022c0-.068,0-.136.006-.2C773.261,448.466,773.031,448.381,772.96,448.631Z" transform="translate(-768.875 -443.861)" fill="#fffce8" fill-rule="evenodd"/>
      <path id="Path_19374" data-name="Path 19374" d="M775.946,446.248c-.022.147-.042.294-.063.442-.005.115-.009.231-.013.345l.244,0c.07-.145.051-.069.055-.246,0-.065.009-.13.014-.2-.019-.151-.034-.3-.05-.455Z" transform="translate(-769.184 -443.614)" fill="#f69c56" fill-rule="evenodd"/>
      <path id="Path_19375" data-name="Path 19375" d="M776.338,448.4c-.021-.147-.047-.293-.071-.44l-.062.095c0,.034,0,.068,0,.1-.131.044-.258.087-.386.131-.009.106-.017.215-.022.32C775.978,448.534,776.159,448.465,776.338,448.4Z" transform="translate(-769.177 -443.808)" fill="#fcf1e1" fill-rule="evenodd"/>
      <path id="Path_19376" data-name="Path 19376" d="M787.407,446.77c0-.018,0-.037,0-.055l-.1,0c0,.019,0,.037,0,.055Z" transform="translate(-770.399 -443.676)" fill="#f9fbfd" fill-rule="evenodd"/>
      <path id="Path_19377" data-name="Path 19377" d="M769.833,444.906a.508.508,0,0,1,0-.053l-.05,0c0,.018,0,.036,0,.054Z" transform="translate(-768.538 -443.478)" fill="#8a6980" fill-rule="evenodd"/>
    </g>
    <g id="Group_5098" data-name="Group 5098" transform="translate(767.809 436.205)">
      <path id="Path_19378" data-name="Path 19378" d="M782.7,436.842h-.162l-.243.027h-.378c-.3.044-.58.113-.89.135l-.189.027-.163.028-.135.027-.162.027c-.337.056-.668.133-1,.216l-.107.027-.135.027-.055.028-.054.027-.054.027-.055.027-.054.027-.108.028-.054.027-.055.027-.054.027-.027.028-.055.027-.08.027-.055.027c-.25.125-.457.31-.7.433l-.054.027-.081.027-.054.027-.054.027-.055.028-.054.027-.054.027-.081.027-.054.028a2.847,2.847,0,0,0-.7.486l-.055.027-.027.027a4.068,4.068,0,0,0-.538.619c-.039.117-.133.206-.164.326l-.027.08-.027.108-.027.055-.028.08-.027.108-.027.216v.108l-.027.054v.027l.027.19.027.081.027.054.055.027.027.028.027.027.027.054.028.027.054.028.027.027.108.027.108.027h.215l.162-.027.108-.027.108-.027.054-.028.081-.027.081-.027.055-.027.054-.027.054-.028.081-.027.027-.027.027.027-.027.108-.027.189-.027.135v.162l.027.135.027.108.027.027.028.055.027.027.027.027.027.027.055.027.054.028.108.027.107.027h.378l.108-.027.08-.027.055-.028.08-.027.081-.027.027-.027.055-.027.08-.028.027-.027.055-.027.027-.027.054-.028v.028l-.027.054-.027.081-.027.054-.028.055-.027.054-.027.055a.54.54,0,0,0,0,.479l.056.088.028.027.054.028.027.027.055.027.08.027.108.027h.3l.108-.027.108-.027.08-.027.108-.027.08-.028.081-.027.054-.027.081-.027.054-.028.028-.027v.027l-.028.028-.027.054-.054.081a.533.533,0,0,0-.027.351l.027.08.027.055.027.054.027.055.028.027.027.027.054.027.055.027.162.028h.215a.534.534,0,0,0,.324-.108c.042-.042.092-.065.135-.108l.055-.027.027-.028.054-.027.028-.027.027-.027.054-.027.027-.028.027-.027.028-.027.027-.027.054-.027.027-.028.028-.027.054-.027.054-.027.028-.028a23.506,23.506,0,0,0,.269-.215l.028-.028.054-.054a.54.54,0,0,0,.162-.108l.027-.027c.141-.071.242-.175.378-.243l.081-.027.432-.216.054-.027.108-.027h.432l.054.027a1.769,1.769,0,0,1,1.025.459l.163.108.027.028.027.027a2.429,2.429,0,0,0,.324.162l.055.027.027.028.08.027c.193.193.453.318.648.513l.054.027.027.027.028.028.054.027.027.027.027.027.028.027a.984.984,0,0,1,.272.2,1.577,1.577,0,0,1,.625.7l.027.028a2.461,2.461,0,0,1,.478.724,2.194,2.194,0,0,1,.325.809l.027.081.027.054.027.055.027.081.028.08.027.108.027.055.027.08.027.081.028.054.027.081.027.081.027.107.027.136.028.08.027.163.027.432v.324l.027.108v.054l-.027.324-.027.107-.027.163-.028.054-.027.081-.027.081-.027.054-.027.081-.028.054-.027.055-.027.054-.027.054-.027.028-.028.054-.027.027-.027.081-.027.027-.027.027-.027.055-.028.027-.027.027-.027.081-.027.027L787.8,450l-.028.027-.027.027-.027.054-.027.028-.027.027-.055.054-.027.055-.027.054-.027.055-.027.054-.028.027-.027.055-.027.027-.027.027-.055.027-.054.055-.027.027-.027.027-.055.027-.027.028-.027.027-.081.027-.027.027-.054.055-.027.027-.028.027-.027.055-.054.027-.027.027-.028.027-.027.028-.054.027-.027.027-.028.027-.027.027-.027.028-.027.027-.027.027-.055.027-.027.028-.027.027-.027.027-.027.027-.055.027-.027.028-.054.027-.028.027-.054.027-.054.055-.055.027-.027.027a5.68,5.68,0,0,0-.573.293,1.033,1.033,0,0,1-.4.146l-.209.047-.756.027h-.594l-.512-.027h-.108l-.378-.027-.135-.027-.162-.028-.081-.027-.081-.027-.054-.027-.135-.027-.055-.028-.081-.027-.027-.027-.055-.027-.054-.028-.055-.027-.054-.027-.054-.027-.028-.027-.027-.028-.027-.027-.027-.027-.027-.055-.055-.027-.027-.027a9.208,9.208,0,0,0-3.589-2.4l-.108-.028-.189-.027-.162-.027-.27-.027h-.621l-.3.027a7.076,7.076,0,0,0-1.241.27c-1.974.659-4.267,2.249-4.936,4.257a2.154,2.154,0,0,0-.11.463h.027a3.1,3.1,0,0,1,1.1-1.076c.934-.748,2.42-.89,3.6-1.239a20.428,20.428,0,0,1,2.762-.262,14.469,14.469,0,0,1,1.673.19,6.377,6.377,0,0,0,1.385.368,7.175,7.175,0,0,0-2.151-.629,8.658,8.658,0,0,0-2.579,0,14.712,14.712,0,0,0-2.279.5,9.555,9.555,0,0,0-1.035.336,4.285,4.285,0,0,1,.956-.526,12.052,12.052,0,0,1,2.88-.575,7.116,7.116,0,0,1,2.492.18,12.6,12.6,0,0,1,2.2.821l.762.423.141.118-1.273-.568,2.205,1.324.027.028h.08v.027l.055.027a5.3,5.3,0,0,0,.729.4l.054.028a3.556,3.556,0,0,1,.54.215l.081.028.107.027.27.027.378.027.647.027h.729l.27-.027.08-.027.243-.027.4-.081.081-.027.054-.027.081-.028.055-.027.054-.027.027-.027a2.074,2.074,0,0,0,.27-.108c.181-.061.358-.129.54-.19l.054-.027.081-.027.08-.027.055-.028.027-.027.027-.027.027-.027.055-.027a.928.928,0,0,0,.242-.136l.055-.027.027-.027a1.623,1.623,0,0,0,.243-.135l.027-.027.08-.027.028-.055.027-.027.027-.027.054-.028.028-.027.054-.027.027-.027c.064-.063.15-.1.216-.163l.054-.027.027-.027.027-.027a1.2,1.2,0,0,0,.27-.243l.055-.027.027-.028c.087-.043.144-.144.215-.215l.055-.028.027-.027.027-.027.027-.027.055-.027a2.662,2.662,0,0,0,.512-.541l.028-.027.027-.027.027-.027.027-.028.027-.027.027-.027.028-.055.027-.054.027-.027.027-.055.027-.027.028-.027.027-.055.027-.027c.082-.164.186-.317.27-.486l.027-.08.027-.028.027-.054.028-.027.027-.055.027-.08a.83.83,0,0,0,.135-.243l.027-.055.027-.054c.035-.1.1-.189.135-.3l.028-.054.027-.135.027-.055.027-.135.027-.054.027-.081.028-.108.027-.135.027-.108.027-.189v-.3l.027-.243v-.621l-.027-.189v-.216l.027-.432v-.108l-.027-.163v-.189l-.027-.216-.027-.27a5.829,5.829,0,0,1-.189-.864l-.028-.081-.027-.08-.027-.135-.027-.055-.027-.054c-.077-.383-.371-.673-.459-1.027l-.027-.08-.027-.055-.027-.054-.027-.081-.028-.027-.027-.027-.027-.055-.027-.08-.027-.081-.028-.054-.027-.055-.027-.081-.027-.027-.027-.054-.028-.055-.027-.054-.027-.027-.027-.055-.027-.054-.027-.055-.028-.027-.027-.054-.027-.055-.027-.027-.027-.027-.028-.055-.027-.027-.027-.027-.027-.027-.027-.055-.028-.027-.027-.054-.027-.028-.027-.054-.027-.027-.028-.055-.027-.027-.027-.027-.027-.027-.027-.027-.027-.028-.028-.027-.027-.054-.027-.028-.027-.054-.027-.054-.028-.028-.027-.054-.027-.027-.027-.028-.027-.027-.027-.027-.028-.054-.027-.028-.027-.054-.027-.027-.055-.028-.027-.054-.027-.027-.027-.027-.027-.055-.028-.027-.027-.055-.027-.027-.027-.027-.027-.027A3.6,3.6,0,0,0,788.578,439l-.027-.027-.027-.027-.027-.027-.055-.027-.027-.028-.054-.027-.028-.027-.027-.027-.027-.028-.027-.027-.027-.027c-.348-.174-.672-.458-1.053-.648l-.054-.027-.027-.028-.081-.027-.054-.027-.055-.027-.08-.028c-.434-.145-.816-.371-1.242-.513l-.108-.027-.107-.027-.081-.027-.081-.028-.08-.027-.108-.027-.08-.027-.108-.027-.055-.028-.08-.027-.108-.027-.08-.027-.055-.028-.162-.027-.081-.027-.107-.027-.135-.027A9.341,9.341,0,0,0,782.7,436.842Z" transform="translate(-768.338 -436.842)" fill="#111a28" fill-rule="evenodd"/>
      <path id="Path_19379" data-name="Path 19379" d="M783.38,437.084h-.621a9.075,9.075,0,0,0-3.761.961c-.829.518-2.293,1.249-2.533,2.3-.593,1.761,1.555.307,1.786.442.031.066-.708,1.177-.015,1.291.512.084,1.285-.514,1.484-.357l-.046-.015a5.873,5.873,0,0,0-.38.561.645.645,0,0,0-.005.322l.077.13c.318.427,1.695-.259,1.641-.276l-.275.4-.086.2a.434.434,0,0,0,.1.4l.065.047c.435.215,1.216-.687,1.592-.964a4.33,4.33,0,0,1,1.82-.852,6.933,6.933,0,0,1,4.541.176,6.5,6.5,0,0,1,3.014,2.305,10.46,10.46,0,0,1,.888,1.757c.127.322.425,2.143.486,2.187a8.058,8.058,0,0,0-.067-2.31,12.109,12.109,0,0,0-.488-2.05,12.753,12.753,0,0,0-2.017-3.3A9.835,9.835,0,0,0,783.38,437.084Z" transform="translate(-769.049 -436.868)" fill="#fff" fill-rule="evenodd"/>
      <path id="Path_19380" data-name="Path 19380" d="M792.537,447.833l.054.378v.3a6.725,6.725,0,0,1-2.6,4.686,4.69,4.69,0,0,1-2.65.993,4.154,4.154,0,0,1-1.65-.091c-.333-.086-1.149-.411-1.352-.429.412.627,2,.989,2.78,1a5.839,5.839,0,0,0,3.137-.615,10.051,10.051,0,0,0,2.16-1.646,5.148,5.148,0,0,0,.787-1.1,14.173,14.173,0,0,0,.5-1.417,9.682,9.682,0,0,0-.776-3.546c-.244-.622-1.239-2.4-1.949-2.4.133.27.412.49.557.821.154.349.282.587.437.913A10.494,10.494,0,0,1,792.537,447.833Z" transform="translate(-769.896 -437.596)" fill-rule="evenodd" fill="url(#linear-gradient)"/>
      <path id="Path_19381" data-name="Path 19381" d="M791.091,450.266c-.167.694-1.672,1.877-2.3,2.233a7.641,7.641,0,0,1-3.58.981,4.936,4.936,0,0,0,1.322.3h.486a3.663,3.663,0,0,0,2.343-.544,10.323,10.323,0,0,0,1.6-1.373c.061-.253.276-.355.417-.556.128-.184.2-.451.318-.653a2.541,2.541,0,0,0,.48-1.465v-.973a8.287,8.287,0,0,0-.715-2.444c-.75-1.931-1.245-2.153-2.844-3.255l-.375-.081c.185.222,1.2,1.3,1.4,1.63a11.91,11.91,0,0,1,1.123,1.756C791.2,446.7,791.82,449.449,791.091,450.266Z" transform="translate(-769.989 -437.436)" fill-rule="evenodd" fill="url(#linear-gradient-2)"/>
      <path id="Path_19382" data-name="Path 19382" d="M788.507,444.442a8.47,8.47,0,0,1,1.419,2.631,4.5,4.5,0,0,1-.138,3.352,8.657,8.657,0,0,1-2.032,2.018c-1.2.756-2.031.508-3.514.508a3.386,3.386,0,0,0,.981.242l.693.028c1.111,0,2.33-.877,3.265-1.351l.755-.621c.488-.686.815-.739.976-1.751a7.484,7.484,0,0,0,.077-1.3c0-.522-.163-.872-.163-1.215-.1-.114-.555-1.066-.689-1.309-.24-.438-.58-.779-.807-1.191-.407-.74-1.619-1.407-2.119-1.849a2.255,2.255,0,0,0-.526-.1l-.354.038Z" transform="translate(-769.886 -437.446)" fill-rule="evenodd" fill="url(#linear-gradient-3)"/>
      <path id="Path_19383" data-name="Path 19383" d="M770.193,454.7c.258-.175.949-1.122,1.247-1.394a11.247,11.247,0,0,1,1.666-1.156,6.881,6.881,0,0,1,3.322-.964,7.132,7.132,0,0,1,3.28,1.189,5.6,5.6,0,0,1,1.335.887,3.792,3.792,0,0,0,1.384.933,8.089,8.089,0,0,1-1.233-1.012,11.4,11.4,0,0,0-1.136-1.043,5.3,5.3,0,0,0-3.448-1.489C774.587,450.654,770.9,452.58,770.193,454.7Z" transform="translate(-768.394 -438.308)" fill-rule="evenodd" fill="url(#linear-gradient-4)"/>
      <path id="Path_19384" data-name="Path 19384" d="M777.579,452.031l.039.007-.039-.007v.185c.323.053.494.117.818.187.262.056.69.252.868.278h0c.012.012,1.846.951,1.877.952a7.075,7.075,0,0,0-.848-.694c.021,0-.017-.022-.1-.067a1.772,1.772,0,0,0-.3-.167l-.1-.036a15.818,15.818,0,0,0-2.209-.939Zm-.038-.007.038.007v-.3a3.58,3.58,0,0,0-1.695-.16,8.377,8.377,0,0,0-3.139,1.09A9.7,9.7,0,0,0,771,454.243a22.172,22.172,0,0,1,1.914-1.333,7.091,7.091,0,0,1,2.471-.66,10.3,10.3,0,0,1,2.068-.054l.13.019v-.185Z" transform="translate(-768.48 -438.401)" fill-rule="evenodd" fill="url(#linear-gradient-5)"/>
      <path id="Path_19385" data-name="Path 19385" d="M793.2,447.711a10.494,10.494,0,0,0-.571-2.157c-.156-.325-.283-.563-.437-.913-.145-.331-.424-.551-.557-.821.711,0,1.705,1.775,1.949,2.4a9.682,9.682,0,0,1,.776,3.546c.021.237.108-.214.108-.216V449.2a7.871,7.871,0,0,0-1.12-4.012,5.762,5.762,0,0,0-1.133-1.431,16.116,16.116,0,0,0-1.605-.959c.071.1.283.267.435.483.128.183.292.357.407.538a11.724,11.724,0,0,1,.682,1.208C792.379,445.523,793.147,447.631,793.2,447.711Z" transform="translate(-770.562 -437.474)" fill="#005dab" fill-rule="evenodd"/>
      <path id="Path_19386" data-name="Path 19386" d="M780.046,453.327l1.377.616-.821-.458a13.186,13.186,0,0,0-2.138-.877,7.68,7.68,0,0,0-2.5-.177,6.249,6.249,0,0,0-2.6.59,4.465,4.465,0,0,0-.649.32,5.38,5.38,0,0,0-1.062.766c.295-.071,1.3-.755,1.847-.923a14.866,14.866,0,0,1,2.224-.434,7.328,7.328,0,0,1,2.292.033A10.836,10.836,0,0,1,780.046,453.327Z" transform="translate(-768.55 -438.494)" fill-rule="evenodd" fill="url(#linear-gradient-6)"/>
      <path id="Path_19387" data-name="Path 19387" d="M791.709,445.727a8.287,8.287,0,0,1,.715,2.444v.973a2.541,2.541,0,0,1-.48,1.465c-.12.2-.19.469-.318.653-.14.2-.356.3-.417.556a4.987,4.987,0,0,0,1.128-1.68,4.463,4.463,0,0,0,.3-2.421,17.387,17.387,0,0,0-.762-2.047c-.161-.49-.863-1.516-.947-1.826l-.1-.088-.165-.17h0a8.817,8.817,0,0,0-1.012-.891c-.064-.055-.295-.175-.474-.276a2.035,2.035,0,0,0-.236-.139l-1.337-.241-.006.038c.1.122,1.37,1.05,1.694,1.374a9.167,9.167,0,0,1,1.326,1.753,8.564,8.564,0,0,1,.851,2.227,7.613,7.613,0,0,1,.08,1.428c-.029.367-.2,1.146-.2,1.368.728-.817.111-3.567-.333-4.447a10.463,10.463,0,0,0-1.047-1.654c-.2-.318-1.348-1.587-1.474-1.732l.375.081C790.458,443.569,790.96,443.8,791.709,445.727Z" transform="translate(-770.242 -437.393)" fill="#005fb1" fill-rule="evenodd"/>
      <path id="Path_19388" data-name="Path 19388" d="M788.669,444.41l-2.175-1.873a3.222,3.222,0,0,1,.541-.013l.339.076c.5.442,1.713,1.109,2.119,1.849.227.412.567.753.807,1.191.134.242.587,1.194.689,1.309-.124-1.4-2.188-3.68-3.238-4.375h0c-.442-.622-2.021-.208-1.982-.262Z" transform="translate(-770.048 -437.413)" fill="#003f92" fill-rule="evenodd"/>
      <path id="Path_19389" data-name="Path 19389" d="M790.986,443.783l.1.088a6.87,6.87,0,0,0-.683-.919,2.308,2.308,0,0,0-.978-.587l-.328-.059c.214.164.683.442,1.065.74A6.663,6.663,0,0,1,790.986,443.783Z" transform="translate(-770.401 -437.422)" fill="#00257d" fill-rule="evenodd"/>
      <rect id="Rectangle_705" data-name="Rectangle 705" width="0.025" height="0.026" transform="translate(0 19.854)" fill="#e8c6c3"/>
    </g>
    <g id="Group_5099" data-name="Group 5099" transform="translate(784.046 446.425)">
      <path id="Path_19390" data-name="Path 19390" d="M788.346,450.794l-.061-.03-.03-.03-.03-.03-.03-.03-.03-.03-.03-.03-.03-.03-.03-.03-.091-.061-.061-.03-.121-.03-.091-.03-.03-.03-.091-.03-.091-.03-.06-.03-.061-.03-.061-.03a.632.632,0,0,1-.182-.122l-.06-.03-.03-.03-.03-.03-.03-.03-.03-.03-.03-.061-.03-.061-.03-.061-.03.03-.03.03-.03.03-.029.03-.03.091-.03.03-.03.091-.054.281-.014.085-.084-.123-.03-.03-.03-.06-.03-.03-.029-.091-.03-.091v-.243l.03-.181.029-.061.03-.061.03-.061.03-.03.03-.03.061-.03.061-.03.03-.03h.181l.03-.03.03-.061.273-.273v-.182a.681.681,0,0,0-.394-.182.458.458,0,0,0-.273.091l0,.217.4.3h-.152l-.029-.03-.03-.03-.03-.03-.061-.03-.03-.03-.03-.03-.03-.03-.03-.061-.03-.061v-.213l.03-.03.061-.03.061-.03.03-.03h.273l.091.03.03.03.061.03.03.03.03.03.03.03.03.03.03.03.03.061v.061h.061v-.091l.03-.182.03-.03.03-.03.03-.03.029-.03.03-.029.03-.03.03-.03.061-.03.061-.03.091-.03h.333l.121.03.091.03.061.03.061.03.091.03.2.07-.051.021-.333.03-.091.03-.06.03-.091.03a.555.555,0,0,1-.152.122l-.03.061-.03.03.03.061.061.03.03.03.03.03.061.03.03.03.03.03.03.03.03.03.03.03.03.03.03.061.03.061.03.03.03.061.03.091.03.061.03.091.212.06.061.03.061.03.03.061.03.03.029.03.03.122.03.152v.09l-.03.03h-.03l-.06-.03v-.06l.03-.061a.367.367,0,0,0-.333-.4l.09.365.03.03v.061l.03.03.091.03.091.03.029.03v.03H788.8l-.03.03.03.061.03.03v.061l-.03.03h-.242v.061l.03.03.029.03h.061v.091l-.03.03h-.212Z" transform="translate(-786.346 -448.275)" fill="#0d2111" fill-rule="evenodd"/>
      <path id="Path_19391" data-name="Path 19391" d="M787.024,449.541c.06-.248.115-.418.394-.485h.082l-.013.1-.13.048.069.116-.016.033-.206-.058a.735.735,0,0,0-.06.273c0,.085.013.056.06.091l.008.105.536.223.1-.159.132.065-.021.23.141.072.047.134.485.027c-.126.031-.095.061-.243.061h-.03l-.333-.038a2.706,2.706,0,0,0-.576-.357C787.131,449.84,787.146,449.629,787.024,449.541Z" transform="translate(-786.418 -448.358)" fill="#7cb326" fill-rule="evenodd"/>
      <path id="Path_19392" data-name="Path 19392" d="M787.024,449.6c.121.088.107.3.425.484a2.706,2.706,0,0,1,.576.357l.333.038h.03c.148,0,.117-.03.243-.061v.182a2.013,2.013,0,0,1-1.6-.667Z" transform="translate(-786.418 -448.416)" fill="#fffef1" fill-rule="evenodd"/>
      <path id="Path_19393" data-name="Path 19393" d="M786.943,449.217h-.122v-.03h.122l-.4-.3,0-.217a.458.458,0,0,1,.273-.091.681.681,0,0,1,.394.182v.182Z" transform="translate(-786.367 -448.307)" fill="#a7c63f" fill-rule="evenodd"/>
      <path id="Path_19394" data-name="Path 19394" d="M787.22,449.655c-.047-.035-.06-.006-.06-.091a.735.735,0,0,1,.06-.273l.206.058.016-.033-.069-.116.13-.048.013-.1h-.082l.062-.025.244-.042.058.037.061.03c.056.135.176.041.183.3l.2.056.073.385.1-.051.012.156.12.038v-.091l.091.577v-.061l-.485-.027-.047-.134-.141-.072.021-.23-.132-.065-.1.159-.536-.223Z" transform="translate(-786.432 -448.35)" fill="#69ab1b" fill-rule="evenodd"/>
      <path id="Path_19395" data-name="Path 19395" d="M786.447,450.074v-.152c0-.287.164-.4.425-.425l0,.185c-.055.07-.182.215-.216.27-.09.148-.069.3-.127.388A.392.392,0,0,1,786.447,450.074Z" transform="translate(-786.357 -448.405)" fill="#a7c63f" fill-rule="evenodd"/>
      <path id="Path_19396" data-name="Path 19396" d="M787.94,449.056c.424.009.558.488.7.788v.091l-.12-.038-.012-.156-.1.051-.073-.385-.2-.056C788.116,449.1,788,449.191,787.94,449.056Z" transform="translate(-786.515 -448.358)" fill="#a4c220" fill-rule="evenodd"/>
      <path id="Path_19397" data-name="Path 19397" d="M788.211,448.377l-.021.14-.163.01-.18.335-.213-.03v-.213C787.866,448.466,787.882,448.377,788.211,448.377Z" transform="translate(-786.483 -448.286)" fill="#83b40f" fill-rule="evenodd"/>
      <path id="Path_19398" data-name="Path 19398" d="M788.946,450.3l-.09-.365a.367.367,0,0,1,.333.4l-.061.03h-.122Z" transform="translate(-786.612 -448.452)" fill="#7cb326" fill-rule="evenodd"/>
      <path id="Path_19399" data-name="Path 19399" d="M788.236,448.377l.242.061c-.187.13-.36.115-.515.425h-.091l.18-.335.163-.01Z" transform="translate(-786.508 -448.286)" fill="#fdeead" fill-rule="evenodd"/>
      <path id="Path_19400" data-name="Path 19400" d="M788.381,450.787a1.561,1.561,0,0,0,.181.03h.093l.089.214C788.6,450.989,788.419,450.928,788.381,450.787Z" transform="translate(-786.562 -448.542)" fill="#a7c63f" fill-rule="evenodd"/>
    </g>
    <g id="Group_5100" data-name="Group 5100" transform="translate(770.751 451.817)">
      <path id="Path_19401" data-name="Path 19401" d="M773.374,456.169l-.208.184v.1l-.133-.015-.035.03v-.209a.3.3,0,0,0,.054-.058H773v-.109a.6.6,0,0,0,.284-.1v.022l.246-.022v-.1h-.1c-.089,0-.11.048-.189.025s-.048-.059-.124-.112l-.017-.017v-.017l.017-.017.033-.017.032-.018h.017l.033-.034.016-.017.033-.018.033-.017.033-.017.016-.017.049-.018h.148l.016.018.033.017.016.017.017.017.016.018.017.017.016.017.016.035.017.034.016.052.017.051.016.069h.1l.329.018.115.017.066.017.082.017h.066l.049.017.032.018.066.017.049.017.017.017v.1l-.017.017v.051l-.016.018-.017.017h-.181l-.033-.017-.049-.018-.049-.017-.033-.017-.049-.017-.049-.017-.033-.018-.066-.017-.049-.017-.082-.017-.115-.017h-.131v.154l.016.121v.017l-.016.052-.016.086v.017l.049.018.065.017.033.017.033.017.016.017.05.018.033.017.032.017.033.017.016.018.017.017v.069l-.017.086-.016.017-.033.017-.016.035-.016.017-.033.017-.05.034-.016.018-.033.017-.016.034h-.033l-.016-.017-.066-.017-.066-.017-.032.017-.017.017-.016.035-.017.017-.016.034-.016.018-.017.017-.033.017-.016.034-.017.018-.016.017-.016.017-.017.017-.016.018-.016.034-.017.017-.016.017-.017.035-.016.034-.016.017-.05.018h-.1l-.1-.018-.032-.017-.049-.017-.017-.017,0-.005v-.39l.038.048.094.016c.055-.057.22-.132.168-.222h0l-.3.02v-.394l.476-.047.038-.338-.136.029Zm-.377-.195a.365.365,0,0,0,.071-.051v-.1l-.017-.035h-.016l-.038-.043v.232Zm0-.463h.021v.068h.032l.053-.1.046.08h.016l.033-.017.066-.017.016-.017.016-.035.05-.017.049-.017.016-.018h.082v-.017l-.016-.017.032-.017v-.017l.033-.017.066-.035.016-.017.017-.017.016-.018.033-.017.033-.034.033-.017.032-.018.017-.017.033-.017.032-.018.017-.017h.065v-.069l.033-.017.033-.017v-.017l.017-.035.016-.034.016-.069.017-.017v-.018l-.033-.017-.016-.017h-.033l-.017-.017-.033-.017-.032-.017h-.2l-.033.017-.033.017-.016.017-.033.017-.033.017-.033.018-.016.017-.033.017-.049.017-.016.018-.033.017-.033.017-.066.017-.032.017-.033.018h-.05v-.447l.017-.035v-.069l-.017-.017-.016-.017-.033-.017-.016-.017-.033-.017-.016-.018-.033-.017h-.016l-.021,0Zm0,.955-.054.047.009.017.045,0v.394l-.1.007.1.13v.39l-.012-.012-.017-.018-.016-.017-.016-.017-.033-.017-.017-.017-.016-.018-.033-.017-.016-.034-.017-.018-.016-.017-.017-.051-.016-.018-.016-.017-.017-.052-.1-.137-.115-.018h-.214l-.033-.017-.033.052-.016.051H772.2l-.017-.009v-.375l.148-.287-.148.032v-.341h0l.016.034v.069l.05.017.164-.017.016-.034.016-.017.017-.018.016-.051.017-.018.016-.034.016-.034.017-.035.016-.017.017-.052.016-.034.016-.035.017-.051.016-.052.017-.035.016-.034.017-.052.016-.034.016-.034.017-.035v-.017l-.033-.069-.016-.034v-.155l.016-.07.016-.034.017-.034.016-.052.016-.052.017-.069.016-.069.017-.034v-.017l-.017-.017-.016-.017-.017-.018-.016-.017-.016-.017-.017-.052-.016-.052v-.1l.016-.017.017-.018.016-.017.033-.017.049-.017.033-.017.016-.017.017-.018.094-.014v1.2h-.029v.052l-.09-.021-.036.166.081-.049.073.083v.232a.174.174,0,0,0-.094.121.825.825,0,0,0,.094,0v.109a.333.333,0,0,0-.341.223h.037l-.02.1.18-.031a.309.309,0,0,1,.144-.233v.209Zm-.819-.981.017.01h.1l.065-.018.017-.017.033-.017.016-.018.016-.017.017-.017.016-.017.017-.052.016-.034v-.172l-.016-.034-.017-.034-.016-.018-.017-.051-.016-.018-.016-.017-.017-.017-.016-.017-.033-.035-.016-.017-.033-.017-.016-.017-.033-.018-.033-.017-.034-.009Zm0-.7v.7l-.015-.008-.05-.017-.032-.017-.017-.018-.016-.017-.017-.017-.016-.017-.016-.017-.017-.017-.016-.018-.017-.017-.016-.017-.016-.017H771.9l-.032.017h-.017l-.033-.052-.016-.017-.017-.034V455.1l.017-.1.016-.069.017-.121.016-.034.033-.017.049-.017.016-.017h.066l.033-.018h.049l.016.035.017.017.016.017.032.008Zm0,1.28v.341l-.064.013-.063-.05-.022.014.117.291.026,0,.006-.012v.375l-.015-.008h-.082l-.033-.017-.049-.017-.017-.017-.033-.018-.016-.017-.016-.017-.017-.017-.016-.018-.016-.017-.017-.017-.016-.017-.017-.017-.016-.035-.017-.034-.016-.017-.016-.018-.017-.034-.016-.052-.017-.034-.016-.017v-.069l-.017-.069-.016-.069-.016-.052-.017-.034-.016-.035-.016-.017-.033-.017v-.069l-.017-.086-.016-.069-.016-.052-.017-.069V455.8l-.016-.017v-.069l.016-.017.033-.017.016-.035.066-.017.033-.017.032-.017v-.018h.05l.033.018.016.034.033.017.016.018.017.017.016.017.033.017.016.018.017.017.032.017.017.017.016.017.017.018.016.017.016.034.017.018.016.017.017.017.016.017.016.018.017.034.016.017.017.035Z" transform="translate(-771.472 -454.308)" fill-rule="evenodd"/>
    </g>
    <g id="Group_5101" data-name="Group 5101" transform="translate(774.02 451.894)">
      <path id="Path_19402" data-name="Path 19402" d="M777.045,455.215a.614.614,0,0,0-.157.029v-.836l.016,0,.063.016.031.016.031.017.016.016.015.016.016.017.015.016.016.049v.131l-.016.016-.015.033-.016.033-.015.016-.016.016-.015.017-.016.016-.031.016h-.031v.033l.063.016.016.017.015.016.016.017.015.032v.017l-.015.081-.016.017-.031.016.125.016.016.017.016.016.015.016.031.017.016.016.015.066.016.328.016.13v.033l-.016.2-.016.049-.015.049-.016.033-.015.033-.016.049-.015.033-.016.032-.016.049-.015.017-.031.016-.016.016-.015.017h-.016l-.015-.017-.016-.016-.016-.016-.031-.017-.015-.016v-.049l-.016-.066-.015-.065-.016-.032v-.35a.126.126,0,0,1,.032.185l.061.035a.821.821,0,0,0,.1-.411v-.131a.737.737,0,0,0-.031-.2Zm-.157,1.919.016-.017.015-.016.016-.016.015-.033.016-.016.015-.033.016-.049.016-.033.015-.049.016-.033v-.311l-.016-.033-.015-.032-.016-.017-.031-.016-.016-.017-.015-.032-.016-.033-.015-.033-.016-.016v.295h.016a.33.33,0,0,1-.016.348Zm0-1.891c-.085.027-.168.069-.189.119l.011.016.067-.051.051.056.02.155-.07.2.1-.018.014.013v.35h0l-.016-.016-.015-.049L776.84,456l-.015-.017-.031-.016-.032.016-.015.017-.016.049-.015.032-.016.05-.015.048-.016.181-.016.033-.015.016h.063l.031-.016.031-.082.016-.016.016-.017.015-.016h.047l.015.016.016.017h0v.295h-.031c-.113.032-.22.327-.217.441l.029.036a.268.268,0,0,0,.22-.129v.194h0l-.031.016-.016.033-.031.016-.015.017-.016.016-.031.016-.063.017h-.095l-.015-.017-.016-.016-.031-.016-.016-.017-.015-.016-.016-.2-.031.032-.015.017-.016.016-.016.017,0,0v-.263l0,0,.016-.017.016-.032.015-.017.016-.016-.016-.016-.047.016h0v-.585l.021-.008.094.143.024-.006.078-.2-.055.029-.1-.047-.017-.133c-.012-.1.123-.232.144-.313l-.114.044-.042-.044H776.4v-.638h0l.016-.017.016-.016.015-.017.016-.016.015-.016.016-.017.015-.016.016-.016.031-.033.016-.016.031-.017.015-.016.016-.016.015-.017.016-.016.016-.017.015-.016.016-.016.015-.016-.015-.017h-.063l-.031.017h-.031l-.031-.017-.031-.016-.016-.016-.015-.017-.031-.016-.016-.017-.031-.016-.019-.01v-.122h.411l.079.013Zm-.49-.849v.122l-.012-.006-.016-.017v-.016l.016-.082Zm0,.576v.638h-.06v.033h-.047l.015.05-.052.006-.057.124c-.021.048-.015.022-.015.082v.065c0,.161.107.206.216.171v.585l-.044.015-.016.017-.031.016-.016.016-.031.017-.031.016-.015.016H776.2l-.015-.016-.016-.016-.016-.017v-.065l.016-.049.016-.033.015-.081.016-.017.031-.016.015-.016.016-.017.015-.032h-.015v-.017h.015v.017l.032-.017.031-.016-.079-.017-.031-.016-.031-.016-.016-.017-.031-.016-.016-.016-.015-.017-.031-.033-.016-.016-.016-.032-.015-.017-.016-.033-.015-.048v-.247l.015-.033.016-.049.015-.032.016-.033h.016v-.033l.015-.016.016-.016.015-.033.016-.016.016-.033.015-.033.031-.016.031-.017.016-.032.015-.017.016-.016.016-.016.015-.017h.016V455.4l.015-.017.016-.016-.031-.016-.016-.017-.015-.049-.016-.032-.016-.017v-.1l.016-.033.016-.081.015-.017.016-.016.044-.015Zm0,1.84-.012.012-.016.016-.015.017-.016.033-.015.016-.016.016-.016.033-.015.016-.016.017-.015.016-.016.033-.015.016-.016.017-.015.016-.016.016-.016.016-.015.017-.016.016-.015.016-.016.017-.016.016-.015.017-.031.016-.016.016-.031.017-.031.016-.031.016h-.079l-.047-.016-.015-.016-.023-.012v.274h.038l.079-.016.047-.016.031-.017.031-.016.031-.016.016-.017.031-.016.015-.017.016-.016.016-.016.015-.016.016-.017.015-.016.016-.017.016-.016.031-.016.015-.017.016-.016.015-.016.016-.017.015-.016.032-.033.015-.016.016-.017.015-.016.016-.016.012-.013v-.263Zm-.648.1v-.468l.007-.016.016-.033.015-.033.016-.032.016-.05h.094v.033l-.016.049-.015.049v.066l-.016.148-.015.033-.016.032-.015.066-.016.032-.016.033-.015.049-.016.033-.007.008Zm0-1.927v-.414l.007,0,.031.017.032.016.015.016.016.033.015.016.016.016.015.017v.114l-.015.049-.016.049-.015.033-.016.017-.015.016h-.071Zm0-.414v.414h-.134l-.031.016-.016.017-.031.016h-.031V455l.016-.016.015-.033.016-.016.015-.017.016-.049v-.049l-.016-.049v-.1l-.015-.032v-.033l.015-.016.016-.05.015-.016.032-.016h.047l.016.016.016.016.015.017.024.013Zm0,1.873v.468l-.009.008-.015.017-.079.016h-.015l-.016-.016-.016-.017-.015-.049-.016-.033-.031-.032-.015-.017-.016-.016-.015-.016-.016-.017-.016-.016-.015-.016-.016-.017-.015-.016-.016-.033-.015-.016-.016-.033-.015-.016-.016-.033-.016-.016-.015-.033-.016-.049-.015-.016-.016-.049-.015-.033-.016-.049-.016-.033-.015-.065-.016-.049-.015-.082-.016-.082-.015-.065v-.181l.015-.131.016-.033.015-.032.016-.017h.047l.015.033.016.066.015.049.016.032.015.049.016.049.016.049.015.05.016.049.015.065.016.049.015.082.016.032.015.05.016.032.016.049.015.049.016.017.015.049.016.016.015.033.016.016.031.017.016.032.031.017.047-.017.015-.049.015-.032.009-.017Zm0,.808v.274h-.087l-.016-.016-.015-.1-.016-.049-.016-.016-.015-.017V457.3h.047l.015.017h.016l-.016-.017v-.016l.016-.033.015-.016h.032l.03.016Z" transform="translate(-775.129 -454.394)" fill-rule="evenodd"/>
    </g>
    <rect id="Rectangle_706" data-name="Rectangle 706" width="0.003" height="0.003" transform="translate(781.968 452.013)" fill="#f0dbd5"/>
    <path id="Path_19403" data-name="Path 19403" d="M778.888,456.428l-.01-.021-.01-.011-.011-.021-.01-.011-.01-.021-.021-.01-.01-.011-.01-.01-.01-.011-.021-.01-.021-.011-.01-.01-.011-.01-.021-.011-.01-.01-.021-.01H778.6l-.021-.011.011-.052.01-.011.01-.01.011-.01.011-.011.01-.011.01-.01.011-.01.01-.021.011-.01.011-.011.01-.011.01-.031.01-.011v-.042l.011-.021.01-.011v-.052l-.021-.011-.01-.01-.021-.01-.011-.011-.011-.031-.01-.011-.021-.011-.01-.042-.021-.01-.052-.011h-.126v.011l.011.01v.021l-.011.011-.01.01-.021.011-.021.011-.021.01-.021.011-.021.01-.021.011-.021.01-.011.01-.031.011h-.094l-.011.01-.011.011-.021.01-.021.011-.01.01-.011.021-.01.01v.021l.01.021.011.052.01.011.01.01.01.021.01.01.01.01.011.021.011.021.01.021.011.01.01.011.01.021.01.011.011.01.01.01.011.021v.021l-.011.01-.021.011-.01.01-.01.011-.01.01-.021.011-.032.01-.042.011-.011.01-.021.01-.011.032-.01.011-.01.01-.021.011-.01.01v.052l.01.032.011.01.01.021.01.01.01.021.011.011.011.021.01.021.021.01.031.011.053.011h.083l.011-.011.021-.021.01-.01.01-.011.011-.01.021-.01.021-.011.021-.01.021-.011.031-.01.021-.011.031-.01.021-.01.052-.011h.063l.032.011.021.01.052.01h.052l.094-.01.011-.042.01-.01.01-.01.011-.021v-.021Z" transform="translate(-1.41 -2.64)" fill-rule="evenodd"/>
    <path id="Path_19404" data-name="Path 19404" d="M781.16,456.27l-.011-.021-.011-.011-.01-.011-.011-.011-.011-.01-.01-.011-.021-.011-.021-.01-.021-.011-.021-.011-.021-.011-.031-.01-.031-.011-.022,0-.014-.009v.227l.038,0,.02.013.033,0,.02.013.021.01.021.011.021.011.011.011.011.01h.073l.011-.01v-.095l-.011-.021v-.021Zm-.267-.335v-.252h.057l.022.011.011.011.01.031.021.011.01.011v.021l-.01.031-.013.02,0,.022-.011.011-.01.01-.011.011-.011.011-.011.011-.01.01-.011.011-.021.011Zm0-.692v-.2l.016,0h.01l.042.011.021.011.021.01.021.011.011.011.011.031v.021l-.011.011-.011.011-.021.01-.031.011-.022.011-.01.011-.031.01-.011.011Zm0,.873-.005,0-.031-.01-.021-.011-.011-.011-.011-.011v-.042h-.021l-.011.011-.021.011-.011.021,0,.022-.013.02v.031l.011.021v.021l.011.031.011.011.01.011.011.011.01.01.011.011.021.011.01.011.021.011.01.01v.031h.016v-.227Zm0-1.069v.2l-.005.011-.011.01-.01.032-.011.01-.011.021-.01.011-.011.021-.011.021-.021.011-.011.011-.01.021-.011.021-.011.021-.011.021-.011.031-.01.021-.011.032-.011.031-.01.042-.011.041-.011.053-.011.053-.01.042-.011.041-.01.032-.011.031-.011.031-.011.053-.011.073-.011.063-.01.042-.011.042-.01.031-.011.011v.157l.011.021v.115l.01.021v.021l.011.021.01.021v.031l.011.021v.063l.011.021.011.031.011.031.011.031.01.021.011.031.01.021.011.021.021.01.021.011.031.011.011.01.011.011.011.021.01.011.011.01v.063l-.011.01-.01.011H780.7l-.02-.013-.022,0-.02-.013-.021,0-.032-.011-.021-.011-.021-.011-.021-.01-.011-.011-.01-.011-.021-.01-.011-.011-.01-.021-.011-.011-.011-.01-.01-.011-.011-.011-.011-.01-.011-.021-.01-.011-.011-.01-.011-.011-.01-.011-.011-.021-.011-.011-.01-.011-.011-.01v-.021h.021l.011.011.021.011.022.01.01.011.011.011.021.011.01.01.011.011.011.011.021.01.011.011.011.011.01.011.021.01.011.011.03.011V457l-.01-.031v-.021l-.011-.021v-.021l-.01-.021v-.021l-.011-.021v-.021l-.011-.021v-.126l-.011-.021v-.366h-.01V456.1l.01-.095.011-.084.011-.053.011-.052.01-.063.011-.063.01-.042.011-.031.011-.031.011-.042.011-.031.011-.021.01-.021.011-.021.01-.021.011-.021.011-.021v-.011l-.021.011-.01.011-.021.011-.011.01-.021.011-.011.011-.011.01-.03.011-.011.011-.021.011-.021.01-.011.011-.021.011-.021.01-.01.011-.032.011-.01.011-.011.011-.011.01-.021.011-.011.011-.01.01-.021.011-.031.011-.011.011h-.042l-.042-.011-.01-.011-.011-.011-.01-.01-.011-.042v-.105l.011-.01.01-.011.011-.021.01-.011.011-.011.011-.021.011-.011.01-.021.011-.011.011-.021.01-.01.011-.011.011-.021.011-.021.01-.011.011-.021.011-.021.011-.042.01-.052.011-.042.011-.021.01-.021h.022l.01.011.011.021.011.021.011.031.01.042.011.052.021.095.011-.011.021-.011.01-.01.021-.011.021-.011.011-.011.021-.01.021-.011.011-.011.021-.011.011-.01.021-.011.021-.011.01-.01.021-.011.021-.011.022-.011.011-.01.01-.011.021-.011.032-.01.021-.011.037-.007Zm0,.636h-.037l-.021.011-.021.011-.011.021-.01.011v.073l.01.011.011.011.031.01.011.011.011.011.01.021v.053h.016v-.252Zm-.927-.041-.011-.021-.01-.021-.011-.011-.011-.011-.01-.01-.021-.011-.011-.011h-.031l-.01.021,0,.021-.013.02,0,.043-.012.021-.011.031-.01.021-.011.011-.011.021-.011.021-.01.021-.011.021-.011.021-.01.011-.011.021-.011.021-.011.021-.01.011-.011.021-.011.021-.01.021-.011.021-.011.011v.021l.011.011h.031l.011-.011.01-.011.011.021h.011l.011-.011.01-.011.021-.01.01-.011.021-.011.011-.01.01-.011.011-.011.021-.011.021-.01.011-.011.01-.021.011-.01.011-.011.011-.021.01-.01.011-.021.011-.021.01-.021.011-.021,0-.021.012-.021v-.063l-.011-.031Zm.053.639-.011.021-.011.021-.01.021-.011.011-.011.021-.011.021-.01.011-.011.021-.011.011-.01.01-.063.011v-.021l-.01-.011-.021-.011-.011-.01-.01-.021-.011-.011-.011-.021-.011-.021-.01-.01-.011-.021-.011-.021-.01-.031-.011-.021-.011-.021-.011-.021-.01-.01-.011-.011-.011-.011-.01-.011-.011-.01-.011-.011h-.073l-.011.021-.01.011v.053l.01.021.011.011.011.011.011.01.011.011.01.011.011.011.01.011.011.01.011.011.011.01.01.011.021.021.021.01.011.011.011.021.021.01.011.021.021.01.011.011.011.011.01.011.011.011.011.031.011.01.01.021.011.021.011.011.01.011.011.01.031.011h.042l.011-.021,0-.022.013-.02,0-.032L780,456.5l0-.021.013-.021,0-.021.013-.021,0-.032.012-.02,0-.022.013-.02v-.053h-.011Z" transform="translate(-1.577 -2.566)" fill-rule="evenodd"/>
    <rect id="Rectangle_707" data-name="Rectangle 707" width="0.011" height="0.011" transform="translate(777.129 452.874)" fill="#f1ecf0"/>
    <path id="Path_19405" data-name="Path 19405" d="M782.993,456.78v-.274l0,0,.022,0,.011.011.021.011.022.01.01.011.011.011.011.01.01.011.011.011.011.021v.105l-.011.031-.011.01-.01.011h-.031l-.022.011Zm0-1.309v-.187l.026.007.021.01.021.011.011.011.01.021.011.011.011.011.01.021.031.021v.021h-.01l-.011.011v.01l-.011.021h-.031l-.01-.011-.079.013Zm.246.459h.011v-.011h-.011Zm-.63-.053-.036.005v-.005Zm.384-.594v.187l-.274.041.195-.127c-.067.016-.289.119-.293.179h.031v.094l-.011.021-.011.011-.01.021-.021.042-.021.01-.006.006v-.717l.017.009.021.01.021.011.011.011.021.011.01.01.022.011.01.011.011.01.011.011.011.011.021.031v.021l.011.011.021.031h.084l.073.011.031.011.016,0Zm0,1.222v.274h-.005l-.021-.013-.021,0-.031-.011-.031-.01v-.021l.01-.01.011-.021v-.011l-.011-.01-.01-.011-.032-.011v-.073l.021-.011.011-.01.01-.021.021-.01.021-.011.011-.011.01-.011h.021l.016.01Zm-.42.5v-.3h.1l.011-.011.011-.011.01-.041.011-.021.021-.011h.031v.042l-.011.031v.053l.011.011.01.021.011.011.011.011v.073l-.011.052-.011.011-.021.021-.011.011-.031.011-.011.011-.01.021-.011.011-.011.011h-.021l-.053-.011h-.027Zm0-.35.006-.006.011-.01.01-.011.011-.021.011-.031.01-.031.011-.011.011-.021v-.063l-.011-.011-.021-.01-.021-.011-.027-.018v.255Zm0-.422.006,0,.011-.011.01-.011.011-.01.021-.011.011-.021.011-.011.011-.031.01-.031,0-.022.013-.02.011-.032.01-.01h.063L782.8,456l.011-.011.021-.01.021-.011.011-.011.011-.021,0-.043.013-.021v-.011l-.022-.021-.021-.021-.021-.011-.01-.011-.021-.01-.021-.011h-.053l-.011.011-.01.01-.011.011v.042h-.042l-.011.01-.02.011.063-.01-.1.015Zm0-.355-.036.005v-.011h.036v.005Zm0-.831,0,0-.031-.011-.042-.011-.052-.01-.021-.011h-.042l-.011-.021-.01-.01h-.031v.01l.01.011-.021.011-.011.011-.011.021v.021l.011.021.011.011.011.011v.021l.021.011.011.01.01.011v.031h.042l.011.011.021.011v.021l-.011.021-.011.01-.011.021-.01.011-.011.01-.011.021-.011.01-.01.011-.021.011v.021l-.01.011-.021.021H782.3l-.01-.011h-.147l-.021.011-.021.01-.011.011-.021.011-.011.01-.021.011-.021.011-.011.011-.01.01-.021.021-.021.01-.011.011-.021.011-.011.011-.021.011-.021.01-.011.011-.01.011-.011.01-.011.021-.01.011-.011.021-.011.011-.011.031-.01.011-.011.021-.011.042v.115l.011.011.011.011.01.021.011.011.011.01.021.011.042.011.021.011h.052l.011.01h.011l.01-.01.011-.011.011-.031.021-.011.011-.011V455.9l.011-.032.01-.021.011-.011.011-.01.01-.011.011-.073.011-.063.01-.021.011-.021.011-.011.021-.011.011-.021.011-.021v-.021h-.021v-.011l.011-.021.011-.01.011-.021.01-.01.011-.011.011-.021.021.032.011.031.011.01.01.021.021.011.1.011.042.01v.011l-.021.011-.021.01-.011.011-.021.011-.011.011-.011.01h-.031l-.011.021-.021.01-.011.011-.01.011-.021.011-.011.01-.031.011-.031.011-.011.011-.021.021-.011.021-.011.01-.01.021v.031l.01.021h.053l.021-.011.01-.01.021-.011.031-.011h.021l-.01.021-.011.021-.011.011-.011.011-.01.011-.011.01-.011.011-.01.011-.011.021-.011.011-.011.011-.01.01-.021.021-.011.01-.021.021-.011.021-.01.011-.011.011-.011.011-.01.031-.011.052v.053l.011.021.01.01.031.011h.021l.063-.011.053-.01.031-.011.042-.011.031-.011.031-.011.031-.01.031-.021.011-.01.011-.011.011-.011.01-.021.011-.021.011-.01.021-.011.011-.011.011-.011.01-.01.011-.011.011-.011v.021l-.011.031-.011.031-.01.021-.011.032-.011.021,0,.064-.013.02-.01.021-.011.01v.021l-.011.01-.01.031-.011.032-.021.021-.083.011-.021.01-.031.011-.031.021-.011.011-.052.021-.032.011-.01.011-.021.01v.053l.021.011h.031l.021-.011.042-.011h.084v.011h.011v-.011l.021.011v.031l-.011.021-.01.01-.011.011-.011.011-.011.01-.01.011-.011.011-.011.011-.01.01-.011.011-.011.011-.011.01-.01.011-.011.011-.011.031-.01.053v.094l.01.011.011.011.021.01.021.011.011.011.041.011h.042l.2-.011h.036v-.3h-.015l-.01-.011.01-.021.011-.011,0,0v-.255l0,0h-.011v-.157l.015-.007v-.355l-.036.005h-.031l-.031.011-.021.011-.01.01-.021.011.011-.011.011-.01.01-.011.011-.011.011-.021.01-.01.021-.011.011-.011.01-.01.011-.011.011-.021.01-.011.011-.011,0,0Z" transform="translate(-1.812 -2.562)" fill-rule="evenodd"/>
    <rect id="Rectangle_708" data-name="Rectangle 708" width="0.003" height="0.003" transform="translate(781.968 454.302)" fill="#f0dbd5"/>
    <path id="Path_19406" data-name="Path 19406" d="M783.829,457.194v0h0v0Z" transform="translate(-2.032 -2.797)" fill="#f0dbd5" fill-rule="evenodd"/>
    <path id="Path_19407" data-name="Path 19407" d="M787.094,452.383l-.035-.062-.039-.033-.035-.061-.039-.033-.039-.033-.038-.034-.081-.038-.425-.055L786.28,452l-.086-.011-.124-.045-.123-.044-.081-.038,0,.028.035.061.032.089.039.034-.007.055-.085-.012-.039-.033-.036-.061-.031-.089-.032-.089-.036-.061-.038-.034-.039-.033-.039-.033-.081-.038-.038-.033-.039-.033c-.034-.058-.076-.1-.11-.156l-.035-.061c-.011-.03-.041-.085-.034-.115l.032-.141-.045-.06.007-.055.046-.023.085.012.081.038.3.038.081.038.213.028.124.044.039.033.081.038.128.017.081.038.213.027.081.039.081.038.039.033,0,.028-.17-.022-.082-.038-.085-.011-.085-.011.038.033.039.033.039.033.038.034.039.032.039.034.038.033.039.033.035.061.039.033.038.033.032.089.035.061-.015.057.045.06.081.038.3.038.123.044-.006.055-.213-.028-.086-.011-.084-.01-.046.021.038.033.036.061.036.062.038.033-.006.055-.086-.012Z" transform="translate(-2.182 -2.136)" fill="#111a28" fill-rule="evenodd"/>
    <path id="Path_19408" data-name="Path 19408" d="M786.5,451.918l-.014,0c-.055-.013-.11-.118-.164-.135a2.8,2.8,0,0,1-.5-.233,1.556,1.556,0,0,1-.287-.167c-.034-.034-.106-.037-.13-.074a.043.043,0,0,0-.046-.02c-.015,0-.028,0-.029-.023a.7.7,0,0,1,.015-.157h0a.919.919,0,0,1,.1-.006h.018a1.268,1.268,0,0,1,.2.019,1.832,1.832,0,0,1,.489.163c.049.025.1.051.144.079a1.772,1.772,0,0,1,.2.14l.015.013v.011h.013a1.387,1.387,0,0,1,.1.1.9.9,0,0,1,.12.151.512.512,0,0,1,.064.145c.009.04.017.041.012.079h0C786.695,451.97,786.643,451.951,786.5,451.918Z" transform="translate(-2.193 -2.15)" fill="#c4c1e0" fill-rule="evenodd"/>
    <path id="Path_19409" data-name="Path 19409" d="M786.259,451.934h0a3.279,3.279,0,0,1-.444-.178,1.669,1.669,0,0,1-.285-.139,1.332,1.332,0,0,1-.122-.159.378.378,0,0,1-.069-.148l-.008-.049h0l.07,0a1.048,1.048,0,0,1,.137.021,1.319,1.319,0,0,1,.367.153c.049.021.168.11.214.132a1.447,1.447,0,0,1,.272.21c.055.05.074.071.108.1a1.6,1.6,0,0,0,.338.135v0c-.138-.018-.246-.01-.393-.038C786.364,451.959,786.274,451.94,786.259,451.934Z" transform="translate(-2.192 -2.167)" fill="#fff" fill-rule="evenodd"/>
    <path id="Path_19410" data-name="Path 19410" d="M785.535,451.5a1.539,1.539,0,0,1-.137-.141c-.028-.037-.039-.035-.062-.08a.369.369,0,0,1,.012-.16h0l.06,0c.042,0,.057.085.137.1a1.18,1.18,0,0,1,.363.1c.048.021.167.11.214.133a1.371,1.371,0,0,1,.271.209c.055.05.063.046.1.075a2.041,2.041,0,0,0,.342.254V452a2.425,2.425,0,0,1-.384-.073A2.3,2.3,0,0,1,785.535,451.5Z" transform="translate(-2.192 -2.152)" fill="#37517e" fill-rule="evenodd"/>
  </g>
</svg>
