<svg id="圖層_1" data-name="圖層 1" xmlns="http://www.w3.org/2000/svg" viewBox="0 0 115.61 30"><defs><style>.cls-1{fill:#ffd706;}.cls-2{fill:#2a72b1;}.cls-3{fill:#fff;}.cls-4{fill:#7aab0d;}.cls-5{fill:#3b6416;}.cls-6{fill:#78a621;}.cls-7{fill:#39602f;}.cls-8{fill:#009cb0;}.cls-9{fill:#4aad42;}.cls-10{fill:#666;}</style></defs><path class="cls-1" d="M1.22,18.83a14.66,14.66,0,0,0,28.27,0Z"/><path class="cls-2" d="M15.35.4A14.48,14.48,0,0,0,.86,14.89a15.06,15.06,0,0,0,.5,3.83h28a15.06,15.06,0,0,0,.5-3.83A14.47,14.47,0,0,0,15.35.4Z"/><path class="cls-3" d="M1.22,18.83H29.49a16.3,16.3,0,0,1-1.36,3.29A14.76,14.76,0,0,0,30,14.93a14.3,14.3,0,0,0-.43-3.54A1.72,1.72,0,0,0,28.52,11a1.68,1.68,0,0,0-1.61,1.14c-.14.25-.32.33-.47.15a1.68,1.68,0,0,0-1.75-1.11,1.4,1.4,0,0,0-1.39,1l-.43-.35a1.61,1.61,0,0,1,1.25-1.08c1-.21,1.36.22,1.39.07A1.61,1.61,0,0,0,24.3,9.67c-.75-.15-.93.21-1,.32s-.32.39-.46.21a1.5,1.5,0,0,0-2.26-.42s-3.61.35-6.58.57c-.4-1.25-1-2.83-1-2.83s-.18-.75-1.43-.75A1.68,1.68,0,0,0,10.06,8a2.48,2.48,0,0,1-.65.11,1.27,1.27,0,0,0-.93-.32c-.68,0-.93.75-.86,1.18a1.83,1.83,0,0,0,.32.75,1.73,1.73,0,0,1,1.11-.32,1.8,1.8,0,0,1,1.29.53.76.76,0,0,1,.22.51c-.25,0-.36,0-.4-.08a1.12,1.12,0,0,0-1.11-.71,1.63,1.63,0,0,0-1.14.57s-.25-.89-1.86-.68-1.79,2.22-1.79,2.22a2.29,2.29,0,0,0-1.58-.5A2.79,2.79,0,0,0,1,11.89,12.24,12.24,0,0,0,.68,15a14.2,14.2,0,0,0,1.9,7.16A12.61,12.61,0,0,1,1.22,18.83Z"/><path class="cls-4" d="M9.2,20.05c2,.14,3.83,2.46,5.44,3.29A8.24,8.24,0,0,0,19,24.63c.39,0-1.22.85-3.72.85s-5.41-1.43-8.7-4.61C6.3,20.69,7.3,19.94,9.2,20.05Z"/><path class="cls-4" d="M19.39,24.05c1.47.11,4.62-2.54,5.3-3.07s-1.07-.86-2-.76-3.15,1.51-4.51,2.26-2.18.93-1.57,1.14A13.23,13.23,0,0,0,19.39,24.05Z"/><path class="cls-5" d="M25.76,21c-1,.25-1.5.86-2.57,1.83s-4.26,3.36-8,3.36S8.37,23.8,7.3,22.84,5.73,21.26,4.72,21c-.82-.21-1.57.43-2.25.93A14.67,14.67,0,0,0,28.2,22C27.45,21.51,26.66,20.8,25.76,21Z"/><path class="cls-6" d="M12,18.83H19.5s.07-.29-.61-.29H16.35c-.46,0-.46-.07-.43-.39s.22-.57.93-.57h8c.14,0,.28-.25.43-.4s.25-.14.21-.28-.43-.22-.39-.47a.69.69,0,0,0-.22-.64c-.17-.15-.53-.15-.43-.4s.26-.43.08-.53-.5-.33-.5-.61.25-.22.07-.43-.43-.29-.33-.54.29-.43.26-.68-.26-.25-.4-.53-.07-.47-.54-.58-.85.11-1-.14,0-.93-.39-1.11-.9-.07-1-.29.25-.89-.1-1.07a5,5,0,0,0-1.51-.39c-.32,0-.71.18-.78,0s-.15-.79-.54-1a9.47,9.47,0,0,1-1.43-.76,1.26,1.26,0,0,0-1-.18c-.22.08-.29.43-.54.43a2.92,2.92,0,0,0-1.32.15,1.23,1.23,0,0,0-.57.86A2.45,2.45,0,0,1,12,9.1a8.25,8.25,0,0,1-1.4.82c-.25,0-.53-.11-.89-.11s-.22.54-.58.65a1.89,1.89,0,0,0-.71.35c-.32.22-.68.58-.5.79s.32.39.21.61-.21.39-.46.43-.36-.25-.36.14a1.27,1.27,0,0,0,.14.61c.07.25,0,.43-.14.43s-.75-.18-.82,0a1,1,0,0,0,0,.65,1.08,1.08,0,0,1,.1.93,5.72,5.72,0,0,1-.46,1c-.07.32-.25.21,0,.5s.71,0,.46.28-.32.47,0,.47l1.65,0c.32,0,.21-.51.5-.47s.39.32.9.25,3.86,0,4.15,0a.66.66,0,0,1,.64.5,3.61,3.61,0,0,1,0,.5H12.17C11.84,18.58,12,18.83,12,18.83Z"/><path class="cls-7" d="M25.05,16.43a.69.69,0,0,0-.22-.64c-.17-.15-.53-.15-.43-.4s.26-.43.08-.53-.5-.33-.5-.61.25-.22.07-.43-.43-.29-.33-.54.29-.43.26-.68-.26-.25-.4-.53-.07-.47-.54-.58a2,2,0,0,0-.6,0,.15.15,0,0,0,0,.11c.15.61,0,.57-.14,1.11a1.84,1.84,0,0,0-.14.79l-.86.07s-.25-.07-.36.07,0,0,.39.43.72-.14.75.39,0,.29-.46.61-.64.07-.43.65.72,1.07-.14.89-.25-.39-.79-.72-.68-.25-.75-.93-.43-.5-.29-1.07-.25-.25.9-.57,1.36-.43,1.75-1.29c.11-.25.18-.43.25-.61l0,0c-.1-.25,0-.93-.39-1.11s-.89-.08-1-.29.26-.89-.1-1.07a7.7,7.7,0,0,0-1-.33c-.11.18-.21.33-.36.36s-1.18-.25-1.18.15a.94.94,0,0,0,.43.82c.22.14.25.36.72.11s.64-.76.75-.5.5.42.32.71.22.5-.43.39-1.43-.57-1.86-.32-.21.25-.54.36-.35.43-.5.11.11-.25-.28-.72-.36-.86-.65-.68-.32.54-.61,1-.57.39-.5.75.4.29.54.25,0,.61.29.75.6,0,.78.43.29.5.15.86.25.36-.33.61a3,3,0,0,0-1,.79c-.11.1-.07.28-.43.1s-.5-.57-.79-.25-.75.43-.32.61.43.15.61.32.32.11.32.51.18.42,0,.71,0,.68-.35.36-.33-.82-.65-.75-.32-.07-.78.14-.94.5-1.15.25,0-.64-.14-.82-.47-.57-.65-.57-.28.07-.61.25a3.24,3.24,0,0,1-.89.25c-.29,0-.5-.15-.68.14s-.32.32-.64.43-.51-.22-.76.14-.14.57-.35.65-.07-.18-.43,0l-.32.1c-.11.18-.08.25.17.25l1.65,0c.32,0,.21-.5.5-.47s.39.33.9.25,3.86,0,4.15,0a.66.66,0,0,1,.64.51,3.61,3.61,0,0,1,0,.5H12.17c-.25,0-.15.28-.15.28h7.55s.08-.28-.6-.28H16.42c-.46,0-.46-.07-.42-.4s.21-.57.93-.57h7.94c.18,0,.29-.25.43-.39s.25-.15.21-.29S25,16.68,25.05,16.43Z"/><path class="cls-6" d="M18.32,14.53c.54.11.57.36.61,1s.21.71-.61.71H16.89c-.18-.07.29-.64,0-.86s-.89-.21-.57-.53.18-.15.68.1.46.43.78,0S17.93,14.46,18.32,14.53Z"/><path class="cls-6" d="M15.46,16.54c-.5,0-.32.71-.11.93s.43.14,1-.11a2.55,2.55,0,0,1,1.29-.25c.64,0,.71,0,.71-.32s0-.32-.71-.29-.54.11-1,0-.5-.46-.83-.28S15.78,16.57,15.46,16.54Z"/><path class="cls-6" d="M19,16.43c-.15.18-.08.22.14.47s.39.21.54,0,0-.5-.22-.47A1.48,1.48,0,0,1,19,16.43Z"/><path class="cls-3" d="M3.69,23.19a.08.08,0,0,1,.07-.07s.07,0,.1,0a2.09,2.09,0,0,0,1.08.07,2.36,2.36,0,0,0,1-.5l.14-.1a.13.13,0,0,1,.11,0s.07,0,.11,0a.13.13,0,0,1,0,.1s0,.08,0,.11l-.15.11a2,2,0,0,0-.64.93,2.14,2.14,0,0,0-.07,1.07.13.13,0,0,1,0,.11H5.3a.12.12,0,0,1-.11,0,.15.15,0,0,1-.07-.1,2.61,2.61,0,0,1,0-.79,2,2,0,0,1,.28-.79h0a2.72,2.72,0,0,1-.82.18,2.52,2.52,0,0,1-.79-.11.08.08,0,0,1-.07-.07A.14.14,0,0,1,3.69,23.19Z"/><path class="cls-3" d="M5.8,25.52a.11.11,0,0,1,.14-.14A2.15,2.15,0,0,0,7,25.23a2.22,2.22,0,0,0,.86-.71L8,24.38s.07,0,.11-.08a.11.11,0,0,1,.1,0s0,.07.08.11a.11.11,0,0,1,0,.1l-.11.15a2.42,2.42,0,0,0-.46,1,1.91,1.91,0,0,0,.14,1.07v.11a.08.08,0,0,1-.07.07H7.62a.08.08,0,0,1-.07-.07,1.83,1.83,0,0,1-.14-.76,2.18,2.18,0,0,1,.14-.82h0a3.45,3.45,0,0,1-.75.32,1.79,1.79,0,0,1-.79,0s-.07,0-.11-.07S5.8,25.56,5.8,25.52Z"/><path class="cls-3" d="M9.2,25.63a.09.09,0,0,1-.08-.07v-.11a.08.08,0,0,1,.08-.07h.1l.43.21a.08.08,0,0,1,.07.07v.11a.07.07,0,0,1-.07.07h-.1l0,0h0l-.21.46v0h0a.08.08,0,0,1,.07.07v.11a.08.08,0,0,1-.07.07H9.2l-.25.5v0h.14a.15.15,0,0,1,.07,0v.07a.08.08,0,0,1-.07.07.13.13,0,0,1-.11,0c-.21,0-.43,0-.61-.07a.08.08,0,0,1-.07-.07s0-.07,0-.11A.08.08,0,0,1,8.37,27a.07.07,0,0,1,.11,0,.19.19,0,0,1,.11,0h0l.29-.6v0l-.07,0a.07.07,0,0,1-.07-.07v-.11a.08.08,0,0,1,.07-.07H9l.07,0h0l.22-.47v0Zm-.33,1.82a2.81,2.81,0,0,0,.83-.1h0l-.15-.08-.1-.07s-.07,0-.07-.1V27l.14-.25s0-.07.11-.07h.1l1.15.53s.07,0,.07.11v.11l-.14.25s0,.07-.11.07h-.11l-.43-.22h0a.67.67,0,0,0,.15.29s0,0,0,0a.31.31,0,0,1,.14,0h.11s.07,0,.11.07a.06.06,0,0,1,0,.1.09.09,0,0,1-.07.08s-.11,0-.18,0v0a.61.61,0,0,1,.11.14.14.14,0,0,1,0,.18.17.17,0,0,1-.11,0s-.07,0-.11-.07a2.07,2.07,0,0,1-.36-.64h0l-.18.36s0,.07-.07.07h-.1s-.08,0-.08-.11V28l.18-.39h0A2.83,2.83,0,0,1,9,27.7a.14.14,0,0,1-.11,0,.17.17,0,0,1,0-.22S8.84,27.45,8.87,27.45Zm.72-1s0,0-.07-.07v-.08l.07-.07h.07l1.43.68s0,0,.07.07v.08s0,0-.07.07H11Zm.11.57.86.39h0l0-.1v0l-.86-.39h0l0,.14Zm1.64-.79s.07,0,.07.11v.11l-.14.28s0,.07-.11.07h-.1l-1.15-.53-.07,0s-.07,0-.07-.11v-.1l.14-.29s0-.07.11-.07h.11Zm-1.11-.07.08-.14v0L10.13,26h0l-.07.14v0l.21.07Zm.43.18.08-.14v0l-.18-.07h0l-.07.14v0l.21.07Zm.4.21.07-.14v0L11,26.34h0l-.07.15v0l.22.07Z"/><path class="cls-3" d="M11.59,28.85a.13.13,0,0,1-.1,0,.15.15,0,0,1-.11-.07.11.11,0,0,1,0-.1l.22-1h0l-.11.1s-.07,0-.07,0,0,0,0-.07v0a.33.33,0,0,1,.11-.25,3.31,3.31,0,0,0,.61-.9.08.08,0,0,1,.07-.07h.11a.08.08,0,0,1,.07.07v.11a3.56,3.56,0,0,1-.29.54v0l-.32,1.54C11.67,28.81,11.63,28.85,11.59,28.85Zm2.08,0a.14.14,0,0,1,0,.11.13.13,0,0,1,0,.11s0,0-.07,0-.07,0-.07,0a3.48,3.48,0,0,1-.47-.75h0l-.14.64s0,.07-.07.11a.17.17,0,0,1-.11,0s-.07,0-.11-.07a.13.13,0,0,1,0-.1l.14-.65h0a3.54,3.54,0,0,1-.68.47s-.07,0-.11,0a.08.08,0,0,1-.07-.07V28.6a.08.08,0,0,1,.07-.07,3.44,3.44,0,0,0,.68-.43v0L12.17,28a.16.16,0,0,1-.08,0s0-.07,0-.11,0-.07,0-.07.07,0,.11,0l.61.14a0,0,0,0,0,0,0l0-.15s0,0,0,0l-.32-.07-.14,0s-.07,0-.11-.07a.13.13,0,0,1,0-.11l.15-.64s0-.07.07-.11a.12.12,0,0,1,.11,0l1.25.25s.07,0,.11.08a.13.13,0,0,1,0,.1l-.14.65s0,.07-.07.11a.15.15,0,0,1-.11,0l-.47-.07a0,0,0,0,0,0,0l0,.11a0,0,0,0,0,0,0l.61.14s.07,0,.07,0a.13.13,0,0,1,0,.1.16.16,0,0,1,0,.08.08.08,0,0,1-.11,0l-.46-.11h0A1.91,1.91,0,0,0,13.67,28.88Zm-1-1.53.93.21a0,0,0,0,0,0,0l.11-.42a0,0,0,0,0,0,0l-.93-.22a0,0,0,0,0,0,0l-.07.47Z"/><path class="cls-3" d="M18.75,27a.12.12,0,0,1,0,.11l-.07.07-.86.18s0,0,0,0a1.66,1.66,0,0,0,.47.68,2.5,2.5,0,0,0,.75.43.07.07,0,0,1,.07.07v.11a.08.08,0,0,1-.07.07.08.08,0,0,1-.11,0,2.05,2.05,0,0,1-.64-.33,1.81,1.81,0,0,1-.5-.53h0a2.31,2.31,0,0,1-.25.68,3.65,3.65,0,0,1-.47.57.11.11,0,0,1-.1,0,.12.12,0,0,1-.11,0,.13.13,0,0,1,0-.11.11.11,0,0,1,0-.1,2,2,0,0,0,.54-.68,2.26,2.26,0,0,0,.14-.83s0,0,0,0l-.86.18a.11.11,0,0,1-.1,0l-.08-.07a.13.13,0,0,1,0-.11l.07-.07.86-.18s0,0,0,0l-.07-.36a.15.15,0,0,1,0-.11s.07-.07.11-.07a.17.17,0,0,1,.11,0s.07.08.07.11l.07.36s0,0,0,0l.86-.18a.15.15,0,0,1,.11,0S18.75,27,18.75,27Z"/><path class="cls-3" d="M19.22,27h-.11A.07.07,0,0,1,19,27v-.11a.08.08,0,0,1,.07-.07l.11,0s0,0,0,0l-.15-.32s0-.07,0-.11a.08.08,0,0,1,.07-.07s.08,0,.11,0a.08.08,0,0,1,.07.07l.15.32s0,0,0,0l.15-.07h.1a.08.08,0,0,1,.07.07h0l.07-.07v0l-.14-.36s0-.07,0-.11a.08.08,0,0,1,.07-.07s.07,0,.11,0A.08.08,0,0,1,20,26l.14.29h0l.18-.15v0l-.18-.36s0-.07,0-.11a.08.08,0,0,1,.07-.07h.11a.08.08,0,0,1,.07.07l.14.29h0l.36-.29a.13.13,0,0,1,.1,0,.07.07,0,0,1,.07.07,5,5,0,0,1,.29.72,1.44,1.44,0,0,1,.07.32.11.11,0,0,1-.11.1.13.13,0,0,1-.1,0h-.11a.08.08,0,0,1-.07-.07s0-.07,0-.07a.07.07,0,0,1,.07-.07h.07a0,0,0,0,0,0,0,.09.09,0,0,0,0-.07.46.46,0,0,0-.07-.18c0-.07-.07-.22-.14-.36s0,0,0,0l-.21.18v0l.39.86s0,.07,0,.1a.08.08,0,0,1-.07.07s-.07,0-.11,0A.08.08,0,0,1,21,27.2l-.36-.78h0l-.18.14v0l.5,1.08a.1.1,0,0,0,.11.07,4,4,0,0,0,.42-.18.62.62,0,0,1,.18-.07s.08,0,.11-.07.07,0,.07-.07v-.18s0-.07,0-.15v-.1a.08.08,0,0,1,.07-.08h.11s.07,0,.07.08,0,.14.07.18,0,.1,0,.14v.11a.13.13,0,0,1,0,.1s0,.07-.07.07-.07,0-.11.08-.11.07-.18.07a.76.76,0,0,1-.21.11c-.11,0-.22.1-.25.1s-.15,0-.18.07-.11,0-.15,0-.07,0-.07,0l-.07-.07s0-.07-.07-.1l-.5-1h0l-.07.07a.17.17,0,0,1-.11,0,.07.07,0,0,1-.07-.07v0s0,0,0,0l-.28.07s0,0,0,0l.42,1h0l.14-.14s0,0,.08,0,0,0,.07,0a.13.13,0,0,1,0,.1s0,.08,0,.11c-.15.18-.33.32-.47.47a.14.14,0,0,1-.11,0,.08.08,0,0,1-.07-.07.14.14,0,0,1,0-.11s0-.07,0-.1.07,0,.11-.07v0l-.5-1h0Z"/><path class="cls-3" d="M22,26.16a.09.09,0,0,1-.07,0s-.07,0-.07,0a.09.09,0,0,1,0-.07s0-.07,0-.07l.79-.57v0l-.11-.1h0l-.6.43a.15.15,0,0,1-.08,0,.15.15,0,0,1-.07,0v-.15s0-.07,0-.07l.61-.43v0L22.36,25h0l-.72.5a.13.13,0,0,1-.1,0,.16.16,0,0,1-.08,0,.14.14,0,0,1,0-.18l.36-.25v0h-.07a.08.08,0,0,1-.07-.07.14.14,0,0,1,0-.11s.07-.07.1-.07h.11a.35.35,0,0,0,.14.07h0l.39-.28,0,0v-.14a.15.15,0,0,1,0-.11s0-.07.11-.07h.11l.07.07v.07h0l.35-.25a.17.17,0,0,1,.11,0,.11.11,0,0,1,.07,0,.14.14,0,0,1,0,.11.1.1,0,0,1,0,.07l-.71.5v0l.07.11h0l.61-.43a.11.11,0,0,1,.07,0,.14.14,0,0,1,.08,0,.11.11,0,0,1,0,.07.15.15,0,0,1,0,.07l-.68.47v0l.1.11h0l.79-.57a.09.09,0,0,1,.07,0s.07,0,.07,0a.09.09,0,0,1,0,.07s0,.07,0,.07l-.79.57v0l.11.14h0l.75-.54a.13.13,0,0,1,.1,0,.16.16,0,0,1,.08,0,.17.17,0,0,1,0,.11.11.11,0,0,1,0,.07l-.72.5v0a1.41,1.41,0,0,0,.93-.18h.11a.08.08,0,0,1,.07.07v.11a.08.08,0,0,1-.07.07,2,2,0,0,1-.61.14,1.17,1.17,0,0,1-.5,0h0a1.59,1.59,0,0,1-.14.5,2.42,2.42,0,0,1-.36.54s-.07,0-.11.07a.11.11,0,0,1-.1,0s0,0,0-.07a.13.13,0,0,1,0-.11,1.6,1.6,0,0,0,.46-.82s0,0,0,0l-.72.5a.13.13,0,0,1-.11,0s-.07,0-.07,0a.39.39,0,0,1,0-.11.15.15,0,0,1,0-.07l.75-.53v0l-.1-.07h0Z"/><path class="cls-3" d="M23.87,24a.13.13,0,0,1-.07,0,.14.14,0,0,1-.11,0,.11.11,0,0,1,0-.07.12.12,0,0,1,0-.11l.11-.11v0a.83.83,0,0,1-.18-.22.12.12,0,0,1,0-.11s0-.07,0-.1a.11.11,0,0,1,.1,0s.08,0,.11,0a1.12,1.12,0,0,0,.18.21h0l.25-.29a.13.13,0,0,1,.1,0,.14.14,0,0,1,.11,0,2.66,2.66,0,0,1,.61.9s0,0,0,0h.35s.08,0,.11,0a.13.13,0,0,1,0,.11.14.14,0,0,1,0,.11.14.14,0,0,1-.11,0h-.28s0,0,0,0a1.67,1.67,0,0,1,0,.71s0,.07,0,.11a.12.12,0,0,1-.11,0s-.07,0-.07,0a.39.39,0,0,1,0-.11,1.6,1.6,0,0,0-.07-.68s0,0,0,0a.84.84,0,0,0-.25,0s0,0,0,0h0v.11s0,0-.07,0a.2.2,0,0,1-.22-.14A3.8,3.8,0,0,0,24,24h0Zm.61.21,0,0a.83.83,0,0,1,.29,0h0a3.42,3.42,0,0,0-.43-.64h0l-.21.21v0A1,1,0,0,1,24.48,24.23Zm1.39-1.61a.15.15,0,0,1,.11,0,.17.17,0,0,1,.11,0,.22.22,0,0,1,0,.22l-.25.28v0l.46.46c.14.15.22.22.22.29s-.08.14-.18.29l-.18.18a.22.22,0,0,1-.22,0s0,0,0-.08,0-.07,0-.07l.15-.14s.07-.07.07-.11,0,0-.07-.11l-.47-.46h0l-.4.39a.12.12,0,0,1-.11,0,.14.14,0,0,1-.14-.14.12.12,0,0,1,0-.11l.39-.4v0L25.19,23l0,0s0,0,0,0h0a2.08,2.08,0,0,0-.11-.54h0l-.6.61a.14.14,0,0,1-.11,0,.13.13,0,0,1-.11,0c0-.11,0-.11,0-.14a.13.13,0,0,1,0-.11l.75-.75a.12.12,0,0,1,.11,0,.11.11,0,0,1,.1,0,.69.69,0,0,1,.15.21,1.86,1.86,0,0,1,.1.58s0,0,0,0l.07.07h0Z"/><circle class="cls-3" cx="14.89" cy="27.95" r="0.32"/><path class="cls-8" d="M41.33,6.7v.64H34.25V6.7h3.22c-.08-.22-.15-.47-.22-.68L38,5.84a5.46,5.46,0,0,1,.32.86Zm-.21,5.9a.55.55,0,0,1-.36.61,3.38,3.38,0,0,1-1.18.11,2.2,2.2,0,0,0-.25-.57h.82c.11,0,.14,0,.14-.15V10.42h-5v2.93H34.5V9.78h6.62Zm-.83-4.86V9.42h-4.9V7.74Zm-3.58,4.79v.36H36V10.78h3.47V12.5H36.71Zm2.8-4.26H36.18v.61h3.33Zm-2.8,3.12V12h2.08v-.64Z"/><path class="cls-8" d="M44,7.91a9.9,9.9,0,0,1-1.28,3.87c-.15-.11-.47-.32-.65-.43A8.37,8.37,0,0,0,43.3,7.91h-.9V7.2h1c.07-.43.1-.86.14-1.29l.71.07c0,.43-.1.83-.14,1.25h1.61V8H44Zm1.26,2.4A24.35,24.35,0,0,1,46,12.85l-.61.22c0-.18-.07-.36-.11-.57a6.73,6.73,0,0,0-2,.46,2.62,2.62,0,0,0-.25-.64c.14,0,.29-.29.43-.65a12.48,12.48,0,0,0,.89-2.9L45,9a19,19,0,0,1-1.14,3.15l1.21-.21c-.11-.47-.25-1-.36-1.4ZM49.6,13H46.84v.39h-.68V8.59c-.18.29-.36.54-.54.79a3.52,3.52,0,0,0-.42-.61A8.7,8.7,0,0,0,46.63,6l.64.18a10.73,10.73,0,0,1-.5,1.32h2.76v.68h-1v1h1v.64h-1v1h1v.64h-1v1h1.11V13ZM46.84,8.09v1h1v-1Zm1,1.61h-1v1h1Zm-1,2.58h1v-1h-1ZM48.13,6a6.11,6.11,0,0,1,.54,1.15L48,7.38a12.57,12.57,0,0,0-.5-1.18Z"/><path class="cls-8" d="M54.46,7.77v1h2.62v2.79c0,.4-.08.65-.4.76a4.79,4.79,0,0,1-1.43.14,2,2,0,0,0-.29-.75h1.11c.15,0,.18,0,.18-.15v-2H54.43v3.83h-.79V9.52H51.92v2.94h-.75V8.77h2.47v-1H50.42V7h3.36c-.14-.32-.32-.68-.46-1l.75-.22A8.66,8.66,0,0,1,54.68,7h3v.75Z"/><path class="cls-8" d="M65.45,8.09a9.55,9.55,0,0,1-1,3.22,4,4,0,0,0,1.61,1.4,2.09,2.09,0,0,0-.5.64A3.9,3.9,0,0,1,64,12a5.59,5.59,0,0,1-1.76,1.4,3.58,3.58,0,0,0-.42-.68,4.37,4.37,0,0,0,1.75-1.43,8.79,8.79,0,0,1-.75-2,6.43,6.43,0,0,1-.43.64c-.11-.1-.29-.28-.47-.43h-.89v1.86L62.34,11l.07.68c-1.33.32-2.76.64-3.8.86l-.14-.75.47-.11V8.17h.68v3.39l.68-.14V7.16H58.65V6.45h3.69v.71H61.05V8.77h1V9a8.43,8.43,0,0,0,1.07-3.14l.75.14c-.1.46-.21.93-.32,1.36H66v.71Zm-2.18.11A8.85,8.85,0,0,0,64,10.53a9.19,9.19,0,0,0,.68-2.47H63.3Z"/><path class="cls-8" d="M68,7.41v2a8.67,8.67,0,0,1-.72,3.94,2.66,2.66,0,0,0-.64-.43,7.45,7.45,0,0,0,.6-3.51V6.73h3.15c-.1-.25-.21-.5-.32-.71l.75-.22a5.9,5.9,0,0,1,.43.93h2.79v.72H68Zm2.25.36a7.15,7.15,0,0,1-.61,1.33v4.29H69V10.2c-.18.22-.36.43-.54.61a7.4,7.4,0,0,0-.32-.71,6.36,6.36,0,0,0,1.43-2.51ZM74,9.52h-.86v3c0,.42-.11.64-.36.75a4.3,4.3,0,0,1-1.32.14,3.67,3.67,0,0,0-.25-.75c.43,0,.89,0,1,0s.18,0,.18-.18v-3H70.14V8.77h2.29V7.63h.75V8.77H74v.75ZM71,10a15.87,15.87,0,0,1,.89,1.54l-.64.29a13,13,0,0,0-.86-1.62Z"/><path class="cls-9" d="M82.09,11.49c-.32.18-.72.4-1,.54a3.2,3.2,0,0,0,1.29.68,2.14,2.14,0,0,0-.43.57,3.55,3.55,0,0,1-2.25-2.22,5.61,5.61,0,0,1-.9.65v.82L80,12.24v.54a8.61,8.61,0,0,0-1.89.54h0a2,2,0,0,0-.25-.54.56.56,0,0,0,.28-.54V12a6.41,6.41,0,0,1-.78.32,2.41,2.41,0,0,0-.36-.46c-.75.21-1.51.46-2.11.6l-.15-.68c.25-.07.54-.14.9-.21V9.38h-.72V8.74h.72V7.06h-.79V6.41H77v.68h-.75V8.77h.65v.65h-.65v2l.68-.22.07.57a6,6,0,0,0,1.83-.82H77.76V9.2H81.7v1.72H80.26a2.69,2.69,0,0,0,.43.68,9.39,9.39,0,0,0,.93-.61Zm.07-2.61h-4.9V8.27h4.9Zm-.29-1H77.54V6.16h4.33Zm-3-1.21h-.64v.68h.64Zm-.39,3.72H81V9.78H78.44ZM80.05,6.7h-.68v.68h.68Zm1.18,0h-.68v.68h.68Z"/><path class="cls-9" d="M85.56,11.39c-.82.35-1.72.71-2.43,1l-.25-.79c.28-.1.6-.17,1-.32V8.56H83V7.84h.86V6h.75V7.84h.76v.72h-.76V11l.79-.28Zm3.83,1.28a.61.61,0,0,0,.25,0s.11-.07.11-.18a3.24,3.24,0,0,0,0-.64,2.91,2.91,0,0,0,.61.32,2,2,0,0,1-.11.78.6.6,0,0,1-.32.29,2,2,0,0,1-.5.07h-.54a1,1,0,0,1-.57-.18c-.14-.1-.21-.25-.21-.71V11.28h-.65c-.14,1.11-.53,1.75-2.07,2.15a2,2,0,0,0-.4-.61c1.29-.25,1.61-.68,1.72-1.54H86V8.92h3.76v2.36h-.9v1.14c0,.11,0,.18.07.22a.32.32,0,0,0,.18,0Zm.75-4.11H85.6V7.91h1.07c-.07-.21-.14-.46-.22-.68l.61-.14c.11.25.22.57.29.79l-.14,0h1.14c.11-.25.22-.57.29-.78l.68.14c-.11.22-.22.47-.32.64h1.14Zm-.21-1.5H85.85V6.41h1.68c-.07-.18-.11-.32-.18-.46l.71-.15a3.73,3.73,0,0,1,.26.61H90v.65ZM86.67,9.85H89V9.42H86.67Zm0,.93H89v-.47H86.67Z"/><path class="cls-9" d="M93.65,6.13a16.74,16.74,0,0,1-.83,1.71v5.51h-.71V9a6.18,6.18,0,0,1-.72.86A3.6,3.6,0,0,0,91,9.06,9.18,9.18,0,0,0,93,6ZM95.08,11a14.29,14.29,0,0,1-1.33,2l-.57-.43a8.41,8.41,0,0,0,1.22-1.79Zm1.25-.53v2.89h-.75V10.46H93.33V9.78h2.25V8.92H93.9V6.27h4.22V8.92H96.33v.86h2.22v.68ZM94.58,8.24h2.75V6.91H94.58Zm2.68,2.54a13,13,0,0,1,1.33,1.79l-.61.35a9.17,9.17,0,0,0-1.29-1.82Z"/><path class="cls-9" d="M102.16,7.84H99.27V7.23h1.43a8,8,0,0,0-.58-1.1l.58-.29c.21.32.46.79.61,1.07l-.58.32h1.43Zm-.25,5.05H100.2v.36h-.65V10.49h2.33v2.4Zm0-4H99.59V8.31h2.29Zm-2.29.5h2.29V10H99.59Zm.61,1.72v1.18h1.07V11.14ZM102.7,9c-.11.14-.25.28-.36.43a4.12,4.12,0,0,0-.39-.57,4.2,4.2,0,0,0,1-1.65l.46.14V7h-1.21V6.38h1.21V5.91h.68V7.38h-.57l.07,0c-.07.15-.11.33-.18.47h.9a3.46,3.46,0,0,0-.18-.47l.68-.18V5.91h.68v.47h1.14V7h-1.14v.43h-.65a2.8,2.8,0,0,1,.18.5h1.43v.5H105v.36h1.29v.43H105v.35h1.29v.4H105v.36h1.68v.46h-3.33v.14h-.64Zm3.65,2.18a3.9,3.9,0,0,1-1.18,1.25,7.65,7.65,0,0,0,1.65.36,2.12,2.12,0,0,0-.43.61,7,7,0,0,1-2-.61,8.34,8.34,0,0,1-2.15.61,2.94,2.94,0,0,0-.32-.61,9.16,9.16,0,0,0,1.79-.39,3.43,3.43,0,0,1-.82-.79l.28-.11h-.89V11h3.47l.14,0Zm-2-2.86h-1v.36h1Zm0,.75h-1v.36h1Zm0,.79h-1v.35h1Zm-.72,1.64a3.8,3.8,0,0,0,.82.61,3.6,3.6,0,0,0,.86-.61Z"/><path class="cls-9" d="M114.51,9.1v.32c-.11,2.4-.18,3.29-.43,3.58a.9.9,0,0,1-.64.32,5.93,5.93,0,0,1-1,0,1.64,1.64,0,0,0-.22-.68c.4,0,.76,0,.93,0a.35.35,0,0,0,.29-.1c.18-.18.25-.93.32-2.79H109a6.89,6.89,0,0,1-1.07,3.4,6.87,6.87,0,0,0-.61-.51,7.87,7.87,0,0,0,1-4.4v-2h5.62V8.49H109V9.1ZM109,7v.89h4.12V7Zm1.22,5.55V13h-.71V10.31h3.11V12.5Zm0-1.58v1H112v-1Z"/><path class="cls-10" d="M34.1,19.65v-3.4h2.47v.4h-2v1h1.86v.4H34.57v1.14h2.07v.43Z"/><path class="cls-10" d="M37.22,19.65V17.18h.35v.36a.82.82,0,0,1,.79-.39,1.13,1.13,0,0,1,.39.07.55.55,0,0,1,.29.21.63.63,0,0,1,.14.33c0,.07,0,.21,0,.39v1.5h-.43v-1.5a1.06,1.06,0,0,0,0-.39.69.69,0,0,0-.17-.22.65.65,0,0,0-.29-.07.77.77,0,0,0-.47.18c-.14.11-.18.32-.18.64v1.36Z"/><path class="cls-10" d="M40.51,19.65l-.93-2.47H40l.53,1.47a2.26,2.26,0,0,1,.15.5,2.6,2.6,0,0,1,.14-.46l.54-1.51h.43l-.93,2.47Z"/><path class="cls-10" d="M42.23,16.75v-.46h.42v.46Zm0,2.9V17.18h.42v2.47Z"/><path class="cls-10" d="M43.26,19.65V17.18h.36v.36a2.07,2.07,0,0,1,.25-.36.35.35,0,0,1,.25-.07.73.73,0,0,1,.43.14l-.14.4a.62.62,0,0,0-.32-.11.57.57,0,0,0-.25.07.72.72,0,0,0-.15.22,2.41,2.41,0,0,0-.07.5v1.32Z"/><path class="cls-10" d="M44.69,18.44a1.26,1.26,0,0,1,.4-1,1.15,1.15,0,0,1,.79-.28,1.12,1.12,0,0,1,.82.32,1.3,1.3,0,0,1,.32.93,1.57,1.57,0,0,1-.14.75,1.26,1.26,0,0,1-.43.43,1.17,1.17,0,0,1-.61.14A1,1,0,0,1,45,19.4,1.35,1.35,0,0,1,44.69,18.44Zm.43,0a1.08,1.08,0,0,0,.22.71.75.75,0,0,0,.5.25.54.54,0,0,0,.5-.25,1.27,1.27,0,0,0,.22-.71,1,1,0,0,0-.22-.68.73.73,0,0,0-.5-.26.54.54,0,0,0-.5.26A.91.91,0,0,0,45.12,18.44Z"/><path class="cls-10" d="M47.49,19.65V17.18h.35v.36a.82.82,0,0,1,.79-.39,1.13,1.13,0,0,1,.39.07.55.55,0,0,1,.29.21.63.63,0,0,1,.14.33c0,.07,0,.21,0,.39v1.5h-.43v-1.5a1.06,1.06,0,0,0,0-.39.69.69,0,0,0-.17-.22.65.65,0,0,0-.29-.07.77.77,0,0,0-.47.18c-.14.11-.18.32-.18.64v1.36Z"/><path class="cls-10" d="M50.1,19.65V17.18h.36v.36a.83.83,0,0,1,.32-.29.94.94,0,0,1,.43-.1,1,1,0,0,1,.46.1.44.44,0,0,1,.25.33.88.88,0,0,1,.75-.43.79.79,0,0,1,.58.21.84.84,0,0,1,.18.61v1.68H53V18.11a.76.76,0,0,0,0-.35c0-.08-.07-.15-.14-.18a.49.49,0,0,0-.25-.08.61.61,0,0,0-.43.18.74.74,0,0,0-.18.54v1.43h-.43V18a.78.78,0,0,0-.11-.43.34.34,0,0,0-.32-.14.52.52,0,0,0-.32.11.45.45,0,0,0-.22.28,2.23,2.23,0,0,0-.07.5v1.29Z"/><path class="cls-10" d="M55.75,18.86l.43,0a.93.93,0,0,1-.39.57,1.3,1.3,0,0,1-1.58-.1,1.31,1.31,0,0,1-.32-.93,1.33,1.33,0,0,1,.32-1,1.16,1.16,0,0,1,.83-.36,1,1,0,0,1,.78.32,1.27,1.27,0,0,1,.33.93v.11H54.36a.92.92,0,0,0,.21.61.7.7,0,0,0,.5.21.77.77,0,0,0,.4-.1C55.57,19.19,55.68,19,55.75,18.86Zm-1.39-.68h1.36a1.3,1.3,0,0,0-.15-.46.75.75,0,0,0-.5-.25.64.64,0,0,0-.46.18A1,1,0,0,0,54.36,18.18Z"/><path class="cls-10" d="M56.68,19.65V17.18H57v.36a.82.82,0,0,1,.79-.39,1.18,1.18,0,0,1,.39.07.55.55,0,0,1,.29.21.73.73,0,0,1,.14.33c0,.07,0,.21,0,.39v1.5h-.43v-1.5a1.06,1.06,0,0,0,0-.39.73.73,0,0,0-.18-.22.61.61,0,0,0-.28-.07.74.74,0,0,0-.47.18c-.14.11-.18.32-.18.64v1.36Z"/><path class="cls-10" d="M60.22,19.29l.08.36a.93.93,0,0,1-.33,0,1,1,0,0,1-.35-.07.39.39,0,0,1-.18-.18,1.45,1.45,0,0,1,0-.5V17.5h-.32v-.32h.32v-.61l.43-.25v.86h.43v.32h-.43v1.44c0,.1,0,.18,0,.21s0,.07.07.07.07,0,.14,0S60.15,19.29,60.22,19.29Z"/><path class="cls-10" d="M62.23,19.37a1.5,1.5,0,0,1-.43.28,1,1,0,0,1-.47.07.78.78,0,0,1-.6-.21.63.63,0,0,1-.22-.5,1.14,1.14,0,0,1,.07-.32,1.4,1.4,0,0,1,.22-.25.69.69,0,0,1,.28-.15c.08,0,.22,0,.36-.07a3.47,3.47,0,0,0,.75-.14V18a.48.48,0,0,0-.1-.36.6.6,0,0,0-.47-.14.63.63,0,0,0-.43.11.48.48,0,0,0-.21.35l-.4-.07a1.32,1.32,0,0,1,.18-.43,1,1,0,0,1,.36-.25,1.42,1.42,0,0,1,.57-.07,1.79,1.79,0,0,1,.5.07.58.58,0,0,1,.29.18.66.66,0,0,1,.14.29c0,.07,0,.21,0,.39v.57a4.29,4.29,0,0,0,0,.76.41.41,0,0,0,.11.28h-.43A.67.67,0,0,1,62.23,19.37Zm0-.93a2.64,2.64,0,0,1-.68.14,1.29,1.29,0,0,0-.35.07c-.08,0-.15.07-.18.14a.49.49,0,0,0-.08.22.31.31,0,0,0,.15.28.49.49,0,0,0,.36.11.89.89,0,0,0,.43-.11,1.07,1.07,0,0,0,.28-.28,1.24,1.24,0,0,0,.07-.43Z"/><path class="cls-10" d="M63.27,19.65v-3.4h.43v3.4Z"/><path class="cls-10" d="M65.7,19.65v-3.4H67a1.73,1.73,0,0,1,.5,0,1.14,1.14,0,0,1,.43.14.8.8,0,0,1,.28.32.93.93,0,0,1,.11.47,1,1,0,0,1-.28.71c-.18.22-.51.29-1,.29h-.86v1.43Zm.43-1.75H67a.87.87,0,0,0,.61-.18.62.62,0,0,0,.18-.47.52.52,0,0,0-.11-.35.59.59,0,0,0-.28-.22,1.48,1.48,0,0,0-.43,0h-.86Z"/><path class="cls-10" d="M68.81,19.65V17.18h.36v.36a2.07,2.07,0,0,1,.25-.36.35.35,0,0,1,.25-.07.73.73,0,0,1,.43.14l-.14.4a.62.62,0,0,0-.32-.11.57.57,0,0,0-.25.07.72.72,0,0,0-.15.22,2.41,2.41,0,0,0-.07.5v1.32Z"/><path class="cls-10" d="M70.21,18.44a1.26,1.26,0,0,1,.39-1,1.19,1.19,0,0,1,.79-.28,1.1,1.1,0,0,1,.82.32,1.25,1.25,0,0,1,.32.93,1.46,1.46,0,0,1-.14.75,1.26,1.26,0,0,1-.43.43,1.15,1.15,0,0,1-.61.14,1.07,1.07,0,0,1-.82-.32A1.39,1.39,0,0,1,70.21,18.44Zm.43,0a1.07,1.07,0,0,0,.21.71.63.63,0,0,0,.5.25.52.52,0,0,0,.5-.25,1.27,1.27,0,0,0,.22-.71.93.93,0,0,0-.22-.68.73.73,0,0,0-.5-.26.55.55,0,0,0-.5.26A1.19,1.19,0,0,0,70.64,18.44Z"/><path class="cls-10" d="M73.93,19.29l.07.36a.88.88,0,0,1-.32,0,1,1,0,0,1-.36-.07.52.52,0,0,1-.18-.18,1.92,1.92,0,0,1,0-.5V17.5h-.32v-.32h.32v-.61l.43-.25v.86H74v.32h-.43v1.44c0,.1,0,.18,0,.21s0,.07.07.07.08,0,.15,0S73.86,19.29,73.93,19.29Z"/><path class="cls-10" d="M76,18.86l.43,0a.94.94,0,0,1-.4.57,1.1,1.1,0,0,1-.71.22,1.17,1.17,0,0,1-.86-.32,1.27,1.27,0,0,1-.33-.93,1.29,1.29,0,0,1,.33-1,1.16,1.16,0,0,1,1.64,0,1.27,1.27,0,0,1,.33.93v.11H74.61a1,1,0,0,0,.21.61.75.75,0,0,0,.51.21.73.73,0,0,0,.39-.1C75.86,19.19,75.93,19,76,18.86Zm-1.36-.68H76a1.3,1.3,0,0,0-.15-.46.75.75,0,0,0-.5-.25.64.64,0,0,0-.46.18A.83.83,0,0,0,74.65,18.18Z"/><path class="cls-10" d="M78.58,18.76l.4,0a1,1,0,0,1-.36.68,1,1,0,0,1-.68.25,1.14,1.14,0,0,1-.83-.32,1.3,1.3,0,0,1-.32-.93,1.34,1.34,0,0,1,.15-.68.81.81,0,0,1,.39-.46,1,1,0,0,1,.57-.15.93.93,0,0,1,.65.22,1,1,0,0,1,.32.57l-.4.07a.5.5,0,0,0-.21-.36.7.7,0,0,0-.86.11,1.2,1.2,0,0,0-.18.72,1.19,1.19,0,0,0,.18.71.59.59,0,0,0,.5.22.5.5,0,0,0,.4-.15A.87.87,0,0,0,78.58,18.76Z"/><path class="cls-10" d="M80.23,19.29l.07.36a.88.88,0,0,1-.32,0,1,1,0,0,1-.36-.07.52.52,0,0,1-.18-.18,1.92,1.92,0,0,1,0-.5V17.5h-.33v-.32h.33v-.61l.42-.25v.86h.43v.32h-.43v1.44c0,.1,0,.18,0,.21s0,.07.07.07.07,0,.15,0S80.16,19.29,80.23,19.29Z"/><path class="cls-10" d="M80.66,16.75v-.46h.43v.46Zm0,2.9V17.18h.43v2.47Z"/><path class="cls-10" d="M81.55,18.44a1.26,1.26,0,0,1,.4-1,1.15,1.15,0,0,1,.78-.28,1.12,1.12,0,0,1,.83.32,1.3,1.3,0,0,1,.32.93,1.57,1.57,0,0,1-.14.75,1.36,1.36,0,0,1-.43.43,1.17,1.17,0,0,1-.61.14,1.08,1.08,0,0,1-.83-.32A1.39,1.39,0,0,1,81.55,18.44Zm.43,0a1,1,0,0,0,.22.71.61.61,0,0,0,.5.25.54.54,0,0,0,.5-.25,1.27,1.27,0,0,0,.21-.71,1,1,0,0,0-.21-.68.73.73,0,0,0-.5-.26.53.53,0,0,0-.5.26A1.12,1.12,0,0,0,82,18.44Z"/><path class="cls-10" d="M84.34,19.65V17.18h.36v.36a.82.82,0,0,1,.79-.39,1.18,1.18,0,0,1,.39.07.55.55,0,0,1,.29.21.63.63,0,0,1,.14.33c0,.07,0,.21,0,.39v1.5h-.43v-1.5a1.06,1.06,0,0,0,0-.39.73.73,0,0,0-.18-.22.61.61,0,0,0-.28-.07.74.74,0,0,0-.47.18c-.14.11-.18.32-.18.64v1.36Z"/><path class="cls-10" d="M88.32,19.65v-3.4H89.6a1.45,1.45,0,0,1,.61.11.75.75,0,0,1,.36.32,1.07,1.07,0,0,1,.14.47.73.73,0,0,1-.1.39,1.12,1.12,0,0,1-.36.32.89.89,0,0,1,.46.32.88.88,0,0,1,.18.51.79.79,0,0,1-.11.43.75.75,0,0,1-.25.32,1.15,1.15,0,0,1-.35.18,2.63,2.63,0,0,1-.54.07H88.32Zm.46-2h.72a1.52,1.52,0,0,0,.43,0,.54.54,0,0,0,.25-.18.4.4,0,0,0,.07-.29.77.77,0,0,0-.07-.28,1.09,1.09,0,0,0-.22-.18,1.69,1.69,0,0,0-.5,0h-.68Zm0,1.58H90c.11,0,.18,0,.25-.11a.39.39,0,0,0,.18-.18.61.61,0,0,0,.07-.28.47.47,0,0,0-.1-.33.48.48,0,0,0-.29-.18,1.92,1.92,0,0,0-.5-.07h-.79v1.15Z"/><path class="cls-10" d="M93.07,19.65v-.36a.87.87,0,0,1-.78.43,1.19,1.19,0,0,1-.4-.07,1,1,0,0,1-.28-.21.73.73,0,0,1-.15-.32c0-.08,0-.22,0-.4V17.18h.43v1.4a1.48,1.48,0,0,0,0,.43.45.45,0,0,0,.18.25.44.44,0,0,0,.32.11.69.69,0,0,0,.36-.11A.48.48,0,0,0,93,19a1.87,1.87,0,0,0,.07-.47V17.22h.43v2.43Z"/><path class="cls-10" d="M94.08,19.65V17.18h.35v.36a1.59,1.59,0,0,1,.26-.36.33.33,0,0,1,.25-.07.7.7,0,0,1,.42.14l-.14.4a.59.59,0,0,0-.32-.11.57.57,0,0,0-.25.07.68.68,0,0,0-.14.22,1.87,1.87,0,0,0-.08.5v1.32Z"/><path class="cls-10" d="M97.33,18.86l.43,0a.93.93,0,0,1-.39.57,1.11,1.11,0,0,1-.72.22,1.2,1.2,0,0,1-.86-.32,1.31,1.31,0,0,1-.32-.93,1.33,1.33,0,0,1,.32-1,1.17,1.17,0,0,1,.83-.36,1.14,1.14,0,0,1,.82.32,1.27,1.27,0,0,1,.32.93v.11H95.94a.92.92,0,0,0,.21.61.72.72,0,0,0,.5.21.74.74,0,0,0,.4-.1C97.19,19.19,97.3,19,97.33,18.86ZM96,18.18h1.36a1.14,1.14,0,0,0-.14-.46.75.75,0,0,0-.5-.25.68.68,0,0,0-.47.18A1.19,1.19,0,0,0,96,18.18Z"/><path class="cls-10" d="M99.91,19.37a1.5,1.5,0,0,1-.43.28,1,1,0,0,1-.47.07.78.78,0,0,1-.6-.21.63.63,0,0,1-.22-.5,1.14,1.14,0,0,1,.07-.32,1.94,1.94,0,0,1,.22-.25.69.69,0,0,1,.28-.15c.08,0,.22,0,.36-.07a3.47,3.47,0,0,0,.75-.14V18a.48.48,0,0,0-.1-.36.6.6,0,0,0-.47-.14.63.63,0,0,0-.43.11.48.48,0,0,0-.21.35l-.4-.07a1.32,1.32,0,0,1,.18-.43,1,1,0,0,1,.36-.25,1.42,1.42,0,0,1,.57-.07,1.79,1.79,0,0,1,.5.07.58.58,0,0,1,.29.18.66.66,0,0,1,.14.29c0,.07,0,.21,0,.39v.57a4.29,4.29,0,0,0,0,.76.41.41,0,0,0,.11.28h-.43A.34.34,0,0,1,99.91,19.37Zm0-.93a2.64,2.64,0,0,1-.68.14,1.29,1.29,0,0,0-.35.07c-.08,0-.15.07-.18.14a.47.47,0,0,0-.07.22.3.3,0,0,0,.14.28.49.49,0,0,0,.36.11.89.89,0,0,0,.43-.11A1.07,1.07,0,0,0,99.8,19a1.24,1.24,0,0,0,.07-.43Z"/><path class="cls-10" d="M102.56,19.65v-.36a.9.9,0,0,1-.79.43,1.13,1.13,0,0,1-.39-.07.9.9,0,0,1-.29-.21.63.63,0,0,1-.14-.32c0-.08,0-.22,0-.4V17.18h.43v1.4a1.12,1.12,0,0,0,0,.43.37.37,0,0,0,.18.25.43.43,0,0,0,.32.11.72.72,0,0,0,.36-.11.51.51,0,0,0,.21-.25,1.5,1.5,0,0,0,.07-.47V17.22H103v2.43Z"/><path class="cls-10" d="M34.07,25.34v-3.4h.46v1.68l1.68-1.68h.61L35.39,23.3l1.5,2h-.6l-1.22-1.72-.57.53v1.19h-.43Z"/><path class="cls-10" d="M38.79,25.06a1.5,1.5,0,0,1-.43.28,1,1,0,0,1-.46.07.79.79,0,0,1-.61-.21.63.63,0,0,1-.22-.5,1.14,1.14,0,0,1,.07-.32,3.28,3.28,0,0,1,.22-.26.82.82,0,0,1,.28-.14c.08,0,.22,0,.36-.07a3.35,3.35,0,0,0,.75-.14v-.11a.48.48,0,0,0-.1-.36.6.6,0,0,0-.47-.14.63.63,0,0,0-.43.11.48.48,0,0,0-.21.35l-.4-.07a1.32,1.32,0,0,1,.18-.43,1,1,0,0,1,.36-.25,1.42,1.42,0,0,1,.57-.07,1.79,1.79,0,0,1,.5.07.58.58,0,0,1,.29.18.66.66,0,0,1,.14.29c0,.07,0,.21,0,.39v.57a3.23,3.23,0,0,0,0,.76.4.4,0,0,0,.1.28h-.43A.82.82,0,0,1,38.79,25.06Zm0-.94a2.23,2.23,0,0,1-.68.15,1.39,1.39,0,0,0-.35.07c-.08,0-.15.07-.18.14a.47.47,0,0,0-.07.22.31.31,0,0,0,.14.28.55.55,0,0,0,.36.11A.89.89,0,0,0,38.4,25a1.24,1.24,0,0,0,.28-.28,1.24,1.24,0,0,0,.07-.43Z"/><path class="cls-10" d="M39.68,24.12a1.25,1.25,0,0,1,.4-1,1.15,1.15,0,0,1,.79-.28,1.12,1.12,0,0,1,.82.32,1.3,1.3,0,0,1,.32.93,1.57,1.57,0,0,1-.14.75,1.26,1.26,0,0,1-.43.43,1.17,1.17,0,0,1-.61.14,1,1,0,0,1-.82-.32A1.41,1.41,0,0,1,39.68,24.12Zm.43,0a1.09,1.09,0,0,0,.22.72.75.75,0,0,0,.5.25.54.54,0,0,0,.5-.25,1.28,1.28,0,0,0,.22-.72,1,1,0,0,0-.22-.67.73.73,0,0,0-.5-.26.54.54,0,0,0-.5.26A.9.9,0,0,0,40.11,24.12Z"/><path class="cls-10" d="M42.48,25.34v-3.4h.43v1.22a.88.88,0,0,1,.75-.32.9.9,0,0,1,.46.1.8.8,0,0,1,.29.29,1.18,1.18,0,0,1,.07.54v1.57h-.43V23.77a.65.65,0,0,0-.14-.47.49.49,0,0,0-.4-.14.6.6,0,0,0-.35.11.48.48,0,0,0-.22.25,1.53,1.53,0,0,0-.07.46v1.36Z"/><path class="cls-10" d="M44.94,24.63l.43-.08a.55.55,0,0,0,.61.54.71.71,0,0,0,.43-.11.32.32,0,0,0,.15-.28.23.23,0,0,0-.11-.22L46,24.34a2.39,2.39,0,0,1-.65-.22,1,1,0,0,1-.28-.25.56.56,0,0,1-.11-.32.77.77,0,0,1,.07-.28.34.34,0,0,1,.22-.22l.25-.11a1.27,1.27,0,0,1,.36,0,2,2,0,0,1,.5.07.78.78,0,0,1,.32.21,1,1,0,0,1,.14.4h-.36a.53.53,0,0,0-.14-.29.57.57,0,0,0-.39-.11.6.6,0,0,0-.4.11.32.32,0,0,0-.1.22.2.2,0,0,0,0,.14.57.57,0,0,0,.14.11,1.41,1.41,0,0,1,.36.1l.61.18a.57.57,0,0,1,.29.22.61.61,0,0,1,.1.36.73.73,0,0,1-.1.39,1.07,1.07,0,0,1-.36.29,1.15,1.15,0,0,1-.5.1,1,1,0,0,1-.72-.21A.79.79,0,0,1,44.94,24.63Z"/><path class="cls-10" d="M47.49,22.44V22h.42v.46Zm0,2.9V22.87h.42v2.47Z"/><path class="cls-10" d="M50.13,25.34V25a.88.88,0,0,1-.78.43,1.19,1.19,0,0,1-.4-.07,1,1,0,0,1-.28-.21.63.63,0,0,1-.15-.33c0-.07,0-.21,0-.39V22.87h.43v1.36a1.44,1.44,0,0,0,0,.43.41.41,0,0,0,.18.25.44.44,0,0,0,.32.11.61.61,0,0,0,.36-.11.48.48,0,0,0,.22-.25,1.78,1.78,0,0,0,.07-.46V22.87h.43v2.47Z"/><path class="cls-10" d="M51.17,25.34V22.87h.36v.36a.82.82,0,0,1,.79-.39,1.18,1.18,0,0,1,.39.07.59.59,0,0,1,.29.21.73.73,0,0,1,.14.33c0,.07,0,.21,0,.39v1.5h-.43v-1.5a1.06,1.06,0,0,0,0-.39.92.92,0,0,0-.18-.22.62.62,0,0,0-.29-.07.74.74,0,0,0-.46.18c-.14.11-.18.32-.18.64v1.36Z"/><path class="cls-10" d="M53.71,25.56l.4.07a.42.42,0,0,0,.14.28.71.71,0,0,0,.43.11.63.63,0,0,0,.43-.11.49.49,0,0,0,.21-.32,1.56,1.56,0,0,0,0-.53.85.85,0,0,1-.68.32.93.93,0,0,1-.79-.36,1.49,1.49,0,0,1-.29-.9,1.19,1.19,0,0,1,.15-.64.89.89,0,0,1,.36-.46,1,1,0,0,1,.57-.18.83.83,0,0,1,.71.35v-.28h.4V25a2.29,2.29,0,0,1-.11.82,1.13,1.13,0,0,1-.36.4,1.25,1.25,0,0,1-.61.14,1.1,1.1,0,0,1-.71-.22A.74.74,0,0,1,53.71,25.56Zm.36-1.47a1.19,1.19,0,0,0,.18.71.6.6,0,0,0,.93,0,1,1,0,0,0,.18-.68.92.92,0,0,0-.22-.67.6.6,0,0,0-.46-.22.57.57,0,0,0-.47.22A1.2,1.2,0,0,0,54.07,24.09Z"/><path class="cls-10" d="M60.22,24.16l.47.11a1.76,1.76,0,0,1-.5.86,1.48,1.48,0,0,1-.9.28,1.68,1.68,0,0,1-.89-.21,1.7,1.7,0,0,1-.54-.65,2.61,2.61,0,0,1-.18-.89,2,2,0,0,1,.22-.93,1.52,1.52,0,0,1,.57-.61,1.7,1.7,0,0,1,.82-.21,1.41,1.41,0,0,1,.86.25,1.64,1.64,0,0,1,.5.71l-.43.11a.85.85,0,0,0-.35-.54,1.08,1.08,0,0,0-.58-.18,1.3,1.3,0,0,0-.64.18.88.88,0,0,0-.36.5,2.1,2.1,0,0,0-.1.65,1.62,1.62,0,0,0,.14.75.81.81,0,0,0,.39.46,1,1,0,0,0,.57.15.86.86,0,0,0,.93-.79Z"/><path class="cls-10" d="M61.19,22.44V22h.43v.46Zm0,2.9V22.87h.43v2.47Z"/><path class="cls-10" d="M63.12,25l.07.36a.85.85,0,0,1-.32,0,1.09,1.09,0,0,1-.36-.07.42.42,0,0,1-.17-.18,1.45,1.45,0,0,1,0-.5V23.19H62v-.32h.32v-.61l.43-.25v.86h.43v.36h-.43v1.43c0,.11,0,.18,0,.22s0,.07.07.07.07,0,.14,0Z"/><path class="cls-10" d="M63.52,26.31l0-.4a.64.64,0,0,0,.25,0c.11,0,.18,0,.22,0a.27.27,0,0,0,.14-.14,1.13,1.13,0,0,0,.14-.32s0-.07,0-.11l-.93-2.47h.46l.5,1.43a2.07,2.07,0,0,1,.18.58,4.3,4.3,0,0,1,.18-.58l.54-1.43h.43l-.93,2.51a3.91,3.91,0,0,1-.25.57.57.57,0,0,1-.25.29.63.63,0,0,1-.36.1A1,1,0,0,1,63.52,26.31Z"/><path class="cls-10" d="M68.85,24v-.4h1.43v1.26a2.16,2.16,0,0,1-.68.39,2.3,2.3,0,0,1-.72.14A1.86,1.86,0,0,1,68,25.2a1.38,1.38,0,0,1-.61-.61,2,2,0,0,1-.21-.89,2.08,2.08,0,0,1,.21-.93,1.29,1.29,0,0,1,.61-.65,1.86,1.86,0,0,1,.89-.21,2.07,2.07,0,0,1,.68.1.93.93,0,0,1,.47.33,1.2,1.2,0,0,1,.25.57l-.39.11a.88.88,0,0,0-.18-.4.75.75,0,0,0-.32-.25,1,1,0,0,0-.47-.07,1.27,1.27,0,0,0-.54.11.85.85,0,0,0-.35.25.88.88,0,0,0-.22.32,2.11,2.11,0,0,0-.14.68,1.53,1.53,0,0,0,.14.75,1,1,0,0,0,.47.47,1.37,1.37,0,0,0,.64.14,1.65,1.65,0,0,0,.57-.11,1.19,1.19,0,0,0,.43-.25V24Z"/><path class="cls-10" d="M70.75,24.12a1.25,1.25,0,0,1,.39-1,1.15,1.15,0,0,1,.79-.28,1.12,1.12,0,0,1,.82.32,1.3,1.3,0,0,1,.32.93,1.46,1.46,0,0,1-.14.75,1.26,1.26,0,0,1-.43.43,1.15,1.15,0,0,1-.61.14,1,1,0,0,1-.82-.32A1.4,1.4,0,0,1,70.75,24.12Zm.42,0a1.09,1.09,0,0,0,.22.72.61.61,0,0,0,.5.25.53.53,0,0,0,.5-.25,1.28,1.28,0,0,0,.22-.72,1,1,0,0,0-.22-.67.73.73,0,0,0-.5-.26.55.55,0,0,0-.5.26A1.11,1.11,0,0,0,71.17,24.12Z"/><path class="cls-10" d="M74.22,25.34l-.93-2.47h.43l.53,1.47a2.26,2.26,0,0,1,.15.5,2.6,2.6,0,0,1,.14-.46l.54-1.51h.42l-.93,2.47Z"/><path class="cls-10" d="M77.58,24.55l.43,0a.93.93,0,0,1-.39.57,1.11,1.11,0,0,1-.72.22,1.19,1.19,0,0,1-.86-.32,1.57,1.57,0,0,1,0-1.9,1.15,1.15,0,0,1,.82-.36,1.16,1.16,0,0,1,.83.32,1.31,1.31,0,0,1,.32.93v.11H76.18a.92.92,0,0,0,.22.61.74.74,0,0,0,.89.11C77.44,24.88,77.54,24.73,77.58,24.55Zm-1.36-.68h1.36a1.32,1.32,0,0,0-.14-.46.8.8,0,0,0-.5-.25.68.68,0,0,0-.47.18A1.09,1.09,0,0,0,76.22,23.87Z"/><path class="cls-10" d="M78.55,25.34V22.87h.35v.36a2.07,2.07,0,0,1,.25-.36.37.37,0,0,1,.26-.07.7.7,0,0,1,.42.14l-.14.4a.59.59,0,0,0-.32-.11.57.57,0,0,0-.25.07.68.68,0,0,0-.14.22,1.87,1.87,0,0,0-.08.5v1.29h-.35Z"/><path class="cls-10" d="M80.12,25.34V22.87h.36v.36a.82.82,0,0,1,.79-.39,1.18,1.18,0,0,1,.39.07.59.59,0,0,1,.29.21.73.73,0,0,1,.14.33c0,.07,0,.21,0,.39v1.5H81.7v-1.5a1.06,1.06,0,0,0,0-.39.92.92,0,0,0-.18-.22.62.62,0,0,0-.29-.07.74.74,0,0,0-.46.18c-.14.11-.18.32-.18.64v1.36Z"/><path class="cls-10" d="M82.77,25.34V22.87h.36v.36a.91.91,0,0,1,.32-.29,1,1,0,0,1,.89,0,.44.44,0,0,1,.25.33.89.89,0,0,1,.76-.43.77.77,0,0,1,.57.21.84.84,0,0,1,.18.61v1.68h-.43V23.8a.76.76,0,0,0,0-.35.29.29,0,0,0-.14-.18.46.46,0,0,0-.25-.08.63.63,0,0,0-.43.18.74.74,0,0,0-.18.54v1.43H84.2V23.73a.78.78,0,0,0-.11-.43.34.34,0,0,0-.32-.14.52.52,0,0,0-.32.11.45.45,0,0,0-.22.28,2.23,2.23,0,0,0-.07.5v1.29Z"/><path class="cls-10" d="M88.39,24.55l.43,0a.94.94,0,0,1-.4.57,1.1,1.1,0,0,1-.71.22,1.17,1.17,0,0,1-.86-.32,1.57,1.57,0,0,1,0-1.9,1.16,1.16,0,0,1,1.64,0,1.27,1.27,0,0,1,.33.93v.11H87a.92.92,0,0,0,.22.61.7.7,0,0,0,.5.21.73.73,0,0,0,.39-.1C88.24,24.88,88.32,24.73,88.39,24.55ZM87,23.87h1.36a1.13,1.13,0,0,0-.15-.46.75.75,0,0,0-.5-.25.66.66,0,0,0-.46.18A.83.83,0,0,0,87,23.87Z"/><path class="cls-10" d="M89.35,25.34V22.87h.36v.36a.82.82,0,0,1,.79-.39,1.18,1.18,0,0,1,.39.07.55.55,0,0,1,.29.21.63.63,0,0,1,.14.33c0,.07,0,.21,0,.39v1.5h-.43v-1.5a1.06,1.06,0,0,0,0-.39.73.73,0,0,0-.18-.22.61.61,0,0,0-.28-.07.74.74,0,0,0-.47.18c-.14.11-.18.32-.18.64v1.36Z"/><path class="cls-10" d="M92.9,25l.07.36a.91.91,0,0,1-.32,0,1,1,0,0,1-.36-.07.45.45,0,0,1-.18-.18,1.45,1.45,0,0,1,0-.5V23.19h-.32v-.32h.32v-.61L92.5,22v.86h.43v.36H92.5v1.43c0,.11,0,.18,0,.22s0,.07.07.07a.2.2,0,0,0,.14,0Z"/></svg>