<svg id="圖層_1" data-name="圖層 1" xmlns="http://www.w3.org/2000/svg" viewBox="0 0 121.88 55.69"><defs><style>.cls-1{fill:#00561f;}.cls-2{fill:#231815;}</style></defs><path class="cls-1" d="M60.91.13A15.61,15.61,0,0,0,45.2,15.66a15.71,15.71,0,0,0,31.42,0A15.6,15.6,0,0,0,60.91.13ZM57.34,29.42A6.05,6.05,0,0,1,56.16,29V19.49a4.22,4.22,0,0,1-2.94,1.22,4.12,4.12,0,1,1,0-8.24,4.08,4.08,0,0,1,4.12,4.1Zm2.14-17.36V29.79c-.38,0-.73-.1-1.07-.12V17.06a3.85,3.85,0,0,0,0-.49A5.25,5.25,0,0,0,51.1,11.8v-.25a4.2,4.2,0,0,1,8.39,0C59.49,11.75,59.49,11.84,59.48,12.06Zm1.8,17.77c-.12,0-.24,0-.37,0s-.2,0-.36,0V11.55a5.16,5.16,0,0,0-3.61-4.91,4.23,4.23,0,0,1,8,0,5.18,5.18,0,0,0-3.7,5Zm2.11-.16c-.28,0-.67.08-1,.12V12.06a4.75,4.75,0,0,1,0-.51,4.19,4.19,0,0,1,8.38,0v.25a5.25,5.25,0,0,0-7.33,4.77v13.1ZM65.67,29a7.74,7.74,0,0,1-1.18.38V16.57a4.09,4.09,0,0,1,4.16-4.1,4.12,4.12,0,1,1,0,8.24,4.28,4.28,0,0,1-3-1.22Zm1-.34.07-7.33a4.65,4.65,0,0,0,1.94.4,5.19,5.19,0,0,0,3.1-9.4,4.3,4.3,0,0,0,0-.82A5.21,5.21,0,0,0,66.54,6.4H66a5.28,5.28,0,0,0-10.13,0h-.6a5.19,5.19,0,0,0-5.26,5.15,3.6,3.6,0,0,0,.06.82,5.11,5.11,0,0,0-2.18,4.2,5.24,5.24,0,0,0,5.29,5.2,4.74,4.74,0,0,0,1.91-.4l0,7.33a14.28,14.28,0,0,1-8.71-13,14.45,14.45,0,1,1,20.18,13Z" transform="translate(0.03 -0.13)"/><path class="cls-2" d="M9.29,45.63v2.24H7.82v4.18A1,1,0,0,0,9,53.21a13,13,0,0,0,2.75.15,22.87,22.87,0,0,0,2.69-.06,4.55,4.55,0,0,0,1-.12c.34,0,.58-.6.73-1.7l2.33,1a4.91,4.91,0,0,1-1.05,2.65,3.63,3.63,0,0,1-1.39.37c-1.44.1-2.92.16-4.35.16H10.37A12.17,12.17,0,0,1,8,55.44,2.22,2.22,0,0,1,5.49,53V47.87h-1V49.2a10.32,10.32,0,0,1-.89,4.38,6.18,6.18,0,0,1-2,2.24L0,54.19A5.38,5.38,0,0,0,1.6,52.28a8.72,8.72,0,0,0,.64-3.48v-.93H.38V45.63Zm8.76-4.23H16.13v1.54h2v2.22h-2v4.08a4.83,4.83,0,0,1-.46,2.54,2.09,2.09,0,0,1-1.83.74,6.69,6.69,0,0,1-1.95-.23l-.4-2.55a6.13,6.13,0,0,0,2,.33c.13,0,.21-.07.25-.27a7,7,0,0,0,.07-1.12V45.16H9.29V42.94h4.55v-2h1.78V39.83h-13V41.3H.22V37.54H18.05Zm-9.25.22v2.3H1.28v-2.3Zm4.37,6.91L11,49.42A12,12,0,0,0,9.7,46.55l1.94-.92A13.13,13.13,0,0,1,13.17,48.53Z" transform="translate(0.03 -0.13)"/><path class="cls-2" d="M26.49,43.44a18.87,18.87,0,0,1-1.62,2.85v9.53H22.59V48.94c-.28.27-.52.48-.72.66l-1.54-2.07A20.82,20.82,0,0,0,22.66,45a14.45,14.45,0,0,0,1.71-2.82ZM26.08,38a17.42,17.42,0,0,1-1.64,2.58,14.26,14.26,0,0,1-2.25,2.26l-1.54-2.06a18.3,18.3,0,0,0,2-1.87,12.16,12.16,0,0,0,1.44-2.08Zm2.76,13.69a14.37,14.37,0,0,1-1.79,3.85L25.27,54a12.64,12.64,0,0,0,1.62-3.27Zm-2.35-2.21V47.44H39.05v2.07H33a8.74,8.74,0,0,1,1.8,1.65l-1.38,1.7a15.27,15.27,0,0,0-2-2.12l1.22-1.23ZM33.86,37v1.32h4.78v2H33.86v.83h4.71v5.58H27V41.14h4.65v-.83H26.89v-2h4.72V37ZM31.27,50.81V53.2c0,.45.14.67.42.71a4.21,4.21,0,0,0,.56,0A9.48,9.48,0,0,0,34,53.85a.57.57,0,0,0,.36-.49,4.74,4.74,0,0,0,.16-1.24l2.12,1.24c-.12,1.09-.36,1.8-.78,2.08a3.63,3.63,0,0,1-1.07.28,18.51,18.51,0,0,1-2.53.1c-.56,0-1,0-1.44-.08a1.64,1.64,0,0,1-1.73-1.89v-3Zm-1.06-6.08V43.11H29.15v1.62Zm2,0h1V43.11h-1Zm3,0h1.13V43.11H35.24Zm4.52,9.2L37.61,55a19.93,19.93,0,0,0-1.56-3.53L38,50.56A16.14,16.14,0,0,1,39.76,53.93Z" transform="translate(0.03 -0.13)"/><path class="cls-2" d="M52.59,38.45a4.14,4.14,0,0,1-.38.35,32.36,32.36,0,0,0,3.58,2.25,27.33,27.33,0,0,0,4.66,2.06l-1.37,2.45a26,26,0,0,1-4.54-2.34,33.53,33.53,0,0,1-4-2.86,35.71,35.71,0,0,1-8.09,5.2l-1.27-2.37a33.24,33.24,0,0,0,9.55-6.33Zm-.23,4.49v3.78h5.51v2.37H52.36V53.2h7.38v2.37h-18V53.2h2.76V45.8h2.45v7.4h3V42.94Z" transform="translate(0.03 -0.13)"/><path class="cls-2" d="M66.18,42H62.57V39.91H64.7a10.79,10.79,0,0,0-.91-1.33l1.94-1.21a11.34,11.34,0,0,1,1.39,2l-.83.53h2V37h2.27v3h1.8V37h2.25v3h1.05c.32-.81.62-1.6.92-2.45l2.49.73a17.16,17.16,0,0,1-.88,1.72h2.44V42h-4L76,43.35h3.92v2.21H72.62v.76H79v2.11H72.62v.74h8V51.4H75.58c.33.16.66.28,1,.42A22.21,22.21,0,0,0,80.75,53l-1.31,2.53a21.23,21.23,0,0,1-4.67-2.07A15.94,15.94,0,0,1,72.62,52v3.87H70.19V52a19.59,19.59,0,0,1-2,1.43,27.23,27.23,0,0,1-4.74,2.07l-1.22-2.2a28.35,28.35,0,0,0,4.09-1.36c.43-.17.81-.37,1.15-.53h-5V49.17h7.7v-.74h-6V46.32h6v-.76H63.3V43.35h3.35Zm2.51,0,.49,1.31h4.34L74,42Z" transform="translate(0.03 -0.13)"/><path class="cls-2" d="M88.44,37.37c-.13.3-.27.57-.39.82h3.77c.16-.48.32-1,.44-1.47l2.43.57c-.14.33-.27.63-.41.9h5.84v2H93.88v.63h5.41v2H93.88v.66h5.41v2H93.88v.66h6.47v2H93.64v.91h7.69v2H95.87c.48.25,1,.47,1.52.7a23.94,23.94,0,0,0,4.28,1.18l-1.32,2.46a19.94,19.94,0,0,1-4.64-2.11,13.63,13.63,0,0,1-2.07-1.45v4.06H91.36V51.76a18.1,18.1,0,0,1-2.16,1.53,31.44,31.44,0,0,1-5.06,2.11l-1.23-2.2a27.88,27.88,0,0,0,4.47-1.42c.62-.26,1.19-.54,1.71-.8H83.15v-2h8.21V48H87.13v.4H84.88V42.54c-.34.33-.65.62-1,.9l-1.14-2.23a13,13,0,0,0,3.48-4.49Zm3.14,2.81H87.13v.63h4.45Zm0,2.6H87.13v.66h4.45Zm0,2.62H87.13v.66h4.45Z" transform="translate(0.03 -0.13)"/><path class="cls-2" d="M121.85,55.82h-2.11v-.5H106.18v.5H104.1V37.21h17.75Zm-2.11-2.38V39.1H106.18V53.44Zm-7.86-13.7v-.48h2v.48h5.46V41.3h-5.46v.41h4.73v5.16h-.56a11.2,11.2,0,0,1,1,.85l-1,1.31c-.21-.2-.41-.38-.62-.59a1.08,1.08,0,0,1-.45.07v.82h2.52V51H117c0,.92-.15,1.49-.5,1.73a2.6,2.6,0,0,1-1.84.49,4.05,4.05,0,0,1-1.38-.17L113,51.16a4.49,4.49,0,0,0,1.69.32c.15,0,.26-.17.29-.5h-3.65a6.45,6.45,0,0,1,.68.9L110.17,53A6.69,6.69,0,0,0,109,51.4l.66-.42h-3.17V49.33H115v-.65c-2.53.21-5.09.35-7.72.41l-.39-1.37c1.7,0,3.38-.1,5-.19v-.66h-4.64V41.71h4.64V41.3h-5.26V39.74Zm0,3.87v-.5h-2.6v.5Zm0,1.89V45h-2.6v.51Zm2-1.89h2.7v-.5h-2.7Zm0,1.89h2.7V45h-2.7Zm2,1.77-.36-.22.16-.18h-1.81v.54C114.55,47.36,115.21,47.33,115.89,47.27Z" transform="translate(0.03 -0.13)"/><path class="cls-2" d="M66,49.55" transform="translate(0.03 -0.13)"/></svg>