<svg xmlns="http://www.w3.org/2000/svg" width="126.205" height="30" viewBox="0 0 126.205 30">
  <g id="Group_5235" data-name="Group 5235" transform="translate(-26.528 -20.516)">
    <path id="Path_19829" data-name="Path 19829" d="M99.617,30.773v.243c-.054.552-.582.7-1.157.659-.126.031-.148.138-.276.117a2.106,2.106,0,0,0-.255.881c.065.031.084.1.117.159-.063.86.117,1.487.1,2.314-.021.1.063.084.063.159a1.168,1.168,0,0,0-.245,1.017c.011.121.075.247.086.341,0,.033-.052.086-.042.115.01.065.075.109.086.161s-.033.042-.044.094c0,.067.052.161.044.2,0,.086-.044.19-.044.247.011.115.117.178.117.272,0,.128-.073.109-.14.224a1.651,1.651,0,0,1-.019.192c-.033.075-.107.149-.117.2-.063.278.159.626.136.879-.029.352-.444.513-.615.734.023.063.075.172.023.224a6.654,6.654,0,0,1-1.04-.021v-.161a2.184,2.184,0,0,0-.617-.117c-.456-.075-.563-.582-1.061-.613-.3-.266-.5-.628-.914-.785a1.276,1.276,0,0,0-.232-.458v-.084c.318.075.816-.054.965.2.266-.023.51.149.743.18.138.011.3-.019.456,0a1.184,1.184,0,0,0,.255.044c.711-.063.743-1.276.7-1.935.318-.487.169-1.379.222-2.111.01-.063.054-.126.044-.2,0-.148-.086-.307-.086-.456,0-.339.075-.713.086-1.061a1.231,1.231,0,0,1-.107-.479c-.234-.328-.446-.073-.8,0-.266.054-.594.054-.881.086-.18.031-.351.138-.5.17a3.431,3.431,0,0,0-.372,0c-.117.019-.234.169-.36.1-.084.011-.065.119-.14.14a1.247,1.247,0,0,1-.2-.021c-.012,0-.023.01-.033.01v-.625c.159-.075.192-.17.414-.224.115-.031.2-.192.351-.234a6.613,6.613,0,0,0,1.3-.479c.148-.063.255-.232.393-.285s.318-.01.381-.18c.012-.126-.063-.17-.082-.255.063-.117.178-.18.222-.32,0-.148-.128-.169-.14-.318-.01-.126.117-.234.1-.381-.042-.234-.381-.33-.456-.542a3.386,3.386,0,0,1-.115-.37c-.056-.469.328-.638.393-1.084a1.12,1.12,0,0,1,.881-.3c.136.031.19.234.36.2a.754.754,0,0,0,.391.437c.086.18-.052.307-.073.456-.033.243.211.5,0,.722.136.159.052.54.276.615-.033.169.063.234.117.339a1.039,1.039,0,0,1,.339.159.928.928,0,0,1,.023.2c.126.149.318.086.477.138.211.075.33.339.5.456Zm-6.05,6.676c.243-.318.521-.613.784-.912-.1-.33.151-.393.107-.711a.41.41,0,0,0-.266-.107.807.807,0,0,0-.625-.414V37.45Zm0-11.7v-1.5c.372-.033.7-.287,1.1-.222.073.01.148.084.243.105.044.01.107-.011.14,0a.762.762,0,0,0,.36.138.864.864,0,0,1,.659.479c-.234.19-.32.519-.638.636-.171-.054-.243.01-.4.021a.4.4,0,0,0-.1.18c-.107.011-.119-.075-.224-.063A2.5,2.5,0,0,1,93.567,25.752Zm0,12.3a.63.63,0,0,0-.105-.115.19.19,0,0,0,.105.031v.084Zm0-5.414a1.3,1.3,0,0,0-.245.192c-.075,0-.1.042-.18.021-.243.276-.713.318-.923.615-.51.044-.6.5-1.157.5.042-.245.3-.276.423-.435-.073-.128.023-.255.075-.339.414.063.446-.257.722-.341v-.18a3.2,3.2,0,0,0,.638-.3c.063-.042.105-.149.18-.2a2.4,2.4,0,0,1,.456-.159h.012v.625Zm0-8.385h-.105a.726.726,0,0,1-.287.245h-.234c-.086.328-.456.243-.8.318-.107.031-.159.17-.266.1a1.487,1.487,0,0,1-.753.318,1.121,1.121,0,0,1-.8.245c-.1.167-.3.148-.5.211-.063.011-.117.075-.18.084a1.893,1.893,0,0,1-.276,0,2.716,2.716,0,0,0-.521.2c-.169.063-.349.044-.444.119-.458-.023-.68.19-1.092.2-.077.021-.077.117-.161.117-.351.1-.776.084-1.136.18-.063.021-.1.063-.159.075-.232.019-.467-.1-.68-.054-.084.021-.138.1-.2.117a.552.552,0,0,1-.136.011v.2c.3.042.519.351.814.4.119.023.245-.033.362-.021.383.021.626.255.935.287a5.873,5.873,0,0,0,1.337-.222c.232-.128.4-.374.764-.3.031.117.149.213.138.341,0,.084-.1.126-.138.232-.021.054,0,.119-.021.159-.119.245-.414.437-.542.682-.042.063-.01.148-.042.222-.075.17-.245.285-.32.433-.019.033.011.119,0,.161-.063.159-.285.224-.2.477-.056.084-.215.117-.278.2-.031.04-.019.136-.042.18-.054.086-.169.117-.213.18s-.019.192-.063.276-.138.107-.18.182-.042.2-.094.3c-.086.149-.234.234-.224.446a3.107,3.107,0,0,0-.638.659,2.25,2.25,0,0,0-.159.774c.01.383.467.2.8.159a1.434,1.434,0,0,1,.594-.3c.117-.107.117-.351.308-.381.105-.437.488-.575.776-.818-.065-.255.222-.372.337-.594.056-.084.023-.236.1-.339.054-.086.182-.1.266-.182.063-.052.094-.17.159-.243s.149-.075.19-.117c.044-.065.044-.192.107-.276.117-.149.285-.192.318-.32s-.021-.285,0-.4c.042-.213.234-.341.2-.542-.01-.1-.107-.192-.128-.3a7.534,7.534,0,0,0-.115-.841c-.215-.159-.469-.255-.479-.615.169-.243.669-.159.86-.381a.664.664,0,0,0,.255-.054c.075-.031.094-.128.18-.159a1.852,1.852,0,0,0,.881-.224,3.934,3.934,0,0,1,.477-.063c.234-.084.234-.276.5-.276.3,0,.625.021.944.021v-1.5Zm0,11.05a2.989,2.989,0,0,0-1.487.138c-.222.086-.477.18-.521.36.1.054.128.182.318.255.448.17,1.339-.128,1.126.523a.319.319,0,0,1-.2.063,1.49,1.49,0,0,1-.266.435c-.2.444-.573.711-.732,1.2.192.172.351-.063.458-.18.37-.086.582-.456,1.059-.3.075-.117.159-.236.245-.352V35.306Zm-8.724-2.282V31.346a.382.382,0,0,1,.082.107c.011.159.075.423-.042.519.031.052.126.044.138.107a3.259,3.259,0,0,1-.178.944ZM93.216,22.1c.01.563-1.117.36-1.657.425-.115.094-.234.042-.412.054-.287.01-.617.211-.839.2-.192-.01-.352-.169-.521-.222s-.372-.031-.5-.1c-.213-.105-.213-.433-.5-.477.119-.19-.266-.213-.159-.477.575-.117,1.306.042,1.678-.3a4.987,4.987,0,0,0,1.3-.042c.433-.021,1.167.105,1.337.393.033.042.042.138.1.222.075.138.18.213.18.318ZM90.063,34.764c.128.17-.063.308-.1.479-.011.063.033.136.021.2-.01.117-.105.245-.136.383-.033.2.04.433-.086.617.1.052.031.2.063.335.023.1.119.192.119.3,0,.063-.056.138-.077.22-.063.322.021.9-.467.895-.222-.011-.274-.184-.477-.236-.011-.266-.381-.561-.37-.954.01-.1.084-.18.094-.289.011-.146-.031-.307-.021-.456.011-.285-.073-.571-.044-.774.011-.084.1-.126.107-.2.063-.234-.1-.435-.107-.636-.008-.075.034-.128.023-.182-.052-.169-.393-.351-.138-.561-.052-.138-.3-.17-.3-.3s.255-.245.383-.234c.264.031.381.4.529.5.021.351.266.489.383.755v.2C89.7,34.86,89.82,34.656,90.063,34.764Zm-5.22-8.023v.2a.575.575,0,0,0-.14-.011c0-.042-.011-.075-.042-.086.021-.094.094-.1.182-.1Zm0,4.605v1.678a2.36,2.36,0,0,0-.161,1.167c-.351.2-.065.944-.339,1.115a.441.441,0,0,1-.1.3c-.033.326.063.561-.023.793-.029.086-.159.128-.2.224a.705.705,0,0,0,0,.552c-.159.149-.1.393-.3.489.128.232-.115.412-.138.636-.307.1-.381.446-.722.5.075-.412.287-.561.318-1.017.193-.105.1-.307.14-.5.01-.075.094-.126.126-.224.033-.075.023-.169.054-.232.033-.086.107-.138.136-.224.056-.215-.04-.412.107-.542a.24.24,0,0,0,.278-.117,2.245,2.245,0,0,1-.119-.8c.044-.276-.052-.563,0-.816.023-.107.149-.215.159-.32a3.459,3.459,0,0,0-.021-.561c-.019-.151-.2-.308-.222-.479a1.909,1.909,0,0,1,.021-.318c-.01-.234-.073-.477-.073-.659,0-.318.04-.51-.159-.7.105-.159-.011-.4-.086-.521A.525.525,0,0,0,83.27,30c.063-.159-.023-.467.1-.575.021,0,.021.011.021.033a4.725,4.725,0,0,1,1.433,1.856C84.82,31.325,84.831,31.337,84.843,31.346Z" transform="translate(51.588 0.595)" fill="#1a1311"/>
    <path id="Path_19830" data-name="Path 19830" d="M91.7,38.062a1.354,1.354,0,0,1-.828-.044.721.721,0,0,1-.7-.094c-.575.011-1.082-.393-1.667-.444-.381-.034-.743.08-.87-.289-.785-.243-1.082-.977-1.7-1.4-.2-.352-.381-.724-.626-1.073-.115-.17-.3-.287-.4-.446-.011-.023-.021-.031-.033-.054V30.462a1.894,1.894,0,0,0,.105-.32c.056-.3-.052-.615.138-.858.5-.1.818.36,1.084.7a1.078,1.078,0,0,1,.37,1.031,2.81,2.81,0,0,1-.6.839c-.255.285-.521.54-.69.774a3,3,0,0,1-.021.425c.285.105.36.423.54.657.425.521,1.126.764,1.571,1.284.605.149.776.734,1.37.891.722.988,2.218,1.213,2.962,2.178Zm-7.531-9.893.7-.563a.981.981,0,0,1,.149-.084c.17-.084.36-.117.519-.192.063-.023.377-.105.441-.136a4.2,4.2,0,0,0,.494-.213,4.723,4.723,0,0,0,.969-.764c.234-.176.326-.149.464-.287.264-.033.456-.14.69-.075s.331.324.584.444c-.021.128.084.257.042.383a3.348,3.348,0,0,1-.489.466,4.619,4.619,0,0,1-1.178.329,5.51,5.51,0,0,1-.6.086c-.2.033-.3.036-.485.079a4.117,4.117,0,0,0-.483.134c-.128.042-.23.048-.377.082-.075.008-.247.067-.3.067a1.517,1.517,0,0,0-.439.167l-.548.1Zm.7-2.686V22.246c.657.063,1.464.107,1.538.659.044.33-.243.508-.423.711-.192.423-.5.762-.711,1.188A3.466,3.466,0,0,1,84.878,25.484Zm0,8.736c-.084-.159-.18-.435-.372-.467s-.531.264-.678.4c-.2.18-.374.444-.542.563a1.086,1.086,0,0,1-.213.084c-.222.169-.393.381-.636.561a1.358,1.358,0,0,1-.351.236c-.1.052-.138.126-.308.094-.054.011.011.126-.063.115-.372,0-.479.33-.734.467a1.115,1.115,0,0,1-.234.077c-.178.086-.262.213-.466.253v-.329c.255-.264.659-.456.839-.8.063.01.042.1.094.1a2.289,2.289,0,0,1,.893-.816c.213-.435.647-.605.987-1.01a2.1,2.1,0,0,0,.519-.8c.065-.414-.3-.818-.487-1.084a3.438,3.438,0,0,0-.4-.488,3.5,3.5,0,0,0-.946-.655,1.664,1.664,0,0,1,1.019.243,7.706,7.706,0,0,1,.893.435c.2.136.308.393.636.328a2.045,2.045,0,0,0,.351-.762c.052-.17.136-.341.2-.51v3.757Zm0-11.973v3.238a1.044,1.044,0,0,1-.084.117,7.123,7.123,0,0,1-1.22,1.337c-.257-.063-.234-.3-.213-.638,0-.126-.01-.276,0-.328a3.17,3.17,0,0,1,.18-.32,6.958,6.958,0,0,0,.307-1.22c.054-.213.215-.412.266-.615.021-.086.021-.19.044-.276.04-.14.136-.255.169-.372a2.3,2.3,0,0,0-.033-.774c.1-.138.257-.042.36-.17a1.807,1.807,0,0,0,.224.021Zm0,5.36v.264c-.213.075-.36.308-.584.4a2.753,2.753,0,0,1-.276.044,4.988,4.988,0,0,1-.657.19,2.6,2.6,0,0,0-1.021.213c-.115-.044-.307-.011-.412-.054-.065-.308.169-.423.276-.626.2-.148.339.128.521.159.115.021.234-.075.423-.115.18-.056.383-.044.521-.1.115-.044.2-.17.3-.213.18-.065.351.01.573-.021a1.331,1.331,0,0,0,.339-.149Zm-4.6,7.6a.32.32,0,0,0,.213-.255,1.133,1.133,0,0,0-.213-.511Zm0,1.4c-.042,0-.086.011-.126.011v-.178a.479.479,0,0,1,.126-.163v.329Zm0-2.165v.766a.688.688,0,0,1-.126.04v-.912a.693.693,0,0,1,.1.073c.01,0,.019.011.031.033Zm-.126-3.121V28.733a1.087,1.087,0,0,1,.073.36,5.543,5.543,0,0,1-.063.659c-.042.421.075.91.021,1.3C80.177,31.15,80.165,31.236,80.155,31.321Zm0,5.3a.223.223,0,0,1-.086-.011.493.493,0,0,1,.086-.167v.178Zm0-7.885v2.588a7.238,7.238,0,0,1-.161.86c-.318.084-.487-.17-.732-.18-.084-.266-.414-.308-.372-.636.2-.084.5-.224.542-.489.021-.128-.033-.287-.023-.4a9.935,9.935,0,0,0-.073-2.251c.339-.126.669.149.818.511Zm0,5.6c-.054-.031-.119-.063-.161-.094-.4-.257-.561.04-1.008.232a5.679,5.679,0,0,1-.828.287c-.351.073-1,.073-1.147-.192s.033-.785.023-1.073c-.011-.381-.056-.743-.044-1.125.01-.829-.019-1.6.065-2.366a.458.458,0,0,1,0-.469c-.148-.178-.044-.444-.044-.7s-.075-.519-.1-.8.044-.6,0-.849c-.052-.341-.393-.68-.138-1.029a5.447,5.447,0,0,1,.8-.234c.171-.063.3-.215.467-.255.2-.063.435-.044.594-.119.19-.094.276-.307.489-.349.276-.075.839.075.944-.17.063-.159-.192-.446-.351-.54-.138-.075-.381-.14-.54-.215-.308-.126-.467-.222-.69-.136-.075.033-.159.021-.255.052-.149.044-.3.149-.467.215s-.362.1-.54.159c-.31.1-.575.339-.851.423-.171.054-.393.084-.584.138a2.985,2.985,0,0,1-.849.138c-.531,0-1,.329-1.571.213.011.243.245.307.444.307a.559.559,0,0,0,.1.3,2.023,2.023,0,0,0,.891.54,1.137,1.137,0,0,0,.818-.136c.318.115.285.489.328.889a5.415,5.415,0,0,1,.1.68c.011.531-.159,1.073-.138,1.636.021.456-.117.912-.117,1.356,0,.215.042.425.021.617-.011.138-.084.264-.1.393-.012.107.033.224.021.33a6.825,6.825,0,0,1-.136.722,1.419,1.419,0,0,0,.073.636c.012.1,0,.224.023.329.04.234.2.423.159.638-.1.54-1.033.393-1.5.466-.149.023-.243.105-.381.063-.192-.444.159-.954.232-1.538.056-.329.023-.669.075-1.008-.169-.213-.213-.6-.444-.893-.075-.1-.222-.148-.308-.234-.222-.243-.372-.6-.669-.37-.054.222.105.36.1.582-.011.128-.1.266-.1.393,0,.1.063.17.073.255a2.073,2.073,0,0,1-.115.68c-.044.169-.065.339-.1.5-.075.308-.222.584-.308.891-.084.289-.128.563-.232.841a5.711,5.711,0,0,0-.266.816c.3.456.477,1.1,1.061,1.178.435.054.571-.307.86-.444.063-.034.148-.034.232-.075a.945.945,0,0,1,.193-.117c.082-.033.211-.011.307-.044.3-.105.54-.329.741-.383.151-.029.289-.01.4-.04a1.567,1.567,0,0,1,.776-.19,7.442,7.442,0,0,1,1.741-.395,1.936,1.936,0,0,1,.329-.115c.084-.011.178.031.255.019.328-.019.592-.211.964-.157.065-.086.224-.109.374-.151Z" transform="translate(41.563 1.565)" fill="#1a1311"/>
    <path id="Path_19831" data-name="Path 19831" d="M67.865,33.924c.042.266-.148.427-.136.715-.1.019-.023-.119-.128-.086-.021.138.105.128.105.243-.021.605-.115,1.04-.648,1.178a5.289,5.289,0,0,1-1.22-.1c-.075-.008-.117.021-.169.01-.18-.017-.341-.094-.5-.115a2.775,2.775,0,0,0-1.017.138c-.182.052-.341.04-.488.086-.086.031-.215.126-.308.126-.266-.01-.383-.4-.488-.657-.033-.1-.107-.172-.117-.224a1.758,1.758,0,0,1,.063-.914c.042-.19.105-.318.159-.563.075-.381.329-.7.383-.975.031-.14-.011-.308.019-.446.034-.159.119-.318.161-.467.054-.18.063-.349.105-.529.1-.425.245-.67.308-1.115.044-.341.287-.766.362-1.147.052-.266.178-.893-.119-.914-.148,0-.169.128-.264.215a4.386,4.386,0,0,0-1.061.741,6.148,6.148,0,0,0-.743.755c-.192.232-.3.54-.573.69-.264.36-.531.743-.828,1.094-.1.115-.243.2-.329.307-.075.086-.117.222-.2.33-.126.149-.264.222-.285.467-.276.159-.351.531-.626.69,0,.084-.063.105-.063.18-.329.245-.467.648-.732.956a3.769,3.769,0,0,0-.8.975c-.573.352-.881,1.18-1.538,1.381a.65.65,0,0,1-.4-.023c-.084-.019-.148-.092-.245-.115-.232-.075-.318-.075-.444-.266a4.622,4.622,0,0,0-.372-1.22c-.063-.126-.192-.253-.2-.37a1.656,1.656,0,0,1,.178-.519c.161-.215.489-.236.692-.395a.686.686,0,0,0,.594-.3c-.011-.374.044-.722.021-1.04a1.083,1.083,0,0,1-.042-.182c.01-.169.149-.329.065-.51-.1-.094-.32-.063-.352-.222a1.445,1.445,0,0,1-.711-.063c-.052-.126-.211-.138-.307-.222-.063-.056-.086-.159-.161-.245-.052-.063-.159-.084-.2-.138-.094-.117-.126-.287-.222-.4s-.234-.224-.328-.351c-.226-.32-.107-.8-.448-1.019-.052-.128-.052-.234-.1-.341-.031-.063-.115-.073-.1-.243.211.063.262.285.4.425.063.01.18-.023.2.019a4.688,4.688,0,0,0,1.1.755c.211.011.362.117.54.063.128-.042.1-.138.17-.234.063-.063.159-.031.182-.115a7.27,7.27,0,0,1,.222-1.159c.01-.084-.011-.159,0-.243.01-.063.052-.138.063-.2a2.137,2.137,0,0,0-.063-.489c-.023-.148.021-.318,0-.446-.031-.253-.107-.5-.159-.816a4.061,4.061,0,0,0-.351-.935c.383-.054.479.18.839.149a3.678,3.678,0,0,1,.755.6,3.016,3.016,0,0,1,.5.6,4.234,4.234,0,0,1,.192,2.333c-.01.075.063.075.054.159-.075.14-.031.257-.031.4-.023.318-.149.638-.17.935a3.388,3.388,0,0,1-.138,1.241c.094.36-.128.734-.021,1.031.349.105.381-.266.648-.32.329-.393.785-.678,1.155-1.061.128-.115.215-.285.352-.381.1-.075.222-.1.318-.159.37-.266.584-.734,1.061-.914v-.224a7.866,7.866,0,0,0,1.274-1.239c.138-.138.318-.245.444-.393.416-.4.9-.743,1.328-1.18.4.033.521-.222.669-.467.011-.211-.052-.393.063-.519-.126-.192-.042-.444-.063-.669a7.145,7.145,0,0,1-.222-1.4c.18-.182.489-.234.69-.393a1.067,1.067,0,0,0,.625-.159,3.882,3.882,0,0,1,.329,1.115c.033.136-.019.4.023.573.031.105.169.169.222.264a.71.71,0,0,1,.339.117,1.385,1.385,0,0,1,.638.51c.414.021.274.669.1.891a1.232,1.232,0,0,1-.467.329c-.308.128-.7.075-.851.341-.084.243-.031.625-.222.751.042.374-.2.469-.159.829-.075.084-.1.2-.17.266-.222,1.444-.753,2.663-1.071,4.065.213.245.626.011,1-.044.161-.019.329.011.49-.019.105-.021.2-.107.318-.117a4.685,4.685,0,0,1,.755.063,1.885,1.885,0,0,1,.222-.021C67.357,33.309,67.836,33.683,67.865,33.924Z" transform="translate(24.295 2.609)" fill="#1a1311"/>
    <g id="Group_5231" data-name="Group 5231" transform="translate(95.964 22.901)">
      <path id="Path_19832" data-name="Path 19832" d="M70.59,24.543c.682.49,1.515-.029,2.358-.427.845-.113,1.7-.9,2.439-.393a11,11,0,0,0,1.768-.266c.676.025,1.262.276,1.249,1.086-.011.58-.383.782-.874.856s-1.1.326-1.594.1a2.91,2.91,0,0,0-2.517.7c-.849.358-1.7,0-2.557.534-.171.059-.153.807-.136.96.019.349.034.893-.136.96a.9.9,0,0,1,.985-.379c.349-.136.707-.188,1.075-.326a1.452,1.452,0,0,1,1.105-.218,2.923,2.923,0,0,1,1.082.511c-.038.473-.054.914-.067,1.352-.012.209-.023.866-.054,1.366-.063.8-.211,2.6-.632,2.567-.42.6-1.111,1.579-2.262.883-.2-.877-.429-.649-.648-.791-.22-.307-.429-.251-.584-.854a4.107,4.107,0,0,0-.2,1.841c.008.316.021.609.038,1.1.013.435.033.636.05.868.019.067.034.464.046.718.013.341.021.5.021.726,0,.262,0,.42-.006.542s-.013.215-.021.345c-.013.362-.033.6-.057.565-.025.157-.054.169-.094.425a.9.9,0,0,1-.322.588c-.142.011-.324.349-.548.51a4.221,4.221,0,0,0-.337-.929,3.8,3.8,0,0,0-.211-.628,1.947,1.947,0,0,0-.105-.37c-.01-.146-.015-.188-.019-.412q0-.241,0-.46s.01-.352.017-.412a3.212,3.212,0,0,1,.029-.427,3.643,3.643,0,0,1,.092-.732,6.657,6.657,0,0,0,.119-.808c.04-.329.082-.747.125-1,.038-.331.077-.644.107-.887a12.515,12.515,0,0,0,.046-2.67c-.768.013-1.178,1.094-1.621,1.7a2.338,2.338,0,0,1-1.8,1.862c-.157-.586-.253-.136-.3-.835a4.59,4.59,0,0,1-.006-1.125,7.6,7.6,0,0,1,.218-1.27,4.616,4.616,0,0,1,.375-1.266c.142-.925.3-.142.464-1.333.161-.875.324-1.021.481-.615.236-.3.557-.1.9-.782a7.012,7.012,0,0,0,1.017-.45v-.824a4.473,4.473,0,0,0,2.368-.226,17.759,17.759,0,0,1,1.745-1.146c-.826-.052-1.665.686-2.5.471s-1.659.95-2.462.979c-.8.418-1.575.793-2.3,1.155-.768.734-1.533.613-2.117.835-.582.013-.989-.391-1.038-1.657.676.119,1.368-.343,2.059-.138.69.027,1.377-.54,2.048-.791.669-.362,1.316-.916,1.925-.854-.182.243-.609.176-.822-.412.406.167.446-.8.329-1.523-.117-.579-.389-1.441-.6-1.08a2.269,2.269,0,0,1,2.245.326C70.546,23.315,70.866,23.251,70.59,24.543Zm-1.236,5.211c.023-.887.14-.565.159-1.395.019-.962-.061-1.128-.433-1.073-.257.255-.5,1.023-.716.82-.213.155-.4.889-.552.755-.151.732-.264.49-.331,1.2a2.938,2.938,0,0,0-.044.923c.285-.046.611.069.943-.634A1.015,1.015,0,0,1,69.354,29.753Zm1.1.548a12.018,12.018,0,0,1,0,1.782c.462.611.874-.339,1.22.293.347.444.628-.249.829-.515a4.162,4.162,0,0,0,.354-1.054,4.76,4.76,0,0,0-.211-1.328,5,5,0,0,0-1.218.289C71.061,29.878,70.736,30.265,70.452,30.3Z" transform="translate(-62.774 -21.761)" fill-rule="evenodd"/>
    </g>
    <g id="Group_5232" data-name="Group 5232" transform="translate(54.537 22.571)">
      <path id="Path_19833" data-name="Path 19833" d="M46.575,22.566a2.465,2.465,0,0,1-.109,1.023,3.323,3.323,0,0,1-.4.732,1.768,1.768,0,0,0-.377.753c.073.216.165-.025.268.182.105.115.226-.048.352-.042.126.084.264-.013.406-.182.142-.19.287-.088.433-.226.149-.059.3-.188.439-.142a.31.31,0,0,0,.41-.1.365.365,0,0,1,.358.119,1.3,1.3,0,0,1,.282.534c-.2.061-.456.563-.738.6a1.778,1.778,0,0,1-.916.343,7.6,7.6,0,0,1-.977.167c-.32.036-.63.056-.908.073a3.689,3.689,0,0,0,.092-.829,6.182,6.182,0,0,0-.084-.927c-.056-.071-.138-.738-.247-.927a4.075,4.075,0,0,0-.4-.826,1.317,1.317,0,0,0-.54-.617.832.832,0,0,1,.544-.565c.22-.293.473.04.73.1.255-.065.517.163.757.4S46.4,22.411,46.575,22.566Z" transform="translate(-38.612 -21.589)" fill-rule="evenodd"/>
      <path id="Path_19834" data-name="Path 19834" d="M57,27.236v.59c-.241.126-.49.247-.743.362s-.511.226-.774.333c-.261.278-.523.182-.785.318-.262-.048-.525.4-.782.324a.823.823,0,0,0-.764.345c-.247-.054-.489.372-.722.381.178.1.333.552.467.68a1.285,1.285,0,0,1,.188.322c.059.149.111.368.159.523a2.109,2.109,0,0,1,.13.513c.04.42.077-.082.107.464.021.28.04.515.056.345a1.5,1.5,0,0,0,.048.362c.013-.149.025.314.036.307.01-.276.017.533.025.439.008.071.015.243.019.381,0,.437.008-.033.01.387a3.848,3.848,0,0,1,0,.41c0-.324,0,.142-.006.374-.006.569-.011.046-.021.515-.01.153-.021.1-.033.538-.006.1-.011-.1-.019.312-.008.456-.015-.148-.023.307a2.217,2.217,0,0,1-.052.425,3.033,3.033,0,0,1-.031.372c-.011.515-.021.362-.031.257s-.046.172-.071.379c-.023.437-.05.523-.077.554-.025.134-.052.247-.08.4-.111.609-.236,1.167-.36,1.638-1.011-.017-1.155-.908-1.475-1.621a.72.72,0,0,0,.481-.033c.123-.188.23-.2.4-.113-.019-.253-.038-.538-.054-.849-.017-.094-.031-.385-.042-.914a3.1,3.1,0,0,1-.017-.489c0,.092-.01-.046-.013-.473,0-.328-.006-.4-.008-.41,0-.285,0-.318-.006-.2s-.006-.385-.01-.374c0-.241-.006-.215-.008-.546,0-.406,0,.157-.006-.443,0-.169,0-.567,0-.734,0-.481,0-.525,0-.713v-.688c0-.115,0-.521,0-.648,0-.161,0-.314,0-.467s0-.293,0-.433c0-.261.006-.68.01-.761a2.758,2.758,0,0,1-.732-.006,6.071,6.071,0,0,1-2.069-.142c-.071.318-.125.674-.17,1.05-.044.494-.08.858-.115,1.182-.036.41-.069.948-.111,1.228-.04.527-.09.713-.151,1.184a8,8,0,0,1-.239,1.054c-.3.962-.8,1.6-1.718,1.527-.464-.506.469-.511.588-.883.073-.243.146-.5.216-.785s.136-.577.2-.887A5.905,5.905,0,0,0,48,33.738c.048-.222.092-.851.123-1.017a9.438,9.438,0,0,0,.067-1.04c.008-.341.006-.611-.01-1.036-.017-.343-.05-.68-.1-1.008a6.5,6.5,0,0,0-.519-1.81,13.727,13.727,0,0,1,.877-1.607c.159-.257.322-.51.481-.762a.677.677,0,0,1,.239-.333c.08-.023.159-.19.236-.435.077-.45.153-.293.226-.444.075-.069.146-.3.215-.358.069-.121.136-.477.2-.429.065-.257.125-.46.182-.433a3.729,3.729,0,0,1,.159-.552,1.925,1.925,0,0,0,.134-.395c.2-.136.427-.228.64.2a1.956,1.956,0,0,1,.3.358c.09.148.17.123.238.448.065.31.113.222.14.473a1.243,1.243,0,0,1,.01.437,2.013,2.013,0,0,1-.318.653,1.563,1.563,0,0,1-.625.611,3.208,3.208,0,0,1-.791.577,1.032,1.032,0,0,0-.816.542,7.961,7.961,0,0,0-.7.517,1.857,1.857,0,0,0-.439.489c.391.693,1.184.979,1.18,2.067a7.637,7.637,0,0,0,1.86-.808c.312-.176.628-.529.944-.552.316-.105.634-.469.954-.538.32-.138.642-.262.964-.437.324-.046.648-.421.973-.257a3.179,3.179,0,0,1,.981.013A3.049,3.049,0,0,1,57,27.236Z" transform="translate(-36.065 -21.246)" fill-rule="evenodd"/>
      <path id="Path_19835" data-name="Path 19835" d="M45.194,24.023c.071.381-2.033,1.841-2.5.738A16.543,16.543,0,0,0,45.194,24.023Z" transform="translate(-39.738 -19.36)" fill-rule="evenodd"/>
      <path id="Path_19836" data-name="Path 19836" d="M41.149,32.428a25.575,25.575,0,0,0,2.812-.918c.3-.113.6-.232.891-.351a1.172,1.172,0,0,0,.879-.366,1.282,1.282,0,0,0,.877-.364c.291.057.586-.224.881-.36,0-.3-.117-.632-.318-.7-.2-.291-.477-.144-.782-.138a2.784,2.784,0,0,0-.948.05,1.129,1.129,0,0,1-.814-.136.779.779,0,0,1-.381-.7c.345-.061.688.2,1.023-.125a2.576,2.576,0,0,0,.967-.287c.308-.2.6-.015.864-.435.266-.284.5-.356.709-.565a2.345,2.345,0,0,0,.713-2.274c-.494.577-.895,1.243-1.387,1.82a4.544,4.544,0,0,1-.531.538,2.98,2.98,0,0,1-.862-.169,1.056,1.056,0,0,1-.389-.648,1.452,1.452,0,0,1,.073-.8c1.941,1.136,2.864-2.5,4.718-.59.031.115,0,.291.146.293a5.269,5.269,0,0,1-1.916,1.918c.5.337,1.573-1.052,2.211-.148a2.624,2.624,0,0,1-1.316,1.042c-.268.128-.542.245-.8.381a1.312,1.312,0,0,0-.688.492c.222.138.473.431.741.366a2.426,2.426,0,0,0,.835-.117c.287-.08.575-.186.851-.255a1.687,1.687,0,0,1,.78-.048,1.135,1.135,0,0,1,.626.5c-.163.259-.364.431-.584.4a4.024,4.024,0,0,1-.709.1,5.012,5.012,0,0,0-.726.075c-.23-.023-.45.215-.634.3v1.031a1.064,1.064,0,0,0,.72.42c.289-.034.607.2.893.251a.74.74,0,0,1,.711.431,1.311,1.311,0,0,1,.182.962,1.024,1.024,0,0,1-.69-.266c-.207.061-.389-.2-.565-.395a3.134,3.134,0,0,1-.529-.429c-.178-.067-.366-.425-.575-.383a5.337,5.337,0,0,1,.006,1.215,4.069,4.069,0,0,1-.247,1.169,3.66,3.66,0,0,1-.456.939,1.39,1.39,0,0,1-.609.525c-.224.276-.467.1-.718-.065a7.568,7.568,0,0,1-.776-.833c.174-.243.4-.1.63-.082s.479.209.7-.063V31.985a1.565,1.565,0,0,0-.755.414,3.19,3.19,0,0,0-.542.716c-.155.241-.291.665-.427.822-.136.092-.27.479-.418.72-.149.282-.314.454-.513.423-.32-.056-.435-.46-.452-.6a2.1,2.1,0,0,1,.155-.854,1.981,1.981,0,0,0,.151-.611.8.8,0,0,0,.835-.236,3.976,3.976,0,0,0,.678-.389c.213-.144.416-.3.625-.444a4.979,4.979,0,0,1,.663-.406,1.1,1.1,0,0,0-.01-.431.833.833,0,0,0-.138-.307c-.31.111-.607.213-.9.312a6.184,6.184,0,0,1-.847.479c-1.391.877-2.707,1.985-4.6.979Z" transform="translate(-41.149 -19.065)" fill-rule="evenodd"/>
    </g>
    <g id="Group_5233" data-name="Group 5233" transform="translate(56.93 45.386)">
      <path id="Path_19837" data-name="Path 19837" d="M42.4,37.2v-.216a1.311,1.311,0,0,0,.37-.042.126.126,0,0,0,.054-.067,1.725,1.725,0,0,0,.036-.437c.01-.416.013-.73.013-.941l0-1.1a2.239,2.239,0,0,0-.029-.5.118.118,0,0,0-.05-.056,1.4,1.4,0,0,0-.391-.059v-.22c.268.01.469.013.6.013s.307,0,.49-.013q.6.761,1.352,1.657c.335.4.623.73.866.987V35.178c0-.389,0-.726-.013-1.006a1.046,1.046,0,0,0-.04-.31.115.115,0,0,0-.059-.046,3.314,3.314,0,0,0-.36-.033v-.22c.188.01.374.013.561.013.255,0,.485,0,.692-.013v.22a1.558,1.558,0,0,0-.347.04.125.125,0,0,0-.056.034.171.171,0,0,0-.029.059,2.172,2.172,0,0,0-.023.4l-.01,1.036L46.017,36.4c0,.282.006.561.019.841L46,37.274c-.209-.038-.358-.063-.444-.075-.444-.49-.981-1.111-1.611-1.852-.316-.377-.575-.7-.768-.95V35.4c0,.274,0,.607.011.992a2.37,2.37,0,0,0,.036.49.082.082,0,0,0,.04.044,1.387,1.387,0,0,0,.374.054V37.2c-.28-.011-.479-.019-.6-.019C42.94,37.18,42.726,37.187,42.4,37.2Z" transform="translate(-42.398 -33.438)" fill="#1a1311"/>
      <path id="Path_19838" data-name="Path 19838" d="M47.329,36.164l.075.075-.117.251a1.489,1.489,0,0,1-.4.172,1.656,1.656,0,0,1-.454.059,1.2,1.2,0,0,1-.891-.329,1.253,1.253,0,0,1-.326-.923,1.655,1.655,0,0,1,.1-.621.754.754,0,0,1,.253-.333,3.015,3.015,0,0,1,.41-.251,1.109,1.109,0,0,1,.51-.119,1.024,1.024,0,0,1,.7.239.95.95,0,0,1,.278.762c0,.044,0,.109-.011.2l-.425.079c-.13.006-.32.01-.569.01H45.9a1.046,1.046,0,0,0,.268.674.794.794,0,0,0,.58.224,1.03,1.03,0,0,0,.293-.04A1.407,1.407,0,0,0,47.329,36.164Zm-1.444-1c.155.011.31.017.467.017.136,0,.28-.006.429-.017l0-.125a.749.749,0,0,0-.115-.467.381.381,0,0,0-.316-.146.43.43,0,0,0-.241.067.436.436,0,0,0-.149.2A1.8,1.8,0,0,0,45.885,35.162Z" transform="translate(-39.818 -32.906)" fill="#1a1311"/>
      <path id="Path_19839" data-name="Path 19839" d="M47.006,34.419v-.213c.213.015.485.019.814.019.238,0,.45,0,.64-.019v.213l-.169.008a.425.425,0,0,0-.17.027.078.078,0,0,0-.036.075c0,.019.031.146.092.389l.253.935.519-1.146c.119-.264.2-.452.245-.567h.272q.178.483.734,1.713l.232-.692a3.523,3.523,0,0,0,.174-.621.089.089,0,0,0-.052-.086,1.655,1.655,0,0,0-.322-.034v-.213c.243.011.435.015.571.015s.318,0,.506-.015v.213a.9.9,0,0,0-.249.034.167.167,0,0,0-.061.075,8.953,8.953,0,0,0-.351.92c-.13.379-.262.785-.393,1.224H49.83c-.193-.494-.429-1.036-.709-1.632-.3.615-.542,1.157-.728,1.632h-.427c-.073-.314-.188-.738-.341-1.272s-.245-.824-.268-.872a.144.144,0,0,0-.057-.063A.941.941,0,0,0,47.006,34.419Z" transform="translate(-38.178 -32.911)" fill="#1a1311"/>
      <path id="Path_19840" data-name="Path 19840" d="M51.84,37.2v-.216a1.737,1.737,0,0,0,.308-.027.22.22,0,0,0,.107-.04A.233.233,0,0,0,52.3,36.8c.011-.075.023-.349.031-.816.006-.337.01-.676.01-1.029,0-.684,0-1.033-.008-1.044s-.065-.023-.184-.023q-.359,0-.621.023a.643.643,0,0,0-.17.027.069.069,0,0,0-.029.044c-.008.023-.021.172-.044.454h-.222c0-.33-.006-.615-.027-.854l.029-.021c.544.025,1.073.04,1.588.04s1.088-.015,1.722-.04l.031.044c-.034.236-.056.511-.071.831h-.216a2.112,2.112,0,0,0-.046-.473.122.122,0,0,0-.082-.04,6.206,6.206,0,0,0-.824-.034c-.034,0-.056.008-.063.019a.505.505,0,0,0-.01.136l-.017,1.743c0,.5.006.814.013.931s.031.184.065.2a1.681,1.681,0,0,0,.406.057V37.2c-.251-.011-.523-.019-.807-.019C52.378,37.18,52.073,37.187,51.84,37.2Z" transform="translate(-34.487 -33.438)" fill="#1a1311"/>
      <path id="Path_19841" data-name="Path 19841" d="M55.787,36.453v.213l-.2-.008c-.105,0-.213-.008-.316-.008-.163,0-.32,0-.464.015l-.025-.027.023-.354-.538.4a1.251,1.251,0,0,1-.257.033.543.543,0,0,1-.423-.165.671.671,0,0,1-.151-.475.654.654,0,0,1,.2-.546,3.012,3.012,0,0,1,1.165-.37.785.785,0,0,0-.1-.446.516.516,0,0,0-.441-.19.772.772,0,0,0-.144.017.81.81,0,0,0-.148.054l-.117.276-.18-.044.008-.117,0-.111-.006-.105a3.421,3.421,0,0,1,.571-.307.975.975,0,0,1,.352-.048,1.134,1.134,0,0,1,.5.092.621.621,0,0,1,.28.251.958.958,0,0,1,.088.462c0,.084,0,.239-.011.456s-.01.4-.01.542a2.117,2.117,0,0,0,.019.393.092.092,0,0,0,.052.067A1.035,1.035,0,0,0,55.787,36.453Zm-.981-1.063a1.476,1.476,0,0,0-.59.213.391.391,0,0,0-.138.31.358.358,0,0,0,.088.251.308.308,0,0,0,.224.09.592.592,0,0,0,.416-.232Z" transform="translate(-32.291 -32.906)" fill="#1a1311"/>
      <path id="Path_19842" data-name="Path 19842" d="M55.308,37.258v-.213a1.356,1.356,0,0,0,.337-.034c.031-.019.052-.067.059-.146.015-.109.019-.352.019-.722,0-.161,0-.31-.008-.444l-.006-.3a.319.319,0,0,0-.033-.186.292.292,0,0,0-.176-.042l-.193-.008v-.2a3.256,3.256,0,0,0,1.029-.224l.065.052c-.027.33-.04.812-.04,1.444a6.024,6.024,0,0,0,.019.663.15.15,0,0,0,.048.1,1.367,1.367,0,0,0,.337.046v.213c-.31-.011-.552-.015-.722-.015C55.954,37.243,55.708,37.247,55.308,37.258Zm.722-3.76a.406.406,0,0,1,.4.4.383.383,0,0,1-.119.284.4.4,0,0,1-.571,0,.382.382,0,0,1-.117-.284.389.389,0,0,1,.117-.285A.4.4,0,0,1,56.03,33.5Z" transform="translate(-30.576 -33.498)" fill="#1a1311"/>
      <path id="Path_19843" data-name="Path 19843" d="M56.716,34.556v-.2a4.039,4.039,0,0,0,.751-.125l.278-.082c.025,0,.034.019.034.061s0,.079-.008.138l-.006.239.418-.333a.715.715,0,0,1,.443-.105.937.937,0,0,1,.7.27,1,1,0,0,1,.266.73,1.611,1.611,0,0,1-.067.456,1.322,1.322,0,0,1-.157.356,1.583,1.583,0,0,1-.318.307c-.261.209-.418.329-.467.358a.689.689,0,0,1-.354.086A1.083,1.083,0,0,1,58,36.686a1.022,1.022,0,0,1-.23-.086l.01.789a.671.671,0,0,0,.059.333.845.845,0,0,0,.383.048v.209c-.268-.006-.5-.013-.7-.013-.381,0-.647.008-.8.013v-.209a1.219,1.219,0,0,0,.316-.034.09.09,0,0,0,.038-.048,3.165,3.165,0,0,0,.034-.531c.01-.439.015-.764.015-.981l-.006-1.029a2.622,2.622,0,0,0-.029-.517.09.09,0,0,0-.038-.048A1.018,1.018,0,0,0,56.716,34.556Zm1.05,1.538a.885.885,0,0,0,.253.224.618.618,0,0,0,.3.075.522.522,0,0,0,.435-.228,1.252,1.252,0,0,0,.171-.741.955.955,0,0,0-.174-.621.544.544,0,0,0-.443-.213.611.611,0,0,0-.27.067.981.981,0,0,0-.27.2Z" transform="translate(-29.287 -32.899)" fill="#1a1311"/>
      <path id="Path_19844" data-name="Path 19844" d="M61.053,36.164l.075.075-.117.251a1.477,1.477,0,0,1-.4.172,1.68,1.68,0,0,1-.456.059,1.2,1.2,0,0,1-.891-.329,1.254,1.254,0,0,1-.326-.923,1.739,1.739,0,0,1,.1-.621.792.792,0,0,1,.257-.333,2.9,2.9,0,0,1,.41-.251,1.1,1.1,0,0,1,.51-.119,1.022,1.022,0,0,1,.7.239.95.95,0,0,1,.276.762c0,.044,0,.109-.01.2l-.423.079c-.132.006-.32.01-.569.01h-.561a1.034,1.034,0,0,0,.264.674.8.8,0,0,0,.582.224,1.012,1.012,0,0,0,.293-.04A1.455,1.455,0,0,0,61.053,36.164Zm-1.443-1q.233.017.466.017c.138,0,.28-.006.431-.017l0-.125a.761.761,0,0,0-.117-.467.384.384,0,0,0-.316-.146.43.43,0,0,0-.241.067.436.436,0,0,0-.149.2A1.827,1.827,0,0,0,59.61,35.162Z" transform="translate(-27.251 -32.906)" fill="#1a1311"/>
      <path id="Path_19845" data-name="Path 19845" d="M60.8,37.258v-.213a1.356,1.356,0,0,0,.337-.034c.031-.019.052-.067.059-.146a6.841,6.841,0,0,0,.023-.722c0-.161-.006-.31-.01-.444l-.008-.3a.319.319,0,0,0-.033-.186A.292.292,0,0,0,61,35.167l-.193-.008v-.2a3.256,3.256,0,0,0,1.029-.224l.065.052c-.027.33-.038.812-.038,1.444,0,.366.006.586.017.663a.15.15,0,0,0,.048.1,1.367,1.367,0,0,0,.337.046v.213c-.31-.011-.552-.015-.72-.015C61.45,37.243,61.2,37.247,60.8,37.258Zm.722-3.76a.406.406,0,0,1,.4.4.383.383,0,0,1-.119.284.4.4,0,0,1-.571,0,.38.38,0,0,1-.115-.284.387.387,0,0,1,.115-.285A.4.4,0,0,1,61.526,33.5Z" transform="translate(-25.544 -33.498)" fill="#1a1311"/>
      <path id="Path_19846" data-name="Path 19846" d="M66.837,36.661l.065.059a2.687,2.687,0,0,0-.119.262,2.189,2.189,0,0,1-.579.224,2.707,2.707,0,0,1-.642.067,2.488,2.488,0,0,1-1.149-.239,1.707,1.707,0,0,1-.722-.669,1.935,1.935,0,0,1-.251-.992,1.687,1.687,0,0,1,.571-1.32,2.26,2.26,0,0,1,1.577-.517,4.022,4.022,0,0,1,.663.059,3.949,3.949,0,0,1,.651.184l.019.038a1.483,1.483,0,0,0-.067.268c-.023.149-.042.337-.054.561h-.216a4.35,4.35,0,0,0-.031-.448.478.478,0,0,0-.144-.14.921.921,0,0,0-.343-.157,1.788,1.788,0,0,0-.479-.063,1.3,1.3,0,0,0-.987.387,1.476,1.476,0,0,0-.366,1.065,1.666,1.666,0,0,0,.441,1.2,1.473,1.473,0,0,0,1.117.423,2.28,2.28,0,0,0,.513-.056A2.636,2.636,0,0,0,66.837,36.661Z" transform="translate(-23.13 -33.462)" fill="#1a1311"/>
      <path id="Path_19847" data-name="Path 19847" d="M65.916,37.258v-.213a1.379,1.379,0,0,0,.339-.034c.029-.019.048-.067.057-.146.013-.109.021-.352.021-.722,0-.161,0-.31-.008-.444l-.008-.3a.319.319,0,0,0-.033-.186.285.285,0,0,0-.174-.042l-.2-.008v-.2a3.232,3.232,0,0,0,1.029-.224l.065.052c-.025.33-.038.812-.038,1.444a6.027,6.027,0,0,0,.019.663.142.142,0,0,0,.046.1,1.373,1.373,0,0,0,.339.046v.213c-.312-.011-.552-.015-.724-.015C66.562,37.243,66.316,37.247,65.916,37.258Zm.72-3.76a.406.406,0,0,1,.4.4.383.383,0,0,1-.119.284.4.4,0,0,1-.569,0,.383.383,0,0,1-.119-.284.391.391,0,0,1,.119-.285A.4.4,0,0,1,66.636,33.5Z" transform="translate(-20.863 -33.498)" fill="#1a1311"/>
      <path id="Path_19848" data-name="Path 19848" d="M67.283,34.99l.345-.224c0-.307-.011-.573-.027-.8a4.435,4.435,0,0,0,.671-.262l.077.059a8.849,8.849,0,0,0-.077,1.008,1.227,1.227,0,0,0,.236.023,2.884,2.884,0,0,0,.473-.038l.025.015-.025.094a1.822,1.822,0,0,0-.056.264c-.2-.01-.352-.017-.446-.017a1.466,1.466,0,0,0-.207.011q-.006.256-.006.46a4.666,4.666,0,0,0,.052.99.24.24,0,0,0,.245.121.481.481,0,0,0,.125-.015,1.165,1.165,0,0,0,.142-.034l.042.1c-.1.117-.2.236-.3.36l-.176.025c-.054,0-.1.008-.147.008a.789.789,0,0,1-.364-.075.5.5,0,0,1-.213-.193.764.764,0,0,1-.067-.356c0-.086.006-.3.013-.655.01-.31.013-.554.013-.732l-.13-.01c-.057,0-.128.01-.215.015Z" transform="translate(-19.611 -33.314)" fill="#1a1311"/>
      <path id="Path_19849" data-name="Path 19849" d="M68.679,34.387v-.213c.4.011.651.019.761.019.155,0,.372-.008.651-.019v.213a.853.853,0,0,0-.285.038.08.08,0,0,0-.046.079,4.616,4.616,0,0,0,.255.718l.282.715.239-.565a4.39,4.39,0,0,0,.324-.875.075.075,0,0,0-.044-.075,1.026,1.026,0,0,0-.28-.034v-.213l.165.008c.174.008.291.011.347.011s.224-.008.488-.019v.213a.464.464,0,0,0-.209.042.162.162,0,0,0-.059.056c-.027.036-.136.276-.328.715l-.481,1.1L70.01,37.32a1.852,1.852,0,0,1-.274.443.819.819,0,0,1-.262.188.878.878,0,0,1-.318.059.909.909,0,0,1-.374-.09,4.024,4.024,0,0,0,.09-.5l.069-.023a.47.47,0,0,0,.356.169.381.381,0,0,0,.282-.111,2.631,2.631,0,0,0,.349-.644l-.579-1.467-.32-.785a.261.261,0,0,0-.088-.126A.8.8,0,0,0,68.679,34.387Z" transform="translate(-18.333 -32.879)" fill="#1a1311"/>
      <path id="Path_19850" data-name="Path 19850" d="M74.378,35.947v-.211c.314.011.594.015.841.015.23,0,.473,0,.739-.015V35.9a2.245,2.245,0,0,0-.218.082,3.849,3.849,0,0,0-.031.45c0,.086.01.262.031.523a5.291,5.291,0,0,1-.858.247,3.679,3.679,0,0,1-.716.067,2.23,2.23,0,0,1-1.567-.519,1.883,1.883,0,0,1,.011-2.7,2.426,2.426,0,0,1,1.659-.513A4.73,4.73,0,0,1,75,33.6a3.6,3.6,0,0,1,.667.184l.023.038a5.8,5.8,0,0,0-.111.818H75.36a2.791,2.791,0,0,0-.034-.433.992.992,0,0,0-.427-.289,1.8,1.8,0,0,0-.615-.1,1.415,1.415,0,0,0-1.061.4,1.518,1.518,0,0,0-.4,1.107,1.725,1.725,0,0,0,.418,1.207,1.333,1.333,0,0,0,1.025.458,1.744,1.744,0,0,0,.69-.157c.012-.134.019-.259.019-.377a1.021,1.021,0,0,0-.046-.443A1.874,1.874,0,0,0,74.378,35.947Z" transform="translate(-15.263 -33.462)" fill="#1a1311"/>
      <path id="Path_19851" data-name="Path 19851" d="M74.821,35.434A1.148,1.148,0,0,1,76.1,34.145a1.292,1.292,0,0,1,.946.3,1.238,1.238,0,0,1,.3.923,1.37,1.37,0,0,1-.345,1,1.266,1.266,0,0,1-.954.354,1.214,1.214,0,0,1-.916-.329A1.339,1.339,0,0,1,74.821,35.434Zm.718-.178a2.016,2.016,0,0,0,.176.983.447.447,0,0,0,.412.228.418.418,0,0,0,.372-.193,1.3,1.3,0,0,0,.132-.7,2.056,2.056,0,0,0-.161-.966.45.45,0,0,0-.412-.215.435.435,0,0,0-.379.2A1.192,1.192,0,0,0,75.539,35.256Z" transform="translate(-12.708 -32.906)" fill="#1a1311"/>
      <path id="Path_19852" data-name="Path 19852" d="M76.756,34.387v-.213l.667.019c.224,0,.464-.008.72-.019v.213a1.143,1.143,0,0,0-.287.031.073.073,0,0,0-.046.071.531.531,0,0,0,.025.119l.155.435.347.895.339-.793a3.147,3.147,0,0,0,.236-.651.073.073,0,0,0-.044-.075,1.406,1.406,0,0,0-.3-.031v-.213c.226.011.412.019.552.019.155,0,.32-.008.5-.019v.213a.519.519,0,0,0-.261.054,4.163,4.163,0,0,0-.3.579c-.165.356-.4.895-.7,1.621H77.9c-.115-.31-.287-.757-.513-1.328-.151-.375-.253-.623-.3-.738a.372.372,0,0,0-.1-.142A.6.6,0,0,0,76.756,34.387Z" transform="translate(-10.937 -32.879)" fill="#1a1311"/>
      <path id="Path_19853" data-name="Path 19853" d="M81.008,36.164l.075.075-.115.251a1.528,1.528,0,0,1-.4.172,1.68,1.68,0,0,1-.456.059,1.2,1.2,0,0,1-.889-.329,1.253,1.253,0,0,1-.326-.923,1.739,1.739,0,0,1,.1-.621.773.773,0,0,1,.255-.333,3.138,3.138,0,0,1,.41-.251,1.115,1.115,0,0,1,.51-.119,1.024,1.024,0,0,1,.7.239.956.956,0,0,1,.276.762c0,.044,0,.109-.01.2l-.423.079c-.132.006-.322.01-.571.01h-.561a1.046,1.046,0,0,0,.268.674.79.79,0,0,0,.579.224,1.034,1.034,0,0,0,.3-.04A1.455,1.455,0,0,0,81.008,36.164Zm-1.444-1q.233.017.465.017.207,0,.431-.017l0-.125a.748.748,0,0,0-.119-.467.379.379,0,0,0-.316-.146.444.444,0,0,0-.241.067.45.45,0,0,0-.149.2A2.013,2.013,0,0,0,79.564,35.162Z" transform="translate(-8.978 -32.906)" fill="#1a1311"/>
      <path id="Path_19854" data-name="Path 19854" d="M80.7,36.666v-.213a1.367,1.367,0,0,0,.3-.031.125.125,0,0,0,.052-.048.912.912,0,0,0,.033-.278c.006-.251.01-.483.01-.688,0-.4,0-.636-.015-.711a.123.123,0,0,0-.046-.094,1.045,1.045,0,0,0-.331-.038v-.2a3.857,3.857,0,0,0,.747-.125l.264-.1c.025,0,.038.017.038.048l0,.038c-.006.107-.01.264-.01.467a4.3,4.3,0,0,0,.3-.318.745.745,0,0,1,.2-.192.521.521,0,0,1,.238-.044.547.547,0,0,1,.169.029c-.017.172-.027.408-.033.7l-.115.042a.368.368,0,0,0-.132-.138.336.336,0,0,0-.184-.042.457.457,0,0,0-.268.079.353.353,0,0,0-.142.188,3.231,3.231,0,0,0-.021.527c0,.443.006.7.017.768a.138.138,0,0,0,.05.1,1.07,1.07,0,0,0,.391.054v.213l-.289-.008c-.186,0-.347-.008-.481-.008s-.276,0-.444.008Z" transform="translate(-7.323 -32.906)" fill="#1a1311"/>
      <path id="Path_19855" data-name="Path 19855" d="M82.327,36.666v-.213a.786.786,0,0,0,.32-.046c.025-.019.038-.063.044-.134.012-.172.013-.483.013-.921,0-.22,0-.406-.008-.565a.51.51,0,0,0-.021-.171.1.1,0,0,0-.042-.031,1.85,1.85,0,0,0-.307-.019v-.2a2.708,2.708,0,0,0,.439-.061,3.258,3.258,0,0,0,.5-.138l.071-.025c.023,0,.035.021.035.059l0,.023c-.006.048-.008.174-.008.374l.4-.337a.435.435,0,0,1,.155-.086.978.978,0,0,1,.278-.033.926.926,0,0,1,.448.1.567.567,0,0,1,.257.262,1.257,1.257,0,0,1,.082.519c0,.105,0,.226-.008.36-.01.282-.013.525-.013.73a.687.687,0,0,0,.029.239.105.105,0,0,0,.057.063,1.623,1.623,0,0,0,.284.038v.213l-.318-.011-.2,0-.533.015-.031-.034a7.266,7.266,0,0,0,.067-1.01,2.283,2.283,0,0,0-.08-.812.382.382,0,0,0-.377-.2.523.523,0,0,0-.3.088.428.428,0,0,0-.169.192.936.936,0,0,0-.019.262c0,.628,0,.988.008,1.077a.271.271,0,0,0,.046.169.8.8,0,0,0,.345.054v.213c-.3-.011-.554-.015-.761-.015C82.875,36.651,82.653,36.655,82.327,36.666Z" transform="translate(-5.835 -32.906)" fill="#1a1311"/>
      <path id="Path_19856" data-name="Path 19856" d="M84.525,36.666v-.213a1.128,1.128,0,0,0,.307-.034.12.12,0,0,0,.046-.09,4.729,4.729,0,0,0,.021-.6,9.365,9.365,0,0,0-.027-1.082c-.013-.048-.073-.071-.18-.075l-.167,0v-.2a5.277,5.277,0,0,0,.544-.086,2.58,2.58,0,0,0,.4-.125.161.161,0,0,1,.056-.013c.023,0,.034.021.034.067,0,.029,0,.075,0,.13,0,.023,0,.067,0,.128v.092l.423-.318a.674.674,0,0,1,.408-.1.8.8,0,0,1,.441.107.675.675,0,0,1,.247.345l.441-.352a.563.563,0,0,1,.356-.1.79.79,0,0,1,.6.2.914.914,0,0,1,.193.648l-.006.216c-.008.239-.011.454-.011.64a2.7,2.7,0,0,0,.025.479.131.131,0,0,0,.052.086.955.955,0,0,0,.291.038v.213c-.215-.011-.4-.015-.561-.015s-.316,0-.483.015l-.031-.05a9.236,9.236,0,0,0,.067-1.088,1.891,1.891,0,0,0-.1-.789.372.372,0,0,0-.345-.157.487.487,0,0,0-.282.082.4.4,0,0,0-.163.184,2.168,2.168,0,0,0-.025.456c0,.456.006.77.017.946a.218.218,0,0,0,.048.149.868.868,0,0,0,.331.054v.213c-.228-.011-.448-.015-.665-.015-.274,0-.517,0-.732.015v-.213c.171,0,.27-.023.3-.071a2.465,2.465,0,0,0,.042-.651,7.4,7.4,0,0,0-.025-.82.376.376,0,0,0-.126-.247.442.442,0,0,0-.276-.082.511.511,0,0,0-.236.059.574.574,0,0,0-.178.169.33.33,0,0,0-.04.188l0,.1c0,.048.006.182.006.406l0,.308a4.863,4.863,0,0,0,.015.523.106.106,0,0,0,.044.075,1.02,1.02,0,0,0,.284.046v.213c-.207-.011-.433-.015-.68-.015C85.138,36.651,84.906,36.655,84.525,36.666Z" transform="translate(-3.823 -32.906)" fill="#1a1311"/>
      <path id="Path_19857" data-name="Path 19857" d="M89.62,36.164l.075.075-.115.251a1.515,1.515,0,0,1-.4.172,1.656,1.656,0,0,1-.454.059,1.2,1.2,0,0,1-.891-.329,1.246,1.246,0,0,1-.326-.923,1.7,1.7,0,0,1,.1-.621.759.759,0,0,1,.255-.333,3.014,3.014,0,0,1,.41-.251,1.1,1.1,0,0,1,.51-.119,1.022,1.022,0,0,1,.7.239.944.944,0,0,1,.278.762c0,.044,0,.109-.01.2l-.425.079c-.13.006-.32.01-.569.01h-.561a1.045,1.045,0,0,0,.266.674.8.8,0,0,0,.582.224,1.008,1.008,0,0,0,.291-.04A1.407,1.407,0,0,0,89.62,36.164Zm-1.444-1c.157.011.314.017.469.017.136,0,.278-.006.429-.017l0-.125a.762.762,0,0,0-.115-.467.384.384,0,0,0-.316-.146.395.395,0,0,0-.393.262A1.983,1.983,0,0,0,88.176,35.162Z" transform="translate(-1.09 -32.906)" fill="#1a1311"/>
      <path id="Path_19858" data-name="Path 19858" d="M89.364,36.666v-.213a.756.756,0,0,0,.318-.046.189.189,0,0,0,.046-.134c.011-.172.013-.483.013-.921,0-.22,0-.406-.008-.565a.572.572,0,0,0-.021-.171.1.1,0,0,0-.042-.031,1.826,1.826,0,0,0-.307-.019v-.2a2.708,2.708,0,0,0,.439-.061,3.168,3.168,0,0,0,.5-.138l.073-.025c.023,0,.034.021.034.059l0,.023c-.006.048-.008.174-.008.374l.4-.337a.451.451,0,0,1,.155-.086.978.978,0,0,1,.278-.033.926.926,0,0,1,.448.1.567.567,0,0,1,.257.262,1.263,1.263,0,0,1,.08.519c0,.105,0,.226-.008.36-.008.282-.013.525-.013.73a.634.634,0,0,0,.031.239.105.105,0,0,0,.057.063,1.627,1.627,0,0,0,.285.038v.213l-.32-.011-.2,0-.534.015-.029-.034a7.266,7.266,0,0,0,.067-1.01,2.283,2.283,0,0,0-.08-.812.382.382,0,0,0-.377-.2.533.533,0,0,0-.307.088.453.453,0,0,0-.169.192,1.066,1.066,0,0,0-.017.262c0,.628,0,.988.008,1.077a.288.288,0,0,0,.044.169.816.816,0,0,0,.347.054v.213c-.3-.011-.554-.015-.761-.015C89.912,36.651,89.69,36.655,89.364,36.666Z" transform="translate(0.608 -32.906)" fill="#1a1311"/>
      <path id="Path_19859" data-name="Path 19859" d="M91.51,34.99l.345-.224c0-.307-.013-.573-.027-.8a4.469,4.469,0,0,0,.667-.262l.079.059a9.741,9.741,0,0,0-.079,1.008,1.258,1.258,0,0,0,.236.023,2.952,2.952,0,0,0,.477-.038l.021.015-.021.094a2.628,2.628,0,0,0-.059.264c-.2-.01-.349-.017-.444-.017a1.51,1.51,0,0,0-.209.011c0,.17,0,.324,0,.46a4.666,4.666,0,0,0,.052.99c.034.079.117.121.247.121a.487.487,0,0,0,.123-.015,1.14,1.14,0,0,0,.14-.034l.046.1c-.105.117-.207.236-.3.36l-.178.025c-.054,0-.1.008-.148.008a.8.8,0,0,1-.364-.075.513.513,0,0,1-.213-.193.793.793,0,0,1-.065-.356c0-.086,0-.3.013-.655.006-.31.013-.554.013-.732l-.134-.01c-.054,0-.125.01-.211.015Z" transform="translate(2.574 -33.314)" fill="#1a1311"/>
    </g>
    <g id="Group_5234" data-name="Group 5234" transform="translate(26.528 20.516)">
      <path id="Path_19860" data-name="Path 19860" d="M32.371,29.121,34.2,29.5l-.1.77,1.872.337,1.969-9.651s-3.649-1.441-5.571.864v2.784h.192a2.489,2.489,0,0,1,2.979-1.536l-1.008,4.707-2.163-.433Zm-.67-6.146s-3.939-.048-4.946,5.09l5.617,1.056V27.346L29.2,26.721c.433-1.872,2.544-2.113,3.169-2.113V21.825A4.214,4.214,0,0,0,31.7,22.976Z" transform="translate(-26.321 -20.516)" fill="#ebb700" fill-rule="evenodd"/>
      <path id="Path_19861" data-name="Path 19861" d="M34.308,25.978l-.193.72-3.073-.625V27.9l2.69.577-.864,4.7a2.613,2.613,0,0,1-1.826-1.247v3.123a6.992,6.992,0,0,0,3.266,1.006l1.872-9.745Zm-3.266.1-4.322-.866c-1.056,5.14,2.594,6.578,2.594,6.578a3.676,3.676,0,0,0,1.728,3.268V31.932a3.18,3.18,0,0,1-.335-1.3s-2.738-1.008-2.354-3.266l2.69.531Z" transform="translate(-26.528 -16.219)" fill="#5ca13c" fill-rule="evenodd"/>
      <path id="Path_19862" data-name="Path 19862" d="M39.234,25.147a3.73,3.73,0,0,0-1.778-3.312V25.1a2.8,2.8,0,0,1,.287,1.247s2.738,1.01,2.352,3.216l-2.64-.527v1.776l4.368.912C42.881,26.588,39.234,25.147,39.234,25.147Zm-1.778-3.312a7.62,7.62,0,0,0-3.266-.912l-1.872,9.7,1.92.431.193-.814,3.025.575V29.038l-2.688-.529.816-4.7a2.47,2.47,0,0,1,1.872,1.3Z" transform="translate(-21.226 -20.143)" fill="#cf3717" fill-rule="evenodd"/>
      <path id="Path_19863" data-name="Path 19863" d="M36.934,34.723a3.209,3.209,0,0,0,.623-1.056s3.939.05,4.9-5.138l-5.521-1.056V29.3l3.169.625c-.385,1.826-2.448,2.065-3.169,2.115Zm-1.921-7.586.144-.72-1.92-.431-1.921,9.7s3.745,1.441,5.619-.962V32.038h-.239a2.421,2.421,0,0,1-2.929,1.533l.96-4.7,2.209.431V27.474Z" transform="translate(-22.145 -15.507)" fill="#005a9f" fill-rule="evenodd"/>
      <path id="Path_19864" data-name="Path 19864" d="M26.628,31.659a3.714,3.714,0,0,1,4.226,2.4,9.883,9.883,0,0,1,1.2,3.262A5.2,5.2,0,0,1,29.27,34.54,7.827,7.827,0,0,0,26.628,31.659Z" transform="translate(-26.436 -10.377)" fill="#908c86" fill-rule="evenodd"/>
      <path id="Path_19865" data-name="Path 19865" d="M31.954,31.225s-3.073,3.169-1.632,5.665c0,0,.67.479,1.2-.529,0,0-1.1,0-.72-1.391A12.171,12.171,0,0,1,31.954,31.225Z" transform="translate(-23.406 -10.71)" fill="#908c86" fill-rule="evenodd"/>
      <path id="Path_19866" data-name="Path 19866" d="M30.063,37.723s4.992-6.82,10.994-4.178a36.577,36.577,0,0,0-4.561,1.68S33.182,37.723,30.063,37.723Z" transform="translate(-23.291 -9.142)" fill="#908c86" fill-rule="evenodd"/>
    </g>
  </g>
</svg>
