<svg xmlns="http://www.w3.org/2000/svg" width="242.757" height="30" viewBox="0 0 242.757 30">
  <g id="Group_5127" data-name="Group 5127" transform="translate(-892.815 -408.965)">
    <g id="Group_5123" data-name="Group 5123" transform="translate(892.815 408.965)">
      <path id="Path_19479" data-name="Path 19479" d="M935.433,412.7s-3.665-1.631-6.507-.153c-2.979,1.543-5.825,5.675-5.825,5.675L912.5,432.99s-3.956,5.518-9.822,5.518a18.867,18.867,0,0,1-9.865-2.742,9.338,9.338,0,0,0,7.631-.592c3.628-2.185,6.291-6.614,6.291-6.614l10.977-15.011a10.758,10.758,0,0,1,7.452-4.466C930.957,408.185,935.433,412.7,935.433,412.7Z" transform="translate(-892.815 -408.965)" fill="#004b9e"/>
      <path id="Path_19480" data-name="Path 19480" d="M940.973,412.7s-3.662-1.631-6.5-.153c-2.983,1.543-5.825,5.675-5.825,5.675l-10.6,14.764s-3.959,5.518-9.822,5.518a18.849,18.849,0,0,1-9.863-2.742,9.337,9.337,0,0,0,7.631-.592c3.624-2.185,6.288-6.614,6.288-6.614l10.977-15.011a10.758,10.758,0,0,1,7.452-4.466C936.5,408.185,940.973,412.7,940.973,412.7Z" transform="translate(-881.009 -408.965)" fill="#004b9e"/>
      <path id="Path_19481" data-name="Path 19481" d="M946.515,412.7s-3.662-1.631-6.507-.153c-2.979,1.543-5.825,5.675-5.825,5.675L923.588,432.99s-3.959,5.518-9.825,5.518a18.849,18.849,0,0,1-9.863-2.742,9.33,9.33,0,0,0,7.628-.592c3.631-2.185,6.291-6.614,6.291-6.614L928.8,413.55a10.755,10.755,0,0,1,7.446-4.466C942.042,408.185,946.515,412.7,946.515,412.7Z" transform="translate(-869.204 -408.965)" fill="#004b9e"/>
    </g>
    <g id="Group_5124" data-name="Group 5124" transform="translate(976.676 409.559)">
      <path id="Path_19482" data-name="Path 19482" d="M929.539,424.21a19.716,19.716,0,0,1-4.945-.595,17.13,17.13,0,0,1-4.369-1.825l-.617-.366,2.053-2.338.426.254a15.838,15.838,0,0,0,3.668,1.606,13.448,13.448,0,0,0,3.753.551,7.916,7.916,0,0,0,3.612-.71c1.174-.614,1.174-1.261,1.174-1.474,0-.269-.081-.676-.779-1.086a6.176,6.176,0,0,0-2.7-.667c-.3-.025-.739-.047-1.3-.072a24.588,24.588,0,0,1-5.972-.8,5.023,5.023,0,0,1-2.078-1.308,2.9,2.9,0,0,1-.779-1.972,3.573,3.573,0,0,1,2.169-3.146,10.564,10.564,0,0,1,5.121-1.1,17.7,17.7,0,0,1,4.413.563,17.312,17.312,0,0,1,4.138,1.668l.654.369-2.091,2.282-.42-.257a12.577,12.577,0,0,0-6.664-1.891,7.194,7.194,0,0,0-2.973.529c-.61.278-.92.585-.92.914a.5.5,0,0,0,.094.291,1.5,1.5,0,0,0,.445.372c.422.241,1.521.56,4.322.695,1.086.047,1.944.1,2.545.156a9.112,9.112,0,0,1,4.445,1.4,3.706,3.706,0,0,1,1.79,3.114,4.073,4.073,0,0,1-2.407,3.571A11.68,11.68,0,0,1,929.539,424.21Z" transform="translate(-919.608 -409.155)" fill="#004b9e"/>
      <path id="Path_19483" data-name="Path 19483" d="M931.514,423.716h-3.365V409.224h3.365Z" transform="translate(-901.416 -409.008)" fill="#004b9e"/>
      <path id="Path_19484" data-name="Path 19484" d="M951.4,423.667h-3.321v-9.34l-6.254,7.143-6.254-7.143v9.34h-3.305v-14.42h2.858l6.7,7.784,6.748-7.784H951.4Z" transform="translate(-892.653 -408.959)" fill="#004b9e"/>
      <path id="Path_19485" data-name="Path 19485" d="M944.7,423.667H941.37v-14.42h10.495a7.689,7.689,0,0,1,4.294,1.058,3.566,3.566,0,0,1,1.712,3.121,3.924,3.924,0,0,1-1.634,3.265,6.593,6.593,0,0,1-4.091,1.189H944.7Zm0-8.526h7.02a3.935,3.935,0,0,0,2.135-.454,1.223,1.223,0,0,0,.57-1.117,1.279,1.279,0,0,0-.579-1.136,3.571,3.571,0,0,0-2.016-.473H944.7Z" transform="translate(-873.255 -408.959)" fill="#004b9e"/>
      <path id="Path_19486" data-name="Path 19486" d="M958.49,424.21a19.716,19.716,0,0,1-4.945-.595,17.016,17.016,0,0,1-4.366-1.825l-.62-.366,2.053-2.338.426.254a15.843,15.843,0,0,0,3.668,1.606,13.466,13.466,0,0,0,3.753.551,7.916,7.916,0,0,0,3.612-.71c1.171-.614,1.171-1.261,1.171-1.474,0-.269-.078-.676-.776-1.086a6.174,6.174,0,0,0-2.7-.667c-.3-.025-.739-.047-1.3-.072a24.643,24.643,0,0,1-5.975-.8,5.083,5.083,0,0,1-2.078-1.308,2.909,2.909,0,0,1-.776-1.972,3.573,3.573,0,0,1,2.169-3.146,10.565,10.565,0,0,1,5.121-1.1,17.7,17.7,0,0,1,4.413.563,17.316,17.316,0,0,1,4.138,1.668l.654.369-2.091,2.282-.42-.257a12.578,12.578,0,0,0-6.664-1.891,7.194,7.194,0,0,0-2.973.529c-.61.278-.92.585-.92.914a.5.5,0,0,0,.094.291,1.5,1.5,0,0,0,.444.372c.423.241,1.521.56,4.323.695,1.086.047,1.944.1,2.545.156a9.111,9.111,0,0,1,4.445,1.4,3.705,3.705,0,0,1,1.79,3.114,4.073,4.073,0,0,1-2.407,3.571A11.689,11.689,0,0,1,958.49,424.21Z" transform="translate(-857.945 -409.155)" fill="#004b9e"/>
      <path id="Path_19487" data-name="Path 19487" d="M966.177,424.21a10.781,10.781,0,0,1-6.77-2.084,6.744,6.744,0,0,1,.01-10.886,12.049,12.049,0,0,1,13.552,0,6.721,6.721,0,0,1,.006,10.883A10.845,10.845,0,0,1,966.177,424.21Zm0-12.32a6.9,6.9,0,0,0-4.444,1.4,4.269,4.269,0,0,0,0,6.792,7.808,7.808,0,0,0,8.892,0,4.28,4.28,0,0,0,.01-6.8A6.938,6.938,0,0,0,966.177,411.891Z" transform="translate(-840.712 -409.155)" fill="#004b9e"/>
      <path id="Path_19488" data-name="Path 19488" d="M981.041,423.667h-1.916L968.7,414.5v9.165h-3.333v-14.42h1.947l10.379,9.161v-9.161h3.349Z" transform="translate(-822.144 -408.959)" fill="#004b9e"/>
    </g>
    <g id="Group_5126" data-name="Group 5126" transform="translate(977.462 431.344)">
      <path id="Path_19489" data-name="Path 19489" d="M929.919,423.711h-1.743V418.8l-3.29,3.756-3.293-3.756v4.911h-1.734v-7.584h1.5l3.528,4.094,3.549-4.094h1.484Z" transform="translate(-919.859 -416.089)" fill="#004b9e"/>
      <path id="Path_19490" data-name="Path 19490" d="M936.785,423.711h-1.969l-1.233-1.872H928.9l-1.2,1.872h-1.953l4.852-7.584h1.28Zm-6.958-3.312h2.845l-1.43-2.191Z" transform="translate(-907.313 -416.089)" fill="#004b9e"/>
      <path id="Path_19491" data-name="Path 19491" d="M941.068,423.711H939.04l-2.272-3.042h-3.052v3.042h-1.753v-7.584h5.521a3.981,3.981,0,0,1,2.266.57,1.923,1.923,0,0,1,.9,1.678,2,2,0,0,1-.695,1.527,2.93,2.93,0,0,1-1.227.651Zm-7.352-4.482h3.693a2.1,2.1,0,0,0,1.124-.238.643.643,0,0,0,.3-.589.67.67,0,0,0-.307-.6,1.859,1.859,0,0,0-1.058-.25h-3.753Z" transform="translate(-894.078 -416.089)" fill="#004b9e"/>
      <path id="Path_19492" data-name="Path 19492" d="M939.516,423.737h-1.771v-7.621h1.771Z" transform="translate(-881.762 -416.115)" fill="#004b9e"/>
      <g id="Group_5125" data-name="Group 5125" transform="translate(67.826 0.038)">
        <path id="Path_19493" data-name="Path 19493" d="M949.774,423.711h-1.008l-5.484-4.82v4.82h-1.753v-7.584h1.024l5.458,4.817v-4.817h1.762Z" transform="translate(-941.529 -416.127)" fill="#004b9e"/>
      </g>
      <path id="Path_19494" data-name="Path 19494" d="M955.512,423.711h-8.138v-7.584h7.765v1.427h-6.012v1.415h3.637V420.4h-3.637v1.891h6.385Z" transform="translate(-861.253 -416.089)" fill="#004b9e"/>
    </g>
  </g>
</svg>
