<?xml version="1.0" encoding="utf-8"?>
<!-- Generator: Adobe Illustrator 25.2.1, SVG Export Plug-In . SVG Version: 6.00 Build 0)  -->
<svg version="1.1" id="圖層_1" xmlns="http://www.w3.org/2000/svg" xmlns:xlink="http://www.w3.org/1999/xlink" x="0px" y="0px"
	 viewBox="0 0 356 155" style="enable-background:new 0 0 356 155;" xml:space="preserve">
<style type="text/css">
	.st0{fill:#0066B2;}
	.st1{fill:#0066B2;stroke:#0066B2;stroke-width:1.3994;stroke-miterlimit:10;}
</style>
<g>
	<g>
		<path class="st0" d="M22.7,116.8c-3.9,0-7.7-0.4-11.1-1.3c-3.4-0.9-6.7-2.3-9.8-4.1l-1.4-0.8l4.6-5.2l1,0.6
			c2.6,1.6,5.4,2.8,8.2,3.6c2.8,0.8,5.6,1.2,8.4,1.2c3.3,0,6.1-0.5,8.1-1.6c2.6-1.4,2.6-2.8,2.6-3.3c0-0.6-0.2-1.5-1.7-2.4
			c-1.4-0.8-3.4-1.3-6-1.5c-0.7-0.1-1.7-0.1-2.9-0.2c-6.6-0.4-10.9-0.9-13.4-1.8c-2-0.7-3.6-1.7-4.7-2.9c-1.2-1.3-1.7-2.8-1.7-4.4
			c0-2.9,1.6-5.3,4.9-7c3-1.6,6.8-2.5,11.5-2.5c3.3,0,6.6,0.4,9.9,1.3c3.2,0.8,6.4,2.1,9.3,3.7l1.5,0.8L35.1,94l-0.9-0.6
			c-2.3-1.4-4.7-2.5-7.2-3.2c-2.5-0.7-5.1-1.1-7.7-1.1c-2.7,0-5,0.4-6.7,1.2c-1.4,0.6-2.1,1.3-2.1,2c0,0.2,0.1,0.5,0.2,0.7
			c0.2,0.3,0.5,0.6,1,0.8c0.9,0.5,3.4,1.3,9.7,1.6c2.4,0.1,4.4,0.2,5.7,0.4c4.1,0.4,7.5,1.4,10,3.1c2.7,1.8,4,4.2,4,7
			c0,3.3-1.8,6-5.4,8C32.4,115.9,28,116.8,22.7,116.8z"/>
		<path class="st0" d="M67.9,116h-7.5V83.6h7.5V116z"/>
		<path class="st0" d="M132,116h-7.4V95.1l-14,16l-14-16V116h-7.4V83.7h6.4l15,17.4l15.1-17.4h6.3V116z"/>
		<path class="st0" d="M160.5,116H153V83.7h23.5c4,0,7.2,0.8,9.6,2.4c2.5,1.7,3.8,4,3.8,7c0,3-1.2,5.5-3.7,7.3
			c-2.3,1.8-5.4,2.7-9.2,2.7h-16.7V116z M160.5,96.9h15.7c2.2,0,3.8-0.3,4.8-1c0.9-0.6,1.3-1.4,1.3-2.5c0-1.1-0.4-1.9-1.3-2.5
			c-1-0.7-2.5-1.1-4.5-1.1h-16V96.9z"/>
		<path class="st0" d="M225.7,116.8c-3.9,0-7.7-0.4-11.1-1.3c-3.4-0.9-6.7-2.3-9.8-4.1l-1.4-0.8l4.6-5.2l1,0.6
			c2.6,1.6,5.4,2.8,8.2,3.6c2.8,0.8,5.6,1.2,8.4,1.2c3.3,0,6.1-0.5,8.1-1.6c2.6-1.4,2.6-2.8,2.6-3.3c0-0.6-0.2-1.5-1.7-2.4
			c-1.4-0.8-3.4-1.3-6-1.5c-0.7-0.1-1.7-0.1-2.9-0.2c-6.6-0.4-10.9-0.9-13.4-1.8c-2-0.7-3.6-1.7-4.7-2.9c-1.2-1.3-1.7-2.8-1.7-4.4
			c0-2.9,1.6-5.3,4.9-7c3-1.6,6.8-2.5,11.5-2.5c3.3,0,6.6,0.4,9.9,1.3c3.2,0.8,6.4,2.1,9.3,3.7l1.5,0.8l-4.7,5.1l-0.9-0.6
			c-2.3-1.4-4.7-2.5-7.2-3.2c-2.5-0.7-5.1-1.1-7.8-1.1c-2.7,0-5,0.4-6.7,1.2c-1.4,0.6-2.1,1.3-2.1,2c0,0.2,0.1,0.5,0.2,0.7
			c0.2,0.3,0.5,0.6,1,0.8c0.9,0.5,3.4,1.3,9.7,1.6c2.4,0.1,4.4,0.2,5.7,0.4c4.1,0.4,7.5,1.4,10,3.1c2.7,1.8,4,4.2,4,7
			c0,3.3-1.8,6-5.4,8C235.4,115.9,231,116.8,225.7,116.8z"/>
		<path class="st0" d="M281.6,116.8c-6.1,0-11.2-1.6-15.2-4.7c-4.1-3.2-6.2-7.3-6.2-12.2c0-4.9,2.1-9,6.2-12.2
			c4-3.1,9.1-4.7,15.2-4.7c6.1,0,11.2,1.6,15.2,4.7c4.1,3.2,6.2,7.3,6.2,12.2c0,4.9-2.1,9-6.2,12.2
			C292.8,115.3,287.6,116.8,281.6,116.8z M281.6,89.2c-4,0-7.4,1.1-10,3.1c-2.5,2-3.8,4.5-3.8,7.6c0,3.1,1.2,5.6,3.8,7.6
			c2.6,2.1,5.9,3.1,10,3.1c4,0,7.4-1,10-3.1c2.5-2,3.8-4.5,3.8-7.6c0-3.1-1.2-5.6-3.8-7.6C288.9,90.3,285.6,89.2,281.6,89.2z"/>
		<path class="st0" d="M356.5,116h-4.3l-23.4-20.5V116h-7.5V83.7h4.4l23.3,20.5V83.7h7.5V116z"/>
		<g>
			<path class="st0" d="M186.7,7.9c0,0-6.9-3.1-12.3-0.3c-5.6,2.9-11,10.7-11,10.7l-20,27.9c0,0-7.5,10.4-18.5,10.4
				c-11.1,0-18.6-5.2-18.6-5.2s7.6,3,14.4-1.1c6.8-4.1,11.9-12.5,11.9-12.5l20.7-28.3c0,0,4.1-6.9,14.1-8.4
				C178.3-0.6,186.7,7.9,186.7,7.9z"/>
			<path class="st0" d="M219.4,7.9c0,0-6.9-3.1-12.3-0.3c-5.6,2.9-11,10.7-11,10.7l-20,27.9c0,0-7.5,10.4-18.5,10.4
				c-11.1,0-18.6-5.2-18.6-5.2s7.6,3,14.4-1.1c6.8-4.1,11.9-12.5,11.9-12.5L186,9.5c0,0,4.1-6.9,14.1-8.4
				C211-0.6,219.4,7.9,219.4,7.9z"/>
			<path class="st0" d="M252.2,7.9c0,0-6.9-3.1-12.3-0.3c-5.6,2.9-11,10.7-11,10.7l-20,27.9c0,0-7.5,10.4-18.5,10.4
				c-11.1,0-18.6-5.2-18.6-5.2s7.6,3,14.4-1.1C193,46.2,198,37.8,198,37.8l20.7-28.3c0,0,4.1-6.9,14.1-8.4
				C243.7-0.6,252.2,7.9,252.2,7.9z"/>
		</g>
	</g>
	<g>
		<g>
			<path class="st1" d="M74.8,152.5V137h2.3l8.2,9.5l8.2-9.5h2.3v15.5h-2.5v-12.1l-8,9.2l-8-9.2v12.1H74.8z"/>
			<path class="st1" d="M116.5,152.5l9.9-15.5h2.1l10.1,15.5h-2.7l-2.8-4.2h-11.2l-2.7,4.2H116.5z M123.1,146.5h8.9l-4.5-6.9
				L123.1,146.5z"/>
			<path class="st1" d="M159.4,152.5V137H171c2,0,3.5,0.4,4.7,1.1c1.1,0.8,1.7,1.8,1.7,3.2c0,1.1-0.4,2.1-1.3,2.9
				c-0.9,0.8-2,1.3-3.5,1.5l5.1,6.8h-2.8l-5.1-6.8h-7.9v6.8H159.4z M161.9,143.9h8.9c1.3,0,2.2-0.2,2.9-0.6c0.7-0.4,1-1.1,1-1.9
				c0-0.8-0.3-1.5-1-1.9c-0.7-0.5-1.6-0.7-2.8-0.7h-9.1V143.9z"/>
			<path class="st1" d="M199.8,152.5v-15.6h2.6v15.6H199.8z"/>
			<path class="st1" d="M226.3,152.5V137h1.3l13.2,11.6V137h2.5v15.5H242l-13.2-11.6v11.6H226.3z"/>
			<path class="st1" d="M267.1,152.5V137h15.9v1.8h-13.4v4.6h8.1v1.8h-8.1v5.6h14.3v1.8H267.1z"/>
		</g>
	</g>
</g>
</svg>
