<svg id="圖層_1" data-name="圖層 1" xmlns="http://www.w3.org/2000/svg" viewBox="0 0 116.11 60"><defs><style>.cls-1{fill:#221714;}.cls-2{fill:#d72a17;}.cls-3{fill:#fff;}</style></defs><path class="cls-1" d="M29.69,56.64a2.35,2.35,0,0,1-.75,1.86,3.05,3.05,0,0,1-2.08.66H24.1V51.23h2.81a2.65,2.65,0,0,1,1.71.42,1.44,1.44,0,0,1,.51,1.18,1.62,1.62,0,0,1-.31,1.05,1.54,1.54,0,0,1-1,.51,2.07,2.07,0,0,1,1.31.68A2.26,2.26,0,0,1,29.69,56.64Zm-2.24-3.38a.82.82,0,0,0-.25-.68,1.17,1.17,0,0,0-.76-.21h-.61v1.75h.62a1,1,0,0,0,.77-.24A.85.85,0,0,0,27.45,53.26Zm.47,3.29a1.41,1.41,0,0,0-.35-1,1.49,1.49,0,0,0-1.14-.37h-.6V58h.69a1.36,1.36,0,0,0,1.08-.38A1.65,1.65,0,0,0,27.92,56.55Z"/><path class="cls-1" d="M35.93,59.16H34.36l0-.79a1.5,1.5,0,0,1-.65.62,2.28,2.28,0,0,1-1.07.24,2.08,2.08,0,0,1-1.52-.51,2,2,0,0,1-.51-1.53v-.1a1.86,1.86,0,0,1,.69-1.56A2.82,2.82,0,0,1,33.11,55a2.37,2.37,0,0,1,.7.1,1.24,1.24,0,0,1,.49.25v-.6a.63.63,0,0,0-.28-.52,1.27,1.27,0,0,0-.8-.22,3.68,3.68,0,0,0-1,.12,3.16,3.16,0,0,0-.76.32v-1a5.36,5.36,0,0,1,.93-.29A4.91,4.91,0,0,1,33.64,53a2.47,2.47,0,0,1,1.73.53,2.26,2.26,0,0,1,.56,1.69Zm-1.62-2V57a1.22,1.22,0,0,0-.25-.84,1,1,0,0,0-.76-.29,1,1,0,0,0-.74.27,1.17,1.17,0,0,0-.28.87v.16a1,1,0,0,0,.29.82,1.22,1.22,0,0,0,.74.21,1.08,1.08,0,0,0,.7-.26A.94.94,0,0,0,34.31,57.13Z"/><path class="cls-1" d="M42.68,59.16H41V54.91a.64.64,0,0,0-.2-.44.8.8,0,0,0-.58-.21,1.35,1.35,0,0,0-.64.16,1.57,1.57,0,0,0-.46.39v4.35H37.44v-6h1.61l0,1a1.82,1.82,0,0,1,.71-.76A2.33,2.33,0,0,1,41.06,53a1.53,1.53,0,0,1,1.19.48,2.11,2.11,0,0,1,.43,1.46Z"/><path class="cls-1" d="M49.82,59.16h-2l-1.92-2.47v2.47H44.25V51.23h1.68v4.33l2-2.45h1.55L47.16,55.8Z"/><path class="cls-1" d="M58.12,56.8a2.13,2.13,0,0,1-.84,1.86,3.92,3.92,0,0,1-2.33.6,8.39,8.39,0,0,1-1.44-.1,4.51,4.51,0,0,1-1-.25V57.55a3.41,3.41,0,0,0,.94.33,5,5,0,0,0,1.26.16,2.25,2.25,0,0,0,1.19-.23.88.88,0,0,0,.33-.77,1,1,0,0,0-.23-.62,4.4,4.4,0,0,0-1.35-.71,3.61,3.61,0,0,1-1.37-.91,2.22,2.22,0,0,1-.48-1.51,1.93,1.93,0,0,1,.78-1.55,3.34,3.34,0,0,1,2.15-.63,6.13,6.13,0,0,1,1.2.11,4.31,4.31,0,0,1,.75.19v1.2l-.89-.2a5.8,5.8,0,0,0-1-.08,1.8,1.8,0,0,0-1,.23.66.66,0,0,0-.32.55.82.82,0,0,0,.24.64,5.58,5.58,0,0,0,1.39.64,3.31,3.31,0,0,1,1.52,1A2.32,2.32,0,0,1,58.12,56.8Z"/><path class="cls-1" d="M61,51.76a.9.9,0,0,1-.26.64.91.91,0,0,1-1.25,0,.87.87,0,0,1-.27-.64.83.83,0,0,1,.27-.62.89.89,0,0,1,1.51.62Zm-.05,7.4H59.22v-6H60.9Z"/><path class="cls-1" d="M67.69,59.16H66V54.91a.6.6,0,0,0-.2-.44.8.8,0,0,0-.58-.21,1.28,1.28,0,0,0-.63.16,1.49,1.49,0,0,0-.47.39v4.35H62.45v-6h1.61l0,1a1.72,1.72,0,0,1,.7-.76A2.33,2.33,0,0,1,66.07,53a1.52,1.52,0,0,1,1.19.48,2.11,2.11,0,0,1,.43,1.46Z"/><path class="cls-1" d="M75.07,56.31a2.93,2.93,0,0,1-.8,2.2,3.48,3.48,0,0,1-4.44,0A2.89,2.89,0,0,1,69,56.31v-.38a3,3,0,1,1,6.06,0Zm-1.72-.14v-.09A2.72,2.72,0,0,0,73,54.4a1.18,1.18,0,0,0-.92-.44,1.13,1.13,0,0,0-.94.48,2.8,2.8,0,0,0-.36,1.64v.09a2.88,2.88,0,0,0,.35,1.7,1.18,1.18,0,0,0,1,.42,1.21,1.21,0,0,0,.91-.41A2.6,2.6,0,0,0,73.35,56.17Z"/><path class="cls-1" d="M81.65,53.91A1.87,1.87,0,0,1,81,55.43a2.66,2.66,0,0,1-1.78.52H78.17v3.21H76.39V51.23h3a2.2,2.2,0,0,1,1.78.61,2.25,2.25,0,0,1,.5,1.44ZM79.82,54v-.77a.87.87,0,0,0-.25-.67,1.33,1.33,0,0,0-.84-.21h-.56v2.48h.66a1.09,1.09,0,0,0,.7-.22A.72.72,0,0,0,79.82,54Z"/><path class="cls-1" d="M87.65,59.16H86.08l0-.79a1.5,1.5,0,0,1-.65.62,2.28,2.28,0,0,1-1.07.24,2,2,0,0,1-1.51-.51,2,2,0,0,1-.52-1.53v-.1A1.86,1.86,0,0,1,83,55.53,2.84,2.84,0,0,1,84.83,55a2.37,2.37,0,0,1,.7.1,1.37,1.37,0,0,1,.5.25v-.6a.64.64,0,0,0-.29-.52,1.27,1.27,0,0,0-.8-.22,3.73,3.73,0,0,0-1,.12,3.55,3.55,0,0,0-.76.32v-1a5.65,5.65,0,0,1,.93-.29A4.91,4.91,0,0,1,85.36,53a2.45,2.45,0,0,1,1.73.53,2.26,2.26,0,0,1,.56,1.69Zm-1.61-2V57a1.22,1.22,0,0,0-.26-.84,1,1,0,0,0-.76-.29,1,1,0,0,0-.74.27A1.17,1.17,0,0,0,84,57v.16a1,1,0,0,0,.29.82,1.24,1.24,0,0,0,.74.21,1.08,1.08,0,0,0,.7-.26A.94.94,0,0,0,86,57.13Z"/><path class="cls-1" d="M93.73,58.84a2.61,2.61,0,0,1-.59.27,2.81,2.81,0,0,1-1,.19,3.47,3.47,0,0,1-2.34-.76,2.91,2.91,0,0,1-.86-2.29V56a3,3,0,0,1,.85-2.21,3.15,3.15,0,0,1,2.3-.83,3.61,3.61,0,0,1,1,.14,1.78,1.78,0,0,1,.64.32v1.07a1.89,1.89,0,0,0-.6-.34,2.39,2.39,0,0,0-.82-.14,1.38,1.38,0,0,0-1.17.55,2.51,2.51,0,0,0-.4,1.51v.11a2.59,2.59,0,0,0,.33,1.53,1.23,1.23,0,0,0,1.06.44,3.11,3.11,0,0,0,1-.15,1.8,1.8,0,0,0,.64-.31Z"/><path class="cls-1" d="M24.74,38.36h5.55l.41.54q-.54,3.84-5.47,7l-1.06-1.19A14.16,14.16,0,0,0,27,42.86a9.39,9.39,0,0,0,1.57-1.77A4.49,4.49,0,0,0,29.17,40a.19.19,0,0,0,0-.18.65.65,0,0,0-.35-.08H24.74ZM33,40.06v5.27a1.82,1.82,0,0,1-.66,1.49,2.44,2.44,0,0,1-1.64.44A11.58,11.58,0,0,1,28.15,47l-.09-1.52c1.63.45,2.67.56,3.11.35a1.21,1.21,0,0,0,.42-.94V37c0-.15-.08-.22-.24-.22H25.16V35.39h7.42a.4.4,0,0,1,.44.49v.55a20,20,0,0,0,2.22,4.78,17.78,17.78,0,0,0,4.18,4.12l-1.24.93A19,19,0,0,1,33,40.06ZM27,33.78l.21-1.41c.75.05,2.09.19,4,.43a46.19,46.19,0,0,1,5,.77L35.87,35A50.5,50.5,0,0,0,27,33.78ZM38.26,35.2l1,1a22.05,22.05,0,0,1-3.34,3.19l-.93-1A21.84,21.84,0,0,0,38.26,35.2Z"/><path class="cls-1" d="M46.94,46c-.06-.15-.13-.29-.19-.42s-.24-.47-.32-.64h-2c-.09,0-.14-.05-.14-.16V42.21c0-.1,0-.15.14-.15H56.05c.11,0,.16,0,.16.15V44.8a.14.14,0,0,1-.16.16H54c-.07.2-.18.45-.31.74a1.91,1.91,0,0,0-.16.32h4.3v1.13H42.65V46ZM43,40.36H57.47v1.06H43Zm9.91-2.59H51.45v-1h1.49V36H51.45V35h1.49v-.84H51.45v-1h1.49v-.92h1.12v.92h1.33v1H54.06V35h1.26v1H54.06v.78h1.26v1H54.06v.81h1.71a.18.18,0,0,0,.2-.2V32.52h1.25v6.6a.46.46,0,0,1-.52.52H43.76c-.34,0-.5-.17-.5-.52v-6.6h1.25v5.86c0,.13.06.2.18.2h1.73v-.81H45v-1h1.43v-.84H45.06v-1h1.36v-.77H45v-1h1.43v-.85h1.12v.85h1.27v1H47.54v.77h1.27v1H47.54v.84h1.33v1H47.54v.81h2V32.32h1.25v6.26h2.17ZM55,43.12H45.44s-.06,0,0,.05v.67s0,0,0,.06H55s.07,0,.07-.06v-.67S55.07,43.12,55,43.12ZM48.29,46h3.82L52.64,45H47.8C47.9,45.16,48.06,45.52,48.29,46Z"/><path class="cls-1" d="M65,33.44a13.37,13.37,0,0,1-2.83,2.61L61,35.24a9.34,9.34,0,0,0,3.44-3.08h1.26q-.06.12-.12.27l0,0a24.64,24.64,0,0,0,2.24,1.89l-1,.94A21.9,21.9,0,0,1,65,33.44Zm-3.87,8.11,1.2-.37a13.57,13.57,0,0,1,.82,3.06l-1.23.3A15,15,0,0,0,61.17,41.55Zm2.67,3.71V40.42h-2.4V39.17h2.4V37.51H62.13V36.26h4.76v1.25H65.16v1.66H67.4v1.25H65.16V45c1-.27,1.68-.45,2-.55l.27,1.28A53.62,53.62,0,0,1,61.63,47l-.18-1.28C62.18,45.58,63,45.43,63.84,45.26Zm2.45-4.06,1.11.39c-.2.75-.45,1.52-.74,2.31l-1.08-.45A13.76,13.76,0,0,0,66.29,41.2Zm6.54,1.47a20.23,20.23,0,0,0,2.31-2l.85.93a17.21,17.21,0,0,1-2.53,2.22,11.63,11.63,0,0,0,2.85,2.55l-1.17.91a12.64,12.64,0,0,1-2.24-2A8.28,8.28,0,0,1,71,40.1H69.52v5.36c.9-.28,1.66-.55,2.29-.81l.43,1.25a23.21,23.21,0,0,1-4.73,1.44l-.36-1.29,1.06-.25V33a.33.33,0,0,1,.38-.38h6.29c.27,0,.4.12.4.38v6.66a.37.37,0,0,1-.41.41h-2.6A8.46,8.46,0,0,0,72.83,42.67Zm-3.31-6.92H74V34.2a.28.28,0,0,0-.32-.3H69.84c-.23,0-.33.12-.32.31ZM74,37H69.52v1.85h4.1A.31.31,0,0,0,74,38.5Z"/><path class="cls-1" d="M81.77,41c-.38.39-.74.73-1.06,1l-1.13-.89a12.37,12.37,0,0,0,3.53-4.69l1.25.58a23,23,0,0,1-1.22,2.19v8.11H81.77Zm.74-8.64,1.28.49a12.1,12.1,0,0,1-2.93,4.51l-1.17-.8A10.27,10.27,0,0,0,82.51,32.32Zm8.24,5.9H85V36.85h9.7v1.37H92.13v7.29a1.62,1.62,0,0,1-.73,1.39q-1.32.85-4.78-.16l0-1.44a23.38,23.38,0,0,0,2.42.57,2.06,2.06,0,0,0,1.54-.27.62.62,0,0,0,.14-.46Zm-5.28-5.17H94v1.38H85.47Z"/><path class="cls-2" d="M23.11,11.51A11.45,11.45,0,1,1,11.66,0,11.48,11.48,0,0,1,23.11,11.51Z"/><rect class="cls-3" x="12.93" y="4.16" width="2.86" height="2.88"/><polygon class="cls-3" points="2.75 12.15 2.75 14.71 5.29 14.71 5.29 17.26 7.84 17.26 7.84 12.15 2.75 12.15"/><polygon class="cls-3" points="3.39 7.04 3.39 9.59 10.38 9.59 10.38 17.26 12.93 17.26 12.93 7.04 3.39 7.04"/><polygon class="cls-3" points="15.47 9.59 15.47 17.26 18.02 17.26 18.02 12.15 21.2 12.15 21.2 9.59 15.47 9.59"/><path class="cls-1" d="M72.73,13.81l-.82-.58c.59-1.07,1.18-2.12,1.77-3.2l1.19.68-1.75,3.22h3.13V15.3H62.19V14h2.94l-1.69-3.18,1.23-.72c.58,1.08,1.15,2.12,1.73,3.19l-1.18.64H68.5V9.81H62.31V8.37h6.18V6.55H64.85V5.14L62.45,6.2l-.74-1.29c1.22-.52,2.41-1,3.57-1.54A9.45,9.45,0,0,0,68.72.87c.27-.34,1.26-.1,1.42.3a1.05,1.05,0,0,0,.32.35,19,19,0,0,0,5.77,3.13l.54.21L76,6.17l-2.1-.91V6.51H70V8.35h6.16V9.76H70v4.15h2.75Zm-7.66-8.7h8.35l-4.1-2.76Z"/><path class="cls-1" d="M48.17,7H50V.77h1.3V7h2.1V6.25H52v-1h1.4V4.49H52V3.43h1.4v-.8H52v-1h1.43V.7h1.13c0,.31,0,.58.06.89H55.9v1H54.67v.8l1.19.06v1H54.67v.73h1.18V6.24H54.71c-.16.75-.14.77.55.77,1.23,0,1.23,0,1.23-1.21,0-1.56,0-3.13,0-4.7a.58.58,0,0,1,0-.13h1.19c0,.14,0,.3,0,.46V7.35c0,.64-.12.77-.78.77H44.6c-.39,0-.77,0-.77-.56V1h1.26v.59c0,1.66,0,3.32,0,5,0,.35.08.5.46.48s.91,0,1.39,0V6.26H45.59v-1h1.35V4.39H45.66v-1h1.28V2.63H45.58v-1h1.35c0-.31,0-.58.07-.86h1.08c0,.28.06.54.09.85h1.19v1H48.17v.77h1.18v1H48.16c0,.28,0,.51,0,.8l1.3.06v1H48.17Z"/><path class="cls-1" d="M44.84,13.43c0-.94,0-1.84,0-2.73,0-.08.34-.22.52-.22,1.85,0,3.7,0,5.56,0s3.52,0,5.28,0c.44,0,.58.13.55.57,0,.62,0,1.25,0,1.88,0,.43-.14.56-.54.53a8.61,8.61,0,0,0-.88,0c-.9,0-.9,0-1.22,1h4.15v1.15h-15V14.46h4.1c-.05-.8-.29-1-1-1ZM46,12.3h9.58v-.68H46Zm2.49,1.16c.28,1,.28,1,1.19,1h2.19c.92,0,.92,0,1.2-1Z"/><path class="cls-1" d="M28.81,15.52c-.06-.64-.09-1.11-.14-1.64.69.14,1.33.28,2,.39,1.15.2,1.57-.15,1.57-1.32,0-2.38,0-4.76,0-7.13,0-.47-.14-.59-.59-.59-1.73,0-3.45,0-5.18,0h-.61V3.82h7c.72,0,.75,0,.78.73a2.35,2.35,0,0,0,.1.59,15.56,15.56,0,0,0,5.74,8.21c.16.12.31.25.46.38a.48.48,0,0,1-.05.12c-1.1,1-1.1,1-2.17,0A18.65,18.65,0,0,1,34,9.13c-.06-.11-.13-.22-.27-.44,0,.32,0,.51,0,.7,0,1.43,0,2.87,0,4.31a1.71,1.71,0,0,1-1.76,2A29.29,29.29,0,0,1,28.81,15.52Z"/><path class="cls-1" d="M69.79,19.65h1.79v3.29h2V19.66h1.8v8H73.63V24.26h-2v3.41h-1.8Z"/><path class="cls-1" d="M104.9,28.24a21,21,0,0,0,2.35.13c.92,0,1.24-.52,1.15-1.36a6.75,6.75,0,0,1-1.61.58,1.94,1.94,0,0,1-2.35-1.83,7.66,7.66,0,0,1-.07-2,2.51,2.51,0,0,1,4-1.9c.21-.41.5-.46,1.7-.3v5.28a2.53,2.53,0,0,1-2.34,2.71,12.67,12.67,0,0,1-2.13-.06c-.59,0-.84-.34-.73-.94A3.1,3.1,0,0,0,104.9,28.24Zm1.18-3.91c0,.43.07.8.13,1.16a1,1,0,0,0,1,.94.9.9,0,0,0,1-.8,15.21,15.21,0,0,0,.09-2.24.94.94,0,0,0-.88-1,1,1,0,0,0-1.13.77A10.38,10.38,0,0,0,106.08,24.33Z"/><path class="cls-1" d="M84.75,8a8.82,8.82,0,0,1-1.09.87,1,1,0,0,0-.49,1c0,1.34,0,2.69,0,4a3.77,3.77,0,0,1-.1.88,1.08,1.08,0,0,1-1,.92,3.26,3.26,0,0,1-1.67-.37c-.21-.13-.1-.82-.13-1.31l1,.23c.33.08.53-.07.53-.38,0-1.2,0-2.41,0-3.7l-1,.55c-.28-.34-.54-.66-.85-1,.51-.31,1-.6,1.49-.91.14-.09.32-.26.32-.39,0-1.1,0-2.2,0-3.36H80.25V3.73H81.8V.85h1.35V3.69h1.12V5l-1,.06V7.53l.55-.43C84.09,7.39,84.39,7.68,84.75,8Z"/><path class="cls-1" d="M92.91,27.67H91.29c0-.23-.05-.43-.08-.75a2.05,2.05,0,0,1-1.75.85,1.84,1.84,0,0,1-2-1.59,9,9,0,0,1,0-2.79,2.39,2.39,0,0,1,3.35-1.78l.4.16V19.66h1.71Zm-1.69-3.26c0-.39,0-.77,0-1.16s-.3-.76-.76-.84a1,1,0,0,0-1.19.79,13.89,13.89,0,0,0-.06,2.58.85.85,0,0,0,1,.8,1,1,0,0,0,1-1.06Z"/><path class="cls-1" d="M84.76,15.23V13.92h4.32V10.35H86.44V9.05H93v1.27H90.56v3.57h4.33v1.34Z"/><path class="cls-1" d="M50,24.48v3.19H48.24v-8.1c1.32.06,2.64.06,4,.21a1.66,1.66,0,0,1,1,.8,3.05,3.05,0,0,1,.12,2.76,1.81,1.81,0,0,1-1.68,1.06C51.14,24.44,50.61,24.45,50,24.48Zm0-1.2c.59,0,1.26.17,1.47-.4a2.49,2.49,0,0,0,0-1.68c-.24-.57-.9-.34-1.45-.33v2.41Z"/><path class="cls-1" d="M29.34,19.68V21A13.43,13.43,0,0,0,28,20.81a6.62,6.62,0,0,0-1.09,0,.75.75,0,0,0-.74.68.79.79,0,0,0,.55.86c.5.22,1,.41,1.52.64a2.43,2.43,0,0,1,1.45,3.07,2.06,2.06,0,0,1-1.55,1.49,6.58,6.58,0,0,1-3.68,0,.66.66,0,0,1-.32-.46,5.27,5.27,0,0,1,0-.88c.81.1,1.59.25,2.37.3s1.23-.19,1.35-.67-.1-1-.92-1.35c-.31-.15-.64-.27-.95-.43a2.38,2.38,0,0,1-1.52-2.69,2.44,2.44,0,0,1,2.46-1.82C27.69,19.52,28.49,19.62,29.34,19.68Z"/><path class="cls-1" d="M39.46,27.68H37.72V25.82c0-.76,0-1.51,0-2.27,0-.56-.27-.82-.8-.81a1,1,0,0,0-1.07.86v3.81a1.38,1.38,0,0,1,0,.25H34.19v-6.1h1.55c0,.23.07.44.11.72a2.62,2.62,0,0,1,2-.88,1.44,1.44,0,0,1,1.56,1.32c.09.82.08,1.65.09,2.48S39.46,26.81,39.46,27.68Z"/><path class="cls-1" d="M82.88,24.62c0,1.59-.54,2.54-1.69,3a3.36,3.36,0,0,1-3.75-.75,3.57,3.57,0,0,1-.42-3.8,2.67,2.67,0,0,1,2.78-1.66C81.81,21.4,82.89,22.51,82.88,24.62Zm-4.39-.06c.07.51.1,1,.2,1.38a1.06,1.06,0,0,0,1.09.83A1.08,1.08,0,0,0,80.93,26a4.46,4.46,0,0,0,0-2.82,1.07,1.07,0,0,0-1.1-.76,1,1,0,0,0-1,.75A10.9,10.9,0,0,0,78.49,24.56Z"/><path class="cls-1" d="M46.89,25.25a2.45,2.45,0,0,1-1.74,2.35A3.26,3.26,0,0,1,41.53,27a3.74,3.74,0,0,1,.13-4.84,3.45,3.45,0,0,1,4.55.23A3.88,3.88,0,0,1,46.89,25.25Zm-1.74-.64A10.27,10.27,0,0,0,45,23.37a1.21,1.21,0,0,0-1.14-.95,1.1,1.1,0,0,0-1.13.94,11.7,11.7,0,0,0,0,2.51,1.05,1.05,0,0,0,1.08.92A1.17,1.17,0,0,0,45,25.87,10.07,10.07,0,0,0,45.15,24.61Z"/><path class="cls-1" d="M59.61,27.67H58c0-.19,0-.36-.06-.63a2.4,2.4,0,0,1-2.24.68,1.63,1.63,0,0,1-1.48-1.45,2.37,2.37,0,0,1,3.29-2.72,2.67,2.67,0,0,1,.36.14c.17-.72-.09-1.18-.77-1.19a14.52,14.52,0,0,0-2,.21c-.21-.81-.15-1,.73-1.14a7.15,7.15,0,0,1,1.85-.14,1.8,1.8,0,0,1,1.86,2C59.66,24.8,59.61,26.2,59.61,27.67Zm-3.71-2.1c0,.71.37,1.1,1,1.09A1,1,0,0,0,58,25.52c0-.76-.39-1.21-1-1.19S55.89,24.8,55.9,25.57Z"/><path class="cls-1" d="M97.75,21.56h1.59c0,.24,0,.47.08.76a2.41,2.41,0,0,1,1.89-.91A1.48,1.48,0,0,1,103,22.85c.07,1.6,0,3.2,0,4.82h-1.69v-.88c0-1.07,0-2.14,0-3.21,0-.59-.31-.87-.85-.84a.94.94,0,0,0-1,.91c0,1.32,0,2.65,0,4H97.75Z"/><path class="cls-1" d="M90.5.76V2.05c1,0,2,0,3,0a3.45,3.45,0,0,1,.89.19.84.84,0,0,1,.67,1.18c-.18.75-.33,1.5-.5,2.31l-1.36-.42c.16-.67.3-1.29.46-2H86.22v2.1H84.84c0-1,0-2.11,0-3.17,0-.08.29-.23.45-.23,1.24,0,2.49,0,3.8,0V.76Z"/><path class="cls-1" d="M29.88,8.22H25.41V6.81h5.35c.37,0,.62.47.53.91a8.29,8.29,0,0,1-2.62,4.44c-.86.8-1.81,1.48-2.74,2.24L24.8,13.11A9.84,9.84,0,0,0,29.88,8.22Z"/><path class="cls-1" d="M65.71,22.82a9.17,9.17,0,0,0-1.13-.31,1.38,1.38,0,0,0-1.73,1.18,6.22,6.22,0,0,0,0,2c.13.8.9,1.1,1.91.86.29-.08.58-.19.87-.29.29.93.15,1.19-.72,1.44a3.19,3.19,0,0,1-3.81-1.52c-.52-1.27-.47-3.47,1.12-4.39a3.81,3.81,0,0,1,2.56-.37C65.75,21.59,65.81,21.71,65.71,22.82Z"/><path class="cls-1" d="M111.17,26.49a13.06,13.06,0,0,0,1.53.32,1.78,1.78,0,0,0,.9-.18.74.74,0,0,0,.39-.53.86.86,0,0,0-.37-.6,6.06,6.06,0,0,0-1.12-.44A1.74,1.74,0,0,1,111.27,23a1.6,1.6,0,0,1,1.52-1.48,5.2,5.2,0,0,1,1.42,0c1,.13,1,.17.89,1.14a14,14,0,0,0-1.82-.12c-.24,0-.46.32-.68.5a2.58,2.58,0,0,0,.6.59c.38.2.83.28,1.23.46A1.78,1.78,0,0,1,115.56,26a1.8,1.8,0,0,1-1.44,1.68,7.19,7.19,0,0,1-2.07.08C111,27.65,111,27.54,111.17,26.49Z"/><path class="cls-1" d="M43.64,9.85v-1H58v1Z"/><path class="cls-1" d="M85.93,27.68H84.3v-8h1.63Z"/><path class="cls-1" d="M36.81,1.89c-.13.6-.22,1-.29,1.39L27.6,2.1c0-.35.12-.8.21-1.37Z"/><path class="cls-1" d="M95.18,9.05s0,.07,0,.08c-1.34.88-1,1-2-.23A13.78,13.78,0,0,1,91.7,6.1c-.14-.31-.26-.42-.59-.41-1,0-2,0-3,0V4.36c1.39,0,2.76,0,4.12,0,.13,0,.33.22.36.37A6.74,6.74,0,0,0,95.18,9.05Z"/><path class="cls-1" d="M94.48,21.56h1.66v6.1H94.48Z"/><path class="cls-1" d="M32.56,27.68H30.92V21.57h1.64Z"/><path class="cls-1" d="M39,3.65l.93,1.07-3.3,3.16-1-1.06Z"/><path class="cls-1" d="M87.71,6a11.33,11.33,0,0,1-2.58,4.21l-1.08-.73c.48-.63,1-1.21,1.39-1.85s.7-1.32,1.08-2Z"/><path class="cls-1" d="M31.74,19.29a.85.85,0,0,1,.89.9.88.88,0,0,1-.89.9.93.93,0,0,1-.94-.94A.9.9,0,0,1,31.74,19.29Z"/><path class="cls-1" d="M95.3,19.29a.9.9,0,1,1,0,1.8.85.85,0,0,1-.89-.9A.83.83,0,0,1,95.3,19.29Z"/></svg>