<svg id="圖層_1" data-name="圖層 1" xmlns="http://www.w3.org/2000/svg" viewBox="0 0 131.55 29.53"><defs><style>.cls-1{fill:#231815;}.cls-2{fill:#008cce;}.cls-3{fill:#e13b1b;}.cls-4{fill:#eb6615;}.cls-5{fill:#f5a704;}.cls-6{fill:#9cc63a;}</style></defs><path class="cls-1" d="M31.36,12.41H39a.68.68,0,0,1,.61.28,1,1,0,0,1,.18.63,2.73,2.73,0,0,1-.09.65.4.4,0,0,1-.43.27.3.3,0,0,1-.35-.35,2.52,2.52,0,0,0,.12-.53c0-.26-.11-.39-.32-.39H31.59a.21.21,0,0,0-.23.24v.68c0,.24-.12.35-.36.35s-.36-.11-.36-.35v-.76a.64.64,0,0,1,.72-.72m6.75,1a.2.2,0,0,1,.23.23c0,.16-.07.25-.23.25h-.46a10.79,10.79,0,0,1,1.09.7c.16.07.25.16.25.29s-.12.4-.36.4a.45.45,0,0,1-.15-.07l-.62-.42h0L35.57,15v.54h2.62c.16,0,.24.07.24.23s-.08.28-.24.28H35.57v.44h3.89a.28.28,0,0,1,.32.32c0,.2-.1.3-.32.3H31q-.33,0-.33-.3c0-.22.11-.32.33-.32h3.88V16H32c-.15,0-.23-.09-.23-.28a.2.2,0,0,1,.23-.23h2.86V15c-1.09.06-2.14.1-3.17.14-.18,0-.28-.11-.28-.32a.26.26,0,0,1,.28-.29c.47,0,.93,0,1.38,0l.49-.6H32.08a.22.22,0,0,1-.24-.25.21.21,0,0,1,.24-.23Zm1.16-5c.18,0,.27.09.27.28s-.09.3-.27.3h-3.7v.48h3.17c.19,0,.29.09.29.28a.26.26,0,0,1-.29.29h-7a.26.26,0,0,1-.29-.29c0-.19.1-.28.29-.28h3.13V9.07H31.12q-.27,0-.27-.3c0-.19.09-.28.27-.28h3.73V8.33A.32.32,0,0,1,35.22,8a.32.32,0,0,1,.35.36v.16Zm-7.19,2.1h6.3c.33,0,.49.12.49.36v.7c0,.27-.16.4-.49.4h-6.3c-.33,0-.49-.13-.49-.4V11c0-.24.16-.36.49-.36m6,.95s0,0,0-.15v-.17c0-.08,0-.12,0-.12H32.35s0,0,0,.12v.17c0,.1,0,.15,0,.15Zm-1,2.83-.1,0a.3.3,0,0,1-.24-.31s0-.06,0-.08H34.3l-.46.59c1.15,0,2.23-.08,3.22-.15"/><path class="cls-1" d="M42,9.91H44.9V8.52a.32.32,0,0,1,.36-.36c.26,0,.4.12.4.36V9.91h3.09c.61,0,.92.29.92.87v2.9c0,.58-.31.87-.92.87H45.66V17c0,.24-.14.36-.4.36A.32.32,0,0,1,44.9,17V14.55H42a.77.77,0,0,1-.87-.87v-2.9A.77.77,0,0,1,42,9.91m2.87,3.94V10.63H42.24c-.21,0-.31.12-.31.36v2.5c0,.24.1.36.31.36Zm3.65,0a.32.32,0,0,0,.35-.36V11a.32.32,0,0,0-.35-.36H45.66v3.22Z"/><path class="cls-1" d="M55.54,7.93a.35.35,0,0,1,.4.4v.78h3.89a.36.36,0,0,1,0,.72H51.36a.36.36,0,0,1,0-.72h3.79V8.33a.35.35,0,0,1,.39-.4m-3.13,3.42h2.77v-.88c0-.24.12-.35.36-.35s.4.11.4.35v.88H58.8c.5,0,.74.23.74.7V16c0,.61-.38.92-1.14.92A4.25,4.25,0,0,1,57,16.55a.35.35,0,0,1-.23-.33c0-.29.09-.44.27-.44a.88.88,0,0,1,.32.08,2.92,2.92,0,0,0,1,.25c.32,0,.48-.14.48-.44V12.34c0-.22-.09-.33-.28-.33H55.94v5.08c0,.25-.13.37-.4.37a.32.32,0,0,1-.36-.37V12H52.63c-.15,0-.22.11-.22.33v4.25c0,.24-.14.35-.4.35s-.36-.11-.36-.35V12.05c0-.47.25-.7.76-.7"/><path class="cls-1" d="M65.51,8.8a.36.36,0,0,1,0,.71H64.15v2.07h1a.28.28,0,0,1,.32.32c0,.24-.11.36-.32.36h-1v3.18c.34-.16.73-.36,1.16-.6l.15,0c.24,0,.36.13.36.4,0,.1-.08.21-.22.34a12,12,0,0,1-1.51.78,14.06,14.06,0,0,1-2.19.8.77.77,0,0,1-.29.05c-.24,0-.36-.13-.36-.38a.37.37,0,0,1,.28-.4l.29-.08V11.47c0-.25.11-.37.35-.37s.35.12.35.37v4.62a5.1,5.1,0,0,0,.82-.3l.1,0V9.51H61.78a.36.36,0,1,1,0-.71Zm1.27-.72c.23,0,.35.11.35.33s0,.65-.06.95H70a.36.36,0,0,1,0,.72H69.6a13.63,13.63,0,0,1-.17,1.61,10.94,10.94,0,0,1-.54,2.17,7.62,7.62,0,0,1-.6,1.14,4.8,4.8,0,0,0,.86.9,5.2,5.2,0,0,0,.95.69.38.38,0,0,1-.11.75.36.36,0,0,1-.13-.05,8.17,8.17,0,0,1-1.25-.9,6.43,6.43,0,0,1-.77-.8,1.48,1.48,0,0,1-.24.26,7.56,7.56,0,0,1-1.93,1.4.76.76,0,0,1-.29.09c-.29,0-.44-.13-.44-.4a.33.33,0,0,1,.17-.28,7.6,7.6,0,0,0,2-1.45l.26-.31a8.35,8.35,0,0,1-.44-1,10.47,10.47,0,0,1-.48-1.67,8.17,8.17,0,0,1-.39.84.53.53,0,0,1-.35.19c-.29,0-.44-.13-.44-.4a.41.41,0,0,1,.11-.18,6.81,6.81,0,0,0,.76-2,13.24,13.24,0,0,0,.28-2.3q0-.33.36-.33m-.1,3.46h0a.31.31,0,0,1,.32.24,15.3,15.3,0,0,0,.53,1.93c.08.19.17.37.25.54a5.87,5.87,0,0,0,.43-.87,11.43,11.43,0,0,0,.61-3.3H67c0,.31-.09.59-.14.85s-.11.42-.17.61"/><path class="cls-1" d="M75.94,8.05a.36.36,0,0,1,.41.4v.47H80c.24,0,.36.11.36.32A.32.32,0,0,1,80,9.6H72.77a.27.27,0,0,0-.31.31v2.9a13.8,13.8,0,0,1-.21,2.64,9.76,9.76,0,0,1-.39,1.61.34.34,0,0,1-.32.24.36.36,0,0,1-.4-.36,1.85,1.85,0,0,1,.11-.38c0-.16.09-.33.13-.52s.15-.63.2-.95a16.58,16.58,0,0,0,.15-2.28V9.55q0-.63.69-.63h3.12V8.45a.35.35,0,0,1,.4-.4M74.75,9.83a.44.44,0,0,1,.27.09.39.39,0,0,1,.13.27.93.93,0,0,1,0,.19,9.75,9.75,0,0,1-.59,1.71v5c0,.22-.12.32-.36.32a.28.28,0,0,1-.32-.32V13.32c-.18.27-.36.52-.55.76a.53.53,0,0,1-.29.16c-.26,0-.39-.11-.39-.35a.31.31,0,0,1,.07-.21,8.15,8.15,0,0,0,1-1.53,9.81,9.81,0,0,0,.78-2.07c0-.17.12-.25.27-.25m5.33,1.48c.24,0,.36.11.36.34a.32.32,0,0,1-.36.36h-.84v4.42c0,.58-.39.87-1.19.87a4.51,4.51,0,0,1-1.59-.4.34.34,0,0,1-.27-.35q0-.35.27-.36a1,1,0,0,1,.27,0,5.56,5.56,0,0,0,1.35.36c.29,0,.44-.1.44-.29V12H75.43a.32.32,0,0,1-.36-.36c0-.23.12-.34.36-.34h3.09V10.22c0-.23.12-.35.37-.35a.31.31,0,0,1,.35.35v1.09Zm-4.14,1.31a.35.35,0,0,1,.29.19,9.1,9.1,0,0,1,1.06,1.95.93.93,0,0,1,0,.27c0,.21-.15.32-.44.32-.12,0-.21-.09-.26-.27a8.54,8.54,0,0,0-1-1.95.43.43,0,0,1-.08-.21c0-.2.14-.3.4-.3"/><path class="cls-1" d="M83.93,8.68a.36.36,0,1,1,0,.71h-.68V12h.64a.29.29,0,0,1,.32.33c0,.24-.11.36-.32.36h-.64v2.55q.36-.26.87-.66l.13,0c.24,0,.36.14.36.41a.54.54,0,0,1-.16.31,7.41,7.41,0,0,1-1,.73,10,10,0,0,1-1.47.73.49.49,0,0,1-.18,0c-.25,0-.37-.12-.37-.35a.37.37,0,0,1,.29-.4,9.23,9.23,0,0,0,.87-.39V12.66h-.76c-.22,0-.32-.12-.32-.36s.1-.33.32-.33h.76V9.39h-.79A.32.32,0,0,1,81.42,9c0-.23.12-.35.37-.35Zm1.3,3.41h4.29c.34,0,.51.16.51.49v1.1a.46.46,0,0,1-.51.52H87.67a3.5,3.5,0,0,0,.63,1.08l.18.18a9.83,9.83,0,0,0,1-1,.43.43,0,0,1,.28-.15.32.32,0,0,1,.35.36.42.42,0,0,1-.15.31,10.11,10.11,0,0,1-1,.84,2,2,0,0,0,.31.2,6.61,6.61,0,0,0,1.23.56c.13.08.2.17.2.27a.35.35,0,0,1-.4.4,1.27,1.27,0,0,1-.31-.07,6.93,6.93,0,0,1-1.19-.6,4.46,4.46,0,0,1-1.13-.95A4.42,4.42,0,0,1,87,14.2h-.28l-.06.08c-.11.18-.22.34-.31.47v1.61c.33-.08.62-.16.88-.25a.34.34,0,0,1,.15,0,.26.26,0,0,1,.28.28.35.35,0,0,1-.21.31,5,5,0,0,1-1.1.37A11,11,0,0,1,85,17.3a.36.36,0,0,1,0-.71l.64-.09v-1l-.14.1a6.89,6.89,0,0,1-.82.55.49.49,0,0,1-.24.07.29.29,0,0,1-.22-.11.41.41,0,0,1-.1-.29c0-.1.07-.19.21-.26a7.15,7.15,0,0,0,.76-.51,3.82,3.82,0,0,0,.55-.52,3.72,3.72,0,0,0,.27-.33h-.68a.46.46,0,0,1-.51-.52v-1.1c0-.33.17-.49.51-.49m5-1.14a.32.32,0,1,1,0,.63H84.52a.28.28,0,0,1-.31-.31c0-.22.1-.32.31-.32ZM85,8.41H89.6c.35,0,.52.14.52.43V9.91c0,.31-.17.47-.52.47H85c-.35,0-.52-.16-.52-.47V8.84c0-.29.17-.43.52-.43m1.1,1.38V9h-.7c-.14,0-.21.09-.21.25v.27c0,.19.07.28.21.28Zm3,3.74c.14,0,.21-.08.21-.25V13c0-.13-.07-.19-.21-.19H85.64c-.14,0-.2.06-.2.19v.31c0,.17.06.25.2.25ZM87.81,9h-1v.8h1Zm1.39.8c.14,0,.21-.09.21-.28V9.24c0-.16-.07-.25-.21-.25h-.7v.8Z"/><path class="cls-1" d="M94,10.43a.36.36,0,1,1,0,.71h-.56v3.55q.27-.18.6-.45l.11,0c.25,0,.37.13.37.39a.42.42,0,0,1-.14.28,6.65,6.65,0,0,1-.88.67,9.17,9.17,0,0,1-1.31.64.45.45,0,0,1-.18,0,.32.32,0,0,1-.36-.36.38.38,0,0,1,.29-.39c.3-.12.57-.23.79-.34v-4h-.6a.36.36,0,1,1,0-.71h.6V8.52a.36.36,0,1,1,.71,0v1.91Zm3.82,4.45H96.9a3.47,3.47,0,0,1-.27,1.17,1.94,1.94,0,0,1-.78.85,3.31,3.31,0,0,1-1.48.44h-.13c-.2,0-.3-.14-.31-.4a.31.31,0,0,1,.27-.31,2.94,2.94,0,0,0,1.17-.32,1.43,1.43,0,0,0,.6-.62,2,2,0,0,0,.22-.81h-.72c-.39,0-.58-.2-.58-.6v-2.1a.51.51,0,0,1,.58-.57h3.85c.41,0,.61.19.61.57v2.1a.53.53,0,0,1-.61.6h-.83V16.3c0,.19.28.29.83.29s.69-.07.71-.21l.06-.39c0-.2.12-.31.36-.32a.33.33,0,0,1,.35.36c0,.6-.11.94-.34,1a2.49,2.49,0,0,1-1.14.17A2.82,2.82,0,0,1,98.08,17a.58.58,0,0,1-.29-.53ZM97.43,8a.35.35,0,0,1,.4.4V8.8h2.22a.28.28,0,0,1,.32.31c0,.24-.11.36-.32.36h-1l-.3,1h1.4c.22,0,.33.11.33.31s-.11.36-.33.36H94.77c-.21,0-.32-.12-.32-.36a.28.28,0,0,1,.32-.31H96l-.24-1H95c-.22,0-.32-.12-.32-.36A.28.28,0,0,1,95,8.8h2V8.37a.35.35,0,0,1,.4-.4M95.6,12.88h3.61v-.39A.17.17,0,0,0,99,12.3H95.8c-.13,0-.2.06-.2.19ZM99,14.2c.13,0,.19-.08.19-.23v-.44H95.6V14c0,.15.07.23.2.23Zm-2.24-3.77H98l.3-1H96.56Z"/><path class="cls-1" d="M103.82,8.16a.48.48,0,0,1,.27.09.39.39,0,0,1,.13.27,1.23,1.23,0,0,1,0,.21,15.41,15.41,0,0,1-.44,1.48V17a.36.36,0,0,1-.72,0V11.8a8.27,8.27,0,0,1-.72,1.12c-.12.12-.21.17-.27.17-.26,0-.39-.12-.39-.35a.29.29,0,0,1,.07-.2,10.14,10.14,0,0,0,1-1.77,11.05,11.05,0,0,0,.79-2.36.28.28,0,0,1,.29-.25m1.59.25h4.21c.47,0,.7.21.7.62v1.88c0,.44-.23.67-.7.67H108v1h2.54a.32.32,0,0,1,.36.35c0,.24-.12.35-.36.35h-2.35a13.33,13.33,0,0,0,1.13,1.25A12.55,12.55,0,0,0,110.89,16a.58.58,0,0,1,.12.4.44.44,0,0,1-.4.35.62.62,0,0,1-.33-.11,12,12,0,0,1-1.1-1.07A16.91,16.91,0,0,1,108,14v3c0,.24-.13.36-.4.36a.32.32,0,0,1-.36-.36v-3a15.72,15.72,0,0,1-2.25,2.52.71.71,0,0,1-.37.21c-.31,0-.47-.14-.47-.4a.39.39,0,0,1,.12-.24,15,15,0,0,0,1.87-1.78,10.46,10.46,0,0,0,.81-1h-2.4c-.24,0-.36-.11-.36-.35a.32.32,0,0,1,.36-.35h2.69v-1h-1.78a.6.6,0,0,1-.69-.67V9c0-.41.23-.62.69-.62m3.89,2.5c.18,0,.28-.11.28-.32V9.36a.26.26,0,0,0-.28-.29h-3.58c-.16,0-.23.1-.23.29v1.23c0,.21.07.32.23.32Z"/><path class="cls-1" d="M114.38,9.79a.29.29,0,0,1,.32.33c0,.23-.11.35-.32.35h-2.1c-.22,0-.33-.12-.33-.35a.29.29,0,0,1,.33-.33Zm-.21,1.35a.29.29,0,0,1,.32.33.28.28,0,0,1-.32.31h-1.65c-.22,0-.32-.1-.32-.31s.1-.33.32-.33Zm0,1.48c.21,0,.32.1.32.3a.28.28,0,0,1-.32.32h-1.65a.28.28,0,0,1-.32-.32c0-.2.1-.3.32-.3ZM112.78,14h1.12c.42,0,.63.19.63.58v2c0,.39-.21.58-.63.58h-1.12a.51.51,0,0,1-.58-.58v-2a.51.51,0,0,1,.58-.58m1.35-5.56a.28.28,0,0,1,.32.32c0,.2-.1.3-.32.3h-1.57c-.22,0-.32-.1-.32-.3a.28.28,0,0,1,.32-.32Zm-.51,8.1a.23.23,0,0,0,.25-.25V14.84a.22.22,0,0,0-.25-.25h-.55c-.14,0-.21.08-.21.25v1.42c0,.16.07.25.21.25Zm7-7.83a.24.24,0,0,1,.27.27q0,.33-.27.33h-1.11v.08a.29.29,0,0,1-.33.32c-.2,0-.3-.11-.3-.32V9.28H117v.08a.29.29,0,0,1-.33.32.32.32,0,0,1-.2-.06.36.36,0,0,1,0,.1.56.56,0,0,1,0,.15c0,.1-.07.2-.11.29h1.35a.22.22,0,0,1,0-.08c.1-.16.2-.31.29-.48a.32.32,0,0,1,.27-.13.28.28,0,0,1,.23.1.3.3,0,0,1,.1.22.37.37,0,0,1-.08.21l-.13.16h2.23a.27.27,0,0,1,0,.54h-2.27v.48h2.07c.19,0,.28.09.28.29s-.09.27-.28.27h-2.07v.52h2.07a.24.24,0,0,1,.28.28c0,.18-.09.27-.28.27h-2.07v.51h2.2c.23,0,.34.1.34.29s-.11.32-.34.32h-4.7c-.4,0-.59-.2-.59-.61V11.44l-.23.14a.35.35,0,0,1-.2.07.33.33,0,0,1-.23-.09.36.36,0,0,1-.1-.25.29.29,0,0,1,.08-.21,2.49,2.49,0,0,0,.52-.35,3.1,3.1,0,0,0,.44-.51,2.4,2.4,0,0,0,.31-.6.31.31,0,0,1,.32-.21.33.33,0,0,1,.19.06.27.27,0,0,1,0-.13V9.28h-1.08c-.19,0-.28-.11-.28-.33s.09-.27.28-.27h1.08V8.45q0-.33.3-.33a.29.29,0,0,1,.33.33v.23h1.91V8.45q0-.33.3-.33a.29.29,0,0,1,.33.33v.23Zm-5.25,5.76h4.9c.29,0,.43.12.43.36a.89.89,0,0,1-.36.61,5.93,5.93,0,0,1-1.46.82l.55.16q.57.12,1.59.27a.26.26,0,0,1,.23.28.32.32,0,0,1-.36.36,12.34,12.34,0,0,1-1.49-.29,11.6,11.6,0,0,1-1.51-.42,13.89,13.89,0,0,1-1.66.42,6.14,6.14,0,0,1-1.05.16.31.31,0,0,1-.35-.34c0-.18.09-.27.28-.28a18.34,18.34,0,0,0,1.88-.33,9.16,9.16,0,0,1-1.22-.66.54.54,0,0,1-.15-.28.44.44,0,0,1,.07-.25h-.32c-.18,0-.26-.1-.26-.31s.08-.28.26-.28m.53-3.62v.36h1.83V10.7H116l-.08.12m0,1.44h1.83v-.52h-1.83Zm0,.55V13c0,.21.09.31.27.31h1.56v-.51Zm.23,2.22a9.46,9.46,0,0,0,1.52.79L118,16a9.18,9.18,0,0,0,1.67-.69c.15-.09.22-.15.22-.19s0-.05-.08-.05Z"/><path class="cls-1" d="M123.59,11v.62h6.83c.47,0,.71.28.71.84,0,1.08,0,2.07-.11,3a2.68,2.68,0,0,1-.45,1.54,1.4,1.4,0,0,1-1.06.39,12.12,12.12,0,0,1-1.88-.17.38.38,0,0,1-.27-.34c0-.3.14-.44.4-.44a10.78,10.78,0,0,0,1.71.2.6.6,0,0,0,.59-.33,3.17,3.17,0,0,0,.26-1.18q.06-1,.06-2.34c0-.27-.12-.4-.36-.4h-6.43v.2a12.92,12.92,0,0,1-.25,2.81,7.45,7.45,0,0,1-.46,1.71.35.35,0,0,1-.33.24.36.36,0,0,1-.4-.36,2,2,0,0,1,.13-.41c.06-.17.12-.35.17-.55s.17-.68.24-1a15.33,15.33,0,0,0,.19-2.42V9.07c0-.47.25-.7.75-.7H130c.42,0,.63.18.63.55v1.46c0,.41-.21.61-.63.61Zm4.65-2H124a.32.32,0,0,0-.36.36v.91h6.12c.13,0,.2-.07.2-.22V9.24a.18.18,0,0,0-.2-.21Zm-3.38,4.14h3.5c.41,0,.62.2.62.59v1.4a.55.55,0,0,1-.62.62h-3.5a.56.56,0,0,1-.64-.62v-1.4c0-.39.21-.59.64-.59M128,15.12c.16,0,.25-.09.25-.28v-.76c0-.16-.09-.23-.25-.23h-2.86a.2.2,0,0,0-.23.23v.76c0,.19.08.28.23.28Z"/><path class="cls-2" d="M5.42,20.83h4a9.7,9.7,0,0,1,8.84-1.89s-5.66-3.07-12.8,1.89"/><path class="cls-3" d="M14.19,6.78s2.88,6.43,13.12,9.39H20.4s0,2.81,5.88,5.73c0,0-7.07-1.22-9-6.69h3.33s-5.69-3.7-6.39-8.43"/><path class="cls-4" d="M11,10.59A11.42,11.42,0,0,0,12.3,11.7a6.78,6.78,0,0,0,1.85-3.18S12.74,10.81,11,10.59"/><path class="cls-5" d="M9.78,10s2.56,3.59,5.63,4.29H12.19A5.54,5.54,0,0,1,9.78,10"/><path class="cls-6" d="M9.27,9.55s-2,5-9.06,7.73l6-.89s-.37,2.7-4.51,4.44c0,0,5.47-.45,7-4.81l5.95-.81H6.42A9.83,9.83,0,0,0,9.27,9.55"/><path class="cls-1" d="M30.93,22.07V19.4h1.93v.31H31.29v.82h1.47v.31H31.29v.91h1.64v.32Z"/><path class="cls-1" d="M33.37,22.07V20.13h.3v.28a.69.69,0,0,1,.61-.32.83.83,0,0,1,.32.06.56.56,0,0,1,.22.17.64.64,0,0,1,.1.24,1.29,1.29,0,0,1,0,.32v1.19h-.33V20.89a1.15,1.15,0,0,0,0-.3.43.43,0,0,0-.14-.16.44.44,0,0,0-.23-.06.52.52,0,0,0-.36.14.65.65,0,0,0-.15.5v1.06Z"/><path class="cls-1" d="M36,22.07l-.74-1.94h.35L36,21.29l.12.39.12-.37.43-1.18H37l-.73,1.94Z"/><path class="cls-1" d="M37.31,19.78V19.4h.33v.38Zm0,2.29V20.13h.33v1.94Z"/><path class="cls-1" d="M38.13,22.07V20.13h.3v.3a.71.71,0,0,1,.2-.27.36.36,0,0,1,.22-.07.62.62,0,0,1,.33.11l-.11.3a.44.44,0,0,0-.24-.07.31.31,0,0,0-.19.06.46.46,0,0,0-.13.18,1.58,1.58,0,0,0,0,.38v1Z"/><path class="cls-1" d="M39.25,21.1a1,1,0,0,1,.3-.8.92.92,0,0,1,.61-.21.87.87,0,0,1,.65.26,1,1,0,0,1,.26.72,1.21,1.21,0,0,1-.12.59.78.78,0,0,1-.32.33,1,1,0,0,1-.47.12.9.9,0,0,1-.66-.26A1.06,1.06,0,0,1,39.25,21.1Zm.34,0a.89.89,0,0,0,.16.56.56.56,0,0,0,.82,0,.92.92,0,0,0,.16-.57.83.83,0,0,0-.16-.54.52.52,0,0,0-.41-.19.54.54,0,0,0-.41.18A.89.89,0,0,0,39.59,21.1Z"/><path class="cls-1" d="M41.45,22.07V20.13h.29v.28a.72.72,0,0,1,.62-.32.83.83,0,0,1,.32.06.56.56,0,0,1,.22.17.64.64,0,0,1,.1.24,2.1,2.1,0,0,1,0,.32v1.19h-.33V20.89a.8.8,0,0,0,0-.3.33.33,0,0,0-.13-.16.44.44,0,0,0-.23-.06.52.52,0,0,0-.36.14.65.65,0,0,0-.15.5v1.06Z"/><path class="cls-1" d="M43.52,22.07V20.13h.3v.27a.71.71,0,0,1,.58-.31.63.63,0,0,1,.35.09.5.5,0,0,1,.2.25.68.68,0,0,1,.59-.34.59.59,0,0,1,.45.16.7.7,0,0,1,.15.49v1.33h-.32V20.85a.83.83,0,0,0,0-.28.26.26,0,0,0-.11-.14.34.34,0,0,0-.2-.06.48.48,0,0,0-.34.14.58.58,0,0,0-.13.43v1.13h-.33V20.81a.62.62,0,0,0-.08-.33.3.3,0,0,0-.26-.11.5.5,0,0,0-.26.08.44.44,0,0,0-.17.21,1.35,1.35,0,0,0,0,.4v1Z"/><path class="cls-1" d="M48,21.44l.34,0A.81.81,0,0,1,48,22a.88.88,0,0,1-.55.16.89.89,0,0,1-.67-.26,1,1,0,0,1-.25-.73,1.06,1.06,0,0,1,.25-.76.85.85,0,0,1,.65-.27.83.83,0,0,1,.63.26,1,1,0,0,1,.25.75v.08H46.86a.71.71,0,0,0,.18.49.53.53,0,0,0,.4.17.54.54,0,0,0,.31-.09A.72.72,0,0,0,48,21.44Zm-1.08-.53H48a.59.59,0,0,0-.12-.36.49.49,0,0,0-.41-.19.54.54,0,0,0-.38.15A.67.67,0,0,0,46.87,20.91Z"/><path class="cls-1" d="M48.7,22.07V20.13H49v.28a.72.72,0,0,1,.62-.32.83.83,0,0,1,.32.06.56.56,0,0,1,.22.17.64.64,0,0,1,.1.24,2.1,2.1,0,0,1,0,.32v1.19h-.33V20.89a.8.8,0,0,0,0-.3.33.33,0,0,0-.13-.16.44.44,0,0,0-.23-.06.52.52,0,0,0-.36.14A.65.65,0,0,0,49,21v1.06Z"/><path class="cls-1" d="M51.49,21.77l0,.29-.25,0A.7.7,0,0,1,51,22a.4.4,0,0,1-.14-.15,1.4,1.4,0,0,1,0-.39V20.39h-.24v-.26h.24v-.47l.33-.2v.67h.33v.26h-.33v1.13a.39.39,0,0,0,0,.18.1.1,0,0,0,0,.06.2.2,0,0,0,.11,0Z"/><path class="cls-1" d="M53.07,21.83a1.54,1.54,0,0,1-.35.22,1,1,0,0,1-.36.06.66.66,0,0,1-.49-.16.48.48,0,0,1-.17-.39.55.55,0,0,1,.06-.26.52.52,0,0,1,.17-.19.88.88,0,0,1,.24-.11l.29-.05a3.15,3.15,0,0,0,.58-.11v-.09a.38.38,0,0,0-.09-.28.56.56,0,0,0-.37-.11.58.58,0,0,0-.34.08.51.51,0,0,0-.17.29l-.32,0a.82.82,0,0,1,.15-.34.57.57,0,0,1,.29-.19,1.14,1.14,0,0,1,.43-.07,1.18,1.18,0,0,1,.41.06.56.56,0,0,1,.22.14.55.55,0,0,1,.11.23,2.12,2.12,0,0,1,0,.3v.44a5.62,5.62,0,0,0,0,.57,1,1,0,0,0,.09.24h-.35A.84.84,0,0,1,53.07,21.83Zm0-.73a2.84,2.84,0,0,1-.53.12,1,1,0,0,0-.29.07.27.27,0,0,0-.13.1.29.29,0,0,0,0,.16.27.27,0,0,0,.1.22.46.46,0,0,0,.29.08.62.62,0,0,0,.33-.08.49.49,0,0,0,.22-.23.85.85,0,0,0,0-.32Z"/><path class="cls-1" d="M53.87,22.07V19.4h.33v2.67Z"/><path class="cls-1" d="M55.79,22.07V19.4h1l.41,0a1,1,0,0,1,.33.13.61.61,0,0,1,.21.26.73.73,0,0,1,.08.36.84.84,0,0,1-.21.58,1.1,1.1,0,0,1-.79.23h-.68v1.09Zm.35-1.4h.69a.78.78,0,0,0,.49-.13.52.52,0,0,0,0-.65.34.34,0,0,0-.22-.15,1.21,1.21,0,0,0-.33,0h-.68Z"/><path class="cls-1" d="M58.23,22.07V20.13h.29v.3a.83.83,0,0,1,.21-.27.31.31,0,0,1,.21-.07.68.68,0,0,1,.34.11l-.12.3a.44.44,0,0,0-.24-.07.33.33,0,0,0-.19.06.36.36,0,0,0-.12.18,1.21,1.21,0,0,0-.06.38v1Z"/><path class="cls-1" d="M59.35,21.1a1,1,0,0,1,.3-.8.9.9,0,0,1,.61-.21.89.89,0,0,1,.65.26,1,1,0,0,1,.25.72,1.35,1.35,0,0,1-.11.59.87.87,0,0,1-.33.33.93.93,0,0,1-.46.12.9.9,0,0,1-.66-.26A1,1,0,0,1,59.35,21.1Zm.34,0a.83.83,0,0,0,.16.56.52.52,0,0,0,.41.18.52.52,0,0,0,.4-.18.86.86,0,0,0,.16-.57.77.77,0,0,0-.16-.54.5.5,0,0,0-.4-.19.52.52,0,0,0-.41.18A.83.83,0,0,0,59.69,21.1Z"/><path class="cls-1" d="M62.26,21.77l.05.29-.25,0a.7.7,0,0,1-.28-.05.4.4,0,0,1-.14-.15,1.4,1.4,0,0,1,0-.39V20.39h-.24v-.26h.24v-.47l.33-.2v.67h.33v.26h-.33v1.13a.62.62,0,0,0,0,.18.1.1,0,0,0,0,.06.21.21,0,0,0,.12,0Z"/><path class="cls-1" d="M63.9,21.44l.34,0a.81.81,0,0,1-.3.46.86.86,0,0,1-.55.16.9.9,0,0,1-.67-.26,1,1,0,0,1-.25-.73,1.06,1.06,0,0,1,.25-.76.92.92,0,0,1,1.29,0,1.09,1.09,0,0,1,.24.75v.08H62.81a.71.71,0,0,0,.18.49.54.54,0,0,0,.4.17.52.52,0,0,0,.31-.09A.64.64,0,0,0,63.9,21.44Zm-1.07-.53h1.08a.66.66,0,0,0-.13-.36.48.48,0,0,0-.4-.19.52.52,0,0,0-.38.15A.57.57,0,0,0,62.83,20.91Z"/><path class="cls-1" d="M65.91,21.36l.33,0a.87.87,0,0,1-.27.52.79.79,0,0,1-.54.19.85.85,0,0,1-.64-.26,1,1,0,0,1-.24-.74,1.35,1.35,0,0,1,.11-.55.71.71,0,0,1,.31-.35.93.93,0,0,1,.46-.12.81.81,0,0,1,.52.16.72.72,0,0,1,.25.45l-.31.05a.54.54,0,0,0-.16-.29.42.42,0,0,0-.28-.1.52.52,0,0,0-.41.18,1.12,1.12,0,0,0,0,1.12.48.48,0,0,0,.39.18.45.45,0,0,0,.32-.12A.55.55,0,0,0,65.91,21.36Z"/><path class="cls-1" d="M67.23,21.77l0,.29-.25,0a.7.7,0,0,1-.28-.05.31.31,0,0,1-.13-.15,1.09,1.09,0,0,1,0-.39V20.39h-.24v-.26h.24v-.47l.32-.2v.67h.33v.26H66.9v1.13a.62.62,0,0,0,0,.18.09.09,0,0,0,.06.06.16.16,0,0,0,.11,0Z"/><path class="cls-1" d="M67.55,19.78V19.4h.33v.38Zm0,2.29V20.13h.33v1.94Z"/><path class="cls-1" d="M68.26,21.1a1,1,0,0,1,.3-.8.88.88,0,0,1,.6-.21.9.9,0,0,1,.66.26,1,1,0,0,1,.25.72,1.35,1.35,0,0,1-.11.59.87.87,0,0,1-.33.33.94.94,0,0,1-.47.12.86.86,0,0,1-.65-.26A1,1,0,0,1,68.26,21.1Zm.33,0a.83.83,0,0,0,.17.56.5.5,0,0,0,.4.18.52.52,0,0,0,.41-.18.86.86,0,0,0,.16-.57.77.77,0,0,0-.16-.54.54.54,0,0,0-.81,0A.83.83,0,0,0,68.59,21.1Z"/><path class="cls-1" d="M70.45,22.07V20.13h.3v.28a.69.69,0,0,1,.61-.32.79.79,0,0,1,.32.06.56.56,0,0,1,.22.17.66.66,0,0,1,.11.24,2.55,2.55,0,0,1,0,.32v1.19H71.7V20.89a1.08,1.08,0,0,0,0-.3.36.36,0,0,0-.14-.16.41.41,0,0,0-.23-.06.52.52,0,0,0-.36.14.65.65,0,0,0-.15.5v1.06Z"/><path class="cls-1" d="M73.59,22.07V19.4h1a1.32,1.32,0,0,1,.49.08.65.65,0,0,1,.39.6.59.59,0,0,1-.09.32.69.69,0,0,1-.28.25.65.65,0,0,1,.37.24.62.62,0,0,1,.13.4.69.69,0,0,1-.08.35.62.62,0,0,1-.19.25A.86.86,0,0,1,75,22a1.75,1.75,0,0,1-.43.05Zm.35-1.55h.58a1.35,1.35,0,0,0,.34,0,.41.41,0,0,0,.2-.13.45.45,0,0,0,.07-.24.45.45,0,0,0-.07-.23.32.32,0,0,0-.18-.14,1.72,1.72,0,0,0-.41,0h-.53Zm0,1.23h.91a.77.77,0,0,0,.2-.07.47.47,0,0,0,.13-.15.44.44,0,0,0,.06-.23.47.47,0,0,0-.08-.26.41.41,0,0,0-.21-.15,1.27,1.27,0,0,0-.39-.05h-.62Z"/><path class="cls-1" d="M77.31,22.07v-.29a.7.7,0,0,1-.61.33.71.71,0,0,1-.32-.07.47.47,0,0,1-.22-.16.64.64,0,0,1-.1-.24,2.16,2.16,0,0,1,0-.31v-1.2h.33v1.08a1.39,1.39,0,0,0,0,.34.29.29,0,0,0,.13.2.41.41,0,0,0,.25.08.53.53,0,0,0,.27-.08.46.46,0,0,0,.19-.2,1.25,1.25,0,0,0,0-.38v-1h.33v1.94Z"/><path class="cls-1" d="M78.12,22.07V20.13h.29v.3a.83.83,0,0,1,.21-.27.31.31,0,0,1,.21-.07.68.68,0,0,1,.34.11l-.12.3a.44.44,0,0,0-.24-.07.33.33,0,0,0-.19.06.36.36,0,0,0-.12.18,1.21,1.21,0,0,0-.06.38v1Z"/><path class="cls-1" d="M80.68,21.44l.34,0a.85.85,0,0,1-.29.46,1,1,0,0,1-1.23-.1,1,1,0,0,1-.25-.73,1.1,1.1,0,0,1,.25-.76.92.92,0,0,1,1.29,0,1.09,1.09,0,0,1,.24.75v.08H79.59a.71.71,0,0,0,.18.49.54.54,0,0,0,.4.17.52.52,0,0,0,.31-.09A.64.64,0,0,0,80.68,21.44Zm-1.07-.53h1.08a.66.66,0,0,0-.13-.36.48.48,0,0,0-.4-.19.52.52,0,0,0-.38.15A.61.61,0,0,0,79.61,20.91Z"/><path class="cls-1" d="M82.7,21.83a1.59,1.59,0,0,1-.36.22,1,1,0,0,1-.36.06.69.69,0,0,1-.49-.16.51.51,0,0,1-.17-.39.46.46,0,0,1,.07-.26.52.52,0,0,1,.17-.19,1,1,0,0,1,.23-.11l.29-.05a3.29,3.29,0,0,0,.59-.11v-.09a.38.38,0,0,0-.09-.28.59.59,0,0,0-.38-.11.63.63,0,0,0-.34.08.5.5,0,0,0-.16.29l-.32,0a1,1,0,0,1,.14-.34.67.67,0,0,1,.29-.19,1.2,1.2,0,0,1,.44-.07,1.09,1.09,0,0,1,.4.06.61.61,0,0,1,.23.14.54.54,0,0,1,.1.23,1.7,1.7,0,0,1,0,.3v.44a5.62,5.62,0,0,0,0,.57.68.68,0,0,0,.08.24h-.34A.84.84,0,0,1,82.7,21.83Zm0-.73a2.79,2.79,0,0,1-.54.12.92.92,0,0,0-.28.07.27.27,0,0,0-.13.1.29.29,0,0,0,0,.38.48.48,0,0,0,.29.08.63.63,0,0,0,.34-.08.49.49,0,0,0,.22-.23.85.85,0,0,0,0-.32Z"/><path class="cls-1" d="M84.77,22.07v-.29a.7.7,0,0,1-.61.33.71.71,0,0,1-.32-.07.47.47,0,0,1-.22-.16.64.64,0,0,1-.1-.24,2.16,2.16,0,0,1,0-.31v-1.2h.33v1.08a1.39,1.39,0,0,0,0,.34.29.29,0,0,0,.13.2.39.39,0,0,0,.25.08.53.53,0,0,0,.27-.08.38.38,0,0,0,.18-.2,1,1,0,0,0,.06-.38v-1h.33v1.94Z"/><path class="cls-1" d="M85.67,22.07v-.38H86v.38a.81.81,0,0,1-.07.33.47.47,0,0,1-.24.19l-.09-.14a.34.34,0,0,0,.16-.13.55.55,0,0,0,0-.25Z"/><path class="cls-1" d="M88.3,22.07V19.71h-.88V19.4h2.12v.31h-.88v2.36Z"/><path class="cls-1" d="M90.71,21.83a1.54,1.54,0,0,1-.35.22,1.09,1.09,0,0,1-.36.06.66.66,0,0,1-.49-.16.48.48,0,0,1-.17-.39.55.55,0,0,1,.06-.26.52.52,0,0,1,.17-.19.88.88,0,0,1,.24-.11L90.1,21a3.15,3.15,0,0,0,.58-.11v-.09a.38.38,0,0,0-.09-.28.56.56,0,0,0-.37-.11.58.58,0,0,0-.34.08.51.51,0,0,0-.17.29l-.32,0a.82.82,0,0,1,.15-.34.57.57,0,0,1,.29-.19,1.14,1.14,0,0,1,.43-.07,1.18,1.18,0,0,1,.41.06.64.64,0,0,1,.22.14.55.55,0,0,1,.11.23,2.12,2.12,0,0,1,0,.3v.44a5.62,5.62,0,0,0,0,.57.7.7,0,0,0,.09.24h-.35A.84.84,0,0,1,90.71,21.83Zm0-.73a2.84,2.84,0,0,1-.53.12,1,1,0,0,0-.29.07.27.27,0,0,0-.13.1.29.29,0,0,0,0,.38.5.5,0,0,0,.29.08.63.63,0,0,0,.34-.08.49.49,0,0,0,.22-.23.85.85,0,0,0,.05-.32Z"/><path class="cls-1" d="M91.52,19.78V19.4h.33v.38Zm0,2.29V20.13h.33v1.94Z"/><path class="cls-1" d="M93.61,21.36l.32,0a.78.78,0,0,1-.27.52.75.75,0,0,1-.53.19.84.84,0,0,1-.64-.26,1,1,0,0,1-.24-.74,1.35,1.35,0,0,1,.1-.55.73.73,0,0,1,.32-.35.9.9,0,0,1,.46-.12.76.76,0,0,1,.51.16.73.73,0,0,1,.26.45l-.32.05a.48.48,0,0,0-.16-.29.4.4,0,0,0-.28-.1.5.5,0,0,0-.4.18,1.09,1.09,0,0,0,0,1.12.48.48,0,0,0,.39.18.44.44,0,0,0,.32-.12A.56.56,0,0,0,93.61,21.36Z"/><path class="cls-1" d="M94.21,22.07V19.4h.33v1a.72.72,0,0,1,.58-.27.87.87,0,0,1,.37.08.53.53,0,0,1,.23.24,1.16,1.16,0,0,1,.07.43v1.23h-.33V20.84a.53.53,0,0,0-.11-.36.41.41,0,0,0-.3-.11.5.5,0,0,0-.27.08.46.46,0,0,0-.19.2,1.15,1.15,0,0,0,0,.36v1.06Z"/><path class="cls-1" d="M97.55,22.07v-.29a.7.7,0,0,1-.61.33.68.68,0,0,1-.32-.07.47.47,0,0,1-.22-.16.64.64,0,0,1-.1-.24,1.28,1.28,0,0,1,0-.31v-1.2h.32v1.08a2.22,2.22,0,0,0,0,.34.33.33,0,0,0,.14.2.36.36,0,0,0,.24.08.57.57,0,0,0,.28-.08.38.38,0,0,0,.18-.2,1,1,0,0,0,.06-.38v-1h.32v1.94Z"/><path class="cls-1" d="M98.36,22.07V20.13h.29v.28a.7.7,0,0,1,.62-.32.87.87,0,0,1,.32.06.56.56,0,0,1,.22.17.64.64,0,0,1,.1.24,2.1,2.1,0,0,1,0,.32v1.19H99.6V20.89a.8.8,0,0,0,0-.3.33.33,0,0,0-.13-.16.46.46,0,0,0-.23-.06.52.52,0,0,0-.36.14.61.61,0,0,0-.16.5v1.06Z"/><path class="cls-1" d="M100.37,22.23l.32,0a.31.31,0,0,0,.11.22.54.54,0,0,0,.33.09.58.58,0,0,0,.35-.09.43.43,0,0,0,.17-.26,1.45,1.45,0,0,0,0-.42.67.67,0,0,1-.53.26.74.74,0,0,1-.62-.29,1.14,1.14,0,0,1-.22-.69,1.36,1.36,0,0,1,.1-.51.77.77,0,0,1,.3-.36.72.72,0,0,1,.44-.13.69.69,0,0,1,.57.28v-.24h.3V21.8a1.57,1.57,0,0,1-.09.64.67.67,0,0,1-.3.3,1,1,0,0,1-.49.11.86.86,0,0,1-.55-.16A.5.5,0,0,1,100.37,22.23Zm.27-1.16a.84.84,0,0,0,.15.55.49.49,0,0,0,.76,0,.81.81,0,0,0,.15-.54.77.77,0,0,0-.16-.54.47.47,0,0,0-.37-.18.49.49,0,0,0-.38.18A.8.8,0,0,0,100.64,21.07Z"/><path class="cls-1" d="M105.48,21.13l.36.09a1.22,1.22,0,0,1-.4.66,1.08,1.08,0,0,1-.71.23,1.34,1.34,0,0,1-.7-.17,1.1,1.1,0,0,1-.41-.51,1.89,1.89,0,0,1-.14-.72,1.47,1.47,0,0,1,.16-.72,1,1,0,0,1,.45-.48,1.42,1.42,0,0,1,.65-.16,1.07,1.07,0,0,1,.67.21,1,1,0,0,1,.38.57l-.35.08a.81.81,0,0,0-.27-.42.68.68,0,0,0-.44-.13.83.83,0,0,0-.51.14.74.74,0,0,0-.29.4,1.44,1.44,0,0,0-.09.51,1.84,1.84,0,0,0,.1.6.76.76,0,0,0,.31.37.81.81,0,0,0,.45.13.8.8,0,0,0,.51-.17A.87.87,0,0,0,105.48,21.13Z"/><path class="cls-1" d="M106.23,19.78V19.4h.33v.38Zm0,2.29V20.13h.33v1.94Z"/><path class="cls-1" d="M107.77,21.77l0,.29-.25,0a.62.62,0,0,1-.27-.05.33.33,0,0,1-.14-.15,1.09,1.09,0,0,1,0-.39V20.39h-.24v-.26h.24v-.47l.32-.2v.67h.33v.26h-.33v1.13a.62.62,0,0,0,0,.18.09.09,0,0,0,.06.06.16.16,0,0,0,.11,0Z"/><path class="cls-1" d="M108.08,22.81l0-.31.19,0a.4.4,0,0,0,.17,0,.29.29,0,0,0,.11-.11,1,1,0,0,0,.1-.24.34.34,0,0,0,0-.08l-.73-1.94h.35l.4,1.12c0,.14.1.29.14.45,0-.15.09-.3.14-.44l.41-1.13h.33l-.74,2c-.08.21-.14.36-.18.44a.82.82,0,0,1-.2.24.5.5,0,0,1-.27.07A.59.59,0,0,1,108.08,22.81Z"/><path class="cls-1" d="M112.28,21v-.31h1.13v1a2.22,2.22,0,0,1-.53.31,1.63,1.63,0,0,1-.57.1,1.47,1.47,0,0,1-.72-.17,1.11,1.11,0,0,1-.48-.48,1.54,1.54,0,0,1-.16-.71,1.63,1.63,0,0,1,.16-.73,1,1,0,0,1,.47-.5,1.45,1.45,0,0,1,.7-.17,1.24,1.24,0,0,1,.52.1.85.85,0,0,1,.37.26,1.07,1.07,0,0,1,.2.43l-.32.09a1.06,1.06,0,0,0-.14-.32.55.55,0,0,0-.26-.18.87.87,0,0,0-.37-.07,1.09,1.09,0,0,0-.42.07.82.82,0,0,0-.28.19,1,1,0,0,0-.17.27,1.32,1.32,0,0,0-.1.53,1.34,1.34,0,0,0,.12.6.78.78,0,0,0,.36.36,1.22,1.22,0,0,0,.5.11,1.42,1.42,0,0,0,.45-.08,1.6,1.6,0,0,0,.33-.19V21Z"/><path class="cls-1" d="M113.77,21.1a1,1,0,0,1,.3-.8.9.9,0,0,1,.61-.21.89.89,0,0,1,.65.26,1,1,0,0,1,.25.72,1.35,1.35,0,0,1-.11.59.87.87,0,0,1-.33.33.93.93,0,0,1-.46.12.9.9,0,0,1-.66-.26A1,1,0,0,1,113.77,21.1Zm.34,0a.83.83,0,0,0,.16.56.52.52,0,0,0,.41.18.52.52,0,0,0,.4-.18.86.86,0,0,0,.16-.57.77.77,0,0,0-.16-.54.5.5,0,0,0-.4-.19.52.52,0,0,0-.41.18A.83.83,0,0,0,114.11,21.1Z"/><path class="cls-1" d="M116.5,22.07l-.73-1.94h.34l.42,1.16.12.39.12-.37.43-1.18h.34l-.73,1.94Z"/><path class="cls-1" d="M119.15,21.44l.34,0a.81.81,0,0,1-.3.46.88.88,0,0,1-.55.16.89.89,0,0,1-.67-.26,1,1,0,0,1-.25-.73,1.06,1.06,0,0,1,.25-.76.85.85,0,0,1,.65-.27.87.87,0,0,1,.64.26,1.09,1.09,0,0,1,.24.75v.08h-1.44a.71.71,0,0,0,.18.49.54.54,0,0,0,.4.17.54.54,0,0,0,.31-.09A.72.72,0,0,0,119.15,21.44Zm-1.07-.53h1.07a.59.59,0,0,0-.12-.36.48.48,0,0,0-.4-.19.5.5,0,0,0-.38.15A.57.57,0,0,0,118.08,20.91Z"/><path class="cls-1" d="M119.9,22.07V20.13h.29v.3a.83.83,0,0,1,.21-.27.31.31,0,0,1,.21-.07.68.68,0,0,1,.34.11l-.12.3a.44.44,0,0,0-.24-.07.33.33,0,0,0-.19.06.36.36,0,0,0-.12.18,1.21,1.21,0,0,0-.06.38v1Z"/><path class="cls-1" d="M121.14,22.07V20.13h.3v.28a.69.69,0,0,1,.61-.32.79.79,0,0,1,.32.06.56.56,0,0,1,.22.17.64.64,0,0,1,.1.24,1.29,1.29,0,0,1,0,.32v1.19h-.33V20.89a1.15,1.15,0,0,0,0-.3.36.36,0,0,0-.14-.16.41.41,0,0,0-.23-.06.52.52,0,0,0-.36.14.65.65,0,0,0-.15.5v1.06Z"/><path class="cls-1" d="M123.22,22.07V20.13h.29v.27a.64.64,0,0,1,.24-.22.73.73,0,0,1,.7,0,.48.48,0,0,1,.19.25.68.68,0,0,1,.6-.34.57.57,0,0,1,.44.16.7.7,0,0,1,.15.49v1.33h-.32V20.85a.9.9,0,0,0,0-.28.28.28,0,0,0-.12-.14.34.34,0,0,0-.2-.06.45.45,0,0,0-.33.14.58.58,0,0,0-.14.43v1.13h-.33V20.81a.54.54,0,0,0-.08-.33.3.3,0,0,0-.26-.11.44.44,0,0,0-.25.08.39.39,0,0,0-.17.21,1.05,1.05,0,0,0-.06.4v1Z"/><path class="cls-1" d="M127.64,21.44l.34,0a.81.81,0,0,1-.3.46.86.86,0,0,1-.55.16.89.89,0,0,1-.67-.26,1,1,0,0,1-.25-.73,1.06,1.06,0,0,1,.25-.76.92.92,0,0,1,1.29,0,1.09,1.09,0,0,1,.24.75v.08h-1.44a.71.71,0,0,0,.18.49.54.54,0,0,0,.4.17.52.52,0,0,0,.31-.09A.64.64,0,0,0,127.64,21.44Zm-1.07-.53h1.08a.66.66,0,0,0-.13-.36.48.48,0,0,0-.4-.19.52.52,0,0,0-.38.15A.57.57,0,0,0,126.57,20.91Z"/><path class="cls-1" d="M128.39,22.07V20.13h.3v.28a.69.69,0,0,1,.61-.32.79.79,0,0,1,.32.06.56.56,0,0,1,.22.17.51.51,0,0,1,.1.24,1.29,1.29,0,0,1,0,.32v1.19h-.32V20.89a1.08,1.08,0,0,0,0-.3.36.36,0,0,0-.14-.16.41.41,0,0,0-.23-.06.52.52,0,0,0-.36.14.65.65,0,0,0-.15.5v1.06Z"/><path class="cls-1" d="M131.18,21.77l0,.29-.25,0a.7.7,0,0,1-.28-.05.31.31,0,0,1-.13-.15,1.09,1.09,0,0,1,0-.39V20.39h-.24v-.26h.24v-.47l.32-.2v.67h.33v.26h-.33v1.13a.62.62,0,0,0,0,.18.09.09,0,0,0,.06.06.16.16,0,0,0,.11,0Z"/></svg>