<svg xmlns="http://www.w3.org/2000/svg" xmlns:xlink="http://www.w3.org/1999/xlink" width="99.141" height="30" viewBox="0 0 99.141 30">
  <defs>
    <linearGradient id="linear-gradient" x1="1.028" y1="0.923" x2="0.143" y2="-0.005" gradientUnits="objectBoundingBox">
      <stop offset="0.16" stop-color="#84a61e"/>
      <stop offset="0.313" stop-color="#aec671"/>
      <stop offset="0.452" stop-color="#d2e2b8"/>
      <stop offset="0.517" stop-color="#e0edd4"/>
      <stop offset="0.668" stop-color="#84bdb7"/>
      <stop offset="0.859" stop-color="#0d7f93"/>
    </linearGradient>
  </defs>
  <g id="Group_5153" data-name="Group 5153" transform="translate(-766.921 -472.122)">
    <g id="Group_5144" data-name="Group 5144" transform="translate(766.921 479.188)">
      <g id="Group_5143" data-name="Group 5143">
        <path id="Path_19563" data-name="Path 19563" d="M780.942,487.795a7.245,7.245,0,0,1-2.51,2.562,6.759,6.759,0,0,1-3.442.84,7.615,7.615,0,0,1-4.585-1.307,4.961,4.961,0,0,1-2.053-4.272,6.63,6.63,0,0,1,4.293-6.265l.166.312a4.521,4.521,0,0,0-1.949,1.845,5.479,5.479,0,0,0-.768,2.863,5.146,5.146,0,0,0,1.742,4.024,5.877,5.877,0,0,0,4.086,1.473,5.808,5.808,0,0,0,1.048-.094,6.429,6.429,0,0,0,1.068-.3v-9.769a11.127,11.127,0,0,1-1.142-.04,5.887,5.887,0,0,1-.808-.166l-.746.477v6.492a2.183,2.183,0,0,1-.551,1.535,2.644,2.644,0,0,1-1.482.788l-.124-.311a.846.846,0,0,0,.413-.706v-6.534l-1.514,1.037-.228-.373,3.734-2.552q-.458-.08-2.738-.651a10.455,10.455,0,0,0-2.219-.366,3.875,3.875,0,0,0-2.863,1,1.765,1.765,0,0,0-.477,1.307,1.6,1.6,0,0,0,.2.83.84.84,0,0,0,.654.393l-.124.415a1.076,1.076,0,0,1-.778-.47,1.648,1.648,0,0,1-.321-1.015,3.265,3.265,0,0,1,1.827-2.842,6.391,6.391,0,0,1,3.366-.941,14.384,14.384,0,0,1,2.6.291,35.432,35.432,0,0,0,4.342.664,2.924,2.924,0,0,0,1.028-.166,1.162,1.162,0,0,0,.613-.435l.269.145a3.59,3.59,0,0,1-.938,1.359,3.872,3.872,0,0,1-1.612.84v9.645a5.087,5.087,0,0,0,1.285-.746,6.632,6.632,0,0,0,1-1.058Z" transform="translate(-766.921 -477.009)" fill="#40402b"/>
        <path id="Path_19564" data-name="Path 19564" d="M784.641,487.426l-1.8,1.3-.213.032-.62-.577a1.685,1.685,0,0,1-.367-1.233l-2.912,1.81H778.4a2.854,2.854,0,0,1-1.042-.613,1.6,1.6,0,0,1-.551-1.164,2.054,2.054,0,0,1,.785-1.521,7.134,7.134,0,0,1,1.944-1.145L777.9,482.7a2.042,2.042,0,0,1-.3-.373.707.707,0,0,1-.108-.374.773.773,0,0,1,.236-.57.851.851,0,0,1,.63-.237.955.955,0,0,1,.6.205.646.646,0,0,1,.265.536.791.791,0,0,1-.314.643v.032a3.712,3.712,0,0,0,1.654-.457,4.294,4.294,0,0,0,1.34-.96h.315a2.005,2.005,0,0,0,.562.739,1.154,1.154,0,0,0,.719.324.943.943,0,0,0,.374-.137,4.806,4.806,0,0,0,.573-.375l.176.269L783.137,483v3.817l.837.708.471-.315Zm-3-.914v-3.437l-.868-.668a4.215,4.215,0,0,1-.984.412,3.847,3.847,0,0,1-1.083.182l2.049,2-.254.273-.707-.729-.573.3a1.854,1.854,0,0,0-.708.583,1.311,1.311,0,0,0-.215.74,1.183,1.183,0,0,0,.444.946,2.815,2.815,0,0,0,1.076.554Z" transform="translate(-762.516 -475.164)" fill="#40402b"/>
        <path id="Path_19565" data-name="Path 19565" d="M797.9,483.2l-1.278.865v4.052a.611.611,0,0,1,.344.1.282.282,0,0,1,.147.236c0,.145-.163.217-.492.217a8.059,8.059,0,0,0-2.351.35,3.356,3.356,0,0,0-1.622.909h-.335l-1.2-1.4-1.436.758q-.393.219-.8.429a1.552,1.552,0,0,1-.561.21c-.131,0-.363-.2-.7-.59a1.358,1.358,0,0,0-.973-.591.705.705,0,0,0-.286.08,2.56,2.56,0,0,0-.5.373l-.254-.215,1.18-.944v-3.758a2.7,2.7,0,0,1-.58-.778,2.173,2.173,0,0,1-.207-.973,3.478,3.478,0,0,1,1.593-2.715,5.9,5.9,0,0,1,2.951-1.3v.354a4.345,4.345,0,0,0-2.046.964,2.6,2.6,0,0,0-1,2.026,2.793,2.793,0,0,0,.2,1.083,3.134,3.134,0,0,0,.59.905l2.923-1.535h.273q.974.826.973,1.239v.3l2.813-1.535h.334q.434.434.729.708c.275.236.453.354.531.354a.854.854,0,0,0,.374-.158,2.156,2.156,0,0,0,.412-.315Zm-6.944,4.976v-3.974l-1-.766-1.671.766v3.5l1.495,1.1Zm4.171.256v-4.288l-1.081-.729-1.595.846V487.2a1.371,1.371,0,0,0,.61,1.042c.132.1.406.288.827.551Z" transform="translate(-758.591 -476.335)" fill="#40402b"/>
        <path id="Path_19566" data-name="Path 19566" d="M802.07,487.426l-1.8,1.3-.213.032-.62-.577a1.679,1.679,0,0,1-.367-1.233l-2.912,1.81h-.334a2.855,2.855,0,0,1-1.042-.613,1.591,1.591,0,0,1-.551-1.164,2.054,2.054,0,0,1,.785-1.521,7.134,7.134,0,0,1,1.944-1.145l-1.629-1.616a2.118,2.118,0,0,1-.305-.373.719.719,0,0,1-.107-.374.773.773,0,0,1,.236-.57.85.85,0,0,1,.629-.237.949.949,0,0,1,.6.205.643.643,0,0,1,.266.536.8.8,0,0,1-.314.643v.032a3.716,3.716,0,0,0,1.654-.457,4.291,4.291,0,0,0,1.34-.96h.315a1.991,1.991,0,0,0,.563.739,1.154,1.154,0,0,0,.719.324.943.943,0,0,0,.375-.137,4.806,4.806,0,0,0,.573-.375l.176.269L800.566,483v3.817l.837.708.471-.315Zm-3-.914v-3.437l-.869-.668a4.177,4.177,0,0,1-.983.412,3.845,3.845,0,0,1-1.083.182l2.047,2-.253.273-.708-.729-.571.3a1.855,1.855,0,0,0-.708.583,1.3,1.3,0,0,0-.215.74,1.183,1.183,0,0,0,.444.946,2.815,2.815,0,0,0,1.076.554Z" transform="translate(-754.746 -475.164)" fill="#40402b"/>
        <path id="Path_19567" data-name="Path 19567" d="M808.879,487.507l-1.71,1.255h-.295a4.152,4.152,0,0,1-.747-.671,1.5,1.5,0,0,1-.3-.928v-4.1l-.866-.711-2.2,1.695v2.851l.866.551.51-.315.237.24-1.908,1.394h-.276q-.826-.885-1.258-.886a.862.862,0,0,0-.483.149,1.325,1.325,0,0,0-.383.383l-.315-.256,1.515-1.1v-3.934l-.826-.768-.473.393-.295-.275,1.81-1.319h.373l.688.768a3.188,3.188,0,0,1,.217,1.593l3.305-2.361h.334a3.279,3.279,0,0,0,.62.68,1.1,1.1,0,0,0,.619.324.932.932,0,0,0,.453-.148,2.713,2.713,0,0,0,.473-.344l.236.295-1.475,1.024v3.148a1.343,1.343,0,0,0,.885,1.337l.453-.295Z" transform="translate(-752.32 -475.164)" fill="#40402b"/>
        <path id="Path_19568" data-name="Path 19568" d="M822.736,477.564a3.24,3.24,0,0,1-.993,1.245,2.527,2.527,0,0,1-1.486.408v11.763h-.334a9.816,9.816,0,0,1-1.692-1.927q-.69-.985-1.712-2.754a6.478,6.478,0,0,0-1.278-.393,7.032,7.032,0,0,0-1.436-.158,7.588,7.588,0,0,0-.954.059,9.012,9.012,0,0,0-.9.158v2.773a3.675,3.675,0,0,1,1.131.158,5.343,5.343,0,0,1,1.092.531l1.554-1.061.256.256-3.01,2.065h-.629a3.675,3.675,0,0,0-2.224-.688,3.266,3.266,0,0,0-1.976.626,1.928,1.928,0,0,0-.856,1.625,1.709,1.709,0,0,0,.61,1.459,2.754,2.754,0,0,0,1.692.46,4.755,4.755,0,0,0,.737-.053q.345-.052.758-.143l.137.324c-.406.088-.7.147-.865.181a4.263,4.263,0,0,1-.708.046,3,3,0,0,1-2.144-.646,2.024,2.024,0,0,1-.571-1.53,3.123,3.123,0,0,1,1.593-2.705,5.482,5.482,0,0,1,3.069-.9V484.8a2.7,2.7,0,0,0-1.141-.255q-1.28,0-1.28.885h-.354a3.054,3.054,0,0,1,.453-1.718,1.706,1.706,0,0,1,1.495-.781h.827v-3.5a3.591,3.591,0,0,0-.954-.554,3.083,3.083,0,0,0-1.171-.237,2.169,2.169,0,0,0-1.032.217,3.955,3.955,0,0,0-.915.747l-.254-.1a3.363,3.363,0,0,1,1.141-1.554,3.181,3.181,0,0,1,2.007-.727,4.6,4.6,0,0,1,3.147,1.612,11.251,11.251,0,0,1,.953,1.151q.581.779,1.171,1.642a4.351,4.351,0,0,0,2.046.473,4.172,4.172,0,0,0,2.164-.476v-2.416a2.543,2.543,0,0,1-.708-.1,2.931,2.931,0,0,1-.669-.291l-1.358.963-.236-.295,3.049-2.261h.354c.119.38.471.57,1.063.57a1.591,1.591,0,0,0,.688-.169,2.955,2.955,0,0,0,.412-.243Zm-6.551,8.2q-1.2-2.026-1.317-2.2-.709-1.16-1.319-1.987a17.775,17.775,0,0,0-1.593-1.908v5.9a11.053,11.053,0,0,1,2.046-.178,6.241,6.241,0,0,1,1.082.088A8.569,8.569,0,0,1,816.185,485.767Zm3.719-3.739a4.416,4.416,0,0,1-1.968.434,6.332,6.332,0,0,1-1.131-.08,4.808,4.808,0,0,1-.915-.275l-.039.039q.668,1.082,1.317,2.125t1.3,2.046q.748,1.16,1.4,2.163Z" transform="translate(-749.081 -476.91)" fill="#40402b"/>
        <path id="Path_19569" data-name="Path 19569" d="M823.889,483.765l-4.108,2.026v.985l1.917.846,1.8-.866.319.278-3.538,1.729h-.364a5.037,5.037,0,0,0-2.008-1.083,1.052,1.052,0,0,0-.366.079c-.136.052-.3.124-.5.217l-.319-.217,1.323-.669V482.9q-.547-.2-.547-.57a7.376,7.376,0,0,0,2.214-.374,7.591,7.591,0,0,0,1.848-.807h.251l2.076,2.322Zm-1.506.309-1.817-2.066-.784.257v3.117Z" transform="translate(-744.719 -475.164)" fill="#40402b"/>
        <path id="Path_19570" data-name="Path 19570" d="M833.992,483.2l-1.28.865v4.052a.613.613,0,0,1,.346.1.282.282,0,0,1,.147.236c0,.145-.165.217-.493.217a8.059,8.059,0,0,0-2.351.35,3.371,3.371,0,0,0-1.622.909h-.334l-1.2-1.4-1.436.758q-.395.219-.8.429a1.562,1.562,0,0,1-.561.21q-.2,0-.7-.59a1.36,1.36,0,0,0-.974-.591.706.706,0,0,0-.285.08,2.517,2.517,0,0,0-.5.373l-.256-.215,1.181-.944v-3.758a2.684,2.684,0,0,1-.581-.778,2.194,2.194,0,0,1-.207-.973,3.481,3.481,0,0,1,1.593-2.715,5.906,5.906,0,0,1,2.951-1.3v.354a4.351,4.351,0,0,0-2.046.964,2.608,2.608,0,0,0-1,2.026,2.8,2.8,0,0,0,.2,1.083,3.136,3.136,0,0,0,.59.905l2.922-1.535h.273q.974.826.974,1.239v.3l2.813-1.535h.334q.431.434.727.708c.276.236.453.354.532.354a.857.857,0,0,0,.373-.158,2.218,2.218,0,0,0,.414-.315Zm-6.944,4.976v-3.974l-1-.766-1.671.766v3.5l1.495,1.1Zm4.171.256v-4.288l-1.083-.729-1.593.846V487.2a1.371,1.371,0,0,0,.61,1.042c.13.1.406.288.825.551Z" transform="translate(-742.502 -476.335)" fill="#40402b"/>
        <path id="Path_19571" data-name="Path 19571" d="M837.755,484.394a.31.31,0,0,1-.137.217.714.714,0,0,1-.315.158v2.183c.276.106.414.249.414.432,0,.08-.065.119-.2.119a4.769,4.769,0,0,0-1.849.36,3.355,3.355,0,0,0-1.317.9h-.315a6.077,6.077,0,0,0-.944-.467,2.711,2.711,0,0,0-.983-.182,1.718,1.718,0,0,0-.708.158,3.851,3.851,0,0,0-.708.412l-.275-.176,2.9-3.088h-2.507a.382.382,0,0,1-.2-.059.177.177,0,0,1-.119-.158c0-.078.059-.163.176-.256a1.133,1.133,0,0,1,.393-.2V482.86a2.21,2.21,0,0,0-.3-.227c-.152-.1-.227-.174-.227-.226,0-.132.171-.2.512-.2a3.965,3.965,0,0,0,1.465-.266,7.154,7.154,0,0,0,1.447-.8h.275a5.708,5.708,0,0,0,.826.393,1.952,1.952,0,0,0,1.446,0,4.527,4.527,0,0,0,.778-.393l.236.178-2.692,2.892H837.5C837.671,484.217,837.755,484.277,837.755,484.394Zm-1.946,3.168v-2.48h-1.752l-2.341,2.539.052.032a4.563,4.563,0,0,1,1-.483,3.284,3.284,0,0,1,1.045-.179,2.964,2.964,0,0,1,.946.152,2.113,2.113,0,0,1,.749.419Zm.451-5.409v-.04a4.467,4.467,0,0,1-2.026.688,1.469,1.469,0,0,1-.688-.136,2.8,2.8,0,0,1-.649-.552l-.335.16v2.18h1.619Z" transform="translate(-738.614 -475.164)" fill="#40402b"/>
      </g>
    </g>
    <g id="Group_5145" data-name="Group 5145" transform="translate(789.052 484.358)">
      <path id="Path_19572" data-name="Path 19572" d="M786.626,481.066s-.241-.08-.257-.176-.192-.369-.434-.048-.192.24-.434.272a1.414,1.414,0,0,0-.646.348,3.562,3.562,0,0,0-.324.752c-.017.114-.282.168-.33.217s-.129.321-.176.369a5.347,5.347,0,0,0-.428.588c-.113.2-.327.568-.343.632a9.01,9.01,0,0,1-.409.827,1.962,1.962,0,0,0-.21.786,1.786,1.786,0,0,1-.231.771c-.162.176.272.409.288.489a6.662,6.662,0,0,1,.225.667c0,.113.016.418.208.5s.081.009.321.233a2,2,0,0,1,.45.515c.032.1.176.337.145.481a.615.615,0,0,0-.032.273c.016.079-.049.1.1.1s.161-.016.21.065-.017.032.111-.16.065-.386.113-.739a2.287,2.287,0,0,1,.386-1.107,2.2,2.2,0,0,0,.593-.675,13.854,13.854,0,0,0,.626-1.91,5.968,5.968,0,0,1,.241-1.188,2.139,2.139,0,0,1,.273-.5c.039-.432.393-.771.208-1.06a.566.566,0,0,1,.224-.81c.282-.1-.1-.227-.023-.434C787.1,481.049,786.626,481.066,786.626,481.066Z" transform="translate(-782.166 -480.538)" fill="#40402b"/>
      <path id="Path_19573" data-name="Path 19573" d="M786.486,480.962s-.24-.081-.257-.178-.192-.369-.432-.048-.194.241-.434.273a1.4,1.4,0,0,0-.648.347,3.672,3.672,0,0,0-.324.752c-.017.116-.28.169-.33.217s-.127.321-.176.37a5.067,5.067,0,0,0-.428.588c-.113.2-.327.567-.343.63a8.781,8.781,0,0,1-.409.827,1.975,1.975,0,0,0-.208.786,1.766,1.766,0,0,1-.233.771c-.161.178.273.409.289.49a6.542,6.542,0,0,1,.224.667c0,.111.016.416.21.5s.079.007.321.233a2.069,2.069,0,0,1,.45.513c.032.1.176.337.143.481a.618.618,0,0,0-.032.273c.016.08-.048.1.1.1s.161-.017.208.064-.016.032.113-.161.064-.385.113-.739a2.3,2.3,0,0,1,.385-1.107,2.237,2.237,0,0,0,.594-.674,14.057,14.057,0,0,0,.626-1.911,5.959,5.959,0,0,1,.241-1.187,2.15,2.15,0,0,1,.272-.5c.04-.434.393-.771.21-1.06a.565.565,0,0,1,.224-.811c.281-.1-.1-.227-.025-.432C786.961,480.944,786.486,480.962,786.486,480.962Z" transform="translate(-782.228 -480.585)" fill="url(#linear-gradient)"/>
    </g>
    <g id="Group_5147" data-name="Group 5147" transform="translate(796.707 472.122)">
      <g id="Group_5146" data-name="Group 5146">
        <path id="Path_19574" data-name="Path 19574" d="M791.992,474.4a.729.729,0,0,0-.311-.325.615.615,0,0,0-.246-.072q-.629-.065-.685.69-.024.26-.048.269a.422.422,0,0,1-.175.032,11.445,11.445,0,0,0-2.579.732c-.075.032-.139-.012-.192-.13a2.272,2.272,0,0,1-.223-.487c-.026-.071,0-.1.064-.1a.785.785,0,0,0,.724-.382,17.764,17.764,0,0,0,1.266-1.754,3.665,3.665,0,0,0,.39-.724c.016-.048.074-.041.175.025a1.894,1.894,0,0,1,.509.366c.054.059.038.114-.048.163a4.683,4.683,0,0,0-.836.779,8.43,8.43,0,0,0-.684.967c-.1.129-.145.214-.129.252s.083.032.184,0q.549-.147,1.076-.252a.831.831,0,0,0,.223-.082.4.4,0,0,0,.119-.13,1.256,1.256,0,0,1,.367-.364.9.9,0,0,1,.938.065,1.781,1.781,0,0,1,.6,1.567c-.01.038-.048.059-.111.065a1.114,1.114,0,0,1-.47-.121,2.266,2.266,0,0,1-.629-.35q-.143-.089-.135-.121c.01-.033.051-.046.119-.04a2.166,2.166,0,0,0,.581-.065.348.348,0,0,0,.208-.187A.452.452,0,0,0,791.992,474.4Zm-2.818,4.094a.109.109,0,0,1-.143.007q-.184-.267-.351-.512a2.1,2.1,0,0,1-.581-1.47q.024-.1.191-.056c.3-.054.6-.106.9-.155a2.986,2.986,0,0,1,2.826.276c.111.077.156.126.135.146a.244.244,0,0,1-.127.13,1.089,1.089,0,0,0-.3.3,1.728,1.728,0,0,0-.454,1.064.585.585,0,0,1-.009.155.331.331,0,0,1-.23-.025c-.091-.01-.361-.016-.813-.016A2.9,2.9,0,0,0,789.174,478.5Zm.859-.707a4.244,4.244,0,0,1,.526-.056c.1-.012.169-.082.207-.211a1.392,1.392,0,0,0,.135-.918q-.015-.041-.182-.065a1.876,1.876,0,0,0-.574.007,4.165,4.165,0,0,0-.756.179c-.239.075-.376.146-.414.211a.774.774,0,0,0,.039.617c.059.244.139.363.24.357a.825.825,0,0,0,.246-.025A5.4,5.4,0,0,1,790.033,477.791Z" transform="translate(-787.523 -472.122)" fill="#40402b"/>
        <path id="Path_19575" data-name="Path 19575" d="M794.182,475.132a1.731,1.731,0,0,0-.2.867c0,.033-.016.046-.048.042a1.1,1.1,0,0,1-.237-.12,4.317,4.317,0,0,1-.328,1.77,3.467,3.467,0,0,0-.139.39c-.014.066-.045.084-.091.051l-.215-.185a3.449,3.449,0,0,1-.2-3.249c.038-.108.085-.14.146-.093.122.09.211.159.272.207.084.066.123.123.119.171a.372.372,0,0,1-.161.205,1.48,1.48,0,0,0-.445.953,2.554,2.554,0,0,0-.035,1c.027.143.069.215.124.221a.516.516,0,0,0,.328-.2,2.436,2.436,0,0,0,.453-1.628q-.007-.256.035-.256.063-.007.091.234a2.025,2.025,0,0,1,.027.228c.2-.327.307-.507.334-.541,0-.009,0-.014.007-.014l-.208.078c-.025.029-.042.033-.056.014a1.016,1.016,0,0,0-.21-.249c-.013-.019.017-.042.091-.071a1.566,1.566,0,0,0,.578-.541.407.407,0,0,0-.215.051.908.908,0,0,0-.252.1c-.032.033-.051.033-.055,0a1.523,1.523,0,0,1-.14-.256c-.009-.032.01-.052.056-.056q.208-.035.425-.441.23-.425.314-.554a.852.852,0,0,0,.1-.163q.041-.065.069-.043c.019.014.1.093.237.234.019.01,0,.029-.042.058a1.977,1.977,0,0,0-.376.519.71.71,0,0,0-.126.205c.015.014.058.014.133,0a.675.675,0,0,1,.153-.035c.069-.1.119-.163.146-.207.042-.081.084-.085.126-.014a1.125,1.125,0,0,1,.188.171c0,.014-.017.036-.064.065a1.88,1.88,0,0,0-.356.4,1.194,1.194,0,0,0-.188.263c.01.038.042.049.1.035s.142-.035.216-.049a.437.437,0,0,1-.02-.348.1.1,0,0,1,.091-.064,4.691,4.691,0,0,1,.4.468.067.067,0,0,1,.007.051c-.019.042-.038.067-.056.071a1.1,1.1,0,0,1-.278.029A1.724,1.724,0,0,0,794.182,475.132Zm-.947-2.211a.3.3,0,0,1,.062.007c.084,0,.153.08.21.241a1.8,1.8,0,0,0,.223.483.85.85,0,0,1,.133.214.074.074,0,0,1-.007.106c-.061.081-.114.119-.16.114a2.516,2.516,0,0,1-.279-.049,1.941,1.941,0,0,0-.244-.058c-.1-.019-.147-.059-.153-.12a.9.9,0,0,1,.126-.86Q793.194,472.928,793.235,472.921Zm2.981,5.245a.6.6,0,0,0,.25-.356.834.834,0,0,0,.042-.768.312.312,0,0,0-.181-.035,3.314,3.314,0,0,0-1.3.327c-.288.181-.571.357-.85.534a.122.122,0,0,1-.1-.051.2.2,0,0,1-.029-.134.243.243,0,0,1,.077-.142q.475-.505.3-.768c-.038-.062,0-.114.117-.158a6.361,6.361,0,0,1,1.345-.354.585.585,0,0,0,.237-.072.171.171,0,0,0,.042-.171.1.1,0,0,0-.055-.1.131.131,0,0,0-.1-.022,4.65,4.65,0,0,0-1.379.376c-.065.029-.114.02-.146-.028l-.111-.214c.009-.019.043-.03.1-.035a4.807,4.807,0,0,0,.5-.121,6.584,6.584,0,0,1,1.135-.234.377.377,0,0,1,.14-.014.415.415,0,0,1-.181-.163c-.015-.019-.013-.03.006-.036a.332.332,0,0,0,.084-.093,2.541,2.541,0,0,1,.272-.3c.023-.01.038-.012.042-.007s.012.017.007.036a1.253,1.253,0,0,0-.056.554,1.116,1.116,0,0,1,.46.156c.117.071.152.143.105.214-.01,0-.017.007-.022.02a1.128,1.128,0,0,0-.319.414c-.038.08-.072.119-.106.113a3.087,3.087,0,0,0-1.392.207.334.334,0,0,0-.217.22.055.055,0,0,0,.027.071.807.807,0,0,0,.321-.071,5.651,5.651,0,0,1,1.115-.22q.787-.085,1.016.192c.08.066.091.123.036.171a1.065,1.065,0,0,0-.363.69c-.061.217-.191.583-.39,1.094-.046.094-.111.111-.2.049a.627.627,0,0,0-.327-.163,3.086,3.086,0,0,1-1.24-.817c-.079-.1-.108-.152-.09-.171s.058.013.117.085a.915.915,0,0,0,.168.12A2.121,2.121,0,0,0,796.216,478.167Zm-1.859-2.9c.009,0,.016.01.02.029a.283.283,0,0,1,.027.085.775.775,0,0,0,.091.249.4.4,0,0,1,.055.114q.022.013,0,.035c-.023.033-.043.051-.062.051-.042-.01-.077-.017-.1-.022-.1-.029-.153-.051-.153-.064a.548.548,0,0,1,.035-.448A.11.11,0,0,1,794.357,475.266Zm.278-.113c.042,0,.119.1.23.283a.353.353,0,0,1,.069.078.057.057,0,0,1,0,.043.146.146,0,0,1-.159.049.75.75,0,0,0-.1-.007c-.036,0-.058-.016-.062-.035a.428.428,0,0,1-.007-.377Zm.447-1.308a.045.045,0,0,1-.056-.015.891.891,0,0,1-.111-.156.67.67,0,0,1-.055-.078q-.028-.05.013-.056c.084-.02.188-.051.314-.093a8.513,8.513,0,0,1,.885-.285c.042-.014.085-.03.133-.049s.062.016.075.064a.745.745,0,0,1,.049.249c0,.042-.023.056-.055.042a2.269,2.269,0,0,0-.69.143A1.933,1.933,0,0,0,795.081,473.845Zm.361.995a.042.042,0,0,1,.027-.007.665.665,0,0,1,.669.085c.08.058.1.107.069.15a.143.143,0,0,0-.084.085.747.747,0,0,0-.146.354c0,.02-.023.029-.055.029a1.773,1.773,0,0,0-.586.163.043.043,0,0,1-.056-.014,1.527,1.527,0,0,1-.4-.7c0-.043.023-.066.069-.072A3.521,3.521,0,0,0,795.443,474.84Zm-.09-2.63c.032,0,.078.01.139.014.023,0,.042.022.055.064a.613.613,0,0,1,.078.129,1.56,1.56,0,0,0,.208.383.661.661,0,0,1,.126.163.071.071,0,0,1-.015.1q-.091.128-.16.121c-.111-.019-.2-.038-.278-.058a.725.725,0,0,0-.244-.056c-.1-.023-.149-.067-.153-.127a.7.7,0,0,1,.153-.655Q795.31,472.216,795.353,472.21Zm.989,2.637c-.015.033-.03.041-.049.022a.991.991,0,0,0-.208-.185c-.019-.019,0-.045.062-.078q.2-.056.564-.568a.41.41,0,0,0-.265.042,2.142,2.142,0,0,0-.292.107q-.05.05-.056,0l-.126-.207c0,.067-.146.129-.438.185-.158.029-.244.064-.257.107s-.038.033-.056.014a.289.289,0,0,1-.055-.143.39.39,0,0,1-.022-.134.072.072,0,0,1,.056-.036,1.534,1.534,0,0,0,.27-.064,1.731,1.731,0,0,1,.4-.093c.055,0,.084,0,.084,0a.6.6,0,0,1,.013.093.113.113,0,0,1,.042-.022.455.455,0,0,0,.16-.064,1.2,1.2,0,0,0,.252-.356,5.2,5.2,0,0,1,.307-.525.4.4,0,0,0,.1-.158c.027-.042.051-.056.069-.042s.1.092.237.234c.015.01,0,.029-.049.056a2.363,2.363,0,0,0-.348.477.908.908,0,0,0-.117.192c.017.023.071.026.159.007a1.129,1.129,0,0,1,.175-.029c.1-.156.169-.266.2-.327.04-.081.082-.085.124-.015a.783.783,0,0,1,.2.156c.01.014-.009.038-.055.071a2.684,2.684,0,0,0-.37.455,1.538,1.538,0,0,0-.2.3c.006.033.03.048.077.043a.859.859,0,0,1,.2-.007.307.307,0,0,1,.064-.22.15.15,0,0,1,.069-.022.744.744,0,0,1,.1.093,2.183,2.183,0,0,0,.279.276.092.092,0,0,1,.007.058q-.028.072-.056.078a.652.652,0,0,1-.139.022c-.139,0-.211-.007-.215-.022a.172.172,0,0,1-.029-.051Q797.038,474.613,796.342,474.847Zm-.85-.483a1.469,1.469,0,0,1,.237-.071,1.662,1.662,0,0,1,.257-.036c0,.019.009.052.014.1a.293.293,0,0,0,.006.064c-.023.091-.173.156-.453.2-.158.033-.243.064-.257.093s-.038.04-.055.022a.285.285,0,0,1-.064-.263.068.068,0,0,1,.042-.029A1.051,1.051,0,0,0,795.492,474.364Zm-.091.995c.019.019.069.019.153,0a.325.325,0,0,0,.175-.071.07.07,0,0,0,.035-.056.613.613,0,0,0,.027-.114.092.092,0,0,0-.007-.049.171.171,0,0,0-.132-.065.7.7,0,0,0-.2.043.366.366,0,0,0-.161.064q-.028.05.056.2C795.364,475.343,795.383,475.359,795.4,475.359Zm1.3-.434a.1.1,0,0,1,.117.1.584.584,0,0,0,.111.227.6.6,0,0,1,.071.1q.019.015,0,.043c-.019.033-.038.049-.056.049a1.009,1.009,0,0,1-.2-.022c-.036,0-.058-.016-.062-.035a.449.449,0,0,1-.007-.426C796.683,474.938,796.692,474.925,796.7,474.925Zm1.113.085c.025.019.033.058.029.114a.653.653,0,0,0-.022.134c-.023.081-.048.185-.077.314-.009.038-.055.059-.139.064-.038.01-.065-.01-.084-.056a3.454,3.454,0,0,0-.349-.533.816.816,0,0,1-.161-.241c.015-.029.045-.033.091-.014A3.4,3.4,0,0,1,797.811,475.01Z" transform="translate(-785.332 -472.082)" fill="#40402b"/>
        <path id="Path_19576" data-name="Path 19576" d="M800.508,474.185a2.5,2.5,0,0,1-.412.575.042.042,0,0,0-.027.029.215.215,0,0,1,.049.006c.065.025.074.072.027.143a.388.388,0,0,0-.062.142,1.475,1.475,0,0,1,1.392.221c.069.056.068.116-.006.176a1.149,1.149,0,0,0-.363.677q.3-.009.655,0a3.991,3.991,0,0,0,.7,0c.093-.029.147-.02.166.027a1.145,1.145,0,0,0,.175.307.742.742,0,0,1,.027.32q0,.178-.091.134a2.263,2.263,0,0,0-.8-.227,5.657,5.657,0,0,0-2.2.093,4.737,4.737,0,0,1-.523.86c-.181.2-.269.348-.265.447s-.114.214-.341.328a1.713,1.713,0,0,1-.92.178c-.139-.025-.157-.074-.055-.15q.236-.178.682-.461a2.692,2.692,0,0,0,.974-1.116,1.173,1.173,0,0,0-.2.027,4.808,4.808,0,0,0-1.713.506c-.055.061-.1.068-.133.02a1.384,1.384,0,0,1-.139-.263c-.032-.119-.025-.179.022-.184q.891-.221,1.3-.37.16-.056.334-.1a.08.08,0,0,1,.014-.036.511.511,0,0,0-.049-.184,3.066,3.066,0,0,1-.168-.419,1.063,1.063,0,0,0-.117-.27q-.063-.1.069-.143a7.238,7.238,0,0,1,1.066-.305q.006-.206,0-.278c-.015-.113.013-.171.084-.171a1.45,1.45,0,0,1,.237.029q.013-.05.285-.817c-.019-.039-.035-.074-.049-.107-.019-.052-.007-.077.035-.071h.071a8.335,8.335,0,0,0,.389-1.345c.015-.113.065-.156.153-.127a4.221,4.221,0,0,1,.412.171c.055.023.069.052.042.085a5.844,5.844,0,0,0-.489,1.138l-.006.006c.064-.009.139-.016.223-.02.139-.029.385-.065.737-.107.056,0,.087.038.091.114a1.1,1.1,0,0,1,.007.369c-.015.062-.045.078-.091.051a1.968,1.968,0,0,0-.745-.014A1.345,1.345,0,0,0,800.508,474.185Zm-2.244.427a.068.068,0,0,1-.1-.014c-.029-.038-.058-.081-.091-.129-.055-.1-.111-.191-.166-.276-.029-.058-.019-.088.027-.093.13-.025.246-.051.349-.078.208-.067.412-.121.613-.165a7.059,7.059,0,0,1-.188-.88c-.015-.062.013-.093.082-.093a1.554,1.554,0,0,1,.356.071.746.746,0,0,0,.161.022c.1.028.109.108.02.242l-.006.007a3.324,3.324,0,0,0,.159,1.336c0,.029-.072.059-.215.093-.051.014-.085-.007-.1-.064s-.064-.152-.119-.3A1.7,1.7,0,0,0,798.264,474.611Zm.961,1.031c-.1.046-.16.094-.173.142a.765.765,0,0,0-.007.3.455.455,0,0,0,.126.341.847.847,0,0,1,.292-.071q.063-.347.1-.824A2.465,2.465,0,0,0,799.226,475.642Zm1.421-.236a.131.131,0,0,0-.126-.064,2.462,2.462,0,0,0-.5.064c-.036.218-.058.373-.062.463a2.563,2.563,0,0,1-.055.4,5.368,5.368,0,0,1,.571-.1.047.047,0,0,1,.035,0,1.534,1.534,0,0,0,.159-.512A.428.428,0,0,0,800.647,475.407Zm1.206,2.4c.041.023.059.074.055.149-.009.058-.035.27-.077.641-.009.061-.069.094-.181.1-.051.023-.092,0-.126-.058-.065-.094-.12-.179-.166-.256q-.9-.874-.941-.895a1.641,1.641,0,0,1-.3-.327c.009-.038.051-.051.126-.036A11.348,11.348,0,0,1,801.853,477.8Z" transform="translate(-783.255 -472.052)" fill="#40402b"/>
        <path id="Path_19577" data-name="Path 19577" d="M804.748,476.951a.107.107,0,0,0-.027.042,2.37,2.37,0,0,1-1.107.726.542.542,0,0,0-.4.369.173.173,0,0,1-.119.121,3.824,3.824,0,0,1-1.08.078q-.154-.007-.16-.078c-.009-.048.146-.121.467-.221.176-.08.334-.145.473-.191a2.129,2.129,0,0,0,.377-.163,2.669,2.669,0,0,1,.438-.256,2.08,2.08,0,0,0,.766-.64.1.1,0,0,0-.042-.036q-.6-.44-.794-.369c-.074.028-.111,0-.111-.093.032-.346.051-.526.056-.541.023-.075.062-.1.117-.071s.072.049.077.078a1.615,1.615,0,0,0,.523.356,3.026,3.026,0,0,1,.411.234,4.49,4.49,0,0,0,.2-.924.8.8,0,0,0-.139-.383c-.283.046-.567.087-.85.12a1.777,1.777,0,0,0-.9.256.2.2,0,0,1-.084.036c-.036,0-.065-.03-.082-.093a3,3,0,0,1-.126-.455c-.014-.085.016-.13.09-.134a14.239,14.239,0,0,0,1.945-.314q.753-.219,1.441-.454a.219.219,0,0,1,.259.049.917.917,0,0,1,.263.377c.061.156.075.252.042.283s-.082.02-.166,0a1.077,1.077,0,0,0-.857.08,2.835,2.835,0,0,0-.425,1.066,4.391,4.391,0,0,1-.223.732,4.314,4.314,0,0,1,.418.314,4.893,4.893,0,0,0,1.554.888,5.8,5.8,0,0,1,.885.363c.135.1.2.156.2.185s-.051.052-.153.056a5.106,5.106,0,0,1-1.239.007,2.836,2.836,0,0,0-.586-.035c-.121-.006-.191-.039-.21-.1a3.07,3.07,0,0,0-.243-.655A1.814,1.814,0,0,0,804.748,476.951Zm-.3-4.564h.014c.126,0,.208.085.25.27a1.415,1.415,0,0,0,.21.541.89.89,0,0,1,.132.234.079.079,0,0,1-.013.107c-.061.08-.114.119-.16.113a1.226,1.226,0,0,1-.279-.064,1.356,1.356,0,0,0-.243-.064c-.094-.025-.142-.067-.147-.129a1.006,1.006,0,0,1,.147-.938C804.391,472.412,804.422,472.387,804.449,472.387Z" transform="translate(-781.135 -472.003)" fill="#40402b"/>
        <path id="Path_19578" data-name="Path 19578" d="M808.755,477.95c0,.166-.015.256-.042.27-.029.038-.065.036-.111-.007a2.427,2.427,0,0,0-.244-.142,2.171,2.171,0,0,1-.69-.7,1.251,1.251,0,0,0-.1.419c-.01.052-.042.069-.1.049a.935.935,0,0,1-.438-.483c-.015-.038-.006-.059.027-.064a.136.136,0,0,1,.049-.022,9,9,0,0,1,.836-.619q.048-.019.069,0a.049.049,0,0,1-.007.065,3.24,3.24,0,0,0-.314.61.428.428,0,0,1,.119.065q.132.056.265.1a.255.255,0,0,0,.153-.051c.038-.019.056-.074.056-.163,0-.331.009-.671.014-1.016a.135.135,0,0,0-.084.022,6.563,6.563,0,0,0-1.171.441q-.041.028-.069-.022c-.061-.11-.127-.23-.2-.363-.017-.038-.012-.059.022-.064a.351.351,0,0,1,.139-.022q.015-.007,1.372-.419a1.224,1.224,0,0,0-.02-.341.1.1,0,0,0-.049,0q-.633.15-.717.3c-.038.052-.072.061-.1.027a.885.885,0,0,1-.1-.249.808.808,0,0,1-.035-.22.115.115,0,0,1,.091-.058,3.352,3.352,0,0,0,.732-.191.053.053,0,0,1,.042-.014,1.947,1.947,0,0,0,.71-.768.182.182,0,0,0-.111-.163.26.26,0,0,0-.223,0,1.043,1.043,0,0,0-.4.427,1.406,1.406,0,0,1-.16.191.149.149,0,0,1-.166.065.234.234,0,0,1-.133-.085c-.027-.058.022-.221.146-.492a.343.343,0,0,0,.014-.085c-.2.062-.321.117-.348.165s-.065.053-.084.02a.477.477,0,0,1-.077-.213.662.662,0,0,1-.02-.192.113.113,0,0,1,.077-.042,4.153,4.153,0,0,0,.821-.207,5.374,5.374,0,0,1,.719-.192,3.511,3.511,0,0,1,.648-.093.484.484,0,0,1,.006.356,1.723,1.723,0,0,1-.6.2c0,.028.016.045.035.049a1.583,1.583,0,0,1,.39.129c.1.048.119.108.049.185-.13.132-.2.2-.2.205a2.732,2.732,0,0,0-.272.334,1.049,1.049,0,0,1,.356-.049c0,.019.013.067.028.142a.359.359,0,0,1-.015.192,2.9,2.9,0,0,1-.529.213.735.735,0,0,0-.077.327q.286-.091.481-.156a1.8,1.8,0,0,0,.243-.078q.05-.022.069.065a2.487,2.487,0,0,1,.042.3c.01.075,0,.111-.035.107a3.443,3.443,0,0,0-.821.185.789.789,0,0,0-.007.12l.013.007c.038.023.121.078.252.163.181.077.273.159.279.249a.556.556,0,0,1-.056.234c-.027.029-.079.033-.153.014l-.341-.142C808.7,477.156,808.722,477.548,808.755,477.95Zm-.113-5.637c.033.01.077.078.133.207a1.319,1.319,0,0,0,.223.427.683.683,0,0,1,.14.178.085.085,0,0,1-.007.107c-.056.08-.105.119-.146.113a1.261,1.261,0,0,1-.272-.035.956.956,0,0,0-.237-.051c-.088-.009-.14-.045-.153-.106l-.007-.022a.87.87,0,0,1,.1-.74A.26.26,0,0,1,808.643,472.313Zm2.147,3.228c-.214.052-.425.1-.635.142-.009.042-.016.085-.022.127q-.07.271-.139.534a.678.678,0,0,0,.014.334.245.245,0,0,1-.062.263,1.386,1.386,0,0,1-.8.633c-.065.009-.107,0-.126-.014-.028-.038,0-.093.071-.163a4.446,4.446,0,0,0,.675-1.494,4.028,4.028,0,0,0,.035-1.713c-.051-.108-.035-.171.049-.184a4.358,4.358,0,0,0,1.56-.541c.1-.077.161-.069.175.022a1.548,1.548,0,0,1,.166.361c.052.114.022.181-.09.2a.265.265,0,0,0-.084,0,8.689,8.689,0,0,0-1.122.334c-.1.033-.153.123-.168.27-.023.194-.043.379-.062.554a6.656,6.656,0,0,1,1.651-.327.549.549,0,0,0,.2-.042c.042-.014.072-.007.09.022a.5.5,0,0,0,.147.213.389.389,0,0,1,.069.3.571.571,0,0,0-.015.12c-.009.038-.043.043-.1.014a1.826,1.826,0,0,0-.912-.043,6.777,6.777,0,0,0-.042,1.081,14.477,14.477,0,0,0-.056,2.3c.038.094,0,.149-.119.163a1.522,1.522,0,0,1-.389-.007c-.084-.01-.1-.038-.036-.085a.527.527,0,0,0,.091-.37Q810.831,475.669,810.79,475.541Z" transform="translate(-778.947 -472.036)" fill="#40402b"/>
        <path id="Path_19579" data-name="Path 19579" d="M812.24,475.642c-.009.246-.03.535-.062.866q-.028.314-.022.846a1.288,1.288,0,0,1-.02.356c-.014.038-.072.051-.173.036a.613.613,0,0,1-.279-.085c-.023-.025-.026-.067-.007-.129a10.017,10.017,0,0,0,.21-1.407,15.643,15.643,0,0,0,.1-2.737c-.027-.108-.019-.16.028-.156.088-.01.175-.022.257-.036a.121.121,0,0,1,.064-.014,1.958,1.958,0,0,1,1.407-.064q.2.106.091.221a2.63,2.63,0,0,0-.224,1.314c0,.2-.062.292-.173.292a1.181,1.181,0,0,0-.341.078q-.737.206-.85.4C812.243,475.5,812.24,475.57,812.24,475.642Zm.892-1.152a3.921,3.921,0,0,0,.084-.753c.013-.175-.016-.292-.091-.348-.051-.066-.173-.075-.369-.029a.515.515,0,0,0-.307.143.893.893,0,0,0-.077.39l-.007.007a1.086,1.086,0,0,0,.411-.085c.061-.019.093,0,.1.064.023.162.019.249-.014.263a1.085,1.085,0,0,0-.515.292c-.015,0-.023.009-.029.028-.013.124-.023.237-.027.341a.21.21,0,0,0,.133.058.859.859,0,0,0,.578-.221A1.093,1.093,0,0,0,813.132,474.49Zm-.166,1.194c-.033.019-.059.019-.078,0a.7.7,0,0,1-.1-.127l-.069-.107c-.019-.038-.012-.059.02-.064a4.158,4.158,0,0,0,.5-.121q.39-.121.711-.192c.32-.061.636-.116.947-.163a.117.117,0,0,0,.027.051.588.588,0,0,1,.126.269.674.674,0,0,0-.007.08c0,.027-.02.033-.062.013a.667.667,0,0,0-.272-.02.043.043,0,0,0-.022.027,6.394,6.394,0,0,0-.1,1.245.19.19,0,0,1,.077-.015.887.887,0,0,0,.237-.051.064.064,0,0,1,.084.022.662.662,0,0,0,.124.192.157.157,0,0,1,.056.107,1.211,1.211,0,0,1-.015.256c0,.027-.035.033-.091.013a1.418,1.418,0,0,0-.48-.064v.9c.019.056-.007.082-.077.078a1.177,1.177,0,0,1-.348-.143c-.074-.042-.081-.08-.02-.113.1-.058.146-.121.146-.192,0-.148-.014-.322-.027-.526a14.559,14.559,0,0,0-1.708.285,2.224,2.224,0,0,1-.16-.263c-.019-.043-.012-.064.022-.064a3.549,3.549,0,0,0,.586-.114.475.475,0,0,1,.083-.022,5.615,5.615,0,0,0,.022-.6,2.458,2.458,0,0,0-.042-.61A.6.6,0,0,0,812.965,475.684Zm.495.875c0,.09.009.159.013.205a3.55,3.55,0,0,1,.766-.149q-.013-.64-.013-1.279a3.054,3.054,0,0,0-.753.171,1.307,1.307,0,0,0-.02.185l.544-.114c.051-.009.078.01.083.058.014.142.006.215-.027.22a2.138,2.138,0,0,0-.6.192c0,.067.007.127.007.185.189-.033.369-.072.536-.114.051-.01.078.01.083.056.014.143.006.215-.027.221a4.366,4.366,0,0,0-.515.127A.225.225,0,0,0,813.46,476.559Zm.912-1.677a.055.055,0,0,1-.069-.007.071.071,0,0,1-.015-.029,3.417,3.417,0,0,1-.069-1.706v-.121c.009-.042.058-.065.146-.071a2.84,2.84,0,0,0,.544-.149,1.936,1.936,0,0,1,1.226-.093c.181.052.237.13.166.234a2.015,2.015,0,0,0-.215,1.187q.006,2.518.1,3.753a3.1,3.1,0,0,1,.007.662c-.019.028-.1,0-.257-.085l-.252-.158a2.189,2.189,0,0,1-1.016-.966c-.051-.11-.019-.119.1-.029a1.516,1.516,0,0,0,.536.285c.189.056.3.071.334.042s.061-.137.055-.327c-.013-.37-.03-.734-.048-1.094-.023-.474-.036-1.012-.036-1.614a.207.207,0,0,0-.082-.043,2.21,2.21,0,0,0-1.122.314A.053.053,0,0,0,814.372,474.881Zm1.107-.762a1.032,1.032,0,0,0,.132-.213,2.843,2.843,0,0,0-.077-.938.253.253,0,0,0-.159-.085.891.891,0,0,0-.343.121.949.949,0,0,0-.312.2.546.546,0,0,0-.084.263,1.091,1.091,0,0,0,.544-.078c.059-.019.093,0,.1.064.014.162,0,.249-.028.263a2.115,2.115,0,0,0-.334.107c-.21.081-.321.156-.335.227s0,.178.007.278a1.056,1.056,0,0,0,.453-.049A1.311,1.311,0,0,0,815.48,474.12Z" transform="translate(-776.761 -471.888)" fill="#40402b"/>
      </g>
    </g>
    <g id="Group_5149" data-name="Group 5149" transform="translate(773.329 497.63)">
      <g id="Group_5148" data-name="Group 5148">
        <path id="Path_19580" data-name="Path 19580" d="M771.353,489.865c0-.017,0-.023.025-.023s.145.01.409.01c.283,0,.435-.01.466-.01s.033.01.033.023v.078c0,.017,0,.03-.026.03H772.1c-.094,0-.142.03-.142.088a.577.577,0,0,0,.014.114c.02.122.145.525.205.714.04.127.237.708.315.915h.006c.071-.159.335-.854.363-.933s.162-.48.213-.629a.758.758,0,0,0,.046-.192c0-.04-.023-.078-.107-.078h-.088c-.013,0-.017-.01-.017-.03v-.078c0-.017,0-.023.02-.023s.187.01.4.01c.247,0,.331-.01.361-.01s.023.006.023.023v.085c0,.013,0,.023-.023.023h-.091a.292.292,0,0,0-.24.132,8.336,8.336,0,0,0-.415.943c-.041.113-.477,1.187-.495,1.22s-.03.045-.046.045-.041-.035-.058-.078c-.108-.311-.382-1.081-.426-1.2l-.033-.116c-.081-.24-.24-.73-.283-.831-.035-.078-.068-.111-.139-.111h-.088c-.013,0-.017-.01-.017-.023Z" transform="translate(-771.353 -489.731)" fill="#40402b"/>
        <path id="Path_19581" data-name="Path 19581" d="M773.5,492.088a1.183,1.183,0,0,1-.5-1,1.313,1.313,0,0,1,.315-.841,1.107,1.107,0,0,1,.915-.429,1.134,1.134,0,0,1,.758.267,1.3,1.3,0,0,1,.463,1.009,1.225,1.225,0,0,1-.253.74,1.148,1.148,0,0,1-.973.477A1.476,1.476,0,0,1,773.5,492.088Zm1.622-.97a1.1,1.1,0,0,0-.9-1.175.65.65,0,0,0-.533.2,1.2,1.2,0,0,0-.338.836,1.081,1.081,0,0,0,.905,1.2C775,492.179,775.123,491.419,775.123,491.118Z" transform="translate(-770.617 -489.743)" fill="#40402b"/>
        <path id="Path_19582" data-name="Path 19582" d="M775.286,490.828c0-.081-.01-.688-.013-.739-.007-.082-.04-.116-.169-.116h-.2c-.017,0-.027-.007-.027-.02v-.091c0-.014.01-.02.024-.02.041,0,.213.01.526.01s.409-.01.457-.01a.021.021,0,0,1,.023.023v.085c0,.016-.01.023-.026.023h-.159c-.068,0-.119.027-.119.1,0,.033-.01.779-.01.821v.26c0,.033.01.814.01.852,0,.1.051.121.159.121h.139c.016,0,.027.006.027.023v.088c0,.013-.011.02-.032.02-.041,0-.175-.01-.47-.01-.321,0-.465.01-.5.01-.017,0-.028-.007-.028-.02v-.091c0-.014.01-.02.028-.02h.189c.068,0,.139-.01.152-.1.007-.051.017-.781.017-.96Z" transform="translate(-769.781 -489.731)" fill="#40402b"/>
        <path id="Path_19583" data-name="Path 19583" d="M776.2,492a1.356,1.356,0,0,1-.363-.947,1.286,1.286,0,0,1,.346-.9,1.179,1.179,0,0,1,.844-.341,1.4,1.4,0,0,1,.682.185c.045.027.062.025.068,0l.027-.1c.007-.02.013-.02.043-.02s.038.006.038.053c0,.064.068.561.084.655,0,.017,0,.032-.013.035l-.051.013c-.017,0-.023,0-.033-.026a1.282,1.282,0,0,0-.265-.419.779.779,0,0,0-.587-.26c-.606,0-.849.536-.846,1.031a1.348,1.348,0,0,0,.325.867.748.748,0,0,0,.648.285,1.034,1.034,0,0,0,.836-.429c.01-.017.017-.02.028-.01l.043.033c.01.007.017.014.007.03a1.21,1.21,0,0,1-1.008.568A1.178,1.178,0,0,1,776.2,492Z" transform="translate(-769.354 -489.743)" fill="#40402b"/>
        <path id="Path_19584" data-name="Path 19584" d="M778.248,490.951c.026,0,.389-.014.429-.022.1-.016.125-.043.155-.147a.775.775,0,0,0,.027-.166.021.021,0,0,1,.023-.023l.085,0a.021.021,0,0,1,.02.027c-.01.058-.01.334-.01.385,0,.119.013.281.02.351,0,.017-.007.025-.02.027l-.075.01c-.017,0-.023-.007-.026-.03-.007-.043-.027-.121-.038-.159a.159.159,0,0,0-.146-.132c-.159-.017-.392-.017-.445-.017v.21c0,.184.006.51.006.578,0,.176.088.243.194.263a1.3,1.3,0,0,0,.25.025c.056,0,.225,0,.3-.01a.668.668,0,0,0,.295-.119,2.942,2.942,0,0,0,.276-.356c.01-.016.02-.03.04-.02l.055.03c.017.012.017.022.007.048l-.179.5a.073.073,0,0,1-.075.051l-.293-.007c-.2,0-.531,0-1.058,0-.124,0-.22,0-.286,0s-.116.007-.146.007-.03-.007-.03-.023v-.093c0-.013.01-.016.033-.016h.136c.155,0,.169-.025.169-.149v-1.132c0-.281-.007-.7-.01-.737-.015-.108-.048-.132-.172-.132h-.123c-.016,0-.026,0-.026-.023v-.093c0-.01.006-.016.023-.016.074,0,.192.01.416.01h.147c.335,0,.669,0,1,0,.053,0,.117-.006.134-.006s.023.006.027.016c.013.048.162.512.172.545,0,.013,0,.023-.01.03l-.051.027c-.01.006-.023,0-.027-.01a2.639,2.639,0,0,0-.337-.386.521.521,0,0,0-.257-.091l-.6-.013Z" transform="translate(-768.569 -489.731)" fill="#40402b"/>
        <path id="Path_19585" data-name="Path 19585" d="M780.353,492.088a1.186,1.186,0,0,1-.5-1,1.31,1.31,0,0,1,.314-.841,1.108,1.108,0,0,1,.917-.429,1.131,1.131,0,0,1,.756.267,1.3,1.3,0,0,1,.464,1.009,1.227,1.227,0,0,1-.255.74,1.144,1.144,0,0,1-.973.477A1.476,1.476,0,0,1,780.353,492.088Zm1.622-.97a1.094,1.094,0,0,0-.9-1.175.65.65,0,0,0-.533.2,1.2,1.2,0,0,0-.338.836,1.08,1.08,0,0,0,.906,1.2C781.851,492.179,781.975,491.419,781.975,491.118Z" transform="translate(-767.562 -489.743)" fill="#40402b"/>
        <path id="Path_19586" data-name="Path 19586" d="M782.126,490.738c0-.149-.006-.625-.006-.665,0-.065-.048-.1-.139-.1h-.2a.021.021,0,0,1-.023-.02v-.091c0-.014.01-.02.023-.02s.061,0,.139,0,.192.007.354.007c.058,0,1.245,0,1.3-.013.01.056.111.513.134.6,0,.013,0,.02-.006.023l-.061.023c-.01,0-.017,0-.027-.023-.03-.053-.119-.179-.215-.311a.411.411,0,0,0-.237-.159c-.085-.02-.622-.03-.723-.03,0,.043,0,.723,0,.93v.169c.048,0,.4-.01.442-.017.075-.013.119-.043.149-.149a1.653,1.653,0,0,0,.035-.165c0-.014.01-.025.023-.025l.068,0a.021.021,0,0,1,.02.023c-.007.058-.007.338-.007.385,0,.123.01.285.017.351,0,.017-.007.025-.025.027l-.064.014c-.017,0-.02-.007-.023-.025s-.027-.129-.038-.165a.157.157,0,0,0-.139-.133c-.159-.019-.4-.019-.46-.019v.124c0,.1,0,.669,0,.72,0,.091.016.108.132.108h.165c.02,0,.03.006.03.02v.084c0,.02-.006.027-.026.027s-.169-.01-.46-.01c-.265,0-.392.01-.442.01-.014,0-.022-.007-.022-.023v-.093c0-.013.01-.016.025-.016h.152c.088,0,.116-.014.119-.075s.013-.493.013-1.074Z" transform="translate(-766.713 -489.732)" fill="#40402b"/>
        <path id="Path_19587" data-name="Path 19587" d="M784.631,490.008h-.084a2.479,2.479,0,0,0-.533.04c-.153.048-.255.283-.3.392-.007.017-.017.02-.035.017l-.061-.017c-.01,0-.02-.007-.013-.026.033-.123.152-.558.158-.6s.022-.053.035-.053a.057.057,0,0,1,.041.013l.043.03a.275.275,0,0,0,.194.058c.179.007.321.02.638.02h.163c.367,0,.513-.013.678-.02a.322.322,0,0,0,.176-.048l.064-.04a.073.073,0,0,1,.041-.013c.017,0,.025.01.032.053s.071.46.1.609c0,.017,0,.023-.02.027l-.053.013c-.013,0-.017,0-.028-.023-.027-.065-.129-.325-.24-.379a2.026,2.026,0,0,0-.584-.058h-.1v.963c0,.048,0,.993,0,1.051.006.085.033.136.114.136h.213c.03,0,.035.01.035.033v.071c0,.017,0,.027-.035.027s-.142-.01-.473-.01-.466.01-.513.01c-.027,0-.03-.013-.03-.033v-.065c0-.023,0-.033.023-.033h.23a.1.1,0,0,0,.111-.081c.01-.1.01-1.136.01-1.2Z" transform="translate(-765.892 -489.765)" fill="#40402b"/>
        <path id="Path_19588" data-name="Path 19588" d="M785.724,490.913c0-.21-.007-.667-.007-.72,0-.172-.023-.22-.148-.22h-.159c-.017,0-.02-.007-.02-.028v-.081c0-.017.01-.023.026-.023.068,0,.176.01.474.01.263,0,.385-.01.45-.01.023,0,.033,0,.033.016v.088c0,.02-.007.028-.027.028h-.172c-.114,0-.132.058-.132.192,0,.048-.007.493-.007.682v.058c0,.017.01.027.041.027h1.251c.051,0,.068-.007.068-.051v-.035c0-.192-.01-.662-.01-.7,0-.108-.015-.172-.111-.172H787.1c-.017,0-.023-.007-.023-.023v-.088c0-.014,0-.02.02-.02.071,0,.215.01.445.01s.369-.01.434-.01c.023,0,.026.006.026.027v.081c0,.02-.006.023-.026.023h-.153c-.1,0-.107.058-.107.179,0,.048-.007.619-.007.743v.116c0,.107.007.75.01.943,0,.121.033.169.135.169H788c.025,0,.031.006.031.023v.081c0,.02-.006.027-.028.027-.064,0-.178-.01-.425-.01-.294,0-.4.01-.5.01-.015,0-.02-.01-.02-.023v-.085c0-.017.006-.023.026-.023h.214c.081,0,.091-.065.091-.156,0-.159.01-.7.01-.824V491.1c0-.038-.017-.04-.075-.04h-1.236c-.038,0-.048.01-.048.033v.072c0,.091,0,.612.007.847,0,.081.038.116.108.116h.165c.02,0,.027.006.027.023v.085c0,.016-.007.023-.027.023-.064,0-.182-.01-.425-.01-.291,0-.393.01-.47.01-.017,0-.025-.007-.025-.023v-.088c0-.014.01-.02.025-.02h.2c.084,0,.094-.081.094-.162,0-.159.01-.815.01-.9Z" transform="translate(-765.095 -489.731)" fill="#40402b"/>
        <path id="Path_19589" data-name="Path 19589" d="M788.105,490.951c.026,0,.387-.014.429-.022.1-.016.124-.043.155-.147a.783.783,0,0,0,.027-.166.021.021,0,0,1,.023-.023l.085,0a.021.021,0,0,1,.02.027c-.01.058-.01.334-.01.385,0,.119.013.281.02.351a.024.024,0,0,1-.02.027l-.075.01c-.017,0-.023-.007-.026-.03-.007-.043-.028-.121-.038-.159a.159.159,0,0,0-.146-.132c-.159-.017-.392-.017-.445-.017v.21c0,.184.006.51.006.578,0,.176.088.243.194.263a1.3,1.3,0,0,0,.25.025c.056,0,.226,0,.3-.01a.667.667,0,0,0,.295-.119,2.942,2.942,0,0,0,.276-.356c.01-.016.02-.03.041-.02l.055.03c.017.012.017.022.007.048l-.179.5a.073.073,0,0,1-.075.051l-.294-.007c-.2,0-.531,0-1.058,0-.124,0-.22,0-.286,0s-.116.007-.146.007-.03-.007-.03-.023v-.093c0-.013.01-.016.033-.016h.136c.155,0,.169-.025.169-.149v-1.132c0-.281-.007-.7-.01-.737-.015-.108-.048-.132-.173-.132h-.121c-.016,0-.026,0-.026-.023v-.093c0-.01.006-.016.023-.016.074,0,.192.01.417.01h.147c.335,0,.669,0,1,0,.053,0,.117-.006.135-.006s.023.006.027.016c.013.048.162.512.172.545,0,.013,0,.023-.01.03l-.051.027c-.01.006-.025,0-.027-.01a2.747,2.747,0,0,0-.338-.386.511.511,0,0,0-.256-.091l-.6-.013Z" transform="translate(-764.174 -489.731)" fill="#40402b"/>
        <path id="Path_19590" data-name="Path 19590" d="M790.329,491.348c0,.159,0,.619.007.667.007.074.04.108.111.108h.217c.023,0,.027.01.027.023v.081c0,.017,0,.027-.03.027-.048,0-.153-.01-.47-.01-.3,0-.429.01-.467.01s-.027-.01-.027-.023v-.085c0-.017,0-.023.02-.023h.146c.114,0,.139-.017.149-.108,0-.033.013-.561.013-.953v-.389c0-.223,0-.591-.006-.626-.007-.067-.042-.074-.133-.074h-.192c-.017,0-.02-.007-.02-.028v-.081c0-.017,0-.023.02-.023.038,0,.159.01.48.01.061,0,.26-.01.371-.01a1.176,1.176,0,0,1,.753.169.6.6,0,0,1,.257.49c0,.425-.321.688-.859.688a3.319,3.319,0,0,1-.369-.016Zm0-.3a1.217,1.217,0,0,0,.312.03.616.616,0,0,0,.476-.23.546.546,0,0,0,.088-.341.578.578,0,0,0-.612-.561,1.061,1.061,0,0,0-.265.023Z" transform="translate(-763.186 -489.731)" fill="#40402b"/>
        <path id="Path_19591" data-name="Path 19591" d="M791.823,490.951c.028,0,.389-.014.429-.022.1-.016.126-.043.156-.147a.87.87,0,0,0,.027-.166.021.021,0,0,1,.023-.023l.084,0a.02.02,0,0,1,.02.027c-.01.058-.01.334-.01.385,0,.119.015.281.022.351a.024.024,0,0,1-.022.027l-.074.01c-.017,0-.023-.007-.028-.03a1.628,1.628,0,0,0-.036-.159.159.159,0,0,0-.146-.132c-.159-.017-.392-.017-.447-.017v.21c0,.184.007.51.007.578,0,.176.088.243.192.263a1.32,1.32,0,0,0,.25.025c.058,0,.227,0,.3-.01a.668.668,0,0,0,.295-.119,3.286,3.286,0,0,0,.276-.356c.01-.016.02-.03.04-.02l.055.03c.016.012.016.022.006.048l-.179.5a.071.071,0,0,1-.074.051l-.293-.007c-.2,0-.531,0-1.058,0-.124,0-.22,0-.288,0s-.114.007-.145.007-.03-.007-.03-.023v-.093c0-.013.01-.016.033-.016h.136c.155,0,.169-.025.169-.149v-1.132c0-.281-.007-.7-.01-.737-.014-.108-.048-.132-.174-.132h-.121c-.017,0-.027,0-.027-.023v-.093c0-.01.007-.016.025-.016.074,0,.192.01.415.01h.149c.335,0,.669,0,1,0,.055,0,.119-.006.136-.006s.023.006.027.016c.013.048.162.512.172.545,0,.013,0,.023-.01.03l-.051.027c-.01.006-.025,0-.027-.01a2.741,2.741,0,0,0-.338-.386.509.509,0,0,0-.256-.091l-.6-.013Z" transform="translate(-762.516 -489.731)" fill="#40402b"/>
        <path id="Path_19592" data-name="Path 19592" d="M793.312,492.088a1.182,1.182,0,0,1-.5-1,1.31,1.31,0,0,1,.314-.841,1.107,1.107,0,0,1,.915-.429,1.134,1.134,0,0,1,.758.267,1.3,1.3,0,0,1,.463,1.009,1.235,1.235,0,0,1-.253.74,1.148,1.148,0,0,1-.973.477A1.476,1.476,0,0,1,793.312,492.088Zm1.622-.97a1.094,1.094,0,0,0-.9-1.175.65.65,0,0,0-.533.2,1.2,1.2,0,0,0-.338.836,1.08,1.08,0,0,0,.906,1.2C794.81,492.179,794.934,491.419,794.934,491.118Z" transform="translate(-761.785 -489.743)" fill="#40402b"/>
        <path id="Path_19593" data-name="Path 19593" d="M795.374,491.348c0,.159,0,.619.006.667.007.074.04.108.111.108h.217c.023,0,.027.01.027.023v.081c0,.017,0,.027-.03.027-.048,0-.152-.01-.47-.01-.3,0-.429.01-.467.01s-.026-.01-.026-.023v-.085c0-.017,0-.023.02-.023h.145c.116,0,.139-.017.149-.108,0-.033.013-.561.013-.953v-.389c0-.223,0-.591-.006-.626-.007-.067-.041-.074-.133-.074h-.192c-.016,0-.02-.007-.02-.028v-.081c0-.017,0-.023.02-.023.038,0,.159.01.48.01.061,0,.26-.01.371-.01a1.184,1.184,0,0,1,.755.169.6.6,0,0,1,.256.49c0,.425-.321.688-.859.688a3.277,3.277,0,0,1-.367-.016Zm0-.3a1.213,1.213,0,0,0,.311.03.614.614,0,0,0,.476-.23.547.547,0,0,0,.088-.341.578.578,0,0,0-.612-.561,1.051,1.051,0,0,0-.263.023Z" transform="translate(-760.937 -489.731)" fill="#40402b"/>
        <path id="Path_19594" data-name="Path 19594" d="M796.544,490.731c0-.217-.007-.575-.01-.636-.007-.088-.025-.121-.126-.121h-.159c-.02,0-.023-.017-.023-.033v-.075c0-.017,0-.023.023-.023.038,0,.159.01.44.01.328,0,.47-.01.5-.01s.03.01.03.027v.077c0,.017-.006.028-.033.028h-.2c-.1,0-.117.033-.117.132,0,.045-.01.554-.01.791v.291c0,.058,0,.788.01.927.074.006.743.013.847,0,.2-.03.4-.437.45-.568.007-.013.014-.02.027-.013l.053.02c.01.006.01.01.007.03s-.145.581-.165.672c-.045,0-.308-.007-.609-.007s-.632,0-.814,0c-.133,0-.231,0-.3,0s-.107.007-.132.007-.026-.007-.026-.023v-.085c0-.017,0-.023.023-.023h.162c.126,0,.146-.048.146-.091,0-.065.01-.906.01-1.112Z" transform="translate(-760.275 -489.731)" fill="#40402b"/>
        <path id="Path_19595" data-name="Path 19595" d="M798.368,490.951c.027,0,.389-.014.429-.022.1-.016.126-.043.156-.147a.789.789,0,0,0,.026-.166.022.022,0,0,1,.025-.023l.084,0a.02.02,0,0,1,.02.027c-.01.058-.01.334-.01.385,0,.119.014.281.02.351,0,.017-.006.025-.02.027l-.074.01c-.017,0-.025-.007-.027-.03-.007-.043-.027-.121-.038-.159a.157.157,0,0,0-.145-.132c-.159-.017-.392-.017-.447-.017v.21c0,.184.007.51.007.578,0,.176.088.243.192.263a1.319,1.319,0,0,0,.25.025c.058,0,.227,0,.3-.01a.656.656,0,0,0,.293-.119,3.1,3.1,0,0,0,.278-.356c.01-.016.02-.03.04-.02l.054.03c.017.012.017.022.007.048l-.179.5a.071.071,0,0,1-.074.051l-.295-.007c-.2,0-.531,0-1.057,0-.126,0-.22,0-.288,0s-.114.007-.145.007-.032-.007-.032-.023v-.093c0-.013.01-.016.035-.016h.135c.156,0,.169-.025.169-.149v-1.132c0-.281-.006-.7-.01-.737-.013-.108-.048-.132-.172-.132h-.121c-.017,0-.027,0-.027-.023v-.093c0-.01.007-.016.025-.016.074,0,.192.01.415.01h.149c.334,0,.669,0,1,0,.055,0,.119-.006.136-.006s.023.006.026.016c.014.048.163.512.173.545,0,.013,0,.023-.01.03l-.052.027c-.009.006-.023,0-.026-.01a2.739,2.739,0,0,0-.338-.386.515.515,0,0,0-.257-.091l-.6-.013Z" transform="translate(-759.599 -489.731)" fill="#40402b"/>
        <path id="Path_19596" data-name="Path 19596" d="M800.763,490.727a.269.269,0,1,1-.267-.268A.27.27,0,0,1,800.763,490.727Z" transform="translate(-758.482 -489.456)" fill="#40402b"/>
        <path id="Path_19597" data-name="Path 19597" d="M802.044,490.774c0-.126-.007-.538-.011-.6-.01-.2-.064-.2-.218-.2h-.105c-.02,0-.027-.007-.027-.023v-.085c0-.017.007-.023.027-.023.053,0,.207.01.45.01.108,0,.311-.01.429-.01a1.355,1.355,0,0,1,.6.091.474.474,0,0,1,.26.46c0,.334-.149.419-.413.558l.012.006a.682.682,0,0,1,.546.669.661.661,0,0,1-.26.508,1.2,1.2,0,0,1-.645.121c-.234,0-.366-.01-.507-.01-.169,0-.369.01-.432.01-.041,0-.048-.007-.048-.02v-.088c0-.017.007-.023.03-.023h.162c.105,0,.121-.04.136-.149.01-.078.017-.523.017-.8Zm.3.132a1.538,1.538,0,0,0,.179.007.792.792,0,0,0,.427-.088.493.493,0,0,0,.189-.4.423.423,0,0,0-.166-.356.825.825,0,0,0-.463-.114.519.519,0,0,0-.111,0,.062.062,0,0,0-.048.061c0,.068-.007.361-.007.642Zm0,.325v.466c0,.311.075.45.356.45a.491.491,0,0,0,.544-.538.532.532,0,0,0-.338-.531,1.265,1.265,0,0,0-.453-.056h-.108Z" transform="translate(-757.833 -489.731)" fill="#40402b"/>
        <path id="Path_19598" data-name="Path 19598" d="M803.591,490.707c0-.25,0-.466,0-.564s-.045-.169-.129-.169h-.136c-.016,0-.02-.01-.02-.023v-.085c0-.017,0-.023.02-.023s.136.01.419.01c.189,0,.5-.01.565-.01a.924.924,0,0,1,.632.205.57.57,0,0,1,.175.386c0,.422-.192.581-.625.675v.007a.341.341,0,0,1,.155.129c.041.043.28.389.308.432a2.658,2.658,0,0,0,.3.389.39.39,0,0,0,.243.058c.023,0,.027.013.027.026v.075c0,.02,0,.03-.027.03s-.114-.01-.263-.01c-.1,0-.224.007-.275.01a1.767,1.767,0,0,1-.142-.192c-.027-.04-.21-.361-.226-.389s-.176-.267-.217-.315a.425.425,0,0,0-.364-.2.491.491,0,0,0-.113.01v.189c0,.2,0,.578.007.629.007.071.033.132.084.132h.214c.023,0,.026.01.026.026v.075c0,.023,0,.03-.036.03s-.123-.01-.443-.01-.386.01-.424.01-.026-.01-.026-.027v-.078c0-.016,0-.026.016-.026h.139c.074,0,.132-.025.132-.116.007-.334.007-.652.007-.973Zm.3.335a.7.7,0,0,0,.153.013c.615,0,.733-.422.733-.564a.514.514,0,0,0-.169-.386.816.816,0,0,0-.561-.155.217.217,0,0,0-.116.026.133.133,0,0,0-.04.108Z" transform="translate(-757.113 -489.731)" fill="#40402b"/>
        <path id="Path_19599" data-name="Path 19599" d="M805.257,490.828c0-.081-.01-.688-.014-.739-.006-.082-.041-.116-.169-.116h-.2c-.017,0-.027-.007-.027-.02v-.091c0-.014.01-.02.023-.02.041,0,.214.01.528.01s.409-.01.457-.01a.021.021,0,0,1,.023.023v.085c0,.016-.01.023-.028.023H805.7c-.067,0-.117.027-.117.1,0,.033-.01.779-.01.821v.26c0,.033.01.814.01.852,0,.1.051.121.159.121h.137c.017,0,.027.006.027.023v.088c0,.013-.01.02-.03.02-.041,0-.176-.01-.47-.01-.321,0-.466.01-.5.01-.017,0-.027-.007-.027-.02v-.091c0-.014.01-.02.027-.02h.189c.067,0,.139-.01.152-.1.007-.051.017-.781.017-.96Z" transform="translate(-756.42 -489.731)" fill="#40402b"/>
        <path id="Path_19600" data-name="Path 19600" d="M806.171,490.694c0-.088-.01-.568-.016-.625-.01-.082-.055-.1-.146-.1h-.185c-.017,0-.027,0-.027-.023v-.093c0-.013.01-.016.023-.016.045,0,.194.01.5.01.088,0,.426-.01.5-.01a1.592,1.592,0,0,1,1.1.3,1.09,1.09,0,0,1,.375.862,1.2,1.2,0,0,1-.334.889,1.333,1.333,0,0,1-1.051.359c-.213,0-.47-.01-.622-.01-.3,0-.429.01-.477.01a.02.02,0,0,1-.023-.023v-.088c0-.014.01-.02.027-.02h.225c.065,0,.1-.027.109-.081.01-.071.023-.831.023-1.1Zm.311.328c0,.043,0,.617.007.827a.309.309,0,0,0,.058.189.467.467,0,0,0,.359.108.993.993,0,0,0,.794-.364,1.244,1.244,0,0,0,.247-.76,1.2,1.2,0,0,0-.278-.747,1.135,1.135,0,0,0-.849-.324.713.713,0,0,0-.27.033c-.048.03-.061.085-.064.159,0,.142,0,.584,0,.639Z" transform="translate(-756.003 -489.731)" fill="#40402b"/>
        <path id="Path_19601" data-name="Path 19601" d="M809.687,491.51c0-.121-.038-.155-.139-.155h-.142c-.017,0-.023-.007-.023-.02v-.085c0-.02,0-.026.02-.026.048,0,.2.01.429.01s.351-.01.4-.01c.023,0,.026.01.026.023v.081c0,.013,0,.028-.023.028H810.1c-.061,0-.106.023-.106.127v.447c0,.048.015.081.015.108s-.02.041-.055.054a1.9,1.9,0,0,1-.922.217,1.293,1.293,0,0,1-.946-.386,1.31,1.31,0,0,1-.312-.928,1.169,1.169,0,0,1,.383-.859,1.385,1.385,0,0,1,.948-.321,1.211,1.211,0,0,1,.667.2c.038.03.058.025.078,0l.051-.061c.013-.013.026-.03.048-.03s.03.017.03.04l.01.645c0,.017,0,.032-.017.032l-.061.006a.028.028,0,0,1-.027-.026,1.123,1.123,0,0,0-.2-.4.788.788,0,0,0-.616-.278.815.815,0,0,0-.645.273,1.137,1.137,0,0,0-.3.778,1.3,1.3,0,0,0,.321.946.838.838,0,0,0,.6.24,1.08,1.08,0,0,0,.554-.114c.078-.048.091-.121.091-.3Z" transform="translate(-755.116 -489.743)" fill="#40402b"/>
        <path id="Path_19602" data-name="Path 19602" d="M810.357,490.951c.028,0,.389-.014.429-.022.1-.016.124-.043.155-.147a.774.774,0,0,0,.028-.166.021.021,0,0,1,.023-.023l.085,0a.021.021,0,0,1,.02.027c-.01.058-.01.334-.01.385,0,.119.013.281.02.351,0,.017-.007.025-.02.027l-.075.01c-.016,0-.023-.007-.026-.03-.007-.043-.027-.121-.037-.159a.159.159,0,0,0-.145-.132c-.159-.017-.393-.017-.447-.017v.21c0,.184.007.51.007.578,0,.176.087.243.192.263a1.308,1.308,0,0,0,.25.025c.058,0,.226,0,.3-.01A.668.668,0,0,0,811.4,492a3.082,3.082,0,0,0,.278-.356c.01-.016.02-.03.041-.02l.053.03c.017.012.017.022.007.048l-.179.5a.073.073,0,0,1-.075.051l-.293-.007c-.2,0-.531,0-1.058,0-.124,0-.22,0-.286,0s-.116.007-.146.007-.03-.007-.03-.023v-.093c0-.013.01-.016.033-.016h.136c.155,0,.169-.025.169-.149v-1.132c0-.281-.007-.7-.01-.737-.014-.108-.048-.132-.172-.132h-.123c-.016,0-.026,0-.026-.023v-.093c0-.01.007-.016.023-.016.075,0,.192.01.417.01h.147c.335,0,.669,0,1,0,.053,0,.119-.006.134-.006s.025.006.028.016c.013.048.162.512.172.545,0,.013,0,.023-.01.03l-.051.027c-.01.006-.023,0-.027-.01a2.641,2.641,0,0,0-.337-.386.515.515,0,0,0-.257-.091l-.6-.013Z" transform="translate(-754.255 -489.731)" fill="#40402b"/>
        <path id="Path_19603" data-name="Path 19603" d="M812.76,490.008h-.084a2.493,2.493,0,0,0-.535.04c-.152.048-.253.283-.3.392a.025.025,0,0,1-.033.017l-.061-.017c-.01,0-.02-.007-.014-.026.035-.123.153-.558.159-.6s.02-.053.035-.053a.061.061,0,0,1,.04.013l.043.03a.274.274,0,0,0,.192.058c.179.007.321.02.639.02H813c.369,0,.515-.013.679-.02a.322.322,0,0,0,.176-.048l.064-.04a.073.073,0,0,1,.041-.013c.017,0,.025.01.03.053s.071.46.1.609c0,.017,0,.023-.02.027l-.053.013c-.015,0-.017,0-.027-.023-.027-.065-.129-.325-.24-.379a2.031,2.031,0,0,0-.586-.058h-.094v.963c0,.048,0,.993,0,1.051.007.085.035.136.116.136h.213c.03,0,.033.01.033.033v.071c0,.017,0,.027-.033.027s-.142-.01-.473-.01-.467.01-.513.01c-.027,0-.03-.013-.03-.033v-.065c0-.023,0-.033.023-.033h.23a.1.1,0,0,0,.111-.081c.01-.1.01-1.136.01-1.2Z" transform="translate(-753.353 -489.765)" fill="#40402b"/>
        <path id="Path_19604" data-name="Path 19604" d="M814,492.088a1.186,1.186,0,0,1-.5-1,1.31,1.31,0,0,1,.314-.841,1.108,1.108,0,0,1,.917-.429,1.131,1.131,0,0,1,.756.267,1.3,1.3,0,0,1,.464,1.009,1.227,1.227,0,0,1-.255.74,1.144,1.144,0,0,1-.973.477A1.48,1.48,0,0,1,814,492.088Zm1.624-.97a1.1,1.1,0,0,0-.9-1.175.65.65,0,0,0-.533.2,1.205,1.205,0,0,0-.338.836,1.08,1.08,0,0,0,.907,1.2C815.5,492.179,815.622,491.419,815.622,491.118Z" transform="translate(-752.563 -489.743)" fill="#40402b"/>
        <path id="Path_19605" data-name="Path 19605" d="M816.855,490.008h-.084a2.5,2.5,0,0,0-.535.04c-.152.048-.253.283-.3.392-.006.017-.016.02-.033.017l-.061-.017c-.01,0-.02-.007-.013-.026.033-.123.152-.558.158-.6s.02-.053.035-.053a.062.062,0,0,1,.041.013l.043.03a.274.274,0,0,0,.192.058c.179.007.322.02.639.02h.162c.369,0,.515-.013.68-.02a.322.322,0,0,0,.176-.048l.064-.04a.073.073,0,0,1,.041-.013c.017,0,.025.01.03.053s.071.46.1.609c0,.017,0,.023-.02.027l-.053.013c-.014,0-.017,0-.027-.023-.027-.065-.129-.325-.24-.379a2.026,2.026,0,0,0-.584-.058h-.1v.963c0,.048,0,.993,0,1.051.006.085.033.136.114.136h.212c.03,0,.035.01.035.033v.071c0,.017,0,.027-.035.027s-.142-.01-.473-.01-.467.01-.513.01c-.027,0-.03-.013-.03-.033v-.065c0-.023,0-.033.023-.033h.23a.1.1,0,0,0,.111-.081c.01-.1.01-1.136.01-1.2Z" transform="translate(-751.527 -489.765)" fill="#40402b"/>
        <path id="Path_19606" data-name="Path 19606" d="M817.948,490.913c0-.21-.007-.667-.007-.72,0-.172-.023-.22-.149-.22h-.158c-.017,0-.022-.007-.022-.028v-.081c0-.017.011-.023.027-.023.068,0,.176.01.473.01.265,0,.386-.01.45-.01.025,0,.035,0,.035.016v.088c0,.02-.007.028-.027.028H818.4c-.116,0-.132.058-.132.192,0,.048-.007.493-.007.682v.058c0,.017.01.027.041.027h1.251c.051,0,.068-.007.068-.051v-.035c0-.192-.01-.662-.01-.7,0-.108-.014-.172-.113-.172h-.175c-.017,0-.023-.007-.023-.023v-.088c0-.014,0-.02.02-.02.071,0,.215.01.445.01s.369-.01.432-.01c.025,0,.028.006.028.027v.081c0,.02-.007.023-.028.023h-.152c-.1,0-.109.058-.109.179,0,.048-.006.619-.006.743v.116c0,.107.006.75.01.943,0,.121.033.169.134.169h.149c.023,0,.03.006.03.023v.081c0,.02-.007.027-.027.027-.064,0-.178-.01-.425-.01-.293,0-.4.01-.5.01-.014,0-.02-.01-.02-.023v-.085c0-.017.006-.023.026-.023h.214c.081,0,.091-.065.091-.156,0-.159.01-.7.01-.824V491.1c0-.038-.017-.04-.075-.04h-1.236c-.038,0-.048.01-.048.033v.072c0,.091,0,.612.007.847,0,.081.036.116.107.116h.166c.02,0,.027.006.027.023v.085c0,.016-.007.023-.027.023-.064,0-.182-.01-.427-.01-.291,0-.392.01-.468.01-.017,0-.025-.007-.025-.023v-.088c0-.014.01-.02.025-.02h.2c.085,0,.1-.081.1-.162,0-.159.01-.815.01-.9Z" transform="translate(-750.731 -489.731)" fill="#40402b"/>
        <path id="Path_19607" data-name="Path 19607" d="M820.328,490.951c.027,0,.389-.014.429-.022.1-.016.126-.043.156-.147a.87.87,0,0,0,.027-.166.021.021,0,0,1,.023-.023l.084,0a.02.02,0,0,1,.02.027c-.01.058-.01.334-.01.385,0,.119.015.281.022.351a.024.024,0,0,1-.022.027l-.074.01c-.017,0-.023-.007-.027-.03a1.628,1.628,0,0,0-.036-.159.159.159,0,0,0-.146-.132c-.159-.017-.392-.017-.447-.017v.21c0,.184.007.51.007.578,0,.176.088.243.192.263a1.32,1.32,0,0,0,.25.025c.058,0,.227,0,.3-.01a.668.668,0,0,0,.295-.119,3.286,3.286,0,0,0,.276-.356c.01-.016.02-.03.041-.02l.055.03c.016.012.016.022.006.048l-.179.5a.071.071,0,0,1-.074.051l-.293-.007c-.2,0-.531,0-1.058,0-.124,0-.22,0-.288,0s-.114.007-.145.007-.03-.007-.03-.023v-.093c0-.013.01-.016.033-.016h.136c.155,0,.169-.025.169-.149v-1.132c0-.281-.007-.7-.01-.737-.015-.108-.048-.132-.174-.132h-.121c-.017,0-.027,0-.027-.023v-.093c0-.01.007-.016.025-.016.074,0,.192.01.415.01h.149c.335,0,.669,0,1,0,.055,0,.119-.006.136-.006s.023.006.027.016c.013.048.162.512.172.545,0,.013,0,.023-.01.03l-.051.027c-.01.006-.025,0-.027-.01a2.741,2.741,0,0,0-.338-.386.51.51,0,0,0-.256-.091l-.6-.013Z" transform="translate(-749.809 -489.731)" fill="#40402b"/>
        <path id="Path_19608" data-name="Path 19608" d="M822.944,491.805h.007c.013-.058.516-1.5.531-1.642a.233.233,0,0,0-.052-.126.158.158,0,0,0-.135-.064h-.084c-.017,0-.02-.007-.02-.028v-.081c0-.013,0-.023.023-.023s.149.01.412.01c.283,0,.412-.01.447-.01s.023.01.023.023v.085c0,.013,0,.023-.023.023h-.136a.1.1,0,0,0-.094.134l.526,1.7h.007a17.963,17.963,0,0,0,.528-1.726c0-.055-.027-.106-.119-.106h-.091c-.02,0-.025-.01-.025-.03v-.078c0-.013,0-.023.027-.023s.152.01.361.01c.189,0,.288-.01.315-.01s.023.006.023.023v.085c0,.013,0,.023-.023.023h-.082a.16.16,0,0,0-.135.091c-.027.048-.733,2-.8,2.16-.017.038-.033.088-.071.088s-.058-.027-.075-.075l-.625-1.855h-.007c-.03.091-.645,1.828-.665,1.865s-.037.065-.068.065-.048-.014-.061-.055l-.753-2.163c-.035-.094-.081-.121-.146-.121h-.114c-.017,0-.02-.013-.02-.028v-.081c0-.017,0-.023.026-.023s.133.01.363.01.382-.01.415-.01.027.01.027.02v.084c0,.017,0,.028-.027.028H822.5c-.087,0-.117.048-.1.121Z" transform="translate(-748.886 -489.731)" fill="#40402b"/>
        <path id="Path_19609" data-name="Path 19609" d="M824.795,492.088a1.182,1.182,0,0,1-.5-1,1.31,1.31,0,0,1,.314-.841,1.107,1.107,0,0,1,.915-.429,1.134,1.134,0,0,1,.758.267,1.3,1.3,0,0,1,.463,1.009,1.234,1.234,0,0,1-.253.74,1.148,1.148,0,0,1-.973.477A1.476,1.476,0,0,1,824.795,492.088Zm1.622-.97a1.094,1.094,0,0,0-.9-1.175.65.65,0,0,0-.533.2,1.2,1.2,0,0,0-.338.836,1.08,1.08,0,0,0,.906,1.2C826.293,492.179,826.417,491.419,826.417,491.118Z" transform="translate(-747.75 -489.743)" fill="#40402b"/>
        <path id="Path_19610" data-name="Path 19610" d="M826.545,490.707c0-.25,0-.466,0-.564s-.043-.169-.129-.169h-.134c-.017,0-.02-.01-.02-.023v-.085c0-.017,0-.023.02-.023s.134.01.419.01c.189,0,.5-.01.564-.01a.923.923,0,0,1,.632.205.572.572,0,0,1,.176.386c0,.422-.192.581-.625.675v.007a.341.341,0,0,1,.155.129c.041.043.281.389.308.432a2.649,2.649,0,0,0,.3.389.393.393,0,0,0,.244.058c.023,0,.026.013.026.026v.075c0,.02,0,.03-.026.03s-.116-.01-.265-.01c-.1,0-.223.007-.273.01a1.607,1.607,0,0,1-.142-.192c-.027-.04-.21-.361-.227-.389s-.175-.267-.215-.315a.425.425,0,0,0-.366-.2.487.487,0,0,0-.111.01v.189c0,.2,0,.578.007.629.006.071.033.132.084.132h.213c.025,0,.027.01.027.026v.075c0,.023,0,.03-.038.03s-.121-.01-.443-.01-.385.01-.422.01-.027-.01-.027-.027v-.078c0-.016,0-.026.017-.026h.139c.074,0,.132-.025.132-.116.007-.334.007-.652.007-.973Zm.3.335a.689.689,0,0,0,.152.013c.616,0,.733-.422.733-.564a.518.518,0,0,0-.168-.386.816.816,0,0,0-.561-.155.214.214,0,0,0-.116.026.133.133,0,0,0-.041.108Z" transform="translate(-746.88 -489.731)" fill="#40402b"/>
        <path id="Path_19611" data-name="Path 19611" d="M828.19,490.731c0-.217-.007-.575-.01-.636-.007-.088-.023-.121-.124-.121H827.9c-.02,0-.025-.017-.025-.033v-.075c0-.017,0-.023.025-.023.036,0,.159.01.439.01.327,0,.47-.01.5-.01s.03.01.03.027v.077c0,.017-.007.028-.035.028h-.2c-.1,0-.119.033-.119.132,0,.045-.01.554-.01.791v.291c0,.058,0,.788.01.927.075.006.743.013.849,0,.2-.03.4-.437.45-.568.006-.013.013-.02.027-.013l.053.02c.01.006.01.01.007.03s-.146.581-.166.672c-.043,0-.308-.007-.609-.007s-.632,0-.814,0c-.132,0-.23,0-.3,0s-.108.007-.132.007-.027-.007-.027-.023v-.085c0-.017,0-.023.023-.023h.163c.124,0,.145-.048.145-.091,0-.065.01-.906.01-1.112Z" transform="translate(-746.168 -489.731)" fill="#40402b"/>
        <path id="Path_19612" data-name="Path 19612" d="M829.712,490.694c0-.088-.01-.568-.017-.625-.01-.082-.053-.1-.145-.1h-.187c-.017,0-.027,0-.027-.023v-.093c0-.013.01-.016.025-.016.043,0,.192.01.5.01.088,0,.427-.01.5-.01a1.589,1.589,0,0,1,1.1.3,1.091,1.091,0,0,1,.376.862,1.2,1.2,0,0,1-.335.889,1.333,1.333,0,0,1-1.051.359c-.213,0-.47-.01-.622-.01-.294,0-.429.01-.476.01-.017,0-.025-.007-.025-.023v-.088c0-.014.01-.02.027-.02h.226c.065,0,.1-.027.109-.081.01-.071.025-.831.025-1.1Zm.311.328c0,.043,0,.617.006.827a.319.319,0,0,0,.058.189.469.469,0,0,0,.359.108.993.993,0,0,0,.794-.364,1.244,1.244,0,0,0,.247-.76,1.2,1.2,0,0,0-.278-.747,1.13,1.13,0,0,0-.847-.324.706.706,0,0,0-.27.033.18.18,0,0,0-.065.159c0,.142,0,.584,0,.639Z" transform="translate(-745.509 -489.731)" fill="#40402b"/>
      </g>
    </g>
    <g id="Group_5151" data-name="Group 5151" transform="translate(799.538 481.083)">
      <g id="Group_5150" data-name="Group 5150">
        <path id="Path_19613" data-name="Path 19613" d="M789.9,479.077c.017,0,.247-.009.273-.013.062-.01.08-.027.1-.1a.645.645,0,0,0,.017-.106.013.013,0,0,1,.014-.014h.054a.014.014,0,0,1,.014.017c-.007.036-.007.214-.007.246,0,.077.009.179.013.226a.016.016,0,0,1-.013.017l-.048.006c-.01,0-.015,0-.017-.019s-.017-.078-.023-.1a.1.1,0,0,0-.093-.084c-.1-.01-.25-.01-.285-.01v.133c0,.117,0,.327,0,.369,0,.113.055.156.123.169a.885.885,0,0,0,.159.014c.038,0,.145,0,.189-.006a.406.406,0,0,0,.188-.075,2.056,2.056,0,0,0,.178-.227c.006-.01.013-.019.026-.013l.035.019c.01.007.01.013,0,.03l-.114.318a.049.049,0,0,1-.049.032l-.186,0h-.859l-.094,0c-.012,0-.019,0-.019-.014v-.059c0-.009.007-.01.022-.01h.087c.1,0,.107-.016.107-.1v-.723c0-.179,0-.448-.006-.47-.009-.069-.03-.084-.11-.084H789.5c-.012,0-.017,0-.017-.016v-.058c0-.006,0-.012.015-.012.048,0,.124.007.266.007h.736c.035,0,.075-.006.087-.006a.018.018,0,0,1,.017.012c.009.03.1.325.11.347s0,.016-.007.02l-.032.017c-.006,0-.014,0-.017-.007a1.709,1.709,0,0,0-.216-.246.326.326,0,0,0-.165-.058l-.383-.009Z" transform="translate(-789.481 -478.298)" fill="#40402b"/>
        <path id="Path_19614" data-name="Path 19614" d="M790.662,479.831c-.026-.019-.038-.025-.049-.025s-.022.014-.035.036-.023.026-.039.026-.023-.012-.019-.035c.009-.054.03-.328.036-.39,0-.013.007-.013.016-.013h.032c.009,0,.013,0,.013.017a.421.421,0,0,0,.078.25.359.359,0,0,0,.3.16.276.276,0,0,0,.293-.275c0-.221-.16-.3-.333-.364a.833.833,0,0,1-.315-.175.422.422,0,0,1-.108-.315.4.4,0,0,1,.134-.276.435.435,0,0,1,.3-.1.62.62,0,0,1,.255.055c.019.01.03.009.041,0l.029-.026a.038.038,0,0,1,.027-.012c.01,0,.017.017.017.036,0,.075.027.295.03.343,0,.012,0,.016-.011.017l-.026.007a.008.008,0,0,1-.011-.007.539.539,0,0,0-.134-.24.3.3,0,0,0-.236-.093.244.244,0,0,0-.26.253.264.264,0,0,0,.067.188A.673.673,0,0,0,791,479a.682.682,0,0,1,.347.179.423.423,0,0,1,.1.294.435.435,0,0,1-.439.473A.528.528,0,0,1,790.662,479.831Z" transform="translate(-789.018 -478.306)" fill="#40402b"/>
        <path id="Path_19615" data-name="Path 19615" d="M791.884,478.476h-.055a1.569,1.569,0,0,0-.34.026c-.1.029-.162.181-.192.25a.016.016,0,0,1-.022.01l-.039-.01c-.006,0-.013,0-.009-.017.022-.078.1-.356.1-.38s.013-.035.022-.035a.04.04,0,0,1,.026.009l.027.019a.18.18,0,0,0,.124.038c.114,0,.2.013.408.013h.1c.236,0,.328-.009.434-.013a.219.219,0,0,0,.113-.03l.04-.026a.055.055,0,0,1,.026-.009c.012,0,.016.007.02.035s.045.293.062.389c0,.01,0,.014-.013.017l-.035.009c-.009,0-.01,0-.017-.016-.017-.04-.082-.207-.153-.241a1.316,1.316,0,0,0-.373-.036h-.061v.614c0,.03,0,.635,0,.671,0,.054.022.087.072.087h.136c.02,0,.022.006.022.022v.045c0,.012,0,.017-.022.017s-.09-.006-.3-.006-.3.006-.328.006c-.016,0-.019-.009-.019-.022v-.04c0-.016,0-.022.016-.022h.146a.064.064,0,0,0,.071-.052c.007-.062.007-.724.007-.766Z" transform="translate(-788.703 -478.32)" fill="#40402b"/>
        <path id="Path_19616" data-name="Path 19616" d="M792.594,479.325c-.022.054-.14.382-.15.427a.345.345,0,0,0-.007.048c0,.03.026.048.074.048h.1c.014,0,.022,0,.022.014v.051c0,.014-.007.019-.017.019-.03,0-.119-.006-.246-.006-.158,0-.205.006-.236.006-.01,0-.014,0-.014-.017v-.052a.014.014,0,0,1,.016-.014h.077c.065,0,.094-.03.124-.1.016-.035.173-.434.236-.61.014-.043.189-.507.21-.565.006-.022.017-.051,0-.074s-.015-.019-.015-.028,0-.016.019-.02a.443.443,0,0,0,.179-.107c.012-.012.017-.02.029-.02s.017.013.023.038c.04.136.21.619.25.756.049.169.189.57.22.633a.164.164,0,0,0,.147.1h.071c.013,0,.017.006.017.014v.055c0,.01-.006.014-.022.014-.039,0-.084-.006-.259-.006s-.255.006-.3.006c-.011,0-.017-.006-.017-.019v-.051c0-.013.006-.014.019-.014h.053c.061,0,.081-.022.065-.082-.017-.078-.106-.354-.136-.44Zm.5-.078c-.019-.065-.194-.6-.205-.636-.006-.016-.01-.03-.017-.03s-.016.014-.023.032-.215.581-.231.635Z" transform="translate(-788.305 -478.319)" fill="#40402b"/>
        <path id="Path_19617" data-name="Path 19617" d="M793.507,478.965c0-.079,0-.343-.006-.382-.007-.124-.042-.129-.142-.129h-.066c-.013,0-.017,0-.017-.016v-.053c0-.01,0-.016.017-.016.035,0,.132.007.288.007.068,0,.2-.007.273-.007a.856.856,0,0,1,.382.059.3.3,0,0,1,.166.294c0,.214-.094.267-.263.356l.007,0a.434.434,0,0,1,.349.427.421.421,0,0,1-.165.324.774.774,0,0,1-.414.078c-.147,0-.233-.006-.322-.006-.108,0-.236.006-.276.006s-.03,0-.03-.013v-.056c0-.01,0-.014.019-.014h.1c.066,0,.077-.026.085-.1.007-.049.012-.334.012-.51Zm.189.085a1.057,1.057,0,0,0,.114,0,.507.507,0,0,0,.272-.056.312.312,0,0,0,.121-.259.268.268,0,0,0-.106-.227.529.529,0,0,0-.3-.074.341.341,0,0,0-.071,0,.039.039,0,0,0-.03.039c0,.042,0,.23,0,.409Zm0,.207v.3c0,.2.048.286.227.286a.313.313,0,0,0,.347-.343.338.338,0,0,0-.215-.338.8.8,0,0,0-.289-.038H793.7Z" transform="translate(-787.789 -478.298)" fill="#40402b"/>
        <path id="Path_19618" data-name="Path 19618" d="M794.491,478.937c0-.139,0-.367-.007-.406,0-.055-.015-.077-.079-.077h-.1c-.013,0-.016-.012-.016-.022v-.048c0-.01,0-.016.016-.016s.1.007.281.007c.21,0,.3-.007.319-.007s.019.007.019.017v.051c0,.01,0,.017-.022.017h-.129c-.068,0-.077.022-.077.084,0,.028-.006.354-.006.5v.187c0,.036,0,.5.006.59.049,0,.476.009.542,0,.127-.019.257-.278.288-.361,0-.009.009-.013.017-.009l.033.013c.007,0,.007.006.006.019s-.094.372-.107.429c-.027,0-.2,0-.387,0h-.713l-.084,0c-.014,0-.017,0-.017-.014v-.055c0-.01,0-.014.014-.014h.1c.079,0,.093-.03.093-.059s.007-.577.007-.708Z" transform="translate(-787.345 -478.298)" fill="#40402b"/>
        <path id="Path_19619" data-name="Path 19619" d="M795.447,479c0-.052-.006-.44-.009-.473,0-.051-.026-.072-.108-.072h-.124c-.012,0-.017,0-.017-.013v-.059a.013.013,0,0,1,.014-.013c.026,0,.136.007.337.007s.262-.007.292-.007a.014.014,0,0,1,.015.016v.053c0,.012-.006.016-.017.016h-.1c-.043,0-.075.017-.075.059,0,.022-.007.5-.007.525v.166c0,.022.007.521.007.544,0,.068.032.078.1.078h.088c.011,0,.017,0,.017.014v.056c0,.009-.006.013-.019.013s-.113-.006-.3-.006c-.205,0-.3.006-.321.006s-.017,0-.017-.013v-.058c0-.009.006-.013.017-.013h.12c.043,0,.09-.007.1-.062,0-.033.01-.5.01-.613Z" transform="translate(-786.937 -478.298)" fill="#40402b"/>
        <path id="Path_19620" data-name="Path 19620" d="M795.954,479.831c-.026-.019-.039-.025-.049-.025s-.022.014-.035.036-.023.026-.039.026-.023-.012-.019-.035c.009-.054.03-.328.036-.39,0-.013.007-.013.016-.013h.032c.009,0,.013,0,.013.017a.411.411,0,0,0,.078.25.359.359,0,0,0,.3.16.276.276,0,0,0,.293-.275c0-.221-.16-.3-.333-.364a.833.833,0,0,1-.315-.175.422.422,0,0,1-.108-.315.4.4,0,0,1,.134-.276.433.433,0,0,1,.3-.1.62.62,0,0,1,.254.055c.019.01.03.009.041,0l.029-.026a.036.036,0,0,1,.027-.012c.01,0,.017.017.017.036,0,.075.027.295.03.343,0,.012,0,.016-.012.017l-.026.007a.01.01,0,0,1-.013-.007.519.519,0,0,0-.133-.24.3.3,0,0,0-.236-.093.244.244,0,0,0-.26.253.265.265,0,0,0,.067.188.673.673,0,0,0,.246.129.682.682,0,0,1,.347.179.423.423,0,0,1,.1.294.435.435,0,0,1-.44.473A.528.528,0,0,1,795.954,479.831Z" transform="translate(-786.659 -478.306)" fill="#40402b"/>
        <path id="Path_19621" data-name="Path 19621" d="M796.794,479.054c0-.134,0-.427,0-.46,0-.11-.015-.14-.094-.14h-.1c-.012,0-.013,0-.013-.017v-.052c0-.01.006-.016.017-.016.042,0,.111.007.3.007.168,0,.246-.007.286-.007.014,0,.022,0,.022.012v.056c0,.013,0,.017-.017.017h-.11c-.074,0-.084.036-.084.123,0,.03,0,.315,0,.435v.038c0,.01.006.017.026.017h.8c.032,0,.043,0,.043-.033v-.022c0-.123-.007-.422-.007-.448,0-.069-.009-.11-.071-.11h-.113c-.01,0-.015,0-.015-.016v-.056c0-.007,0-.013.013-.013.045,0,.137.007.285.007s.236-.007.276-.007c.015,0,.017.006.017.017v.052c0,.013,0,.016-.017.016h-.1c-.062,0-.069.036-.069.114,0,.03,0,.395,0,.474v.074c0,.069,0,.479.006.6,0,.078.023.108.087.108h.1c.014,0,.019,0,.019.014v.052c0,.013,0,.017-.017.017-.041,0-.114-.006-.272-.006-.188,0-.256.006-.321.006-.009,0-.013-.006-.013-.014v-.055c0-.01,0-.014.017-.014h.136c.052,0,.058-.042.058-.1,0-.1.007-.448.007-.526v-.03c0-.023-.012-.026-.048-.026h-.789c-.025,0-.03.007-.03.022v.046c0,.058,0,.39,0,.541,0,.052.023.074.069.074h.106c.013,0,.017,0,.017.014v.055c0,.01,0,.014-.017.014-.042,0-.117-.006-.272-.006-.187,0-.252.006-.3.006-.01,0-.014,0-.014-.014v-.056c0-.009.006-.013.014-.013h.127c.055,0,.061-.052.061-.1,0-.1.006-.519.006-.575Z" transform="translate(-786.315 -478.298)" fill="#40402b"/>
        <path id="Path_19622" data-name="Path 19622" d="M798.3,479.077c.017,0,.247-.009.273-.013.062-.01.08-.027.1-.1a.645.645,0,0,0,.017-.106.013.013,0,0,1,.014-.014h.055a.012.012,0,0,1,.011.017c-.006.036-.006.214-.006.246,0,.077.009.179.013.226a.016.016,0,0,1-.013.017l-.048.006c-.01,0-.014,0-.017-.019s-.017-.078-.023-.1a.1.1,0,0,0-.093-.084c-.1-.01-.25-.01-.285-.01v.133c0,.117,0,.327,0,.369,0,.113.055.156.123.169a.872.872,0,0,0,.159.014c.038,0,.145,0,.191-.006a.408.408,0,0,0,.187-.075,2.042,2.042,0,0,0,.178-.227c.006-.01.013-.019.026-.013l.035.019c.01.007.01.013,0,.03l-.114.318a.044.044,0,0,1-.046.032l-.188,0H798l-.092,0c-.015,0-.02,0-.02-.014v-.059c0-.009.006-.01.022-.01h.087c.1,0,.107-.016.107-.1v-.723c0-.179,0-.448-.006-.47-.009-.069-.03-.084-.11-.084h-.078c-.01,0-.017,0-.017-.016v-.058c0-.006,0-.012.016-.012.046,0,.123.007.265.007h.736c.035,0,.075-.006.087-.006a.018.018,0,0,1,.017.012c.009.03.1.325.11.347s0,.016-.007.02l-.032.017c-.007,0-.016,0-.017-.007a1.705,1.705,0,0,0-.215-.246.327.327,0,0,0-.165-.058l-.383-.009Z" transform="translate(-785.734 -478.298)" fill="#40402b"/>
        <path id="Path_19623" data-name="Path 19623" d="M799.1,478.913c0-.055-.006-.361-.01-.4s-.035-.059-.092-.059h-.119c-.012,0-.017,0-.017-.016v-.058c0-.009.006-.012.014-.012.028,0,.123.007.317.007.056,0,.273-.007.323-.007a1.015,1.015,0,0,1,.7.2.693.693,0,0,1,.24.549.773.773,0,0,1-.214.568.852.852,0,0,1-.671.228c-.136,0-.3-.006-.4-.006-.188,0-.275.006-.3.006-.011,0-.016,0-.016-.014v-.056c0-.009.007-.013.017-.013h.145q.063,0,.069-.052c.006-.045.014-.531.014-.7Zm.2.21c0,.029,0,.395,0,.529a.2.2,0,0,0,.036.121.3.3,0,0,0,.228.068.633.633,0,0,0,.507-.233.787.787,0,0,0,.158-.486.768.768,0,0,0-.178-.477.719.719,0,0,0-.541-.207.441.441,0,0,0-.172.022c-.032.02-.039.054-.042.1,0,.091,0,.374,0,.408Z" transform="translate(-785.303 -478.298)" fill="#40402b"/>
        <path id="Path_19624" data-name="Path 19624" d="M800.691,479c0-.052-.006-.44-.009-.473,0-.051-.026-.072-.108-.072h-.124c-.01,0-.017,0-.017-.013v-.059a.014.014,0,0,1,.014-.013c.026,0,.136.007.337.007s.262-.007.292-.007a.014.014,0,0,1,.015.016v.053c0,.012-.006.016-.017.016h-.1c-.043,0-.075.017-.075.059,0,.022-.007.5-.007.525v.166c0,.022.007.521.007.544,0,.068.032.078.1.078h.088c.012,0,.017,0,.017.014v.056c0,.009-.006.013-.019.013s-.113-.006-.3-.006c-.205,0-.3.006-.321.006s-.017,0-.017-.013v-.058c0-.009.006-.013.017-.013h.12c.043,0,.09-.007.1-.062,0-.033.01-.5.01-.613Z" transform="translate(-784.599 -478.298)" fill="#40402b"/>
        <path id="Path_19625" data-name="Path 19625" d="M801.247,478.657c0-.127-.065-.2-.142-.2h-.09c-.01,0-.012-.009-.012-.016v-.056c0-.007,0-.013.012-.013s.029,0,.061,0,.079,0,.153,0,.119,0,.145,0a.078.078,0,0,1,.064.028l.453.587c.023.03.387.477.439.547h.009v-.257c0-.192,0-.3-.006-.4a2.636,2.636,0,0,0-.026-.333.115.115,0,0,0-.119-.084h-.069c-.009,0-.013,0-.013-.016v-.056a.012.012,0,0,1,.013-.013c.03,0,.1.007.237.007s.182-.007.209-.007.017.007.017.016v.053c0,.009,0,.016-.013.016h-.058c-.059,0-.079.036-.084.119-.009.145-.009.357-.009.5v.808c0,.03,0,.052-.012.052-.026,0-.045-.026-.052-.035s-.129-.165-.263-.333c-.15-.188-.308-.386-.321-.4s-.421-.521-.434-.538h-.013v.479c0,.2.017.552.022.6.009.084.022.126.08.126h.065c.014,0,.017.006.017.019v.048c0,.013,0,.017-.017.017s-.152-.006-.21-.006-.194.006-.215.006-.011,0-.011-.014v-.056a.011.011,0,0,1,.013-.013h.074c.062,0,.087-.026.1-.132,0-.042.009-.288.009-.671Z" transform="translate(-784.344 -478.298)" fill="#40402b"/>
        <path id="Path_19626" data-name="Path 19626" d="M802.976,479.106c0-.029,0-.13,0-.3,0-.072-.012-.12-.052-.12a.3.3,0,0,0-.087.017l-.15.049c-.009,0-.017,0-.022-.006l-.017-.039c0-.009,0-.017.013-.026l.447-.257a.064.064,0,0,1,.029-.013c.014,0,.016.013.016.03s-.007.359-.007.636v.091c0,.026,0,.483,0,.512,0,.111.012.127.15.127h.078c.016,0,.022.006.022.017v.049c0,.013,0,.017-.019.017l-.333-.006-.335.006c-.01,0-.016,0-.016-.017v-.054c0-.012.012-.013.029-.013h.1c.14,0,.145-.007.149-.122,0-.027,0-.464,0-.5Z" transform="translate(-783.612 -478.279)" fill="#40402b"/>
        <path id="Path_19627" data-name="Path 19627" d="M804.118,478.563a.573.573,0,0,1,.116.347,1.052,1.052,0,0,1-.351.811.8.8,0,0,1-.311.182.379.379,0,0,1-.067.014.028.028,0,0,1-.032-.03.033.033,0,0,1,.019-.03.886.886,0,0,0,.522-.671l0,0a.367.367,0,0,1-.263.106.388.388,0,0,1-.4-.431.584.584,0,0,1,.159-.333.426.426,0,0,1,.273-.113A.4.4,0,0,1,804.118,478.563Zm-.6.282c0,.2.121.35.267.35a.231.231,0,0,0,.218-.123.506.506,0,0,0,.032-.214c0-.189-.054-.377-.25-.377C803.662,478.48,803.522,478.6,803.522,478.845Z" transform="translate(-783.298 -478.279)" fill="#40402b"/>
        <path id="Path_19628" data-name="Path 19628" d="M804.718,479.886c-.02,0-.026,0-.026-.025v-.38h-.6c-.019,0-.032-.009-.032-.025s.006-.022.022-.043l.7-.967c.013-.017.03-.035.048-.035s.027.016.027.065v.863h.175c.016,0,.026,0,.026.017v.1c0,.012-.007.02-.035.02h-.166v.374c0,.023,0,.03-.03.03Zm-.025-1.129c0-.035-.022-.04-.041-.013l-.4.548c-.026.038-.023.058.016.058h.422Z" transform="translate(-782.983 -478.279)" fill="#40402b"/>
        <path id="Path_19629" data-name="Path 19629" d="M805.61,478.563a.567.567,0,0,1,.117.347,1.052,1.052,0,0,1-.351.811.815.815,0,0,1-.311.182.374.374,0,0,1-.067.014.03.03,0,0,1-.033-.03.033.033,0,0,1,.019-.03.887.887,0,0,0,.523-.671l0,0a.365.365,0,0,1-.263.106.388.388,0,0,1-.4-.431.594.594,0,0,1,.159-.333.429.429,0,0,1,.275-.113A.4.4,0,0,1,805.61,478.563Zm-.594.282c0,.2.12.35.267.35a.227.227,0,0,0,.217-.123.5.5,0,0,0,.033-.214c0-.189-.055-.377-.25-.377C805.154,478.48,805.015,478.6,805.015,478.845Z" transform="translate(-782.633 -478.279)" fill="#40402b"/>
      </g>
    </g>
    <g id="Group_5152" data-name="Group 5152" transform="translate(767.099 495.536)">
      <rect id="Rectangle_714" data-name="Rectangle 714" width="55.23" height="0.26" fill="#373a2b"/>
      <rect id="Rectangle_715" data-name="Rectangle 715" width="35.201" height="0.26" transform="translate(63.583)" fill="#373a2b"/>
    </g>
    <rect id="Rectangle_716" data-name="Rectangle 716" width="98.785" height="0.26" transform="translate(767.099 501.862)" fill="#373a2b"/>
  </g>
</svg>
