<svg id="圖層_1" data-name="圖層 1" xmlns="http://www.w3.org/2000/svg" xmlns:xlink="http://www.w3.org/1999/xlink" viewBox="0 0 483.27 114.88"><defs><style>.cls-1{fill:#005bac;}.cls-2{fill:url(#新增漸層色票_2);}</style><linearGradient id="新增漸層色票_2" x1="44.09" y1="7.07" x2="44.09" y2="94.64" gradientUnits="userSpaceOnUse"><stop offset="0" stop-color="#004098"/><stop offset="1" stop-color="#00a0e9"/></linearGradient></defs><title>工作區域 2</title><rect class="cls-1" x="429.16" y="98.45" width="3.21" height="10.88" rx="0.05"/><path class="cls-1" d="M417.26,109.71a8.33,8.33,0,0,1-5.54-1.86,5.25,5.25,0,0,1-1.84-4,4.74,4.74,0,0,1,1.89-3.89,8.37,8.37,0,0,1,5.6-1.92,6.87,6.87,0,0,1,5,1.9l.43.45V94.69a0,0,0,0,1,.05,0H426a0,0,0,0,1,0,0v14.6a0,0,0,0,1,0,0h-3.11a0,0,0,0,1-.05,0v-.11a.87.87,0,0,0-.85-.79.91.91,0,0,0-.42.11s0,0,0,0A8.27,8.27,0,0,1,417.26,109.71Zm.73-2.15a5.19,5.19,0,0,0,3.79-1.4,3.26,3.26,0,0,0,.93-2.29,3.2,3.2,0,0,0-.92-2.24,5.18,5.18,0,0,0-3.75-1.4h-.12a5.28,5.28,0,0,0-3.88,1.44,3.32,3.32,0,0,0-1,2.33,3,3,0,0,0,.88,2.09,5.49,5.49,0,0,0,3.9,1.47H418Z"/><rect class="cls-1" x="403.89" y="94.64" width="3.21" height="14.7" rx="0.05"/><path class="cls-1" d="M379.65,109.34a0,0,0,0,1,0,0v-6.24h0l0,0h-7.48v6.22a0,0,0,0,1-.05,0h-3.53a.05.05,0,0,1,0,0s0,0,0,0V98.48s0,0,0,0V94.69a0,0,0,0,1,.05,0H372a0,0,0,0,1,.05,0v6.17h7.54V94.69a0,0,0,0,1,0,0h3.52a0,0,0,0,1,.05,0v14.6a0,0,0,0,1-.05,0Z"/><path class="cls-1" d="M166.42,109.71a8.34,8.34,0,0,1-5.54-1.86,5.27,5.27,0,0,1-1.83-4,4.75,4.75,0,0,1,1.88-3.89,8.38,8.38,0,0,1,5.6-1.92,6.87,6.87,0,0,1,5,1.9l.44.45V98.5a0,0,0,0,1,0,0h2.8a0,0,0,0,1,0,0v10.79a0,0,0,0,1,0,0H172a0,0,0,0,1,0,0v-.09a.85.85,0,0,0-1.27-.7h0A8.28,8.28,0,0,1,166.42,109.71Zm.73-2.15a5.16,5.16,0,0,0,3.79-1.4,3.27,3.27,0,0,0,.94-2.29,3.17,3.17,0,0,0-.93-2.24,5.14,5.14,0,0,0-3.74-1.4h-.12a5.28,5.28,0,0,0-3.88,1.44,3.28,3.28,0,0,0-1,2.33,3,3,0,0,0,.89,2.09,5.49,5.49,0,0,0,3.9,1.47h.11Z"/><path class="cls-1" d="M210.07,109.71a8.32,8.32,0,0,1-5.53-1.86,5.25,5.25,0,0,1-1.84-4,4.75,4.75,0,0,1,1.88-3.89,8.38,8.38,0,0,1,5.6-1.92,6.89,6.89,0,0,1,5,1.9l.43.45V98.5a0,0,0,0,1,.05,0h2.8a0,0,0,0,1,0,0v10.79a0,0,0,0,1,0,0h-2.8a0,0,0,0,1-.05,0v-.09a.85.85,0,0,0-1.27-.7h0A8.28,8.28,0,0,1,210.07,109.71Zm.73-2.15a5.16,5.16,0,0,0,3.79-1.4,3.23,3.23,0,0,0,.94-2.29,3.17,3.17,0,0,0-.93-2.24,5.14,5.14,0,0,0-3.74-1.4h-.12a5.28,5.28,0,0,0-3.88,1.44,3.33,3.33,0,0,0-1,2.33,3,3,0,0,0,.89,2.09,5.49,5.49,0,0,0,3.9,1.47h.11Z"/><path class="cls-1" d="M148.81,109.71a7.72,7.72,0,0,1-4.89-1.54,4.35,4.35,0,0,1-1.55-3.53V98.5a0,0,0,0,1,0,0h3.07a0,0,0,0,1,0,0v5.29a3.28,3.28,0,0,0,3.8,3.77c3.9,0,3.9-2.84,3.9-3.77V98.5a0,0,0,0,1,0,0h3.07a0,0,0,0,1,0,0v10.79a0,0,0,0,1,0,0h-2.73a0,0,0,0,1,0,0,.73.73,0,0,0-.71-.75.65.65,0,0,0-.36.1A6.33,6.33,0,0,1,148.81,109.71Z"/><path class="cls-1" d="M188.82,109.34a0,0,0,0,1,0,0V104a3.27,3.27,0,0,0-3.8-3.77c-3.89,0-3.89,2.83-3.89,3.77v5.29a0,0,0,0,1-.05,0H178a0,0,0,0,1,0,0V98.5a0,0,0,0,1,0,0h2.73a0,0,0,0,1,0,0,.74.74,0,0,0,.72.75.64.64,0,0,0,.35-.1,6.35,6.35,0,0,1,3.7-1.07,7.62,7.62,0,0,1,4.89,1.54,4.3,4.3,0,0,1,1.55,3.53v6.14a0,0,0,0,1-.05,0Z"/><path class="cls-1" d="M446.47,109.34a0,0,0,0,1,0,0V104a4.11,4.11,0,0,0-.59-2.49,4,4,0,0,0-3.22-1.28c-3.89,0-3.89,2.83-3.89,3.77v5.29a0,0,0,0,1-.05,0h-3.07a0,0,0,0,1-.05,0V98.5a0,0,0,0,1,.05,0h2.73a0,0,0,0,1,0,0,.74.74,0,0,0,.72.75.64.64,0,0,0,.35-.1,6.38,6.38,0,0,1,3.71-1.07,7.66,7.66,0,0,1,4.89,1.54,4.33,4.33,0,0,1,1.54,3.53v6.14s0,0,0,0Z"/><path class="cls-1" d="M196.05,109.34a0,0,0,0,1,0,0v-8.94h-1.77a0,0,0,0,1-.05,0V98.5a0,0,0,0,1,.05,0H196V94.69a0,0,0,0,1,0,0h3.12a0,0,0,0,1,0,0v3.76h2.19a0,0,0,0,1,0,0v1.8a0,0,0,0,1,0,0h-2.19v8.94a0,0,0,0,1,0,0Z"/><path class="cls-1" d="M131.53,109.34a0,0,0,0,1,0,0v-5.4l-6.92-8.65,0,0h0a.09.09,0,0,1,0,0,.4.4,0,0,1,0-.15.37.37,0,0,1,.31-.37h3.31l0,0,3.92,4.86h0a1.65,1.65,0,0,0,1.31.65,1.62,1.62,0,0,0,1.19-.53l4-5a.05.05,0,0,1,0,0h3.28a.39.39,0,0,1,.31.37.31.31,0,0,1-.05.18s0,0,0,0h0l-6.92,8.65v5.4a0,0,0,0,1-.05,0Z"/><rect class="cls-1" x="249.86" y="98.51" width="3.21" height="10.88" rx="0.05"/><path class="cls-1" d="M316,109.77a10.07,10.07,0,0,1-5.62-1.67,5.15,5.15,0,0,1-2.4-4.23c0-3.16,3.58-5.73,8-5.73,2.86,0,5.64,1.22,6.94,3v0s0,0,0,0a.41.41,0,0,1,0,.18.38.38,0,0,1-.3.36h-3.07l0,0a4.55,4.55,0,0,0-3.66-1.46c-2.74,0-4.73,1.52-4.73,3.62s2.07,3.71,4.92,3.71a4.8,4.8,0,0,0,3.46-1.38l0,0h3a.36.36,0,0,1,.31.36.42.42,0,0,1-.06.21h0A8.72,8.72,0,0,1,316,109.77Z"/><rect class="cls-1" x="325.95" y="98.51" width="3.21" height="10.88" rx="0.05"/><rect class="cls-1" x="350.3" y="94.7" width="3.21" height="14.7" rx="0.05"/><path class="cls-1" d="M280.1,109.77a8.34,8.34,0,0,1-5.54-1.86,5.28,5.28,0,0,1-1.84-4,4.76,4.76,0,0,1,1.89-3.89,8.38,8.38,0,0,1,5.6-1.92,6.87,6.87,0,0,1,5,1.9l.44.45V98.56a0,0,0,0,1,0,0h2.81a0,0,0,0,1,.05,0v10.79a.05.05,0,0,1-.05.05h-2.81s0,0,0-.05v-.09a.85.85,0,0,0-1.27-.7h0A8.24,8.24,0,0,1,280.1,109.77Zm.73-2.15a5.19,5.19,0,0,0,3.79-1.4,3.26,3.26,0,0,0,.93-2.29,3.16,3.16,0,0,0-.92-2.24,5.13,5.13,0,0,0-3.75-1.41h-.11a5.32,5.32,0,0,0-3.89,1.45,3.32,3.32,0,0,0-.95,2.33,3,3,0,0,0,.89,2.08,5.43,5.43,0,0,0,3.9,1.48h.11Z"/><path class="cls-1" d="M338.81,109.77a8.33,8.33,0,0,1-5.54-1.86,5.25,5.25,0,0,1-1.84-4,4.74,4.74,0,0,1,1.89-3.89,8.37,8.37,0,0,1,5.6-1.92,6.87,6.87,0,0,1,5,1.9l.43.45V98.56a0,0,0,0,1,.05,0h2.81a.05.05,0,0,1,0,0v10.79a.06.06,0,0,1,0,.05h-2.81a.05.05,0,0,1-.05-.05v-.09a.86.86,0,0,0-.85-.81.84.84,0,0,0-.41.11h0A8.27,8.27,0,0,1,338.81,109.77Zm.72-2.15a5.2,5.2,0,0,0,3.8-1.4,3.26,3.26,0,0,0,.93-2.29,3.2,3.2,0,0,0-.92-2.24,5.13,5.13,0,0,0-3.75-1.41h-.11a5.31,5.31,0,0,0-3.89,1.45,3.32,3.32,0,0,0-.95,2.33,3,3,0,0,0,.89,2.08,5.41,5.41,0,0,0,3.89,1.48h.11Z"/><path class="cls-1" d="M267.21,109.4a.06.06,0,0,1,0-.05v-5.29a4.1,4.1,0,0,0-.58-2.49,4,4,0,0,0-3.22-1.28c-3.89,0-3.89,2.83-3.89,3.77v5.29a.05.05,0,0,1-.05.05h-3.07a.05.05,0,0,1-.05-.05V98.56a0,0,0,0,1,.05,0h2.73a0,0,0,0,1,0,0,.74.74,0,0,0,.72.75.64.64,0,0,0,.35-.1,6.38,6.38,0,0,1,3.71-1.07,7.71,7.71,0,0,1,4.89,1.53,4.36,4.36,0,0,1,1.54,3.54v6.14s0,.05,0,.05Z"/><path class="cls-1" d="M302.61,109.4s0,0,0-.05v-5.29a4.11,4.11,0,0,0-.59-2.49,4,4,0,0,0-3.21-1.28c-3.9,0-3.9,2.83-3.9,3.77v5.29a.05.05,0,0,1-.05.05h-3.07a.05.05,0,0,1-.05-.05V98.56a0,0,0,0,1,.05,0h2.73a.05.05,0,0,1,0,0,.73.73,0,0,0,.71.75.64.64,0,0,0,.35-.1,6.38,6.38,0,0,1,3.71-1.07,7.71,7.71,0,0,1,4.89,1.53,4.37,4.37,0,0,1,1.55,3.54v6.14a.06.06,0,0,1-.05.05Z"/><path class="cls-1" d="M233.4,109.4a.05.05,0,0,1-.05-.05V98.4a3.4,3.4,0,0,1,1.44-2.71,4.52,4.52,0,0,1,3.28-1h9a0,0,0,0,1,0,0v2.11a0,0,0,0,1,0,0h-9a1.28,1.28,0,0,0-1.19,1.15v2.89h9.23a.38.38,0,0,1,.38.37v0h0v0a2.22,2.22,0,0,1-2,1.76h-.25l-7.3,0c0,1.31,0,3.47,0,4.9v1.32a.05.05,0,0,1-.05.05Z"/><path class="cls-1" d="M475.6,109.53a22.93,22.93,0,0,1-2.31-.12c-.78-.07-1.58-.17-2.38-.3a.07.07,0,0,1,0,0v-1.57h0a.38.38,0,0,1,.37-.37l.1,0h0a11.56,11.56,0,0,0,1.59.4,11.16,11.16,0,0,0,2.1.19,7.08,7.08,0,0,0,2.55-.39c.65-.26,1-.59,1-1s-.91-1.09-2.71-1.82l-.54-.23a16.64,16.64,0,0,1-3.56-1.73,1.94,1.94,0,0,1-.91-1.52c0-.94.71-1.72,2.09-2.32a13.81,13.81,0,0,1,5.41-.9c.73,0,1.45,0,2.15.11s1.38.19,2.07.33a.05.05,0,0,1,0,.05V99.8h0a.37.37,0,0,1-.37.37l-.1,0h0a7.9,7.9,0,0,0-1.25-.36,11.68,11.68,0,0,0-2.17-.19,6.06,6.06,0,0,0-2.26.37c-.59.24-.89.55-.89.94s.87,1.09,2.59,1.76l.77.29a13.88,13.88,0,0,1,3.4,1.71,2.18,2.18,0,0,1,.95,1.68c0,1-.7,1.73-2.09,2.31A15,15,0,0,1,475.6,109.53Z"/><path class="cls-1" d="M393.48,109.73A9.33,9.33,0,0,1,388,108a5.13,5.13,0,0,1-2.31-4.08c0-3.27,3.51-5.84,8-5.84,4.28,0,7.75,2.62,7.75,5.84S397.84,109.73,393.48,109.73Zm0-9.22a5.45,5.45,0,0,0-3.19,1.06,2.9,2.9,0,0,0-1.29,2.37c0,1.86,2,3.38,4.48,3.38s4.56-1.46,4.56-3.38S396,100.51,393.48,100.51Z"/><path class="cls-1" d="M460.1,114.88c-3.33,0-6.3-1.58-7.4-3.93a0,0,0,0,1,0,0,.25.25,0,0,1,0-.12.36.36,0,0,1,.36-.37h2.41s0,0,0,0a5.46,5.46,0,0,0,4.57,2c2.79,0,4.92-1.34,5.07-3.18v-.09a.86.86,0,0,0-.85-.81.91.91,0,0,0-.42.11s0,0,0,0a8.73,8.73,0,0,1-9.81-.66,5.25,5.25,0,0,1-1.84-4,4.74,4.74,0,0,1,1.89-3.89,8.37,8.37,0,0,1,5.6-1.92,6.87,6.87,0,0,1,5,1.9l.43.45V98.5a0,0,0,0,1,.05,0H468a0,0,0,0,1,0,0v10.84C467.83,112.45,464.36,114.88,460.1,114.88Zm.18-7.32a5.19,5.19,0,0,0,3.79-1.4,3.26,3.26,0,0,0,.93-2.29,3.2,3.2,0,0,0-.92-2.24,5.18,5.18,0,0,0-3.75-1.4h-.12a5.28,5.28,0,0,0-3.88,1.44,3.32,3.32,0,0,0-.95,2.33,3,3,0,0,0,.88,2.09,5.49,5.49,0,0,0,3.9,1.47h.12Z"/><path class="cls-1" d="M126.17,26.56h64a.1.1,0,0,0,.11-.1V19.34a.11.11,0,0,0-.11-.11h-64a.11.11,0,0,0-.1.11v7.12A.1.1,0,0,0,126.17,26.56Z"/><path class="cls-1" d="M192.12,76a1.19,1.19,0,0,0-1.19-1.2H170.66a3.49,3.49,0,0,1-2.85-2.32,2.16,2.16,0,0,1-.13-.68V41.31h24.16a.11.11,0,0,0,.11-.11V34.08a.11.11,0,0,0-.11-.11H124.59a.1.1,0,0,0-.1.11v7.11a.1.1,0,0,0,.1.11h21.22c-.15.27-16.79,31.35-20.8,38.85a.31.31,0,0,0-.05.1,1.19,1.19,0,0,0,1.1,1.67h6.68a.13.13,0,0,0,.1-.06L154.58,41.3h5.47V71.6a10.15,10.15,0,0,0,9.88,10.34l15.3,0a7.05,7.05,0,0,0,6.88-5.78h0A.55.55,0,0,0,192.12,76Z"/><path class="cls-1" d="M282.61,35.16A1.19,1.19,0,0,0,281.42,34H249.71V17.5a.11.11,0,0,0-.11-.11h-7.52a.11.11,0,0,0-.11.11V34H212.84a.1.1,0,0,0-.11.1v7.07a.11.11,0,0,0,.11.11h27L211.82,80a.35.35,0,0,0-.08.13,1.1,1.1,0,0,0-.15.57,1.2,1.2,0,0,0,1.2,1.2h6.78a.12.12,0,0,0,.09,0l24-33a2.7,2.7,0,0,1,4.64.07l24,33a.11.11,0,0,0,.09,0h6.79a1.21,1.21,0,0,0,1.19-1.2,1.22,1.22,0,0,0-.23-.7l0,0c-5.6-7.75-27.77-38.44-28-38.73h23.37a7.2,7.2,0,0,0,7.06-5.9h0A1,1,0,0,0,282.61,35.16Z"/><path class="cls-1" d="M412,40.64a.11.11,0,0,0,.11.11h6.95a.11.11,0,0,0,.11-.11V30.88a.86.86,0,0,1,.24-.68A.89.89,0,0,1,420,30h4.84V44.83a.79.79,0,0,1-.26.57,1,1,0,0,1-.67.23H412.51a.11.11,0,0,0-.07,0,.11.11,0,0,0,0,.08v6.5a.1.1,0,0,0,.1.11h11.4a8.67,8.67,0,0,0,5.81-2.26,6.43,6.43,0,0,0,2.34-4.63v-.18a.36.36,0,0,0,0-.12V30h6.38V45.25a1.22,1.22,0,0,1,0,.22,6.45,6.45,0,0,0,2.34,4.62,8.62,8.62,0,0,0,5.78,2.26H458a.1.1,0,0,0,.11-.11v-6.5a.11.11,0,0,0-.11-.11H446.59a1,1,0,0,1-.67-.23.77.77,0,0,1-.26-.56V30h4.78a.91.91,0,0,1,.62.24.87.87,0,0,1,.24.67v9.75a.09.09,0,0,0,0,.07.12.12,0,0,0,.08,0h6.95a.11.11,0,0,0,.11-.11V31a7.48,7.48,0,0,0-2.42-5.57,8.2,8.2,0,0,0-5.74-2.18h-11.6V18.94a.11.11,0,0,0-.11-.11h-7a.11.11,0,0,0-.11.11V23.2l-19.4,0a.11.11,0,0,0-.11.11Z"/><path class="cls-1" d="M409.54,29.07H402.4V18.73a.11.11,0,0,0-.11-.11h-6.84a.11.11,0,0,0-.1.11V29.07h-7.68a.1.1,0,0,0-.11.1v6.57a.11.11,0,0,0,.11.11h7.68V51.92l-7.6,4.47a.11.11,0,0,0-.05.09v5.8h0a1.19,1.19,0,0,0,1.19,1.18,1.22,1.22,0,0,0,.6-.16h0l5.86-3.44c0,.43,0,1.48,0,2.8,0,3.37,0,8.52,0,9.76-.05,1.47-.81,2.5-1.87,2.56h-5.73a.1.1,0,0,0-.11.11v6.74a.11.11,0,0,0,.11.11h6.54l.09,0c4.51-.36,8.05-4.51,8.07-9.46v0c0-.39,0-9.82,0-14.36V55.72l7.12-4.19a.11.11,0,0,0,.06-.09V45.65h0a1.19,1.19,0,0,0-1.19-1.19,1.17,1.17,0,0,0-.61.17h0l-5.37,3.15V35.85h7.14a.11.11,0,0,0,.1-.11V29.17A.1.1,0,0,0,409.54,29.07Z"/><path class="cls-1" d="M459.17,76.21A1.2,1.2,0,0,0,458,75H438.36V64.11h19.86a.11.11,0,0,0,.11-.1V57.46a.11.11,0,0,0-.11-.11H411.28a.1.1,0,0,0-.1.11V64a.1.1,0,0,0,.1.1h19.87V75H411.28a.09.09,0,0,0-.1.1v6.72a.11.11,0,0,0,0,.08.09.09,0,0,0,.07,0h41.15a6.79,6.79,0,0,0,6.73-5.54v0A1.09,1.09,0,0,0,459.17,76.21Z"/><path class="cls-1" d="M371.2,43.16h0L359.93,27.08h0c-.06-.13-.3-.46-1-1.46l-1.21-1.73-.05,0-.1-.13a8.61,8.61,0,0,0-3.37-3.15,12.28,12.28,0,0,0-5.64-1.38H311.26a.13.13,0,0,0-.08,0s0,.05,0,.08v6c-.48.68-9.31,13.21-12.58,17.83v0a1.22,1.22,0,0,0-.21.68,1.19,1.19,0,0,0,1.19,1.2H306a.1.1,0,0,0,.08,0l1.94-2.74h23.49v9H306.37a.1.1,0,0,0-.1.11v6.54a.1.1,0,0,0,.1.11h25.17V75h-9.15c-.39-.66-4.27-7.64-6.33-11.37a.11.11,0,0,0-.09-.05h-6.75a1.19,1.19,0,0,0-1.19,1.2,1.22,1.22,0,0,0,.16.6L313.55,75H301.38a.11.11,0,0,0-.11.1v6.55a.11.11,0,0,0,.11.11H362a6.88,6.88,0,0,0,6.86-5.35v0a.75.75,0,0,0,0-.21,1.19,1.19,0,0,0-1.19-1.2H356.58l5.36-9.62h0a1.25,1.25,0,0,0,.15-.58,1.2,1.2,0,0,0-1.19-1.2h-6.75a.12.12,0,0,0-.09.05L347.73,75h-8.82V58h24.81a.11.11,0,0,0,.11-.11V51.38a.11.11,0,0,0-.11-.11H338.91v-9h22.83L363.68,45a.11.11,0,0,0,.09,0h6.45a1.2,1.2,0,0,0,1.2-1.2A1.26,1.26,0,0,0,371.2,43.16ZM312.82,35.5,319.56,26h30.1a2.84,2.84,0,0,1,.6.13l.28.23h0c.17.26,1.13,1.62,6.45,9.19Z"/><path class="cls-2" d="M50.4,10.36h0V8.3h0a1.23,1.23,0,0,1,1.23-1.23h.21a44.18,44.18,0,0,1,34,29.21v0a1.43,1.43,0,0,1,.06.37,1.23,1.23,0,0,1-1.23,1.23h-27l-.11,0h0a1.23,1.23,0,0,1-.88-.73h0L54.59,32A59.68,59.68,0,0,1,50.4,10.36ZM25.29,52.23h0v0h0a1.13,1.13,0,0,0,.09-.45,1.23,1.23,0,0,0-1.23-1.23H1.23A1.23,1.23,0,0,0,0,51.74v0A44,44,0,0,0,11.78,80.55l0,0a1.23,1.23,0,0,0,.87.36,1.21,1.21,0,0,0,1.13-.76h0ZM64.18,88.55h0s0,0,0,0L50.33,54.81l0-.06a6.71,6.71,0,0,0-12.26-.44L24,88.52h0a1.2,1.2,0,0,0-.1.47,1.22,1.22,0,0,0,.62,1.06l0,0a44.08,44.08,0,0,0,39,0h0A1.23,1.23,0,0,0,64.27,89a1.13,1.13,0,0,0-.09-.45Zm24-36.75v0h0A1.23,1.23,0,0,0,87,50.52H64a1.23,1.23,0,0,0-1.22,1.23,1.12,1.12,0,0,0,.1.48h0l11.47,28h0a1.23,1.23,0,0,0,2,.4l0,0A44,44,0,0,0,88.19,51.8ZM3.49,37.92h27a1.22,1.22,0,0,0,1-.76h0L33.6,32a59.46,59.46,0,0,0,4.19-21.61h0V8.3h0a1.23,1.23,0,0,0-1.23-1.23h-.22a44.17,44.17,0,0,0-34,29.2v0a1.15,1.15,0,0,0-.06.37A1.23,1.23,0,0,0,3.49,37.92Z"/></svg>