<svg id="圖層_1" data-name="圖層 1" xmlns="http://www.w3.org/2000/svg" viewBox="0 0 129.38 30"><defs><style>.cls-1{fill:#004898;}</style></defs><path class="cls-1" d="M12,29a11.55,11.55,0,0,0,11.68-9.3v8.74h5.59V17.55c0-.49,0-1,.05-1.55.1-3.32,2.27-5.3,5.73-5.35A11.94,11.94,0,1,0,56.8,19.4v0c0,5.74,4.61,9.65,10.15,9.65a8.24,8.24,0,0,0,6-2.64v2h5.58v-12c0-.22,0-.41,0-.6.14-3.8,2.36-5.45,4.82-5.45s4.52,1.65,4.61,5.44c0,.32,0,.54,0,.91V28.44h5.65V19.55A11.54,11.54,0,0,0,105.35,29c6.56,0,10.27-4.21,11.27-8.6h-5.48a6,6,0,0,1-5.79,4,6.38,6.38,0,0,1-6.29-5.46h18.17v9.54h5.61V17.55c0-.49,0-1,0-1.55.11-3.37,2.34-5.36,5.89-5.36h.61V5.3h-.61c-7.42,0-11.37,4.16-11.53,9.55a11.85,11.85,0,0,0-11.89-9.7A11.67,11.67,0,0,0,93.64,14.8a9.48,9.48,0,0,0-9.28-9.64,8.23,8.23,0,0,0-5.84,2.41V.05H72.94V16.8c0,.55,0,.91-.1,1.72-.34,3.48-2.68,5.2-5.24,5.2s-5-1.25-5.11-5.18c0-.68,0-1,0-1.44V10.82h8.69V5.56H62.46V.05H56.8V14.81a12,12,0,0,0-21-5.24V5.3h-.61c-7.3,0-11.24,4-11.52,9.28a11.24,11.24,0,0,0-11-9.28,9.48,9.48,0,0,0-7,2.84V0H.21V14.14c0,1,0,2,0,3C.32,23.63,4.9,29,12,29ZM105.35,9.87a6.39,6.39,0,0,1,6.07,4.61H99.31A6.32,6.32,0,0,1,105.35,9.87Zm-60.27.71A6.43,6.43,0,0,1,51.6,17.1a6.52,6.52,0,0,1-13,0A6.43,6.43,0,0,1,45.08,10.58Zm-33.1,0A6.42,6.42,0,0,1,18.5,17.1,6.43,6.43,0,0,1,12,23.62a6.52,6.52,0,0,1,0-13Z"/></svg>