<svg id="圖層_1" data-name="圖層 1" xmlns="http://www.w3.org/2000/svg" viewBox="0 0 186.38 30"><defs><style>.cls-1{fill:#595757;}.cls-2{fill:#0098d8;}</style></defs><path class="cls-1" d="M67.09,16.87l-.8-.21.29-.63-.7.21-.15-.43-.89.12v1.24h1.44v.76H64.84v1.59a8.33,8.33,0,0,0,1.45-.5l.34.77a18.48,18.48,0,0,1-4,1l-.27-.8L64,19.71V17.93H62.52v-.76H64V16l-1.5.21-.24-.79.57-.06a16.85,16.85,0,0,0,.85-2H62.48v-.76H66.6v.76H64.54c-.18.52-.45,1.15-.77,1.87l1.7-.22-.38-.84L65.8,14a19.83,19.83,0,0,1,.8,2,9.84,9.84,0,0,0,.69-3.68H68l-.05,1h3v.79h-.63A8.71,8.71,0,0,1,69.3,18.5a13.55,13.55,0,0,0,1.79,2.09l-.75.4a11.89,11.89,0,0,1-1.48-1.88A12,12,0,0,1,66.78,21l-.65-.57a12.18,12.18,0,0,0,2.33-2,9.11,9.11,0,0,1-.87-2.85A7.32,7.32,0,0,1,67.09,16.87Zm1.78.87a7.45,7.45,0,0,0,.75-3.61H68.08a11.69,11.69,0,0,0,.42,2.68A5,5,0,0,0,68.87,17.74Z"/><path class="cls-1" d="M77.39,16H74.83a.09.09,0,0,0-.09.1v1.65a5.69,5.69,0,0,1-.88,3.16l-.74-.34a5.36,5.36,0,0,0,.66-1.47,7.76,7.76,0,0,0,.16-1.6V15.43a.19.19,0,0,1,.22-.22h3L77,14.29l.8-.13A10.5,10.5,0,0,0,78,15.21h3.46V16H78.24A13.49,13.49,0,0,0,79,17.87c.34-.42.7-.91,1.1-1.49l.67.43a10.25,10.25,0,0,1-1.33,1.77c.7,1,1.17,1.46,1.37,1.46s.11-.09.12-.24a6,6,0,0,0,0-1.14l.79.14c.06,1.17-.06,1.87-.34,2.09a.69.69,0,0,1-.28.11.9.9,0,0,1-.65-.21,6,6,0,0,1-1.61-1.67,11.16,11.16,0,0,1-3.71,1.8l-.43-.78a10.25,10.25,0,0,0,3.69-1.7A10.81,10.81,0,0,1,77.39,16Zm-1.22-2.2v.73h-.8v-.73H73.25V13h2.12v-.79h.8V13h2.69v-.79h.8V13h2.09v.8H79.66v.73h-.8v-.73Zm4.32.1c.39.35.67.62.84.8l-.55.47a4.29,4.29,0,0,0-.8-.76Z"/><path class="cls-1" d="M85,14.35a.07.07,0,0,0-.08.08v1.23h-.76V13.77a.12.12,0,0,1,.14-.14h3.65v-.4H84.81v-.68h7v.68H88.69v.4h3.39l.66.33a6.81,6.81,0,0,1-.32,1.74l-.74-.22a4.1,4.1,0,0,0,.2-1c0-.07,0-.11-.09-.11h-3.1v2h-.76v-2Zm-.21,5.26c-.06,0-.09,0-.09-.11V16.77c0-.07,0-.1.09-.1h7a.09.09,0,0,1,.1.1V19.5a.1.1,0,0,1-.1.11H88.65v.06a.41.41,0,0,0,.12.3.48.48,0,0,0,.3.13H91.7a.37.37,0,0,0,.22-.09,2.85,2.85,0,0,0,.08-.63l.72.18a4.07,4.07,0,0,1-.18,1,.77.77,0,0,1-.53.29H88.64a.82.82,0,0,1-.53-.25.73.73,0,0,1-.22-.5v-.46Zm2.77-3.94v.61H85.2v-.61Zm0-1v.62h-2.3v-.62Zm.35,2.62H85.43s0,0,0,0v.47h2.49Zm0,1.12H85.4v.47l0,0h2.46Zm.76-.62H91.1v-.47l0,0H88.65Zm0,1.13h2.42l0,0v-.47H88.65Zm2.78-4.25v.62h-2.3v-.62Zm.06,1v.61H89.13v-.61Z"/><path class="cls-1" d="M100,17.14a8,8,0,0,1,.34,1.65,1.78,1.78,0,0,1-.57,1.7,2.11,2.11,0,0,1-1.42.4,4.62,4.62,0,0,1-1.86-.56l.17-.85a3.16,3.16,0,0,0,1.93.57,1,1,0,0,0,.79-.56,4,4,0,0,0-.31-2.4H94.84v-.84h3.93A10.06,10.06,0,0,0,98.13,15h.59L101,13.39a0,0,0,0,0,0-.07.08.08,0,0,0-.07-.05H95.72v-.84h6.18l.71.82-3.17,2.23.3.77h3.68v.84H100Z"/><path class="cls-1" d="M108.68,15.89v1.29H107.4V15.89Z"/><path class="cls-1" d="M116.89,16.87l-.8-.21.28-.63-.69.21-.15-.43-.9.12v1.24h1.44v.76h-1.44v1.59a8.18,8.18,0,0,0,1.46-.5l.34.77a18.63,18.63,0,0,1-4.05,1l-.28-.8,1.73-.26V17.93h-1.52v-.76h1.52V16l-1.49.21-.24-.79.57-.06a16.85,16.85,0,0,0,.85-2h-1.25v-.76h4.13v.76h-2.07c-.18.52-.44,1.15-.77,1.87l1.7-.22-.37-.84.7-.27a17.74,17.74,0,0,1,.8,2,9.66,9.66,0,0,0,.7-3.68h.75l-.06,1h3v.79h-.63a8.82,8.82,0,0,1-1.08,4.37,13,13,0,0,0,1.79,2.09l-.76.4a11.25,11.25,0,0,1-1.47-1.88A12.34,12.34,0,0,1,116.58,21l-.66-.57a12.18,12.18,0,0,0,2.33-2,9.38,9.38,0,0,1-.86-2.85A7.32,7.32,0,0,1,116.89,16.87Zm1.78.87a7.45,7.45,0,0,0,.75-3.61h-1.54a11.16,11.16,0,0,0,.42,2.68A5,5,0,0,0,118.67,17.74Z"/><path class="cls-1" d="M127.19,16h-2.56c-.06,0-.09,0-.09.1v1.65a5.69,5.69,0,0,1-.88,3.16l-.74-.34a5.67,5.67,0,0,0,.66-1.47,7.76,7.76,0,0,0,.16-1.6V15.43c0-.15.06-.22.21-.22h3l-.14-.92.8-.13a8.25,8.25,0,0,0,.18,1.05h3.46V16H128a16.77,16.77,0,0,0,.76,1.86c.34-.42.71-.91,1.1-1.49l.67.43a9.77,9.77,0,0,1-1.32,1.77c.69,1,1.16,1.46,1.37,1.46q.09,0,.12-.24a6,6,0,0,0,0-1.14l.79.14c.06,1.17-.07,1.87-.35,2.09a.64.64,0,0,1-.27.11.89.89,0,0,1-.65-.21,6.17,6.17,0,0,1-1.62-1.67,11.1,11.1,0,0,1-3.7,1.8l-.43-.78a10.33,10.33,0,0,0,3.69-1.7A10.81,10.81,0,0,1,127.19,16ZM126,13.81v.73h-.79v-.73h-2.12V13h2.12v-.79H126V13h2.69v-.79h.8V13h2.1v.8h-2.1v.73h-.8v-.73Zm4.33.1c.38.35.67.62.84.8l-.55.47a4,4,0,0,0-.81-.76Z"/><path class="cls-1" d="M133.86,14.15v-.83h3.87v-1h.82v1h3.81v.83h-1.42a8.87,8.87,0,0,1-2.25,4.17,11.15,11.15,0,0,0,3.8,1.91L142,21a11.45,11.45,0,0,1-3.87-2.11l-.94.69A15.08,15.08,0,0,1,134.32,21l-.5-.73a11.81,11.81,0,0,0,3.67-1.94,8.22,8.22,0,0,1-2.06-4.14Zm4.24,3.65.21-.21a7.34,7.34,0,0,0,1.8-3.44h-3.84a8.49,8.49,0,0,0,.65,2A5.89,5.89,0,0,0,138.1,17.8Z"/><path class="cls-1" d="M146.33,17.74h.39l.67-.66,0-.08-.06,0h-.91a14.21,14.21,0,0,1-1.39,1l-.48-.59a11.34,11.34,0,0,0,2.45-1.8h-2.38V14.8h1.73v-1h-1.43v-.73h1.43v-.86h.76v.86h1.42v.44l.56-1,.63.34a17.69,17.69,0,0,1-1.19,1.93h.73v.73H148l-.27.3-.5.48h1.13l.51.47L147.37,18l.18.3c.73-.19,1.29-.36,1.69-.5l.22.73c-.34.12-.88.28-1.61.47.23.63.25,1.07.06,1.33a1.28,1.28,0,0,1-.54.49,2.55,2.55,0,0,1-1.86-.15l0-.84c.68.37,1.14.49,1.36.38a.81.81,0,0,0,.31-.3,1,1,0,0,0,0-.75l-2.27.44-.22-.74,2.17-.4Zm2-3.9h-1.24v1h.56l.44-.56ZM149.74,17,149,16.8a9.61,9.61,0,0,0,1.1-4.49h.76l-.06.88h2.5V14h-.58v.53a8.41,8.41,0,0,1-.78,3.46l-.32.56a11.39,11.39,0,0,0,1.74,2l-.71.41a13.62,13.62,0,0,1-1.45-1.83,8.07,8.07,0,0,1-2.14,1.8l-.56-.61a6.23,6.23,0,0,0,2.32-1.9,7.71,7.71,0,0,1-.67-2.24A6.5,6.5,0,0,1,149.74,17Zm1.49.72A7.19,7.19,0,0,0,152,14.5V14h-1.25a9.22,9.22,0,0,0,.11,2.28A6.32,6.32,0,0,0,151.23,17.73Z"/><path class="cls-1" d="M158.35,17.37a7.79,7.79,0,0,1-2.5,1.95l-.48-.67a7.13,7.13,0,0,0,1.93-1.28h-1.85v-.73h1.6V13.5h-1.37v-.72h1.37v-.53h.8v.53h3.76v-.53h.8v.53h1.43v.72h-1.43v3.14h1.65v.74H162a6.91,6.91,0,0,0,2.14,1.33l-.53.64a8.67,8.67,0,0,1-2.6-2Zm1,1.79h-2v-.72h2v-.68h.79v.68h2v.72h-2V20h3.63v.72h-8V20h3.59Zm2.27-5.05V13.5h-3.76v.61Zm0,1.28v-.63h-3.76v.63Zm0,1.25V16h-3.76v.6Z"/><path class="cls-1" d="M166.64,15.4l-.44-.76c2.14-.72,3.55-1.53,4.19-2.43l.77.16-.11.16a11.53,11.53,0,0,0,3.88,2.1l-.47.76a15.54,15.54,0,0,1-3.86-2.3A12.86,12.86,0,0,1,166.64,15.4Zm3.55,2.19h-3.66v-.8h3.66V15.68H168v-.8h5.12v.8H171v1.11h3.63v.8H171v2.32h3.71v.8h-8.24v-.8h3.74Zm-2.32.09a9.2,9.2,0,0,1,1,1.76l-.72.38a10.7,10.7,0,0,0-1-1.72Zm6,.46a19.47,19.47,0,0,1-1.12,1.68l-.61-.49a13.35,13.35,0,0,0,1.08-1.65Z"/><path class="cls-1" d="M183,14.29h-3.19V13.8a22.59,22.59,0,0,1-2.51.65l-.27-.76a8.08,8.08,0,0,0,4.27-1.46l.67.28-.07.06a11.29,11.29,0,0,0,3.86,1.15l-.29.76a21.44,21.44,0,0,1-2.47-.67Zm1.88,2.8h-7a.1.1,0,0,1-.11-.11V14.77c0-.06,0-.09.11-.09h7c.07,0,.11,0,.11.09V17A.1.1,0,0,1,184.88,17.09Zm-5.75,3.8h-.76V17.68c0-.09,0-.12.12-.12h5.85c.1,0,.16,0,.16.15v3.18h-.76v-.34h-4.61Zm1.22-4.49H181v-1h-2.51s0,0,0,0v1l0,0h1l-.36-.64.65-.35A5.66,5.66,0,0,1,180.35,16.4Zm3.39,2.33v-.42c0-.07,0-.1-.12-.1h-4.39c-.07,0-.11,0-.1.1v.42Zm-4.61.65v.51h4.61v-.51ZM181.37,13a8.54,8.54,0,0,1-1.09.58h2.25Zm1.95,3.37h.9l0,0v-1l0,0h-2.46v1h.64a6.27,6.27,0,0,0,.65-1l.62.41Z"/><path class="cls-2" d="M49.27,14.89a4.45,4.45,0,0,0-.56,1.43h2.17A1.6,1.6,0,0,1,51,16a2,2,0,0,1,1.45-1.16,2.16,2.16,0,0,1,.51-.07A1.79,1.79,0,0,1,54.56,16a2.88,2.88,0,0,1,0,.33h2.7l.31-1.69H49.45Z"/><path class="cls-2" d="M55.6,12.94,55.4,14h0a3.24,3.24,0,0,0-2.66-1.1,4,4,0,0,0-2.89,1.23h7.89l.22-1.22Z"/><path class="cls-2" d="M53.68,18.08a1.85,1.85,0,0,1-.74.27,2.45,2.45,0,0,1-.38,0,1.6,1.6,0,0,1-.91-.27l-.08,0a1.44,1.44,0,0,1-.74-1.29H48.64v.05l0,.25a3.72,3.72,0,0,0,.14,1.22l.06.17h8.11l.31-1.69H54.59a1.88,1.88,0,0,1-.91,1.29"/><path class="cls-2" d="M52,20.65a2.67,2.67,0,0,0,2.3-.92h0l-.15.84h2.33l.3-1.62H49a3.31,3.31,0,0,0,3,1.7"/><path class="cls-2" d="M30,14.74a1.81,1.81,0,0,1,1.8,1.58H34a3.77,3.77,0,0,0-.53-1.69H26.52A3.9,3.9,0,0,0,26,16.32h2.2A1.82,1.82,0,0,1,30,14.74"/><path class="cls-2" d="M30,12.63a4,4,0,0,0-3.15,1.53h6.3A4,4,0,0,0,30,12.63"/><path class="cls-2" d="M30,18.37a1.82,1.82,0,0,1-1.8-1.58H26a4,4,0,0,0,.43,1.69h7.15A3.86,3.86,0,0,0,34,16.79H31.79A1.82,1.82,0,0,1,30,18.37"/><path class="cls-2" d="M30,20.67A4,4,0,0,0,33.28,19H26.7A4,4,0,0,0,30,20.67"/><path class="cls-2" d="M3,19A5.21,5.21,0,0,0,5.7,20.47a6.64,6.64,0,0,0,3.56-.14L9.51,19H3Z"/><path class="cls-2" d="M11,9.3A6.34,6.34,0,0,0,8,8,5.16,5.16,0,0,0,2.82,9.84h8Z"/><path class="cls-2" d="M4.37,15c0-.14,0-.25,0-.34h-3v.18a8.2,8.2,0,0,0,.25,1.51H4.94A4.56,4.56,0,0,1,4.37,15"/><path class="cls-2" d="M2.46,10.35A7.41,7.41,0,0,0,1.66,12H5.11a3.3,3.3,0,0,1,3-1.21,5.3,5.3,0,0,1,2.1.94c.06,0,.25.18.3.23l.31-1.66H2.49Z"/><path class="cls-2" d="M7,18a3.17,3.17,0,0,1-1.61-1.07l-.08-.1H1.7l0,.1a6.57,6.57,0,0,0,.83,1.57l0,0h7l.14-.8A4.51,4.51,0,0,1,7,18"/><path class="cls-2" d="M4.8,12.46H1.52l-.05.17c0,.11-.06.22-.08.33a6.29,6.29,0,0,0-.11,1.2H4.33a3.25,3.25,0,0,1,.47-1.7"/><path class="cls-2" d="M18.73,13.75a2.4,2.4,0,0,0-2-.87,2.71,2.71,0,0,0-2.24,1h0l.23-1.21,0-.21h-2.4l-.3,1.7H19a2.05,2.05,0,0,0-.22-.41"/><polygon class="cls-2" points="15.13 10.3 12.73 10.3 12.42 12 14.81 12 15.13 10.3"/><polygon class="cls-2" points="15.85 20.55 18.23 20.55 18.52 18.95 16.13 18.95 15.85 20.55"/><path class="cls-2" d="M19.08,14.63H11.94l-.31,1.69H14v-.06a1.49,1.49,0,0,1,1.52-1.15c.9,0,1.05.64,1,1.15v.06H19v-.06a5.18,5.18,0,0,0,.1-1.51Z"/><polygon class="cls-2" points="16.21 18.48 18.61 18.48 18.91 16.79 16.51 16.79 16.21 18.48"/><polygon class="cls-2" points="11.24 18.48 13.63 18.48 13.95 16.79 11.55 16.79 11.24 18.48"/><polygon class="cls-2" points="15.53 8.12 13.13 8.12 12.81 9.84 15.22 9.84 15.53 8.12"/><polygon class="cls-2" points="10.87 20.55 13.24 20.55 13.54 18.95 11.15 18.95 10.87 20.55"/><path class="cls-2" d="M23.48,13.77l.13-.85H21.37l-.23,1.24H25.4l.23-1.22c-1.38,0-1.87.44-2.15.83"/><polygon class="cls-2" points="19.95 20.55 22.34 20.55 22.64 18.95 20.25 18.95 19.95 20.55"/><path class="cls-2" d="M20.74,16.32h2.39v-.06c.21-1,.93-1.39,2-.93l.13-.7H21.06Z"/><polygon class="cls-2" points="20.34 18.48 22.73 18.48 23.05 16.79 20.66 16.79 20.34 18.48"/><polygon class="cls-2" points="39.34 20.57 41.75 20.57 42.06 18.95 39.66 18.95 39.34 20.57"/><path class="cls-2" d="M47.4,14.63H35.6l-.31,1.69h2.43a1.47,1.47,0,0,1,1.4-.88.92.92,0,0,1,1,.88h2.42A1.44,1.44,0,0,1,44,15.44a.84.84,0,0,1,1,.88h2.42a5.71,5.71,0,0,0,.11-1.44Z"/><polygon class="cls-2" points="34.9 18.48 37.33 18.48 37.63 16.79 35.2 16.79 34.9 18.48"/><polygon class="cls-2" points="39.75 18.48 42.15 18.48 42.47 16.79 40.08 16.79 39.75 18.48"/><polygon class="cls-2" points="44.13 20.57 46.62 20.57 46.89 18.95 44.44 18.95 44.13 20.57"/><polygon class="cls-2" points="34.52 20.57 36.96 20.57 37.24 18.95 34.81 18.95 34.52 20.57"/><polygon class="cls-2" points="44.53 18.48 46.97 18.48 47.27 16.79 44.85 16.79 44.53 18.48"/><path class="cls-2" d="M47,13.76A2.52,2.52,0,0,0,45.05,13a3.26,3.26,0,0,0-2.76,1,2.43,2.43,0,0,0-2.19-1.07,2.34,2.34,0,0,0-2.19,1.14h0l.22-1.13H35.9l-.22,1.22H47.24a3.85,3.85,0,0,0-.26-.4"/></svg>