<?xml version="1.0" encoding="utf-8"?>
<!-- Generator: Adobe Illustrator 24.1.0, SVG Export Plug-In . SVG Version: 6.00 Build 0)  -->
<svg version="1.1" id="圖層_1" xmlns="http://www.w3.org/2000/svg" xmlns:xlink="http://www.w3.org/1999/xlink" x="0px" y="0px"
	 viewBox="0 0 78.3 30" style="enable-background:new 0 0 78.3 30;" xml:space="preserve">
<style type="text/css">
	.st0{fill:#009FE8;}
	.st1{fill:#585757;}
</style>
<g>
	<path class="st0" d="M65.48,9.56c-0.34,0.56-0.6,1.21-0.75,1.93h2.92c0.03-0.15,0.08-0.3,0.14-0.44c0.35-0.81,1.08-1.41,1.96-1.56
		c0.22-0.06,0.45-0.1,0.68-0.1c0.75,0,1.38,0.34,1.76,0.89c0.18,0.22,0.33,0.48,0.41,0.77c0.04,0.14,0.06,0.28,0.07,0.44h3.64
		l0.42-2.28H65.73L65.48,9.56z"/>
	<path class="st0" d="M74.02,6.94L73.75,8.4h-0.04c-0.26-0.65-1.86-1.48-3.59-1.48c-1.48,0-2.87,0.59-3.89,1.66h10.63l0.3-1.64
		H74.02z"/>
	<path class="st0" d="M71.43,13.87c-0.33,0.2-0.67,0.31-1,0.36c-0.17,0.03-0.34,0.06-0.52,0.06c-0.46,0-0.88-0.13-1.22-0.36
		c-0.03-0.02-0.07-0.03-0.1-0.06c-0.6-0.34-0.99-0.92-1-1.75h-2.95l-0.01,0.07c-0.01,0.11-0.03,0.22-0.03,0.33
		c-0.04,0.59,0.03,1.14,0.17,1.65l0.09,0.23l10.94,0l0.42-2.29h-3.55C72.52,12.94,72.01,13.53,71.43,13.87z"/>
	<path class="st0" d="M69.2,17.33c1.23-0.03,2.38-0.22,3.1-1.24h0.04l-0.21,1.14h3.14l0.41-2.19H65.12
		C65.92,16.56,67.55,17.38,69.2,17.33z"/>
	<path class="st0" d="M39.48,9.35c1.25,0,2.27,0.93,2.43,2.14h2.98c-0.07-0.82-0.32-1.6-0.72-2.28H34.8
		c-0.4,0.68-0.65,1.46-0.72,2.28h2.98C37.21,10.29,38.24,9.35,39.48,9.35z"/>
	<path class="st0" d="M39.48,6.51c-1.73,0-3.26,0.81-4.25,2.07h8.51C42.75,7.32,41.21,6.51,39.48,6.51z"/>
	<path class="st0" d="M39.48,14.25c-1.24,0-2.27-0.93-2.42-2.13h-2.99c0.03,0.82,0.24,1.6,0.59,2.29h9.64
		c0.35-0.69,0.57-1.46,0.59-2.29h-2.99C41.76,13.33,40.73,14.25,39.48,14.25z"/>
	<path class="st0" d="M39.48,17.35c1.84,0,3.46-0.92,4.45-2.31h-8.88C36.02,16.44,37.65,17.35,39.48,17.35z"/>
	<path class="st0" d="M3.06,15.05c0.9,0.95,2.09,1.69,3.66,2.04c1.78,0.39,3.3,0.3,4.81-0.19l0.34-1.85H3.05L3.06,15.05z"/>
	<path class="st0" d="M13.84,2.02c-1.13-0.86-2.27-1.46-3.99-1.76c-3.01-0.53-5.4,0.49-7,2.49h10.86L13.84,2.02z"/>
	<path class="st0" d="M4.93,9.68c-0.02-0.2-0.04-0.35-0.04-0.47H0.78l0.01,0.25c0.05,0.66,0.16,1.35,0.35,2.04h4.57
		C5.32,10.86,5.05,10.2,4.93,9.68z"/>
	<path class="st0" d="M2.36,3.43C1.92,4.1,1.55,4.9,1.27,5.66h4.65C6.78,4.59,8.5,3.74,9.94,4.03c0.98,0.2,1.97,0.63,2.83,1.27
		c0.08,0.06,0.33,0.23,0.41,0.31l0.41-2.24H2.4L2.36,3.43z"/>
	<path class="st0" d="M8.43,13.7c-0.81-0.18-1.61-0.79-2.17-1.44c-0.04-0.04-0.07-0.09-0.11-0.14H1.34l0.04,0.14
		C1.65,13,2.02,13.72,2.5,14.38l0.03,0.03h9.46l0.18-1.08C10.54,13.86,9.73,13.99,8.43,13.7z"/>
	<path class="st0" d="M5.51,6.29H1.09L1.02,6.52c-0.04,0.15-0.07,0.29-0.1,0.44c-0.1,0.48-0.15,1.03-0.16,1.62h4.12
		C4.9,7.87,4.98,7.22,5.51,6.29z"/>
	<path class="st0" d="M24.3,8.03c-0.53-0.81-1.68-1.18-2.7-1.18c-1.14,0-2.29,0.39-3.01,1.36h-0.04l0.3-1.64l0.05-0.28h-3.23
		l-0.41,2.29h9.34C24.52,8.4,24.43,8.21,24.3,8.03z"/>
	<polygon class="st0" points="19.44,3.38 16.21,3.38 15.79,5.66 19.02,5.66 	"/>
	<polygon class="st0" points="20.42,17.2 23.63,17.2 24.02,15.04 20.8,15.04 	"/>
	<path class="st0" d="M24.78,9.21h-9.63l-0.42,2.28h3.24l0.01-0.08c0.21-0.67,0.72-1.55,2.05-1.55c1.22,0,1.41,0.86,1.39,1.55
		l-0.01,0.08h3.25l0.02-0.08c0.14-0.84,0.21-1.48,0.14-2.04L24.78,9.21z"/>
	<polygon class="st0" points="20.91,14.41 24.13,14.41 24.54,12.12 21.3,12.12 	"/>
	<polygon class="st0" points="14.2,14.41 17.43,14.41 17.85,12.12 14.61,12.12 	"/>
	<polygon class="st0" points="19.99,0.44 16.74,0.44 16.32,2.75 19.56,2.75 	"/>
	<polygon class="st0" points="13.69,17.2 16.9,17.2 17.3,15.04 14.09,15.04 	"/>
	<path class="st0" d="M30.71,8.05l0.17-1.14h-3.01l-0.31,1.67h5.74l0.3-1.65C31.75,6.93,31.08,7.53,30.71,8.05z"/>
	<polygon class="st0" points="25.95,17.2 29.16,17.2 29.57,15.04 26.35,15.04 	"/>
	<path class="st0" d="M27.01,11.49h3.23l0.02-0.08c0.28-1.38,1.25-1.88,2.74-1.25l0.18-0.95h-5.75L27.01,11.49z"/>
	<polygon class="st0" points="26.47,14.41 29.69,14.41 30.12,12.12 26.9,12.12 	"/>
	<polygon class="st0" points="52.1,17.22 55.34,17.22 55.76,15.04 52.52,15.04 	"/>
	<path class="st0" d="M62.97,9.21H47.05l-0.41,2.28h3.28c0.3-0.6,0.84-1.18,1.88-1.18c0.95,0,1.35,0.59,1.4,1.18h3.26
		c0.28-0.59,0.81-1.18,1.88-1.18c1,0,1.28,0.55,1.31,1.18h3.26c0.14-0.84,0.2-1.44,0.15-1.94L62.97,9.21z"/>
	<polygon class="st0" points="46.1,14.41 49.38,14.41 49.78,12.12 46.52,12.12 	"/>
	<polygon class="st0" points="52.64,14.41 55.88,14.41 56.32,12.12 53.09,12.12 	"/>
	<polygon class="st0" points="58.55,17.22 61.91,17.22 62.28,15.04 58.97,15.04 	"/>
	<polygon class="st0" points="45.6,17.22 48.88,17.22 49.27,15.04 45.99,15.04 	"/>
	<polygon class="st0" points="59.09,14.41 62.39,14.41 62.79,12.12 59.53,12.12 	"/>
	<path class="st0" d="M62.4,8.04c-0.69-0.89-1.85-1.02-2.6-1.06c-0.68-0.04-1.94-0.22-3.72,1.38c-1.05-1.33-2.02-1.45-2.96-1.45
		c-1.99,0-2.62,1.1-2.95,1.54h-0.04l0.3-1.53h-2.97l-0.3,1.65h15.58C62.65,8.4,62.54,8.23,62.4,8.04z"/>
</g>
<path class="st1" d="M8.85,26.59l-0.61-0.16l0.21-0.48L7.92,26.1l-0.12-0.34l-0.68,0.09v0.95h1.09v0.6H7.11v1.22
	c0.39-0.09,0.76-0.22,1.12-0.38l0.26,0.59c-1.01,0.37-2.05,0.63-3.12,0.77l-0.22-0.62l1.33-0.2v-1.37H5.32v-0.59h1.17v-0.9
	l-1.15,0.16l-0.18-0.61l0.44-0.05c0.25-0.5,0.47-1.01,0.65-1.54H5.3V23.3h3.18v0.58H6.88c-0.14,0.4-0.34,0.88-0.59,1.44l1.31-0.17
	l-0.29-0.65l0.54-0.21c0.24,0.5,0.44,1.01,0.62,1.54C8.83,24.94,9.01,23.97,9,23h0.57l-0.05,0.77h2.31v0.61h-0.49
	c0.02,1.17-0.27,2.33-0.83,3.36c0.4,0.58,0.86,1.12,1.37,1.61l-0.58,0.31c-0.43-0.44-0.81-0.92-1.13-1.45
	c-0.46,0.57-0.99,1.09-1.57,1.55L8.1,29.31c0.67-0.43,1.28-0.94,1.82-1.52c-0.34-0.69-0.57-1.43-0.68-2.19
	C9.14,25.94,9.01,26.27,8.85,26.59z M10.21,27.26c0.42-0.86,0.62-1.82,0.58-2.78H9.6c0.02,0.7,0.13,1.39,0.32,2.06
	c0.07,0.24,0.17,0.48,0.3,0.71L10.21,27.26z"/>
<path class="st1" d="M18.73,25.91h-1.97c-0.05,0-0.07,0-0.07,0.08v1.27c0.02,0.86-0.22,1.7-0.68,2.43l-0.57-0.24
	c0.22-0.36,0.39-0.74,0.5-1.15c0.08-0.4,0.13-0.82,0.12-1.23v-1.59c0-0.12,0.05-0.17,0.16-0.17h2.31l-0.11-0.71l0.61-0.1
	c0.03,0.27,0.08,0.54,0.14,0.81h2.66v0.61h-2.5c0.17,0.49,0.36,0.96,0.59,1.43c0.26-0.32,0.54-0.7,0.84-1.14l0.51,0.34
	c-0.29,0.49-0.63,0.95-1.02,1.36c0.53,0.77,0.89,1.12,1.06,1.12c0.04,0,0.07-0.06,0.09-0.19c0.03-0.29,0.03-0.58,0-0.88l0.61,0.11
	c0.05,0.9-0.05,1.44-0.27,1.61c-0.06,0.04-0.13,0.07-0.21,0.08c-0.18,0.02-0.36-0.04-0.5-0.16c-0.49-0.35-0.91-0.78-1.25-1.29
	c-0.85,0.63-1.81,1.1-2.83,1.38l-0.34-0.58c1.02-0.24,1.99-0.69,2.84-1.31C19.14,27.2,18.89,26.57,18.73,25.91z M17.81,24.21v0.56
	h-0.61v-0.55h-1.63V23.6h1.63v-0.61h0.61v0.61h2.07v-0.61h0.61v0.61h1.62v0.62H20.5v0.56h-0.61v-0.56L17.81,24.21z M21.14,24.29
	c0.29,0.27,0.52,0.48,0.64,0.61l-0.41,0.37c-0.18-0.22-0.4-0.42-0.63-0.59L21.14,24.29z"/>
<path class="st1" d="M25.98,24.44v-0.64h2.97v-0.77h0.63v0.77h2.93v0.64h-1.09c-0.27,1.2-0.87,2.31-1.73,3.2
	c0.87,0.67,1.86,1.17,2.92,1.47l-0.38,0.59c-1.08-0.35-2.09-0.9-2.97-1.62l-0.72,0.53c-0.69,0.44-1.43,0.81-2.21,1.09l-0.38-0.56
	c1.02-0.33,1.98-0.83,2.82-1.49c-0.82-0.89-1.37-1.99-1.58-3.18L25.98,24.44z M29.23,27.25l0.16-0.16c0.69-0.74,1.17-1.65,1.38-2.64
	h-2.95c0.1,0.53,0.27,1.05,0.5,1.54C28.55,26.45,28.86,26.88,29.23,27.25z"/>
<path class="st1" d="M37.47,27.26h0.3l0.53-0.51v-0.06h-0.74c-0.34,0.28-0.7,0.53-1.07,0.77l-0.37-0.45
	c0.69-0.37,1.32-0.84,1.88-1.38h-1.83V25h1.33v-0.77h-1.1v-0.55h1.1v-0.68h0.58v0.68h1.09v0.34l0.43-0.77l0.48,0.26
	c-0.27,0.51-0.58,1.01-0.91,1.49h0.56v0.56h-0.97l-0.21,0.23l-0.38,0.37h0.87l0.39,0.36l-1.15,0.95l0.14,0.23
	c0.56-0.15,0.99-0.28,1.3-0.38l0.17,0.56c-0.26,0.09-0.68,0.21-1.24,0.36c0.18,0.48,0.19,0.82,0.04,1.02
	c-0.1,0.16-0.24,0.29-0.41,0.38c-0.47,0.14-0.98,0.1-1.43-0.12v-0.64c0.52,0.28,0.88,0.38,1.05,0.29c0.1-0.05,0.18-0.13,0.24-0.23
	c0.07-0.19,0.07-0.39,0-0.58l-1.74,0.34l-0.17-0.57l1.67-0.31L37.47,27.26z M39,24.27h-0.95v0.78h0.43l0.34-0.43L39,24.27z
	 M40.09,26.69l-0.57-0.15c0.56-1.06,0.85-2.25,0.84-3.45h0.58l-0.04,0.68h1.92v0.62h-0.45v0.41c-0.01,0.92-0.21,1.83-0.6,2.66
	l-0.24,0.43c0.39,0.56,0.83,1.08,1.34,1.54l-0.55,0.31c-0.41-0.44-0.78-0.91-1.12-1.4c-0.46,0.55-1.02,1.02-1.64,1.38l-0.43-0.47
	c0.7-0.34,1.32-0.84,1.78-1.46c-0.26-0.55-0.42-1.13-0.5-1.73C40.31,26.28,40.21,26.49,40.09,26.69z M41.23,27.25
	c0.39-0.77,0.59-1.62,0.59-2.48v-0.38h-0.96c-0.05,0.58-0.02,1.17,0.08,1.75C41,26.52,41.09,26.9,41.23,27.25L41.23,27.25z"/>
<path class="st1" d="M48.71,27.05c-0.53,0.63-1.18,1.14-1.92,1.5l-0.38-0.52c0.55-0.24,1.05-0.58,1.48-0.98h-1.42v-0.56h1.23v-2.41
	h-1.06v-0.55h1.06v-0.41h0.61v0.41h2.89v-0.41h0.63v0.41h1.1v0.55h-1.1v2.41h1.27v0.57h-1.58c0.48,0.44,1.04,0.78,1.64,1.02
	l-0.41,0.49c-0.76-0.38-1.43-0.9-2-1.54L48.71,27.05z M49.48,28.43h-1.54v-0.55h1.54v-0.52h0.6v0.52h1.54v0.55h-1.54v0.64h2.79v0.55
	h-6.15v-0.55h2.76L49.48,28.43z M51.22,24.55v-0.47h-2.89v0.47H51.22z M51.22,25.53v-0.49h-2.89v0.49H51.22z M51.22,26.49V26h-2.89
	v0.48L51.22,26.49z"/>
<path class="st1" d="M57.22,25.56l-0.34-0.58c1.65-0.55,2.71-1.18,3.22-1.87l0.59,0.12l-0.08,0.12c0.88,0.73,1.89,1.27,2.98,1.62
	l-0.36,0.58c-1.07-0.44-2.07-1.04-2.97-1.77C59.37,24.55,58.34,25.15,57.22,25.56z M59.94,27.25h-2.81v-0.63h2.81v-0.86h-1.7v-0.61
	h3.94v0.61h-1.63v0.86h2.79v0.61h-2.79v1.78h2.85v0.61h-6.31v-0.61h2.87L59.94,27.25z M58.15,27.33c0.31,0.42,0.56,0.88,0.77,1.36
	l-0.55,0.29c-0.21-0.46-0.47-0.91-0.77-1.32L58.15,27.33z M62.76,27.66c-0.26,0.45-0.55,0.88-0.86,1.29l-0.46-0.38
	c0.31-0.4,0.58-0.82,0.83-1.27L62.76,27.66z"/>
<path class="st1" d="M71.63,24.63h-2.45v-0.38c-0.63,0.2-1.28,0.37-1.93,0.5l-0.21-0.58c1.18-0.05,2.32-0.44,3.28-1.12l0.52,0.21
	l-0.05,0.05c0.93,0.47,1.93,0.77,2.97,0.89l-0.22,0.58c-0.64-0.13-1.28-0.31-1.9-0.52V24.63z M73.08,26.78h-5.39
	c-0.04,0-0.08-0.03-0.08-0.07V25c0-0.04,0-0.07,0.08-0.07h5.38c0.05,0,0.08,0,0.08,0.07v1.7c0,0.04-0.04,0.07-0.08,0.07c0,0,0,0,0,0
	L73.08,26.78z M68.66,29.7h-0.58v-2.47c0-0.07,0-0.1,0.09-0.1h4.5c0.08,0,0.12,0,0.12,0.12v2.45h-0.58v-0.26h-3.55L68.66,29.7z
	 M69.6,26.25h0.5v-0.77h-1.93v0.77h0.77l-0.27-0.49l0.5-0.27C69.33,25.73,69.47,25.98,69.6,26.25L69.6,26.25z M72.21,28.04V27.7
	c0-0.05,0-0.07-0.09-0.07h-3.37c-0.05,0-0.08,0-0.08,0.07v0.34H72.21z M68.66,28.54v0.39h3.54v-0.39H68.66z M70.38,23.64
	c-0.27,0.17-0.55,0.32-0.84,0.45h1.73L70.38,23.64z M71.88,26.23h0.68v-0.77h-1.89v0.77h0.49c0.19-0.24,0.36-0.5,0.5-0.77l0.48,0.32
	L71.88,26.23z"/>
</svg>
