<svg id="圖層_1" data-name="圖層 1" xmlns="http://www.w3.org/2000/svg" viewBox="0 0 417.87 30"><defs><style>.cls-1{fill:#595757;}.cls-2{fill:#0098d8;}</style></defs><path class="cls-1" d="M149.07,20.57l-1.82-.48.66-1.42-1.58.47-.34-1-2,.27v2.81h3.26V23H144v3.6a17.9,17.9,0,0,0,3.28-1.13l.77,1.74A41.47,41.47,0,0,1,139,29.45l-.61-1.81,3.72-.64V23h-3.35V21.25h3.35V18.6l-3.4.48-.54-1.79,1.29-.14a37.51,37.51,0,0,0,1.92-4.53h-2.72V10.9H148v1.72h-4.67c-.41,1.18-1,2.6-1.74,4.24l3.85-.5-.86-1.91,1.6-.38A44.14,44.14,0,0,1,148,18.6a22.21,22.21,0,0,0,1.56-8.34h1.61L151,12.53h6.8v1.79h-1.43a19.65,19.65,0,0,1-2.31,9.94A31.09,31.09,0,0,0,158.13,29l-1.7.9a26.52,26.52,0,0,1-3.35-4.26,27.08,27.08,0,0,1-4.72,4.29l-1.47-1.3a27.2,27.2,0,0,0,5.28-4.53,20.62,20.62,0,0,1-2-6.45A17,17,0,0,1,149.07,20.57Zm4,2a16.88,16.88,0,0,0,1.7-8.18h-3.49a26.48,26.48,0,0,0,.95,6.07A11.32,11.32,0,0,0,153.1,22.54Z"/><path class="cls-1" d="M172.4,18.6h-5.8a.21.21,0,0,0-.21.2v3.76a12.86,12.86,0,0,1-2,7.16L162.73,29a12.31,12.31,0,0,0,1.49-3.33,17,17,0,0,0,.36-3.62V17.31a.43.43,0,0,1,.35-.5h6.95l-.37-2.08,1.82-.3a23.77,23.77,0,0,0,.45,2.38h7.84V18.6h-7.3A32.44,32.44,0,0,0,176,22.84c.77-1,1.59-2.07,2.5-3.38l1.51,1a22.24,22.24,0,0,1-3,4c1.59,2.27,2.65,3.31,3.1,3.31s.25-.2.28-.54a14,14,0,0,0,0-2.59l1.79.32c.13,2.65-.14,4.24-.78,4.74a1.74,1.74,0,0,1-.63.25,2,2,0,0,1-1.47-.48,13.68,13.68,0,0,1-3.65-3.78,25.1,25.1,0,0,1-8.4,4.07l-1-1.76a23.27,23.27,0,0,0,8.36-3.85A24.18,24.18,0,0,1,172.4,18.6Zm-2.77-5v1.65h-1.81V13.62H163V11.8h4.8V10h1.81V11.8h6.1V10h1.81V11.8h4.73v1.82h-4.73v1.65h-1.81V13.62Zm9.79.22c.88.8,1.52,1.41,1.9,1.82l-1.24,1.06A9.57,9.57,0,0,0,178.26,15Z"/><path class="cls-1" d="M189.63,14.86a.17.17,0,0,0-.18.13v2.84h-1.72V13.55a.27.27,0,0,1,.22-.32h8.37v-.9H189.2V10.79h15.86v1.54H198v.9h7.68l1.5.75a15.57,15.57,0,0,1-.73,3.94l-1.67-.5a9.64,9.64,0,0,0,.45-2.26c0-.16,0-.25-.21-.25h-7v4.53h-1.72V14.91Zm-.47,11.92c-.14,0-.2,0-.2-.25V20.34c0-.15,0-.22.2-.22H205a.19.19,0,0,1,.23.18v6.23a.24.24,0,0,1-.2.25H197.9v.13a.94.94,0,0,0,.27.68,1.11,1.11,0,0,0,.68.3h6a.86.86,0,0,0,.5-.21,6.73,6.73,0,0,0,.18-1.42l1.63.4a9.26,9.26,0,0,1-.41,2.27,1.75,1.75,0,0,1-1.2.66h-7.63a1.89,1.89,0,0,1-1.2-.57,1.64,1.64,0,0,1-.5-1.13V26.84Zm6.27-8.93v1.38h-5.34V17.85Zm0-2.26V17h-5.21v-1.4Zm.8,5.93h-5.62v1.07h5.64Zm0,2.54h-5.69v1.06h5.57ZM198,22.65h5.5V21.59H197.9Zm0,2.56h5.48V24.15H197.9Zm6.29-9.62V17H199v-1.4Zm.14,2.26v1.38H199V17.85Z"/><path class="cls-1" d="M223.61,21.18a17.75,17.75,0,0,1,.77,3.74,4,4,0,0,1-1.29,3.85,4.81,4.81,0,0,1-3.22.91,10.61,10.61,0,0,1-4.21-1.27l.39-1.93a7.09,7.09,0,0,0,4.37,1.29,2.25,2.25,0,0,0,1.79-1.27,9.06,9.06,0,0,0-.71-5.43h-9.58v-1.9h8.91a24.46,24.46,0,0,0-1.45-2.84h1.33l5.17-3.64m0-.16a.17.17,0,0,0-.16-.11h-11.8V10.51h14l1.61,1.86-7.18,5.05.68,1.75h8.34v1.9h-7.75Z"/><path class="cls-1" d="M243.27,18.35v2.92h-2.9V18.35Z"/><path class="cls-1" d="M261.87,20.57l-1.81-.48.63-1.42-1.56.47-.34-1-2,.27v2.81H260V23h-3.26v3.6a18.46,18.46,0,0,0,3.31-1.13l.77,1.74a42.08,42.08,0,0,1-9.18,2.27L251,27.64l3.92-.59V23h-3.45V21.25h3.45V18.6l-3.38.48L251,17.29l1.29-.14a39.24,39.24,0,0,0,1.93-4.53H251.4V10.9h9.36v1.72h-4.69c-.41,1.18-1,2.6-1.74,4.24l3.85-.5-.84-1.91,1.58-.61a42,42,0,0,1,1.82,4.53A22,22,0,0,0,262.32,10H264l-.14,2.26h6.8v1.79h-1.43a20,20,0,0,1-2.44,9.9,29.51,29.51,0,0,0,4.05,4.73l-1.72.91a25.44,25.44,0,0,1-3.33-4.26,28.19,28.19,0,0,1-4.64,4.56l-1.5-1.3A27.5,27.5,0,0,0,265,24.1,21.12,21.12,0,0,1,263,17.65,16.18,16.18,0,0,1,261.87,20.57Zm4,2a16.88,16.88,0,0,0,1.7-8.18h-3.49a25.36,25.36,0,0,0,.95,6.07A11.32,11.32,0,0,0,265.9,22.54Z"/><path class="cls-1" d="M285.2,18.6h-5.8c-.14,0-.2,0-.2.23v3.73a12.87,12.87,0,0,1-2,7.16L275.53,29A12.62,12.62,0,0,0,277,25.62a17,17,0,0,0,.36-3.62V17.31c0-.34.14-.5.48-.5h6.8l-.32-2.08,1.81-.3a19.09,19.09,0,0,0,.41,2.38h7.84V18.6H287a37.6,37.6,0,0,0,1.73,4.21c.77-.95,1.6-2.06,2.49-3.37l1.51,1a21.68,21.68,0,0,1-3,4c1.57,2.27,2.63,3.31,3.11,3.31.13,0,.22-.18.27-.55a13.9,13.9,0,0,0,0-2.58l1.79.32c.14,2.65-.16,4.24-.79,4.73a1.4,1.4,0,0,1-.62.25,2,2,0,0,1-1.47-.47,14.08,14.08,0,0,1-3.67-3.79A24.93,24.93,0,0,1,280,29.72L279,28a23.25,23.25,0,0,0,8.36-3.85A24.22,24.22,0,0,1,285.2,18.6Zm-2.7-5v1.65h-1.79V13.64h-4.8V11.8h4.8V10h1.79V11.8h6.1V10h1.81V11.8h4.76v1.82h-4.76v1.65H288.6V13.62Zm9.81.23c.86.79,1.52,1.4,1.9,1.81L293,16.74A9.39,9.39,0,0,0,291.13,15Z"/><path class="cls-1" d="M300.31,14.41V12.53h8.76V10.26h1.86v2.27h8.63v1.88h-3.22a20.06,20.06,0,0,1-5.09,9.44,25.14,25.14,0,0,0,8.61,4.33l-1.11,1.75A26.12,26.12,0,0,1,310,25.15l-2.13,1.56a34.5,34.5,0,0,1-6.5,3.22l-1.13-1.66a26.75,26.75,0,0,0,8.31-4.39,18.68,18.68,0,0,1-4.67-9.38Zm9.6,8.27.48-.48a16.56,16.56,0,0,0,4.07-7.79h-8.69a19,19,0,0,0,1.47,4.53A13.38,13.38,0,0,0,309.91,22.68Z"/><path class="cls-1" d="M328.55,22.54h.89L331,21.05v-.19h-2.19a33,33,0,0,1-3.15,2.27l-1.09-1.34a25.5,25.5,0,0,0,5.55-4.07h-5.39V15.88h3.92V13.62h-3.24V12h3.24V10h1.72V12h3.22v1l1.27-2.27,1.42.77a39.24,39.24,0,0,1-2.69,4.38h1.65v1.65h-2.85l-.62.68-1.13,1.09h2.56l1.16,1.06-3.4,2.81.41.68c1.65-.43,2.92-.82,3.82-1.13l.5,1.65c-.77.27-2,.63-3.64,1.07.52,1.42.56,2.42.13,3a2.91,2.91,0,0,1-1.22,1.11,5.79,5.79,0,0,1-4.21-.34v-1.9c1.54.83,2.58,1.11,3.08.86a1.9,1.9,0,0,0,.7-.68,2.27,2.27,0,0,0,0-1.7l-5.14,1-.5-1.67,4.91-.91Zm4.53-8.83h-2.81V16h1.27l1-1.27Zm3.2,7.15-1.68-.45a21.72,21.72,0,0,0,2.49-10.17h1.72l-.13,2h5.66v1.84H343v1.2a19.14,19.14,0,0,1-1.77,7.84l-.72,1.27a26.1,26.1,0,0,0,3.94,4.53l-1.61.92a31.31,31.31,0,0,1-3.29-4.14,18.25,18.25,0,0,1-4.84,4.08l-1.27-1.38a14.17,14.17,0,0,0,5.25-4.31A17.25,17.25,0,0,1,337.21,19,15.23,15.23,0,0,1,336.28,20.86Zm3.37,1.64a16.39,16.39,0,0,0,1.75-7.3V14.07h-2.83a20.74,20.74,0,0,0,.24,5.16,14.33,14.33,0,0,0,.84,3.29Z"/><path class="cls-1" d="M355.78,21.7a17.55,17.55,0,0,1-5.66,4.42L349,24.6a16,16,0,0,0,4.37-2.9h-4.19V20.05h3.63V12.94h-3.11V11.31h3.11v-1.2h1.81v1.2h8.51v-1.2H365v1.2h3.24v1.63H365v7.11h3.73v1.68h-4.66a15.8,15.8,0,0,0,4.84,3l-1.2,1.45a19.55,19.55,0,0,1-5.88-4.53Zm2.27,4.06h-4.54V24.13h4.54V22.59h1.78v1.54h4.53v1.63h-4.53v1.9h8.23v1.63H349.94V27.66h8.13Zm5.14-11.44V12.94h-8.52v1.38Zm0,2.9V15.79h-8.52v1.43Zm0,2.83V18.6h-8.52V20Z"/><path class="cls-1" d="M374.56,17.24l-1-1.72c4.85-1.63,8-3.47,9.49-5.5l1.75.36-.25.36a26.08,26.08,0,0,0,8.79,4.76l-1.07,1.72A35.3,35.3,0,0,1,383.53,12,29,29,0,0,1,374.56,17.24Zm8,5h-8.29V20.39h8.29V17.87h-5V16.06h11.6v1.81h-4.81v2.52h8.23V22.2h-8.23v5.26h8.41v1.81H374.17V27.46h8.47Zm-5.26.21a20.88,20.88,0,0,1,2.27,4l-1.63.86a23.66,23.66,0,0,0-2.27-3.89Zm13.59,1a41.78,41.78,0,0,1-2.53,3.8L387,26.14a30.65,30.65,0,0,0,2.44-3.73Z"/><path class="cls-1" d="M411.61,14.73h-7.22V13.62a50.53,50.53,0,0,1-5.69,1.47l-.61-1.72a18.27,18.27,0,0,0,9.67-3.31l1.52.63-.16.14a25.59,25.59,0,0,0,8.75,2.61l-.66,1.72a49.83,49.83,0,0,1-5.6-1.52Zm4.26,6.34H400a.23.23,0,0,1-.25-.2V15.81c0-.13,0-.2.25-.2h15.85c.16,0,.25,0,.25.2v5a.22.22,0,0,1-.24.21Zm-13,8.61h-1.72V22.41c0-.21,0-.28.27-.28h13.25c.23,0,.36,0,.36.34v7.21h-1.72v-.77H402.85Zm2.76-10.17h1.47V17.24H401.4v2.27h2.26l-.81-1.45,1.47-.8A12.59,12.59,0,0,1,405.61,19.51Zm7.68,5.27v-1c0-.16,0-.22-.27-.22h-9.94c-.16,0-.25,0-.23.22v1Zm-10.44,1.48v1.15h10.44V26.26Zm5.07-14.46a18.86,18.86,0,0,1-2.47,1.32h5.1Zm4.42,7.64h2V17.17h-5.57v2.27h1.45a14.68,14.68,0,0,0,1.47-2.27l1.4.93Z"/><path class="cls-2" d="M108.7,16.09a10.37,10.37,0,0,0-1.27,3.23h4.92a3.13,3.13,0,0,1,.27-.72A4.57,4.57,0,0,1,115.91,16a4.91,4.91,0,0,1,1.15-.16,4,4,0,0,1,3.62,2.79,4.69,4.69,0,0,1,0,.75h6.12l.7-3.83H109.11Z"/><path class="cls-2" d="M123,11.67l-.45,2.4h0a7.32,7.32,0,0,0-6-2.49A9.06,9.06,0,0,0,110,14.36h17.87l.5-2.76Z"/><path class="cls-2" d="M118.69,23.31a3.81,3.81,0,0,1-2.54.61,3.6,3.6,0,0,1-2.06-.61h-.18a3.24,3.24,0,0,1-1.67-2.92h-5v.68a8.32,8.32,0,0,0,.31,2.76l.14.39H126.1l.7-3.83h-6a4.23,4.23,0,0,1-2.06,2.92"/><path class="cls-2" d="M114.89,29.13a6,6,0,0,0,5.21-2.08h0l-.34,1.9H125l.68-3.67H108.09a7.5,7.5,0,0,0,6.8,3.85"/><path class="cls-2" d="M65.05,15.75a4.09,4.09,0,0,1,4.08,3.57h5a8.48,8.48,0,0,0-1.2-3.82H57.17A8.93,8.93,0,0,0,56,19.32h5a4.11,4.11,0,0,1,4.07-3.57"/><path class="cls-2" d="M65.05,11a9,9,0,0,0-7.13,3.46H72.19A9,9,0,0,0,65.05,11"/><path class="cls-2" d="M65.05,24A4.13,4.13,0,0,1,61,20.39H56a9.13,9.13,0,0,0,1,3.83H73.16a8.67,8.67,0,0,0,1-3.83h-5A4.12,4.12,0,0,1,65.05,24"/><path class="cls-2" d="M65.05,29.18a9.06,9.06,0,0,0,7.43-3.78H57.58a9.08,9.08,0,0,0,7.47,3.78"/><path class="cls-2" d="M3.9,25.4A11.73,11.73,0,0,0,10,28.72a15,15,0,0,0,8.07-.31l.56-3Z"/><path class="cls-2" d="M22,3.42A14.33,14.33,0,0,0,15.22.48,11.69,11.69,0,0,0,3.49,4.65H21.61Z"/><path class="cls-2" d="M7,16.33v-.77H.2V16a19.69,19.69,0,0,0,.57,3.42H8.29A10.21,10.21,0,0,1,7,16.33"/><path class="cls-2" d="M2.67,5.8A17.22,17.22,0,0,0,.86,9.54H8.68A7.44,7.44,0,0,1,15.47,6.8a12,12,0,0,1,4.76,2.13c.13,0,.56.41.68.52l.7-3.76H2.74Z"/><path class="cls-2" d="M13,23.13a7.22,7.22,0,0,1-3.65-2.42l-.18-.23H1v.23a14.91,14.91,0,0,0,1.88,3.55H18.69L19,22.45a10.19,10.19,0,0,1-6,.68"/><path class="cls-2" d="M8,10.58H.54L.43,11a5,5,0,0,1-.18.74A14.64,14.64,0,0,0,0,14.43H6.91A7.34,7.34,0,0,1,8,10.58"/><path class="cls-2" d="M39.53,13.5a5.48,5.48,0,0,0-4.53-2,6.18,6.18,0,0,0-5.08,2.27h0l.52-2.74v-.48H25l-.68,3.85H40.14a4.63,4.63,0,0,0-.5-.93"/><polygon class="cls-2" points="31.37 5.69 25.94 5.69 25.23 9.54 30.65 9.54 31.37 5.69"/><polygon class="cls-2" points="33 28.91 38.39 28.91 39.05 25.28 33.64 25.28 33 28.91"/><path class="cls-2" d="M40.32,15.5H24.15l-.71,3.82h5.37v-.13a3.38,3.38,0,0,1,3.45-2.61c2,0,2.37,1.45,2.26,2.61v.13h5.62v-.13a11.56,11.56,0,0,0,.22-3.42Z"/><polygon class="cls-2" points="33.82 24.22 39.25 24.22 39.93 20.39 34.5 20.39 33.82 24.22"/><polygon class="cls-2" points="22.56 24.22 27.97 24.22 28.7 20.39 23.26 20.39 22.56 24.22"/><polygon class="cls-2" points="32.28 0.75 26.84 0.75 26.12 4.65 31.58 4.65 32.28 0.75"/><polygon class="cls-2" points="21.72 28.91 27.09 28.91 27.77 25.28 22.36 25.28 21.72 28.91"/><path class="cls-2" d="M50.29,13.55l.29-1.93H45.51L45,14.43h9.64l.53-2.76c-3.13,0-4.24,1-4.87,1.88"/><polygon class="cls-2" points="42.29 28.91 47.7 28.91 48.38 25.28 42.97 25.28 42.29 28.91"/><path class="cls-2" d="M44.08,19.32h5.41v-.13C50,16.92,51.6,16,54,17.08l.3-1.58H44.8Z"/><polygon class="cls-2" points="43.17 24.22 48.59 24.22 49.31 20.39 43.9 20.39 43.17 24.22"/><polygon class="cls-2" points="86.21 28.95 91.67 28.95 92.37 25.28 86.94 25.28 86.21 28.95"/><path class="cls-2" d="M104.47,15.5H77.74L77,19.32h5.5a3.34,3.34,0,0,1,3.17-2A2.09,2.09,0,0,1,88,19.22s0,.07,0,.1h5.48a3.27,3.27,0,0,1,3.31-2A1.9,1.9,0,0,1,99,18.83a2,2,0,0,1,0,.49h5.48a12.71,12.71,0,0,0,.25-3.26Z"/><polygon class="cls-2" points="76.15 24.22 81.66 24.22 82.34 20.39 76.83 20.39 76.15 24.22"/><polygon class="cls-2" points="87.14 24.22 92.58 24.22 93.3 20.39 87.89 20.39 87.14 24.22"/><polygon class="cls-2" points="97.06 28.95 102.7 28.95 103.31 25.28 97.76 25.28 97.06 28.95"/><polygon class="cls-2" points="75.29 28.95 80.82 28.95 81.45 25.28 75.95 25.28 75.29 28.95"/><polygon class="cls-2" points="97.97 24.22 103.49 24.22 104.17 20.39 98.69 20.39 97.97 24.22"/><path class="cls-2" d="M103.56,13.53a5.71,5.71,0,0,0-4.42-1.73,7.43,7.43,0,0,0-6.25,2.27,5.5,5.5,0,0,0-5-2.42,5.27,5.27,0,0,0-5,2.58h0l.5-2.56h-5l-.5,2.76H104.1a8.6,8.6,0,0,0-.58-.9"/></svg>