<svg id="圖層_1" data-name="圖層 1" xmlns="http://www.w3.org/2000/svg" viewBox="0 0 148.3 30"><defs><style>.cls-1{fill:#d7000f;fill-rule:evenodd;}.cls-2{fill:#231815;}</style></defs><path class="cls-1" d="M15.68,16.32a3,3,0,0,1-.84.79,8.43,8.43,0,0,1-1.34.52,2.45,2.45,0,0,1-2.09-.31,3.08,3.08,0,0,1-1.11-4c1.09-2.14,4.13-4,6.13-1.91a2.41,2.41,0,0,1,.72,2.08,4.54,4.54,0,0,1-.88,2c-.19.26-.38.55-.59.81"/><path class="cls-1" d="M25.59,13.89c-.05-1.91.18-3.51-.33-5.36a9.43,9.43,0,0,0-.82-2.38,9.73,9.73,0,0,0-1.7-2.44A9,9,0,0,0,20.4,2a6.4,6.4,0,0,0-.9-.31c-.56-.16-1.2-.4-1.76-.51L17.08,1C16.63.94,16.21.8,15.76.71a7.17,7.17,0,0,0-1.3-.2c-.68,0-1.32.31-2,.38A13,13,0,0,0,10.39,1c-.51.13-1,.43-1.46.6A4.2,4.2,0,0,0,6.7,2.85a9.58,9.58,0,0,0-2.9,3.6c-.6,1.43-.5,3-1,4.49a10,10,0,0,0-.86,2.94C1.81,16.53.82,19.11.74,21.8a8.33,8.33,0,0,0,.73,3.68,5.15,5.15,0,0,0,2.06,2.25,13.13,13.13,0,0,0,1.8,1.07,5.62,5.62,0,0,0,2.1.67,17.32,17.32,0,0,0,2.16-.06,13,13,0,0,0,1.65-.08,13.86,13.86,0,0,0,2.41-.57c.85-.3,1.79-.84,2.64-1.16a11.52,11.52,0,0,0,2.08-1.26c.46-.28.76-.28,1.2-.59s.83-.84,1.31-1.18a8.22,8.22,0,0,0,1.89-2.15,9.36,9.36,0,0,0,1.44-2.68,13.15,13.15,0,0,1,1-2.85,5.65,5.65,0,0,0,.34-3m-6.32-.32a15.8,15.8,0,0,1-1.33,4.73c-.47.79-1.25,1-2,1.51-.37.24-.9.28-1.34.52a5.19,5.19,0,0,1-1.6.83c-1.36.21-3.63.43-4.87-.28a8.55,8.55,0,0,1-1-1,4.31,4.31,0,0,1-.92-4,14.63,14.63,0,0,1,2.09-5.13C9,9.64,9.64,8,10.9,7.4a18.52,18.52,0,0,1,2.26-.72A7.45,7.45,0,0,1,15.24,6a6.49,6.49,0,0,1,2.2.56A3.59,3.59,0,0,1,19,8.42a9.12,9.12,0,0,1,.28,5.15m3.36-5.31a6.93,6.93,0,0,0-.92-2.11,10.27,10.27,0,0,0-2.16-1.88c-.14-.3.5,0,.5,0a7.19,7.19,0,0,1,3,4c.25.74-.36.6-.44,0"/><path class="cls-2" d="M40.79,17.49h5.5A7.13,7.13,0,1,1,45,10.31l.17.2h2.47l-.7-.94a9.1,9.1,0,1,0,1.72,6.6l.08-.67H40.79Z"/><rect class="cls-2" x="49.94" y="6" width="1.99" height="17.85"/><path class="cls-2" d="M59.87,10.63a6.72,6.72,0,1,0,6.72,6.72,6.73,6.73,0,0,0-6.72-6.72m0,11.47a4.75,4.75,0,1,1,4.75-4.75,4.75,4.75,0,0,1-4.75,4.75"/><path class="cls-2" d="M95.86,16.72c0-.07,0-.13,0-.2a6.71,6.71,0,1,0-2,5.63v1.7h2V16.72Zm-2,1.22a4.75,4.75,0,1,1,0-1.18,4.08,4.08,0,0,1,0,.59,3.9,3.9,0,0,1,0,.59"/><rect class="cls-2" x="97.51" y="6" width="1.99" height="17.85"/><polygon class="cls-2" points="116.49 20.75 109.06 6 107.3 6 107.3 23.85 109.29 23.85 109.29 10.68 115.92 23.85 117.05 23.85 123.69 10.68 123.69 23.85 125.68 23.85 125.68 6 123.92 6 116.49 20.75"/><path class="cls-2" d="M74.51,10.63a6.73,6.73,0,0,0-4.71,1.93V6h-2V18a1.5,1.5,0,0,0,0,.2,6.72,6.72,0,1,0,6.67-7.56m0,11.47a4.75,4.75,0,0,1-4.71-4.16,3.9,3.9,0,0,1,0-.59,4.08,4.08,0,0,1,0-.59,4.75,4.75,0,1,1,4.71,5.34"/><path class="cls-2" d="M140.31,16.72a1.36,1.36,0,0,0,0-.2,6.71,6.71,0,1,0-2,5.63v1.7h2V16.72Zm-2,1.22a4.75,4.75,0,1,1,0-1.18,4.08,4.08,0,0,1,0,.59,3.9,3.9,0,0,1,0,.59"/><rect class="cls-2" x="141.95" y="6" width="1.99" height="17.85"/><rect class="cls-2" x="145.58" y="6" width="1.99" height="17.85"/></svg>