<svg id="圖層_1" data-name="圖層 1" xmlns="http://www.w3.org/2000/svg" viewBox="0 0 96.18 30"><defs><style>.cls-1{fill:#002e5b;}</style></defs><polygon class="cls-1" points="27.59 4.23 29.84 4.23 31.78 10.55 33.63 4.23 35.42 4.23 37.27 10.55 39.21 4.23 41.45 4.23 38.32 14.54 36.4 14.54 34.52 8.38 32.64 14.54 30.71 14.54 27.59 4.23"/><path class="cls-1" d="M44.94,12.68a1.87,1.87,0,1,0,0-3.73,1.87,1.87,0,1,0,0,3.73M44.54,7c1.14,0,2,.46,2.22,1.11v-1H49v7.46H46.76v-1a2.23,2.23,0,0,1-2.22,1.11,3.73,3.73,0,0,1-3.7-3.87A3.74,3.74,0,0,1,44.54,7"/><path class="cls-1" d="M50.86,9.08h-1v-2h1V4.23H53V7.08h1.66v2H53v2.67c0,.72.3,1,1,1a4,4,0,0,0,.56-.06v2a5.13,5.13,0,0,1-1.08.11c-1.1,0-2.58-.33-2.58-2.67Z"/><path class="cls-1" d="M61,10a1.47,1.47,0,0,0-1.61-1.24A1.67,1.67,0,0,0,57.54,10Zm-5.66.85a3.79,3.79,0,0,1,4.05-3.91,3.69,3.69,0,0,1,3.83,3.79s0,.37,0,.71H57.51c0,.89.81,1.47,2,1.47a2.43,2.43,0,0,0,1.82-.73l1.29,1.23a4.24,4.24,0,0,1-3.21,1.36,3.76,3.76,0,0,1-4.09-3.86Z"/><path class="cls-1" d="M64,7.08h2.21v1a2.23,2.23,0,0,1,2.16-1.18c.2,0,.46,0,.57,0V9A3.16,3.16,0,0,0,68.18,9a1.81,1.81,0,0,0-2,1.94v3.64H64Z"/><path class="cls-1" d="M73.44,12.65a1.85,1.85,0,1,0,0-3.7,1.85,1.85,0,1,0,0,3.7M73,7c1.14,0,2,.46,2.22,1.11v-1h2.21V13.3c0,1.54-.21,2.78-1.31,3.64a4.45,4.45,0,0,1-2.71.86,6.11,6.11,0,0,1-3.65-1.05l1-1.6a4.19,4.19,0,0,0,2.29.71,2.8,2.8,0,0,0,1.53-.38,1.83,1.83,0,0,0,.65-1.63v-.17a2.66,2.66,0,0,1-2.28.91,3.67,3.67,0,0,1-3.7-3.78A3.73,3.73,0,0,1,73,7"/><path class="cls-1" d="M83.94,10a1.48,1.48,0,0,0-1.62-1.24A1.66,1.66,0,0,0,80.52,10Zm-5.66.85a3.79,3.79,0,0,1,4-3.91,3.7,3.7,0,0,1,3.84,3.79s0,.37,0,.71H80.49c0,.89.81,1.47,2,1.47a2.44,2.44,0,0,0,1.82-.73l1.29,1.23a4.24,4.24,0,0,1-3.21,1.36,3.76,3.76,0,0,1-4.09-3.86Z"/><path class="cls-1" d="M87,7.08h2.2V8a2.32,2.32,0,0,1,2.18-1.1c1.83,0,2.85,1.17,2.85,3.09v4.53H92V10.28a1.27,1.27,0,0,0-1.36-1.41,1.42,1.42,0,0,0-1.47,1.48v4.19H87Z"/><path class="cls-1" d="M17.87,15.73h-.1l-4-8.28A7.23,7.23,0,0,0,9.11,3.7a4.59,4.59,0,0,1,7.68,1.11.94.94,0,0,0,.89.56h.19a5.18,5.18,0,0,1,0,10.36m.36-12.25A6.47,6.47,0,0,0,7,3.48a7.07,7.07,0,0,0,.36,14.14h9.85l.18,0,.51,0a7.07,7.07,0,0,0,.36-14.14"/><path class="cls-1" d="M17.87,15.73h-.1l-4-8.28A7.23,7.23,0,0,0,9.11,3.7a4.59,4.59,0,0,1,7.68,1.11.94.94,0,0,0,.89.56h.19a5.18,5.18,0,0,1,0,10.36m.36-12.25A6.47,6.47,0,0,0,7,3.48a7.07,7.07,0,0,0,.36,14.14h9.85l.18,0,.51,0a7.07,7.07,0,0,0,.36-14.14"/><path class="cls-1" d="M52.09,20.63l.89.73.06-.09a1.87,1.87,0,0,1,.3-.35c.26-.29.45-.5.57-.65l1,1,.81-.76-.06-.07a10,10,0,0,0-1-.91l-.1-.11L54,20l-.74-.55-.06.08a9.43,9.43,0,0,1-1,1.07Z"/><path class="cls-1" d="M55.56,26.46h2.78v-1h.81V23.1h-.87l.69-.77-.63-.47-1.39-1a7.86,7.86,0,0,0,.21-1.95v-.1H56v.1a6,6,0,0,1-.23,1.7c-.11.57-.69,1.09-1.71,1.56l-.11,0,.08.09c.22.28.42.55.59.79H53.1l.76-.86-.08-.06A18.42,18.42,0,0,0,52,20.86a6.06,6.06,0,0,0,.2-1.95v-.1H51v.1a5.23,5.23,0,0,1-.23,1.78c-.14.57-.76,1.1-1.84,1.56l-.13.06.1.1c.06.06.13.15.22.26s.26.33.35.43H48.7v2.32h.86v1h2.73a10.06,10.06,0,0,1-3.83,1.84l-.13,0,.07.11a6.36,6.36,0,0,1,.58,1l0,.08.08,0a10.48,10.48,0,0,0,4.17-2.45V29.8h1.36V27.11a9.81,9.81,0,0,0,4.12,2.32l.08,0,0-.07a4.2,4.2,0,0,1,.45-.72,1.15,1.15,0,0,1,.16-.25l.12-.12-.16,0A9.46,9.46,0,0,1,55.56,26.46Zm-4-4.57,1,.79a3.9,3.9,0,0,0,.46.42H50A4.07,4.07,0,0,0,51.53,21.89Zm5,0L58,23.1H54.93A5.11,5.11,0,0,0,56.49,21.89Zm-3.22,2.52v.91h-3.2V24.25h7.76v1.07h-3.2v-.91Z"/><path class="cls-1" d="M58,21.34l.07-.05a9.38,9.38,0,0,0,1.09-1.1l.06-.07-.87-.71-.06.07a13.2,13.2,0,0,1-1,1l0,0H57Z"/><path class="cls-1" d="M49.81,21.28l.07.07.92-.76-.08-.08c-.45-.44-.8-.81-1-1.08l-.07-.06-.86.7.06.08C49.12,20.51,49.45,20.89,49.81,21.28Z"/><path class="cls-1" d="M64.21,18.92l-1.52-.16,0,.07a9.94,9.94,0,0,1-2.73,3.76l-.07.05.05.07a10.06,10.06,0,0,1,.63,1.08l.06.12.54-.54.24-.22v5.34h1.28V28h5.06V22.11H62.32l.66-.89h6.09c0,1.13,0,2.73-.09,4.78,0,.53,0,.93,0,1.18a1.12,1.12,0,0,1-.29.84,1.31,1.31,0,0,1-1,.28H66l.32,1.27h1.75c1.47,0,2.21-.74,2.21-2.12.12-2.68.18-5.18.18-7.46V19.9H63.72Zm2.2,6.68v1.21h-1.3V25.6Zm0-2.3v1.25h-1.3V23.3ZM64,25.6v1.21H62.67V25.6Zm0-2.3v1.25H62.67V23.3Z"/><path class="cls-1" d="M76.9,23h-3v3h3Zm-2,2v-1h1v1Z"/><path class="cls-1" d="M72,29.8h1.32v-.5h7.53v.5h1.32V19.18H72Zm8.15-4.55-.12-.1,0,.15q-.18.9-.27,1.17v0c0,.21-.08.32-.19.32s-.23-.15-.3-.31a.81.81,0,0,1-.08-.25l0,0-.1-.16a15.21,15.21,0,0,0,1.51-2.77l0-.09-1-.49,0,.09a15.88,15.88,0,0,1-.81,1.74,17.36,17.36,0,0,1-.18-2.06h2V21.39H80.1L79.91,21l-.32-.5,0-.06-.82.29.38.63h-.63v-.95H77.29v.95H73.54v1.09h3.8a18.51,18.51,0,0,0,.44,3.41l-.61.64v-.32h-.11c-1,.12-2.15.24-3.52.36h-.11l.22,1.13h.08a1.77,1.77,0,0,0,.33,0c1-.14,1.82-.25,2.39-.31.37.37.59.61.68.72l.07.09.62-.63c.15-.19.28-.35.39-.47a1.26,1.26,0,0,0,1.16,1h0c.55,0,.94-.29,1.13-1a1.8,1.8,0,0,0,.09-.33,5.22,5.22,0,0,0,.22-.92v2.38H73.28V20.36h7.53v5.3l0,0A3.81,3.81,0,0,1,80.11,25.25Z"/><path class="cls-1" d="M94.19,24.2a5.7,5.7,0,0,1-1.51-1.32L94,21V19.81H91.48a5.35,5.35,0,0,1-.09-.84v-.1l-1.14.05V19a3.35,3.35,0,0,0,.09.81H88.87c.1-.23.18-.46.26-.69l0-.11L88,18.85l0,.08a10.23,10.23,0,0,1-1.77,3.28l.46-1.78V19.27H83.43V29.8h1.19V27.07a4.1,4.1,0,0,1,.12.7v.09h.09a5,5,0,0,0,.69-.05c.77-.13,1.16-.77,1.16-1.9a5,5,0,0,0-.09-1q.15.26.36.69l.06.1.09-.07.2-.15v1H89.8v1.68a.37.37,0,0,1-.06.28.33.33,0,0,1-.3.06,7.31,7.31,0,0,1-.93,0l-.14,0,0,.14c.09.35.17.7.23,1v.08h.59c.29,0,.52-.05.66-.05a1.19,1.19,0,0,0,.9-.31,1.26,1.26,0,0,0,.28-1V26.5h2.44V25.36h-6a9.17,9.17,0,0,0,1.34-1.26v.42H92v-.6a9.41,9.41,0,0,0,1.66,1.48l.11.09,0-.14a2.16,2.16,0,0,1,.17-.48,3.15,3.15,0,0,0,.23-.56l0-.07Zm-9.57-3.75h.95l-.75,3.09,0,0a3.61,3.61,0,0,1,.7,2.21.9.9,0,0,1-.14.67.35.35,0,0,1-.29.09h0a1.15,1.15,0,0,1-.46,0Zm4,2.05-.08.09v0c-.07.1-.11.18-.15.23L88,22.49l-.38-.31.14-.2.08-.17a4.08,4.08,0,0,1,.54.47Zm.76-1.64c-.09.26-.2.51-.3.74q-.37-.33-.75-.6l.07-.14Zm0,2.52A8.35,8.35,0,0,0,90.54,21a6.46,6.46,0,0,0,1.06,2.41Zm3.43-2.52-.75,1.07a6.5,6.5,0,0,1-.39-1.07Zm-6.19,2.37.06.17.37-.47c.24.2.48.41.7.63a9.56,9.56,0,0,1-1.26,1,4.37,4.37,0,0,0-.58-1.24l.27-1h0A3.62,3.62,0,0,1,86.64,23.23Z"/><path class="cls-1" d="M89.11,27.42l.07-.07-.92-.76-.06.07a12.41,12.41,0,0,1-1.93,1.75l-.1.07.1.08a3.88,3.88,0,0,1,.7.71l.06.08.08-.07A22,22,0,0,0,89.11,27.42Z"/><path class="cls-1" d="M92.26,26.7l-.07-.06-.81.81.08.07a22.68,22.68,0,0,1,1.75,1.66l.07.07.91-.86-.08-.07C93.51,27.78,92.88,27.23,92.26,26.7Z"/></svg>