<svg id="圖層_1" data-name="圖層 1" xmlns="http://www.w3.org/2000/svg" viewBox="0 0 131.55 29.53"><defs><style>.cls-1{fill:#009bdf;}</style></defs><path class="cls-1" d="M14.76,29.53h-.44l3-8.29h4.15A2,2,0,0,0,23.27,20l3.28-9a1.87,1.87,0,0,0-1.88-2.67H18.91L14.08,21.6h0l-2.74,7.53A14.77,14.77,0,0,1,10.78.54L8,8.32H8L3.25,21.23H6.38l4-11h2.35l-4,11h3.13L15.58,11a1.86,1.86,0,0,0-1.87-2.67H11.08l3-8.3.66,0a14.77,14.77,0,1,1,0,29.53ZM23.7,10.25H21.35l-3.3,9H20.4Z"/><path class="cls-1" d="M40.91,19a15,15,0,0,1-3.7,5.5,7.13,7.13,0,0,0-1.64-1.77,12.48,12.48,0,0,0,3-4.82Zm-4.32-1.48-.29-2.27,9.49-.4v-.81H38.35c-.19,0-.29-.08-.29-.3V6.85c0-.18.1-.27.29-.27h7.44V6H36.91V3.86h8.88V2.75h2.35V3.86h8.73V6H48.14v.62h7.41c.22,0,.32.09.32.27v6.91c0,.22-.1.3-.37.3l2.44,2.56-1.8,1.49L54.7,16.55Zm9.2-9.06H40.5c-.07,0-.1,0-.07.09v.79h5.36Zm0,2.79H40.43V12c0,.08,0,.1.07.12h5.29Zm-1.66,6.56v3.73c0,.47,0,.74.18.86a1.19,1.19,0,0,0,1,.35h4.12A1.87,1.87,0,0,0,51,22.13a10.86,10.86,0,0,0,.19-2.08l2.39.3A9.21,9.21,0,0,1,53,24.13a2.79,2.79,0,0,1-1.1.86,5.65,5.65,0,0,1-1.73.18H44.11a2.35,2.35,0,0,1-1.27-.38A1.9,1.9,0,0,1,42,24a3,3,0,0,1-.22-1.19V17.83ZM48,17.44a34.72,34.72,0,0,1,1.86,3.65l-2.2.84a21.25,21.25,0,0,0-1.75-3.48Zm.13-8.08H53.5V8.57c0-.07,0-.09-.09-.09H48.14Zm0,2.79h5.27L53.5,12v-.76H48.14ZM53,14.06H48.14v.71l4.48-.2-.07-.07Zm1.88,3.58a46.13,46.13,0,0,1,3.56,4.74l-2,1.26A26.16,26.16,0,0,0,53,19Z"/><path class="cls-1" d="M78.25,7.61l2.07,1a22.1,22.1,0,0,1-1.53,3.28H82v2.28H60.56V11.88h3.32a23.87,23.87,0,0,0-1.83-2.54L64,8c.8,1,1.51,2,2.09,3l-1.58.93h3.22V7.32h-6.3V5h4.71l-1-.89L66.81,2.4a25.25,25.25,0,0,1,2.14,2L68.27,5h5.47a23.46,23.46,0,0,0,2.19-2.81l1.88,1.48L76.86,5h4.22v2.3H75v4.56h1.1A27.63,27.63,0,0,0,78.25,7.61Zm-13,17.75H63v-9.5c0-.55.27-.82.78-.82H79.05a.74.74,0,0,1,.83.84v9.48H77.52V24.2H65.29Zm12.23-6.84v-.84a.3.3,0,0,0-.34-.34H65.64c-.25,0-.37.12-.35.34v.84Zm-12.23,2.3v1.09H77.52V20.82Zm7.37-8.94V7.32H70.08v4.56Z"/><path class="cls-1" d="M91,24.77H88.55V16.08a31.1,31.1,0,0,1-2.22,3.46l-2.27-1a23.78,23.78,0,0,0,4.37-7.16H84.87V8.87h3.68v-3l-3,.27-.35-2.49a44.24,44.24,0,0,0,8.4-1.38l.46,2.46c-1,.27-2,.55-3.1.77V8.87h3.15v2.49H91v.28A59.09,59.09,0,0,1,95,16.08l-1.83,1.65L91,14.9Zm2.39-3.88-.56-2.44L102.26,17V2.85h2.47v13.8l1.78-.3.37,2.47-2.15.35v5.7h-2.47V19.54Zm2.88-11a38.86,38.86,0,0,1,4.25,4.15l-1.83,1.6a42.3,42.3,0,0,0-4.13-4Zm.9-6a55.23,55.23,0,0,1,4.62,4.89l-1.93,1.53a41.13,41.13,0,0,0-4.47-4.74Z"/><path class="cls-1" d="M116.54,25.31l-1.73-2a20.52,20.52,0,0,0,6.93-3.13A34.75,34.75,0,0,1,117,14.5l-2.68,1.56v7.13a1.8,1.8,0,0,1-.27,1,3.37,3.37,0,0,1-1,.79,5.91,5.91,0,0,1-3.57-.07V22.3a3.9,3.9,0,0,0,2.15.37.67.67,0,0,0,.27-.57V17.27l-2.17.91-1-2.25,3.22-1.33V9.54h-2.54V7.05h2.54V2.85h2.44v4.2h2.1V9.54h-2.1v3.78l1.44-1,1.34,1.76,1.73-1.24a32.69,32.69,0,0,0,4.66,5.63,14.59,14.59,0,0,0,3.59-5.88h-9.54V10.13H122V7.32h-5.3V4.82H122v-2h2.44v2h5.93v2.5h-5.93v2.81h4.39l1.61,1a21.3,21.3,0,0,1-4.88,9,30.31,30.31,0,0,0,6,2.89l-1.66,2.32a31.16,31.16,0,0,1-6.15-3.53A20.06,20.06,0,0,1,116.54,25.31Z"/></svg>