<svg id="圖層_1" data-name="圖層 1" xmlns="http://www.w3.org/2000/svg" viewBox="0 0 145.21 30"><defs><style>.cls-1{fill:#003e6a;}.cls-2{fill:#baa0ca;}.cls-3{fill:#fff;}</style></defs><path class="cls-1" d="M37.63,14.94c0,8.14-8.32,14.73-18.58,14.73S.46,23.08.46,14.94,8.78.21,19.05.21,37.63,6.8,37.63,14.94"/><polygon class="cls-2" points="15.93 14.94 23.16 9.86 23.16 4.17 15.93 8.88 15.93 14.94"/><polygon class="cls-3" points="15.93 14.94 15.93 8.88 23.16 4.17 23.16 2.15 14.47 7.99 14.47 15.91 23.55 21.75 23.55 20.02 15.93 14.94"/><polygon class="cls-2" points="14.47 21.67 23.55 28.17 23.55 21.75 14.47 15.91 14.47 21.67"/><path d="M41.45,8.88A21.68,21.68,0,0,0,45,9.11h.43V7.27A26.24,26.24,0,0,0,45.17,3c.73.07,1.66.19,2.78.36.79.1,1.18.26,1.18.48s-.22.47-.64.62a.61.61,0,0,0-.49.61V8.65a5.58,5.58,0,0,1,.39-.46c.52-.69.84-1,.94-1,.29,0,.75.33,1.36,1a3.86,3.86,0,0,1,.9,1.25c0,.26-.14.38-.41.38H48V12.1a11.48,11.48,0,0,1,2.56,1.46c.62.51.92,1,.92,1.38a1.91,1.91,0,0,1-.43,1.28,1.19,1.19,0,0,1-1,.56,1,1,0,0,1-.64-.2,3.84,3.84,0,0,1-.54-1.41A5.92,5.92,0,0,0,48,13.45v8.43c0,1.45,0,2.88.1,4.3,0,.31-.41.53-1.25.67a6,6,0,0,1-.79.07c-.46,0-.69-.24-.69-.74.07-1.57.1-3,.1-4.3V15.66a17,17,0,0,1-1.79,3,13.37,13.37,0,0,1-2.12,2.46l-.39-.24a43.9,43.9,0,0,0,4-11.06H45c-1.49,0-2.53,0-3.15.1ZM61.32,3.24A4.23,4.23,0,0,1,62.83,4c.9.64,1.36,1.06,1.36,1.28a1,1,0,0,1-.52.77,1,1,0,0,0-.4.77V11c0,.82,0,2,.1,3.38,0,.34-.46.59-1.36.74a8.67,8.67,0,0,1-.9.08c-.45,0-.68-.27-.68-.82v-.21H57.3A11.71,11.71,0,0,0,58,17.1a14.64,14.64,0,0,0,1.22,2.61,9,9,0,0,0,1-1.35,13.42,13.42,0,0,0,1.48-2.84L64,17c.7.5,1.05.87,1.05,1.1s-.14.39-.43.39l-1.44-.18a19.08,19.08,0,0,1-3.53,2,11.54,11.54,0,0,0,2,2A14.13,14.13,0,0,0,65.24,24l-.21.54a2.25,2.25,0,0,0-1.69,1.33c-.24.61-.43.92-.56.92a3.25,3.25,0,0,1-1.54-.87,17.47,17.47,0,0,1-2.35-2.77,12.62,12.62,0,0,1-1.46-3.35,25.94,25.94,0,0,1-.79-5.64h-2v8.46c1.11-.12,2.17-.27,3.18-.44l.1.31a19.57,19.57,0,0,1-6.09,3.12c-.24,0-.36.12-.36.26s0,.2-.08.36-.11.35-.23.35c-.34,0-.76-.61-1.25-1.84l-.69-1.66c.88-.05,1.75-.12,2.58-.18V8.76a28.07,28.07,0,0,0-.33-5A17.7,17.7,0,0,1,54.82,4.9H59.5a13.3,13.3,0,0,1,1.1-1.2A1,1,0,0,1,61.32,3.24ZM54.66,5.58V9.11h5.76V5.58Zm0,4.21V13.5h5.76V9.79Z"/><path d="M68.51,6.24a28.8,28.8,0,0,0,3.57.17h1q0-1.94-.18-3.45c.77.07,1.77.2,3,.41,1,.15,1.46.32,1.46.51s-.28.51-.84.72a.72.72,0,0,0-.57.69V6.41h6.66A34.21,34.21,0,0,0,82.45,3c.78.07,1.79.2,3,.41,1,.15,1.48.32,1.48.51s-.29.51-.87.72a.72.72,0,0,0-.56.69V6.41h.31a7.7,7.7,0,0,0,.84-1c.62-.8,1-1.2,1.1-1.2.33,0,.85.38,1.57,1.15s1.07,1.24,1.07,1.41-.16.43-.49.43h-4.4v8.07h.79a8.94,8.94,0,0,0,.9-1.1c.66-.84,1.05-1.26,1.15-1.26.36,0,.91.4,1.67,1.2s1.12,1.29,1.12,1.46S91,16,90.62,16H83.11a15.55,15.55,0,0,0,3.72,2,27.24,27.24,0,0,0,4.63,1.15l-.1.49a2.32,2.32,0,0,0-1.44,1.46c-.18.53-.39.79-.61.79A6.11,6.11,0,0,1,87.37,21a12.77,12.77,0,0,1-3-2.23A14.91,14.91,0,0,1,82,16H77.2a19.76,19.76,0,0,1-2.84,3.14,15,15,0,0,1-3,1.9,23.71,23.71,0,0,1-3.79,1.41L67.39,22a15.81,15.81,0,0,0,3.66-2.56A13.54,13.54,0,0,0,73.79,16H71.05c-1.48,0-2.54,0-3.17.1l-.41-1a26.87,26.87,0,0,0,3.58.18h2V7.15h-1c-1.49,0-2.55,0-3.18.1Zm5,14.51a22.87,22.87,0,0,0,3.59.21h.82V19.83a11,11,0,0,0-.24-2.25A30.69,30.69,0,0,1,81,18c.66,0,1,.17,1,.46,0,.13-.19.31-.57.51s-.66.45-.66.72V21h.64a10.81,10.81,0,0,0,.76-.95c.6-.72.95-1.08,1.06-1.08.32,0,.82.35,1.48,1.05s1,1.14,1,1.31-.15.39-.44.39h-4.5v3.37H85a6.83,6.83,0,0,0,1-1.15c.68-.85,1.07-1.28,1.18-1.28.37,0,1,.41,1.71,1.23S90,25.17,90,25.36s-.18.43-.54.43H71.79c-1.5,0-2.57,0-3.2.1l-.39-1a26.73,26.73,0,0,0,3.59.18h6.15V21.68h-.82c-1.51,0-2.56,0-3.18.1ZM76,9.2h6.66v-2H76ZM76,12h6.66V9.89H76Zm0,3.18h6.66V12.78H76Z"/><path d="M105.05,6.23a24.29,24.29,0,0,1-3.33,1.25,7.29,7.29,0,0,1-.18.77c.89.14,1.61.27,2.16.41a4.41,4.41,0,0,1,1.38.67.71.71,0,0,1,.41.56,1.63,1.63,0,0,1-.54,1.23,1.31,1.31,0,0,1-1.13.64c-.17,0-.51-.38-1-1.13a6.52,6.52,0,0,0-1.62-1.56,5.49,5.49,0,0,1-1.59,1.72,7.34,7.34,0,0,1-2.35,1.15v.31h16.21a9.13,9.13,0,0,1,.82-.52,1.51,1.51,0,0,1,.75-.38c.22,0,.75.37,1.59,1.1s1.15,1.07,1.15,1.36-.21.33-.62.38a1.73,1.73,0,0,0-.79.1,23.86,23.86,0,0,1-2.84,1,.62.62,0,0,1,.15.33c0,.17-.14.34-.44.51a.93.93,0,0,0-.48.49v2.76c0,.29-.41.51-1.23.67a6,6,0,0,1-.79.07c-.47,0-.71-.21-.71-.64v-.38h-2.69a25.63,25.63,0,0,1-2.51,2.36h6.5c.34-.46.62-.82.85-1.1a.9.9,0,0,1,.71-.46,3.59,3.59,0,0,1,1.61.87c.89.6,1.33,1,1.33,1.28s-.15.4-.46.59-.51.35-.56.54v2.86c0,.35-.46.6-1.36.77a8.24,8.24,0,0,1-.9.08c-.46,0-.7-.25-.7-.74v-.59H99v.48c0,.35-.44.6-1.33.75a5,5,0,0,1-.82.1.75.75,0,0,1-.84-.85,12.73,12.73,0,0,0,.1-1.61V22.52c0-.63,0-1.39-.1-2.26a17.85,17.85,0,0,1,3.37,1.23h3.94c.29-.68.59-1.47.9-2.36H101v.38c0,.31-.4.53-1.21.67a5.88,5.88,0,0,1-.74.08q-.84,0-.84-.75a11.55,11.55,0,0,0,.1-1.5V16.24c0-.56,0-1.24-.1-2a21.32,21.32,0,0,1,2.84,1h8.43l.79-1.1a.87.87,0,0,1,.67-.41,3.49,3.49,0,0,1,1.49.76,3.16,3.16,0,0,0,.36.26,14.35,14.35,0,0,0,1-1.76H97.21a6.74,6.74,0,0,1-.13,1.1,2.15,2.15,0,0,1-.76,1.35,1.08,1.08,0,0,1-.67.24,2.08,2.08,0,0,1-1.46-.54,1.47,1.47,0,0,1-.51-1.21c0-.2.27-.46.82-.77a4,4,0,0,0,1.36-1,4.15,4.15,0,0,0,.82-1.54l.58.08v.56a5.65,5.65,0,0,0,1-1,4.68,4.68,0,0,0,.95-1.85A9.68,9.68,0,0,0,99.52,6c0-1.19,0-2.19-.1-3a19.64,19.64,0,0,1,2.17.36c1,.2,1.54.4,1.54.58s-.17.36-.51.52-.51.34-.51.51c0,.58-.11,1.09-.18,1.54.15-.16.29-.3.41-.41a9.21,9.21,0,0,0,1.59-2c.65.37,1.24.74,1.79,1.1s.79.64.79.84-.11.28-.33.28Zm-7-1.66.54.13a13.17,13.17,0,0,1-.21,2.89,1.85,1.85,0,0,1-.69,1.2,1.27,1.27,0,0,1-.66.19,2,2,0,0,1-1.33-.47,1.36,1.36,0,0,1-.52-1.15c0-.19.27-.4.8-.64a4.55,4.55,0,0,0,1.3-.82A3.1,3.1,0,0,0,98.09,4.57Zm1,20.3h12.79V22.21H99ZM101,18.39h9V16h-9ZM108,4.7l.53.1a12.54,12.54,0,0,1-.2,2.82,1.86,1.86,0,0,1-.77,1.17,1.32,1.32,0,0,1-.69.19,2,2,0,0,1-1.33-.47,1.38,1.38,0,0,1-.51-1.15c0-.17.27-.38.82-.64A4.42,4.42,0,0,0,107.24,6,3.17,3.17,0,0,0,108,4.7Zm7.68,1.92a35.92,35.92,0,0,1-3.84.82c-.07.2-.15.4-.23.59a18.38,18.38,0,0,1,1.89.38,5,5,0,0,1,1.57.69c.28.19.43.39.43.59a1.49,1.49,0,0,1-.49,1.15,1.23,1.23,0,0,1-1.05.62c-.2,0-.61-.39-1.22-1.18a7.62,7.62,0,0,0-1.54-1.38v0a5.11,5.11,0,0,1-1.92,1.85A12.39,12.39,0,0,1,106.19,12l-.21-.39a9.87,9.87,0,0,0,1.92-1.33,4.62,4.62,0,0,0,1.18-1.74,7,7,0,0,0,.38-2.25c0-1.25,0-2.29-.1-3.11q1.17.17,2.31.42c1.07.2,1.61.4,1.61.61s-.18.39-.51.56-.52.32-.52.49c-.07.53-.13,1-.2,1.41l.66-.54a8.87,8.87,0,0,0,1.77-1.81l2,1.25c.6.41.9.71.9.89s-.15.31-.44.31Z"/><path d="M119.91,14.94a9.2,9.2,0,0,0,2.36.28,8,8,0,0,0,.84-.76c.36-.36.63-.54.82-.54s.71.29,1.35.87,1.11,1,1.11,1.18-.19.43-.54.63-.49.55-.49.77v4.51a4.43,4.43,0,0,0,3,1.61,73.37,73.37,0,0,0,7.86.26,65.2,65.2,0,0,0,7.81-.53l.1.53c-.65.14-1.19.75-1.61,1.84-.07.47-.22.7-.44.7h-6.66q-2.25,0-5.78-.29a7,7,0,0,1-5-3.2c-.07,0-.14.08-.2.23a15.86,15.86,0,0,1-2,2.77c0,.68-.13,1-.38,1s-.34-.19-.54-.58c-.45-.86-.92-1.9-1.44-3.13,1.18-.19,2.08-.35,2.69-.49V16a11.76,11.76,0,0,0-2.38.17Zm.64-6.27a14.23,14.23,0,0,1,3.76,1.13,1.61,1.61,0,0,1,1,1.33,2,2,0,0,1-.64,1.4,1.47,1.47,0,0,1-1.12.44c-.42,0-.77-.34-1.08-1a7.73,7.73,0,0,0-2.1-2.85Zm1-4.59a13,13,0,0,1,3.61,1,1.45,1.45,0,0,1,.89,1.2,1.89,1.89,0,0,1-.64,1.38,1.38,1.38,0,0,1-1.13.49c-.37,0-.7-.33-1-1a7.53,7.53,0,0,0-2-2.71Zm7.55,0c.84.22,1.63.45,2.38.69s1.13.46,1.13.72-.21.42-.64.49-.67.13-.72.25a15.22,15.22,0,0,1-.87,1.85h3.13V5.69a11.51,11.51,0,0,0-.21-2.15c1.13.12,2.21.28,3.23.46.65,0,1,.18,1,.47,0,.12-.19.27-.56.46s-.67.4-.67.66V8.08h1s.28-.29.8-.85c.7-.8,1.15-1.2,1.36-1.2a6.19,6.19,0,0,1,1.76,1.33q.87.79.87,1c0,.25-.16.38-.48.38H136.3v4h2.36a8.1,8.1,0,0,0,.87-1c.61-.75,1-1.13,1.1-1.13.31,0,.8.37,1.49,1.1s1,1.18,1,1.33-.16.44-.49.44H130.49c-1.5,0-2.56,0-3.18.1l-.43-1a23.43,23.43,0,0,0,3.61.21h3v-4H130a3.24,3.24,0,0,1-.33.48,15.94,15.94,0,0,1-2.41,2.51l-.33-.3a28.31,28.31,0,0,0,1.43-3.4A30.87,30.87,0,0,0,129.13,4.08Zm-.59,10.56A19.74,19.74,0,0,1,132.13,16h5.12a12.25,12.25,0,0,1,1.1-1.21,1,1,0,0,1,.75-.46,4.61,4.61,0,0,1,1.53.74c.94.65,1.42,1.09,1.42,1.31s-.18.48-.52.71a.93.93,0,0,0-.41.75v1c0,.82,0,1.92.13,3.28,0,.34-.44.59-1.33.74a7.42,7.42,0,0,1-.82.08c-.48,0-.72-.27-.72-.82V21.6h-6.87v.62c0,.32-.42.56-1.26.71a6.45,6.45,0,0,1-.79.08.71.71,0,0,1-.82-.79c.05-.91.08-1.8.08-2.69v-1.2A36.48,36.48,0,0,0,128.54,14.64Zm3,6.22h6.89v-4.2H131.5Z"/></svg>