<svg id="圖層_1" data-name="圖層 1" xmlns="http://www.w3.org/2000/svg" viewBox="0 0 232.53 30"><defs><style>.cls-1{fill:#221714;}.cls-2{fill:#d72a17;}.cls-3{fill:#fff;}</style></defs><path class="cls-1" d="M166,25.54a2.2,2.2,0,0,1-.71,1.75,2.87,2.87,0,0,1-2,.62h-2.61V20.43h2.66a2.53,2.53,0,0,1,1.62.4,1.38,1.38,0,0,1,.48,1.11,1.5,1.5,0,0,1-.3,1,1.39,1.39,0,0,1-.91.48,2,2,0,0,1,1.25.65A2.13,2.13,0,0,1,166,25.54Zm-2.12-3.19a.77.77,0,0,0-.24-.64,1.12,1.12,0,0,0-.72-.2h-.58v1.65H163a1,1,0,0,0,.74-.22A.82.82,0,0,0,163.91,22.35Zm.44,3.1a1.32,1.32,0,0,0-.33-.95,1.44,1.44,0,0,0-1.08-.35h-.57v2.69H163a1.26,1.26,0,0,0,1-.36A1.54,1.54,0,0,0,164.35,25.45Z"/><path class="cls-1" d="M171.94,27.91h-1.49l0-.74a1.43,1.43,0,0,1-.61.58,2.18,2.18,0,0,1-1,.23,2,2,0,0,1-1.44-.48,1.89,1.89,0,0,1-.49-1.44V26a1.77,1.77,0,0,1,.65-1.47,2.72,2.72,0,0,1,1.75-.52,2.5,2.5,0,0,1,.66.09,1.36,1.36,0,0,1,.47.24v-.56a.62.62,0,0,0-.27-.5,1.27,1.27,0,0,0-.76-.2,3.4,3.4,0,0,0-.94.12,3.09,3.09,0,0,0-.71.29v-1a4.94,4.94,0,0,1,.87-.27,5,5,0,0,1,1.18-.12,2.35,2.35,0,0,1,1.64.5,2.1,2.1,0,0,1,.53,1.59ZM170.41,26v-.15a1.15,1.15,0,0,0-.24-.79.91.91,0,0,0-.72-.27,1,1,0,0,0-.71.25,1.14,1.14,0,0,0-.26.82V26a.88.88,0,0,0,.28.77,1.18,1.18,0,0,0,.7.2,1,1,0,0,0,.66-.24A.91.91,0,0,0,170.41,26Z"/><path class="cls-1" d="M178.34,27.91h-1.59v-4a.59.59,0,0,0-.2-.42.74.74,0,0,0-.54-.19,1.34,1.34,0,0,0-.61.14,1.58,1.58,0,0,0-.44.37v4.1h-1.59v-5.7h1.53l0,.91a1.68,1.68,0,0,1,.67-.72,2.28,2.28,0,0,1,1.2-.31,1.46,1.46,0,0,1,1.13.45,2,2,0,0,1,.41,1.37Z"/><path class="cls-1" d="M185.1,27.91h-1.87l-1.82-2.32v2.32h-1.59V20.43h1.59v4.09l1.91-2.31h1.47l-2.21,2.54Z"/><path class="cls-1" d="M193,25.69a2,2,0,0,1-.79,1.75A3.75,3.75,0,0,1,190,28a8.79,8.79,0,0,1-1.37-.09,5.73,5.73,0,0,1-.92-.24V26.39a3,3,0,0,0,.89.32,5,5,0,0,0,1.2.15,2.07,2.07,0,0,0,1.13-.22.83.83,0,0,0,.31-.73.86.86,0,0,0-.22-.58,4.34,4.34,0,0,0-1.28-.67,3.35,3.35,0,0,1-1.29-.86,2.11,2.11,0,0,1-.46-1.42,1.82,1.82,0,0,1,.74-1.46,3.14,3.14,0,0,1,2-.59,5.69,5.69,0,0,1,1.14.1,3.7,3.7,0,0,1,.71.18v1.13l-.85-.19a5.21,5.21,0,0,0-.9-.07,1.76,1.76,0,0,0-1,.21.6.6,0,0,0-.29.52.75.75,0,0,0,.22.6,5,5,0,0,0,1.31.6,3.19,3.19,0,0,1,1.45.93A2.21,2.21,0,0,1,193,25.69Z"/><path class="cls-1" d="M195.64,20.94a.79.79,0,0,1-.25.6.85.85,0,0,1-1.18,0,.83.83,0,0,1,0-1.19.85.85,0,0,1,1.18,0A.78.78,0,0,1,195.64,20.94Zm0,7H194v-5.7h1.59Z"/><path class="cls-1" d="M202,27.91h-1.59v-4a.58.58,0,0,0-.19-.42.78.78,0,0,0-.55-.19,1.27,1.27,0,0,0-.6.14,1.62,1.62,0,0,0-.45.37v4.1h-1.59v-5.7h1.53l0,.91a1.68,1.68,0,0,1,.67-.72,2.29,2.29,0,0,1,1.21-.31,1.44,1.44,0,0,1,1.12.45,2,2,0,0,1,.41,1.37Z"/><path class="cls-1" d="M209,25.23a2.73,2.73,0,0,1-.76,2.07,2.87,2.87,0,0,1-2.1.75,2.91,2.91,0,0,1-2.1-.76,2.71,2.71,0,0,1-.79-2.06v-.36a2.79,2.79,0,0,1,.77-2,2.88,2.88,0,0,1,2.11-.77,2.82,2.82,0,0,1,2.11.78,2.78,2.78,0,0,1,.76,2Zm-1.63-.13V25a2.52,2.52,0,0,0-.36-1.58,1.11,1.11,0,0,0-.88-.42,1.06,1.06,0,0,0-.88.45,2.63,2.63,0,0,0-.34,1.55v.09a2.69,2.69,0,0,0,.33,1.6,1.12,1.12,0,0,0,.89.4,1.14,1.14,0,0,0,.87-.39A2.44,2.44,0,0,0,207.39,25.1Z"/><path class="cls-1" d="M215.25,23a1.76,1.76,0,0,1-.59,1.44,2.57,2.57,0,0,1-1.68.49h-1v3h-1.69V20.43h2.82a1.87,1.87,0,0,1,2.16,1.94Zm-1.73.12v-.73a.79.79,0,0,0-.24-.63,1.27,1.27,0,0,0-.79-.2H212v2.34h.62a1.13,1.13,0,0,0,.67-.2A.69.69,0,0,0,213.52,23.08Z"/><path class="cls-1" d="M220.93,27.91h-1.48l0-.74a1.46,1.46,0,0,1-.62.58,2.15,2.15,0,0,1-1,.23,2,2,0,0,1-1.43-.48,1.89,1.89,0,0,1-.49-1.44V26a1.74,1.74,0,0,1,.65-1.47,2.7,2.7,0,0,1,1.75-.52,2.37,2.37,0,0,1,.65.09,1.33,1.33,0,0,1,.48.24v-.56a.62.62,0,0,0-.27-.5,1.29,1.29,0,0,0-.76-.2,3.35,3.35,0,0,0-.94.12,3,3,0,0,0-.72.29v-1a5.06,5.06,0,0,1,.88-.27,4.93,4.93,0,0,1,1.18-.12,2.32,2.32,0,0,1,1.63.5,2.06,2.06,0,0,1,.53,1.59ZM219.41,26v-.15a1.1,1.1,0,0,0-.25-.79.91.91,0,0,0-.71-.27,1,1,0,0,0-.71.25,1.14,1.14,0,0,0-.26.82V26a.88.88,0,0,0,.27.77,1.22,1.22,0,0,0,.71.2,1,1,0,0,0,.66-.24A.91.91,0,0,0,219.41,26Z"/><path class="cls-1" d="M226.69,27.61a2.28,2.28,0,0,1-.56.26,2.69,2.69,0,0,1-1,.18,3.21,3.21,0,0,1-2.21-.72,2.72,2.72,0,0,1-.83-2.16v-.24a2.75,2.75,0,0,1,.81-2.08,3,3,0,0,1,2.18-.79,3.31,3.31,0,0,1,1,.14,1.66,1.66,0,0,1,.6.29v1a1.9,1.9,0,0,0-.57-.32,2.11,2.11,0,0,0-.77-.13,1.3,1.3,0,0,0-1.11.52,2.39,2.39,0,0,0-.38,1.42v.11a2.46,2.46,0,0,0,.31,1.43,1.19,1.19,0,0,0,1,.43,2.85,2.85,0,0,0,.91-.15,1.66,1.66,0,0,0,.6-.29Z"/><path class="cls-1" d="M161.34,8.31h5.26l.39.51c-.34,2.41-2.07,4.59-5.19,6.56l-1-1.12a13.23,13.23,0,0,0,2.7-1.71A9.33,9.33,0,0,0,165,10.88a4,4,0,0,0,.55-1c0-.08,0-.13,0-.17a.52.52,0,0,0-.32-.07h-3.87Zm7.85,1.59v5a1.71,1.71,0,0,1-.63,1.4,2.31,2.31,0,0,1-1.56.42,10.76,10.76,0,0,1-2.42-.3L164.49,15c1.54.42,2.53.53,2.95.32a1.09,1.09,0,0,0,.39-.88V7c0-.14-.08-.21-.23-.21h-5.86V5.5h7a.4.4,0,0,1,.42.47v.52a18.71,18.71,0,0,0,2.1,4.5,17,17,0,0,0,4,3.89l-1.17.87A18.13,18.13,0,0,1,169.19,9.9ZM163.44,4l.19-1.33c.71.05,2,.19,3.82.41a45.23,45.23,0,0,1,4.72.72l-.28,1.32A48.49,48.49,0,0,0,163.44,4Zm10.71,1.35.94.9a20.62,20.62,0,0,1-3.16,3l-.88-1A21.59,21.59,0,0,0,174.15,5.33Z"/><path class="cls-1" d="M182.37,15.53l-.18-.41c-.13-.23-.23-.43-.3-.59H180c-.09,0-.14,0-.14-.15V11.93c0-.09,0-.13.14-.13h11c.1,0,.15,0,.15.13v2.45a.13.13,0,0,1-.15.15h-2c-.07.19-.17.42-.3.7a1.35,1.35,0,0,0-.14.3h4.07v1.06H178.31V15.53Zm-3.7-5.35h13.68v1H178.67Zm9.38-2.43h-1.41V6.81h1.41V6.08h-1.41V5.14h1.41V4.35h-1.41V3.41h1.41V2.54h1.06v.87h1.26v.94h-1.26v.79h1.2v.94h-1.2v.73h1.2v.94h-1.2v.76h1.62c.13,0,.2-.06.2-.19V2.8h1.18V9a.43.43,0,0,1-.49.49H179.36a.43.43,0,0,1-.48-.49V2.8h1.19V8.32c0,.13.05.19.17.19h1.64V7.75h-1.35V6.81h1.35V6h-1.29V5.08h1.29V4.35h-1.35V3.41h1.35V2.6h1.06v.81h1.2v.94h-1.2v.73h1.2V6h-1.2v.79h1.26v.94h-1.26v.76h1.87V2.6H186V8.51h2.05Zm2,5H181s-.06,0,0,.05v.63s0,0,0,.06H190s.06,0,.06-.06v-.63S190.07,12.79,190,12.79Zm-6.38,2.74h3.62c.17-.34.34-.67.5-1h-4.59C183.28,14.72,183.44,15.05,183.65,15.53Z"/><path class="cls-1" d="M199.52,3.66a12.68,12.68,0,0,1-2.68,2.47l-1.12-.77A9,9,0,0,0,199,2.46h1.19c0,.07-.07.16-.11.25l0,0a25.29,25.29,0,0,0,2.11,1.79l-1,.88A21,21,0,0,1,199.52,3.66Zm-3.67,7.65L197,11a12.91,12.91,0,0,1,.78,2.88l-1.17.29A13.84,13.84,0,0,0,195.85,11.31Zm2.53,3.5V10.25H196.1V9.07h2.28V7.5h-1.62V6.32h4.51V7.5h-1.64V9.07h2.12v1.18h-2.12v4.28l1.9-.52.25,1.21c-2.25.59-4.09,1-5.5,1.21l-.16-1.21C196.81,15.11,197.56,15,198.38,14.81ZM200.7,11l1.05.37c-.19.71-.42,1.43-.7,2.18l-1-.43A13.89,13.89,0,0,0,200.7,11Zm6.19,1.39a18.91,18.91,0,0,0,2.19-1.93l.81.88a16.47,16.47,0,0,1-2.4,2.09,11.12,11.12,0,0,0,2.7,2.4l-1.11.87A11.77,11.77,0,0,1,207,14.77,7.8,7.8,0,0,1,205.12,10h-1.36v5c.85-.26,1.57-.51,2.17-.76l.41,1.18a22.18,22.18,0,0,1-4.48,1.36l-.35-1.21,1-.24v-12a.32.32,0,0,1,.36-.36h6a.32.32,0,0,1,.37.36V9.56a.35.35,0,0,1-.39.39h-2.45A8,8,0,0,0,206.89,12.37Zm-3.13-6.53H208V4.38a.26.26,0,0,0-.3-.28h-3.61c-.21,0-.31.11-.3.29ZM208,7h-4.21V8.77h3.88a.29.29,0,0,0,.33-.33Z"/><path class="cls-1" d="M215.36,10.76c-.36.37-.69.68-1,1l-1.07-.83a11.61,11.61,0,0,0,3.34-4.42l1.19.54c-.4.8-.79,1.49-1.15,2.07v7.64h-1.31Zm.71-8.15,1.21.46a11.6,11.6,0,0,1-2.77,4.26l-1.11-.77A9.8,9.8,0,0,0,216.07,2.61Zm7.8,5.57h-5.48V6.88h9.18v1.3h-2.39V15a1.49,1.49,0,0,1-.69,1.31q-1.25.81-4.53-.14l0-1.36a20.33,20.33,0,0,0,2.29.53,1.92,1.92,0,0,0,1.46-.25.55.55,0,0,0,.13-.43Zm-5-4.88H227V4.59h-8.1Z"/><path class="cls-2" d="M23.63,11.05A10.85,10.85,0,1,1,12.78.2,10.84,10.84,0,0,1,23.63,11.05Z"/><rect class="cls-3" x="13.98" y="4.12" width="2.71" height="2.71"/><polygon class="cls-3" points="4.34 11.65 4.34 14.06 6.75 14.06 6.75 16.47 9.16 16.47 9.16 11.65 4.34 11.65"/><polygon class="cls-3" points="4.95 6.83 4.95 9.24 11.57 9.24 11.57 16.47 13.98 16.47 13.98 6.83 4.95 6.83"/><polygon class="cls-3" points="16.39 9.24 16.39 16.47 18.8 16.47 18.8 11.65 21.82 11.65 21.82 9.24 16.39 9.24"/><path class="cls-1" d="M77.07,14.9l-.78-.55c.56-1,1.11-2,1.68-3l1.12.64-1.66,3h3v1.29H67.08V15h2.79l-1.61-3,1.17-.68,1.64,3L70,15h3.11V11.13H67.19V9.77h5.86V8.06H69.59V6.73l-2.26,1c-.25-.44-.49-.83-.71-1.22C67.78,6,68.91,5.58,70,5.06A8.88,8.88,0,0,0,73.27,2.7c.25-.32,1.19-.09,1.34.28a.94.94,0,0,0,.3.33,17.93,17.93,0,0,0,5.47,3l.51.19c-.26.43-.51.82-.78,1.24l-2-.86V8H74.44V9.76h5.85v1.33H74.44V15H77ZM69.81,6.7h7.91L73.83,4.1Z"/><path class="cls-1" d="M53.8,8.47h1.76V2.61h1.23V8.45h2V7.78H57.44v-1h1.34V6.11H57.45v-1h1.33V4.37H57.45v-1h1.36V2.54h1.07c0,.29,0,.55.06.84h1.18v1H60v.75l1.13,0v.94H60v.69h1.12v1H60c-.14.71-.13.73.53.73,1.16,0,1.16,0,1.16-1.14,0-1.47,0-2.95,0-4.43a.54.54,0,0,1,0-.12h1.12c0,.13,0,.28,0,.43V8.81c0,.61-.11.73-.73.73H50.41c-.37,0-.72,0-.72-.53V2.79h1.19v.55c0,1.57,0,3.13,0,4.69,0,.33.08.48.43.47s.86,0,1.32,0V7.78H51.36v-1h1.27V6H51.42v-1h1.21v-.7H51.35v-1h1.27c0-.29.05-.54.07-.81h1c0,.26.06.51.09.8h1.12v.94H53.79v.72h1.13V6H53.79c0,.26,0,.47,0,.75L55,6.81v.93H53.8Z"/><path class="cls-1" d="M50.64,14.55c0-.89,0-1.74,0-2.58,0-.08.32-.21.49-.21h5.27c1.67,0,3.33,0,5,0,.42,0,.55.13.53.54a17.42,17.42,0,0,0,0,1.77c0,.41-.14.53-.52.5s-.55,0-.83,0c-.85,0-.85,0-1.15.93h3.93v1.09H49.13V15.52H53c-.06-.76-.28-1-1-1Zm1.09-1.07h9.08v-.64H51.73Zm2.36,1.09c.27.93.27.93,1.13.93H57.3c.87,0,.87,0,1.13-.93Z"/><path class="cls-1" d="M35.46,16.52c-.05-.6-.09-1-.13-1.55.65.13,1.25.26,1.86.37,1.09.19,1.49-.15,1.49-1.25,0-2.24,0-4.48,0-6.72,0-.45-.14-.56-.56-.55-1.64,0-3.27,0-4.9,0h-.59V5.48h6.68c.68,0,.71,0,.73.69a2.13,2.13,0,0,0,.1.56,14.62,14.62,0,0,0,5.44,7.74c.15.11.29.24.43.35,0,.06,0,.1-.05.12-1,.91-1,.91-2.06,0a17.79,17.79,0,0,1-3.57-4.44c-.06-.11-.13-.2-.26-.42,0,.31,0,.48,0,.66V14.8a1.62,1.62,0,0,1-1.67,1.84A28.87,28.87,0,0,1,35.46,16.52Z"/><path class="cls-1" d="M74.28,20.41H76v3.1h1.91V20.42h1.71V28H77.92V24.76H76V28h-1.7Z"/><path class="cls-1" d="M107.53,28.51a21.3,21.3,0,0,0,2.23.13c.88,0,1.18-.5,1.09-1.29a6,6,0,0,1-1.52.54,1.82,1.82,0,0,1-2.22-1.72,6.83,6.83,0,0,1-.07-1.86,2.38,2.38,0,0,1,3.79-1.79c.2-.38.47-.43,1.6-.28v5a2.38,2.38,0,0,1-2.21,2.55,12.3,12.3,0,0,1-2-.05c-.57,0-.81-.32-.7-.89A1.33,1.33,0,0,0,107.53,28.51Zm1.13-3.69c0,.41.06.76.12,1.1a.91.91,0,0,0,.92.88.84.84,0,0,0,1-.75,14.9,14.9,0,0,0,.09-2.11.89.89,0,0,0-.84-.91,1,1,0,0,0-1.06.73A7.43,7.43,0,0,0,108.66,24.82Z"/><path class="cls-1" d="M88.45,9.44a8.56,8.56,0,0,1-1,.82.91.91,0,0,0-.46.94c0,1.27,0,2.54,0,3.81a3.22,3.22,0,0,1-.09.82,1,1,0,0,1-.92.88,3.12,3.12,0,0,1-1.58-.36c-.21-.12-.09-.76-.13-1.23l.92.22a.36.36,0,0,0,.5-.36c0-1.14,0-2.27,0-3.49l-.92.51-.81-1c.49-.29,1-.56,1.42-.85.13-.08.29-.24.29-.37,0-1,0-2.07,0-3.16H84.18V5.4h1.47V2.68h1.29V5.36h1V6.62l-1,0V9l.52-.41Z"/><path class="cls-1" d="M96.18,28H94.65c0-.22-.05-.4-.08-.7a1.94,1.94,0,0,1-1.65.8,1.75,1.75,0,0,1-1.9-1.5,8.66,8.66,0,0,1,0-2.64,2.27,2.27,0,0,1,3.17-1.68l.38.16v-2h1.62Zm-1.6-3.07c0-.36,0-.73,0-1.09s-.27-.73-.71-.8a.93.93,0,0,0-1.13.75,13.14,13.14,0,0,0,0,2.43.81.81,0,0,0,1,.76,1,1,0,0,0,.9-1Z"/><path class="cls-1" d="M88.46,16.25V15h4.1V11.64H90.05V10.41h6.19v1.2H94V15h4.1v1.27Z"/><path class="cls-1" d="M55.56,25v3h-1.7V20.34c1.25.05,2.51.05,3.75.19a1.55,1.55,0,0,1,1,.76,2.87,2.87,0,0,1,.11,2.6,1.71,1.71,0,0,1-1.59,1C56.61,24.93,56.11,24.94,55.56,25Zm0-1.14c.56,0,1.19.16,1.4-.37a2.41,2.41,0,0,0,0-1.59c-.22-.53-.85-.32-1.37-.31v2.27Z"/><path class="cls-1" d="M36,20.43V21.7c-.44-.07-.86-.17-1.28-.2a5.08,5.08,0,0,0-1,0,.7.7,0,0,0-.7.64.74.74,0,0,0,.52.8c.48.21,1,.39,1.44.61a2.28,2.28,0,0,1,1.37,2.89,2,2,0,0,1-1.46,1.41,6.28,6.28,0,0,1-3.49,0,.62.62,0,0,1-.31-.43,6,6,0,0,1,0-.84c.76.1,1.5.24,2.25.29s1.16-.18,1.27-.63-.09-.91-.87-1.28c-.3-.14-.61-.25-.9-.4A2.24,2.24,0,0,1,31.32,22a2.29,2.29,0,0,1,2.33-1.71C34.4,20.29,35.16,20.39,36,20.43Z"/><path class="cls-1" d="M45.55,28H43.9V26.22c0-.71,0-1.42,0-2.13,0-.53-.25-.78-.76-.77a.94.94,0,0,0-1,.81v3.6c0,.06,0,.13,0,.24H40.55V22.21H42c0,.22.07.42.11.68A2.45,2.45,0,0,1,44,22.06a1.36,1.36,0,0,1,1.47,1.24c.09.77.07,1.56.09,2.34S45.55,27.16,45.55,28Z"/><path class="cls-1" d="M86.68,25.1c0,1.49-.52,2.39-1.61,2.81a3.2,3.2,0,0,1-3.55-.71,3.42,3.42,0,0,1-.4-3.59,2.55,2.55,0,0,1,2.64-1.56C85.67,22.06,86.68,23.11,86.68,25.1ZM82.52,25c.07.48.09.9.19,1.3a1,1,0,0,0,1,.79,1,1,0,0,0,1.09-.72,4.24,4.24,0,0,0,0-2.66,1,1,0,0,0-1-.72,1,1,0,0,0-1,.71A9.34,9.34,0,0,0,82.52,25Z"/><path class="cls-1" d="M52.59,25.69a2.32,2.32,0,0,1-1.65,2.22,3.1,3.1,0,0,1-3.43-.62,3.5,3.5,0,0,1,.12-4.56,3.29,3.29,0,0,1,4.31.22A3.7,3.7,0,0,1,52.59,25.69Zm-1.65-.6a9.31,9.31,0,0,0-.17-1.18A1.14,1.14,0,0,0,49.69,23a1.05,1.05,0,0,0-1.07.89,11,11,0,0,0,0,2.37,1,1,0,0,0,1,.86,1.11,1.11,0,0,0,1.15-.86A11.37,11.37,0,0,0,50.94,25.09Z"/><path class="cls-1" d="M64.64,28H63.12c0-.17,0-.34-.06-.59a2.28,2.28,0,0,1-2.12.64,1.53,1.53,0,0,1-1.4-1.37,2.25,2.25,0,0,1,3.12-2.57l.33.14c.16-.68-.08-1.12-.73-1.12a14.53,14.53,0,0,0-1.84.19c-.19-.76-.14-.9.69-1.07a6.86,6.86,0,0,1,1.75-.13A1.71,1.71,0,0,1,64.63,24C64.68,25.27,64.64,26.59,64.64,28Zm-3.52-2c0,.68.35,1,1,1a1,1,0,0,0,1-1.07c0-.72-.37-1.14-1-1.12S61.11,25.27,61.12,26Z"/><path class="cls-1" d="M100.76,22.21h1.51c0,.23,0,.45.08.72a2.27,2.27,0,0,1,1.78-.86,1.41,1.41,0,0,1,1.6,1.36c.06,1.5,0,3,0,4.55h-1.6v-.84c0-1,0-2,0-3,0-.56-.3-.82-.81-.8a.9.9,0,0,0-1,.86V28h-1.6Z"/><path class="cls-1" d="M93.9,2.6V3.81c1,0,1.92,0,2.87,0a4.2,4.2,0,0,1,.84.18.81.81,0,0,1,.64,1.12c-.18.7-.31,1.41-.48,2.18l-1.29-.41c.15-.62.29-1.2.44-1.84H89.84V7h-1.3c0-1,0-2,0-3,0-.09.27-.22.42-.23h3.6V2.6Z"/><path class="cls-1" d="M36.47,9.64H32.24V8.3c1.7,0,3.38,0,5.06,0,.36,0,.59.43.5.86a7.76,7.76,0,0,1-2.48,4.18c-.81.75-1.71,1.4-2.59,2.11l-1.07-1.22A9.29,9.29,0,0,0,36.47,9.64Z"/><path class="cls-1" d="M70.41,23.4a9.63,9.63,0,0,0-1.07-.3,1.32,1.32,0,0,0-1.64,1.12,6.12,6.12,0,0,0,0,1.91c.13.75.86,1,1.81.8.28-.07.55-.18.83-.27.27.87.14,1.13-.69,1.36a3,3,0,0,1-3.6-1.44c-.49-1.2-.45-3.26,1.06-4.13a3.68,3.68,0,0,1,2.43-.35C70.46,22.24,70.5,22.36,70.41,23.4Z"/><path class="cls-1" d="M113.48,26.86a11.34,11.34,0,0,0,1.45.3,1.7,1.7,0,0,0,.85-.16.73.73,0,0,0,.37-.5.83.83,0,0,0-.35-.57,6.16,6.16,0,0,0-1.06-.42,1.64,1.64,0,0,1-1.17-2,1.53,1.53,0,0,1,1.44-1.4,5.09,5.09,0,0,1,1.35,0c.93.13.93.16.84,1.08a14.23,14.23,0,0,0-1.73-.12c-.22,0-.43.31-.64.48a2.74,2.74,0,0,0,.57.56c.36.19.79.26,1.17.43a1.67,1.67,0,0,1,1.06,1.83A1.69,1.69,0,0,1,116.27,28a7.17,7.17,0,0,1-2,.08C113.35,28,113.31,27.85,113.48,26.86Z"/><path class="cls-1" d="M49.5,11.17v-1H63.08v1Z"/><path class="cls-1" d="M89.57,28H88V20.42h1.55Z"/><path class="cls-1" d="M43,3.66c-.12.57-.21,1-.28,1.32L34.31,3.86c0-.33.12-.75.2-1.29Z"/><path class="cls-1" d="M98.33,10.42l0,.07c-1.27.83-1,1-1.88-.21A13.58,13.58,0,0,1,95,7.63c-.13-.29-.25-.39-.55-.38H91.6V6c1.31,0,2.61,0,3.9,0,.12,0,.31.21.34.35A6.33,6.33,0,0,0,98.33,10.42Z"/><path class="cls-1" d="M97.66,22.21h1.58V28H97.66Z"/><path class="cls-1" d="M39,28H37.46V22.23H39Z"/><path class="cls-1" d="M45.06,5.32l.89,1-3.13,3c-.35-.38-.64-.7-.92-1Z"/><path class="cls-1" d="M91.26,7.51a10.64,10.64,0,0,1-2.45,4c-.35-.24-.68-.45-1-.69.45-.59.93-1.14,1.31-1.74s.67-1.25,1-1.93Z"/><path class="cls-1" d="M38.24,20.07a.82.82,0,0,1,.84.85.83.83,0,0,1-.85.85.89.89,0,0,1-.89-.89A.85.85,0,0,1,38.24,20.07Z"/><path class="cls-1" d="M98.44,20.07a.81.81,0,0,1,.86.84.83.83,0,0,1-.84.86.8.8,0,0,1-.85-.85A.79.79,0,0,1,98.44,20.07Z"/><rect class="cls-1" x="139.03" y="0.2" width="0.47" height="27.95"/></svg>