<svg id="圖層_1" data-name="圖層 1" xmlns="http://www.w3.org/2000/svg" viewBox="0 0 203.32 40.2"><title>屈臣氏Logo</title><path d="M24,0C10.06,0,0,7.59,0,24.61V35.76H194.74c5.34-3.92,8.58-10.53,8.58-20.17V0Z" fill="#009e96"/><path d="M179.28,40.2c6.05,0,11.37-1.44,15.46-4.44H0V40.2Z" fill="#e72410"/><path d="M166.94,25.32c3.29,0,4.75-.57,4.75-1.86s-2.44-1.63-5.38-1.91c-5.22-.53-7.45-2.2-7.45-5.59s2.69-5.49,7.39-5.49c.39,0,4.07.07,5.33.14h0c1.77.14,2.71.81,2.71,2s-.85,1.83-2.17,1.83-3.14-.16-5.22-.16c-3.65,0-4.16.79-4.16,1.65,0,1.2.84,1.58,4.46,2,5.94.73,8.37,2.32,8.37,5.48a4.79,4.79,0,0,1-1.86,4c-1.41,1.11-3.51,1.66-6.24,1.66a39.92,39.92,0,0,1-6.95-.4,1.94,1.94,0,0,1-1.78-1.9c0-1.1.83-1.8,2.16-1.8,1.11,0,3.4.36,6,.36M41.07,19.5l2.67,6.8A4.56,4.56,0,0,0,48,29.22a4.36,4.36,0,0,0,4.24-3L56.36,13A2,2,0,0,0,55,10.41a2.07,2.07,0,0,0-2.58,1.34L48.33,24.81a.4.4,0,0,1-.37.34c-.15,0-.29-.12-.37-.33l-3.44-8.75c-.52-1.33-1.17-3-3.08-3s-2.55,1.65-3.07,3l-3.44,8.75a.44.44,0,0,1-.38.33c-.16,0-.3-.12-.36-.34L29.73,11.75a2.08,2.08,0,0,0-2.59-1.34A2,2,0,0,0,25.79,13l4.14,13.21a4.35,4.35,0,0,0,4.24,3,4.56,4.56,0,0,0,4.24-2.92Zm83.38,5.93c-3.78,0-6.43-2.33-6.43-5.66s2.65-5.65,6.43-5.65,6.43,2.32,6.43,5.65-2.64,5.66-6.43,5.66m0-15.06c-6,0-10.4,4-10.4,9.4s4.38,9.41,10.4,9.41,10.41-4,10.41-9.41-4.37-9.4-10.41-9.4M83.89,7.53c-1.27,0-2.08,1-2.08,2.51V23.21c0,3.83,2.3,5.85,6.65,5.85a11.17,11.17,0,0,0,2.29-.21c1.43-.3,2.16-1,2.16-1.94s-.61-1.89-2.25-1.8c-.19,0-1.66.16-2.15.16-2.2,0-2.65-1.14-2.65-2.82V14.92h4.28c1.61,0,2.46-.64,2.46-1.84s-.92-1.84-2.46-1.84H85.86V10.06c0-1.54-.78-2.53-2-2.53M147,14.24c3.52,0,5.21,1.55,5.21,4.7v7.75c0,1.52.81,2.51,2.07,2.51,1,0,2-.79,2-2.54V18.38c0-4.81-3.65-7.91-9.3-7.91s-9.43,3.1-9.43,7.91v8.31c0,1.52.81,2.51,2.06,2.51,1,0,2-.79,2-2.54V18.94c0-3.12,1.79-4.7,5.29-4.7M97.48,25c-1.34,0-2.16.7-2.16,1.8a1.93,1.93,0,0,0,1.78,1.9,39.68,39.68,0,0,0,6.94.4c2.74,0,4.83-.55,6.23-1.66a4.78,4.78,0,0,0,1.88-4c0-3.16-2.43-4.75-8.37-5.48-3.63-.45-4.45-.83-4.45-2,0-.86.49-1.65,4.15-1.65,2.07,0,3.76.16,5.21.16s2.18-.72,2.18-1.83-.94-1.81-2.72-2h0c-1.26-.07-4.94-.15-5.33-.14-4.7,0-7.39,2-7.39,5.49s2.22,5.06,7.44,5.59c2.94.28,5.38.62,5.38,1.91s-1.46,1.86-4.74,1.86c-2.6,0-4.89-.36-6-.36m-29.33.49c-3.76,0-6.39-2.31-6.39-5.63v-.07c0-3.33,2.63-5.66,6.39-5.66,4.23,0,6.66,2.05,6.66,5.61s-2.76,5.75-6.66,5.75m6.48,1.17a2.37,2.37,0,0,0,.57,1.92,2.14,2.14,0,0,0,1.53.61c1.2,0,2-1,2-2.54V19.84c0-5.94-3.93-9.5-10.51-9.5-6,0-10.4,4-10.4,9.41s4.28,9.47,10,9.47a9.44,9.44,0,0,0,6.8-2.67Z" fill="#fff"/></svg>